M48
; DRILL file {KiCad (5.1.12)-1} date 01/04/22 22:53:55
; FORMAT={-:-/ absolute / inch / decimal}
; #@! TF.CreationDate,2022-01-04T22:53:55-05:00
; #@! TF.GenerationSoftware,Kicad,Pcbnew,(5.1.12)-1
; #@! TF.FileFunction,NonPlated,1,2,NPTH
FMAT,2
INCH
T1C0.0256
T2C0.0689
T3C0.1570
%
G90
G05
T1
X5.23Y-0.8711
X5.4575Y-0.8711
T2
X4.7687Y-1.2188
X4.7687Y-1.9688
X4.7687Y-2.7188
X4.7687Y-3.4688
X4.9562Y-4.2188
X5.1688Y-1.2188
X5.1688Y-1.9688
X5.1688Y-2.7188
X5.1688Y-3.4688
X5.3563Y-4.2188
X5.5187Y-1.2188
X5.5187Y-1.9688
X5.5187Y-2.7188
X5.5187Y-3.4688
X5.8937Y-4.2188
X5.9188Y-1.2188
X5.9188Y-1.9688
X5.9188Y-2.7188
X5.9188Y-3.4688
X6.2687Y-1.2188
X6.2687Y-1.9688
X6.2687Y-2.7188
X6.2687Y-3.4688
X6.2938Y-4.2188
X6.6437Y-4.2188
X6.6688Y-1.2188
X6.6688Y-1.9688
X6.6688Y-2.7188
X6.6688Y-3.4688
X7.0187Y-1.2188
X7.0187Y-1.9688
X7.0187Y-2.7188
X7.0187Y-3.4688
X7.0438Y-4.2188
X7.4188Y-1.2188
X7.4188Y-1.9688
X7.4188Y-2.7188
X7.4188Y-3.4688
X7.7687Y-1.2188
X7.7687Y-1.9688
X7.7687Y-2.7188
X7.7687Y-3.4688
X8.1687Y-1.2188
X8.1687Y-1.9688
X8.1687Y-2.7188
X8.1687Y-3.4688
T3
X4.9688Y-1.2188
X4.9688Y-1.9688
X4.9688Y-2.7188
X4.9688Y-3.4688
X5.1562Y-4.2188
X5.7188Y-1.2188
X5.7188Y-1.9688
X5.7188Y-2.7188
X5.7188Y-3.4688
X6.0938Y-4.2188
X6.4688Y-1.2188
X6.4688Y-1.9688
X6.4688Y-2.7188
X6.4688Y-3.4688
X6.8438Y-4.2188
X7.2188Y-1.2188
X7.2188Y-1.9688
X7.2188Y-2.7188
X7.2188Y-3.4688
X7.9688Y-1.2188
X7.9688Y-1.9688
X7.9688Y-2.7188
X7.9688Y-3.4688
T0
M30
