%TF.GenerationSoftware,KiCad,Pcbnew,(5.1.12)-1*%
%TF.CreationDate,2022-01-03T19:52:56-05:00*%
%TF.ProjectId,my-keeb-type-c-2,6d792d6b-6565-4622-9d74-7970652d632d,rev?*%
%TF.SameCoordinates,Original*%
%TF.FileFunction,Legend,Top*%
%TF.FilePolarity,Positive*%
%FSLAX46Y46*%
G04 Gerber Fmt 4.6, Leading zero omitted, Abs format (unit mm)*
G04 Created by KiCad (PCBNEW (5.1.12)-1) date 2022-01-03 19:52:56*
%MOMM*%
%LPD*%
G01*
G04 APERTURE LIST*
%ADD10C,0.150000*%
%ADD11C,1.750000*%
%ADD12C,3.987800*%
%ADD13C,0.650000*%
%ADD14O,1.000000X2.100000*%
%ADD15O,1.000000X1.600000*%
G04 APERTURE END LIST*
%TO.C,M2*%
D10*
X116343380Y-107997523D02*
X115343380Y-107997523D01*
X116057666Y-107664190D01*
X115343380Y-107330857D01*
X116343380Y-107330857D01*
X115438619Y-106902285D02*
X115391000Y-106854666D01*
X115343380Y-106759428D01*
X115343380Y-106521333D01*
X115391000Y-106426095D01*
X115438619Y-106378476D01*
X115533857Y-106330857D01*
X115629095Y-106330857D01*
X115771952Y-106378476D01*
X116343380Y-106949904D01*
X116343380Y-106330857D01*
%TO.C,M1*%
X119643380Y-31797523D02*
X118643380Y-31797523D01*
X119357666Y-31464190D01*
X118643380Y-31130857D01*
X119643380Y-31130857D01*
X119643380Y-30130857D02*
X119643380Y-30702285D01*
X119643380Y-30416571D02*
X118643380Y-30416571D01*
X118786238Y-30511809D01*
X118881476Y-30607047D01*
X118929095Y-30702285D01*
%TD*%
%LPC*%
D11*
%TO.C,MX25*%
X131286250Y-50006250D03*
X121126250Y-50006250D03*
D12*
X126206250Y-50006250D03*
%TD*%
D11*
%TO.C,MX26*%
X131286250Y-69056250D03*
X121126250Y-69056250D03*
D12*
X126206250Y-69056250D03*
%TD*%
%TO.C,M2*%
G36*
G01*
X118418300Y-102685850D02*
X118418300Y-103562150D01*
G75*
G02*
X117980150Y-104000300I-438150J0D01*
G01*
X117103850Y-104000300D01*
G75*
G02*
X116665700Y-103562150I0J438150D01*
G01*
X116665700Y-102685850D01*
G75*
G02*
X117103850Y-102247700I438150J0D01*
G01*
X117980150Y-102247700D01*
G75*
G02*
X118418300Y-102685850I0J-438150D01*
G01*
G37*
G36*
G01*
X118418300Y-104717850D02*
X118418300Y-105594150D01*
G75*
G02*
X117980150Y-106032300I-438150J0D01*
G01*
X117103850Y-106032300D01*
G75*
G02*
X116665700Y-105594150I0J438150D01*
G01*
X116665700Y-104717850D01*
G75*
G02*
X117103850Y-104279700I438150J0D01*
G01*
X117980150Y-104279700D01*
G75*
G02*
X118418300Y-104717850I0J-438150D01*
G01*
G37*
G36*
G01*
X118418300Y-106749850D02*
X118418300Y-107626150D01*
G75*
G02*
X117980150Y-108064300I-438150J0D01*
G01*
X117103850Y-108064300D01*
G75*
G02*
X116665700Y-107626150I0J438150D01*
G01*
X116665700Y-106749850D01*
G75*
G02*
X117103850Y-106311700I438150J0D01*
G01*
X117980150Y-106311700D01*
G75*
G02*
X118418300Y-106749850I0J-438150D01*
G01*
G37*
G36*
G01*
X118418300Y-108781850D02*
X118418300Y-109658150D01*
G75*
G02*
X117980150Y-110096300I-438150J0D01*
G01*
X117103850Y-110096300D01*
G75*
G02*
X116665700Y-109658150I0J438150D01*
G01*
X116665700Y-108781850D01*
G75*
G02*
X117103850Y-108343700I438150J0D01*
G01*
X117980150Y-108343700D01*
G75*
G02*
X118418300Y-108781850I0J-438150D01*
G01*
G37*
G36*
G01*
X118418300Y-110813850D02*
X118418300Y-111690150D01*
G75*
G02*
X117980150Y-112128300I-438150J0D01*
G01*
X117103850Y-112128300D01*
G75*
G02*
X116665700Y-111690150I0J438150D01*
G01*
X116665700Y-110813850D01*
G75*
G02*
X117103850Y-110375700I438150J0D01*
G01*
X117980150Y-110375700D01*
G75*
G02*
X118418300Y-110813850I0J-438150D01*
G01*
G37*
%TD*%
%TO.C,M1*%
G36*
G01*
X116663700Y-35490150D02*
X116663700Y-34613850D01*
G75*
G02*
X117101850Y-34175700I438150J0D01*
G01*
X117978150Y-34175700D01*
G75*
G02*
X118416300Y-34613850I0J-438150D01*
G01*
X118416300Y-35490150D01*
G75*
G02*
X117978150Y-35928300I-438150J0D01*
G01*
X117101850Y-35928300D01*
G75*
G02*
X116663700Y-35490150I0J438150D01*
G01*
G37*
G36*
G01*
X116663700Y-33458150D02*
X116663700Y-32581850D01*
G75*
G02*
X117101850Y-32143700I438150J0D01*
G01*
X117978150Y-32143700D01*
G75*
G02*
X118416300Y-32581850I0J-438150D01*
G01*
X118416300Y-33458150D01*
G75*
G02*
X117978150Y-33896300I-438150J0D01*
G01*
X117101850Y-33896300D01*
G75*
G02*
X116663700Y-33458150I0J438150D01*
G01*
G37*
G36*
G01*
X116663700Y-31426150D02*
X116663700Y-30549850D01*
G75*
G02*
X117101850Y-30111700I438150J0D01*
G01*
X117978150Y-30111700D01*
G75*
G02*
X118416300Y-30549850I0J-438150D01*
G01*
X118416300Y-31426150D01*
G75*
G02*
X117978150Y-31864300I-438150J0D01*
G01*
X117101850Y-31864300D01*
G75*
G02*
X116663700Y-31426150I0J438150D01*
G01*
G37*
G36*
G01*
X116663700Y-29394150D02*
X116663700Y-28517850D01*
G75*
G02*
X117101850Y-28079700I438150J0D01*
G01*
X117978150Y-28079700D01*
G75*
G02*
X118416300Y-28517850I0J-438150D01*
G01*
X118416300Y-29394150D01*
G75*
G02*
X117978150Y-29832300I-438150J0D01*
G01*
X117101850Y-29832300D01*
G75*
G02*
X116663700Y-29394150I0J438150D01*
G01*
G37*
G36*
G01*
X116663700Y-27362150D02*
X116663700Y-26485850D01*
G75*
G02*
X117101850Y-26047700I438150J0D01*
G01*
X117978150Y-26047700D01*
G75*
G02*
X118416300Y-26485850I0J-438150D01*
G01*
X118416300Y-27362150D01*
G75*
G02*
X117978150Y-27800300I-438150J0D01*
G01*
X117101850Y-27800300D01*
G75*
G02*
X116663700Y-27362150I0J438150D01*
G01*
G37*
%TD*%
D11*
%TO.C,MX24*%
X131286250Y-30956250D03*
X121126250Y-30956250D03*
D12*
X126206250Y-30956250D03*
%TD*%
D11*
%TO.C,MX46*%
X207486250Y-88106250D03*
X197326250Y-88106250D03*
D12*
X202406250Y-88106250D03*
%TD*%
D11*
%TO.C,MX42*%
X188436250Y-88106250D03*
X178276250Y-88106250D03*
D12*
X183356250Y-88106250D03*
%TD*%
D11*
%TO.C,MX39*%
X188436250Y-30956250D03*
X178276250Y-30956250D03*
D12*
X183356250Y-30956250D03*
%TD*%
D13*
%TO.C,USB1*%
X138621250Y-22125000D03*
X132841250Y-22125000D03*
D14*
X131411250Y-22655000D03*
X140051250Y-22655000D03*
D15*
X131411250Y-18475000D03*
X140051250Y-18475000D03*
%TD*%
D11*
%TO.C,MX45*%
X207486250Y-69056250D03*
X197326250Y-69056250D03*
D12*
X202406250Y-69056250D03*
%TD*%
D11*
%TO.C,MX44*%
X207486250Y-50006250D03*
X197326250Y-50006250D03*
D12*
X202406250Y-50006250D03*
%TD*%
D11*
%TO.C,MX43*%
X207486250Y-30956250D03*
X197326250Y-30956250D03*
D12*
X202406250Y-30956250D03*
%TD*%
D11*
%TO.C,MX41*%
X188436250Y-69056250D03*
X178276250Y-69056250D03*
D12*
X183356250Y-69056250D03*
%TD*%
D11*
%TO.C,MX40*%
X188436250Y-50006250D03*
X178276250Y-50006250D03*
D12*
X183356250Y-50006250D03*
%TD*%
D11*
%TO.C,MX38*%
X178911250Y-107156250D03*
X168751250Y-107156250D03*
D12*
X173831250Y-107156250D03*
%TD*%
D11*
%TO.C,MX37*%
X169386250Y-88106250D03*
X159226250Y-88106250D03*
D12*
X164306250Y-88106250D03*
%TD*%
D11*
%TO.C,MX36*%
X169386250Y-69056250D03*
X159226250Y-69056250D03*
D12*
X164306250Y-69056250D03*
%TD*%
D11*
%TO.C,MX35*%
X169386250Y-50006250D03*
X159226250Y-50006250D03*
D12*
X164306250Y-50006250D03*
%TD*%
D11*
%TO.C,MX34*%
X169386250Y-30956250D03*
X159226250Y-30956250D03*
D12*
X164306250Y-30956250D03*
%TD*%
D11*
%TO.C,MX33*%
X159861250Y-107156250D03*
X149701250Y-107156250D03*
D12*
X154781250Y-107156250D03*
%TD*%
D11*
%TO.C,MX32*%
X150336250Y-88106250D03*
X140176250Y-88106250D03*
D12*
X145256250Y-88106250D03*
%TD*%
D11*
%TO.C,MX31*%
X150336250Y-69056250D03*
X140176250Y-69056250D03*
D12*
X145256250Y-69056250D03*
%TD*%
D11*
%TO.C,MX30*%
X150336250Y-50006250D03*
X140176250Y-50006250D03*
D12*
X145256250Y-50006250D03*
%TD*%
D11*
%TO.C,MX29*%
X150336250Y-30956250D03*
X140176250Y-30956250D03*
D12*
X145256250Y-30956250D03*
%TD*%
D11*
%TO.C,MX28*%
X136048750Y-107156250D03*
X125888750Y-107156250D03*
D12*
X130968750Y-107156250D03*
%TD*%
D11*
%TO.C,MX27*%
X131286250Y-88106250D03*
X121126250Y-88106250D03*
D12*
X126206250Y-88106250D03*
%TD*%
M02*
