M48
; DRILL file {KiCad (5.1.12)-1} date 01/01/22 22:19:05
; FORMAT={-:-/ absolute / inch / decimal}
; #@! TF.CreationDate,2022-01-01T22:19:05-05:00
; #@! TF.GenerationSoftware,Kicad,Pcbnew,(5.1.12)-1
; #@! TF.FileFunction,NonPlated,1,2,NPTH
FMAT,2
INCH
T1C0.0689
T2C0.1570
%
G90
G05
T1
X4.425Y-0.875
X4.425Y-1.625
X4.425Y-2.375
X4.425Y-3.125
X4.6125Y-3.875
X4.825Y-0.875
X4.825Y-1.625
X4.825Y-2.375
X4.825Y-3.125
X5.0125Y-3.875
X5.175Y-0.875
X5.175Y-1.625
X5.175Y-2.375
X5.175Y-3.125
X5.55Y-3.875
X5.575Y-0.875
X5.575Y-1.625
X5.575Y-2.375
X5.575Y-3.125
X5.925Y-0.875
X5.925Y-1.625
X5.925Y-2.375
X5.925Y-3.125
X5.95Y-3.875
X6.3Y-3.875
X6.325Y-0.875
X6.325Y-1.625
X6.325Y-2.375
X6.325Y-3.125
X6.675Y-0.875
X6.675Y-1.625
X6.675Y-2.375
X6.675Y-3.125
X6.7Y-3.875
X7.075Y-0.875
X7.075Y-1.625
X7.075Y-2.375
X7.075Y-3.125
X7.425Y-0.875
X7.425Y-1.625
X7.425Y-2.375
X7.425Y-3.125
X7.825Y-0.875
X7.825Y-1.625
X7.825Y-2.375
X7.825Y-3.125
T2
X4.625Y-0.875
X4.625Y-1.625
X4.625Y-2.375
X4.625Y-3.125
X4.8125Y-3.875
X5.375Y-0.875
X5.375Y-1.625
X5.375Y-2.375
X5.375Y-3.125
X5.75Y-3.875
X6.125Y-0.875
X6.125Y-1.625
X6.125Y-2.375
X6.125Y-3.125
X6.5Y-3.875
X6.875Y-0.875
X6.875Y-1.625
X6.875Y-2.375
X6.875Y-3.125
X7.625Y-0.875
X7.625Y-1.625
X7.625Y-2.375
X7.625Y-3.125
T0
M30
