%TF.GenerationSoftware,KiCad,Pcbnew,(5.1.12)-1*%
%TF.CreationDate,2022-01-07T20:18:48-05:00*%
%TF.ProjectId,center-gasket-2,63656e74-6572-42d6-9761-736b65742d32,rev?*%
%TF.SameCoordinates,Original*%
%TF.FileFunction,Legend,Top*%
%TF.FilePolarity,Positive*%
%FSLAX46Y46*%
G04 Gerber Fmt 4.6, Leading zero omitted, Abs format (unit mm)*
G04 Created by KiCad (PCBNEW (5.1.12)-1) date 2022-01-07 20:18:48*
%MOMM*%
%LPD*%
G01*
G04 APERTURE LIST*
%ADD10C,0.150000*%
%ADD11C,0.381000*%
%ADD12R,1.800000X1.100000*%
%ADD13C,3.987800*%
%ADD14C,1.750000*%
%ADD15C,1.752600*%
%ADD16R,1.752600X1.752600*%
%ADD17R,1.600000X1.600000*%
%ADD18C,1.600000*%
G04 APERTURE END LIST*
D10*
%TO.C,SW1*%
X114518750Y-119281250D02*
X109318750Y-119281250D01*
X109318750Y-119281250D02*
X109318750Y-114081250D01*
X109318750Y-114081250D02*
X114518750Y-114081250D01*
X114518750Y-114081250D02*
X114518750Y-119281250D01*
X112918750Y-116681250D02*
G75*
G03*
X112918750Y-116681250I-1000000J0D01*
G01*
D11*
%TO.C,U1*%
X31591250Y-33972500D02*
X31591250Y-64452500D01*
X31591250Y-64452500D02*
X49371250Y-64452500D01*
X49371250Y-64452500D02*
X49371250Y-33972500D01*
X34131250Y-33972500D02*
X34131250Y-36512500D01*
X34131250Y-36512500D02*
X31591250Y-36512500D01*
D10*
G36*
X45412818Y-39851860D02*
G01*
X45412818Y-40151860D01*
X45312818Y-40151860D01*
X45312818Y-39851860D01*
X45412818Y-39851860D01*
G37*
X45412818Y-39851860D02*
X45412818Y-40151860D01*
X45312818Y-40151860D01*
X45312818Y-39851860D01*
X45412818Y-39851860D01*
G36*
X45212818Y-40251860D02*
G01*
X45212818Y-40351860D01*
X45112818Y-40351860D01*
X45112818Y-40251860D01*
X45212818Y-40251860D01*
G37*
X45212818Y-40251860D02*
X45212818Y-40351860D01*
X45112818Y-40351860D01*
X45112818Y-40251860D01*
X45212818Y-40251860D01*
G36*
X45412818Y-39851860D02*
G01*
X45412818Y-39951860D01*
X44912818Y-39951860D01*
X44912818Y-39851860D01*
X45412818Y-39851860D01*
G37*
X45412818Y-39851860D02*
X45412818Y-39951860D01*
X44912818Y-39951860D01*
X44912818Y-39851860D01*
X45412818Y-39851860D01*
G36*
X45012818Y-39851860D02*
G01*
X45012818Y-40651860D01*
X44912818Y-40651860D01*
X44912818Y-39851860D01*
X45012818Y-39851860D01*
G37*
X45012818Y-39851860D02*
X45012818Y-40651860D01*
X44912818Y-40651860D01*
X44912818Y-39851860D01*
X45012818Y-39851860D01*
G36*
X45412818Y-40451860D02*
G01*
X45412818Y-40651860D01*
X45312818Y-40651860D01*
X45312818Y-40451860D01*
X45412818Y-40451860D01*
G37*
X45412818Y-40451860D02*
X45412818Y-40651860D01*
X45312818Y-40651860D01*
X45312818Y-40451860D01*
X45412818Y-40451860D01*
D11*
X49371250Y-33972500D02*
X49371250Y-31432500D01*
X49371250Y-31432500D02*
X31591250Y-31432500D01*
X31591250Y-31432500D02*
X31591250Y-33972500D01*
X34131250Y-33972500D02*
X31591250Y-33972500D01*
%TO.C,SW1*%
D10*
X110585416Y-113022011D02*
X110728273Y-113069630D01*
X110966369Y-113069630D01*
X111061607Y-113022011D01*
X111109226Y-112974392D01*
X111156845Y-112879154D01*
X111156845Y-112783916D01*
X111109226Y-112688678D01*
X111061607Y-112641059D01*
X110966369Y-112593440D01*
X110775892Y-112545821D01*
X110680654Y-112498202D01*
X110633035Y-112450583D01*
X110585416Y-112355345D01*
X110585416Y-112260107D01*
X110633035Y-112164869D01*
X110680654Y-112117250D01*
X110775892Y-112069630D01*
X111013988Y-112069630D01*
X111156845Y-112117250D01*
X111490178Y-112069630D02*
X111728273Y-113069630D01*
X111918750Y-112355345D01*
X112109226Y-113069630D01*
X112347321Y-112069630D01*
X113252083Y-113069630D02*
X112680654Y-113069630D01*
X112966369Y-113069630D02*
X112966369Y-112069630D01*
X112871130Y-112212488D01*
X112775892Y-112307726D01*
X112680654Y-112355345D01*
%TO.C,M2*%
X33948630Y-117522523D02*
X32948630Y-117522523D01*
X33662916Y-117189190D01*
X32948630Y-116855857D01*
X33948630Y-116855857D01*
X33043869Y-116427285D02*
X32996250Y-116379666D01*
X32948630Y-116284428D01*
X32948630Y-116046333D01*
X32996250Y-115951095D01*
X33043869Y-115903476D01*
X33139107Y-115855857D01*
X33234345Y-115855857D01*
X33377202Y-115903476D01*
X33948630Y-116474904D01*
X33948630Y-115855857D01*
%TO.C,M1*%
X33948630Y-79422523D02*
X32948630Y-79422523D01*
X33662916Y-79089190D01*
X32948630Y-78755857D01*
X33948630Y-78755857D01*
X33948630Y-77755857D02*
X33948630Y-78327285D01*
X33948630Y-78041571D02*
X32948630Y-78041571D01*
X33091488Y-78136809D01*
X33186726Y-78232047D01*
X33234345Y-78327285D01*
%TO.C,U1*%
X34718901Y-34804404D02*
X35176044Y-34804404D01*
X34947473Y-35604404D02*
X34947473Y-34804404D01*
X35366520Y-34804404D02*
X35899854Y-35604404D01*
X35899854Y-34804404D02*
X35366520Y-35604404D01*
X36356997Y-34804404D02*
X36433187Y-34804404D01*
X36509378Y-34842500D01*
X36547473Y-34880595D01*
X36585568Y-34956785D01*
X36623663Y-35109166D01*
X36623663Y-35299642D01*
X36585568Y-35452023D01*
X36547473Y-35528214D01*
X36509378Y-35566309D01*
X36433187Y-35604404D01*
X36356997Y-35604404D01*
X36280806Y-35566309D01*
X36242711Y-35528214D01*
X36204616Y-35452023D01*
X36166520Y-35299642D01*
X36166520Y-35109166D01*
X36204616Y-34956785D01*
X36242711Y-34880595D01*
X36280806Y-34842500D01*
X36356997Y-34804404D01*
X37537949Y-34766309D02*
X36852235Y-35794880D01*
X37804616Y-35604404D02*
X37804616Y-34804404D01*
X37995092Y-34804404D01*
X38109378Y-34842500D01*
X38185568Y-34918690D01*
X38223663Y-34994880D01*
X38261758Y-35147261D01*
X38261758Y-35261547D01*
X38223663Y-35413928D01*
X38185568Y-35490119D01*
X38109378Y-35566309D01*
X37995092Y-35604404D01*
X37804616Y-35604404D01*
X38528425Y-34804404D02*
X39023663Y-34804404D01*
X38756997Y-35109166D01*
X38871282Y-35109166D01*
X38947473Y-35147261D01*
X38985568Y-35185357D01*
X39023663Y-35261547D01*
X39023663Y-35452023D01*
X38985568Y-35528214D01*
X38947473Y-35566309D01*
X38871282Y-35604404D01*
X38642711Y-35604404D01*
X38566520Y-35566309D01*
X38528425Y-35528214D01*
X34429773Y-38144404D02*
X34429773Y-37344404D01*
X34620250Y-37344404D01*
X34734535Y-37382500D01*
X34810726Y-37458690D01*
X34848821Y-37534880D01*
X34886916Y-37687261D01*
X34886916Y-37801547D01*
X34848821Y-37953928D01*
X34810726Y-38030119D01*
X34734535Y-38106309D01*
X34620250Y-38144404D01*
X34429773Y-38144404D01*
X35191678Y-37420595D02*
X35229773Y-37382500D01*
X35305964Y-37344404D01*
X35496440Y-37344404D01*
X35572630Y-37382500D01*
X35610726Y-37420595D01*
X35648821Y-37496785D01*
X35648821Y-37572976D01*
X35610726Y-37687261D01*
X35153583Y-38144404D01*
X35648821Y-38144404D01*
X34429773Y-48304404D02*
X34429773Y-47504404D01*
X34620250Y-47504404D01*
X34734535Y-47542500D01*
X34810726Y-47618690D01*
X34848821Y-47694880D01*
X34886916Y-47847261D01*
X34886916Y-47961547D01*
X34848821Y-48113928D01*
X34810726Y-48190119D01*
X34734535Y-48266309D01*
X34620250Y-48304404D01*
X34429773Y-48304404D01*
X35382154Y-47504404D02*
X35458345Y-47504404D01*
X35534535Y-47542500D01*
X35572630Y-47580595D01*
X35610726Y-47656785D01*
X35648821Y-47809166D01*
X35648821Y-47999642D01*
X35610726Y-48152023D01*
X35572630Y-48228214D01*
X35534535Y-48266309D01*
X35458345Y-48304404D01*
X35382154Y-48304404D01*
X35305964Y-48266309D01*
X35267869Y-48228214D01*
X35229773Y-48152023D01*
X35191678Y-47999642D01*
X35191678Y-47809166D01*
X35229773Y-47656785D01*
X35267869Y-47580595D01*
X35305964Y-47542500D01*
X35382154Y-47504404D01*
X34429773Y-45764404D02*
X34429773Y-44964404D01*
X34620250Y-44964404D01*
X34734535Y-45002500D01*
X34810726Y-45078690D01*
X34848821Y-45154880D01*
X34886916Y-45307261D01*
X34886916Y-45421547D01*
X34848821Y-45573928D01*
X34810726Y-45650119D01*
X34734535Y-45726309D01*
X34620250Y-45764404D01*
X34429773Y-45764404D01*
X35648821Y-45764404D02*
X35191678Y-45764404D01*
X35420250Y-45764404D02*
X35420250Y-44964404D01*
X35344059Y-45078690D01*
X35267869Y-45154880D01*
X35191678Y-45192976D01*
X34410726Y-42462500D02*
X34334535Y-42424404D01*
X34220250Y-42424404D01*
X34105964Y-42462500D01*
X34029773Y-42538690D01*
X33991678Y-42614880D01*
X33953583Y-42767261D01*
X33953583Y-42881547D01*
X33991678Y-43033928D01*
X34029773Y-43110119D01*
X34105964Y-43186309D01*
X34220250Y-43224404D01*
X34296440Y-43224404D01*
X34410726Y-43186309D01*
X34448821Y-43148214D01*
X34448821Y-42881547D01*
X34296440Y-42881547D01*
X34791678Y-43224404D02*
X34791678Y-42424404D01*
X35248821Y-43224404D01*
X35248821Y-42424404D01*
X35629773Y-43224404D02*
X35629773Y-42424404D01*
X35820250Y-42424404D01*
X35934535Y-42462500D01*
X36010726Y-42538690D01*
X36048821Y-42614880D01*
X36086916Y-42767261D01*
X36086916Y-42881547D01*
X36048821Y-43033928D01*
X36010726Y-43110119D01*
X35934535Y-43186309D01*
X35820250Y-43224404D01*
X35629773Y-43224404D01*
X34410726Y-39922500D02*
X34334535Y-39884404D01*
X34220250Y-39884404D01*
X34105964Y-39922500D01*
X34029773Y-39998690D01*
X33991678Y-40074880D01*
X33953583Y-40227261D01*
X33953583Y-40341547D01*
X33991678Y-40493928D01*
X34029773Y-40570119D01*
X34105964Y-40646309D01*
X34220250Y-40684404D01*
X34296440Y-40684404D01*
X34410726Y-40646309D01*
X34448821Y-40608214D01*
X34448821Y-40341547D01*
X34296440Y-40341547D01*
X34791678Y-40684404D02*
X34791678Y-39884404D01*
X35248821Y-40684404D01*
X35248821Y-39884404D01*
X35629773Y-40684404D02*
X35629773Y-39884404D01*
X35820250Y-39884404D01*
X35934535Y-39922500D01*
X36010726Y-39998690D01*
X36048821Y-40074880D01*
X36086916Y-40227261D01*
X36086916Y-40341547D01*
X36048821Y-40493928D01*
X36010726Y-40570119D01*
X35934535Y-40646309D01*
X35820250Y-40684404D01*
X35629773Y-40684404D01*
X34429773Y-50844404D02*
X34429773Y-50044404D01*
X34620250Y-50044404D01*
X34734535Y-50082500D01*
X34810726Y-50158690D01*
X34848821Y-50234880D01*
X34886916Y-50387261D01*
X34886916Y-50501547D01*
X34848821Y-50653928D01*
X34810726Y-50730119D01*
X34734535Y-50806309D01*
X34620250Y-50844404D01*
X34429773Y-50844404D01*
X35572630Y-50311071D02*
X35572630Y-50844404D01*
X35382154Y-50006309D02*
X35191678Y-50577738D01*
X35686916Y-50577738D01*
X34886916Y-53308214D02*
X34848821Y-53346309D01*
X34734535Y-53384404D01*
X34658345Y-53384404D01*
X34544059Y-53346309D01*
X34467869Y-53270119D01*
X34429773Y-53193928D01*
X34391678Y-53041547D01*
X34391678Y-52927261D01*
X34429773Y-52774880D01*
X34467869Y-52698690D01*
X34544059Y-52622500D01*
X34658345Y-52584404D01*
X34734535Y-52584404D01*
X34848821Y-52622500D01*
X34886916Y-52660595D01*
X35572630Y-52584404D02*
X35420250Y-52584404D01*
X35344059Y-52622500D01*
X35305964Y-52660595D01*
X35229773Y-52774880D01*
X35191678Y-52927261D01*
X35191678Y-53232023D01*
X35229773Y-53308214D01*
X35267869Y-53346309D01*
X35344059Y-53384404D01*
X35496440Y-53384404D01*
X35572630Y-53346309D01*
X35610726Y-53308214D01*
X35648821Y-53232023D01*
X35648821Y-53041547D01*
X35610726Y-52965357D01*
X35572630Y-52927261D01*
X35496440Y-52889166D01*
X35344059Y-52889166D01*
X35267869Y-52927261D01*
X35229773Y-52965357D01*
X35191678Y-53041547D01*
X34429773Y-55924404D02*
X34429773Y-55124404D01*
X34620250Y-55124404D01*
X34734535Y-55162500D01*
X34810726Y-55238690D01*
X34848821Y-55314880D01*
X34886916Y-55467261D01*
X34886916Y-55581547D01*
X34848821Y-55733928D01*
X34810726Y-55810119D01*
X34734535Y-55886309D01*
X34620250Y-55924404D01*
X34429773Y-55924404D01*
X35153583Y-55124404D02*
X35686916Y-55124404D01*
X35344059Y-55924404D01*
X34467869Y-58045357D02*
X34734535Y-58045357D01*
X34848821Y-58464404D02*
X34467869Y-58464404D01*
X34467869Y-57664404D01*
X34848821Y-57664404D01*
X35534535Y-57664404D02*
X35382154Y-57664404D01*
X35305964Y-57702500D01*
X35267869Y-57740595D01*
X35191678Y-57854880D01*
X35153583Y-58007261D01*
X35153583Y-58312023D01*
X35191678Y-58388214D01*
X35229773Y-58426309D01*
X35305964Y-58464404D01*
X35458345Y-58464404D01*
X35534535Y-58426309D01*
X35572630Y-58388214D01*
X35610726Y-58312023D01*
X35610726Y-58121547D01*
X35572630Y-58045357D01*
X35534535Y-58007261D01*
X35458345Y-57969166D01*
X35305964Y-57969166D01*
X35229773Y-58007261D01*
X35191678Y-58045357D01*
X35153583Y-58121547D01*
X34696440Y-60585357D02*
X34810726Y-60623452D01*
X34848821Y-60661547D01*
X34886916Y-60737738D01*
X34886916Y-60852023D01*
X34848821Y-60928214D01*
X34810726Y-60966309D01*
X34734535Y-61004404D01*
X34429773Y-61004404D01*
X34429773Y-60204404D01*
X34696440Y-60204404D01*
X34772630Y-60242500D01*
X34810726Y-60280595D01*
X34848821Y-60356785D01*
X34848821Y-60432976D01*
X34810726Y-60509166D01*
X34772630Y-60547261D01*
X34696440Y-60585357D01*
X34429773Y-60585357D01*
X35572630Y-60471071D02*
X35572630Y-61004404D01*
X35382154Y-60166309D02*
X35191678Y-60737738D01*
X35686916Y-60737738D01*
X34696440Y-63125357D02*
X34810726Y-63163452D01*
X34848821Y-63201547D01*
X34886916Y-63277738D01*
X34886916Y-63392023D01*
X34848821Y-63468214D01*
X34810726Y-63506309D01*
X34734535Y-63544404D01*
X34429773Y-63544404D01*
X34429773Y-62744404D01*
X34696440Y-62744404D01*
X34772630Y-62782500D01*
X34810726Y-62820595D01*
X34848821Y-62896785D01*
X34848821Y-62972976D01*
X34810726Y-63049166D01*
X34772630Y-63087261D01*
X34696440Y-63125357D01*
X34429773Y-63125357D01*
X35610726Y-62744404D02*
X35229773Y-62744404D01*
X35191678Y-63125357D01*
X35229773Y-63087261D01*
X35305964Y-63049166D01*
X35496440Y-63049166D01*
X35572630Y-63087261D01*
X35610726Y-63125357D01*
X35648821Y-63201547D01*
X35648821Y-63392023D01*
X35610726Y-63468214D01*
X35572630Y-63506309D01*
X35496440Y-63544404D01*
X35305964Y-63544404D01*
X35229773Y-63506309D01*
X35191678Y-63468214D01*
X45618440Y-63125357D02*
X45732726Y-63163452D01*
X45770821Y-63201547D01*
X45808916Y-63277738D01*
X45808916Y-63392023D01*
X45770821Y-63468214D01*
X45732726Y-63506309D01*
X45656535Y-63544404D01*
X45351773Y-63544404D01*
X45351773Y-62744404D01*
X45618440Y-62744404D01*
X45694630Y-62782500D01*
X45732726Y-62820595D01*
X45770821Y-62896785D01*
X45770821Y-62972976D01*
X45732726Y-63049166D01*
X45694630Y-63087261D01*
X45618440Y-63125357D01*
X45351773Y-63125357D01*
X46494630Y-62744404D02*
X46342250Y-62744404D01*
X46266059Y-62782500D01*
X46227964Y-62820595D01*
X46151773Y-62934880D01*
X46113678Y-63087261D01*
X46113678Y-63392023D01*
X46151773Y-63468214D01*
X46189869Y-63506309D01*
X46266059Y-63544404D01*
X46418440Y-63544404D01*
X46494630Y-63506309D01*
X46532726Y-63468214D01*
X46570821Y-63392023D01*
X46570821Y-63201547D01*
X46532726Y-63125357D01*
X46494630Y-63087261D01*
X46418440Y-63049166D01*
X46266059Y-63049166D01*
X46189869Y-63087261D01*
X46151773Y-63125357D01*
X46113678Y-63201547D01*
X45618440Y-58045357D02*
X45732726Y-58083452D01*
X45770821Y-58121547D01*
X45808916Y-58197738D01*
X45808916Y-58312023D01*
X45770821Y-58388214D01*
X45732726Y-58426309D01*
X45656535Y-58464404D01*
X45351773Y-58464404D01*
X45351773Y-57664404D01*
X45618440Y-57664404D01*
X45694630Y-57702500D01*
X45732726Y-57740595D01*
X45770821Y-57816785D01*
X45770821Y-57892976D01*
X45732726Y-57969166D01*
X45694630Y-58007261D01*
X45618440Y-58045357D01*
X45351773Y-58045357D01*
X46075583Y-57664404D02*
X46570821Y-57664404D01*
X46304154Y-57969166D01*
X46418440Y-57969166D01*
X46494630Y-58007261D01*
X46532726Y-58045357D01*
X46570821Y-58121547D01*
X46570821Y-58312023D01*
X46532726Y-58388214D01*
X46494630Y-58426309D01*
X46418440Y-58464404D01*
X46189869Y-58464404D01*
X46113678Y-58426309D01*
X46075583Y-58388214D01*
X45618440Y-55505357D02*
X45732726Y-55543452D01*
X45770821Y-55581547D01*
X45808916Y-55657738D01*
X45808916Y-55772023D01*
X45770821Y-55848214D01*
X45732726Y-55886309D01*
X45656535Y-55924404D01*
X45351773Y-55924404D01*
X45351773Y-55124404D01*
X45618440Y-55124404D01*
X45694630Y-55162500D01*
X45732726Y-55200595D01*
X45770821Y-55276785D01*
X45770821Y-55352976D01*
X45732726Y-55429166D01*
X45694630Y-55467261D01*
X45618440Y-55505357D01*
X45351773Y-55505357D01*
X46570821Y-55924404D02*
X46113678Y-55924404D01*
X46342250Y-55924404D02*
X46342250Y-55124404D01*
X46266059Y-55238690D01*
X46189869Y-55314880D01*
X46113678Y-55352976D01*
X45675583Y-45345357D02*
X45408916Y-45345357D01*
X45408916Y-45764404D02*
X45408916Y-44964404D01*
X45789869Y-44964404D01*
X46437488Y-45231071D02*
X46437488Y-45764404D01*
X46247011Y-44926309D02*
X46056535Y-45497738D01*
X46551773Y-45497738D01*
X44875583Y-42424404D02*
X45142250Y-43224404D01*
X45408916Y-42424404D01*
X46132726Y-43148214D02*
X46094630Y-43186309D01*
X45980345Y-43224404D01*
X45904154Y-43224404D01*
X45789869Y-43186309D01*
X45713678Y-43110119D01*
X45675583Y-43033928D01*
X45637488Y-42881547D01*
X45637488Y-42767261D01*
X45675583Y-42614880D01*
X45713678Y-42538690D01*
X45789869Y-42462500D01*
X45904154Y-42424404D01*
X45980345Y-42424404D01*
X46094630Y-42462500D01*
X46132726Y-42500595D01*
X46932726Y-43148214D02*
X46894630Y-43186309D01*
X46780345Y-43224404D01*
X46704154Y-43224404D01*
X46589869Y-43186309D01*
X46513678Y-43110119D01*
X46475583Y-43033928D01*
X46437488Y-42881547D01*
X46437488Y-42767261D01*
X46475583Y-42614880D01*
X46513678Y-42538690D01*
X46589869Y-42462500D01*
X46704154Y-42424404D01*
X46780345Y-42424404D01*
X46894630Y-42462500D01*
X46932726Y-42500595D01*
X45681036Y-40616309D02*
X45795322Y-40654404D01*
X45985798Y-40654404D01*
X46061989Y-40616309D01*
X46100084Y-40578214D01*
X46138179Y-40502023D01*
X46138179Y-40425833D01*
X46100084Y-40349642D01*
X46061989Y-40311547D01*
X45985798Y-40273452D01*
X45833417Y-40235357D01*
X45757227Y-40197261D01*
X45719131Y-40159166D01*
X45681036Y-40082976D01*
X45681036Y-40006785D01*
X45719131Y-39930595D01*
X45757227Y-39892500D01*
X45833417Y-39854404D01*
X46023893Y-39854404D01*
X46138179Y-39892500D01*
X46366750Y-39854404D02*
X46823893Y-39854404D01*
X46595322Y-40654404D02*
X46595322Y-39854404D01*
X45332726Y-37382500D02*
X45256535Y-37344404D01*
X45142250Y-37344404D01*
X45027964Y-37382500D01*
X44951773Y-37458690D01*
X44913678Y-37534880D01*
X44875583Y-37687261D01*
X44875583Y-37801547D01*
X44913678Y-37953928D01*
X44951773Y-38030119D01*
X45027964Y-38106309D01*
X45142250Y-38144404D01*
X45218440Y-38144404D01*
X45332726Y-38106309D01*
X45370821Y-38068214D01*
X45370821Y-37801547D01*
X45218440Y-37801547D01*
X45713678Y-38144404D02*
X45713678Y-37344404D01*
X46170821Y-38144404D01*
X46170821Y-37344404D01*
X46551773Y-38144404D02*
X46551773Y-37344404D01*
X46742250Y-37344404D01*
X46856535Y-37382500D01*
X46932726Y-37458690D01*
X46970821Y-37534880D01*
X47008916Y-37687261D01*
X47008916Y-37801547D01*
X46970821Y-37953928D01*
X46932726Y-38030119D01*
X46856535Y-38106309D01*
X46742250Y-38144404D01*
X46551773Y-38144404D01*
X45389869Y-35604404D02*
X45123202Y-35223452D01*
X44932726Y-35604404D02*
X44932726Y-34804404D01*
X45237488Y-34804404D01*
X45313678Y-34842500D01*
X45351773Y-34880595D01*
X45389869Y-34956785D01*
X45389869Y-35071071D01*
X45351773Y-35147261D01*
X45313678Y-35185357D01*
X45237488Y-35223452D01*
X44932726Y-35223452D01*
X45694630Y-35375833D02*
X46075583Y-35375833D01*
X45618440Y-35604404D02*
X45885107Y-34804404D01*
X46151773Y-35604404D01*
X46342250Y-34804404D02*
X46532726Y-35604404D01*
X46685107Y-35032976D01*
X46837488Y-35604404D01*
X47027964Y-34804404D01*
X45675583Y-47885357D02*
X45408916Y-47885357D01*
X45408916Y-48304404D02*
X45408916Y-47504404D01*
X45789869Y-47504404D01*
X46475583Y-47504404D02*
X46094630Y-47504404D01*
X46056535Y-47885357D01*
X46094630Y-47847261D01*
X46170821Y-47809166D01*
X46361297Y-47809166D01*
X46437488Y-47847261D01*
X46475583Y-47885357D01*
X46513678Y-47961547D01*
X46513678Y-48152023D01*
X46475583Y-48228214D01*
X46437488Y-48266309D01*
X46361297Y-48304404D01*
X46170821Y-48304404D01*
X46094630Y-48266309D01*
X46056535Y-48228214D01*
X45675583Y-50425357D02*
X45408916Y-50425357D01*
X45408916Y-50844404D02*
X45408916Y-50044404D01*
X45789869Y-50044404D01*
X46437488Y-50044404D02*
X46285107Y-50044404D01*
X46208916Y-50082500D01*
X46170821Y-50120595D01*
X46094630Y-50234880D01*
X46056535Y-50387261D01*
X46056535Y-50692023D01*
X46094630Y-50768214D01*
X46132726Y-50806309D01*
X46208916Y-50844404D01*
X46361297Y-50844404D01*
X46437488Y-50806309D01*
X46475583Y-50768214D01*
X46513678Y-50692023D01*
X46513678Y-50501547D01*
X46475583Y-50425357D01*
X46437488Y-50387261D01*
X46361297Y-50349166D01*
X46208916Y-50349166D01*
X46132726Y-50387261D01*
X46094630Y-50425357D01*
X46056535Y-50501547D01*
X45675583Y-52965357D02*
X45408916Y-52965357D01*
X45408916Y-53384404D02*
X45408916Y-52584404D01*
X45789869Y-52584404D01*
X46018440Y-52584404D02*
X46551773Y-52584404D01*
X46208916Y-53384404D01*
X45618440Y-60585357D02*
X45732726Y-60623452D01*
X45770821Y-60661547D01*
X45808916Y-60737738D01*
X45808916Y-60852023D01*
X45770821Y-60928214D01*
X45732726Y-60966309D01*
X45656535Y-61004404D01*
X45351773Y-61004404D01*
X45351773Y-60204404D01*
X45618440Y-60204404D01*
X45694630Y-60242500D01*
X45732726Y-60280595D01*
X45770821Y-60356785D01*
X45770821Y-60432976D01*
X45732726Y-60509166D01*
X45694630Y-60547261D01*
X45618440Y-60585357D01*
X45351773Y-60585357D01*
X46113678Y-60280595D02*
X46151773Y-60242500D01*
X46227964Y-60204404D01*
X46418440Y-60204404D01*
X46494630Y-60242500D01*
X46532726Y-60280595D01*
X46570821Y-60356785D01*
X46570821Y-60432976D01*
X46532726Y-60547261D01*
X46075583Y-61004404D01*
X46570821Y-61004404D01*
%TD*%
%LPC*%
D12*
%TO.C,SW1*%
X115018750Y-114831250D03*
X108818750Y-118531250D03*
X115018750Y-118531250D03*
X108818750Y-114831250D03*
%TD*%
D13*
%TO.C,MX38*%
X88106250Y-116681250D03*
D14*
X83026250Y-116681250D03*
X93186250Y-116681250D03*
%TD*%
%TO.C,M2*%
G36*
G01*
X30968950Y-121215150D02*
X30968950Y-120338850D01*
G75*
G02*
X31407100Y-119900700I438150J0D01*
G01*
X32283400Y-119900700D01*
G75*
G02*
X32721550Y-120338850I0J-438150D01*
G01*
X32721550Y-121215150D01*
G75*
G02*
X32283400Y-121653300I-438150J0D01*
G01*
X31407100Y-121653300D01*
G75*
G02*
X30968950Y-121215150I0J438150D01*
G01*
G37*
G36*
G01*
X30968950Y-119183150D02*
X30968950Y-118306850D01*
G75*
G02*
X31407100Y-117868700I438150J0D01*
G01*
X32283400Y-117868700D01*
G75*
G02*
X32721550Y-118306850I0J-438150D01*
G01*
X32721550Y-119183150D01*
G75*
G02*
X32283400Y-119621300I-438150J0D01*
G01*
X31407100Y-119621300D01*
G75*
G02*
X30968950Y-119183150I0J438150D01*
G01*
G37*
G36*
G01*
X30968950Y-117151150D02*
X30968950Y-116274850D01*
G75*
G02*
X31407100Y-115836700I438150J0D01*
G01*
X32283400Y-115836700D01*
G75*
G02*
X32721550Y-116274850I0J-438150D01*
G01*
X32721550Y-117151150D01*
G75*
G02*
X32283400Y-117589300I-438150J0D01*
G01*
X31407100Y-117589300D01*
G75*
G02*
X30968950Y-117151150I0J438150D01*
G01*
G37*
G36*
G01*
X30968950Y-115119150D02*
X30968950Y-114242850D01*
G75*
G02*
X31407100Y-113804700I438150J0D01*
G01*
X32283400Y-113804700D01*
G75*
G02*
X32721550Y-114242850I0J-438150D01*
G01*
X32721550Y-115119150D01*
G75*
G02*
X32283400Y-115557300I-438150J0D01*
G01*
X31407100Y-115557300D01*
G75*
G02*
X30968950Y-115119150I0J438150D01*
G01*
G37*
G36*
G01*
X30968950Y-113087150D02*
X30968950Y-112210850D01*
G75*
G02*
X31407100Y-111772700I438150J0D01*
G01*
X32283400Y-111772700D01*
G75*
G02*
X32721550Y-112210850I0J-438150D01*
G01*
X32721550Y-113087150D01*
G75*
G02*
X32283400Y-113525300I-438150J0D01*
G01*
X31407100Y-113525300D01*
G75*
G02*
X30968950Y-113087150I0J438150D01*
G01*
G37*
%TD*%
%TO.C,M1*%
G36*
G01*
X30968950Y-74987150D02*
X30968950Y-74110850D01*
G75*
G02*
X31407100Y-73672700I438150J0D01*
G01*
X32283400Y-73672700D01*
G75*
G02*
X32721550Y-74110850I0J-438150D01*
G01*
X32721550Y-74987150D01*
G75*
G02*
X32283400Y-75425300I-438150J0D01*
G01*
X31407100Y-75425300D01*
G75*
G02*
X30968950Y-74987150I0J438150D01*
G01*
G37*
G36*
G01*
X30968950Y-77019150D02*
X30968950Y-76142850D01*
G75*
G02*
X31407100Y-75704700I438150J0D01*
G01*
X32283400Y-75704700D01*
G75*
G02*
X32721550Y-76142850I0J-438150D01*
G01*
X32721550Y-77019150D01*
G75*
G02*
X32283400Y-77457300I-438150J0D01*
G01*
X31407100Y-77457300D01*
G75*
G02*
X30968950Y-77019150I0J438150D01*
G01*
G37*
G36*
G01*
X30968950Y-79051150D02*
X30968950Y-78174850D01*
G75*
G02*
X31407100Y-77736700I438150J0D01*
G01*
X32283400Y-77736700D01*
G75*
G02*
X32721550Y-78174850I0J-438150D01*
G01*
X32721550Y-79051150D01*
G75*
G02*
X32283400Y-79489300I-438150J0D01*
G01*
X31407100Y-79489300D01*
G75*
G02*
X30968950Y-79051150I0J438150D01*
G01*
G37*
G36*
G01*
X30968950Y-81083150D02*
X30968950Y-80206850D01*
G75*
G02*
X31407100Y-79768700I438150J0D01*
G01*
X32283400Y-79768700D01*
G75*
G02*
X32721550Y-80206850I0J-438150D01*
G01*
X32721550Y-81083150D01*
G75*
G02*
X32283400Y-81521300I-438150J0D01*
G01*
X31407100Y-81521300D01*
G75*
G02*
X30968950Y-81083150I0J438150D01*
G01*
G37*
G36*
G01*
X30968950Y-83115150D02*
X30968950Y-82238850D01*
G75*
G02*
X31407100Y-81800700I438150J0D01*
G01*
X32283400Y-81800700D01*
G75*
G02*
X32721550Y-82238850I0J-438150D01*
G01*
X32721550Y-83115150D01*
G75*
G02*
X32283400Y-83553300I-438150J0D01*
G01*
X31407100Y-83553300D01*
G75*
G02*
X30968950Y-83115150I0J438150D01*
G01*
G37*
%TD*%
D15*
%TO.C,U1*%
X48329850Y-35242500D03*
X33089850Y-63182500D03*
X47872650Y-37782500D03*
X48329850Y-40322500D03*
X47872650Y-42862500D03*
X48329850Y-45402500D03*
X47872650Y-47942500D03*
X48329850Y-50482500D03*
X47872650Y-53022500D03*
X48329850Y-55562500D03*
X47872650Y-58102500D03*
X48329850Y-60642500D03*
X47872650Y-63182500D03*
X32632650Y-60642500D03*
X33089850Y-58102500D03*
X32632650Y-55562500D03*
X33089850Y-53022500D03*
X32632650Y-50482500D03*
X33089850Y-47942500D03*
X32632650Y-45402500D03*
X33089850Y-42862500D03*
X32632650Y-40322500D03*
X33089850Y-37782500D03*
D16*
X32632650Y-35242500D03*
%TD*%
D13*
%TO.C,MX25*%
X40481250Y-59531250D03*
D14*
X35401250Y-59531250D03*
X45561250Y-59531250D03*
%TD*%
D13*
%TO.C,MX28*%
X45243750Y-116681250D03*
D14*
X40163750Y-116681250D03*
X50323750Y-116681250D03*
%TD*%
D13*
%TO.C,MX46*%
X116681250Y-97631250D03*
D14*
X111601250Y-97631250D03*
X121761250Y-97631250D03*
%TD*%
D13*
%TO.C,MX45*%
X116681250Y-78581250D03*
D14*
X111601250Y-78581250D03*
X121761250Y-78581250D03*
%TD*%
D13*
%TO.C,MX44*%
X116681250Y-59531250D03*
D14*
X111601250Y-59531250D03*
X121761250Y-59531250D03*
%TD*%
D13*
%TO.C,MX43*%
X116681250Y-40481250D03*
D14*
X111601250Y-40481250D03*
X121761250Y-40481250D03*
%TD*%
D13*
%TO.C,MX42*%
X97631250Y-97631250D03*
D14*
X92551250Y-97631250D03*
X102711250Y-97631250D03*
%TD*%
D13*
%TO.C,MX41*%
X97631250Y-78581250D03*
D14*
X92551250Y-78581250D03*
X102711250Y-78581250D03*
%TD*%
D13*
%TO.C,MX40*%
X97631250Y-59531250D03*
D14*
X92551250Y-59531250D03*
X102711250Y-59531250D03*
%TD*%
D13*
%TO.C,MX39*%
X97631250Y-40481250D03*
D14*
X92551250Y-40481250D03*
X102711250Y-40481250D03*
%TD*%
D13*
%TO.C,MX37*%
X78581250Y-97631250D03*
D14*
X73501250Y-97631250D03*
X83661250Y-97631250D03*
%TD*%
D13*
%TO.C,MX36*%
X78581250Y-78581250D03*
D14*
X73501250Y-78581250D03*
X83661250Y-78581250D03*
%TD*%
D13*
%TO.C,MX35*%
X78581250Y-59531250D03*
D14*
X73501250Y-59531250D03*
X83661250Y-59531250D03*
%TD*%
D13*
%TO.C,MX34*%
X78581250Y-40481250D03*
D14*
X73501250Y-40481250D03*
X83661250Y-40481250D03*
%TD*%
D13*
%TO.C,MX33*%
X69056250Y-116681250D03*
D14*
X63976250Y-116681250D03*
X74136250Y-116681250D03*
%TD*%
D13*
%TO.C,MX32*%
X59531250Y-97631250D03*
D14*
X54451250Y-97631250D03*
X64611250Y-97631250D03*
%TD*%
D13*
%TO.C,MX31*%
X59531250Y-78581250D03*
D14*
X54451250Y-78581250D03*
X64611250Y-78581250D03*
%TD*%
D13*
%TO.C,MX30*%
X59531250Y-59531250D03*
D14*
X54451250Y-59531250D03*
X64611250Y-59531250D03*
%TD*%
D13*
%TO.C,MX29*%
X59531250Y-40481250D03*
D14*
X54451250Y-40481250D03*
X64611250Y-40481250D03*
%TD*%
D13*
%TO.C,MX27*%
X40481250Y-97631250D03*
D14*
X35401250Y-97631250D03*
X45561250Y-97631250D03*
%TD*%
D13*
%TO.C,MX26*%
X40481250Y-78581250D03*
D14*
X35401250Y-78581250D03*
X45561250Y-78581250D03*
%TD*%
D13*
%TO.C,MX24*%
X40481250Y-40481250D03*
D14*
X35401250Y-40481250D03*
X45561250Y-40481250D03*
%TD*%
D17*
%TO.C,D46*%
X124618750Y-101531250D03*
D18*
X124618750Y-93731250D03*
%TD*%
D17*
%TO.C,D45*%
X124618750Y-82481250D03*
D18*
X124618750Y-74681250D03*
%TD*%
D17*
%TO.C,D44*%
X124618750Y-63431250D03*
D18*
X124618750Y-55631250D03*
%TD*%
D17*
%TO.C,D43*%
X124618750Y-44381250D03*
D18*
X124618750Y-36581250D03*
%TD*%
D17*
%TO.C,D42*%
X105568750Y-101528250D03*
D18*
X105568750Y-93728250D03*
%TD*%
D17*
%TO.C,D41*%
X105568750Y-82481250D03*
D18*
X105568750Y-74681250D03*
%TD*%
D17*
%TO.C,D40*%
X105568750Y-63431250D03*
D18*
X105568750Y-55631250D03*
%TD*%
D17*
%TO.C,D39*%
X105568750Y-44381250D03*
D18*
X105568750Y-36581250D03*
%TD*%
D17*
%TO.C,D38*%
X96043750Y-120581250D03*
D18*
X96043750Y-112781250D03*
%TD*%
D17*
%TO.C,D37*%
X86518750Y-101531250D03*
D18*
X86518750Y-93731250D03*
%TD*%
D17*
%TO.C,D36*%
X86518750Y-82481250D03*
D18*
X86518750Y-74681250D03*
%TD*%
D17*
%TO.C,D35*%
X86518750Y-63431250D03*
D18*
X86518750Y-55631250D03*
%TD*%
D17*
%TO.C,D34*%
X86518750Y-44381250D03*
D18*
X86518750Y-36581250D03*
%TD*%
D17*
%TO.C,D33*%
X76993750Y-120581250D03*
D18*
X76993750Y-112781250D03*
%TD*%
D17*
%TO.C,D32*%
X67468750Y-101531250D03*
D18*
X67468750Y-93731250D03*
%TD*%
D17*
%TO.C,D31*%
X67468750Y-82481250D03*
D18*
X67468750Y-74681250D03*
%TD*%
D17*
%TO.C,D30*%
X67468750Y-63431250D03*
D18*
X67468750Y-55631250D03*
%TD*%
D17*
%TO.C,D29*%
X67468750Y-44381250D03*
D18*
X67468750Y-36581250D03*
%TD*%
D17*
%TO.C,D28*%
X53181250Y-120581250D03*
D18*
X53181250Y-112781250D03*
%TD*%
D17*
%TO.C,D27*%
X48418750Y-101531250D03*
D18*
X48418750Y-93731250D03*
%TD*%
D17*
%TO.C,D26*%
X48418750Y-82481250D03*
D18*
X48418750Y-74681250D03*
%TD*%
D17*
%TO.C,D25*%
X36581250Y-67468750D03*
D18*
X44381250Y-67468750D03*
%TD*%
D17*
%TO.C,D24*%
X36393750Y-48418750D03*
D18*
X44193750Y-48418750D03*
%TD*%
M02*
