%TF.GenerationSoftware,KiCad,Pcbnew,(5.1.12)-1*%
%TF.CreationDate,2022-01-05T12:33:12-05:00*%
%TF.ProjectId,my-keeb-type-c,6d792d6b-6565-4622-9d74-7970652d632e,rev?*%
%TF.SameCoordinates,Original*%
%TF.FileFunction,Soldermask,Top*%
%TF.FilePolarity,Negative*%
%FSLAX46Y46*%
G04 Gerber Fmt 4.6, Leading zero omitted, Abs format (unit mm)*
G04 Created by KiCad (PCBNEW (5.1.12)-1) date 2022-01-05 12:33:12*
%MOMM*%
%LPD*%
G01*
G04 APERTURE LIST*
%ADD10C,1.750000*%
%ADD11C,3.987800*%
%ADD12C,0.650000*%
%ADD13O,1.000000X2.100000*%
%ADD14O,1.000000X1.600000*%
G04 APERTURE END LIST*
D10*
%TO.C,MX46*%
X207486250Y-88106250D03*
X197326250Y-88106250D03*
D11*
X202406250Y-88106250D03*
%TD*%
D10*
%TO.C,MX18*%
X83661250Y-107156250D03*
X73501250Y-107156250D03*
D11*
X78581250Y-107156250D03*
%TD*%
D10*
%TO.C,MX19*%
X112236250Y-30956250D03*
X102076250Y-30956250D03*
D11*
X107156250Y-30956250D03*
%TD*%
D10*
%TO.C,MX24*%
X131286250Y-30956250D03*
X121126250Y-30956250D03*
D11*
X126206250Y-30956250D03*
%TD*%
D10*
%TO.C,MX42*%
X188436250Y-88106250D03*
X178276250Y-88106250D03*
D11*
X183356250Y-88106250D03*
%TD*%
D10*
%TO.C,MX39*%
X188436250Y-30956250D03*
X178276250Y-30956250D03*
D11*
X183356250Y-30956250D03*
%TD*%
D12*
%TO.C,USB1*%
X119571250Y-22125000D03*
X113791250Y-22125000D03*
D13*
X112361250Y-22655000D03*
X121001250Y-22655000D03*
D14*
X112361250Y-18475000D03*
X121001250Y-18475000D03*
%TD*%
D10*
%TO.C,MX45*%
X207486250Y-69056250D03*
X197326250Y-69056250D03*
D11*
X202406250Y-69056250D03*
%TD*%
D10*
%TO.C,MX44*%
X207486250Y-50006250D03*
X197326250Y-50006250D03*
D11*
X202406250Y-50006250D03*
%TD*%
D10*
%TO.C,MX43*%
X207486250Y-30956250D03*
X197326250Y-30956250D03*
D11*
X202406250Y-30956250D03*
%TD*%
D10*
%TO.C,MX41*%
X188436250Y-69056250D03*
X178276250Y-69056250D03*
D11*
X183356250Y-69056250D03*
%TD*%
D10*
%TO.C,MX40*%
X188436250Y-50006250D03*
X178276250Y-50006250D03*
D11*
X183356250Y-50006250D03*
%TD*%
D10*
%TO.C,MX38*%
X178911250Y-107156250D03*
X168751250Y-107156250D03*
D11*
X173831250Y-107156250D03*
%TD*%
D10*
%TO.C,MX37*%
X169386250Y-88106250D03*
X159226250Y-88106250D03*
D11*
X164306250Y-88106250D03*
%TD*%
D10*
%TO.C,MX36*%
X169386250Y-69056250D03*
X159226250Y-69056250D03*
D11*
X164306250Y-69056250D03*
%TD*%
D10*
%TO.C,MX35*%
X169386250Y-50006250D03*
X159226250Y-50006250D03*
D11*
X164306250Y-50006250D03*
%TD*%
D10*
%TO.C,MX34*%
X169386250Y-30956250D03*
X159226250Y-30956250D03*
D11*
X164306250Y-30956250D03*
%TD*%
D10*
%TO.C,MX33*%
X159861250Y-107156250D03*
X149701250Y-107156250D03*
D11*
X154781250Y-107156250D03*
%TD*%
D10*
%TO.C,MX32*%
X150336250Y-88106250D03*
X140176250Y-88106250D03*
D11*
X145256250Y-88106250D03*
%TD*%
D10*
%TO.C,MX31*%
X150336250Y-69056250D03*
X140176250Y-69056250D03*
D11*
X145256250Y-69056250D03*
%TD*%
D10*
%TO.C,MX30*%
X150336250Y-50006250D03*
X140176250Y-50006250D03*
D11*
X145256250Y-50006250D03*
%TD*%
D10*
%TO.C,MX29*%
X150336250Y-30956250D03*
X140176250Y-30956250D03*
D11*
X145256250Y-30956250D03*
%TD*%
D10*
%TO.C,MX28*%
X136048750Y-107156250D03*
X125888750Y-107156250D03*
D11*
X130968750Y-107156250D03*
%TD*%
D10*
%TO.C,MX27*%
X131286250Y-88106250D03*
X121126250Y-88106250D03*
D11*
X126206250Y-88106250D03*
%TD*%
D10*
%TO.C,MX26*%
X131286250Y-69056250D03*
X121126250Y-69056250D03*
D11*
X126206250Y-69056250D03*
%TD*%
D10*
%TO.C,MX25*%
X131286250Y-50006250D03*
X121126250Y-50006250D03*
D11*
X126206250Y-50006250D03*
%TD*%
D10*
%TO.C,MX23*%
X107473750Y-107156250D03*
X97313750Y-107156250D03*
D11*
X102393750Y-107156250D03*
%TD*%
D10*
%TO.C,MX22*%
X112236250Y-88106250D03*
X102076250Y-88106250D03*
D11*
X107156250Y-88106250D03*
%TD*%
D10*
%TO.C,MX21*%
X112236250Y-69056250D03*
X102076250Y-69056250D03*
D11*
X107156250Y-69056250D03*
%TD*%
D10*
%TO.C,MX20*%
X112236250Y-50006250D03*
X102076250Y-50006250D03*
D11*
X107156250Y-50006250D03*
%TD*%
D10*
%TO.C,MX17*%
X93186250Y-88106250D03*
X83026250Y-88106250D03*
D11*
X88106250Y-88106250D03*
%TD*%
D10*
%TO.C,MX16*%
X93186250Y-69056250D03*
X83026250Y-69056250D03*
D11*
X88106250Y-69056250D03*
%TD*%
D10*
%TO.C,MX15*%
X93186250Y-50006250D03*
X83026250Y-50006250D03*
D11*
X88106250Y-50006250D03*
%TD*%
D10*
%TO.C,MX14*%
X93186250Y-30956250D03*
X83026250Y-30956250D03*
D11*
X88106250Y-30956250D03*
%TD*%
D10*
%TO.C,MX13*%
X64611250Y-107156250D03*
X54451250Y-107156250D03*
D11*
X59531250Y-107156250D03*
%TD*%
D10*
%TO.C,MX12*%
X74136250Y-88106250D03*
X63976250Y-88106250D03*
D11*
X69056250Y-88106250D03*
%TD*%
D10*
%TO.C,MX11*%
X74136250Y-69056250D03*
X63976250Y-69056250D03*
D11*
X69056250Y-69056250D03*
%TD*%
D10*
%TO.C,MX10*%
X74136250Y-50006250D03*
X63976250Y-50006250D03*
D11*
X69056250Y-50006250D03*
%TD*%
D10*
%TO.C,MX9*%
X74136250Y-30956250D03*
X63976250Y-30956250D03*
D11*
X69056250Y-30956250D03*
%TD*%
D10*
%TO.C,MX8*%
X55086250Y-88106250D03*
X44926250Y-88106250D03*
D11*
X50006250Y-88106250D03*
%TD*%
D10*
%TO.C,MX7*%
X55086250Y-69056250D03*
X44926250Y-69056250D03*
D11*
X50006250Y-69056250D03*
%TD*%
D10*
%TO.C,MX6*%
X55086250Y-50006250D03*
X44926250Y-50006250D03*
D11*
X50006250Y-50006250D03*
%TD*%
D10*
%TO.C,MX5*%
X55086250Y-30956250D03*
X44926250Y-30956250D03*
D11*
X50006250Y-30956250D03*
%TD*%
D10*
%TO.C,MX4*%
X36036250Y-88106250D03*
X25876250Y-88106250D03*
D11*
X30956250Y-88106250D03*
%TD*%
D10*
%TO.C,MX3*%
X36036250Y-69056250D03*
X25876250Y-69056250D03*
D11*
X30956250Y-69056250D03*
%TD*%
D10*
%TO.C,MX2*%
X36036250Y-50006250D03*
X25876250Y-50006250D03*
D11*
X30956250Y-50006250D03*
%TD*%
D10*
%TO.C,MX1*%
X36036250Y-30956250D03*
X25876250Y-30956250D03*
D11*
X30956250Y-30956250D03*
%TD*%
M02*
