G04 #@! TF.GenerationSoftware,KiCad,Pcbnew,(5.1.12)-1*
G04 #@! TF.CreationDate,2022-09-12T23:50:19-04:00*
G04 #@! TF.ProjectId,my-keeb-pro-micro,6d792d6b-6565-4622-9d70-726f2d6d6963,rev?*
G04 #@! TF.SameCoordinates,Original*
G04 #@! TF.FileFunction,Profile,NP*
%FSLAX46Y46*%
G04 Gerber Fmt 4.6, Leading zero omitted, Abs format (unit mm)*
G04 Created by KiCad (PCBNEW (5.1.12)-1) date 2022-09-12 23:50:19*
%MOMM*%
%LPD*%
G01*
G04 APERTURE LIST*
G04 #@! TA.AperFunction,Profile*
%ADD10C,0.050000*%
G04 #@! TD*
G04 APERTURE END LIST*
D10*
X192881250Y-10318750D02*
X137318750Y-10318750D01*
X136525000Y-11112500D02*
G75*
G02*
X137318750Y-10318750I793750J0D01*
G01*
X192881250Y-10318750D02*
G75*
G02*
X193675000Y-11112500I0J-793750D01*
G01*
X194468750Y-12700000D02*
G75*
G02*
X193675000Y-11906250I0J793750D01*
G01*
X193675000Y-11112500D02*
X193675000Y-11906250D01*
X136525000Y-11906250D02*
G75*
G02*
X135731250Y-12700000I-793750J0D01*
G01*
X136525000Y-11112500D02*
X136525000Y-11906250D01*
X194468750Y-12700000D02*
X200818750Y-12700000D01*
X135731250Y-12700000D02*
X99218750Y-12700000D01*
X118268750Y-110331250D02*
X192881250Y-110331250D01*
X116681250Y-107950000D02*
G75*
G02*
X117475000Y-108743750I0J-793750D01*
G01*
X118268750Y-110331250D02*
G75*
G02*
X117475000Y-109537500I0J793750D01*
G01*
X193675000Y-108743750D02*
G75*
G02*
X194468750Y-107950000I793750J0D01*
G01*
X193675000Y-108743750D02*
X193675000Y-109537500D01*
X193675000Y-109537500D02*
G75*
G02*
X192881250Y-110331250I-793750J0D01*
G01*
X200818750Y-107950000D02*
X194468750Y-107950000D01*
X117475000Y-108743750D02*
X117475000Y-109537500D01*
X97631250Y-110331250D02*
X23018750Y-110331250D01*
X22225000Y-108743750D02*
X22225000Y-109537500D01*
X116681250Y-107950000D02*
X99218750Y-107950000D01*
X21431250Y-107950000D02*
G75*
G02*
X22225000Y-108743750I0J-793750D01*
G01*
X21431250Y-107950000D02*
X15081250Y-107950000D01*
X98425000Y-108743750D02*
G75*
G02*
X99218750Y-107950000I793750J0D01*
G01*
X23018750Y-110331250D02*
G75*
G02*
X22225000Y-109537500I0J793750D01*
G01*
X98425000Y-108743750D02*
X98425000Y-109537500D01*
X98425000Y-109537500D02*
G75*
G02*
X97631250Y-110331250I-793750J0D01*
G01*
X21431250Y-12700000D02*
X15081250Y-12700000D01*
X22225000Y-11112500D02*
X22225000Y-11906250D01*
X22225000Y-11906250D02*
G75*
G02*
X21431250Y-12700000I-793750J0D01*
G01*
X22225000Y-11112500D02*
G75*
G02*
X23018750Y-10318750I793750J0D01*
G01*
X97631250Y-10318750D02*
X23018750Y-10318750D01*
X97631250Y-10318750D02*
G75*
G02*
X98425000Y-11112500I0J-793750D01*
G01*
X98425000Y-11906250D02*
X98425000Y-11112500D01*
X99218750Y-12700000D02*
G75*
G02*
X98425000Y-11906250I0J793750D01*
G01*
X203200000Y-105568750D02*
G75*
G02*
X200818750Y-107950000I-2381250J0D01*
G01*
X203200000Y-15081250D02*
X203200000Y-105568750D01*
X12700000Y-15081250D02*
X12700000Y-105568750D01*
X12700000Y-15081250D02*
G75*
G02*
X15081250Y-12700000I2381250J0D01*
G01*
X15081250Y-107950000D02*
G75*
G02*
X12700000Y-105568750I0J2381250D01*
G01*
X200818750Y-12700000D02*
G75*
G02*
X203200000Y-15081250I0J-2381250D01*
G01*
M02*
