G04 #@! TF.GenerationSoftware,KiCad,Pcbnew,(5.1.12)-1*
G04 #@! TF.CreationDate,2022-09-12T23:50:19-04:00*
G04 #@! TF.ProjectId,my-keeb-pro-micro,6d792d6b-6565-4622-9d70-726f2d6d6963,rev?*
G04 #@! TF.SameCoordinates,Original*
G04 #@! TF.FileFunction,Copper,L2,Bot*
G04 #@! TF.FilePolarity,Positive*
%FSLAX46Y46*%
G04 Gerber Fmt 4.6, Leading zero omitted, Abs format (unit mm)*
G04 Created by KiCad (PCBNEW (5.1.12)-1) date 2022-09-12 23:50:19*
%MOMM*%
%LPD*%
G01*
G04 APERTURE LIST*
G04 #@! TA.AperFunction,ComponentPad*
%ADD10C,2.250000*%
G04 #@! TD*
G04 #@! TA.AperFunction,ComponentPad*
%ADD11R,1.600000X1.600000*%
G04 #@! TD*
G04 #@! TA.AperFunction,ComponentPad*
%ADD12C,1.600000*%
G04 #@! TD*
G04 #@! TA.AperFunction,SMDPad,CuDef*
%ADD13R,0.500000X2.900000*%
G04 #@! TD*
G04 #@! TA.AperFunction,SMDPad,CuDef*
%ADD14R,1.200000X1.600000*%
G04 #@! TD*
G04 #@! TA.AperFunction,ComponentPad*
%ADD15R,1.752600X1.752600*%
G04 #@! TD*
G04 #@! TA.AperFunction,ComponentPad*
%ADD16C,1.752600*%
G04 #@! TD*
G04 #@! TA.AperFunction,SMDPad,CuDef*
%ADD17R,2.900000X0.500000*%
G04 #@! TD*
G04 #@! TA.AperFunction,SMDPad,CuDef*
%ADD18R,1.600000X1.200000*%
G04 #@! TD*
G04 #@! TA.AperFunction,Conductor*
%ADD19C,0.254000*%
G04 #@! TD*
G04 APERTURE END LIST*
G04 #@! TA.AperFunction,ComponentPad*
G36*
G01*
X124660983Y-95047395D02*
X124660097Y-95047334D01*
G75*
G02*
X123615166Y-93847597I77403J1122334D01*
G01*
X123655166Y-93267597D01*
G75*
G02*
X124854903Y-92222666I1122334J-77403D01*
G01*
X124854903Y-92222666D01*
G75*
G02*
X125899834Y-93422403I-77403J-1122334D01*
G01*
X125859834Y-94002403D01*
G75*
G02*
X124660097Y-95047334I-1122334J77403D01*
G01*
G37*
G04 #@! TD.AperFunction*
D10*
X124777500Y-93345000D03*
G04 #@! TA.AperFunction,ComponentPad*
G36*
G01*
X117676188Y-96722350D02*
X117676183Y-96722345D01*
G75*
G02*
X117590155Y-95133683I751317J837345D01*
G01*
X118900157Y-93673683D01*
G75*
G02*
X120488819Y-93587655I837345J-751317D01*
G01*
X120488819Y-93587655D01*
G75*
G02*
X120574847Y-95176317I-751317J-837345D01*
G01*
X119264845Y-96636317D01*
G75*
G02*
X117676183Y-96722345I-837345J751317D01*
G01*
G37*
G04 #@! TD.AperFunction*
X119737500Y-94425000D03*
D11*
X201612500Y-83275000D03*
D12*
X201612500Y-75475000D03*
D13*
X201612500Y-81875000D03*
D14*
X201612500Y-80775000D03*
X201612500Y-77975000D03*
D13*
X201612500Y-76875000D03*
G04 #@! TA.AperFunction,ComponentPad*
G36*
G01*
X119898483Y-37897395D02*
X119897597Y-37897334D01*
G75*
G02*
X118852666Y-36697597I77403J1122334D01*
G01*
X118892666Y-36117597D01*
G75*
G02*
X120092403Y-35072666I1122334J-77403D01*
G01*
X120092403Y-35072666D01*
G75*
G02*
X121137334Y-36272403I-77403J-1122334D01*
G01*
X121097334Y-36852403D01*
G75*
G02*
X119897597Y-37897334I-1122334J77403D01*
G01*
G37*
G04 #@! TD.AperFunction*
D10*
X120015000Y-36195000D03*
G04 #@! TA.AperFunction,ComponentPad*
G36*
G01*
X112913688Y-39572350D02*
X112913683Y-39572345D01*
G75*
G02*
X112827655Y-37983683I751317J837345D01*
G01*
X114137657Y-36523683D01*
G75*
G02*
X115726319Y-36437655I837345J-751317D01*
G01*
X115726319Y-36437655D01*
G75*
G02*
X115812347Y-38026317I-751317J-837345D01*
G01*
X114502345Y-39486317D01*
G75*
G02*
X112913683Y-39572345I-837345J751317D01*
G01*
G37*
G04 #@! TD.AperFunction*
X114975000Y-37275000D03*
D15*
X125323600Y-16986250D03*
D16*
X124866400Y-19526250D03*
X125323600Y-22066250D03*
X124866400Y-24606250D03*
X125323600Y-27146250D03*
X124866400Y-29686250D03*
X125323600Y-32226250D03*
X124866400Y-34766250D03*
X125323600Y-37306250D03*
X124866400Y-39846250D03*
X125323600Y-42386250D03*
X110083600Y-44926250D03*
X109626400Y-42386250D03*
X110083600Y-39846250D03*
X109626400Y-37306250D03*
X110083600Y-34766250D03*
X109626400Y-32226250D03*
X110083600Y-29686250D03*
X109626400Y-27146250D03*
X110083600Y-24606250D03*
X109626400Y-22066250D03*
X110083600Y-19526250D03*
X124866400Y-44926250D03*
X109626400Y-16986250D03*
G04 #@! TA.AperFunction,ComponentPad*
G36*
G01*
X196098483Y-75997395D02*
X196097597Y-75997334D01*
G75*
G02*
X195052666Y-74797597I77403J1122334D01*
G01*
X195092666Y-74217597D01*
G75*
G02*
X196292403Y-73172666I1122334J-77403D01*
G01*
X196292403Y-73172666D01*
G75*
G02*
X197337334Y-74372403I-77403J-1122334D01*
G01*
X197297334Y-74952403D01*
G75*
G02*
X196097597Y-75997334I-1122334J77403D01*
G01*
G37*
G04 #@! TD.AperFunction*
D10*
X196215000Y-74295000D03*
G04 #@! TA.AperFunction,ComponentPad*
G36*
G01*
X189113688Y-77672350D02*
X189113683Y-77672345D01*
G75*
G02*
X189027655Y-76083683I751317J837345D01*
G01*
X190337657Y-74623683D01*
G75*
G02*
X191926319Y-74537655I837345J-751317D01*
G01*
X191926319Y-74537655D01*
G75*
G02*
X192012347Y-76126317I-751317J-837345D01*
G01*
X190702345Y-77586317D01*
G75*
G02*
X189113683Y-77672345I-837345J751317D01*
G01*
G37*
G04 #@! TD.AperFunction*
X191175000Y-75375000D03*
G04 #@! TA.AperFunction,ComponentPad*
G36*
G01*
X196098483Y-56947395D02*
X196097597Y-56947334D01*
G75*
G02*
X195052666Y-55747597I77403J1122334D01*
G01*
X195092666Y-55167597D01*
G75*
G02*
X196292403Y-54122666I1122334J-77403D01*
G01*
X196292403Y-54122666D01*
G75*
G02*
X197337334Y-55322403I-77403J-1122334D01*
G01*
X197297334Y-55902403D01*
G75*
G02*
X196097597Y-56947334I-1122334J77403D01*
G01*
G37*
G04 #@! TD.AperFunction*
X196215000Y-55245000D03*
G04 #@! TA.AperFunction,ComponentPad*
G36*
G01*
X189113688Y-58622350D02*
X189113683Y-58622345D01*
G75*
G02*
X189027655Y-57033683I751317J837345D01*
G01*
X190337657Y-55573683D01*
G75*
G02*
X191926319Y-55487655I837345J-751317D01*
G01*
X191926319Y-55487655D01*
G75*
G02*
X192012347Y-57076317I-751317J-837345D01*
G01*
X190702345Y-58536317D01*
G75*
G02*
X189113683Y-58622345I-837345J751317D01*
G01*
G37*
G04 #@! TD.AperFunction*
X191175000Y-56325000D03*
G04 #@! TA.AperFunction,ComponentPad*
G36*
G01*
X196098483Y-37897395D02*
X196097597Y-37897334D01*
G75*
G02*
X195052666Y-36697597I77403J1122334D01*
G01*
X195092666Y-36117597D01*
G75*
G02*
X196292403Y-35072666I1122334J-77403D01*
G01*
X196292403Y-35072666D01*
G75*
G02*
X197337334Y-36272403I-77403J-1122334D01*
G01*
X197297334Y-36852403D01*
G75*
G02*
X196097597Y-37897334I-1122334J77403D01*
G01*
G37*
G04 #@! TD.AperFunction*
X196215000Y-36195000D03*
G04 #@! TA.AperFunction,ComponentPad*
G36*
G01*
X189113688Y-39572350D02*
X189113683Y-39572345D01*
G75*
G02*
X189027655Y-37983683I751317J837345D01*
G01*
X190337657Y-36523683D01*
G75*
G02*
X191926319Y-36437655I837345J-751317D01*
G01*
X191926319Y-36437655D01*
G75*
G02*
X192012347Y-38026317I-751317J-837345D01*
G01*
X190702345Y-39486317D01*
G75*
G02*
X189113683Y-39572345I-837345J751317D01*
G01*
G37*
G04 #@! TD.AperFunction*
X191175000Y-37275000D03*
G04 #@! TA.AperFunction,ComponentPad*
G36*
G01*
X196098483Y-18847395D02*
X196097597Y-18847334D01*
G75*
G02*
X195052666Y-17647597I77403J1122334D01*
G01*
X195092666Y-17067597D01*
G75*
G02*
X196292403Y-16022666I1122334J-77403D01*
G01*
X196292403Y-16022666D01*
G75*
G02*
X197337334Y-17222403I-77403J-1122334D01*
G01*
X197297334Y-17802403D01*
G75*
G02*
X196097597Y-18847334I-1122334J77403D01*
G01*
G37*
G04 #@! TD.AperFunction*
X196215000Y-17145000D03*
G04 #@! TA.AperFunction,ComponentPad*
G36*
G01*
X189113688Y-20522350D02*
X189113683Y-20522345D01*
G75*
G02*
X189027655Y-18933683I751317J837345D01*
G01*
X190337657Y-17473683D01*
G75*
G02*
X191926319Y-17387655I837345J-751317D01*
G01*
X191926319Y-17387655D01*
G75*
G02*
X192012347Y-18976317I-751317J-837345D01*
G01*
X190702345Y-20436317D01*
G75*
G02*
X189113683Y-20522345I-837345J751317D01*
G01*
G37*
G04 #@! TD.AperFunction*
X191175000Y-18225000D03*
G04 #@! TA.AperFunction,ComponentPad*
G36*
G01*
X177048483Y-75997395D02*
X177047597Y-75997334D01*
G75*
G02*
X176002666Y-74797597I77403J1122334D01*
G01*
X176042666Y-74217597D01*
G75*
G02*
X177242403Y-73172666I1122334J-77403D01*
G01*
X177242403Y-73172666D01*
G75*
G02*
X178287334Y-74372403I-77403J-1122334D01*
G01*
X178247334Y-74952403D01*
G75*
G02*
X177047597Y-75997334I-1122334J77403D01*
G01*
G37*
G04 #@! TD.AperFunction*
X177165000Y-74295000D03*
G04 #@! TA.AperFunction,ComponentPad*
G36*
G01*
X170063688Y-77672350D02*
X170063683Y-77672345D01*
G75*
G02*
X169977655Y-76083683I751317J837345D01*
G01*
X171287657Y-74623683D01*
G75*
G02*
X172876319Y-74537655I837345J-751317D01*
G01*
X172876319Y-74537655D01*
G75*
G02*
X172962347Y-76126317I-751317J-837345D01*
G01*
X171652345Y-77586317D01*
G75*
G02*
X170063683Y-77672345I-837345J751317D01*
G01*
G37*
G04 #@! TD.AperFunction*
X172125000Y-75375000D03*
G04 #@! TA.AperFunction,ComponentPad*
G36*
G01*
X177048483Y-56947395D02*
X177047597Y-56947334D01*
G75*
G02*
X176002666Y-55747597I77403J1122334D01*
G01*
X176042666Y-55167597D01*
G75*
G02*
X177242403Y-54122666I1122334J-77403D01*
G01*
X177242403Y-54122666D01*
G75*
G02*
X178287334Y-55322403I-77403J-1122334D01*
G01*
X178247334Y-55902403D01*
G75*
G02*
X177047597Y-56947334I-1122334J77403D01*
G01*
G37*
G04 #@! TD.AperFunction*
X177165000Y-55245000D03*
G04 #@! TA.AperFunction,ComponentPad*
G36*
G01*
X170063688Y-58622350D02*
X170063683Y-58622345D01*
G75*
G02*
X169977655Y-57033683I751317J837345D01*
G01*
X171287657Y-55573683D01*
G75*
G02*
X172876319Y-55487655I837345J-751317D01*
G01*
X172876319Y-55487655D01*
G75*
G02*
X172962347Y-57076317I-751317J-837345D01*
G01*
X171652345Y-58536317D01*
G75*
G02*
X170063683Y-58622345I-837345J751317D01*
G01*
G37*
G04 #@! TD.AperFunction*
X172125000Y-56325000D03*
G04 #@! TA.AperFunction,ComponentPad*
G36*
G01*
X177048483Y-37897395D02*
X177047597Y-37897334D01*
G75*
G02*
X176002666Y-36697597I77403J1122334D01*
G01*
X176042666Y-36117597D01*
G75*
G02*
X177242403Y-35072666I1122334J-77403D01*
G01*
X177242403Y-35072666D01*
G75*
G02*
X178287334Y-36272403I-77403J-1122334D01*
G01*
X178247334Y-36852403D01*
G75*
G02*
X177047597Y-37897334I-1122334J77403D01*
G01*
G37*
G04 #@! TD.AperFunction*
X177165000Y-36195000D03*
G04 #@! TA.AperFunction,ComponentPad*
G36*
G01*
X170063688Y-39572350D02*
X170063683Y-39572345D01*
G75*
G02*
X169977655Y-37983683I751317J837345D01*
G01*
X171287657Y-36523683D01*
G75*
G02*
X172876319Y-36437655I837345J-751317D01*
G01*
X172876319Y-36437655D01*
G75*
G02*
X172962347Y-38026317I-751317J-837345D01*
G01*
X171652345Y-39486317D01*
G75*
G02*
X170063683Y-39572345I-837345J751317D01*
G01*
G37*
G04 #@! TD.AperFunction*
X172125000Y-37275000D03*
G04 #@! TA.AperFunction,ComponentPad*
G36*
G01*
X177048483Y-18847395D02*
X177047597Y-18847334D01*
G75*
G02*
X176002666Y-17647597I77403J1122334D01*
G01*
X176042666Y-17067597D01*
G75*
G02*
X177242403Y-16022666I1122334J-77403D01*
G01*
X177242403Y-16022666D01*
G75*
G02*
X178287334Y-17222403I-77403J-1122334D01*
G01*
X178247334Y-17802403D01*
G75*
G02*
X177047597Y-18847334I-1122334J77403D01*
G01*
G37*
G04 #@! TD.AperFunction*
X177165000Y-17145000D03*
G04 #@! TA.AperFunction,ComponentPad*
G36*
G01*
X170063688Y-20522350D02*
X170063683Y-20522345D01*
G75*
G02*
X169977655Y-18933683I751317J837345D01*
G01*
X171287657Y-17473683D01*
G75*
G02*
X172876319Y-17387655I837345J-751317D01*
G01*
X172876319Y-17387655D01*
G75*
G02*
X172962347Y-18976317I-751317J-837345D01*
G01*
X171652345Y-20436317D01*
G75*
G02*
X170063683Y-20522345I-837345J751317D01*
G01*
G37*
G04 #@! TD.AperFunction*
X172125000Y-18225000D03*
G04 #@! TA.AperFunction,ComponentPad*
G36*
G01*
X167523483Y-95047395D02*
X167522597Y-95047334D01*
G75*
G02*
X166477666Y-93847597I77403J1122334D01*
G01*
X166517666Y-93267597D01*
G75*
G02*
X167717403Y-92222666I1122334J-77403D01*
G01*
X167717403Y-92222666D01*
G75*
G02*
X168762334Y-93422403I-77403J-1122334D01*
G01*
X168722334Y-94002403D01*
G75*
G02*
X167522597Y-95047334I-1122334J77403D01*
G01*
G37*
G04 #@! TD.AperFunction*
X167640000Y-93345000D03*
G04 #@! TA.AperFunction,ComponentPad*
G36*
G01*
X160538688Y-96722350D02*
X160538683Y-96722345D01*
G75*
G02*
X160452655Y-95133683I751317J837345D01*
G01*
X161762657Y-93673683D01*
G75*
G02*
X163351319Y-93587655I837345J-751317D01*
G01*
X163351319Y-93587655D01*
G75*
G02*
X163437347Y-95176317I-751317J-837345D01*
G01*
X162127345Y-96636317D01*
G75*
G02*
X160538683Y-96722345I-837345J751317D01*
G01*
G37*
G04 #@! TD.AperFunction*
X162600000Y-94425000D03*
G04 #@! TA.AperFunction,ComponentPad*
G36*
G01*
X157998483Y-75997395D02*
X157997597Y-75997334D01*
G75*
G02*
X156952666Y-74797597I77403J1122334D01*
G01*
X156992666Y-74217597D01*
G75*
G02*
X158192403Y-73172666I1122334J-77403D01*
G01*
X158192403Y-73172666D01*
G75*
G02*
X159237334Y-74372403I-77403J-1122334D01*
G01*
X159197334Y-74952403D01*
G75*
G02*
X157997597Y-75997334I-1122334J77403D01*
G01*
G37*
G04 #@! TD.AperFunction*
X158115000Y-74295000D03*
G04 #@! TA.AperFunction,ComponentPad*
G36*
G01*
X151013688Y-77672350D02*
X151013683Y-77672345D01*
G75*
G02*
X150927655Y-76083683I751317J837345D01*
G01*
X152237657Y-74623683D01*
G75*
G02*
X153826319Y-74537655I837345J-751317D01*
G01*
X153826319Y-74537655D01*
G75*
G02*
X153912347Y-76126317I-751317J-837345D01*
G01*
X152602345Y-77586317D01*
G75*
G02*
X151013683Y-77672345I-837345J751317D01*
G01*
G37*
G04 #@! TD.AperFunction*
X153075000Y-75375000D03*
G04 #@! TA.AperFunction,ComponentPad*
G36*
G01*
X157998483Y-56947395D02*
X157997597Y-56947334D01*
G75*
G02*
X156952666Y-55747597I77403J1122334D01*
G01*
X156992666Y-55167597D01*
G75*
G02*
X158192403Y-54122666I1122334J-77403D01*
G01*
X158192403Y-54122666D01*
G75*
G02*
X159237334Y-55322403I-77403J-1122334D01*
G01*
X159197334Y-55902403D01*
G75*
G02*
X157997597Y-56947334I-1122334J77403D01*
G01*
G37*
G04 #@! TD.AperFunction*
X158115000Y-55245000D03*
G04 #@! TA.AperFunction,ComponentPad*
G36*
G01*
X151013688Y-58622350D02*
X151013683Y-58622345D01*
G75*
G02*
X150927655Y-57033683I751317J837345D01*
G01*
X152237657Y-55573683D01*
G75*
G02*
X153826319Y-55487655I837345J-751317D01*
G01*
X153826319Y-55487655D01*
G75*
G02*
X153912347Y-57076317I-751317J-837345D01*
G01*
X152602345Y-58536317D01*
G75*
G02*
X151013683Y-58622345I-837345J751317D01*
G01*
G37*
G04 #@! TD.AperFunction*
X153075000Y-56325000D03*
G04 #@! TA.AperFunction,ComponentPad*
G36*
G01*
X157998483Y-37897395D02*
X157997597Y-37897334D01*
G75*
G02*
X156952666Y-36697597I77403J1122334D01*
G01*
X156992666Y-36117597D01*
G75*
G02*
X158192403Y-35072666I1122334J-77403D01*
G01*
X158192403Y-35072666D01*
G75*
G02*
X159237334Y-36272403I-77403J-1122334D01*
G01*
X159197334Y-36852403D01*
G75*
G02*
X157997597Y-37897334I-1122334J77403D01*
G01*
G37*
G04 #@! TD.AperFunction*
X158115000Y-36195000D03*
G04 #@! TA.AperFunction,ComponentPad*
G36*
G01*
X151013688Y-39572350D02*
X151013683Y-39572345D01*
G75*
G02*
X150927655Y-37983683I751317J837345D01*
G01*
X152237657Y-36523683D01*
G75*
G02*
X153826319Y-36437655I837345J-751317D01*
G01*
X153826319Y-36437655D01*
G75*
G02*
X153912347Y-38026317I-751317J-837345D01*
G01*
X152602345Y-39486317D01*
G75*
G02*
X151013683Y-39572345I-837345J751317D01*
G01*
G37*
G04 #@! TD.AperFunction*
X153075000Y-37275000D03*
G04 #@! TA.AperFunction,ComponentPad*
G36*
G01*
X157998483Y-18847395D02*
X157997597Y-18847334D01*
G75*
G02*
X156952666Y-17647597I77403J1122334D01*
G01*
X156992666Y-17067597D01*
G75*
G02*
X158192403Y-16022666I1122334J-77403D01*
G01*
X158192403Y-16022666D01*
G75*
G02*
X159237334Y-17222403I-77403J-1122334D01*
G01*
X159197334Y-17802403D01*
G75*
G02*
X157997597Y-18847334I-1122334J77403D01*
G01*
G37*
G04 #@! TD.AperFunction*
X158115000Y-17145000D03*
G04 #@! TA.AperFunction,ComponentPad*
G36*
G01*
X151013688Y-20522350D02*
X151013683Y-20522345D01*
G75*
G02*
X150927655Y-18933683I751317J837345D01*
G01*
X152237657Y-17473683D01*
G75*
G02*
X153826319Y-17387655I837345J-751317D01*
G01*
X153826319Y-17387655D01*
G75*
G02*
X153912347Y-18976317I-751317J-837345D01*
G01*
X152602345Y-20436317D01*
G75*
G02*
X151013683Y-20522345I-837345J751317D01*
G01*
G37*
G04 #@! TD.AperFunction*
X153075000Y-18225000D03*
G04 #@! TA.AperFunction,ComponentPad*
G36*
G01*
X148473483Y-95047395D02*
X148472597Y-95047334D01*
G75*
G02*
X147427666Y-93847597I77403J1122334D01*
G01*
X147467666Y-93267597D01*
G75*
G02*
X148667403Y-92222666I1122334J-77403D01*
G01*
X148667403Y-92222666D01*
G75*
G02*
X149712334Y-93422403I-77403J-1122334D01*
G01*
X149672334Y-94002403D01*
G75*
G02*
X148472597Y-95047334I-1122334J77403D01*
G01*
G37*
G04 #@! TD.AperFunction*
X148590000Y-93345000D03*
G04 #@! TA.AperFunction,ComponentPad*
G36*
G01*
X141488688Y-96722350D02*
X141488683Y-96722345D01*
G75*
G02*
X141402655Y-95133683I751317J837345D01*
G01*
X142712657Y-93673683D01*
G75*
G02*
X144301319Y-93587655I837345J-751317D01*
G01*
X144301319Y-93587655D01*
G75*
G02*
X144387347Y-95176317I-751317J-837345D01*
G01*
X143077345Y-96636317D01*
G75*
G02*
X141488683Y-96722345I-837345J751317D01*
G01*
G37*
G04 #@! TD.AperFunction*
X143550000Y-94425000D03*
G04 #@! TA.AperFunction,ComponentPad*
G36*
G01*
X138948483Y-75997395D02*
X138947597Y-75997334D01*
G75*
G02*
X137902666Y-74797597I77403J1122334D01*
G01*
X137942666Y-74217597D01*
G75*
G02*
X139142403Y-73172666I1122334J-77403D01*
G01*
X139142403Y-73172666D01*
G75*
G02*
X140187334Y-74372403I-77403J-1122334D01*
G01*
X140147334Y-74952403D01*
G75*
G02*
X138947597Y-75997334I-1122334J77403D01*
G01*
G37*
G04 #@! TD.AperFunction*
X139065000Y-74295000D03*
G04 #@! TA.AperFunction,ComponentPad*
G36*
G01*
X131963688Y-77672350D02*
X131963683Y-77672345D01*
G75*
G02*
X131877655Y-76083683I751317J837345D01*
G01*
X133187657Y-74623683D01*
G75*
G02*
X134776319Y-74537655I837345J-751317D01*
G01*
X134776319Y-74537655D01*
G75*
G02*
X134862347Y-76126317I-751317J-837345D01*
G01*
X133552345Y-77586317D01*
G75*
G02*
X131963683Y-77672345I-837345J751317D01*
G01*
G37*
G04 #@! TD.AperFunction*
X134025000Y-75375000D03*
G04 #@! TA.AperFunction,ComponentPad*
G36*
G01*
X138948483Y-56947395D02*
X138947597Y-56947334D01*
G75*
G02*
X137902666Y-55747597I77403J1122334D01*
G01*
X137942666Y-55167597D01*
G75*
G02*
X139142403Y-54122666I1122334J-77403D01*
G01*
X139142403Y-54122666D01*
G75*
G02*
X140187334Y-55322403I-77403J-1122334D01*
G01*
X140147334Y-55902403D01*
G75*
G02*
X138947597Y-56947334I-1122334J77403D01*
G01*
G37*
G04 #@! TD.AperFunction*
X139065000Y-55245000D03*
G04 #@! TA.AperFunction,ComponentPad*
G36*
G01*
X131963688Y-58622350D02*
X131963683Y-58622345D01*
G75*
G02*
X131877655Y-57033683I751317J837345D01*
G01*
X133187657Y-55573683D01*
G75*
G02*
X134776319Y-55487655I837345J-751317D01*
G01*
X134776319Y-55487655D01*
G75*
G02*
X134862347Y-57076317I-751317J-837345D01*
G01*
X133552345Y-58536317D01*
G75*
G02*
X131963683Y-58622345I-837345J751317D01*
G01*
G37*
G04 #@! TD.AperFunction*
X134025000Y-56325000D03*
G04 #@! TA.AperFunction,ComponentPad*
G36*
G01*
X138948483Y-37897395D02*
X138947597Y-37897334D01*
G75*
G02*
X137902666Y-36697597I77403J1122334D01*
G01*
X137942666Y-36117597D01*
G75*
G02*
X139142403Y-35072666I1122334J-77403D01*
G01*
X139142403Y-35072666D01*
G75*
G02*
X140187334Y-36272403I-77403J-1122334D01*
G01*
X140147334Y-36852403D01*
G75*
G02*
X138947597Y-37897334I-1122334J77403D01*
G01*
G37*
G04 #@! TD.AperFunction*
X139065000Y-36195000D03*
G04 #@! TA.AperFunction,ComponentPad*
G36*
G01*
X131963688Y-39572350D02*
X131963683Y-39572345D01*
G75*
G02*
X131877655Y-37983683I751317J837345D01*
G01*
X133187657Y-36523683D01*
G75*
G02*
X134776319Y-36437655I837345J-751317D01*
G01*
X134776319Y-36437655D01*
G75*
G02*
X134862347Y-38026317I-751317J-837345D01*
G01*
X133552345Y-39486317D01*
G75*
G02*
X131963683Y-39572345I-837345J751317D01*
G01*
G37*
G04 #@! TD.AperFunction*
X134025000Y-37275000D03*
G04 #@! TA.AperFunction,ComponentPad*
G36*
G01*
X138948483Y-18847395D02*
X138947597Y-18847334D01*
G75*
G02*
X137902666Y-17647597I77403J1122334D01*
G01*
X137942666Y-17067597D01*
G75*
G02*
X139142403Y-16022666I1122334J-77403D01*
G01*
X139142403Y-16022666D01*
G75*
G02*
X140187334Y-17222403I-77403J-1122334D01*
G01*
X140147334Y-17802403D01*
G75*
G02*
X138947597Y-18847334I-1122334J77403D01*
G01*
G37*
G04 #@! TD.AperFunction*
X139065000Y-17145000D03*
G04 #@! TA.AperFunction,ComponentPad*
G36*
G01*
X131963688Y-20522350D02*
X131963683Y-20522345D01*
G75*
G02*
X131877655Y-18933683I751317J837345D01*
G01*
X133187657Y-17473683D01*
G75*
G02*
X134776319Y-17387655I837345J-751317D01*
G01*
X134776319Y-17387655D01*
G75*
G02*
X134862347Y-18976317I-751317J-837345D01*
G01*
X133552345Y-20436317D01*
G75*
G02*
X131963683Y-20522345I-837345J751317D01*
G01*
G37*
G04 #@! TD.AperFunction*
X134025000Y-18225000D03*
G04 #@! TA.AperFunction,ComponentPad*
G36*
G01*
X119898483Y-75997395D02*
X119897597Y-75997334D01*
G75*
G02*
X118852666Y-74797597I77403J1122334D01*
G01*
X118892666Y-74217597D01*
G75*
G02*
X120092403Y-73172666I1122334J-77403D01*
G01*
X120092403Y-73172666D01*
G75*
G02*
X121137334Y-74372403I-77403J-1122334D01*
G01*
X121097334Y-74952403D01*
G75*
G02*
X119897597Y-75997334I-1122334J77403D01*
G01*
G37*
G04 #@! TD.AperFunction*
X120015000Y-74295000D03*
G04 #@! TA.AperFunction,ComponentPad*
G36*
G01*
X112913688Y-77672350D02*
X112913683Y-77672345D01*
G75*
G02*
X112827655Y-76083683I751317J837345D01*
G01*
X114137657Y-74623683D01*
G75*
G02*
X115726319Y-74537655I837345J-751317D01*
G01*
X115726319Y-74537655D01*
G75*
G02*
X115812347Y-76126317I-751317J-837345D01*
G01*
X114502345Y-77586317D01*
G75*
G02*
X112913683Y-77672345I-837345J751317D01*
G01*
G37*
G04 #@! TD.AperFunction*
X114975000Y-75375000D03*
G04 #@! TA.AperFunction,ComponentPad*
G36*
G01*
X119898483Y-56947395D02*
X119897597Y-56947334D01*
G75*
G02*
X118852666Y-55747597I77403J1122334D01*
G01*
X118892666Y-55167597D01*
G75*
G02*
X120092403Y-54122666I1122334J-77403D01*
G01*
X120092403Y-54122666D01*
G75*
G02*
X121137334Y-55322403I-77403J-1122334D01*
G01*
X121097334Y-55902403D01*
G75*
G02*
X119897597Y-56947334I-1122334J77403D01*
G01*
G37*
G04 #@! TD.AperFunction*
X120015000Y-55245000D03*
G04 #@! TA.AperFunction,ComponentPad*
G36*
G01*
X112913688Y-58622350D02*
X112913683Y-58622345D01*
G75*
G02*
X112827655Y-57033683I751317J837345D01*
G01*
X114137657Y-55573683D01*
G75*
G02*
X115726319Y-55487655I837345J-751317D01*
G01*
X115726319Y-55487655D01*
G75*
G02*
X115812347Y-57076317I-751317J-837345D01*
G01*
X114502345Y-58536317D01*
G75*
G02*
X112913683Y-58622345I-837345J751317D01*
G01*
G37*
G04 #@! TD.AperFunction*
X114975000Y-56325000D03*
G04 #@! TA.AperFunction,ComponentPad*
G36*
G01*
X119898483Y-18847395D02*
X119897597Y-18847334D01*
G75*
G02*
X118852666Y-17647597I77403J1122334D01*
G01*
X118892666Y-17067597D01*
G75*
G02*
X120092403Y-16022666I1122334J-77403D01*
G01*
X120092403Y-16022666D01*
G75*
G02*
X121137334Y-17222403I-77403J-1122334D01*
G01*
X121097334Y-17802403D01*
G75*
G02*
X119897597Y-18847334I-1122334J77403D01*
G01*
G37*
G04 #@! TD.AperFunction*
X120015000Y-17145000D03*
G04 #@! TA.AperFunction,ComponentPad*
G36*
G01*
X112913688Y-20522350D02*
X112913683Y-20522345D01*
G75*
G02*
X112827655Y-18933683I751317J837345D01*
G01*
X114137657Y-17473683D01*
G75*
G02*
X115726319Y-17387655I837345J-751317D01*
G01*
X115726319Y-17387655D01*
G75*
G02*
X115812347Y-18976317I-751317J-837345D01*
G01*
X114502345Y-20436317D01*
G75*
G02*
X112913683Y-20522345I-837345J751317D01*
G01*
G37*
G04 #@! TD.AperFunction*
X114975000Y-18225000D03*
G04 #@! TA.AperFunction,ComponentPad*
G36*
G01*
X96085983Y-95047395D02*
X96085097Y-95047334D01*
G75*
G02*
X95040166Y-93847597I77403J1122334D01*
G01*
X95080166Y-93267597D01*
G75*
G02*
X96279903Y-92222666I1122334J-77403D01*
G01*
X96279903Y-92222666D01*
G75*
G02*
X97324834Y-93422403I-77403J-1122334D01*
G01*
X97284834Y-94002403D01*
G75*
G02*
X96085097Y-95047334I-1122334J77403D01*
G01*
G37*
G04 #@! TD.AperFunction*
X96202500Y-93345000D03*
G04 #@! TA.AperFunction,ComponentPad*
G36*
G01*
X89101188Y-96722350D02*
X89101183Y-96722345D01*
G75*
G02*
X89015155Y-95133683I751317J837345D01*
G01*
X90325157Y-93673683D01*
G75*
G02*
X91913819Y-93587655I837345J-751317D01*
G01*
X91913819Y-93587655D01*
G75*
G02*
X91999847Y-95176317I-751317J-837345D01*
G01*
X90689845Y-96636317D01*
G75*
G02*
X89101183Y-96722345I-837345J751317D01*
G01*
G37*
G04 #@! TD.AperFunction*
X91162500Y-94425000D03*
G04 #@! TA.AperFunction,ComponentPad*
G36*
G01*
X100848483Y-75997395D02*
X100847597Y-75997334D01*
G75*
G02*
X99802666Y-74797597I77403J1122334D01*
G01*
X99842666Y-74217597D01*
G75*
G02*
X101042403Y-73172666I1122334J-77403D01*
G01*
X101042403Y-73172666D01*
G75*
G02*
X102087334Y-74372403I-77403J-1122334D01*
G01*
X102047334Y-74952403D01*
G75*
G02*
X100847597Y-75997334I-1122334J77403D01*
G01*
G37*
G04 #@! TD.AperFunction*
X100965000Y-74295000D03*
G04 #@! TA.AperFunction,ComponentPad*
G36*
G01*
X93863688Y-77672350D02*
X93863683Y-77672345D01*
G75*
G02*
X93777655Y-76083683I751317J837345D01*
G01*
X95087657Y-74623683D01*
G75*
G02*
X96676319Y-74537655I837345J-751317D01*
G01*
X96676319Y-74537655D01*
G75*
G02*
X96762347Y-76126317I-751317J-837345D01*
G01*
X95452345Y-77586317D01*
G75*
G02*
X93863683Y-77672345I-837345J751317D01*
G01*
G37*
G04 #@! TD.AperFunction*
X95925000Y-75375000D03*
G04 #@! TA.AperFunction,ComponentPad*
G36*
G01*
X100848483Y-56947395D02*
X100847597Y-56947334D01*
G75*
G02*
X99802666Y-55747597I77403J1122334D01*
G01*
X99842666Y-55167597D01*
G75*
G02*
X101042403Y-54122666I1122334J-77403D01*
G01*
X101042403Y-54122666D01*
G75*
G02*
X102087334Y-55322403I-77403J-1122334D01*
G01*
X102047334Y-55902403D01*
G75*
G02*
X100847597Y-56947334I-1122334J77403D01*
G01*
G37*
G04 #@! TD.AperFunction*
X100965000Y-55245000D03*
G04 #@! TA.AperFunction,ComponentPad*
G36*
G01*
X93863688Y-58622350D02*
X93863683Y-58622345D01*
G75*
G02*
X93777655Y-57033683I751317J837345D01*
G01*
X95087657Y-55573683D01*
G75*
G02*
X96676319Y-55487655I837345J-751317D01*
G01*
X96676319Y-55487655D01*
G75*
G02*
X96762347Y-57076317I-751317J-837345D01*
G01*
X95452345Y-58536317D01*
G75*
G02*
X93863683Y-58622345I-837345J751317D01*
G01*
G37*
G04 #@! TD.AperFunction*
X95925000Y-56325000D03*
G04 #@! TA.AperFunction,ComponentPad*
G36*
G01*
X100848483Y-37897395D02*
X100847597Y-37897334D01*
G75*
G02*
X99802666Y-36697597I77403J1122334D01*
G01*
X99842666Y-36117597D01*
G75*
G02*
X101042403Y-35072666I1122334J-77403D01*
G01*
X101042403Y-35072666D01*
G75*
G02*
X102087334Y-36272403I-77403J-1122334D01*
G01*
X102047334Y-36852403D01*
G75*
G02*
X100847597Y-37897334I-1122334J77403D01*
G01*
G37*
G04 #@! TD.AperFunction*
X100965000Y-36195000D03*
G04 #@! TA.AperFunction,ComponentPad*
G36*
G01*
X93863688Y-39572350D02*
X93863683Y-39572345D01*
G75*
G02*
X93777655Y-37983683I751317J837345D01*
G01*
X95087657Y-36523683D01*
G75*
G02*
X96676319Y-36437655I837345J-751317D01*
G01*
X96676319Y-36437655D01*
G75*
G02*
X96762347Y-38026317I-751317J-837345D01*
G01*
X95452345Y-39486317D01*
G75*
G02*
X93863683Y-39572345I-837345J751317D01*
G01*
G37*
G04 #@! TD.AperFunction*
X95925000Y-37275000D03*
G04 #@! TA.AperFunction,ComponentPad*
G36*
G01*
X100848483Y-18847395D02*
X100847597Y-18847334D01*
G75*
G02*
X99802666Y-17647597I77403J1122334D01*
G01*
X99842666Y-17067597D01*
G75*
G02*
X101042403Y-16022666I1122334J-77403D01*
G01*
X101042403Y-16022666D01*
G75*
G02*
X102087334Y-17222403I-77403J-1122334D01*
G01*
X102047334Y-17802403D01*
G75*
G02*
X100847597Y-18847334I-1122334J77403D01*
G01*
G37*
G04 #@! TD.AperFunction*
X100965000Y-17145000D03*
G04 #@! TA.AperFunction,ComponentPad*
G36*
G01*
X93863688Y-20522350D02*
X93863683Y-20522345D01*
G75*
G02*
X93777655Y-18933683I751317J837345D01*
G01*
X95087657Y-17473683D01*
G75*
G02*
X96676319Y-17387655I837345J-751317D01*
G01*
X96676319Y-17387655D01*
G75*
G02*
X96762347Y-18976317I-751317J-837345D01*
G01*
X95452345Y-20436317D01*
G75*
G02*
X93863683Y-20522345I-837345J751317D01*
G01*
G37*
G04 #@! TD.AperFunction*
X95925000Y-18225000D03*
G04 #@! TA.AperFunction,ComponentPad*
G36*
G01*
X72273483Y-95047395D02*
X72272597Y-95047334D01*
G75*
G02*
X71227666Y-93847597I77403J1122334D01*
G01*
X71267666Y-93267597D01*
G75*
G02*
X72467403Y-92222666I1122334J-77403D01*
G01*
X72467403Y-92222666D01*
G75*
G02*
X73512334Y-93422403I-77403J-1122334D01*
G01*
X73472334Y-94002403D01*
G75*
G02*
X72272597Y-95047334I-1122334J77403D01*
G01*
G37*
G04 #@! TD.AperFunction*
X72390000Y-93345000D03*
G04 #@! TA.AperFunction,ComponentPad*
G36*
G01*
X65288688Y-96722350D02*
X65288683Y-96722345D01*
G75*
G02*
X65202655Y-95133683I751317J837345D01*
G01*
X66512657Y-93673683D01*
G75*
G02*
X68101319Y-93587655I837345J-751317D01*
G01*
X68101319Y-93587655D01*
G75*
G02*
X68187347Y-95176317I-751317J-837345D01*
G01*
X66877345Y-96636317D01*
G75*
G02*
X65288683Y-96722345I-837345J751317D01*
G01*
G37*
G04 #@! TD.AperFunction*
X67350000Y-94425000D03*
G04 #@! TA.AperFunction,ComponentPad*
G36*
G01*
X81798483Y-75997395D02*
X81797597Y-75997334D01*
G75*
G02*
X80752666Y-74797597I77403J1122334D01*
G01*
X80792666Y-74217597D01*
G75*
G02*
X81992403Y-73172666I1122334J-77403D01*
G01*
X81992403Y-73172666D01*
G75*
G02*
X83037334Y-74372403I-77403J-1122334D01*
G01*
X82997334Y-74952403D01*
G75*
G02*
X81797597Y-75997334I-1122334J77403D01*
G01*
G37*
G04 #@! TD.AperFunction*
X81915000Y-74295000D03*
G04 #@! TA.AperFunction,ComponentPad*
G36*
G01*
X74813688Y-77672350D02*
X74813683Y-77672345D01*
G75*
G02*
X74727655Y-76083683I751317J837345D01*
G01*
X76037657Y-74623683D01*
G75*
G02*
X77626319Y-74537655I837345J-751317D01*
G01*
X77626319Y-74537655D01*
G75*
G02*
X77712347Y-76126317I-751317J-837345D01*
G01*
X76402345Y-77586317D01*
G75*
G02*
X74813683Y-77672345I-837345J751317D01*
G01*
G37*
G04 #@! TD.AperFunction*
X76875000Y-75375000D03*
G04 #@! TA.AperFunction,ComponentPad*
G36*
G01*
X81798483Y-56947395D02*
X81797597Y-56947334D01*
G75*
G02*
X80752666Y-55747597I77403J1122334D01*
G01*
X80792666Y-55167597D01*
G75*
G02*
X81992403Y-54122666I1122334J-77403D01*
G01*
X81992403Y-54122666D01*
G75*
G02*
X83037334Y-55322403I-77403J-1122334D01*
G01*
X82997334Y-55902403D01*
G75*
G02*
X81797597Y-56947334I-1122334J77403D01*
G01*
G37*
G04 #@! TD.AperFunction*
X81915000Y-55245000D03*
G04 #@! TA.AperFunction,ComponentPad*
G36*
G01*
X74813688Y-58622350D02*
X74813683Y-58622345D01*
G75*
G02*
X74727655Y-57033683I751317J837345D01*
G01*
X76037657Y-55573683D01*
G75*
G02*
X77626319Y-55487655I837345J-751317D01*
G01*
X77626319Y-55487655D01*
G75*
G02*
X77712347Y-57076317I-751317J-837345D01*
G01*
X76402345Y-58536317D01*
G75*
G02*
X74813683Y-58622345I-837345J751317D01*
G01*
G37*
G04 #@! TD.AperFunction*
X76875000Y-56325000D03*
G04 #@! TA.AperFunction,ComponentPad*
G36*
G01*
X81798483Y-37897395D02*
X81797597Y-37897334D01*
G75*
G02*
X80752666Y-36697597I77403J1122334D01*
G01*
X80792666Y-36117597D01*
G75*
G02*
X81992403Y-35072666I1122334J-77403D01*
G01*
X81992403Y-35072666D01*
G75*
G02*
X83037334Y-36272403I-77403J-1122334D01*
G01*
X82997334Y-36852403D01*
G75*
G02*
X81797597Y-37897334I-1122334J77403D01*
G01*
G37*
G04 #@! TD.AperFunction*
X81915000Y-36195000D03*
G04 #@! TA.AperFunction,ComponentPad*
G36*
G01*
X74813688Y-39572350D02*
X74813683Y-39572345D01*
G75*
G02*
X74727655Y-37983683I751317J837345D01*
G01*
X76037657Y-36523683D01*
G75*
G02*
X77626319Y-36437655I837345J-751317D01*
G01*
X77626319Y-36437655D01*
G75*
G02*
X77712347Y-38026317I-751317J-837345D01*
G01*
X76402345Y-39486317D01*
G75*
G02*
X74813683Y-39572345I-837345J751317D01*
G01*
G37*
G04 #@! TD.AperFunction*
X76875000Y-37275000D03*
G04 #@! TA.AperFunction,ComponentPad*
G36*
G01*
X81798483Y-18847395D02*
X81797597Y-18847334D01*
G75*
G02*
X80752666Y-17647597I77403J1122334D01*
G01*
X80792666Y-17067597D01*
G75*
G02*
X81992403Y-16022666I1122334J-77403D01*
G01*
X81992403Y-16022666D01*
G75*
G02*
X83037334Y-17222403I-77403J-1122334D01*
G01*
X82997334Y-17802403D01*
G75*
G02*
X81797597Y-18847334I-1122334J77403D01*
G01*
G37*
G04 #@! TD.AperFunction*
X81915000Y-17145000D03*
G04 #@! TA.AperFunction,ComponentPad*
G36*
G01*
X74813688Y-20522350D02*
X74813683Y-20522345D01*
G75*
G02*
X74727655Y-18933683I751317J837345D01*
G01*
X76037657Y-17473683D01*
G75*
G02*
X77626319Y-17387655I837345J-751317D01*
G01*
X77626319Y-17387655D01*
G75*
G02*
X77712347Y-18976317I-751317J-837345D01*
G01*
X76402345Y-20436317D01*
G75*
G02*
X74813683Y-20522345I-837345J751317D01*
G01*
G37*
G04 #@! TD.AperFunction*
X76875000Y-18225000D03*
G04 #@! TA.AperFunction,ComponentPad*
G36*
G01*
X53223483Y-95047395D02*
X53222597Y-95047334D01*
G75*
G02*
X52177666Y-93847597I77403J1122334D01*
G01*
X52217666Y-93267597D01*
G75*
G02*
X53417403Y-92222666I1122334J-77403D01*
G01*
X53417403Y-92222666D01*
G75*
G02*
X54462334Y-93422403I-77403J-1122334D01*
G01*
X54422334Y-94002403D01*
G75*
G02*
X53222597Y-95047334I-1122334J77403D01*
G01*
G37*
G04 #@! TD.AperFunction*
X53340000Y-93345000D03*
G04 #@! TA.AperFunction,ComponentPad*
G36*
G01*
X46238688Y-96722350D02*
X46238683Y-96722345D01*
G75*
G02*
X46152655Y-95133683I751317J837345D01*
G01*
X47462657Y-93673683D01*
G75*
G02*
X49051319Y-93587655I837345J-751317D01*
G01*
X49051319Y-93587655D01*
G75*
G02*
X49137347Y-95176317I-751317J-837345D01*
G01*
X47827345Y-96636317D01*
G75*
G02*
X46238683Y-96722345I-837345J751317D01*
G01*
G37*
G04 #@! TD.AperFunction*
X48300000Y-94425000D03*
G04 #@! TA.AperFunction,ComponentPad*
G36*
G01*
X62748483Y-75997395D02*
X62747597Y-75997334D01*
G75*
G02*
X61702666Y-74797597I77403J1122334D01*
G01*
X61742666Y-74217597D01*
G75*
G02*
X62942403Y-73172666I1122334J-77403D01*
G01*
X62942403Y-73172666D01*
G75*
G02*
X63987334Y-74372403I-77403J-1122334D01*
G01*
X63947334Y-74952403D01*
G75*
G02*
X62747597Y-75997334I-1122334J77403D01*
G01*
G37*
G04 #@! TD.AperFunction*
X62865000Y-74295000D03*
G04 #@! TA.AperFunction,ComponentPad*
G36*
G01*
X55763688Y-77672350D02*
X55763683Y-77672345D01*
G75*
G02*
X55677655Y-76083683I751317J837345D01*
G01*
X56987657Y-74623683D01*
G75*
G02*
X58576319Y-74537655I837345J-751317D01*
G01*
X58576319Y-74537655D01*
G75*
G02*
X58662347Y-76126317I-751317J-837345D01*
G01*
X57352345Y-77586317D01*
G75*
G02*
X55763683Y-77672345I-837345J751317D01*
G01*
G37*
G04 #@! TD.AperFunction*
X57825000Y-75375000D03*
G04 #@! TA.AperFunction,ComponentPad*
G36*
G01*
X62748483Y-56947395D02*
X62747597Y-56947334D01*
G75*
G02*
X61702666Y-55747597I77403J1122334D01*
G01*
X61742666Y-55167597D01*
G75*
G02*
X62942403Y-54122666I1122334J-77403D01*
G01*
X62942403Y-54122666D01*
G75*
G02*
X63987334Y-55322403I-77403J-1122334D01*
G01*
X63947334Y-55902403D01*
G75*
G02*
X62747597Y-56947334I-1122334J77403D01*
G01*
G37*
G04 #@! TD.AperFunction*
X62865000Y-55245000D03*
G04 #@! TA.AperFunction,ComponentPad*
G36*
G01*
X55763688Y-58622350D02*
X55763683Y-58622345D01*
G75*
G02*
X55677655Y-57033683I751317J837345D01*
G01*
X56987657Y-55573683D01*
G75*
G02*
X58576319Y-55487655I837345J-751317D01*
G01*
X58576319Y-55487655D01*
G75*
G02*
X58662347Y-57076317I-751317J-837345D01*
G01*
X57352345Y-58536317D01*
G75*
G02*
X55763683Y-58622345I-837345J751317D01*
G01*
G37*
G04 #@! TD.AperFunction*
X57825000Y-56325000D03*
G04 #@! TA.AperFunction,ComponentPad*
G36*
G01*
X62748483Y-37897395D02*
X62747597Y-37897334D01*
G75*
G02*
X61702666Y-36697597I77403J1122334D01*
G01*
X61742666Y-36117597D01*
G75*
G02*
X62942403Y-35072666I1122334J-77403D01*
G01*
X62942403Y-35072666D01*
G75*
G02*
X63987334Y-36272403I-77403J-1122334D01*
G01*
X63947334Y-36852403D01*
G75*
G02*
X62747597Y-37897334I-1122334J77403D01*
G01*
G37*
G04 #@! TD.AperFunction*
X62865000Y-36195000D03*
G04 #@! TA.AperFunction,ComponentPad*
G36*
G01*
X55763688Y-39572350D02*
X55763683Y-39572345D01*
G75*
G02*
X55677655Y-37983683I751317J837345D01*
G01*
X56987657Y-36523683D01*
G75*
G02*
X58576319Y-36437655I837345J-751317D01*
G01*
X58576319Y-36437655D01*
G75*
G02*
X58662347Y-38026317I-751317J-837345D01*
G01*
X57352345Y-39486317D01*
G75*
G02*
X55763683Y-39572345I-837345J751317D01*
G01*
G37*
G04 #@! TD.AperFunction*
X57825000Y-37275000D03*
G04 #@! TA.AperFunction,ComponentPad*
G36*
G01*
X62748483Y-18847395D02*
X62747597Y-18847334D01*
G75*
G02*
X61702666Y-17647597I77403J1122334D01*
G01*
X61742666Y-17067597D01*
G75*
G02*
X62942403Y-16022666I1122334J-77403D01*
G01*
X62942403Y-16022666D01*
G75*
G02*
X63987334Y-17222403I-77403J-1122334D01*
G01*
X63947334Y-17802403D01*
G75*
G02*
X62747597Y-18847334I-1122334J77403D01*
G01*
G37*
G04 #@! TD.AperFunction*
X62865000Y-17145000D03*
G04 #@! TA.AperFunction,ComponentPad*
G36*
G01*
X55763688Y-20522350D02*
X55763683Y-20522345D01*
G75*
G02*
X55677655Y-18933683I751317J837345D01*
G01*
X56987657Y-17473683D01*
G75*
G02*
X58576319Y-17387655I837345J-751317D01*
G01*
X58576319Y-17387655D01*
G75*
G02*
X58662347Y-18976317I-751317J-837345D01*
G01*
X57352345Y-20436317D01*
G75*
G02*
X55763683Y-20522345I-837345J751317D01*
G01*
G37*
G04 #@! TD.AperFunction*
X57825000Y-18225000D03*
G04 #@! TA.AperFunction,ComponentPad*
G36*
G01*
X43698483Y-75997395D02*
X43697597Y-75997334D01*
G75*
G02*
X42652666Y-74797597I77403J1122334D01*
G01*
X42692666Y-74217597D01*
G75*
G02*
X43892403Y-73172666I1122334J-77403D01*
G01*
X43892403Y-73172666D01*
G75*
G02*
X44937334Y-74372403I-77403J-1122334D01*
G01*
X44897334Y-74952403D01*
G75*
G02*
X43697597Y-75997334I-1122334J77403D01*
G01*
G37*
G04 #@! TD.AperFunction*
X43815000Y-74295000D03*
G04 #@! TA.AperFunction,ComponentPad*
G36*
G01*
X36713688Y-77672350D02*
X36713683Y-77672345D01*
G75*
G02*
X36627655Y-76083683I751317J837345D01*
G01*
X37937657Y-74623683D01*
G75*
G02*
X39526319Y-74537655I837345J-751317D01*
G01*
X39526319Y-74537655D01*
G75*
G02*
X39612347Y-76126317I-751317J-837345D01*
G01*
X38302345Y-77586317D01*
G75*
G02*
X36713683Y-77672345I-837345J751317D01*
G01*
G37*
G04 #@! TD.AperFunction*
X38775000Y-75375000D03*
G04 #@! TA.AperFunction,ComponentPad*
G36*
G01*
X43698483Y-56947395D02*
X43697597Y-56947334D01*
G75*
G02*
X42652666Y-55747597I77403J1122334D01*
G01*
X42692666Y-55167597D01*
G75*
G02*
X43892403Y-54122666I1122334J-77403D01*
G01*
X43892403Y-54122666D01*
G75*
G02*
X44937334Y-55322403I-77403J-1122334D01*
G01*
X44897334Y-55902403D01*
G75*
G02*
X43697597Y-56947334I-1122334J77403D01*
G01*
G37*
G04 #@! TD.AperFunction*
X43815000Y-55245000D03*
G04 #@! TA.AperFunction,ComponentPad*
G36*
G01*
X36713688Y-58622350D02*
X36713683Y-58622345D01*
G75*
G02*
X36627655Y-57033683I751317J837345D01*
G01*
X37937657Y-55573683D01*
G75*
G02*
X39526319Y-55487655I837345J-751317D01*
G01*
X39526319Y-55487655D01*
G75*
G02*
X39612347Y-57076317I-751317J-837345D01*
G01*
X38302345Y-58536317D01*
G75*
G02*
X36713683Y-58622345I-837345J751317D01*
G01*
G37*
G04 #@! TD.AperFunction*
X38775000Y-56325000D03*
G04 #@! TA.AperFunction,ComponentPad*
G36*
G01*
X43698483Y-37897395D02*
X43697597Y-37897334D01*
G75*
G02*
X42652666Y-36697597I77403J1122334D01*
G01*
X42692666Y-36117597D01*
G75*
G02*
X43892403Y-35072666I1122334J-77403D01*
G01*
X43892403Y-35072666D01*
G75*
G02*
X44937334Y-36272403I-77403J-1122334D01*
G01*
X44897334Y-36852403D01*
G75*
G02*
X43697597Y-37897334I-1122334J77403D01*
G01*
G37*
G04 #@! TD.AperFunction*
X43815000Y-36195000D03*
G04 #@! TA.AperFunction,ComponentPad*
G36*
G01*
X36713688Y-39572350D02*
X36713683Y-39572345D01*
G75*
G02*
X36627655Y-37983683I751317J837345D01*
G01*
X37937657Y-36523683D01*
G75*
G02*
X39526319Y-36437655I837345J-751317D01*
G01*
X39526319Y-36437655D01*
G75*
G02*
X39612347Y-38026317I-751317J-837345D01*
G01*
X38302345Y-39486317D01*
G75*
G02*
X36713683Y-39572345I-837345J751317D01*
G01*
G37*
G04 #@! TD.AperFunction*
X38775000Y-37275000D03*
G04 #@! TA.AperFunction,ComponentPad*
G36*
G01*
X43698483Y-18847395D02*
X43697597Y-18847334D01*
G75*
G02*
X42652666Y-17647597I77403J1122334D01*
G01*
X42692666Y-17067597D01*
G75*
G02*
X43892403Y-16022666I1122334J-77403D01*
G01*
X43892403Y-16022666D01*
G75*
G02*
X44937334Y-17222403I-77403J-1122334D01*
G01*
X44897334Y-17802403D01*
G75*
G02*
X43697597Y-18847334I-1122334J77403D01*
G01*
G37*
G04 #@! TD.AperFunction*
X43815000Y-17145000D03*
G04 #@! TA.AperFunction,ComponentPad*
G36*
G01*
X36713688Y-20522350D02*
X36713683Y-20522345D01*
G75*
G02*
X36627655Y-18933683I751317J837345D01*
G01*
X37937657Y-17473683D01*
G75*
G02*
X39526319Y-17387655I837345J-751317D01*
G01*
X39526319Y-17387655D01*
G75*
G02*
X39612347Y-18976317I-751317J-837345D01*
G01*
X38302345Y-20436317D01*
G75*
G02*
X36713683Y-20522345I-837345J751317D01*
G01*
G37*
G04 #@! TD.AperFunction*
X38775000Y-18225000D03*
G04 #@! TA.AperFunction,ComponentPad*
G36*
G01*
X24648483Y-75997395D02*
X24647597Y-75997334D01*
G75*
G02*
X23602666Y-74797597I77403J1122334D01*
G01*
X23642666Y-74217597D01*
G75*
G02*
X24842403Y-73172666I1122334J-77403D01*
G01*
X24842403Y-73172666D01*
G75*
G02*
X25887334Y-74372403I-77403J-1122334D01*
G01*
X25847334Y-74952403D01*
G75*
G02*
X24647597Y-75997334I-1122334J77403D01*
G01*
G37*
G04 #@! TD.AperFunction*
X24765000Y-74295000D03*
G04 #@! TA.AperFunction,ComponentPad*
G36*
G01*
X17663688Y-77672350D02*
X17663683Y-77672345D01*
G75*
G02*
X17577655Y-76083683I751317J837345D01*
G01*
X18887657Y-74623683D01*
G75*
G02*
X20476319Y-74537655I837345J-751317D01*
G01*
X20476319Y-74537655D01*
G75*
G02*
X20562347Y-76126317I-751317J-837345D01*
G01*
X19252345Y-77586317D01*
G75*
G02*
X17663683Y-77672345I-837345J751317D01*
G01*
G37*
G04 #@! TD.AperFunction*
X19725000Y-75375000D03*
G04 #@! TA.AperFunction,ComponentPad*
G36*
G01*
X24648483Y-56947395D02*
X24647597Y-56947334D01*
G75*
G02*
X23602666Y-55747597I77403J1122334D01*
G01*
X23642666Y-55167597D01*
G75*
G02*
X24842403Y-54122666I1122334J-77403D01*
G01*
X24842403Y-54122666D01*
G75*
G02*
X25887334Y-55322403I-77403J-1122334D01*
G01*
X25847334Y-55902403D01*
G75*
G02*
X24647597Y-56947334I-1122334J77403D01*
G01*
G37*
G04 #@! TD.AperFunction*
X24765000Y-55245000D03*
G04 #@! TA.AperFunction,ComponentPad*
G36*
G01*
X17663688Y-58622350D02*
X17663683Y-58622345D01*
G75*
G02*
X17577655Y-57033683I751317J837345D01*
G01*
X18887657Y-55573683D01*
G75*
G02*
X20476319Y-55487655I837345J-751317D01*
G01*
X20476319Y-55487655D01*
G75*
G02*
X20562347Y-57076317I-751317J-837345D01*
G01*
X19252345Y-58536317D01*
G75*
G02*
X17663683Y-58622345I-837345J751317D01*
G01*
G37*
G04 #@! TD.AperFunction*
X19725000Y-56325000D03*
G04 #@! TA.AperFunction,ComponentPad*
G36*
G01*
X24648483Y-37897395D02*
X24647597Y-37897334D01*
G75*
G02*
X23602666Y-36697597I77403J1122334D01*
G01*
X23642666Y-36117597D01*
G75*
G02*
X24842403Y-35072666I1122334J-77403D01*
G01*
X24842403Y-35072666D01*
G75*
G02*
X25887334Y-36272403I-77403J-1122334D01*
G01*
X25847334Y-36852403D01*
G75*
G02*
X24647597Y-37897334I-1122334J77403D01*
G01*
G37*
G04 #@! TD.AperFunction*
X24765000Y-36195000D03*
G04 #@! TA.AperFunction,ComponentPad*
G36*
G01*
X17663688Y-39572350D02*
X17663683Y-39572345D01*
G75*
G02*
X17577655Y-37983683I751317J837345D01*
G01*
X18887657Y-36523683D01*
G75*
G02*
X20476319Y-36437655I837345J-751317D01*
G01*
X20476319Y-36437655D01*
G75*
G02*
X20562347Y-38026317I-751317J-837345D01*
G01*
X19252345Y-39486317D01*
G75*
G02*
X17663683Y-39572345I-837345J751317D01*
G01*
G37*
G04 #@! TD.AperFunction*
X19725000Y-37275000D03*
G04 #@! TA.AperFunction,ComponentPad*
G36*
G01*
X24648483Y-18847395D02*
X24647597Y-18847334D01*
G75*
G02*
X23602666Y-17647597I77403J1122334D01*
G01*
X23642666Y-17067597D01*
G75*
G02*
X24842403Y-16022666I1122334J-77403D01*
G01*
X24842403Y-16022666D01*
G75*
G02*
X25887334Y-17222403I-77403J-1122334D01*
G01*
X25847334Y-17802403D01*
G75*
G02*
X24647597Y-18847334I-1122334J77403D01*
G01*
G37*
G04 #@! TD.AperFunction*
X24765000Y-17145000D03*
G04 #@! TA.AperFunction,ComponentPad*
G36*
G01*
X17663688Y-20522350D02*
X17663683Y-20522345D01*
G75*
G02*
X17577655Y-18933683I751317J837345D01*
G01*
X18887657Y-17473683D01*
G75*
G02*
X20476319Y-17387655I837345J-751317D01*
G01*
X20476319Y-17387655D01*
G75*
G02*
X20562347Y-18976317I-751317J-837345D01*
G01*
X19252345Y-20436317D01*
G75*
G02*
X17663683Y-20522345I-837345J751317D01*
G01*
G37*
G04 #@! TD.AperFunction*
X19725000Y-18225000D03*
D11*
X201612500Y-64225000D03*
D12*
X201612500Y-56425000D03*
D13*
X201612500Y-62825000D03*
D14*
X201612500Y-61725000D03*
X201612500Y-58925000D03*
D13*
X201612500Y-57825000D03*
D11*
X201612500Y-45175000D03*
D12*
X201612500Y-37375000D03*
D13*
X201612500Y-43775000D03*
D14*
X201612500Y-42675000D03*
X201612500Y-39875000D03*
D13*
X201612500Y-38775000D03*
D11*
X201612500Y-26125000D03*
D12*
X201612500Y-18325000D03*
D13*
X201612500Y-24725000D03*
D14*
X201612500Y-23625000D03*
X201612500Y-20825000D03*
D13*
X201612500Y-19725000D03*
D11*
X182562500Y-83275000D03*
D12*
X182562500Y-75475000D03*
D13*
X182562500Y-81875000D03*
D14*
X182562500Y-80775000D03*
X182562500Y-77975000D03*
D13*
X182562500Y-76875000D03*
D11*
X182562500Y-64225000D03*
D12*
X182562500Y-56425000D03*
D13*
X182562500Y-62825000D03*
D14*
X182562500Y-61725000D03*
X182562500Y-58925000D03*
D13*
X182562500Y-57825000D03*
D11*
X182562500Y-45175000D03*
D12*
X182562500Y-37375000D03*
D13*
X182562500Y-43775000D03*
D14*
X182562500Y-42675000D03*
X182562500Y-39875000D03*
D13*
X182562500Y-38775000D03*
D11*
X182562500Y-26125000D03*
D12*
X182562500Y-18325000D03*
D13*
X182562500Y-24725000D03*
D14*
X182562500Y-23625000D03*
X182562500Y-20825000D03*
D13*
X182562500Y-19725000D03*
D11*
X173037500Y-102325000D03*
D12*
X173037500Y-94525000D03*
D13*
X173037500Y-100925000D03*
D14*
X173037500Y-99825000D03*
X173037500Y-97025000D03*
D13*
X173037500Y-95925000D03*
D11*
X163512500Y-83275000D03*
D12*
X163512500Y-75475000D03*
D13*
X163512500Y-81875000D03*
D14*
X163512500Y-80775000D03*
X163512500Y-77975000D03*
D13*
X163512500Y-76875000D03*
D11*
X163512500Y-64225000D03*
D12*
X163512500Y-56425000D03*
D13*
X163512500Y-62825000D03*
D14*
X163512500Y-61725000D03*
X163512500Y-58925000D03*
D13*
X163512500Y-57825000D03*
D11*
X163512500Y-45175000D03*
D12*
X163512500Y-37375000D03*
D13*
X163512500Y-43775000D03*
D14*
X163512500Y-42675000D03*
X163512500Y-39875000D03*
D13*
X163512500Y-38775000D03*
D11*
X163512500Y-26125000D03*
D12*
X163512500Y-18325000D03*
D13*
X163512500Y-24725000D03*
D14*
X163512500Y-23625000D03*
X163512500Y-20825000D03*
D13*
X163512500Y-19725000D03*
D11*
X153987500Y-102325000D03*
D12*
X153987500Y-94525000D03*
D13*
X153987500Y-100925000D03*
D14*
X153987500Y-99825000D03*
X153987500Y-97025000D03*
D13*
X153987500Y-95925000D03*
D11*
X144462500Y-83275000D03*
D12*
X144462500Y-75475000D03*
D13*
X144462500Y-81875000D03*
D14*
X144462500Y-80775000D03*
X144462500Y-77975000D03*
D13*
X144462500Y-76875000D03*
D11*
X144462500Y-64225000D03*
D12*
X144462500Y-56425000D03*
D13*
X144462500Y-62825000D03*
D14*
X144462500Y-61725000D03*
X144462500Y-58925000D03*
D13*
X144462500Y-57825000D03*
D11*
X144462500Y-45175000D03*
D12*
X144462500Y-37375000D03*
D13*
X144462500Y-43775000D03*
D14*
X144462500Y-42675000D03*
X144462500Y-39875000D03*
D13*
X144462500Y-38775000D03*
D11*
X144462500Y-26125000D03*
D12*
X144462500Y-18325000D03*
D13*
X144462500Y-24725000D03*
D14*
X144462500Y-23625000D03*
X144462500Y-20825000D03*
D13*
X144462500Y-19725000D03*
D11*
X130175000Y-102325000D03*
D12*
X130175000Y-94525000D03*
D13*
X130175000Y-100925000D03*
D14*
X130175000Y-99825000D03*
X130175000Y-97025000D03*
D13*
X130175000Y-95925000D03*
D11*
X125412500Y-83275000D03*
D12*
X125412500Y-75475000D03*
D13*
X125412500Y-81875000D03*
D14*
X125412500Y-80775000D03*
X125412500Y-77975000D03*
D13*
X125412500Y-76875000D03*
D11*
X125412500Y-64225000D03*
D12*
X125412500Y-56425000D03*
D13*
X125412500Y-62825000D03*
D14*
X125412500Y-61725000D03*
X125412500Y-58925000D03*
D13*
X125412500Y-57825000D03*
D11*
X114368750Y-49212500D03*
D12*
X122168750Y-49212500D03*
D17*
X115768750Y-49212500D03*
D18*
X116868750Y-49212500D03*
X119668750Y-49212500D03*
D17*
X120768750Y-49212500D03*
D11*
X114368750Y-30162500D03*
D12*
X122168750Y-30162500D03*
D17*
X115768750Y-30162500D03*
D18*
X116868750Y-30162500D03*
X119668750Y-30162500D03*
D17*
X120768750Y-30162500D03*
D11*
X101600000Y-102325000D03*
D12*
X101600000Y-94525000D03*
D13*
X101600000Y-100925000D03*
D14*
X101600000Y-99825000D03*
X101600000Y-97025000D03*
D13*
X101600000Y-95925000D03*
D11*
X106362500Y-83275000D03*
D12*
X106362500Y-75475000D03*
D13*
X106362500Y-81875000D03*
D14*
X106362500Y-80775000D03*
X106362500Y-77975000D03*
D13*
X106362500Y-76875000D03*
D11*
X106362500Y-64225000D03*
D12*
X106362500Y-56425000D03*
D13*
X106362500Y-62825000D03*
D14*
X106362500Y-61725000D03*
X106362500Y-58925000D03*
D13*
X106362500Y-57825000D03*
D11*
X94525000Y-49212500D03*
D12*
X102325000Y-49212500D03*
D17*
X95925000Y-49212500D03*
D18*
X97025000Y-49212500D03*
X99825000Y-49212500D03*
D17*
X100925000Y-49212500D03*
D11*
X106362500Y-26125000D03*
D12*
X106362500Y-18325000D03*
D13*
X106362500Y-24725000D03*
D14*
X106362500Y-23625000D03*
X106362500Y-20825000D03*
D13*
X106362500Y-19725000D03*
D11*
X77787500Y-102325000D03*
D12*
X77787500Y-94525000D03*
D13*
X77787500Y-100925000D03*
D14*
X77787500Y-99825000D03*
X77787500Y-97025000D03*
D13*
X77787500Y-95925000D03*
D11*
X87312500Y-83275000D03*
D12*
X87312500Y-75475000D03*
D13*
X87312500Y-81875000D03*
D14*
X87312500Y-80775000D03*
X87312500Y-77975000D03*
D13*
X87312500Y-76875000D03*
D11*
X87312500Y-64225000D03*
D12*
X87312500Y-56425000D03*
D13*
X87312500Y-62825000D03*
D14*
X87312500Y-61725000D03*
X87312500Y-58925000D03*
D13*
X87312500Y-57825000D03*
D11*
X87312500Y-45175000D03*
D12*
X87312500Y-37375000D03*
D13*
X87312500Y-43775000D03*
D14*
X87312500Y-42675000D03*
X87312500Y-39875000D03*
D13*
X87312500Y-38775000D03*
D11*
X87312500Y-26125000D03*
D12*
X87312500Y-18325000D03*
D13*
X87312500Y-24725000D03*
D14*
X87312500Y-23625000D03*
X87312500Y-20825000D03*
D13*
X87312500Y-19725000D03*
D11*
X58737500Y-102325000D03*
D12*
X58737500Y-94525000D03*
D13*
X58737500Y-100925000D03*
D14*
X58737500Y-99825000D03*
X58737500Y-97025000D03*
D13*
X58737500Y-95925000D03*
D11*
X68262500Y-83275000D03*
D12*
X68262500Y-75475000D03*
D13*
X68262500Y-81875000D03*
D14*
X68262500Y-80775000D03*
X68262500Y-77975000D03*
D13*
X68262500Y-76875000D03*
D11*
X68262500Y-64225000D03*
D12*
X68262500Y-56425000D03*
D13*
X68262500Y-62825000D03*
D14*
X68262500Y-61725000D03*
X68262500Y-58925000D03*
D13*
X68262500Y-57825000D03*
D11*
X68262500Y-45175000D03*
D12*
X68262500Y-37375000D03*
D13*
X68262500Y-43775000D03*
D14*
X68262500Y-42675000D03*
X68262500Y-39875000D03*
D13*
X68262500Y-38775000D03*
D11*
X68262500Y-26125000D03*
D12*
X68262500Y-18325000D03*
D13*
X68262500Y-24725000D03*
D14*
X68262500Y-23625000D03*
X68262500Y-20825000D03*
D13*
X68262500Y-19725000D03*
D11*
X49212500Y-83275000D03*
D12*
X49212500Y-75475000D03*
D13*
X49212500Y-81875000D03*
D14*
X49212500Y-80775000D03*
X49212500Y-77975000D03*
D13*
X49212500Y-76875000D03*
D11*
X49212500Y-64225000D03*
D12*
X49212500Y-56425000D03*
D13*
X49212500Y-62825000D03*
D14*
X49212500Y-61725000D03*
X49212500Y-58925000D03*
D13*
X49212500Y-57825000D03*
D11*
X49212500Y-45175000D03*
D12*
X49212500Y-37375000D03*
D13*
X49212500Y-43775000D03*
D14*
X49212500Y-42675000D03*
X49212500Y-39875000D03*
D13*
X49212500Y-38775000D03*
D11*
X49212500Y-26125000D03*
D12*
X49212500Y-18325000D03*
D13*
X49212500Y-24725000D03*
D14*
X49212500Y-23625000D03*
X49212500Y-20825000D03*
D13*
X49212500Y-19725000D03*
D11*
X30162500Y-83275000D03*
D12*
X30162500Y-75475000D03*
D13*
X30162500Y-81875000D03*
D14*
X30162500Y-80775000D03*
X30162500Y-77975000D03*
D13*
X30162500Y-76875000D03*
D11*
X30162500Y-64225000D03*
D12*
X30162500Y-56425000D03*
D13*
X30162500Y-62825000D03*
D14*
X30162500Y-61725000D03*
X30162500Y-58925000D03*
D13*
X30162500Y-57825000D03*
D11*
X30162500Y-45175000D03*
D12*
X30162500Y-37375000D03*
D13*
X30162500Y-43775000D03*
D14*
X30162500Y-42675000D03*
X30162500Y-39875000D03*
D13*
X30162500Y-38775000D03*
D11*
X30162500Y-26125000D03*
D12*
X30162500Y-18325000D03*
D13*
X30162500Y-24725000D03*
D14*
X30162500Y-23625000D03*
X30162500Y-20825000D03*
D13*
X30162500Y-19725000D03*
D19*
X29562500Y-17725000D02*
X30162500Y-18325000D01*
X24725000Y-17725000D02*
X29562500Y-17725000D01*
X30162500Y-26125000D02*
X106362500Y-26125000D01*
X144462500Y-26125000D02*
X201612500Y-26125000D01*
X108605150Y-26125000D02*
X109626400Y-27146250D01*
X106362500Y-26125000D02*
X108605150Y-26125000D01*
X114368750Y-30162500D02*
X114368750Y-30093750D01*
X142104551Y-28482949D02*
X144462500Y-26125000D01*
X115979551Y-28482949D02*
X142104551Y-28482949D01*
X114368750Y-30093750D02*
X115979551Y-28482949D01*
X112642650Y-30162500D02*
X109626400Y-27146250D01*
X114368750Y-30162500D02*
X112642650Y-30162500D01*
X29562500Y-36775000D02*
X30162500Y-37375000D01*
X24725000Y-36775000D02*
X29562500Y-36775000D01*
X144462500Y-45175000D02*
X201612500Y-45175000D01*
X114368750Y-48158500D02*
X114902250Y-47625000D01*
X114368750Y-49212500D02*
X114368750Y-48158500D01*
X142012500Y-47625000D02*
X144462500Y-45175000D01*
X114902250Y-47625000D02*
X142012500Y-47625000D01*
X30162500Y-45175000D02*
X87312500Y-45175000D01*
X91350000Y-49212500D02*
X87312500Y-45175000D01*
X94525000Y-49212500D02*
X91350000Y-49212500D01*
X94525000Y-49212500D02*
X94551500Y-49212500D01*
X94551500Y-49212500D02*
X96139000Y-47625000D01*
X112781250Y-47625000D02*
X114368750Y-49212500D01*
X96139000Y-47625000D02*
X112781250Y-47625000D01*
X87312500Y-45175000D02*
X87312500Y-45148500D01*
X112781250Y-47623900D02*
X110083600Y-44926250D01*
X112781250Y-47625000D02*
X112781250Y-47623900D01*
X29562500Y-55825000D02*
X30162500Y-56425000D01*
X24725000Y-55825000D02*
X29562500Y-55825000D01*
X201612500Y-64225000D02*
X30162500Y-64225000D01*
X29562500Y-74875000D02*
X30162500Y-75475000D01*
X24725000Y-74875000D02*
X29562500Y-74875000D01*
X201612500Y-83275000D02*
X30162500Y-83275000D01*
X48612500Y-17725000D02*
X49212500Y-18325000D01*
X43775000Y-17725000D02*
X48612500Y-17725000D01*
X48612500Y-36775000D02*
X49212500Y-37375000D01*
X43775000Y-36775000D02*
X48612500Y-36775000D01*
X48612500Y-55825000D02*
X49212500Y-56425000D01*
X43775000Y-55825000D02*
X48612500Y-55825000D01*
X48612500Y-74875000D02*
X49212500Y-75475000D01*
X43775000Y-74875000D02*
X48612500Y-74875000D01*
X67662500Y-17725000D02*
X68262500Y-18325000D01*
X62825000Y-17725000D02*
X67662500Y-17725000D01*
X67662500Y-36775000D02*
X68262500Y-37375000D01*
X62825000Y-36775000D02*
X67662500Y-36775000D01*
X67662500Y-55825000D02*
X68262500Y-56425000D01*
X62825000Y-55825000D02*
X67662500Y-55825000D01*
X67662500Y-74875000D02*
X68262500Y-75475000D01*
X62825000Y-74875000D02*
X67662500Y-74875000D01*
X58137500Y-93925000D02*
X58737500Y-94525000D01*
X53300000Y-93925000D02*
X58137500Y-93925000D01*
X173037500Y-102325000D02*
X58737500Y-102325000D01*
X86712500Y-17725000D02*
X87312500Y-18325000D01*
X81875000Y-17725000D02*
X86712500Y-17725000D01*
X86712500Y-36775000D02*
X87312500Y-37375000D01*
X81875000Y-36775000D02*
X86712500Y-36775000D01*
X86712500Y-55825000D02*
X87312500Y-56425000D01*
X81875000Y-55825000D02*
X86712500Y-55825000D01*
X86712500Y-74875000D02*
X87312500Y-75475000D01*
X81875000Y-74875000D02*
X86712500Y-74875000D01*
X77187500Y-93925000D02*
X77787500Y-94525000D01*
X72350000Y-93925000D02*
X77187500Y-93925000D01*
X105762500Y-17725000D02*
X106362500Y-18325000D01*
X100925000Y-17725000D02*
X105762500Y-17725000D01*
X105762500Y-55825000D02*
X106362500Y-56425000D01*
X100925000Y-55825000D02*
X105762500Y-55825000D01*
X105762500Y-74875000D02*
X106362500Y-75475000D01*
X100925000Y-74875000D02*
X105762500Y-74875000D01*
X101000000Y-93925000D02*
X101600000Y-94525000D01*
X96162500Y-93925000D02*
X101000000Y-93925000D01*
X124812500Y-55825000D02*
X125412500Y-56425000D01*
X119975000Y-55825000D02*
X124812500Y-55825000D01*
X124812500Y-74875000D02*
X125412500Y-75475000D01*
X119975000Y-74875000D02*
X124812500Y-74875000D01*
X129575000Y-93925000D02*
X130175000Y-94525000D01*
X124737500Y-93925000D02*
X129575000Y-93925000D01*
X143862500Y-17725000D02*
X144462500Y-18325000D01*
X139025000Y-17725000D02*
X143862500Y-17725000D01*
X143862500Y-36775000D02*
X144462500Y-37375000D01*
X139025000Y-36775000D02*
X143862500Y-36775000D01*
X143862500Y-55825000D02*
X144462500Y-56425000D01*
X139025000Y-55825000D02*
X143862500Y-55825000D01*
X143862500Y-74875000D02*
X144462500Y-75475000D01*
X139025000Y-74875000D02*
X143862500Y-74875000D01*
X153387500Y-93925000D02*
X153987500Y-94525000D01*
X148550000Y-93925000D02*
X153387500Y-93925000D01*
X162912500Y-17725000D02*
X163512500Y-18325000D01*
X158075000Y-17725000D02*
X162912500Y-17725000D01*
X162912500Y-36775000D02*
X163512500Y-37375000D01*
X158075000Y-36775000D02*
X162912500Y-36775000D01*
X162912500Y-55825000D02*
X163512500Y-56425000D01*
X158075000Y-55825000D02*
X162912500Y-55825000D01*
X162912500Y-74875000D02*
X163512500Y-75475000D01*
X158075000Y-74875000D02*
X162912500Y-74875000D01*
X172437500Y-93925000D02*
X173037500Y-94525000D01*
X167600000Y-93925000D02*
X172437500Y-93925000D01*
X181962500Y-17725000D02*
X182562500Y-18325000D01*
X177125000Y-17725000D02*
X181962500Y-17725000D01*
X181962500Y-36775000D02*
X182562500Y-37375000D01*
X177125000Y-36775000D02*
X181962500Y-36775000D01*
X181962500Y-55825000D02*
X182562500Y-56425000D01*
X177125000Y-55825000D02*
X181962500Y-55825000D01*
X181962500Y-74875000D02*
X182562500Y-75475000D01*
X177125000Y-74875000D02*
X181962500Y-74875000D01*
X201012500Y-17725000D02*
X201612500Y-18325000D01*
X196175000Y-17725000D02*
X201012500Y-17725000D01*
X201012500Y-36775000D02*
X201612500Y-37375000D01*
X196175000Y-36775000D02*
X201012500Y-36775000D01*
X201012500Y-55825000D02*
X201612500Y-56425000D01*
X196175000Y-55825000D02*
X201012500Y-55825000D01*
X201012500Y-74875000D02*
X201612500Y-75475000D01*
X196175000Y-74875000D02*
X201012500Y-74875000D01*
X109099350Y-28702000D02*
X110083600Y-29686250D01*
X28448000Y-28702000D02*
X109099350Y-28702000D01*
X18415000Y-38735000D02*
X28448000Y-28702000D01*
X106556160Y-29156010D02*
X109626400Y-32226250D01*
X47043990Y-29156010D02*
X106556160Y-29156010D01*
X37465000Y-38735000D02*
X47043990Y-29156010D01*
X104927370Y-29610020D02*
X110083600Y-34766250D01*
X65639980Y-29610020D02*
X104927370Y-29610020D01*
X56515000Y-38735000D02*
X65639980Y-29610020D01*
X102384180Y-30064030D02*
X109626400Y-37306250D01*
X84235970Y-30064030D02*
X102384180Y-30064030D01*
X75565000Y-38735000D02*
X84235970Y-30064030D01*
X108972350Y-38735000D02*
X110083600Y-39846250D01*
X94615000Y-38735000D02*
X108972350Y-38735000D01*
X123894850Y-38735000D02*
X125323600Y-37306250D01*
X113665000Y-38735000D02*
X123894850Y-38735000D01*
X124889651Y-34742999D02*
X124866400Y-34766250D01*
X128835150Y-38735000D02*
X124866400Y-34766250D01*
X132715000Y-38735000D02*
X128835150Y-38735000D01*
X151765000Y-38735000D02*
X147772999Y-34742999D01*
X145256250Y-32226250D02*
X147772999Y-34742999D01*
X125323600Y-32226250D02*
X145256250Y-32226250D01*
X170815000Y-38735000D02*
X164306250Y-32226250D01*
X124866400Y-29686250D02*
X161766250Y-29686250D01*
X161766250Y-29686250D02*
X164306250Y-32226250D01*
X129159000Y-23310850D02*
X125323600Y-27146250D01*
X129159000Y-20193000D02*
X129159000Y-23310850D01*
X133985000Y-15367000D02*
X129159000Y-20193000D01*
X185547000Y-15367000D02*
X133985000Y-15367000D01*
X189865000Y-19685000D02*
X185547000Y-15367000D01*
X122237500Y-16668750D02*
X122237500Y-18980150D01*
X120650000Y-15081250D02*
X122237500Y-16668750D01*
X114528600Y-15081250D02*
X120650000Y-15081250D01*
X110083600Y-19526250D02*
X114528600Y-15081250D01*
X122237500Y-18980150D02*
X125323600Y-22066250D01*
M02*
