M48
; DRILL file {KiCad (5.1.12)-1} date 01/06/22 16:35:49
; FORMAT={-:-/ absolute / inch / decimal}
; #@! TF.CreationDate,2022-01-06T16:35:49-05:00
; #@! TF.GenerationSoftware,Kicad,Pcbnew,(5.1.12)-1
; #@! TF.FileFunction,Plated,1,2,PTH
FMAT,2
INCH
T1C0.0157
T2C0.0236
T3C0.0394
T4C0.0430
T5C0.0579
%
G90
G05
T1
X5.0312Y-4.375
X5.0885Y-2.3177
X5.0938Y-3.0938
X5.125Y-1.5625
X5.2Y-1.1538
X5.275Y-1.685
X5.485Y-1.1538
X5.53Y-1.685
X5.5312Y-1.375
X5.5312Y-2.125
X5.5312Y-2.875
X5.945Y-3.565
X5.945Y-3.925
X5.9688Y-4.375
X6.7188Y-4.375
X6.7812Y-1.375
X6.7812Y-2.125
X6.7812Y-2.875
X6.7812Y-3.6136
X6.945Y-4.37
X7.0292Y-3.9321
X7.0294Y-3.8918
X7.0299Y-3.8518
X7.0312Y-3.8125
X7.145Y-3.75
X7.22Y-4.35
X7.29Y-3.71
X7.37Y-3.75
X7.595Y-3.655
X7.745Y-4.515
X7.785Y-3.755
X7.835Y-3.69
X7.905Y-3.755
T3
X7.9937Y-4.4188
X7.9937Y-4.5187
X8.0938Y-4.4188
X8.0938Y-4.5187
X8.1937Y-4.4188
X8.1937Y-4.5187
T4
X4.6276Y-1.06
X4.6276Y-1.14
X4.6276Y-1.22
X4.6276Y-1.3
X4.6276Y-1.38
X4.6276Y-4.06
X4.6276Y-4.14
X4.6276Y-4.22
X4.6276Y-4.3
X4.6276Y-4.38
T5
X4.8187Y-1.1187
X4.8187Y-1.8687
X4.8187Y-2.6187
X4.8187Y-3.3687
X4.8703Y-1.0613
X4.8703Y-1.8113
X4.8703Y-2.5613
X4.8703Y-3.3113
X5.0062Y-4.1187
X5.0578Y-4.0613
X5.0672Y-1.0416
X5.0672Y-1.7916
X5.0672Y-2.5416
X5.0672Y-3.2916
X5.0687Y-1.0188
X5.0687Y-1.7688
X5.0687Y-2.5187
X5.0687Y-3.2687
X5.2547Y-4.0416
X5.2562Y-4.0187
X5.5687Y-1.1187
X5.5687Y-1.8687
X5.5687Y-2.6187
X5.5687Y-3.3687
X5.6203Y-1.0613
X5.6203Y-1.8113
X5.6203Y-2.5613
X5.6203Y-3.3113
X5.8172Y-1.0416
X5.8172Y-1.7916
X5.8172Y-2.5416
X5.8172Y-3.2916
X5.8187Y-1.0188
X5.8187Y-1.7688
X5.8187Y-2.5187
X5.8187Y-3.2687
X5.9437Y-4.1187
X5.9953Y-4.0613
X6.1922Y-4.0416
X6.1937Y-4.0187
X6.3187Y-1.1187
X6.3187Y-1.8687
X6.3187Y-2.6187
X6.3187Y-3.3687
X6.3703Y-1.0613
X6.3703Y-1.8113
X6.3703Y-2.5613
X6.3703Y-3.3113
X6.5672Y-1.0416
X6.5672Y-1.7916
X6.5672Y-2.5416
X6.5672Y-3.2916
X6.5687Y-1.0188
X6.5687Y-1.7688
X6.5687Y-2.5187
X6.5687Y-3.2687
X6.6937Y-4.1187
X6.7453Y-4.0613
X6.9422Y-4.0416
X6.9437Y-4.0187
X7.0687Y-1.1187
X7.0687Y-1.8687
X7.0687Y-2.6187
X7.0687Y-3.3687
X7.1203Y-1.0613
X7.1203Y-1.8113
X7.1203Y-2.5613
X7.1203Y-3.3113
X7.3172Y-1.0416
X7.3172Y-1.7916
X7.3172Y-2.5416
X7.3172Y-3.2916
X7.3187Y-1.0188
X7.3187Y-1.7688
X7.3187Y-2.5187
X7.3187Y-3.2687
X7.8187Y-1.1187
X7.8187Y-1.8687
X7.8187Y-2.6187
X7.8187Y-3.3687
X7.8703Y-1.0613
X7.8703Y-1.8113
X7.8703Y-2.5613
X7.8703Y-3.3113
X8.0672Y-1.0416
X8.0672Y-1.7916
X8.0672Y-2.5416
X8.0672Y-3.2916
X8.0687Y-1.0188
X8.0687Y-1.7688
X8.0687Y-2.5187
X8.0687Y-3.2687
T2
G00X5.1737Y-0.7924
M15
G01X5.1737Y-0.816
M16
G05
G00X5.1737Y-0.9471
M15
G01X5.1737Y-0.9904
M16
G05
G00X5.5138Y-0.7924
M15
G01X5.5138Y-0.816
M16
G05
G00X5.5138Y-0.9471
M15
G01X5.5138Y-0.9904
M16
G05
T0
M30
