M48
; DRILL file {KiCad (5.1.12)-1} date 12/29/21 23:43:25
; FORMAT={-:-/ absolute / inch / decimal}
; #@! TF.CreationDate,2021-12-29T23:43:25-05:00
; #@! TF.GenerationSoftware,Kicad,Pcbnew,(5.1.12)-1
; #@! TF.FileFunction,Plated,1,2,PTH
FMAT,2
INCH
T1C0.0157
T2C0.0276
T3C0.0579
%
G90
G05
T1
X2.6Y-4.1
X3.54Y-4.1
X4.665Y-4.1
X5.6Y-4.1
X6.35Y-4.1
X6.525Y-2.505
X6.5607Y-1.7707
X6.5907Y-1.0107
X7.025Y-3.79
X7.0341Y-3.8334
X7.055Y-3.87
X7.085Y-3.9
X7.24Y-3.39
X7.2856Y-3.39
X7.325Y-3.39
X7.37Y-3.39
X7.435Y-1.0963
X7.435Y-1.1356
X7.435Y-1.175
X7.435Y-1.24
X7.4711Y-4.1898
X7.525Y-4.195
X7.56Y-3.5761
T3
X0.725Y-0.775
X0.725Y-1.525
X0.725Y-2.275
X0.725Y-3.025
X0.7766Y-0.7175
X0.7766Y-1.4675
X0.7766Y-2.2175
X0.7766Y-2.9675
X0.9734Y-0.6978
X0.9734Y-1.4478
X0.9734Y-2.1978
X0.9734Y-2.9478
X0.975Y-0.675
X0.975Y-1.425
X0.975Y-2.175
X0.975Y-2.925
X1.475Y-0.775
X1.475Y-1.525
X1.475Y-2.275
X1.475Y-3.025
X1.5266Y-0.7175
X1.5266Y-1.4675
X1.5266Y-2.2175
X1.5266Y-2.9675
X1.7234Y-0.6978
X1.7234Y-1.4478
X1.7234Y-2.1978
X1.7234Y-2.9478
X1.725Y-0.675
X1.725Y-1.425
X1.725Y-2.175
X1.725Y-2.925
X1.85Y-3.775
X1.9016Y-3.7175
X2.0984Y-3.6978
X2.1Y-3.675
X2.225Y-0.775
X2.225Y-1.525
X2.225Y-2.275
X2.225Y-3.025
X2.2766Y-0.7175
X2.2766Y-1.4675
X2.2766Y-2.2175
X2.2766Y-2.9675
X2.4734Y-0.6978
X2.4734Y-1.4478
X2.4734Y-2.1978
X2.4734Y-2.9478
X2.475Y-0.675
X2.475Y-1.425
X2.475Y-2.175
X2.475Y-2.925
X2.6Y-3.775
X2.6516Y-3.7175
X2.8484Y-3.6978
X2.85Y-3.675
X2.975Y-0.775
X2.975Y-1.525
X2.975Y-2.275
X2.975Y-3.025
X3.0266Y-0.7175
X3.0266Y-1.4675
X3.0266Y-2.2175
X3.0266Y-2.9675
X3.2234Y-0.6978
X3.2234Y-1.4478
X3.2234Y-2.1978
X3.2234Y-2.9478
X3.225Y-0.675
X3.225Y-1.425
X3.225Y-2.175
X3.225Y-2.925
X3.5375Y-3.775
X3.5891Y-3.7175
X3.725Y-0.775
X3.725Y-1.525
X3.725Y-2.275
X3.725Y-3.025
X3.7766Y-0.7175
X3.7766Y-1.4675
X3.7766Y-2.2175
X3.7766Y-2.9675
X3.7859Y-3.6978
X3.7875Y-3.675
X3.9734Y-0.6978
X3.9734Y-1.4478
X3.9734Y-2.1978
X3.9734Y-2.9478
X3.975Y-0.675
X3.975Y-1.425
X3.975Y-2.175
X3.975Y-2.925
X4.475Y-0.775
X4.475Y-1.525
X4.475Y-2.275
X4.475Y-3.025
X4.5266Y-0.7175
X4.5266Y-1.4675
X4.5266Y-2.2175
X4.5266Y-2.9675
X4.6625Y-3.775
X4.7141Y-3.7175
X4.7234Y-0.6978
X4.7234Y-1.4478
X4.7234Y-2.1978
X4.7234Y-2.9478
X4.725Y-0.675
X4.725Y-1.425
X4.725Y-2.175
X4.725Y-2.925
X4.9109Y-3.6978
X4.9125Y-3.675
X5.225Y-0.775
X5.225Y-1.525
X5.225Y-2.275
X5.225Y-3.025
X5.2766Y-0.7175
X5.2766Y-1.4675
X5.2766Y-2.2175
X5.2766Y-2.9675
X5.4734Y-0.6978
X5.4734Y-1.4478
X5.4734Y-2.1978
X5.4734Y-2.9478
X5.475Y-0.675
X5.475Y-1.425
X5.475Y-2.175
X5.475Y-2.925
X5.6Y-3.775
X5.6516Y-3.7175
X5.8484Y-3.6978
X5.85Y-3.675
X5.975Y-0.775
X5.975Y-1.525
X5.975Y-2.275
X5.975Y-3.025
X6.0266Y-0.7175
X6.0266Y-1.4675
X6.0266Y-2.2175
X6.0266Y-2.9675
X6.2234Y-0.6978
X6.2234Y-1.4478
X6.2234Y-2.1978
X6.2234Y-2.9478
X6.225Y-0.675
X6.225Y-1.425
X6.225Y-2.175
X6.225Y-2.925
X6.35Y-3.775
X6.4016Y-3.7175
X6.5984Y-3.6978
X6.6Y-3.675
X6.725Y-0.775
X6.725Y-1.525
X6.725Y-2.275
X6.725Y-3.025
X6.7766Y-0.7175
X6.7766Y-1.4675
X6.7766Y-2.2175
X6.7766Y-2.9675
X6.9734Y-0.6978
X6.9734Y-1.4478
X6.9734Y-2.1978
X6.9734Y-2.9478
X6.975Y-0.675
X6.975Y-1.425
X6.975Y-2.175
X6.975Y-2.925
X7.475Y-0.775
X7.475Y-1.525
X7.475Y-2.275
X7.475Y-3.025
X7.5266Y-0.7175
X7.5266Y-1.4675
X7.5266Y-2.2175
X7.5266Y-2.9675
X7.7234Y-0.6978
X7.7234Y-1.4478
X7.7234Y-2.1978
X7.7234Y-2.9478
X7.725Y-0.675
X7.725Y-1.425
X7.725Y-2.175
X7.725Y-2.925
T2
G00X7.7836Y-1.0326
M15
G01X7.7364Y-1.0326
M16
G05
G00X7.7836Y-1.32
M15
G01X7.7364Y-1.32
M16
G05
G00X7.9608Y-1.0326
M15
G01X7.9135Y-1.0326
M16
G05
G00X7.9608Y-1.32
M15
G01X7.9135Y-1.32
M16
G05
T0
M30
