%TF.GenerationSoftware,KiCad,Pcbnew,(5.1.12)-1*%
%TF.CreationDate,2022-01-03T12:53:36-05:00*%
%TF.ProjectId,my-keeb,6d792d6b-6565-4622-9e6b-696361645f70,rev?*%
%TF.SameCoordinates,Original*%
%TF.FileFunction,Soldermask,Bot*%
%TF.FilePolarity,Negative*%
%FSLAX46Y46*%
G04 Gerber Fmt 4.6, Leading zero omitted, Abs format (unit mm)*
G04 Created by KiCad (PCBNEW (5.1.12)-1) date 2022-01-03 12:53:36*
%MOMM*%
%LPD*%
G01*
G04 APERTURE LIST*
%ADD10R,0.900000X1.200000*%
%ADD11C,1.750000*%
%ADD12C,2.250000*%
%ADD13C,3.987800*%
%ADD14R,1.200000X1.400000*%
%ADD15O,1.700000X2.700000*%
%ADD16R,0.500000X2.250000*%
%ADD17R,1.500000X0.550000*%
%ADD18R,0.550000X1.500000*%
%ADD19R,1.800000X1.100000*%
%ADD20R,1.200000X0.900000*%
G04 APERTURE END LIST*
D10*
%TO.C,D19*%
X100075000Y-30162500D03*
X96775000Y-30162500D03*
%TD*%
D11*
%TO.C,MX43*%
X198755000Y-22225000D03*
X188595000Y-22225000D03*
D12*
X191175000Y-18225000D03*
D13*
X193675000Y-22225000D03*
G36*
G01*
X189113688Y-20522350D02*
X189113683Y-20522345D01*
G75*
G02*
X189027655Y-18933683I751317J837345D01*
G01*
X190337657Y-17473683D01*
G75*
G02*
X191926319Y-17387655I837345J-751317D01*
G01*
X191926319Y-17387655D01*
G75*
G02*
X192012347Y-18976317I-751317J-837345D01*
G01*
X190702345Y-20436317D01*
G75*
G02*
X189113683Y-20522345I-837345J751317D01*
G01*
G37*
D12*
X196215000Y-17145000D03*
G36*
G01*
X196098483Y-18847395D02*
X196097597Y-18847334D01*
G75*
G02*
X195052666Y-17647597I77403J1122334D01*
G01*
X195092666Y-17067597D01*
G75*
G02*
X196292403Y-16022666I1122334J-77403D01*
G01*
X196292403Y-16022666D01*
G75*
G02*
X197337334Y-17222403I-77403J-1122334D01*
G01*
X197297334Y-17802403D01*
G75*
G02*
X196097597Y-18847334I-1122334J77403D01*
G01*
G37*
%TD*%
%TO.C,R2*%
G36*
G01*
X189111352Y-88309500D02*
X188211348Y-88309500D01*
G75*
G02*
X187961350Y-88059502I0J249998D01*
G01*
X187961350Y-87534498D01*
G75*
G02*
X188211348Y-87284500I249998J0D01*
G01*
X189111352Y-87284500D01*
G75*
G02*
X189361350Y-87534498I0J-249998D01*
G01*
X189361350Y-88059502D01*
G75*
G02*
X189111352Y-88309500I-249998J0D01*
G01*
G37*
G36*
G01*
X189111352Y-90134500D02*
X188211348Y-90134500D01*
G75*
G02*
X187961350Y-89884502I0J249998D01*
G01*
X187961350Y-89359498D01*
G75*
G02*
X188211348Y-89109500I249998J0D01*
G01*
X189111352Y-89109500D01*
G75*
G02*
X189361350Y-89359498I0J-249998D01*
G01*
X189361350Y-89884502D01*
G75*
G02*
X189111352Y-90134500I-249998J0D01*
G01*
G37*
%TD*%
D14*
%TO.C,Y1*%
X200367000Y-100287000D03*
X200367000Y-98087000D03*
X198667000Y-98087000D03*
X198667000Y-100287000D03*
%TD*%
D15*
%TO.C,USB1*%
X104300000Y-9271000D03*
X111600000Y-9271000D03*
X111600000Y-13771000D03*
X104300000Y-13771000D03*
D16*
X106350000Y-13771000D03*
X107150000Y-13771000D03*
X107950000Y-13771000D03*
X108750000Y-13771000D03*
X109550000Y-13771000D03*
%TD*%
D17*
%TO.C,U1*%
X183942750Y-94202750D03*
X183942750Y-95002750D03*
X183942750Y-95802750D03*
X183942750Y-96602750D03*
X183942750Y-97402750D03*
X183942750Y-98202750D03*
X183942750Y-99002750D03*
X183942750Y-99802750D03*
X183942750Y-100602750D03*
X183942750Y-101402750D03*
X183942750Y-102202750D03*
D18*
X185642750Y-103902750D03*
X186442750Y-103902750D03*
X187242750Y-103902750D03*
X188042750Y-103902750D03*
X188842750Y-103902750D03*
X189642750Y-103902750D03*
X190442750Y-103902750D03*
X191242750Y-103902750D03*
X192042750Y-103902750D03*
X192842750Y-103902750D03*
X193642750Y-103902750D03*
D17*
X195342750Y-102202750D03*
X195342750Y-101402750D03*
X195342750Y-100602750D03*
X195342750Y-99802750D03*
X195342750Y-99002750D03*
X195342750Y-98202750D03*
X195342750Y-97402750D03*
X195342750Y-96602750D03*
X195342750Y-95802750D03*
X195342750Y-95002750D03*
X195342750Y-94202750D03*
D18*
X193642750Y-92502750D03*
X192842750Y-92502750D03*
X192042750Y-92502750D03*
X191242750Y-92502750D03*
X190442750Y-92502750D03*
X189642750Y-92502750D03*
X188842750Y-92502750D03*
X188042750Y-92502750D03*
X187242750Y-92502750D03*
X186442750Y-92502750D03*
X185642750Y-92502750D03*
%TD*%
D19*
%TO.C,SW1*%
X194766000Y-84129000D03*
X200966000Y-87829000D03*
X194766000Y-87829000D03*
X200966000Y-84129000D03*
%TD*%
%TO.C,R4*%
G36*
G01*
X177730998Y-103524000D02*
X178631002Y-103524000D01*
G75*
G02*
X178881000Y-103773998I0J-249998D01*
G01*
X178881000Y-104299002D01*
G75*
G02*
X178631002Y-104549000I-249998J0D01*
G01*
X177730998Y-104549000D01*
G75*
G02*
X177481000Y-104299002I0J249998D01*
G01*
X177481000Y-103773998D01*
G75*
G02*
X177730998Y-103524000I249998J0D01*
G01*
G37*
G36*
G01*
X177730998Y-101699000D02*
X178631002Y-101699000D01*
G75*
G02*
X178881000Y-101948998I0J-249998D01*
G01*
X178881000Y-102474002D01*
G75*
G02*
X178631002Y-102724000I-249998J0D01*
G01*
X177730998Y-102724000D01*
G75*
G02*
X177481000Y-102474002I0J249998D01*
G01*
X177481000Y-101948998D01*
G75*
G02*
X177730998Y-101699000I249998J0D01*
G01*
G37*
%TD*%
%TO.C,R3*%
G36*
G01*
X195091000Y-90493002D02*
X195091000Y-89592998D01*
G75*
G02*
X195340998Y-89343000I249998J0D01*
G01*
X195866002Y-89343000D01*
G75*
G02*
X196116000Y-89592998I0J-249998D01*
G01*
X196116000Y-90493002D01*
G75*
G02*
X195866002Y-90743000I-249998J0D01*
G01*
X195340998Y-90743000D01*
G75*
G02*
X195091000Y-90493002I0J249998D01*
G01*
G37*
G36*
G01*
X193266000Y-90493002D02*
X193266000Y-89592998D01*
G75*
G02*
X193515998Y-89343000I249998J0D01*
G01*
X194041002Y-89343000D01*
G75*
G02*
X194291000Y-89592998I0J-249998D01*
G01*
X194291000Y-90493002D01*
G75*
G02*
X194041002Y-90743000I-249998J0D01*
G01*
X193515998Y-90743000D01*
G75*
G02*
X193266000Y-90493002I0J249998D01*
G01*
G37*
%TD*%
%TO.C,R1*%
G36*
G01*
X187079352Y-88309500D02*
X186179348Y-88309500D01*
G75*
G02*
X185929350Y-88059502I0J249998D01*
G01*
X185929350Y-87534498D01*
G75*
G02*
X186179348Y-87284500I249998J0D01*
G01*
X187079352Y-87284500D01*
G75*
G02*
X187329350Y-87534498I0J-249998D01*
G01*
X187329350Y-88059502D01*
G75*
G02*
X187079352Y-88309500I-249998J0D01*
G01*
G37*
G36*
G01*
X187079352Y-90134500D02*
X186179348Y-90134500D01*
G75*
G02*
X185929350Y-89884502I0J249998D01*
G01*
X185929350Y-89359498D01*
G75*
G02*
X186179348Y-89109500I249998J0D01*
G01*
X187079352Y-89109500D01*
G75*
G02*
X187329350Y-89359498I0J-249998D01*
G01*
X187329350Y-89884502D01*
G75*
G02*
X187079352Y-90134500I-249998J0D01*
G01*
G37*
%TD*%
D11*
%TO.C,MX46*%
X198755000Y-79375000D03*
X188595000Y-79375000D03*
D12*
X191175000Y-75375000D03*
D13*
X193675000Y-79375000D03*
G36*
G01*
X189113688Y-77672350D02*
X189113683Y-77672345D01*
G75*
G02*
X189027655Y-76083683I751317J837345D01*
G01*
X190337657Y-74623683D01*
G75*
G02*
X191926319Y-74537655I837345J-751317D01*
G01*
X191926319Y-74537655D01*
G75*
G02*
X192012347Y-76126317I-751317J-837345D01*
G01*
X190702345Y-77586317D01*
G75*
G02*
X189113683Y-77672345I-837345J751317D01*
G01*
G37*
D12*
X196215000Y-74295000D03*
G36*
G01*
X196098483Y-75997395D02*
X196097597Y-75997334D01*
G75*
G02*
X195052666Y-74797597I77403J1122334D01*
G01*
X195092666Y-74217597D01*
G75*
G02*
X196292403Y-73172666I1122334J-77403D01*
G01*
X196292403Y-73172666D01*
G75*
G02*
X197337334Y-74372403I-77403J-1122334D01*
G01*
X197297334Y-74952403D01*
G75*
G02*
X196097597Y-75997334I-1122334J77403D01*
G01*
G37*
%TD*%
D11*
%TO.C,MX45*%
X198755000Y-60325000D03*
X188595000Y-60325000D03*
D12*
X191175000Y-56325000D03*
D13*
X193675000Y-60325000D03*
G36*
G01*
X189113688Y-58622350D02*
X189113683Y-58622345D01*
G75*
G02*
X189027655Y-57033683I751317J837345D01*
G01*
X190337657Y-55573683D01*
G75*
G02*
X191926319Y-55487655I837345J-751317D01*
G01*
X191926319Y-55487655D01*
G75*
G02*
X192012347Y-57076317I-751317J-837345D01*
G01*
X190702345Y-58536317D01*
G75*
G02*
X189113683Y-58622345I-837345J751317D01*
G01*
G37*
D12*
X196215000Y-55245000D03*
G36*
G01*
X196098483Y-56947395D02*
X196097597Y-56947334D01*
G75*
G02*
X195052666Y-55747597I77403J1122334D01*
G01*
X195092666Y-55167597D01*
G75*
G02*
X196292403Y-54122666I1122334J-77403D01*
G01*
X196292403Y-54122666D01*
G75*
G02*
X197337334Y-55322403I-77403J-1122334D01*
G01*
X197297334Y-55902403D01*
G75*
G02*
X196097597Y-56947334I-1122334J77403D01*
G01*
G37*
%TD*%
D11*
%TO.C,MX44*%
X198755000Y-41275000D03*
X188595000Y-41275000D03*
D12*
X191175000Y-37275000D03*
D13*
X193675000Y-41275000D03*
G36*
G01*
X189113688Y-39572350D02*
X189113683Y-39572345D01*
G75*
G02*
X189027655Y-37983683I751317J837345D01*
G01*
X190337657Y-36523683D01*
G75*
G02*
X191926319Y-36437655I837345J-751317D01*
G01*
X191926319Y-36437655D01*
G75*
G02*
X192012347Y-38026317I-751317J-837345D01*
G01*
X190702345Y-39486317D01*
G75*
G02*
X189113683Y-39572345I-837345J751317D01*
G01*
G37*
D12*
X196215000Y-36195000D03*
G36*
G01*
X196098483Y-37897395D02*
X196097597Y-37897334D01*
G75*
G02*
X195052666Y-36697597I77403J1122334D01*
G01*
X195092666Y-36117597D01*
G75*
G02*
X196292403Y-35072666I1122334J-77403D01*
G01*
X196292403Y-35072666D01*
G75*
G02*
X197337334Y-36272403I-77403J-1122334D01*
G01*
X197297334Y-36852403D01*
G75*
G02*
X196097597Y-37897334I-1122334J77403D01*
G01*
G37*
%TD*%
D11*
%TO.C,MX42*%
X179705000Y-79375000D03*
X169545000Y-79375000D03*
D12*
X172125000Y-75375000D03*
D13*
X174625000Y-79375000D03*
G36*
G01*
X170063688Y-77672350D02*
X170063683Y-77672345D01*
G75*
G02*
X169977655Y-76083683I751317J837345D01*
G01*
X171287657Y-74623683D01*
G75*
G02*
X172876319Y-74537655I837345J-751317D01*
G01*
X172876319Y-74537655D01*
G75*
G02*
X172962347Y-76126317I-751317J-837345D01*
G01*
X171652345Y-77586317D01*
G75*
G02*
X170063683Y-77672345I-837345J751317D01*
G01*
G37*
D12*
X177165000Y-74295000D03*
G36*
G01*
X177048483Y-75997395D02*
X177047597Y-75997334D01*
G75*
G02*
X176002666Y-74797597I77403J1122334D01*
G01*
X176042666Y-74217597D01*
G75*
G02*
X177242403Y-73172666I1122334J-77403D01*
G01*
X177242403Y-73172666D01*
G75*
G02*
X178287334Y-74372403I-77403J-1122334D01*
G01*
X178247334Y-74952403D01*
G75*
G02*
X177047597Y-75997334I-1122334J77403D01*
G01*
G37*
%TD*%
D11*
%TO.C,MX41*%
X179705000Y-60325000D03*
X169545000Y-60325000D03*
D12*
X172125000Y-56325000D03*
D13*
X174625000Y-60325000D03*
G36*
G01*
X170063688Y-58622350D02*
X170063683Y-58622345D01*
G75*
G02*
X169977655Y-57033683I751317J837345D01*
G01*
X171287657Y-55573683D01*
G75*
G02*
X172876319Y-55487655I837345J-751317D01*
G01*
X172876319Y-55487655D01*
G75*
G02*
X172962347Y-57076317I-751317J-837345D01*
G01*
X171652345Y-58536317D01*
G75*
G02*
X170063683Y-58622345I-837345J751317D01*
G01*
G37*
D12*
X177165000Y-55245000D03*
G36*
G01*
X177048483Y-56947395D02*
X177047597Y-56947334D01*
G75*
G02*
X176002666Y-55747597I77403J1122334D01*
G01*
X176042666Y-55167597D01*
G75*
G02*
X177242403Y-54122666I1122334J-77403D01*
G01*
X177242403Y-54122666D01*
G75*
G02*
X178287334Y-55322403I-77403J-1122334D01*
G01*
X178247334Y-55902403D01*
G75*
G02*
X177047597Y-56947334I-1122334J77403D01*
G01*
G37*
%TD*%
D11*
%TO.C,MX40*%
X179705000Y-41275000D03*
X169545000Y-41275000D03*
D12*
X172125000Y-37275000D03*
D13*
X174625000Y-41275000D03*
G36*
G01*
X170063688Y-39572350D02*
X170063683Y-39572345D01*
G75*
G02*
X169977655Y-37983683I751317J837345D01*
G01*
X171287657Y-36523683D01*
G75*
G02*
X172876319Y-36437655I837345J-751317D01*
G01*
X172876319Y-36437655D01*
G75*
G02*
X172962347Y-38026317I-751317J-837345D01*
G01*
X171652345Y-39486317D01*
G75*
G02*
X170063683Y-39572345I-837345J751317D01*
G01*
G37*
D12*
X177165000Y-36195000D03*
G36*
G01*
X177048483Y-37897395D02*
X177047597Y-37897334D01*
G75*
G02*
X176002666Y-36697597I77403J1122334D01*
G01*
X176042666Y-36117597D01*
G75*
G02*
X177242403Y-35072666I1122334J-77403D01*
G01*
X177242403Y-35072666D01*
G75*
G02*
X178287334Y-36272403I-77403J-1122334D01*
G01*
X178247334Y-36852403D01*
G75*
G02*
X177047597Y-37897334I-1122334J77403D01*
G01*
G37*
%TD*%
D11*
%TO.C,MX39*%
X179705000Y-22225000D03*
X169545000Y-22225000D03*
D12*
X172125000Y-18225000D03*
D13*
X174625000Y-22225000D03*
G36*
G01*
X170063688Y-20522350D02*
X170063683Y-20522345D01*
G75*
G02*
X169977655Y-18933683I751317J837345D01*
G01*
X171287657Y-17473683D01*
G75*
G02*
X172876319Y-17387655I837345J-751317D01*
G01*
X172876319Y-17387655D01*
G75*
G02*
X172962347Y-18976317I-751317J-837345D01*
G01*
X171652345Y-20436317D01*
G75*
G02*
X170063683Y-20522345I-837345J751317D01*
G01*
G37*
D12*
X177165000Y-17145000D03*
G36*
G01*
X177048483Y-18847395D02*
X177047597Y-18847334D01*
G75*
G02*
X176002666Y-17647597I77403J1122334D01*
G01*
X176042666Y-17067597D01*
G75*
G02*
X177242403Y-16022666I1122334J-77403D01*
G01*
X177242403Y-16022666D01*
G75*
G02*
X178287334Y-17222403I-77403J-1122334D01*
G01*
X178247334Y-17802403D01*
G75*
G02*
X177047597Y-18847334I-1122334J77403D01*
G01*
G37*
%TD*%
D11*
%TO.C,MX38*%
X170180000Y-98425000D03*
X160020000Y-98425000D03*
D12*
X162600000Y-94425000D03*
D13*
X165100000Y-98425000D03*
G36*
G01*
X160538688Y-96722350D02*
X160538683Y-96722345D01*
G75*
G02*
X160452655Y-95133683I751317J837345D01*
G01*
X161762657Y-93673683D01*
G75*
G02*
X163351319Y-93587655I837345J-751317D01*
G01*
X163351319Y-93587655D01*
G75*
G02*
X163437347Y-95176317I-751317J-837345D01*
G01*
X162127345Y-96636317D01*
G75*
G02*
X160538683Y-96722345I-837345J751317D01*
G01*
G37*
D12*
X167640000Y-93345000D03*
G36*
G01*
X167523483Y-95047395D02*
X167522597Y-95047334D01*
G75*
G02*
X166477666Y-93847597I77403J1122334D01*
G01*
X166517666Y-93267597D01*
G75*
G02*
X167717403Y-92222666I1122334J-77403D01*
G01*
X167717403Y-92222666D01*
G75*
G02*
X168762334Y-93422403I-77403J-1122334D01*
G01*
X168722334Y-94002403D01*
G75*
G02*
X167522597Y-95047334I-1122334J77403D01*
G01*
G37*
%TD*%
D11*
%TO.C,MX37*%
X160655000Y-79375000D03*
X150495000Y-79375000D03*
D12*
X153075000Y-75375000D03*
D13*
X155575000Y-79375000D03*
G36*
G01*
X151013688Y-77672350D02*
X151013683Y-77672345D01*
G75*
G02*
X150927655Y-76083683I751317J837345D01*
G01*
X152237657Y-74623683D01*
G75*
G02*
X153826319Y-74537655I837345J-751317D01*
G01*
X153826319Y-74537655D01*
G75*
G02*
X153912347Y-76126317I-751317J-837345D01*
G01*
X152602345Y-77586317D01*
G75*
G02*
X151013683Y-77672345I-837345J751317D01*
G01*
G37*
D12*
X158115000Y-74295000D03*
G36*
G01*
X157998483Y-75997395D02*
X157997597Y-75997334D01*
G75*
G02*
X156952666Y-74797597I77403J1122334D01*
G01*
X156992666Y-74217597D01*
G75*
G02*
X158192403Y-73172666I1122334J-77403D01*
G01*
X158192403Y-73172666D01*
G75*
G02*
X159237334Y-74372403I-77403J-1122334D01*
G01*
X159197334Y-74952403D01*
G75*
G02*
X157997597Y-75997334I-1122334J77403D01*
G01*
G37*
%TD*%
D11*
%TO.C,MX36*%
X160655000Y-60325000D03*
X150495000Y-60325000D03*
D12*
X153075000Y-56325000D03*
D13*
X155575000Y-60325000D03*
G36*
G01*
X151013688Y-58622350D02*
X151013683Y-58622345D01*
G75*
G02*
X150927655Y-57033683I751317J837345D01*
G01*
X152237657Y-55573683D01*
G75*
G02*
X153826319Y-55487655I837345J-751317D01*
G01*
X153826319Y-55487655D01*
G75*
G02*
X153912347Y-57076317I-751317J-837345D01*
G01*
X152602345Y-58536317D01*
G75*
G02*
X151013683Y-58622345I-837345J751317D01*
G01*
G37*
D12*
X158115000Y-55245000D03*
G36*
G01*
X157998483Y-56947395D02*
X157997597Y-56947334D01*
G75*
G02*
X156952666Y-55747597I77403J1122334D01*
G01*
X156992666Y-55167597D01*
G75*
G02*
X158192403Y-54122666I1122334J-77403D01*
G01*
X158192403Y-54122666D01*
G75*
G02*
X159237334Y-55322403I-77403J-1122334D01*
G01*
X159197334Y-55902403D01*
G75*
G02*
X157997597Y-56947334I-1122334J77403D01*
G01*
G37*
%TD*%
D11*
%TO.C,MX35*%
X160655000Y-41275000D03*
X150495000Y-41275000D03*
D12*
X153075000Y-37275000D03*
D13*
X155575000Y-41275000D03*
G36*
G01*
X151013688Y-39572350D02*
X151013683Y-39572345D01*
G75*
G02*
X150927655Y-37983683I751317J837345D01*
G01*
X152237657Y-36523683D01*
G75*
G02*
X153826319Y-36437655I837345J-751317D01*
G01*
X153826319Y-36437655D01*
G75*
G02*
X153912347Y-38026317I-751317J-837345D01*
G01*
X152602345Y-39486317D01*
G75*
G02*
X151013683Y-39572345I-837345J751317D01*
G01*
G37*
D12*
X158115000Y-36195000D03*
G36*
G01*
X157998483Y-37897395D02*
X157997597Y-37897334D01*
G75*
G02*
X156952666Y-36697597I77403J1122334D01*
G01*
X156992666Y-36117597D01*
G75*
G02*
X158192403Y-35072666I1122334J-77403D01*
G01*
X158192403Y-35072666D01*
G75*
G02*
X159237334Y-36272403I-77403J-1122334D01*
G01*
X159197334Y-36852403D01*
G75*
G02*
X157997597Y-37897334I-1122334J77403D01*
G01*
G37*
%TD*%
D11*
%TO.C,MX34*%
X160655000Y-22225000D03*
X150495000Y-22225000D03*
D12*
X153075000Y-18225000D03*
D13*
X155575000Y-22225000D03*
G36*
G01*
X151013688Y-20522350D02*
X151013683Y-20522345D01*
G75*
G02*
X150927655Y-18933683I751317J837345D01*
G01*
X152237657Y-17473683D01*
G75*
G02*
X153826319Y-17387655I837345J-751317D01*
G01*
X153826319Y-17387655D01*
G75*
G02*
X153912347Y-18976317I-751317J-837345D01*
G01*
X152602345Y-20436317D01*
G75*
G02*
X151013683Y-20522345I-837345J751317D01*
G01*
G37*
D12*
X158115000Y-17145000D03*
G36*
G01*
X157998483Y-18847395D02*
X157997597Y-18847334D01*
G75*
G02*
X156952666Y-17647597I77403J1122334D01*
G01*
X156992666Y-17067597D01*
G75*
G02*
X158192403Y-16022666I1122334J-77403D01*
G01*
X158192403Y-16022666D01*
G75*
G02*
X159237334Y-17222403I-77403J-1122334D01*
G01*
X159197334Y-17802403D01*
G75*
G02*
X157997597Y-18847334I-1122334J77403D01*
G01*
G37*
%TD*%
D11*
%TO.C,MX33*%
X151130000Y-98425000D03*
X140970000Y-98425000D03*
D12*
X143550000Y-94425000D03*
D13*
X146050000Y-98425000D03*
G36*
G01*
X141488688Y-96722350D02*
X141488683Y-96722345D01*
G75*
G02*
X141402655Y-95133683I751317J837345D01*
G01*
X142712657Y-93673683D01*
G75*
G02*
X144301319Y-93587655I837345J-751317D01*
G01*
X144301319Y-93587655D01*
G75*
G02*
X144387347Y-95176317I-751317J-837345D01*
G01*
X143077345Y-96636317D01*
G75*
G02*
X141488683Y-96722345I-837345J751317D01*
G01*
G37*
D12*
X148590000Y-93345000D03*
G36*
G01*
X148473483Y-95047395D02*
X148472597Y-95047334D01*
G75*
G02*
X147427666Y-93847597I77403J1122334D01*
G01*
X147467666Y-93267597D01*
G75*
G02*
X148667403Y-92222666I1122334J-77403D01*
G01*
X148667403Y-92222666D01*
G75*
G02*
X149712334Y-93422403I-77403J-1122334D01*
G01*
X149672334Y-94002403D01*
G75*
G02*
X148472597Y-95047334I-1122334J77403D01*
G01*
G37*
%TD*%
D11*
%TO.C,MX32*%
X141605000Y-79375000D03*
X131445000Y-79375000D03*
D12*
X134025000Y-75375000D03*
D13*
X136525000Y-79375000D03*
G36*
G01*
X131963688Y-77672350D02*
X131963683Y-77672345D01*
G75*
G02*
X131877655Y-76083683I751317J837345D01*
G01*
X133187657Y-74623683D01*
G75*
G02*
X134776319Y-74537655I837345J-751317D01*
G01*
X134776319Y-74537655D01*
G75*
G02*
X134862347Y-76126317I-751317J-837345D01*
G01*
X133552345Y-77586317D01*
G75*
G02*
X131963683Y-77672345I-837345J751317D01*
G01*
G37*
D12*
X139065000Y-74295000D03*
G36*
G01*
X138948483Y-75997395D02*
X138947597Y-75997334D01*
G75*
G02*
X137902666Y-74797597I77403J1122334D01*
G01*
X137942666Y-74217597D01*
G75*
G02*
X139142403Y-73172666I1122334J-77403D01*
G01*
X139142403Y-73172666D01*
G75*
G02*
X140187334Y-74372403I-77403J-1122334D01*
G01*
X140147334Y-74952403D01*
G75*
G02*
X138947597Y-75997334I-1122334J77403D01*
G01*
G37*
%TD*%
D11*
%TO.C,MX31*%
X141605000Y-60325000D03*
X131445000Y-60325000D03*
D12*
X134025000Y-56325000D03*
D13*
X136525000Y-60325000D03*
G36*
G01*
X131963688Y-58622350D02*
X131963683Y-58622345D01*
G75*
G02*
X131877655Y-57033683I751317J837345D01*
G01*
X133187657Y-55573683D01*
G75*
G02*
X134776319Y-55487655I837345J-751317D01*
G01*
X134776319Y-55487655D01*
G75*
G02*
X134862347Y-57076317I-751317J-837345D01*
G01*
X133552345Y-58536317D01*
G75*
G02*
X131963683Y-58622345I-837345J751317D01*
G01*
G37*
D12*
X139065000Y-55245000D03*
G36*
G01*
X138948483Y-56947395D02*
X138947597Y-56947334D01*
G75*
G02*
X137902666Y-55747597I77403J1122334D01*
G01*
X137942666Y-55167597D01*
G75*
G02*
X139142403Y-54122666I1122334J-77403D01*
G01*
X139142403Y-54122666D01*
G75*
G02*
X140187334Y-55322403I-77403J-1122334D01*
G01*
X140147334Y-55902403D01*
G75*
G02*
X138947597Y-56947334I-1122334J77403D01*
G01*
G37*
%TD*%
D11*
%TO.C,MX30*%
X141605000Y-41275000D03*
X131445000Y-41275000D03*
D12*
X134025000Y-37275000D03*
D13*
X136525000Y-41275000D03*
G36*
G01*
X131963688Y-39572350D02*
X131963683Y-39572345D01*
G75*
G02*
X131877655Y-37983683I751317J837345D01*
G01*
X133187657Y-36523683D01*
G75*
G02*
X134776319Y-36437655I837345J-751317D01*
G01*
X134776319Y-36437655D01*
G75*
G02*
X134862347Y-38026317I-751317J-837345D01*
G01*
X133552345Y-39486317D01*
G75*
G02*
X131963683Y-39572345I-837345J751317D01*
G01*
G37*
D12*
X139065000Y-36195000D03*
G36*
G01*
X138948483Y-37897395D02*
X138947597Y-37897334D01*
G75*
G02*
X137902666Y-36697597I77403J1122334D01*
G01*
X137942666Y-36117597D01*
G75*
G02*
X139142403Y-35072666I1122334J-77403D01*
G01*
X139142403Y-35072666D01*
G75*
G02*
X140187334Y-36272403I-77403J-1122334D01*
G01*
X140147334Y-36852403D01*
G75*
G02*
X138947597Y-37897334I-1122334J77403D01*
G01*
G37*
%TD*%
D11*
%TO.C,MX29*%
X141605000Y-22225000D03*
X131445000Y-22225000D03*
D12*
X134025000Y-18225000D03*
D13*
X136525000Y-22225000D03*
G36*
G01*
X131963688Y-20522350D02*
X131963683Y-20522345D01*
G75*
G02*
X131877655Y-18933683I751317J837345D01*
G01*
X133187657Y-17473683D01*
G75*
G02*
X134776319Y-17387655I837345J-751317D01*
G01*
X134776319Y-17387655D01*
G75*
G02*
X134862347Y-18976317I-751317J-837345D01*
G01*
X133552345Y-20436317D01*
G75*
G02*
X131963683Y-20522345I-837345J751317D01*
G01*
G37*
D12*
X139065000Y-17145000D03*
G36*
G01*
X138948483Y-18847395D02*
X138947597Y-18847334D01*
G75*
G02*
X137902666Y-17647597I77403J1122334D01*
G01*
X137942666Y-17067597D01*
G75*
G02*
X139142403Y-16022666I1122334J-77403D01*
G01*
X139142403Y-16022666D01*
G75*
G02*
X140187334Y-17222403I-77403J-1122334D01*
G01*
X140147334Y-17802403D01*
G75*
G02*
X138947597Y-18847334I-1122334J77403D01*
G01*
G37*
%TD*%
D11*
%TO.C,MX28*%
X127317500Y-98425000D03*
X117157500Y-98425000D03*
D12*
X119737500Y-94425000D03*
D13*
X122237500Y-98425000D03*
G36*
G01*
X117676188Y-96722350D02*
X117676183Y-96722345D01*
G75*
G02*
X117590155Y-95133683I751317J837345D01*
G01*
X118900157Y-93673683D01*
G75*
G02*
X120488819Y-93587655I837345J-751317D01*
G01*
X120488819Y-93587655D01*
G75*
G02*
X120574847Y-95176317I-751317J-837345D01*
G01*
X119264845Y-96636317D01*
G75*
G02*
X117676183Y-96722345I-837345J751317D01*
G01*
G37*
D12*
X124777500Y-93345000D03*
G36*
G01*
X124660983Y-95047395D02*
X124660097Y-95047334D01*
G75*
G02*
X123615166Y-93847597I77403J1122334D01*
G01*
X123655166Y-93267597D01*
G75*
G02*
X124854903Y-92222666I1122334J-77403D01*
G01*
X124854903Y-92222666D01*
G75*
G02*
X125899834Y-93422403I-77403J-1122334D01*
G01*
X125859834Y-94002403D01*
G75*
G02*
X124660097Y-95047334I-1122334J77403D01*
G01*
G37*
%TD*%
D11*
%TO.C,MX27*%
X122555000Y-79375000D03*
X112395000Y-79375000D03*
D12*
X114975000Y-75375000D03*
D13*
X117475000Y-79375000D03*
G36*
G01*
X112913688Y-77672350D02*
X112913683Y-77672345D01*
G75*
G02*
X112827655Y-76083683I751317J837345D01*
G01*
X114137657Y-74623683D01*
G75*
G02*
X115726319Y-74537655I837345J-751317D01*
G01*
X115726319Y-74537655D01*
G75*
G02*
X115812347Y-76126317I-751317J-837345D01*
G01*
X114502345Y-77586317D01*
G75*
G02*
X112913683Y-77672345I-837345J751317D01*
G01*
G37*
D12*
X120015000Y-74295000D03*
G36*
G01*
X119898483Y-75997395D02*
X119897597Y-75997334D01*
G75*
G02*
X118852666Y-74797597I77403J1122334D01*
G01*
X118892666Y-74217597D01*
G75*
G02*
X120092403Y-73172666I1122334J-77403D01*
G01*
X120092403Y-73172666D01*
G75*
G02*
X121137334Y-74372403I-77403J-1122334D01*
G01*
X121097334Y-74952403D01*
G75*
G02*
X119897597Y-75997334I-1122334J77403D01*
G01*
G37*
%TD*%
D11*
%TO.C,MX26*%
X122555000Y-60325000D03*
X112395000Y-60325000D03*
D12*
X114975000Y-56325000D03*
D13*
X117475000Y-60325000D03*
G36*
G01*
X112913688Y-58622350D02*
X112913683Y-58622345D01*
G75*
G02*
X112827655Y-57033683I751317J837345D01*
G01*
X114137657Y-55573683D01*
G75*
G02*
X115726319Y-55487655I837345J-751317D01*
G01*
X115726319Y-55487655D01*
G75*
G02*
X115812347Y-57076317I-751317J-837345D01*
G01*
X114502345Y-58536317D01*
G75*
G02*
X112913683Y-58622345I-837345J751317D01*
G01*
G37*
D12*
X120015000Y-55245000D03*
G36*
G01*
X119898483Y-56947395D02*
X119897597Y-56947334D01*
G75*
G02*
X118852666Y-55747597I77403J1122334D01*
G01*
X118892666Y-55167597D01*
G75*
G02*
X120092403Y-54122666I1122334J-77403D01*
G01*
X120092403Y-54122666D01*
G75*
G02*
X121137334Y-55322403I-77403J-1122334D01*
G01*
X121097334Y-55902403D01*
G75*
G02*
X119897597Y-56947334I-1122334J77403D01*
G01*
G37*
%TD*%
D11*
%TO.C,MX25*%
X122555000Y-41275000D03*
X112395000Y-41275000D03*
D12*
X114975000Y-37275000D03*
D13*
X117475000Y-41275000D03*
G36*
G01*
X112913688Y-39572350D02*
X112913683Y-39572345D01*
G75*
G02*
X112827655Y-37983683I751317J837345D01*
G01*
X114137657Y-36523683D01*
G75*
G02*
X115726319Y-36437655I837345J-751317D01*
G01*
X115726319Y-36437655D01*
G75*
G02*
X115812347Y-38026317I-751317J-837345D01*
G01*
X114502345Y-39486317D01*
G75*
G02*
X112913683Y-39572345I-837345J751317D01*
G01*
G37*
D12*
X120015000Y-36195000D03*
G36*
G01*
X119898483Y-37897395D02*
X119897597Y-37897334D01*
G75*
G02*
X118852666Y-36697597I77403J1122334D01*
G01*
X118892666Y-36117597D01*
G75*
G02*
X120092403Y-35072666I1122334J-77403D01*
G01*
X120092403Y-35072666D01*
G75*
G02*
X121137334Y-36272403I-77403J-1122334D01*
G01*
X121097334Y-36852403D01*
G75*
G02*
X119897597Y-37897334I-1122334J77403D01*
G01*
G37*
%TD*%
D11*
%TO.C,MX24*%
X122555000Y-22225000D03*
X112395000Y-22225000D03*
D12*
X114975000Y-18225000D03*
D13*
X117475000Y-22225000D03*
G36*
G01*
X112913688Y-20522350D02*
X112913683Y-20522345D01*
G75*
G02*
X112827655Y-18933683I751317J837345D01*
G01*
X114137657Y-17473683D01*
G75*
G02*
X115726319Y-17387655I837345J-751317D01*
G01*
X115726319Y-17387655D01*
G75*
G02*
X115812347Y-18976317I-751317J-837345D01*
G01*
X114502345Y-20436317D01*
G75*
G02*
X112913683Y-20522345I-837345J751317D01*
G01*
G37*
D12*
X120015000Y-17145000D03*
G36*
G01*
X119898483Y-18847395D02*
X119897597Y-18847334D01*
G75*
G02*
X118852666Y-17647597I77403J1122334D01*
G01*
X118892666Y-17067597D01*
G75*
G02*
X120092403Y-16022666I1122334J-77403D01*
G01*
X120092403Y-16022666D01*
G75*
G02*
X121137334Y-17222403I-77403J-1122334D01*
G01*
X121097334Y-17802403D01*
G75*
G02*
X119897597Y-18847334I-1122334J77403D01*
G01*
G37*
%TD*%
D11*
%TO.C,MX23*%
X98742500Y-98425000D03*
X88582500Y-98425000D03*
D12*
X91162500Y-94425000D03*
D13*
X93662500Y-98425000D03*
G36*
G01*
X89101188Y-96722350D02*
X89101183Y-96722345D01*
G75*
G02*
X89015155Y-95133683I751317J837345D01*
G01*
X90325157Y-93673683D01*
G75*
G02*
X91913819Y-93587655I837345J-751317D01*
G01*
X91913819Y-93587655D01*
G75*
G02*
X91999847Y-95176317I-751317J-837345D01*
G01*
X90689845Y-96636317D01*
G75*
G02*
X89101183Y-96722345I-837345J751317D01*
G01*
G37*
D12*
X96202500Y-93345000D03*
G36*
G01*
X96085983Y-95047395D02*
X96085097Y-95047334D01*
G75*
G02*
X95040166Y-93847597I77403J1122334D01*
G01*
X95080166Y-93267597D01*
G75*
G02*
X96279903Y-92222666I1122334J-77403D01*
G01*
X96279903Y-92222666D01*
G75*
G02*
X97324834Y-93422403I-77403J-1122334D01*
G01*
X97284834Y-94002403D01*
G75*
G02*
X96085097Y-95047334I-1122334J77403D01*
G01*
G37*
%TD*%
D11*
%TO.C,MX22*%
X103505000Y-79375000D03*
X93345000Y-79375000D03*
D12*
X95925000Y-75375000D03*
D13*
X98425000Y-79375000D03*
G36*
G01*
X93863688Y-77672350D02*
X93863683Y-77672345D01*
G75*
G02*
X93777655Y-76083683I751317J837345D01*
G01*
X95087657Y-74623683D01*
G75*
G02*
X96676319Y-74537655I837345J-751317D01*
G01*
X96676319Y-74537655D01*
G75*
G02*
X96762347Y-76126317I-751317J-837345D01*
G01*
X95452345Y-77586317D01*
G75*
G02*
X93863683Y-77672345I-837345J751317D01*
G01*
G37*
D12*
X100965000Y-74295000D03*
G36*
G01*
X100848483Y-75997395D02*
X100847597Y-75997334D01*
G75*
G02*
X99802666Y-74797597I77403J1122334D01*
G01*
X99842666Y-74217597D01*
G75*
G02*
X101042403Y-73172666I1122334J-77403D01*
G01*
X101042403Y-73172666D01*
G75*
G02*
X102087334Y-74372403I-77403J-1122334D01*
G01*
X102047334Y-74952403D01*
G75*
G02*
X100847597Y-75997334I-1122334J77403D01*
G01*
G37*
%TD*%
D11*
%TO.C,MX21*%
X103505000Y-60325000D03*
X93345000Y-60325000D03*
D12*
X95925000Y-56325000D03*
D13*
X98425000Y-60325000D03*
G36*
G01*
X93863688Y-58622350D02*
X93863683Y-58622345D01*
G75*
G02*
X93777655Y-57033683I751317J837345D01*
G01*
X95087657Y-55573683D01*
G75*
G02*
X96676319Y-55487655I837345J-751317D01*
G01*
X96676319Y-55487655D01*
G75*
G02*
X96762347Y-57076317I-751317J-837345D01*
G01*
X95452345Y-58536317D01*
G75*
G02*
X93863683Y-58622345I-837345J751317D01*
G01*
G37*
D12*
X100965000Y-55245000D03*
G36*
G01*
X100848483Y-56947395D02*
X100847597Y-56947334D01*
G75*
G02*
X99802666Y-55747597I77403J1122334D01*
G01*
X99842666Y-55167597D01*
G75*
G02*
X101042403Y-54122666I1122334J-77403D01*
G01*
X101042403Y-54122666D01*
G75*
G02*
X102087334Y-55322403I-77403J-1122334D01*
G01*
X102047334Y-55902403D01*
G75*
G02*
X100847597Y-56947334I-1122334J77403D01*
G01*
G37*
%TD*%
D11*
%TO.C,MX20*%
X103505000Y-41275000D03*
X93345000Y-41275000D03*
D12*
X95925000Y-37275000D03*
D13*
X98425000Y-41275000D03*
G36*
G01*
X93863688Y-39572350D02*
X93863683Y-39572345D01*
G75*
G02*
X93777655Y-37983683I751317J837345D01*
G01*
X95087657Y-36523683D01*
G75*
G02*
X96676319Y-36437655I837345J-751317D01*
G01*
X96676319Y-36437655D01*
G75*
G02*
X96762347Y-38026317I-751317J-837345D01*
G01*
X95452345Y-39486317D01*
G75*
G02*
X93863683Y-39572345I-837345J751317D01*
G01*
G37*
D12*
X100965000Y-36195000D03*
G36*
G01*
X100848483Y-37897395D02*
X100847597Y-37897334D01*
G75*
G02*
X99802666Y-36697597I77403J1122334D01*
G01*
X99842666Y-36117597D01*
G75*
G02*
X101042403Y-35072666I1122334J-77403D01*
G01*
X101042403Y-35072666D01*
G75*
G02*
X102087334Y-36272403I-77403J-1122334D01*
G01*
X102047334Y-36852403D01*
G75*
G02*
X100847597Y-37897334I-1122334J77403D01*
G01*
G37*
%TD*%
D11*
%TO.C,MX19*%
X103505000Y-22225000D03*
X93345000Y-22225000D03*
D12*
X95925000Y-18225000D03*
D13*
X98425000Y-22225000D03*
G36*
G01*
X93863688Y-20522350D02*
X93863683Y-20522345D01*
G75*
G02*
X93777655Y-18933683I751317J837345D01*
G01*
X95087657Y-17473683D01*
G75*
G02*
X96676319Y-17387655I837345J-751317D01*
G01*
X96676319Y-17387655D01*
G75*
G02*
X96762347Y-18976317I-751317J-837345D01*
G01*
X95452345Y-20436317D01*
G75*
G02*
X93863683Y-20522345I-837345J751317D01*
G01*
G37*
D12*
X100965000Y-17145000D03*
G36*
G01*
X100848483Y-18847395D02*
X100847597Y-18847334D01*
G75*
G02*
X99802666Y-17647597I77403J1122334D01*
G01*
X99842666Y-17067597D01*
G75*
G02*
X101042403Y-16022666I1122334J-77403D01*
G01*
X101042403Y-16022666D01*
G75*
G02*
X102087334Y-17222403I-77403J-1122334D01*
G01*
X102047334Y-17802403D01*
G75*
G02*
X100847597Y-18847334I-1122334J77403D01*
G01*
G37*
%TD*%
D11*
%TO.C,MX18*%
X74930000Y-98425000D03*
X64770000Y-98425000D03*
D12*
X67350000Y-94425000D03*
D13*
X69850000Y-98425000D03*
G36*
G01*
X65288688Y-96722350D02*
X65288683Y-96722345D01*
G75*
G02*
X65202655Y-95133683I751317J837345D01*
G01*
X66512657Y-93673683D01*
G75*
G02*
X68101319Y-93587655I837345J-751317D01*
G01*
X68101319Y-93587655D01*
G75*
G02*
X68187347Y-95176317I-751317J-837345D01*
G01*
X66877345Y-96636317D01*
G75*
G02*
X65288683Y-96722345I-837345J751317D01*
G01*
G37*
D12*
X72390000Y-93345000D03*
G36*
G01*
X72273483Y-95047395D02*
X72272597Y-95047334D01*
G75*
G02*
X71227666Y-93847597I77403J1122334D01*
G01*
X71267666Y-93267597D01*
G75*
G02*
X72467403Y-92222666I1122334J-77403D01*
G01*
X72467403Y-92222666D01*
G75*
G02*
X73512334Y-93422403I-77403J-1122334D01*
G01*
X73472334Y-94002403D01*
G75*
G02*
X72272597Y-95047334I-1122334J77403D01*
G01*
G37*
%TD*%
D11*
%TO.C,MX17*%
X84455000Y-79375000D03*
X74295000Y-79375000D03*
D12*
X76875000Y-75375000D03*
D13*
X79375000Y-79375000D03*
G36*
G01*
X74813688Y-77672350D02*
X74813683Y-77672345D01*
G75*
G02*
X74727655Y-76083683I751317J837345D01*
G01*
X76037657Y-74623683D01*
G75*
G02*
X77626319Y-74537655I837345J-751317D01*
G01*
X77626319Y-74537655D01*
G75*
G02*
X77712347Y-76126317I-751317J-837345D01*
G01*
X76402345Y-77586317D01*
G75*
G02*
X74813683Y-77672345I-837345J751317D01*
G01*
G37*
D12*
X81915000Y-74295000D03*
G36*
G01*
X81798483Y-75997395D02*
X81797597Y-75997334D01*
G75*
G02*
X80752666Y-74797597I77403J1122334D01*
G01*
X80792666Y-74217597D01*
G75*
G02*
X81992403Y-73172666I1122334J-77403D01*
G01*
X81992403Y-73172666D01*
G75*
G02*
X83037334Y-74372403I-77403J-1122334D01*
G01*
X82997334Y-74952403D01*
G75*
G02*
X81797597Y-75997334I-1122334J77403D01*
G01*
G37*
%TD*%
D11*
%TO.C,MX16*%
X84455000Y-60325000D03*
X74295000Y-60325000D03*
D12*
X76875000Y-56325000D03*
D13*
X79375000Y-60325000D03*
G36*
G01*
X74813688Y-58622350D02*
X74813683Y-58622345D01*
G75*
G02*
X74727655Y-57033683I751317J837345D01*
G01*
X76037657Y-55573683D01*
G75*
G02*
X77626319Y-55487655I837345J-751317D01*
G01*
X77626319Y-55487655D01*
G75*
G02*
X77712347Y-57076317I-751317J-837345D01*
G01*
X76402345Y-58536317D01*
G75*
G02*
X74813683Y-58622345I-837345J751317D01*
G01*
G37*
D12*
X81915000Y-55245000D03*
G36*
G01*
X81798483Y-56947395D02*
X81797597Y-56947334D01*
G75*
G02*
X80752666Y-55747597I77403J1122334D01*
G01*
X80792666Y-55167597D01*
G75*
G02*
X81992403Y-54122666I1122334J-77403D01*
G01*
X81992403Y-54122666D01*
G75*
G02*
X83037334Y-55322403I-77403J-1122334D01*
G01*
X82997334Y-55902403D01*
G75*
G02*
X81797597Y-56947334I-1122334J77403D01*
G01*
G37*
%TD*%
D11*
%TO.C,MX15*%
X84455000Y-41275000D03*
X74295000Y-41275000D03*
D12*
X76875000Y-37275000D03*
D13*
X79375000Y-41275000D03*
G36*
G01*
X74813688Y-39572350D02*
X74813683Y-39572345D01*
G75*
G02*
X74727655Y-37983683I751317J837345D01*
G01*
X76037657Y-36523683D01*
G75*
G02*
X77626319Y-36437655I837345J-751317D01*
G01*
X77626319Y-36437655D01*
G75*
G02*
X77712347Y-38026317I-751317J-837345D01*
G01*
X76402345Y-39486317D01*
G75*
G02*
X74813683Y-39572345I-837345J751317D01*
G01*
G37*
D12*
X81915000Y-36195000D03*
G36*
G01*
X81798483Y-37897395D02*
X81797597Y-37897334D01*
G75*
G02*
X80752666Y-36697597I77403J1122334D01*
G01*
X80792666Y-36117597D01*
G75*
G02*
X81992403Y-35072666I1122334J-77403D01*
G01*
X81992403Y-35072666D01*
G75*
G02*
X83037334Y-36272403I-77403J-1122334D01*
G01*
X82997334Y-36852403D01*
G75*
G02*
X81797597Y-37897334I-1122334J77403D01*
G01*
G37*
%TD*%
D11*
%TO.C,MX14*%
X84455000Y-22225000D03*
X74295000Y-22225000D03*
D12*
X76875000Y-18225000D03*
D13*
X79375000Y-22225000D03*
G36*
G01*
X74813688Y-20522350D02*
X74813683Y-20522345D01*
G75*
G02*
X74727655Y-18933683I751317J837345D01*
G01*
X76037657Y-17473683D01*
G75*
G02*
X77626319Y-17387655I837345J-751317D01*
G01*
X77626319Y-17387655D01*
G75*
G02*
X77712347Y-18976317I-751317J-837345D01*
G01*
X76402345Y-20436317D01*
G75*
G02*
X74813683Y-20522345I-837345J751317D01*
G01*
G37*
D12*
X81915000Y-17145000D03*
G36*
G01*
X81798483Y-18847395D02*
X81797597Y-18847334D01*
G75*
G02*
X80752666Y-17647597I77403J1122334D01*
G01*
X80792666Y-17067597D01*
G75*
G02*
X81992403Y-16022666I1122334J-77403D01*
G01*
X81992403Y-16022666D01*
G75*
G02*
X83037334Y-17222403I-77403J-1122334D01*
G01*
X82997334Y-17802403D01*
G75*
G02*
X81797597Y-18847334I-1122334J77403D01*
G01*
G37*
%TD*%
D11*
%TO.C,MX13*%
X55880000Y-98425000D03*
X45720000Y-98425000D03*
D12*
X48300000Y-94425000D03*
D13*
X50800000Y-98425000D03*
G36*
G01*
X46238688Y-96722350D02*
X46238683Y-96722345D01*
G75*
G02*
X46152655Y-95133683I751317J837345D01*
G01*
X47462657Y-93673683D01*
G75*
G02*
X49051319Y-93587655I837345J-751317D01*
G01*
X49051319Y-93587655D01*
G75*
G02*
X49137347Y-95176317I-751317J-837345D01*
G01*
X47827345Y-96636317D01*
G75*
G02*
X46238683Y-96722345I-837345J751317D01*
G01*
G37*
D12*
X53340000Y-93345000D03*
G36*
G01*
X53223483Y-95047395D02*
X53222597Y-95047334D01*
G75*
G02*
X52177666Y-93847597I77403J1122334D01*
G01*
X52217666Y-93267597D01*
G75*
G02*
X53417403Y-92222666I1122334J-77403D01*
G01*
X53417403Y-92222666D01*
G75*
G02*
X54462334Y-93422403I-77403J-1122334D01*
G01*
X54422334Y-94002403D01*
G75*
G02*
X53222597Y-95047334I-1122334J77403D01*
G01*
G37*
%TD*%
D11*
%TO.C,MX12*%
X65405000Y-79375000D03*
X55245000Y-79375000D03*
D12*
X57825000Y-75375000D03*
D13*
X60325000Y-79375000D03*
G36*
G01*
X55763688Y-77672350D02*
X55763683Y-77672345D01*
G75*
G02*
X55677655Y-76083683I751317J837345D01*
G01*
X56987657Y-74623683D01*
G75*
G02*
X58576319Y-74537655I837345J-751317D01*
G01*
X58576319Y-74537655D01*
G75*
G02*
X58662347Y-76126317I-751317J-837345D01*
G01*
X57352345Y-77586317D01*
G75*
G02*
X55763683Y-77672345I-837345J751317D01*
G01*
G37*
D12*
X62865000Y-74295000D03*
G36*
G01*
X62748483Y-75997395D02*
X62747597Y-75997334D01*
G75*
G02*
X61702666Y-74797597I77403J1122334D01*
G01*
X61742666Y-74217597D01*
G75*
G02*
X62942403Y-73172666I1122334J-77403D01*
G01*
X62942403Y-73172666D01*
G75*
G02*
X63987334Y-74372403I-77403J-1122334D01*
G01*
X63947334Y-74952403D01*
G75*
G02*
X62747597Y-75997334I-1122334J77403D01*
G01*
G37*
%TD*%
D11*
%TO.C,MX11*%
X65405000Y-60325000D03*
X55245000Y-60325000D03*
D12*
X57825000Y-56325000D03*
D13*
X60325000Y-60325000D03*
G36*
G01*
X55763688Y-58622350D02*
X55763683Y-58622345D01*
G75*
G02*
X55677655Y-57033683I751317J837345D01*
G01*
X56987657Y-55573683D01*
G75*
G02*
X58576319Y-55487655I837345J-751317D01*
G01*
X58576319Y-55487655D01*
G75*
G02*
X58662347Y-57076317I-751317J-837345D01*
G01*
X57352345Y-58536317D01*
G75*
G02*
X55763683Y-58622345I-837345J751317D01*
G01*
G37*
D12*
X62865000Y-55245000D03*
G36*
G01*
X62748483Y-56947395D02*
X62747597Y-56947334D01*
G75*
G02*
X61702666Y-55747597I77403J1122334D01*
G01*
X61742666Y-55167597D01*
G75*
G02*
X62942403Y-54122666I1122334J-77403D01*
G01*
X62942403Y-54122666D01*
G75*
G02*
X63987334Y-55322403I-77403J-1122334D01*
G01*
X63947334Y-55902403D01*
G75*
G02*
X62747597Y-56947334I-1122334J77403D01*
G01*
G37*
%TD*%
D11*
%TO.C,MX10*%
X65405000Y-41275000D03*
X55245000Y-41275000D03*
D12*
X57825000Y-37275000D03*
D13*
X60325000Y-41275000D03*
G36*
G01*
X55763688Y-39572350D02*
X55763683Y-39572345D01*
G75*
G02*
X55677655Y-37983683I751317J837345D01*
G01*
X56987657Y-36523683D01*
G75*
G02*
X58576319Y-36437655I837345J-751317D01*
G01*
X58576319Y-36437655D01*
G75*
G02*
X58662347Y-38026317I-751317J-837345D01*
G01*
X57352345Y-39486317D01*
G75*
G02*
X55763683Y-39572345I-837345J751317D01*
G01*
G37*
D12*
X62865000Y-36195000D03*
G36*
G01*
X62748483Y-37897395D02*
X62747597Y-37897334D01*
G75*
G02*
X61702666Y-36697597I77403J1122334D01*
G01*
X61742666Y-36117597D01*
G75*
G02*
X62942403Y-35072666I1122334J-77403D01*
G01*
X62942403Y-35072666D01*
G75*
G02*
X63987334Y-36272403I-77403J-1122334D01*
G01*
X63947334Y-36852403D01*
G75*
G02*
X62747597Y-37897334I-1122334J77403D01*
G01*
G37*
%TD*%
D11*
%TO.C,MX9*%
X65405000Y-22225000D03*
X55245000Y-22225000D03*
D12*
X57825000Y-18225000D03*
D13*
X60325000Y-22225000D03*
G36*
G01*
X55763688Y-20522350D02*
X55763683Y-20522345D01*
G75*
G02*
X55677655Y-18933683I751317J837345D01*
G01*
X56987657Y-17473683D01*
G75*
G02*
X58576319Y-17387655I837345J-751317D01*
G01*
X58576319Y-17387655D01*
G75*
G02*
X58662347Y-18976317I-751317J-837345D01*
G01*
X57352345Y-20436317D01*
G75*
G02*
X55763683Y-20522345I-837345J751317D01*
G01*
G37*
D12*
X62865000Y-17145000D03*
G36*
G01*
X62748483Y-18847395D02*
X62747597Y-18847334D01*
G75*
G02*
X61702666Y-17647597I77403J1122334D01*
G01*
X61742666Y-17067597D01*
G75*
G02*
X62942403Y-16022666I1122334J-77403D01*
G01*
X62942403Y-16022666D01*
G75*
G02*
X63987334Y-17222403I-77403J-1122334D01*
G01*
X63947334Y-17802403D01*
G75*
G02*
X62747597Y-18847334I-1122334J77403D01*
G01*
G37*
%TD*%
D11*
%TO.C,MX8*%
X46355000Y-79375000D03*
X36195000Y-79375000D03*
D12*
X38775000Y-75375000D03*
D13*
X41275000Y-79375000D03*
G36*
G01*
X36713688Y-77672350D02*
X36713683Y-77672345D01*
G75*
G02*
X36627655Y-76083683I751317J837345D01*
G01*
X37937657Y-74623683D01*
G75*
G02*
X39526319Y-74537655I837345J-751317D01*
G01*
X39526319Y-74537655D01*
G75*
G02*
X39612347Y-76126317I-751317J-837345D01*
G01*
X38302345Y-77586317D01*
G75*
G02*
X36713683Y-77672345I-837345J751317D01*
G01*
G37*
D12*
X43815000Y-74295000D03*
G36*
G01*
X43698483Y-75997395D02*
X43697597Y-75997334D01*
G75*
G02*
X42652666Y-74797597I77403J1122334D01*
G01*
X42692666Y-74217597D01*
G75*
G02*
X43892403Y-73172666I1122334J-77403D01*
G01*
X43892403Y-73172666D01*
G75*
G02*
X44937334Y-74372403I-77403J-1122334D01*
G01*
X44897334Y-74952403D01*
G75*
G02*
X43697597Y-75997334I-1122334J77403D01*
G01*
G37*
%TD*%
D11*
%TO.C,MX7*%
X46355000Y-60325000D03*
X36195000Y-60325000D03*
D12*
X38775000Y-56325000D03*
D13*
X41275000Y-60325000D03*
G36*
G01*
X36713688Y-58622350D02*
X36713683Y-58622345D01*
G75*
G02*
X36627655Y-57033683I751317J837345D01*
G01*
X37937657Y-55573683D01*
G75*
G02*
X39526319Y-55487655I837345J-751317D01*
G01*
X39526319Y-55487655D01*
G75*
G02*
X39612347Y-57076317I-751317J-837345D01*
G01*
X38302345Y-58536317D01*
G75*
G02*
X36713683Y-58622345I-837345J751317D01*
G01*
G37*
D12*
X43815000Y-55245000D03*
G36*
G01*
X43698483Y-56947395D02*
X43697597Y-56947334D01*
G75*
G02*
X42652666Y-55747597I77403J1122334D01*
G01*
X42692666Y-55167597D01*
G75*
G02*
X43892403Y-54122666I1122334J-77403D01*
G01*
X43892403Y-54122666D01*
G75*
G02*
X44937334Y-55322403I-77403J-1122334D01*
G01*
X44897334Y-55902403D01*
G75*
G02*
X43697597Y-56947334I-1122334J77403D01*
G01*
G37*
%TD*%
D11*
%TO.C,MX6*%
X46355000Y-41275000D03*
X36195000Y-41275000D03*
D12*
X38775000Y-37275000D03*
D13*
X41275000Y-41275000D03*
G36*
G01*
X36713688Y-39572350D02*
X36713683Y-39572345D01*
G75*
G02*
X36627655Y-37983683I751317J837345D01*
G01*
X37937657Y-36523683D01*
G75*
G02*
X39526319Y-36437655I837345J-751317D01*
G01*
X39526319Y-36437655D01*
G75*
G02*
X39612347Y-38026317I-751317J-837345D01*
G01*
X38302345Y-39486317D01*
G75*
G02*
X36713683Y-39572345I-837345J751317D01*
G01*
G37*
D12*
X43815000Y-36195000D03*
G36*
G01*
X43698483Y-37897395D02*
X43697597Y-37897334D01*
G75*
G02*
X42652666Y-36697597I77403J1122334D01*
G01*
X42692666Y-36117597D01*
G75*
G02*
X43892403Y-35072666I1122334J-77403D01*
G01*
X43892403Y-35072666D01*
G75*
G02*
X44937334Y-36272403I-77403J-1122334D01*
G01*
X44897334Y-36852403D01*
G75*
G02*
X43697597Y-37897334I-1122334J77403D01*
G01*
G37*
%TD*%
D11*
%TO.C,MX5*%
X46355000Y-22225000D03*
X36195000Y-22225000D03*
D12*
X38775000Y-18225000D03*
D13*
X41275000Y-22225000D03*
G36*
G01*
X36713688Y-20522350D02*
X36713683Y-20522345D01*
G75*
G02*
X36627655Y-18933683I751317J837345D01*
G01*
X37937657Y-17473683D01*
G75*
G02*
X39526319Y-17387655I837345J-751317D01*
G01*
X39526319Y-17387655D01*
G75*
G02*
X39612347Y-18976317I-751317J-837345D01*
G01*
X38302345Y-20436317D01*
G75*
G02*
X36713683Y-20522345I-837345J751317D01*
G01*
G37*
D12*
X43815000Y-17145000D03*
G36*
G01*
X43698483Y-18847395D02*
X43697597Y-18847334D01*
G75*
G02*
X42652666Y-17647597I77403J1122334D01*
G01*
X42692666Y-17067597D01*
G75*
G02*
X43892403Y-16022666I1122334J-77403D01*
G01*
X43892403Y-16022666D01*
G75*
G02*
X44937334Y-17222403I-77403J-1122334D01*
G01*
X44897334Y-17802403D01*
G75*
G02*
X43697597Y-18847334I-1122334J77403D01*
G01*
G37*
%TD*%
D11*
%TO.C,MX4*%
X27305000Y-79375000D03*
X17145000Y-79375000D03*
D12*
X19725000Y-75375000D03*
D13*
X22225000Y-79375000D03*
G36*
G01*
X17663688Y-77672350D02*
X17663683Y-77672345D01*
G75*
G02*
X17577655Y-76083683I751317J837345D01*
G01*
X18887657Y-74623683D01*
G75*
G02*
X20476319Y-74537655I837345J-751317D01*
G01*
X20476319Y-74537655D01*
G75*
G02*
X20562347Y-76126317I-751317J-837345D01*
G01*
X19252345Y-77586317D01*
G75*
G02*
X17663683Y-77672345I-837345J751317D01*
G01*
G37*
D12*
X24765000Y-74295000D03*
G36*
G01*
X24648483Y-75997395D02*
X24647597Y-75997334D01*
G75*
G02*
X23602666Y-74797597I77403J1122334D01*
G01*
X23642666Y-74217597D01*
G75*
G02*
X24842403Y-73172666I1122334J-77403D01*
G01*
X24842403Y-73172666D01*
G75*
G02*
X25887334Y-74372403I-77403J-1122334D01*
G01*
X25847334Y-74952403D01*
G75*
G02*
X24647597Y-75997334I-1122334J77403D01*
G01*
G37*
%TD*%
D11*
%TO.C,MX3*%
X27305000Y-60325000D03*
X17145000Y-60325000D03*
D12*
X19725000Y-56325000D03*
D13*
X22225000Y-60325000D03*
G36*
G01*
X17663688Y-58622350D02*
X17663683Y-58622345D01*
G75*
G02*
X17577655Y-57033683I751317J837345D01*
G01*
X18887657Y-55573683D01*
G75*
G02*
X20476319Y-55487655I837345J-751317D01*
G01*
X20476319Y-55487655D01*
G75*
G02*
X20562347Y-57076317I-751317J-837345D01*
G01*
X19252345Y-58536317D01*
G75*
G02*
X17663683Y-58622345I-837345J751317D01*
G01*
G37*
D12*
X24765000Y-55245000D03*
G36*
G01*
X24648483Y-56947395D02*
X24647597Y-56947334D01*
G75*
G02*
X23602666Y-55747597I77403J1122334D01*
G01*
X23642666Y-55167597D01*
G75*
G02*
X24842403Y-54122666I1122334J-77403D01*
G01*
X24842403Y-54122666D01*
G75*
G02*
X25887334Y-55322403I-77403J-1122334D01*
G01*
X25847334Y-55902403D01*
G75*
G02*
X24647597Y-56947334I-1122334J77403D01*
G01*
G37*
%TD*%
D11*
%TO.C,MX2*%
X27305000Y-41275000D03*
X17145000Y-41275000D03*
D12*
X19725000Y-37275000D03*
D13*
X22225000Y-41275000D03*
G36*
G01*
X17663688Y-39572350D02*
X17663683Y-39572345D01*
G75*
G02*
X17577655Y-37983683I751317J837345D01*
G01*
X18887657Y-36523683D01*
G75*
G02*
X20476319Y-36437655I837345J-751317D01*
G01*
X20476319Y-36437655D01*
G75*
G02*
X20562347Y-38026317I-751317J-837345D01*
G01*
X19252345Y-39486317D01*
G75*
G02*
X17663683Y-39572345I-837345J751317D01*
G01*
G37*
D12*
X24765000Y-36195000D03*
G36*
G01*
X24648483Y-37897395D02*
X24647597Y-37897334D01*
G75*
G02*
X23602666Y-36697597I77403J1122334D01*
G01*
X23642666Y-36117597D01*
G75*
G02*
X24842403Y-35072666I1122334J-77403D01*
G01*
X24842403Y-35072666D01*
G75*
G02*
X25887334Y-36272403I-77403J-1122334D01*
G01*
X25847334Y-36852403D01*
G75*
G02*
X24647597Y-37897334I-1122334J77403D01*
G01*
G37*
%TD*%
D11*
%TO.C,MX1*%
X27305000Y-22225000D03*
X17145000Y-22225000D03*
D12*
X19725000Y-18225000D03*
D13*
X22225000Y-22225000D03*
G36*
G01*
X17663688Y-20522350D02*
X17663683Y-20522345D01*
G75*
G02*
X17577655Y-18933683I751317J837345D01*
G01*
X18887657Y-17473683D01*
G75*
G02*
X20476319Y-17387655I837345J-751317D01*
G01*
X20476319Y-17387655D01*
G75*
G02*
X20562347Y-18976317I-751317J-837345D01*
G01*
X19252345Y-20436317D01*
G75*
G02*
X17663683Y-20522345I-837345J751317D01*
G01*
G37*
D12*
X24765000Y-17145000D03*
G36*
G01*
X24648483Y-18847395D02*
X24647597Y-18847334D01*
G75*
G02*
X23602666Y-17647597I77403J1122334D01*
G01*
X23642666Y-17067597D01*
G75*
G02*
X24842403Y-16022666I1122334J-77403D01*
G01*
X24842403Y-16022666D01*
G75*
G02*
X25887334Y-17222403I-77403J-1122334D01*
G01*
X25847334Y-17802403D01*
G75*
G02*
X24647597Y-18847334I-1122334J77403D01*
G01*
G37*
%TD*%
%TO.C,F1*%
G36*
G01*
X182108000Y-88506000D02*
X180858000Y-88506000D01*
G75*
G02*
X180608000Y-88256000I0J250000D01*
G01*
X180608000Y-87506000D01*
G75*
G02*
X180858000Y-87256000I250000J0D01*
G01*
X182108000Y-87256000D01*
G75*
G02*
X182358000Y-87506000I0J-250000D01*
G01*
X182358000Y-88256000D01*
G75*
G02*
X182108000Y-88506000I-250000J0D01*
G01*
G37*
G36*
G01*
X182108000Y-91306000D02*
X180858000Y-91306000D01*
G75*
G02*
X180608000Y-91056000I0J250000D01*
G01*
X180608000Y-90306000D01*
G75*
G02*
X180858000Y-90056000I250000J0D01*
G01*
X182108000Y-90056000D01*
G75*
G02*
X182358000Y-90306000I0J-250000D01*
G01*
X182358000Y-91056000D01*
G75*
G02*
X182108000Y-91306000I-250000J0D01*
G01*
G37*
%TD*%
D20*
%TO.C,D46*%
X201612500Y-77725000D03*
X201612500Y-81025000D03*
%TD*%
%TO.C,D45*%
X201612500Y-58675000D03*
X201612500Y-61975000D03*
%TD*%
%TO.C,D44*%
X201612500Y-39625000D03*
X201612500Y-42925000D03*
%TD*%
%TO.C,D43*%
X201612500Y-20575000D03*
X201612500Y-23875000D03*
%TD*%
%TO.C,D42*%
X182562500Y-77725000D03*
X182562500Y-81025000D03*
%TD*%
%TO.C,D41*%
X182562500Y-58675000D03*
X182562500Y-61975000D03*
%TD*%
%TO.C,D40*%
X182562500Y-39625000D03*
X182562500Y-42925000D03*
%TD*%
%TO.C,D39*%
X182562500Y-20575000D03*
X182562500Y-23875000D03*
%TD*%
%TO.C,D38*%
X173037500Y-96775000D03*
X173037500Y-100075000D03*
%TD*%
%TO.C,D37*%
X163512500Y-77725000D03*
X163512500Y-81025000D03*
%TD*%
%TO.C,D36*%
X163512500Y-58675000D03*
X163512500Y-61975000D03*
%TD*%
%TO.C,D35*%
X163512500Y-39625000D03*
X163512500Y-42925000D03*
%TD*%
%TO.C,D34*%
X163512500Y-20575000D03*
X163512500Y-23875000D03*
%TD*%
%TO.C,D33*%
X153987500Y-96775000D03*
X153987500Y-100075000D03*
%TD*%
%TO.C,D32*%
X144462500Y-77725000D03*
X144462500Y-81025000D03*
%TD*%
%TO.C,D31*%
X144462500Y-58675000D03*
X144462500Y-61975000D03*
%TD*%
%TO.C,D30*%
X144462500Y-39625000D03*
X144462500Y-42925000D03*
%TD*%
%TO.C,D29*%
X144462500Y-20575000D03*
X144462500Y-23875000D03*
%TD*%
%TO.C,D28*%
X130175000Y-96775000D03*
X130175000Y-100075000D03*
%TD*%
%TO.C,D27*%
X125412500Y-77725000D03*
X125412500Y-81025000D03*
%TD*%
%TO.C,D26*%
X125412500Y-58675000D03*
X125412500Y-61975000D03*
%TD*%
%TO.C,D25*%
X125412500Y-39625000D03*
X125412500Y-42925000D03*
%TD*%
%TO.C,D24*%
X125412500Y-20575000D03*
X125412500Y-23875000D03*
%TD*%
%TO.C,D23*%
X101600000Y-96775000D03*
X101600000Y-100075000D03*
%TD*%
%TO.C,D22*%
X106362500Y-77725000D03*
X106362500Y-81025000D03*
%TD*%
%TO.C,D21*%
X106362500Y-58675000D03*
X106362500Y-61975000D03*
%TD*%
%TO.C,D20*%
X106362500Y-39625000D03*
X106362500Y-42925000D03*
%TD*%
%TO.C,D18*%
X77787500Y-96775000D03*
X77787500Y-100075000D03*
%TD*%
%TO.C,D17*%
X87312500Y-77725000D03*
X87312500Y-81025000D03*
%TD*%
%TO.C,D16*%
X87312500Y-58675000D03*
X87312500Y-61975000D03*
%TD*%
%TO.C,D15*%
X87312500Y-39625000D03*
X87312500Y-42925000D03*
%TD*%
%TO.C,D14*%
X87312500Y-20575000D03*
X87312500Y-23875000D03*
%TD*%
%TO.C,D13*%
X58737500Y-96775000D03*
X58737500Y-100075000D03*
%TD*%
%TO.C,D12*%
X68262500Y-77725000D03*
X68262500Y-81025000D03*
%TD*%
%TO.C,D11*%
X68262500Y-58675000D03*
X68262500Y-61975000D03*
%TD*%
%TO.C,D10*%
X68262500Y-39625000D03*
X68262500Y-42925000D03*
%TD*%
%TO.C,D9*%
X68262500Y-20575000D03*
X68262500Y-23875000D03*
%TD*%
%TO.C,D8*%
X49212500Y-77725000D03*
X49212500Y-81025000D03*
%TD*%
%TO.C,D7*%
X49212500Y-58675000D03*
X49212500Y-61975000D03*
%TD*%
%TO.C,D6*%
X49212500Y-39625000D03*
X49212500Y-42925000D03*
%TD*%
%TO.C,D5*%
X49212500Y-20575000D03*
X49212500Y-23875000D03*
%TD*%
%TO.C,D4*%
X30162500Y-77725000D03*
X30162500Y-81025000D03*
%TD*%
%TO.C,D3*%
X30162500Y-58675000D03*
X30162500Y-61975000D03*
%TD*%
%TO.C,D2*%
X30162500Y-39625000D03*
X30162500Y-42925000D03*
%TD*%
%TO.C,D1*%
X30162500Y-20575000D03*
X30162500Y-23875000D03*
%TD*%
%TO.C,C7*%
G36*
G01*
X181008000Y-95065000D02*
X181958000Y-95065000D01*
G75*
G02*
X182208000Y-95315000I0J-250000D01*
G01*
X182208000Y-95815000D01*
G75*
G02*
X181958000Y-96065000I-250000J0D01*
G01*
X181008000Y-96065000D01*
G75*
G02*
X180758000Y-95815000I0J250000D01*
G01*
X180758000Y-95315000D01*
G75*
G02*
X181008000Y-95065000I250000J0D01*
G01*
G37*
G36*
G01*
X181008000Y-93165000D02*
X181958000Y-93165000D01*
G75*
G02*
X182208000Y-93415000I0J-250000D01*
G01*
X182208000Y-93915000D01*
G75*
G02*
X181958000Y-94165000I-250000J0D01*
G01*
X181008000Y-94165000D01*
G75*
G02*
X180758000Y-93915000I0J250000D01*
G01*
X180758000Y-93415000D01*
G75*
G02*
X181008000Y-93165000I250000J0D01*
G01*
G37*
%TD*%
%TO.C,C6*%
G36*
G01*
X192372000Y-87180000D02*
X191422000Y-87180000D01*
G75*
G02*
X191172000Y-86930000I0J250000D01*
G01*
X191172000Y-86430000D01*
G75*
G02*
X191422000Y-86180000I250000J0D01*
G01*
X192372000Y-86180000D01*
G75*
G02*
X192622000Y-86430000I0J-250000D01*
G01*
X192622000Y-86930000D01*
G75*
G02*
X192372000Y-87180000I-250000J0D01*
G01*
G37*
G36*
G01*
X192372000Y-89080000D02*
X191422000Y-89080000D01*
G75*
G02*
X191172000Y-88830000I0J250000D01*
G01*
X191172000Y-88330000D01*
G75*
G02*
X191422000Y-88080000I250000J0D01*
G01*
X192372000Y-88080000D01*
G75*
G02*
X192622000Y-88330000I0J-250000D01*
G01*
X192622000Y-88830000D01*
G75*
G02*
X192372000Y-89080000I-250000J0D01*
G01*
G37*
%TD*%
%TO.C,C5*%
G36*
G01*
X199332000Y-92677000D02*
X199332000Y-91727000D01*
G75*
G02*
X199582000Y-91477000I250000J0D01*
G01*
X200082000Y-91477000D01*
G75*
G02*
X200332000Y-91727000I0J-250000D01*
G01*
X200332000Y-92677000D01*
G75*
G02*
X200082000Y-92927000I-250000J0D01*
G01*
X199582000Y-92927000D01*
G75*
G02*
X199332000Y-92677000I0J250000D01*
G01*
G37*
G36*
G01*
X197432000Y-92677000D02*
X197432000Y-91727000D01*
G75*
G02*
X197682000Y-91477000I250000J0D01*
G01*
X198182000Y-91477000D01*
G75*
G02*
X198432000Y-91727000I0J-250000D01*
G01*
X198432000Y-92677000D01*
G75*
G02*
X198182000Y-92927000I-250000J0D01*
G01*
X197682000Y-92927000D01*
G75*
G02*
X197432000Y-92677000I0J250000D01*
G01*
G37*
%TD*%
%TO.C,C4*%
G36*
G01*
X198940000Y-94394000D02*
X198940000Y-95344000D01*
G75*
G02*
X198690000Y-95594000I-250000J0D01*
G01*
X198190000Y-95594000D01*
G75*
G02*
X197940000Y-95344000I0J250000D01*
G01*
X197940000Y-94394000D01*
G75*
G02*
X198190000Y-94144000I250000J0D01*
G01*
X198690000Y-94144000D01*
G75*
G02*
X198940000Y-94394000I0J-250000D01*
G01*
G37*
G36*
G01*
X200840000Y-94394000D02*
X200840000Y-95344000D01*
G75*
G02*
X200590000Y-95594000I-250000J0D01*
G01*
X200090000Y-95594000D01*
G75*
G02*
X199840000Y-95344000I0J250000D01*
G01*
X199840000Y-94394000D01*
G75*
G02*
X200090000Y-94144000I250000J0D01*
G01*
X200590000Y-94144000D01*
G75*
G02*
X200840000Y-94394000I0J-250000D01*
G01*
G37*
%TD*%
%TO.C,C3*%
G36*
G01*
X199713000Y-103218000D02*
X199713000Y-102268000D01*
G75*
G02*
X199963000Y-102018000I250000J0D01*
G01*
X200463000Y-102018000D01*
G75*
G02*
X200713000Y-102268000I0J-250000D01*
G01*
X200713000Y-103218000D01*
G75*
G02*
X200463000Y-103468000I-250000J0D01*
G01*
X199963000Y-103468000D01*
G75*
G02*
X199713000Y-103218000I0J250000D01*
G01*
G37*
G36*
G01*
X197813000Y-103218000D02*
X197813000Y-102268000D01*
G75*
G02*
X198063000Y-102018000I250000J0D01*
G01*
X198563000Y-102018000D01*
G75*
G02*
X198813000Y-102268000I0J-250000D01*
G01*
X198813000Y-103218000D01*
G75*
G02*
X198563000Y-103468000I-250000J0D01*
G01*
X198063000Y-103468000D01*
G75*
G02*
X197813000Y-103218000I0J250000D01*
G01*
G37*
%TD*%
%TO.C,C2*%
G36*
G01*
X180525000Y-102268000D02*
X180525000Y-103218000D01*
G75*
G02*
X180275000Y-103468000I-250000J0D01*
G01*
X179775000Y-103468000D01*
G75*
G02*
X179525000Y-103218000I0J250000D01*
G01*
X179525000Y-102268000D01*
G75*
G02*
X179775000Y-102018000I250000J0D01*
G01*
X180275000Y-102018000D01*
G75*
G02*
X180525000Y-102268000I0J-250000D01*
G01*
G37*
G36*
G01*
X182425000Y-102268000D02*
X182425000Y-103218000D01*
G75*
G02*
X182175000Y-103468000I-250000J0D01*
G01*
X181675000Y-103468000D01*
G75*
G02*
X181425000Y-103218000I0J250000D01*
G01*
X181425000Y-102268000D01*
G75*
G02*
X181675000Y-102018000I250000J0D01*
G01*
X182175000Y-102018000D01*
G75*
G02*
X182425000Y-102268000I0J-250000D01*
G01*
G37*
%TD*%
%TO.C,C1*%
G36*
G01*
X199332000Y-105758000D02*
X199332000Y-104808000D01*
G75*
G02*
X199582000Y-104558000I250000J0D01*
G01*
X200082000Y-104558000D01*
G75*
G02*
X200332000Y-104808000I0J-250000D01*
G01*
X200332000Y-105758000D01*
G75*
G02*
X200082000Y-106008000I-250000J0D01*
G01*
X199582000Y-106008000D01*
G75*
G02*
X199332000Y-105758000I0J250000D01*
G01*
G37*
G36*
G01*
X197432000Y-105758000D02*
X197432000Y-104808000D01*
G75*
G02*
X197682000Y-104558000I250000J0D01*
G01*
X198182000Y-104558000D01*
G75*
G02*
X198432000Y-104808000I0J-250000D01*
G01*
X198432000Y-105758000D01*
G75*
G02*
X198182000Y-106008000I-250000J0D01*
G01*
X197682000Y-106008000D01*
G75*
G02*
X197432000Y-105758000I0J250000D01*
G01*
G37*
%TD*%
M02*
