%TF.GenerationSoftware,KiCad,Pcbnew,(5.1.12)-1*%
%TF.CreationDate,2022-01-03T12:53:35-05:00*%
%TF.ProjectId,my-keeb,6d792d6b-6565-4622-9e6b-696361645f70,rev?*%
%TF.SameCoordinates,Original*%
%TF.FileFunction,Copper,L1,Top*%
%TF.FilePolarity,Positive*%
%FSLAX46Y46*%
G04 Gerber Fmt 4.6, Leading zero omitted, Abs format (unit mm)*
G04 Created by KiCad (PCBNEW (5.1.12)-1) date 2022-01-03 12:53:35*
%MOMM*%
%LPD*%
G01*
G04 APERTURE LIST*
%TA.AperFunction,ComponentPad*%
%ADD10C,2.250000*%
%TD*%
%TA.AperFunction,ComponentPad*%
%ADD11O,1.700000X2.700000*%
%TD*%
%TA.AperFunction,ViaPad*%
%ADD12C,0.800000*%
%TD*%
%TA.AperFunction,Conductor*%
%ADD13C,0.381000*%
%TD*%
%TA.AperFunction,Conductor*%
%ADD14C,0.254000*%
%TD*%
G04 APERTURE END LIST*
D10*
%TO.P,MX43,1*%
%TO.N,COL9*%
X191175000Y-18225000D03*
%TA.AperFunction,ComponentPad*%
G36*
G01*
X189113688Y-20522350D02*
X189113683Y-20522345D01*
G75*
G02*
X189027655Y-18933683I751317J837345D01*
G01*
X190337657Y-17473683D01*
G75*
G02*
X191926319Y-17387655I837345J-751317D01*
G01*
X191926319Y-17387655D01*
G75*
G02*
X192012347Y-18976317I-751317J-837345D01*
G01*
X190702345Y-20436317D01*
G75*
G02*
X189113683Y-20522345I-837345J751317D01*
G01*
G37*
%TD.AperFunction*%
%TO.P,MX43,2*%
%TO.N,Net-(D43-Pad2)*%
X196215000Y-17145000D03*
%TA.AperFunction,ComponentPad*%
G36*
G01*
X196098483Y-18847395D02*
X196097597Y-18847334D01*
G75*
G02*
X195052666Y-17647597I77403J1122334D01*
G01*
X195092666Y-17067597D01*
G75*
G02*
X196292403Y-16022666I1122334J-77403D01*
G01*
X196292403Y-16022666D01*
G75*
G02*
X197337334Y-17222403I-77403J-1122334D01*
G01*
X197297334Y-17802403D01*
G75*
G02*
X196097597Y-18847334I-1122334J77403D01*
G01*
G37*
%TD.AperFunction*%
%TD*%
D11*
%TO.P,USB1,6*%
%TO.N,Net-(USB1-Pad6)*%
X104300000Y-9271000D03*
X111600000Y-9271000D03*
X111600000Y-13771000D03*
X104300000Y-13771000D03*
%TD*%
D10*
%TO.P,MX46,1*%
%TO.N,COL9*%
X191175000Y-75375000D03*
%TA.AperFunction,ComponentPad*%
G36*
G01*
X189113688Y-77672350D02*
X189113683Y-77672345D01*
G75*
G02*
X189027655Y-76083683I751317J837345D01*
G01*
X190337657Y-74623683D01*
G75*
G02*
X191926319Y-74537655I837345J-751317D01*
G01*
X191926319Y-74537655D01*
G75*
G02*
X192012347Y-76126317I-751317J-837345D01*
G01*
X190702345Y-77586317D01*
G75*
G02*
X189113683Y-77672345I-837345J751317D01*
G01*
G37*
%TD.AperFunction*%
%TO.P,MX46,2*%
%TO.N,Net-(D46-Pad2)*%
X196215000Y-74295000D03*
%TA.AperFunction,ComponentPad*%
G36*
G01*
X196098483Y-75997395D02*
X196097597Y-75997334D01*
G75*
G02*
X195052666Y-74797597I77403J1122334D01*
G01*
X195092666Y-74217597D01*
G75*
G02*
X196292403Y-73172666I1122334J-77403D01*
G01*
X196292403Y-73172666D01*
G75*
G02*
X197337334Y-74372403I-77403J-1122334D01*
G01*
X197297334Y-74952403D01*
G75*
G02*
X196097597Y-75997334I-1122334J77403D01*
G01*
G37*
%TD.AperFunction*%
%TD*%
%TO.P,MX45,1*%
%TO.N,COL9*%
X191175000Y-56325000D03*
%TA.AperFunction,ComponentPad*%
G36*
G01*
X189113688Y-58622350D02*
X189113683Y-58622345D01*
G75*
G02*
X189027655Y-57033683I751317J837345D01*
G01*
X190337657Y-55573683D01*
G75*
G02*
X191926319Y-55487655I837345J-751317D01*
G01*
X191926319Y-55487655D01*
G75*
G02*
X192012347Y-57076317I-751317J-837345D01*
G01*
X190702345Y-58536317D01*
G75*
G02*
X189113683Y-58622345I-837345J751317D01*
G01*
G37*
%TD.AperFunction*%
%TO.P,MX45,2*%
%TO.N,Net-(D45-Pad2)*%
X196215000Y-55245000D03*
%TA.AperFunction,ComponentPad*%
G36*
G01*
X196098483Y-56947395D02*
X196097597Y-56947334D01*
G75*
G02*
X195052666Y-55747597I77403J1122334D01*
G01*
X195092666Y-55167597D01*
G75*
G02*
X196292403Y-54122666I1122334J-77403D01*
G01*
X196292403Y-54122666D01*
G75*
G02*
X197337334Y-55322403I-77403J-1122334D01*
G01*
X197297334Y-55902403D01*
G75*
G02*
X196097597Y-56947334I-1122334J77403D01*
G01*
G37*
%TD.AperFunction*%
%TD*%
%TO.P,MX44,1*%
%TO.N,COL9*%
X191175000Y-37275000D03*
%TA.AperFunction,ComponentPad*%
G36*
G01*
X189113688Y-39572350D02*
X189113683Y-39572345D01*
G75*
G02*
X189027655Y-37983683I751317J837345D01*
G01*
X190337657Y-36523683D01*
G75*
G02*
X191926319Y-36437655I837345J-751317D01*
G01*
X191926319Y-36437655D01*
G75*
G02*
X192012347Y-38026317I-751317J-837345D01*
G01*
X190702345Y-39486317D01*
G75*
G02*
X189113683Y-39572345I-837345J751317D01*
G01*
G37*
%TD.AperFunction*%
%TO.P,MX44,2*%
%TO.N,Net-(D44-Pad2)*%
X196215000Y-36195000D03*
%TA.AperFunction,ComponentPad*%
G36*
G01*
X196098483Y-37897395D02*
X196097597Y-37897334D01*
G75*
G02*
X195052666Y-36697597I77403J1122334D01*
G01*
X195092666Y-36117597D01*
G75*
G02*
X196292403Y-35072666I1122334J-77403D01*
G01*
X196292403Y-35072666D01*
G75*
G02*
X197337334Y-36272403I-77403J-1122334D01*
G01*
X197297334Y-36852403D01*
G75*
G02*
X196097597Y-37897334I-1122334J77403D01*
G01*
G37*
%TD.AperFunction*%
%TD*%
%TO.P,MX42,1*%
%TO.N,COL8*%
X172125000Y-75375000D03*
%TA.AperFunction,ComponentPad*%
G36*
G01*
X170063688Y-77672350D02*
X170063683Y-77672345D01*
G75*
G02*
X169977655Y-76083683I751317J837345D01*
G01*
X171287657Y-74623683D01*
G75*
G02*
X172876319Y-74537655I837345J-751317D01*
G01*
X172876319Y-74537655D01*
G75*
G02*
X172962347Y-76126317I-751317J-837345D01*
G01*
X171652345Y-77586317D01*
G75*
G02*
X170063683Y-77672345I-837345J751317D01*
G01*
G37*
%TD.AperFunction*%
%TO.P,MX42,2*%
%TO.N,Net-(D42-Pad2)*%
X177165000Y-74295000D03*
%TA.AperFunction,ComponentPad*%
G36*
G01*
X177048483Y-75997395D02*
X177047597Y-75997334D01*
G75*
G02*
X176002666Y-74797597I77403J1122334D01*
G01*
X176042666Y-74217597D01*
G75*
G02*
X177242403Y-73172666I1122334J-77403D01*
G01*
X177242403Y-73172666D01*
G75*
G02*
X178287334Y-74372403I-77403J-1122334D01*
G01*
X178247334Y-74952403D01*
G75*
G02*
X177047597Y-75997334I-1122334J77403D01*
G01*
G37*
%TD.AperFunction*%
%TD*%
%TO.P,MX41,1*%
%TO.N,COL8*%
X172125000Y-56325000D03*
%TA.AperFunction,ComponentPad*%
G36*
G01*
X170063688Y-58622350D02*
X170063683Y-58622345D01*
G75*
G02*
X169977655Y-57033683I751317J837345D01*
G01*
X171287657Y-55573683D01*
G75*
G02*
X172876319Y-55487655I837345J-751317D01*
G01*
X172876319Y-55487655D01*
G75*
G02*
X172962347Y-57076317I-751317J-837345D01*
G01*
X171652345Y-58536317D01*
G75*
G02*
X170063683Y-58622345I-837345J751317D01*
G01*
G37*
%TD.AperFunction*%
%TO.P,MX41,2*%
%TO.N,Net-(D41-Pad2)*%
X177165000Y-55245000D03*
%TA.AperFunction,ComponentPad*%
G36*
G01*
X177048483Y-56947395D02*
X177047597Y-56947334D01*
G75*
G02*
X176002666Y-55747597I77403J1122334D01*
G01*
X176042666Y-55167597D01*
G75*
G02*
X177242403Y-54122666I1122334J-77403D01*
G01*
X177242403Y-54122666D01*
G75*
G02*
X178287334Y-55322403I-77403J-1122334D01*
G01*
X178247334Y-55902403D01*
G75*
G02*
X177047597Y-56947334I-1122334J77403D01*
G01*
G37*
%TD.AperFunction*%
%TD*%
%TO.P,MX40,1*%
%TO.N,COL8*%
X172125000Y-37275000D03*
%TA.AperFunction,ComponentPad*%
G36*
G01*
X170063688Y-39572350D02*
X170063683Y-39572345D01*
G75*
G02*
X169977655Y-37983683I751317J837345D01*
G01*
X171287657Y-36523683D01*
G75*
G02*
X172876319Y-36437655I837345J-751317D01*
G01*
X172876319Y-36437655D01*
G75*
G02*
X172962347Y-38026317I-751317J-837345D01*
G01*
X171652345Y-39486317D01*
G75*
G02*
X170063683Y-39572345I-837345J751317D01*
G01*
G37*
%TD.AperFunction*%
%TO.P,MX40,2*%
%TO.N,Net-(D40-Pad2)*%
X177165000Y-36195000D03*
%TA.AperFunction,ComponentPad*%
G36*
G01*
X177048483Y-37897395D02*
X177047597Y-37897334D01*
G75*
G02*
X176002666Y-36697597I77403J1122334D01*
G01*
X176042666Y-36117597D01*
G75*
G02*
X177242403Y-35072666I1122334J-77403D01*
G01*
X177242403Y-35072666D01*
G75*
G02*
X178287334Y-36272403I-77403J-1122334D01*
G01*
X178247334Y-36852403D01*
G75*
G02*
X177047597Y-37897334I-1122334J77403D01*
G01*
G37*
%TD.AperFunction*%
%TD*%
%TO.P,MX39,1*%
%TO.N,COL8*%
X172125000Y-18225000D03*
%TA.AperFunction,ComponentPad*%
G36*
G01*
X170063688Y-20522350D02*
X170063683Y-20522345D01*
G75*
G02*
X169977655Y-18933683I751317J837345D01*
G01*
X171287657Y-17473683D01*
G75*
G02*
X172876319Y-17387655I837345J-751317D01*
G01*
X172876319Y-17387655D01*
G75*
G02*
X172962347Y-18976317I-751317J-837345D01*
G01*
X171652345Y-20436317D01*
G75*
G02*
X170063683Y-20522345I-837345J751317D01*
G01*
G37*
%TD.AperFunction*%
%TO.P,MX39,2*%
%TO.N,Net-(D39-Pad2)*%
X177165000Y-17145000D03*
%TA.AperFunction,ComponentPad*%
G36*
G01*
X177048483Y-18847395D02*
X177047597Y-18847334D01*
G75*
G02*
X176002666Y-17647597I77403J1122334D01*
G01*
X176042666Y-17067597D01*
G75*
G02*
X177242403Y-16022666I1122334J-77403D01*
G01*
X177242403Y-16022666D01*
G75*
G02*
X178287334Y-17222403I-77403J-1122334D01*
G01*
X178247334Y-17802403D01*
G75*
G02*
X177047597Y-18847334I-1122334J77403D01*
G01*
G37*
%TD.AperFunction*%
%TD*%
%TO.P,MX38,1*%
%TO.N,COL7*%
X162600000Y-94425000D03*
%TA.AperFunction,ComponentPad*%
G36*
G01*
X160538688Y-96722350D02*
X160538683Y-96722345D01*
G75*
G02*
X160452655Y-95133683I751317J837345D01*
G01*
X161762657Y-93673683D01*
G75*
G02*
X163351319Y-93587655I837345J-751317D01*
G01*
X163351319Y-93587655D01*
G75*
G02*
X163437347Y-95176317I-751317J-837345D01*
G01*
X162127345Y-96636317D01*
G75*
G02*
X160538683Y-96722345I-837345J751317D01*
G01*
G37*
%TD.AperFunction*%
%TO.P,MX38,2*%
%TO.N,Net-(D38-Pad2)*%
X167640000Y-93345000D03*
%TA.AperFunction,ComponentPad*%
G36*
G01*
X167523483Y-95047395D02*
X167522597Y-95047334D01*
G75*
G02*
X166477666Y-93847597I77403J1122334D01*
G01*
X166517666Y-93267597D01*
G75*
G02*
X167717403Y-92222666I1122334J-77403D01*
G01*
X167717403Y-92222666D01*
G75*
G02*
X168762334Y-93422403I-77403J-1122334D01*
G01*
X168722334Y-94002403D01*
G75*
G02*
X167522597Y-95047334I-1122334J77403D01*
G01*
G37*
%TD.AperFunction*%
%TD*%
%TO.P,MX37,1*%
%TO.N,COL7*%
X153075000Y-75375000D03*
%TA.AperFunction,ComponentPad*%
G36*
G01*
X151013688Y-77672350D02*
X151013683Y-77672345D01*
G75*
G02*
X150927655Y-76083683I751317J837345D01*
G01*
X152237657Y-74623683D01*
G75*
G02*
X153826319Y-74537655I837345J-751317D01*
G01*
X153826319Y-74537655D01*
G75*
G02*
X153912347Y-76126317I-751317J-837345D01*
G01*
X152602345Y-77586317D01*
G75*
G02*
X151013683Y-77672345I-837345J751317D01*
G01*
G37*
%TD.AperFunction*%
%TO.P,MX37,2*%
%TO.N,Net-(D37-Pad2)*%
X158115000Y-74295000D03*
%TA.AperFunction,ComponentPad*%
G36*
G01*
X157998483Y-75997395D02*
X157997597Y-75997334D01*
G75*
G02*
X156952666Y-74797597I77403J1122334D01*
G01*
X156992666Y-74217597D01*
G75*
G02*
X158192403Y-73172666I1122334J-77403D01*
G01*
X158192403Y-73172666D01*
G75*
G02*
X159237334Y-74372403I-77403J-1122334D01*
G01*
X159197334Y-74952403D01*
G75*
G02*
X157997597Y-75997334I-1122334J77403D01*
G01*
G37*
%TD.AperFunction*%
%TD*%
%TO.P,MX36,1*%
%TO.N,COL7*%
X153075000Y-56325000D03*
%TA.AperFunction,ComponentPad*%
G36*
G01*
X151013688Y-58622350D02*
X151013683Y-58622345D01*
G75*
G02*
X150927655Y-57033683I751317J837345D01*
G01*
X152237657Y-55573683D01*
G75*
G02*
X153826319Y-55487655I837345J-751317D01*
G01*
X153826319Y-55487655D01*
G75*
G02*
X153912347Y-57076317I-751317J-837345D01*
G01*
X152602345Y-58536317D01*
G75*
G02*
X151013683Y-58622345I-837345J751317D01*
G01*
G37*
%TD.AperFunction*%
%TO.P,MX36,2*%
%TO.N,Net-(D36-Pad2)*%
X158115000Y-55245000D03*
%TA.AperFunction,ComponentPad*%
G36*
G01*
X157998483Y-56947395D02*
X157997597Y-56947334D01*
G75*
G02*
X156952666Y-55747597I77403J1122334D01*
G01*
X156992666Y-55167597D01*
G75*
G02*
X158192403Y-54122666I1122334J-77403D01*
G01*
X158192403Y-54122666D01*
G75*
G02*
X159237334Y-55322403I-77403J-1122334D01*
G01*
X159197334Y-55902403D01*
G75*
G02*
X157997597Y-56947334I-1122334J77403D01*
G01*
G37*
%TD.AperFunction*%
%TD*%
%TO.P,MX35,1*%
%TO.N,COL7*%
X153075000Y-37275000D03*
%TA.AperFunction,ComponentPad*%
G36*
G01*
X151013688Y-39572350D02*
X151013683Y-39572345D01*
G75*
G02*
X150927655Y-37983683I751317J837345D01*
G01*
X152237657Y-36523683D01*
G75*
G02*
X153826319Y-36437655I837345J-751317D01*
G01*
X153826319Y-36437655D01*
G75*
G02*
X153912347Y-38026317I-751317J-837345D01*
G01*
X152602345Y-39486317D01*
G75*
G02*
X151013683Y-39572345I-837345J751317D01*
G01*
G37*
%TD.AperFunction*%
%TO.P,MX35,2*%
%TO.N,Net-(D35-Pad2)*%
X158115000Y-36195000D03*
%TA.AperFunction,ComponentPad*%
G36*
G01*
X157998483Y-37897395D02*
X157997597Y-37897334D01*
G75*
G02*
X156952666Y-36697597I77403J1122334D01*
G01*
X156992666Y-36117597D01*
G75*
G02*
X158192403Y-35072666I1122334J-77403D01*
G01*
X158192403Y-35072666D01*
G75*
G02*
X159237334Y-36272403I-77403J-1122334D01*
G01*
X159197334Y-36852403D01*
G75*
G02*
X157997597Y-37897334I-1122334J77403D01*
G01*
G37*
%TD.AperFunction*%
%TD*%
%TO.P,MX34,1*%
%TO.N,COL7*%
X153075000Y-18225000D03*
%TA.AperFunction,ComponentPad*%
G36*
G01*
X151013688Y-20522350D02*
X151013683Y-20522345D01*
G75*
G02*
X150927655Y-18933683I751317J837345D01*
G01*
X152237657Y-17473683D01*
G75*
G02*
X153826319Y-17387655I837345J-751317D01*
G01*
X153826319Y-17387655D01*
G75*
G02*
X153912347Y-18976317I-751317J-837345D01*
G01*
X152602345Y-20436317D01*
G75*
G02*
X151013683Y-20522345I-837345J751317D01*
G01*
G37*
%TD.AperFunction*%
%TO.P,MX34,2*%
%TO.N,Net-(D34-Pad2)*%
X158115000Y-17145000D03*
%TA.AperFunction,ComponentPad*%
G36*
G01*
X157998483Y-18847395D02*
X157997597Y-18847334D01*
G75*
G02*
X156952666Y-17647597I77403J1122334D01*
G01*
X156992666Y-17067597D01*
G75*
G02*
X158192403Y-16022666I1122334J-77403D01*
G01*
X158192403Y-16022666D01*
G75*
G02*
X159237334Y-17222403I-77403J-1122334D01*
G01*
X159197334Y-17802403D01*
G75*
G02*
X157997597Y-18847334I-1122334J77403D01*
G01*
G37*
%TD.AperFunction*%
%TD*%
%TO.P,MX33,1*%
%TO.N,COL6*%
X143550000Y-94425000D03*
%TA.AperFunction,ComponentPad*%
G36*
G01*
X141488688Y-96722350D02*
X141488683Y-96722345D01*
G75*
G02*
X141402655Y-95133683I751317J837345D01*
G01*
X142712657Y-93673683D01*
G75*
G02*
X144301319Y-93587655I837345J-751317D01*
G01*
X144301319Y-93587655D01*
G75*
G02*
X144387347Y-95176317I-751317J-837345D01*
G01*
X143077345Y-96636317D01*
G75*
G02*
X141488683Y-96722345I-837345J751317D01*
G01*
G37*
%TD.AperFunction*%
%TO.P,MX33,2*%
%TO.N,Net-(D33-Pad2)*%
X148590000Y-93345000D03*
%TA.AperFunction,ComponentPad*%
G36*
G01*
X148473483Y-95047395D02*
X148472597Y-95047334D01*
G75*
G02*
X147427666Y-93847597I77403J1122334D01*
G01*
X147467666Y-93267597D01*
G75*
G02*
X148667403Y-92222666I1122334J-77403D01*
G01*
X148667403Y-92222666D01*
G75*
G02*
X149712334Y-93422403I-77403J-1122334D01*
G01*
X149672334Y-94002403D01*
G75*
G02*
X148472597Y-95047334I-1122334J77403D01*
G01*
G37*
%TD.AperFunction*%
%TD*%
%TO.P,MX32,1*%
%TO.N,COL6*%
X134025000Y-75375000D03*
%TA.AperFunction,ComponentPad*%
G36*
G01*
X131963688Y-77672350D02*
X131963683Y-77672345D01*
G75*
G02*
X131877655Y-76083683I751317J837345D01*
G01*
X133187657Y-74623683D01*
G75*
G02*
X134776319Y-74537655I837345J-751317D01*
G01*
X134776319Y-74537655D01*
G75*
G02*
X134862347Y-76126317I-751317J-837345D01*
G01*
X133552345Y-77586317D01*
G75*
G02*
X131963683Y-77672345I-837345J751317D01*
G01*
G37*
%TD.AperFunction*%
%TO.P,MX32,2*%
%TO.N,Net-(D32-Pad2)*%
X139065000Y-74295000D03*
%TA.AperFunction,ComponentPad*%
G36*
G01*
X138948483Y-75997395D02*
X138947597Y-75997334D01*
G75*
G02*
X137902666Y-74797597I77403J1122334D01*
G01*
X137942666Y-74217597D01*
G75*
G02*
X139142403Y-73172666I1122334J-77403D01*
G01*
X139142403Y-73172666D01*
G75*
G02*
X140187334Y-74372403I-77403J-1122334D01*
G01*
X140147334Y-74952403D01*
G75*
G02*
X138947597Y-75997334I-1122334J77403D01*
G01*
G37*
%TD.AperFunction*%
%TD*%
%TO.P,MX31,1*%
%TO.N,COL6*%
X134025000Y-56325000D03*
%TA.AperFunction,ComponentPad*%
G36*
G01*
X131963688Y-58622350D02*
X131963683Y-58622345D01*
G75*
G02*
X131877655Y-57033683I751317J837345D01*
G01*
X133187657Y-55573683D01*
G75*
G02*
X134776319Y-55487655I837345J-751317D01*
G01*
X134776319Y-55487655D01*
G75*
G02*
X134862347Y-57076317I-751317J-837345D01*
G01*
X133552345Y-58536317D01*
G75*
G02*
X131963683Y-58622345I-837345J751317D01*
G01*
G37*
%TD.AperFunction*%
%TO.P,MX31,2*%
%TO.N,Net-(D31-Pad2)*%
X139065000Y-55245000D03*
%TA.AperFunction,ComponentPad*%
G36*
G01*
X138948483Y-56947395D02*
X138947597Y-56947334D01*
G75*
G02*
X137902666Y-55747597I77403J1122334D01*
G01*
X137942666Y-55167597D01*
G75*
G02*
X139142403Y-54122666I1122334J-77403D01*
G01*
X139142403Y-54122666D01*
G75*
G02*
X140187334Y-55322403I-77403J-1122334D01*
G01*
X140147334Y-55902403D01*
G75*
G02*
X138947597Y-56947334I-1122334J77403D01*
G01*
G37*
%TD.AperFunction*%
%TD*%
%TO.P,MX30,1*%
%TO.N,COL6*%
X134025000Y-37275000D03*
%TA.AperFunction,ComponentPad*%
G36*
G01*
X131963688Y-39572350D02*
X131963683Y-39572345D01*
G75*
G02*
X131877655Y-37983683I751317J837345D01*
G01*
X133187657Y-36523683D01*
G75*
G02*
X134776319Y-36437655I837345J-751317D01*
G01*
X134776319Y-36437655D01*
G75*
G02*
X134862347Y-38026317I-751317J-837345D01*
G01*
X133552345Y-39486317D01*
G75*
G02*
X131963683Y-39572345I-837345J751317D01*
G01*
G37*
%TD.AperFunction*%
%TO.P,MX30,2*%
%TO.N,Net-(D30-Pad2)*%
X139065000Y-36195000D03*
%TA.AperFunction,ComponentPad*%
G36*
G01*
X138948483Y-37897395D02*
X138947597Y-37897334D01*
G75*
G02*
X137902666Y-36697597I77403J1122334D01*
G01*
X137942666Y-36117597D01*
G75*
G02*
X139142403Y-35072666I1122334J-77403D01*
G01*
X139142403Y-35072666D01*
G75*
G02*
X140187334Y-36272403I-77403J-1122334D01*
G01*
X140147334Y-36852403D01*
G75*
G02*
X138947597Y-37897334I-1122334J77403D01*
G01*
G37*
%TD.AperFunction*%
%TD*%
%TO.P,MX29,1*%
%TO.N,COL6*%
X134025000Y-18225000D03*
%TA.AperFunction,ComponentPad*%
G36*
G01*
X131963688Y-20522350D02*
X131963683Y-20522345D01*
G75*
G02*
X131877655Y-18933683I751317J837345D01*
G01*
X133187657Y-17473683D01*
G75*
G02*
X134776319Y-17387655I837345J-751317D01*
G01*
X134776319Y-17387655D01*
G75*
G02*
X134862347Y-18976317I-751317J-837345D01*
G01*
X133552345Y-20436317D01*
G75*
G02*
X131963683Y-20522345I-837345J751317D01*
G01*
G37*
%TD.AperFunction*%
%TO.P,MX29,2*%
%TO.N,Net-(D29-Pad2)*%
X139065000Y-17145000D03*
%TA.AperFunction,ComponentPad*%
G36*
G01*
X138948483Y-18847395D02*
X138947597Y-18847334D01*
G75*
G02*
X137902666Y-17647597I77403J1122334D01*
G01*
X137942666Y-17067597D01*
G75*
G02*
X139142403Y-16022666I1122334J-77403D01*
G01*
X139142403Y-16022666D01*
G75*
G02*
X140187334Y-17222403I-77403J-1122334D01*
G01*
X140147334Y-17802403D01*
G75*
G02*
X138947597Y-18847334I-1122334J77403D01*
G01*
G37*
%TD.AperFunction*%
%TD*%
%TO.P,MX28,1*%
%TO.N,COL5*%
X119737500Y-94425000D03*
%TA.AperFunction,ComponentPad*%
G36*
G01*
X117676188Y-96722350D02*
X117676183Y-96722345D01*
G75*
G02*
X117590155Y-95133683I751317J837345D01*
G01*
X118900157Y-93673683D01*
G75*
G02*
X120488819Y-93587655I837345J-751317D01*
G01*
X120488819Y-93587655D01*
G75*
G02*
X120574847Y-95176317I-751317J-837345D01*
G01*
X119264845Y-96636317D01*
G75*
G02*
X117676183Y-96722345I-837345J751317D01*
G01*
G37*
%TD.AperFunction*%
%TO.P,MX28,2*%
%TO.N,Net-(D28-Pad2)*%
X124777500Y-93345000D03*
%TA.AperFunction,ComponentPad*%
G36*
G01*
X124660983Y-95047395D02*
X124660097Y-95047334D01*
G75*
G02*
X123615166Y-93847597I77403J1122334D01*
G01*
X123655166Y-93267597D01*
G75*
G02*
X124854903Y-92222666I1122334J-77403D01*
G01*
X124854903Y-92222666D01*
G75*
G02*
X125899834Y-93422403I-77403J-1122334D01*
G01*
X125859834Y-94002403D01*
G75*
G02*
X124660097Y-95047334I-1122334J77403D01*
G01*
G37*
%TD.AperFunction*%
%TD*%
%TO.P,MX27,1*%
%TO.N,COL5*%
X114975000Y-75375000D03*
%TA.AperFunction,ComponentPad*%
G36*
G01*
X112913688Y-77672350D02*
X112913683Y-77672345D01*
G75*
G02*
X112827655Y-76083683I751317J837345D01*
G01*
X114137657Y-74623683D01*
G75*
G02*
X115726319Y-74537655I837345J-751317D01*
G01*
X115726319Y-74537655D01*
G75*
G02*
X115812347Y-76126317I-751317J-837345D01*
G01*
X114502345Y-77586317D01*
G75*
G02*
X112913683Y-77672345I-837345J751317D01*
G01*
G37*
%TD.AperFunction*%
%TO.P,MX27,2*%
%TO.N,Net-(D27-Pad2)*%
X120015000Y-74295000D03*
%TA.AperFunction,ComponentPad*%
G36*
G01*
X119898483Y-75997395D02*
X119897597Y-75997334D01*
G75*
G02*
X118852666Y-74797597I77403J1122334D01*
G01*
X118892666Y-74217597D01*
G75*
G02*
X120092403Y-73172666I1122334J-77403D01*
G01*
X120092403Y-73172666D01*
G75*
G02*
X121137334Y-74372403I-77403J-1122334D01*
G01*
X121097334Y-74952403D01*
G75*
G02*
X119897597Y-75997334I-1122334J77403D01*
G01*
G37*
%TD.AperFunction*%
%TD*%
%TO.P,MX26,1*%
%TO.N,COL5*%
X114975000Y-56325000D03*
%TA.AperFunction,ComponentPad*%
G36*
G01*
X112913688Y-58622350D02*
X112913683Y-58622345D01*
G75*
G02*
X112827655Y-57033683I751317J837345D01*
G01*
X114137657Y-55573683D01*
G75*
G02*
X115726319Y-55487655I837345J-751317D01*
G01*
X115726319Y-55487655D01*
G75*
G02*
X115812347Y-57076317I-751317J-837345D01*
G01*
X114502345Y-58536317D01*
G75*
G02*
X112913683Y-58622345I-837345J751317D01*
G01*
G37*
%TD.AperFunction*%
%TO.P,MX26,2*%
%TO.N,Net-(D26-Pad2)*%
X120015000Y-55245000D03*
%TA.AperFunction,ComponentPad*%
G36*
G01*
X119898483Y-56947395D02*
X119897597Y-56947334D01*
G75*
G02*
X118852666Y-55747597I77403J1122334D01*
G01*
X118892666Y-55167597D01*
G75*
G02*
X120092403Y-54122666I1122334J-77403D01*
G01*
X120092403Y-54122666D01*
G75*
G02*
X121137334Y-55322403I-77403J-1122334D01*
G01*
X121097334Y-55902403D01*
G75*
G02*
X119897597Y-56947334I-1122334J77403D01*
G01*
G37*
%TD.AperFunction*%
%TD*%
%TO.P,MX25,1*%
%TO.N,COL5*%
X114975000Y-37275000D03*
%TA.AperFunction,ComponentPad*%
G36*
G01*
X112913688Y-39572350D02*
X112913683Y-39572345D01*
G75*
G02*
X112827655Y-37983683I751317J837345D01*
G01*
X114137657Y-36523683D01*
G75*
G02*
X115726319Y-36437655I837345J-751317D01*
G01*
X115726319Y-36437655D01*
G75*
G02*
X115812347Y-38026317I-751317J-837345D01*
G01*
X114502345Y-39486317D01*
G75*
G02*
X112913683Y-39572345I-837345J751317D01*
G01*
G37*
%TD.AperFunction*%
%TO.P,MX25,2*%
%TO.N,Net-(D25-Pad2)*%
X120015000Y-36195000D03*
%TA.AperFunction,ComponentPad*%
G36*
G01*
X119898483Y-37897395D02*
X119897597Y-37897334D01*
G75*
G02*
X118852666Y-36697597I77403J1122334D01*
G01*
X118892666Y-36117597D01*
G75*
G02*
X120092403Y-35072666I1122334J-77403D01*
G01*
X120092403Y-35072666D01*
G75*
G02*
X121137334Y-36272403I-77403J-1122334D01*
G01*
X121097334Y-36852403D01*
G75*
G02*
X119897597Y-37897334I-1122334J77403D01*
G01*
G37*
%TD.AperFunction*%
%TD*%
%TO.P,MX24,1*%
%TO.N,COL5*%
X114975000Y-18225000D03*
%TA.AperFunction,ComponentPad*%
G36*
G01*
X112913688Y-20522350D02*
X112913683Y-20522345D01*
G75*
G02*
X112827655Y-18933683I751317J837345D01*
G01*
X114137657Y-17473683D01*
G75*
G02*
X115726319Y-17387655I837345J-751317D01*
G01*
X115726319Y-17387655D01*
G75*
G02*
X115812347Y-18976317I-751317J-837345D01*
G01*
X114502345Y-20436317D01*
G75*
G02*
X112913683Y-20522345I-837345J751317D01*
G01*
G37*
%TD.AperFunction*%
%TO.P,MX24,2*%
%TO.N,Net-(D24-Pad2)*%
X120015000Y-17145000D03*
%TA.AperFunction,ComponentPad*%
G36*
G01*
X119898483Y-18847395D02*
X119897597Y-18847334D01*
G75*
G02*
X118852666Y-17647597I77403J1122334D01*
G01*
X118892666Y-17067597D01*
G75*
G02*
X120092403Y-16022666I1122334J-77403D01*
G01*
X120092403Y-16022666D01*
G75*
G02*
X121137334Y-17222403I-77403J-1122334D01*
G01*
X121097334Y-17802403D01*
G75*
G02*
X119897597Y-18847334I-1122334J77403D01*
G01*
G37*
%TD.AperFunction*%
%TD*%
%TO.P,MX23,1*%
%TO.N,COL4*%
X91162500Y-94425000D03*
%TA.AperFunction,ComponentPad*%
G36*
G01*
X89101188Y-96722350D02*
X89101183Y-96722345D01*
G75*
G02*
X89015155Y-95133683I751317J837345D01*
G01*
X90325157Y-93673683D01*
G75*
G02*
X91913819Y-93587655I837345J-751317D01*
G01*
X91913819Y-93587655D01*
G75*
G02*
X91999847Y-95176317I-751317J-837345D01*
G01*
X90689845Y-96636317D01*
G75*
G02*
X89101183Y-96722345I-837345J751317D01*
G01*
G37*
%TD.AperFunction*%
%TO.P,MX23,2*%
%TO.N,Net-(D23-Pad2)*%
X96202500Y-93345000D03*
%TA.AperFunction,ComponentPad*%
G36*
G01*
X96085983Y-95047395D02*
X96085097Y-95047334D01*
G75*
G02*
X95040166Y-93847597I77403J1122334D01*
G01*
X95080166Y-93267597D01*
G75*
G02*
X96279903Y-92222666I1122334J-77403D01*
G01*
X96279903Y-92222666D01*
G75*
G02*
X97324834Y-93422403I-77403J-1122334D01*
G01*
X97284834Y-94002403D01*
G75*
G02*
X96085097Y-95047334I-1122334J77403D01*
G01*
G37*
%TD.AperFunction*%
%TD*%
%TO.P,MX22,1*%
%TO.N,COL4*%
X95925000Y-75375000D03*
%TA.AperFunction,ComponentPad*%
G36*
G01*
X93863688Y-77672350D02*
X93863683Y-77672345D01*
G75*
G02*
X93777655Y-76083683I751317J837345D01*
G01*
X95087657Y-74623683D01*
G75*
G02*
X96676319Y-74537655I837345J-751317D01*
G01*
X96676319Y-74537655D01*
G75*
G02*
X96762347Y-76126317I-751317J-837345D01*
G01*
X95452345Y-77586317D01*
G75*
G02*
X93863683Y-77672345I-837345J751317D01*
G01*
G37*
%TD.AperFunction*%
%TO.P,MX22,2*%
%TO.N,Net-(D22-Pad2)*%
X100965000Y-74295000D03*
%TA.AperFunction,ComponentPad*%
G36*
G01*
X100848483Y-75997395D02*
X100847597Y-75997334D01*
G75*
G02*
X99802666Y-74797597I77403J1122334D01*
G01*
X99842666Y-74217597D01*
G75*
G02*
X101042403Y-73172666I1122334J-77403D01*
G01*
X101042403Y-73172666D01*
G75*
G02*
X102087334Y-74372403I-77403J-1122334D01*
G01*
X102047334Y-74952403D01*
G75*
G02*
X100847597Y-75997334I-1122334J77403D01*
G01*
G37*
%TD.AperFunction*%
%TD*%
%TO.P,MX21,1*%
%TO.N,COL4*%
X95925000Y-56325000D03*
%TA.AperFunction,ComponentPad*%
G36*
G01*
X93863688Y-58622350D02*
X93863683Y-58622345D01*
G75*
G02*
X93777655Y-57033683I751317J837345D01*
G01*
X95087657Y-55573683D01*
G75*
G02*
X96676319Y-55487655I837345J-751317D01*
G01*
X96676319Y-55487655D01*
G75*
G02*
X96762347Y-57076317I-751317J-837345D01*
G01*
X95452345Y-58536317D01*
G75*
G02*
X93863683Y-58622345I-837345J751317D01*
G01*
G37*
%TD.AperFunction*%
%TO.P,MX21,2*%
%TO.N,Net-(D21-Pad2)*%
X100965000Y-55245000D03*
%TA.AperFunction,ComponentPad*%
G36*
G01*
X100848483Y-56947395D02*
X100847597Y-56947334D01*
G75*
G02*
X99802666Y-55747597I77403J1122334D01*
G01*
X99842666Y-55167597D01*
G75*
G02*
X101042403Y-54122666I1122334J-77403D01*
G01*
X101042403Y-54122666D01*
G75*
G02*
X102087334Y-55322403I-77403J-1122334D01*
G01*
X102047334Y-55902403D01*
G75*
G02*
X100847597Y-56947334I-1122334J77403D01*
G01*
G37*
%TD.AperFunction*%
%TD*%
%TO.P,MX20,1*%
%TO.N,COL4*%
X95925000Y-37275000D03*
%TA.AperFunction,ComponentPad*%
G36*
G01*
X93863688Y-39572350D02*
X93863683Y-39572345D01*
G75*
G02*
X93777655Y-37983683I751317J837345D01*
G01*
X95087657Y-36523683D01*
G75*
G02*
X96676319Y-36437655I837345J-751317D01*
G01*
X96676319Y-36437655D01*
G75*
G02*
X96762347Y-38026317I-751317J-837345D01*
G01*
X95452345Y-39486317D01*
G75*
G02*
X93863683Y-39572345I-837345J751317D01*
G01*
G37*
%TD.AperFunction*%
%TO.P,MX20,2*%
%TO.N,Net-(D20-Pad2)*%
X100965000Y-36195000D03*
%TA.AperFunction,ComponentPad*%
G36*
G01*
X100848483Y-37897395D02*
X100847597Y-37897334D01*
G75*
G02*
X99802666Y-36697597I77403J1122334D01*
G01*
X99842666Y-36117597D01*
G75*
G02*
X101042403Y-35072666I1122334J-77403D01*
G01*
X101042403Y-35072666D01*
G75*
G02*
X102087334Y-36272403I-77403J-1122334D01*
G01*
X102047334Y-36852403D01*
G75*
G02*
X100847597Y-37897334I-1122334J77403D01*
G01*
G37*
%TD.AperFunction*%
%TD*%
%TO.P,MX19,1*%
%TO.N,COL4*%
X95925000Y-18225000D03*
%TA.AperFunction,ComponentPad*%
G36*
G01*
X93863688Y-20522350D02*
X93863683Y-20522345D01*
G75*
G02*
X93777655Y-18933683I751317J837345D01*
G01*
X95087657Y-17473683D01*
G75*
G02*
X96676319Y-17387655I837345J-751317D01*
G01*
X96676319Y-17387655D01*
G75*
G02*
X96762347Y-18976317I-751317J-837345D01*
G01*
X95452345Y-20436317D01*
G75*
G02*
X93863683Y-20522345I-837345J751317D01*
G01*
G37*
%TD.AperFunction*%
%TO.P,MX19,2*%
%TO.N,Net-(D19-Pad2)*%
X100965000Y-17145000D03*
%TA.AperFunction,ComponentPad*%
G36*
G01*
X100848483Y-18847395D02*
X100847597Y-18847334D01*
G75*
G02*
X99802666Y-17647597I77403J1122334D01*
G01*
X99842666Y-17067597D01*
G75*
G02*
X101042403Y-16022666I1122334J-77403D01*
G01*
X101042403Y-16022666D01*
G75*
G02*
X102087334Y-17222403I-77403J-1122334D01*
G01*
X102047334Y-17802403D01*
G75*
G02*
X100847597Y-18847334I-1122334J77403D01*
G01*
G37*
%TD.AperFunction*%
%TD*%
%TO.P,MX18,1*%
%TO.N,COL3*%
X67350000Y-94425000D03*
%TA.AperFunction,ComponentPad*%
G36*
G01*
X65288688Y-96722350D02*
X65288683Y-96722345D01*
G75*
G02*
X65202655Y-95133683I751317J837345D01*
G01*
X66512657Y-93673683D01*
G75*
G02*
X68101319Y-93587655I837345J-751317D01*
G01*
X68101319Y-93587655D01*
G75*
G02*
X68187347Y-95176317I-751317J-837345D01*
G01*
X66877345Y-96636317D01*
G75*
G02*
X65288683Y-96722345I-837345J751317D01*
G01*
G37*
%TD.AperFunction*%
%TO.P,MX18,2*%
%TO.N,Net-(D18-Pad2)*%
X72390000Y-93345000D03*
%TA.AperFunction,ComponentPad*%
G36*
G01*
X72273483Y-95047395D02*
X72272597Y-95047334D01*
G75*
G02*
X71227666Y-93847597I77403J1122334D01*
G01*
X71267666Y-93267597D01*
G75*
G02*
X72467403Y-92222666I1122334J-77403D01*
G01*
X72467403Y-92222666D01*
G75*
G02*
X73512334Y-93422403I-77403J-1122334D01*
G01*
X73472334Y-94002403D01*
G75*
G02*
X72272597Y-95047334I-1122334J77403D01*
G01*
G37*
%TD.AperFunction*%
%TD*%
%TO.P,MX17,1*%
%TO.N,COL3*%
X76875000Y-75375000D03*
%TA.AperFunction,ComponentPad*%
G36*
G01*
X74813688Y-77672350D02*
X74813683Y-77672345D01*
G75*
G02*
X74727655Y-76083683I751317J837345D01*
G01*
X76037657Y-74623683D01*
G75*
G02*
X77626319Y-74537655I837345J-751317D01*
G01*
X77626319Y-74537655D01*
G75*
G02*
X77712347Y-76126317I-751317J-837345D01*
G01*
X76402345Y-77586317D01*
G75*
G02*
X74813683Y-77672345I-837345J751317D01*
G01*
G37*
%TD.AperFunction*%
%TO.P,MX17,2*%
%TO.N,Net-(D17-Pad2)*%
X81915000Y-74295000D03*
%TA.AperFunction,ComponentPad*%
G36*
G01*
X81798483Y-75997395D02*
X81797597Y-75997334D01*
G75*
G02*
X80752666Y-74797597I77403J1122334D01*
G01*
X80792666Y-74217597D01*
G75*
G02*
X81992403Y-73172666I1122334J-77403D01*
G01*
X81992403Y-73172666D01*
G75*
G02*
X83037334Y-74372403I-77403J-1122334D01*
G01*
X82997334Y-74952403D01*
G75*
G02*
X81797597Y-75997334I-1122334J77403D01*
G01*
G37*
%TD.AperFunction*%
%TD*%
%TO.P,MX16,1*%
%TO.N,COL3*%
X76875000Y-56325000D03*
%TA.AperFunction,ComponentPad*%
G36*
G01*
X74813688Y-58622350D02*
X74813683Y-58622345D01*
G75*
G02*
X74727655Y-57033683I751317J837345D01*
G01*
X76037657Y-55573683D01*
G75*
G02*
X77626319Y-55487655I837345J-751317D01*
G01*
X77626319Y-55487655D01*
G75*
G02*
X77712347Y-57076317I-751317J-837345D01*
G01*
X76402345Y-58536317D01*
G75*
G02*
X74813683Y-58622345I-837345J751317D01*
G01*
G37*
%TD.AperFunction*%
%TO.P,MX16,2*%
%TO.N,Net-(D16-Pad2)*%
X81915000Y-55245000D03*
%TA.AperFunction,ComponentPad*%
G36*
G01*
X81798483Y-56947395D02*
X81797597Y-56947334D01*
G75*
G02*
X80752666Y-55747597I77403J1122334D01*
G01*
X80792666Y-55167597D01*
G75*
G02*
X81992403Y-54122666I1122334J-77403D01*
G01*
X81992403Y-54122666D01*
G75*
G02*
X83037334Y-55322403I-77403J-1122334D01*
G01*
X82997334Y-55902403D01*
G75*
G02*
X81797597Y-56947334I-1122334J77403D01*
G01*
G37*
%TD.AperFunction*%
%TD*%
%TO.P,MX15,1*%
%TO.N,COL3*%
X76875000Y-37275000D03*
%TA.AperFunction,ComponentPad*%
G36*
G01*
X74813688Y-39572350D02*
X74813683Y-39572345D01*
G75*
G02*
X74727655Y-37983683I751317J837345D01*
G01*
X76037657Y-36523683D01*
G75*
G02*
X77626319Y-36437655I837345J-751317D01*
G01*
X77626319Y-36437655D01*
G75*
G02*
X77712347Y-38026317I-751317J-837345D01*
G01*
X76402345Y-39486317D01*
G75*
G02*
X74813683Y-39572345I-837345J751317D01*
G01*
G37*
%TD.AperFunction*%
%TO.P,MX15,2*%
%TO.N,Net-(D15-Pad2)*%
X81915000Y-36195000D03*
%TA.AperFunction,ComponentPad*%
G36*
G01*
X81798483Y-37897395D02*
X81797597Y-37897334D01*
G75*
G02*
X80752666Y-36697597I77403J1122334D01*
G01*
X80792666Y-36117597D01*
G75*
G02*
X81992403Y-35072666I1122334J-77403D01*
G01*
X81992403Y-35072666D01*
G75*
G02*
X83037334Y-36272403I-77403J-1122334D01*
G01*
X82997334Y-36852403D01*
G75*
G02*
X81797597Y-37897334I-1122334J77403D01*
G01*
G37*
%TD.AperFunction*%
%TD*%
%TO.P,MX14,1*%
%TO.N,COL3*%
X76875000Y-18225000D03*
%TA.AperFunction,ComponentPad*%
G36*
G01*
X74813688Y-20522350D02*
X74813683Y-20522345D01*
G75*
G02*
X74727655Y-18933683I751317J837345D01*
G01*
X76037657Y-17473683D01*
G75*
G02*
X77626319Y-17387655I837345J-751317D01*
G01*
X77626319Y-17387655D01*
G75*
G02*
X77712347Y-18976317I-751317J-837345D01*
G01*
X76402345Y-20436317D01*
G75*
G02*
X74813683Y-20522345I-837345J751317D01*
G01*
G37*
%TD.AperFunction*%
%TO.P,MX14,2*%
%TO.N,Net-(D14-Pad2)*%
X81915000Y-17145000D03*
%TA.AperFunction,ComponentPad*%
G36*
G01*
X81798483Y-18847395D02*
X81797597Y-18847334D01*
G75*
G02*
X80752666Y-17647597I77403J1122334D01*
G01*
X80792666Y-17067597D01*
G75*
G02*
X81992403Y-16022666I1122334J-77403D01*
G01*
X81992403Y-16022666D01*
G75*
G02*
X83037334Y-17222403I-77403J-1122334D01*
G01*
X82997334Y-17802403D01*
G75*
G02*
X81797597Y-18847334I-1122334J77403D01*
G01*
G37*
%TD.AperFunction*%
%TD*%
%TO.P,MX13,1*%
%TO.N,COL2*%
X48300000Y-94425000D03*
%TA.AperFunction,ComponentPad*%
G36*
G01*
X46238688Y-96722350D02*
X46238683Y-96722345D01*
G75*
G02*
X46152655Y-95133683I751317J837345D01*
G01*
X47462657Y-93673683D01*
G75*
G02*
X49051319Y-93587655I837345J-751317D01*
G01*
X49051319Y-93587655D01*
G75*
G02*
X49137347Y-95176317I-751317J-837345D01*
G01*
X47827345Y-96636317D01*
G75*
G02*
X46238683Y-96722345I-837345J751317D01*
G01*
G37*
%TD.AperFunction*%
%TO.P,MX13,2*%
%TO.N,Net-(D13-Pad2)*%
X53340000Y-93345000D03*
%TA.AperFunction,ComponentPad*%
G36*
G01*
X53223483Y-95047395D02*
X53222597Y-95047334D01*
G75*
G02*
X52177666Y-93847597I77403J1122334D01*
G01*
X52217666Y-93267597D01*
G75*
G02*
X53417403Y-92222666I1122334J-77403D01*
G01*
X53417403Y-92222666D01*
G75*
G02*
X54462334Y-93422403I-77403J-1122334D01*
G01*
X54422334Y-94002403D01*
G75*
G02*
X53222597Y-95047334I-1122334J77403D01*
G01*
G37*
%TD.AperFunction*%
%TD*%
%TO.P,MX12,1*%
%TO.N,COL2*%
X57825000Y-75375000D03*
%TA.AperFunction,ComponentPad*%
G36*
G01*
X55763688Y-77672350D02*
X55763683Y-77672345D01*
G75*
G02*
X55677655Y-76083683I751317J837345D01*
G01*
X56987657Y-74623683D01*
G75*
G02*
X58576319Y-74537655I837345J-751317D01*
G01*
X58576319Y-74537655D01*
G75*
G02*
X58662347Y-76126317I-751317J-837345D01*
G01*
X57352345Y-77586317D01*
G75*
G02*
X55763683Y-77672345I-837345J751317D01*
G01*
G37*
%TD.AperFunction*%
%TO.P,MX12,2*%
%TO.N,Net-(D12-Pad2)*%
X62865000Y-74295000D03*
%TA.AperFunction,ComponentPad*%
G36*
G01*
X62748483Y-75997395D02*
X62747597Y-75997334D01*
G75*
G02*
X61702666Y-74797597I77403J1122334D01*
G01*
X61742666Y-74217597D01*
G75*
G02*
X62942403Y-73172666I1122334J-77403D01*
G01*
X62942403Y-73172666D01*
G75*
G02*
X63987334Y-74372403I-77403J-1122334D01*
G01*
X63947334Y-74952403D01*
G75*
G02*
X62747597Y-75997334I-1122334J77403D01*
G01*
G37*
%TD.AperFunction*%
%TD*%
%TO.P,MX11,1*%
%TO.N,COL2*%
X57825000Y-56325000D03*
%TA.AperFunction,ComponentPad*%
G36*
G01*
X55763688Y-58622350D02*
X55763683Y-58622345D01*
G75*
G02*
X55677655Y-57033683I751317J837345D01*
G01*
X56987657Y-55573683D01*
G75*
G02*
X58576319Y-55487655I837345J-751317D01*
G01*
X58576319Y-55487655D01*
G75*
G02*
X58662347Y-57076317I-751317J-837345D01*
G01*
X57352345Y-58536317D01*
G75*
G02*
X55763683Y-58622345I-837345J751317D01*
G01*
G37*
%TD.AperFunction*%
%TO.P,MX11,2*%
%TO.N,Net-(D11-Pad2)*%
X62865000Y-55245000D03*
%TA.AperFunction,ComponentPad*%
G36*
G01*
X62748483Y-56947395D02*
X62747597Y-56947334D01*
G75*
G02*
X61702666Y-55747597I77403J1122334D01*
G01*
X61742666Y-55167597D01*
G75*
G02*
X62942403Y-54122666I1122334J-77403D01*
G01*
X62942403Y-54122666D01*
G75*
G02*
X63987334Y-55322403I-77403J-1122334D01*
G01*
X63947334Y-55902403D01*
G75*
G02*
X62747597Y-56947334I-1122334J77403D01*
G01*
G37*
%TD.AperFunction*%
%TD*%
%TO.P,MX10,1*%
%TO.N,COL2*%
X57825000Y-37275000D03*
%TA.AperFunction,ComponentPad*%
G36*
G01*
X55763688Y-39572350D02*
X55763683Y-39572345D01*
G75*
G02*
X55677655Y-37983683I751317J837345D01*
G01*
X56987657Y-36523683D01*
G75*
G02*
X58576319Y-36437655I837345J-751317D01*
G01*
X58576319Y-36437655D01*
G75*
G02*
X58662347Y-38026317I-751317J-837345D01*
G01*
X57352345Y-39486317D01*
G75*
G02*
X55763683Y-39572345I-837345J751317D01*
G01*
G37*
%TD.AperFunction*%
%TO.P,MX10,2*%
%TO.N,Net-(D10-Pad2)*%
X62865000Y-36195000D03*
%TA.AperFunction,ComponentPad*%
G36*
G01*
X62748483Y-37897395D02*
X62747597Y-37897334D01*
G75*
G02*
X61702666Y-36697597I77403J1122334D01*
G01*
X61742666Y-36117597D01*
G75*
G02*
X62942403Y-35072666I1122334J-77403D01*
G01*
X62942403Y-35072666D01*
G75*
G02*
X63987334Y-36272403I-77403J-1122334D01*
G01*
X63947334Y-36852403D01*
G75*
G02*
X62747597Y-37897334I-1122334J77403D01*
G01*
G37*
%TD.AperFunction*%
%TD*%
%TO.P,MX9,1*%
%TO.N,COL2*%
X57825000Y-18225000D03*
%TA.AperFunction,ComponentPad*%
G36*
G01*
X55763688Y-20522350D02*
X55763683Y-20522345D01*
G75*
G02*
X55677655Y-18933683I751317J837345D01*
G01*
X56987657Y-17473683D01*
G75*
G02*
X58576319Y-17387655I837345J-751317D01*
G01*
X58576319Y-17387655D01*
G75*
G02*
X58662347Y-18976317I-751317J-837345D01*
G01*
X57352345Y-20436317D01*
G75*
G02*
X55763683Y-20522345I-837345J751317D01*
G01*
G37*
%TD.AperFunction*%
%TO.P,MX9,2*%
%TO.N,Net-(D9-Pad2)*%
X62865000Y-17145000D03*
%TA.AperFunction,ComponentPad*%
G36*
G01*
X62748483Y-18847395D02*
X62747597Y-18847334D01*
G75*
G02*
X61702666Y-17647597I77403J1122334D01*
G01*
X61742666Y-17067597D01*
G75*
G02*
X62942403Y-16022666I1122334J-77403D01*
G01*
X62942403Y-16022666D01*
G75*
G02*
X63987334Y-17222403I-77403J-1122334D01*
G01*
X63947334Y-17802403D01*
G75*
G02*
X62747597Y-18847334I-1122334J77403D01*
G01*
G37*
%TD.AperFunction*%
%TD*%
%TO.P,MX8,1*%
%TO.N,COL1*%
X38775000Y-75375000D03*
%TA.AperFunction,ComponentPad*%
G36*
G01*
X36713688Y-77672350D02*
X36713683Y-77672345D01*
G75*
G02*
X36627655Y-76083683I751317J837345D01*
G01*
X37937657Y-74623683D01*
G75*
G02*
X39526319Y-74537655I837345J-751317D01*
G01*
X39526319Y-74537655D01*
G75*
G02*
X39612347Y-76126317I-751317J-837345D01*
G01*
X38302345Y-77586317D01*
G75*
G02*
X36713683Y-77672345I-837345J751317D01*
G01*
G37*
%TD.AperFunction*%
%TO.P,MX8,2*%
%TO.N,Net-(D8-Pad2)*%
X43815000Y-74295000D03*
%TA.AperFunction,ComponentPad*%
G36*
G01*
X43698483Y-75997395D02*
X43697597Y-75997334D01*
G75*
G02*
X42652666Y-74797597I77403J1122334D01*
G01*
X42692666Y-74217597D01*
G75*
G02*
X43892403Y-73172666I1122334J-77403D01*
G01*
X43892403Y-73172666D01*
G75*
G02*
X44937334Y-74372403I-77403J-1122334D01*
G01*
X44897334Y-74952403D01*
G75*
G02*
X43697597Y-75997334I-1122334J77403D01*
G01*
G37*
%TD.AperFunction*%
%TD*%
%TO.P,MX7,1*%
%TO.N,COL1*%
X38775000Y-56325000D03*
%TA.AperFunction,ComponentPad*%
G36*
G01*
X36713688Y-58622350D02*
X36713683Y-58622345D01*
G75*
G02*
X36627655Y-57033683I751317J837345D01*
G01*
X37937657Y-55573683D01*
G75*
G02*
X39526319Y-55487655I837345J-751317D01*
G01*
X39526319Y-55487655D01*
G75*
G02*
X39612347Y-57076317I-751317J-837345D01*
G01*
X38302345Y-58536317D01*
G75*
G02*
X36713683Y-58622345I-837345J751317D01*
G01*
G37*
%TD.AperFunction*%
%TO.P,MX7,2*%
%TO.N,Net-(D7-Pad2)*%
X43815000Y-55245000D03*
%TA.AperFunction,ComponentPad*%
G36*
G01*
X43698483Y-56947395D02*
X43697597Y-56947334D01*
G75*
G02*
X42652666Y-55747597I77403J1122334D01*
G01*
X42692666Y-55167597D01*
G75*
G02*
X43892403Y-54122666I1122334J-77403D01*
G01*
X43892403Y-54122666D01*
G75*
G02*
X44937334Y-55322403I-77403J-1122334D01*
G01*
X44897334Y-55902403D01*
G75*
G02*
X43697597Y-56947334I-1122334J77403D01*
G01*
G37*
%TD.AperFunction*%
%TD*%
%TO.P,MX6,1*%
%TO.N,COL1*%
X38775000Y-37275000D03*
%TA.AperFunction,ComponentPad*%
G36*
G01*
X36713688Y-39572350D02*
X36713683Y-39572345D01*
G75*
G02*
X36627655Y-37983683I751317J837345D01*
G01*
X37937657Y-36523683D01*
G75*
G02*
X39526319Y-36437655I837345J-751317D01*
G01*
X39526319Y-36437655D01*
G75*
G02*
X39612347Y-38026317I-751317J-837345D01*
G01*
X38302345Y-39486317D01*
G75*
G02*
X36713683Y-39572345I-837345J751317D01*
G01*
G37*
%TD.AperFunction*%
%TO.P,MX6,2*%
%TO.N,Net-(D6-Pad2)*%
X43815000Y-36195000D03*
%TA.AperFunction,ComponentPad*%
G36*
G01*
X43698483Y-37897395D02*
X43697597Y-37897334D01*
G75*
G02*
X42652666Y-36697597I77403J1122334D01*
G01*
X42692666Y-36117597D01*
G75*
G02*
X43892403Y-35072666I1122334J-77403D01*
G01*
X43892403Y-35072666D01*
G75*
G02*
X44937334Y-36272403I-77403J-1122334D01*
G01*
X44897334Y-36852403D01*
G75*
G02*
X43697597Y-37897334I-1122334J77403D01*
G01*
G37*
%TD.AperFunction*%
%TD*%
%TO.P,MX5,1*%
%TO.N,COL1*%
X38775000Y-18225000D03*
%TA.AperFunction,ComponentPad*%
G36*
G01*
X36713688Y-20522350D02*
X36713683Y-20522345D01*
G75*
G02*
X36627655Y-18933683I751317J837345D01*
G01*
X37937657Y-17473683D01*
G75*
G02*
X39526319Y-17387655I837345J-751317D01*
G01*
X39526319Y-17387655D01*
G75*
G02*
X39612347Y-18976317I-751317J-837345D01*
G01*
X38302345Y-20436317D01*
G75*
G02*
X36713683Y-20522345I-837345J751317D01*
G01*
G37*
%TD.AperFunction*%
%TO.P,MX5,2*%
%TO.N,Net-(D5-Pad2)*%
X43815000Y-17145000D03*
%TA.AperFunction,ComponentPad*%
G36*
G01*
X43698483Y-18847395D02*
X43697597Y-18847334D01*
G75*
G02*
X42652666Y-17647597I77403J1122334D01*
G01*
X42692666Y-17067597D01*
G75*
G02*
X43892403Y-16022666I1122334J-77403D01*
G01*
X43892403Y-16022666D01*
G75*
G02*
X44937334Y-17222403I-77403J-1122334D01*
G01*
X44897334Y-17802403D01*
G75*
G02*
X43697597Y-18847334I-1122334J77403D01*
G01*
G37*
%TD.AperFunction*%
%TD*%
%TO.P,MX4,1*%
%TO.N,COL0*%
X19725000Y-75375000D03*
%TA.AperFunction,ComponentPad*%
G36*
G01*
X17663688Y-77672350D02*
X17663683Y-77672345D01*
G75*
G02*
X17577655Y-76083683I751317J837345D01*
G01*
X18887657Y-74623683D01*
G75*
G02*
X20476319Y-74537655I837345J-751317D01*
G01*
X20476319Y-74537655D01*
G75*
G02*
X20562347Y-76126317I-751317J-837345D01*
G01*
X19252345Y-77586317D01*
G75*
G02*
X17663683Y-77672345I-837345J751317D01*
G01*
G37*
%TD.AperFunction*%
%TO.P,MX4,2*%
%TO.N,Net-(D4-Pad2)*%
X24765000Y-74295000D03*
%TA.AperFunction,ComponentPad*%
G36*
G01*
X24648483Y-75997395D02*
X24647597Y-75997334D01*
G75*
G02*
X23602666Y-74797597I77403J1122334D01*
G01*
X23642666Y-74217597D01*
G75*
G02*
X24842403Y-73172666I1122334J-77403D01*
G01*
X24842403Y-73172666D01*
G75*
G02*
X25887334Y-74372403I-77403J-1122334D01*
G01*
X25847334Y-74952403D01*
G75*
G02*
X24647597Y-75997334I-1122334J77403D01*
G01*
G37*
%TD.AperFunction*%
%TD*%
%TO.P,MX3,1*%
%TO.N,COL0*%
X19725000Y-56325000D03*
%TA.AperFunction,ComponentPad*%
G36*
G01*
X17663688Y-58622350D02*
X17663683Y-58622345D01*
G75*
G02*
X17577655Y-57033683I751317J837345D01*
G01*
X18887657Y-55573683D01*
G75*
G02*
X20476319Y-55487655I837345J-751317D01*
G01*
X20476319Y-55487655D01*
G75*
G02*
X20562347Y-57076317I-751317J-837345D01*
G01*
X19252345Y-58536317D01*
G75*
G02*
X17663683Y-58622345I-837345J751317D01*
G01*
G37*
%TD.AperFunction*%
%TO.P,MX3,2*%
%TO.N,Net-(D3-Pad2)*%
X24765000Y-55245000D03*
%TA.AperFunction,ComponentPad*%
G36*
G01*
X24648483Y-56947395D02*
X24647597Y-56947334D01*
G75*
G02*
X23602666Y-55747597I77403J1122334D01*
G01*
X23642666Y-55167597D01*
G75*
G02*
X24842403Y-54122666I1122334J-77403D01*
G01*
X24842403Y-54122666D01*
G75*
G02*
X25887334Y-55322403I-77403J-1122334D01*
G01*
X25847334Y-55902403D01*
G75*
G02*
X24647597Y-56947334I-1122334J77403D01*
G01*
G37*
%TD.AperFunction*%
%TD*%
%TO.P,MX2,1*%
%TO.N,COL0*%
X19725000Y-37275000D03*
%TA.AperFunction,ComponentPad*%
G36*
G01*
X17663688Y-39572350D02*
X17663683Y-39572345D01*
G75*
G02*
X17577655Y-37983683I751317J837345D01*
G01*
X18887657Y-36523683D01*
G75*
G02*
X20476319Y-36437655I837345J-751317D01*
G01*
X20476319Y-36437655D01*
G75*
G02*
X20562347Y-38026317I-751317J-837345D01*
G01*
X19252345Y-39486317D01*
G75*
G02*
X17663683Y-39572345I-837345J751317D01*
G01*
G37*
%TD.AperFunction*%
%TO.P,MX2,2*%
%TO.N,Net-(D2-Pad2)*%
X24765000Y-36195000D03*
%TA.AperFunction,ComponentPad*%
G36*
G01*
X24648483Y-37897395D02*
X24647597Y-37897334D01*
G75*
G02*
X23602666Y-36697597I77403J1122334D01*
G01*
X23642666Y-36117597D01*
G75*
G02*
X24842403Y-35072666I1122334J-77403D01*
G01*
X24842403Y-35072666D01*
G75*
G02*
X25887334Y-36272403I-77403J-1122334D01*
G01*
X25847334Y-36852403D01*
G75*
G02*
X24647597Y-37897334I-1122334J77403D01*
G01*
G37*
%TD.AperFunction*%
%TD*%
%TO.P,MX1,1*%
%TO.N,COL0*%
X19725000Y-18225000D03*
%TA.AperFunction,ComponentPad*%
G36*
G01*
X17663688Y-20522350D02*
X17663683Y-20522345D01*
G75*
G02*
X17577655Y-18933683I751317J837345D01*
G01*
X18887657Y-17473683D01*
G75*
G02*
X20476319Y-17387655I837345J-751317D01*
G01*
X20476319Y-17387655D01*
G75*
G02*
X20562347Y-18976317I-751317J-837345D01*
G01*
X19252345Y-20436317D01*
G75*
G02*
X17663683Y-20522345I-837345J751317D01*
G01*
G37*
%TD.AperFunction*%
%TO.P,MX1,2*%
%TO.N,Net-(D1-Pad2)*%
X24765000Y-17145000D03*
%TA.AperFunction,ComponentPad*%
G36*
G01*
X24648483Y-18847395D02*
X24647597Y-18847334D01*
G75*
G02*
X23602666Y-17647597I77403J1122334D01*
G01*
X23642666Y-17067597D01*
G75*
G02*
X24842403Y-16022666I1122334J-77403D01*
G01*
X24842403Y-16022666D01*
G75*
G02*
X25887334Y-17222403I-77403J-1122334D01*
G01*
X25847334Y-17802403D01*
G75*
G02*
X24647597Y-18847334I-1122334J77403D01*
G01*
G37*
%TD.AperFunction*%
%TD*%
D12*
%TO.N,+5V*%
X181483000Y-85217000D03*
X190627000Y-85217000D03*
%TO.N,ROW0*%
X167404999Y-25672999D03*
X178666328Y-97367127D03*
X112649000Y-24765000D03*
X101600000Y-31750000D03*
%TO.N,ROW1*%
X166642999Y-44976999D03*
X179197000Y-98298000D03*
X188976000Y-43815000D03*
X183515000Y-43815000D03*
%TO.N,ROW2*%
X165735000Y-63627000D03*
X179959000Y-99060000D03*
X188595000Y-62992000D03*
X183642000Y-62992000D03*
%TO.N,ROW3*%
X188849000Y-82042000D03*
X183642000Y-82042000D03*
%TO.N,COL0*%
X191135000Y-106553000D03*
%TO.N,COL1*%
X189767118Y-106420118D03*
%TO.N,COL3*%
X66040000Y-104140000D03*
%TO.N,COL4*%
X89916000Y-104140000D03*
%TO.N,COL5*%
X118491000Y-104140000D03*
%TO.N,COL6*%
X142240000Y-104140000D03*
%TO.N,COL7*%
X161290000Y-104140000D03*
%TO.N,COL8*%
X178435000Y-96266000D03*
%TO.N,COL9*%
X192024000Y-90833500D03*
%TD*%
D13*
%TO.N,+5V*%
X181483000Y-85217000D02*
X188341000Y-85217000D01*
X188341000Y-85217000D02*
X190627000Y-85217000D01*
D14*
%TO.N,ROW0*%
X167404999Y-25672999D02*
X167404999Y-46590001D01*
X167404999Y-46754999D02*
X167386000Y-46773998D01*
X167404999Y-46590001D02*
X167404999Y-46754999D01*
X167386000Y-46773998D02*
X167386000Y-81026000D01*
X167386000Y-81026000D02*
X167386000Y-86472868D01*
X167386000Y-86472868D02*
X167964566Y-87051434D01*
X178280259Y-97367127D02*
X178666328Y-97367127D01*
X167964566Y-87051434D02*
X178280259Y-97367127D01*
X105664000Y-31750000D02*
X112649000Y-24765000D01*
X101600000Y-31750000D02*
X105664000Y-31750000D01*
%TO.N,ROW1*%
X166642999Y-44976999D02*
X166642999Y-77832001D01*
X166642999Y-86371933D02*
X173416057Y-93144991D01*
X166642999Y-77832001D02*
X166642999Y-86371933D01*
X173416057Y-93144991D02*
X178057533Y-97786467D01*
X178569066Y-98298000D02*
X179197000Y-98298000D01*
X178057533Y-97786467D02*
X178569066Y-98298000D01*
X188976000Y-43815000D02*
X183515000Y-43815000D01*
%TO.N,ROW2*%
X165735000Y-63627000D02*
X165735000Y-86106000D01*
X165735000Y-86106000D02*
X173228000Y-93599000D01*
X173228000Y-93599000D02*
X178435000Y-98806000D01*
X178689000Y-99060000D02*
X179959000Y-99060000D01*
X178435000Y-98806000D02*
X178689000Y-99060000D01*
X188595000Y-62992000D02*
X183642000Y-62992000D01*
%TO.N,ROW3*%
X188849000Y-82042000D02*
X183642000Y-82042000D01*
%TO.N,COL0*%
X18415000Y-19685000D02*
X18415000Y-38735000D01*
X18415000Y-38735000D02*
X18415000Y-57785000D01*
X18415000Y-57785000D02*
X18415000Y-76835000D01*
X18415000Y-84970067D02*
X40251934Y-106807000D01*
X18415000Y-76835000D02*
X18415000Y-84970067D01*
X40251934Y-106807000D02*
X40578943Y-107134010D01*
X190540881Y-107147119D02*
X191135000Y-106553000D01*
X40592052Y-107147119D02*
X190540881Y-107147119D01*
X40578943Y-107134010D02*
X40592052Y-107147119D01*
%TO.N,COL1*%
X37465000Y-19685000D02*
X37465000Y-38735000D01*
X37465000Y-40894000D02*
X37465000Y-57785000D01*
X37465000Y-38735000D02*
X37465000Y-40894000D01*
X37465000Y-57785000D02*
X37465000Y-76835000D01*
X37465000Y-103378000D02*
X37465000Y-102997000D01*
X40767000Y-106680000D02*
X37465000Y-103378000D01*
X37465000Y-102997000D02*
X37465000Y-76835000D01*
X189507236Y-106680000D02*
X189767118Y-106420118D01*
X189230000Y-106680000D02*
X189507236Y-106680000D01*
X189230000Y-106680000D02*
X40767000Y-106680000D01*
%TO.N,COL2*%
X56515000Y-19685000D02*
X56515000Y-38735000D01*
X56515000Y-38735000D02*
X56515000Y-57785000D01*
X56515000Y-57785000D02*
X56515000Y-76835000D01*
X56515000Y-86210000D02*
X48300000Y-94425000D01*
X56515000Y-76835000D02*
X56515000Y-86210000D01*
%TO.N,COL3*%
X75565000Y-19685000D02*
X75565000Y-38735000D01*
X75565000Y-40894000D02*
X75565000Y-57785000D01*
X75565000Y-38735000D02*
X75565000Y-40894000D01*
X75565000Y-57785000D02*
X75565000Y-76835000D01*
X75565000Y-86210000D02*
X67350000Y-94425000D01*
X75565000Y-76835000D02*
X75565000Y-86210000D01*
X66040000Y-95885000D02*
X66040000Y-104140000D01*
%TO.N,COL4*%
X94615000Y-19685000D02*
X94615000Y-38735000D01*
X94615000Y-38735000D02*
X94615000Y-57785000D01*
X94615000Y-57785000D02*
X94615000Y-76835000D01*
X94615000Y-90972500D02*
X91162500Y-94425000D01*
X94615000Y-76835000D02*
X94615000Y-90972500D01*
X89852500Y-104076500D02*
X89916000Y-104140000D01*
X89852500Y-95885000D02*
X89852500Y-104076500D01*
%TO.N,COL5*%
X113665000Y-19685000D02*
X113665000Y-38735000D01*
X113665000Y-40640000D02*
X113665000Y-57785000D01*
X113665000Y-38735000D02*
X113665000Y-40640000D01*
X113665000Y-59817000D02*
X113665000Y-76835000D01*
X113665000Y-57785000D02*
X113665000Y-59817000D01*
X113665000Y-88352500D02*
X119737500Y-94425000D01*
X113665000Y-76835000D02*
X113665000Y-88352500D01*
X118427500Y-104076500D02*
X118491000Y-104140000D01*
X118427500Y-95885000D02*
X118427500Y-104076500D01*
%TO.N,COL6*%
X132715000Y-19685000D02*
X132715000Y-38735000D01*
X132715000Y-38735000D02*
X132715000Y-57785000D01*
X132715000Y-57785000D02*
X132715000Y-76835000D01*
X132715000Y-83590000D02*
X143550000Y-94425000D01*
X132715000Y-76835000D02*
X132715000Y-83590000D01*
X142240000Y-95885000D02*
X142240000Y-104140000D01*
%TO.N,COL7*%
X151765000Y-19685000D02*
X151765000Y-38735000D01*
X151765000Y-38735000D02*
X151765000Y-57785000D01*
X151765000Y-57785000D02*
X151765000Y-76835000D01*
X151765000Y-83590000D02*
X162600000Y-94425000D01*
X151765000Y-76835000D02*
X151765000Y-83590000D01*
X161290000Y-95885000D02*
X161290000Y-104140000D01*
%TO.N,COL8*%
X170815000Y-19685000D02*
X170815000Y-38735000D01*
X170815000Y-38735000D02*
X170815000Y-57785000D01*
X170815000Y-59690000D02*
X170815000Y-76835000D01*
X170815000Y-57785000D02*
X170815000Y-59690000D01*
X170815000Y-76835000D02*
X170815000Y-87376000D01*
X170815000Y-87376000D02*
X170815000Y-87503000D01*
X170815000Y-87503000D02*
X170815000Y-89259802D01*
X170815000Y-89259802D02*
X177808065Y-96252867D01*
X178421867Y-96252867D02*
X178435000Y-96266000D01*
X177808065Y-96252867D02*
X178421867Y-96252867D01*
%TO.N,COL9*%
X189865000Y-22733962D02*
X189865000Y-38735000D01*
X189865000Y-19685000D02*
X189865000Y-22733962D01*
X189865000Y-38735000D02*
X189865000Y-57785000D01*
X189865000Y-57785000D02*
X189865000Y-76835000D01*
X189865000Y-76835000D02*
X189865000Y-82169000D01*
X192024000Y-84328000D02*
X192024000Y-90833500D01*
X189865000Y-82169000D02*
X192024000Y-84328000D01*
%TO.N,Net-(USB1-Pad6)*%
X111600000Y-13771000D02*
X111600000Y-9271000D01*
X104300000Y-9271000D02*
X111600000Y-9271000D01*
X104300000Y-13771000D02*
X104300000Y-9271000D01*
%TD*%
M02*
