%TF.GenerationSoftware,KiCad,Pcbnew,(5.1.12)-1*%
%TF.CreationDate,2022-01-03T12:53:35-05:00*%
%TF.ProjectId,my-keeb,6d792d6b-6565-4622-9e6b-696361645f70,rev?*%
%TF.SameCoordinates,Original*%
%TF.FileFunction,Copper,L2,Bot*%
%TF.FilePolarity,Positive*%
%FSLAX46Y46*%
G04 Gerber Fmt 4.6, Leading zero omitted, Abs format (unit mm)*
G04 Created by KiCad (PCBNEW (5.1.12)-1) date 2022-01-03 12:53:35*
%MOMM*%
%LPD*%
G01*
G04 APERTURE LIST*
%TA.AperFunction,SMDPad,CuDef*%
%ADD10R,0.900000X1.200000*%
%TD*%
%TA.AperFunction,ComponentPad*%
%ADD11C,2.250000*%
%TD*%
%TA.AperFunction,SMDPad,CuDef*%
%ADD12R,1.200000X1.400000*%
%TD*%
%TA.AperFunction,ComponentPad*%
%ADD13O,1.700000X2.700000*%
%TD*%
%TA.AperFunction,SMDPad,CuDef*%
%ADD14R,0.500000X2.250000*%
%TD*%
%TA.AperFunction,SMDPad,CuDef*%
%ADD15R,1.500000X0.550000*%
%TD*%
%TA.AperFunction,SMDPad,CuDef*%
%ADD16R,0.550000X1.500000*%
%TD*%
%TA.AperFunction,SMDPad,CuDef*%
%ADD17R,1.800000X1.100000*%
%TD*%
%TA.AperFunction,SMDPad,CuDef*%
%ADD18R,1.200000X0.900000*%
%TD*%
%TA.AperFunction,ViaPad*%
%ADD19C,0.800000*%
%TD*%
%TA.AperFunction,Conductor*%
%ADD20C,0.381000*%
%TD*%
%TA.AperFunction,Conductor*%
%ADD21C,0.254000*%
%TD*%
%TA.AperFunction,Conductor*%
%ADD22C,0.200000*%
%TD*%
%TA.AperFunction,Conductor*%
%ADD23C,0.100000*%
%TD*%
G04 APERTURE END LIST*
D10*
%TO.P,D19,2*%
%TO.N,Net-(D19-Pad2)*%
X100075000Y-30162500D03*
%TO.P,D19,1*%
%TO.N,ROW0*%
X96775000Y-30162500D03*
%TD*%
D11*
%TO.P,MX43,1*%
%TO.N,COL9*%
X191175000Y-18225000D03*
%TA.AperFunction,ComponentPad*%
G36*
G01*
X189113688Y-20522350D02*
X189113683Y-20522345D01*
G75*
G02*
X189027655Y-18933683I751317J837345D01*
G01*
X190337657Y-17473683D01*
G75*
G02*
X191926319Y-17387655I837345J-751317D01*
G01*
X191926319Y-17387655D01*
G75*
G02*
X192012347Y-18976317I-751317J-837345D01*
G01*
X190702345Y-20436317D01*
G75*
G02*
X189113683Y-20522345I-837345J751317D01*
G01*
G37*
%TD.AperFunction*%
%TO.P,MX43,2*%
%TO.N,Net-(D43-Pad2)*%
X196215000Y-17145000D03*
%TA.AperFunction,ComponentPad*%
G36*
G01*
X196098483Y-18847395D02*
X196097597Y-18847334D01*
G75*
G02*
X195052666Y-17647597I77403J1122334D01*
G01*
X195092666Y-17067597D01*
G75*
G02*
X196292403Y-16022666I1122334J-77403D01*
G01*
X196292403Y-16022666D01*
G75*
G02*
X197337334Y-17222403I-77403J-1122334D01*
G01*
X197297334Y-17802403D01*
G75*
G02*
X196097597Y-18847334I-1122334J77403D01*
G01*
G37*
%TD.AperFunction*%
%TD*%
%TO.P,R2,2*%
%TO.N,D+*%
%TA.AperFunction,SMDPad,CuDef*%
G36*
G01*
X189111352Y-88309500D02*
X188211348Y-88309500D01*
G75*
G02*
X187961350Y-88059502I0J249998D01*
G01*
X187961350Y-87534498D01*
G75*
G02*
X188211348Y-87284500I249998J0D01*
G01*
X189111352Y-87284500D01*
G75*
G02*
X189361350Y-87534498I0J-249998D01*
G01*
X189361350Y-88059502D01*
G75*
G02*
X189111352Y-88309500I-249998J0D01*
G01*
G37*
%TD.AperFunction*%
%TO.P,R2,1*%
%TO.N,DP*%
%TA.AperFunction,SMDPad,CuDef*%
G36*
G01*
X189111352Y-90134500D02*
X188211348Y-90134500D01*
G75*
G02*
X187961350Y-89884502I0J249998D01*
G01*
X187961350Y-89359498D01*
G75*
G02*
X188211348Y-89109500I249998J0D01*
G01*
X189111352Y-89109500D01*
G75*
G02*
X189361350Y-89359498I0J-249998D01*
G01*
X189361350Y-89884502D01*
G75*
G02*
X189111352Y-90134500I-249998J0D01*
G01*
G37*
%TD.AperFunction*%
%TD*%
D12*
%TO.P,Y1,4*%
%TO.N,GND*%
X200367000Y-100287000D03*
%TO.P,Y1,3*%
%TO.N,Net-(C4-Pad1)*%
X200367000Y-98087000D03*
%TO.P,Y1,2*%
%TO.N,GND*%
X198667000Y-98087000D03*
%TO.P,Y1,1*%
%TO.N,Net-(C3-Pad1)*%
X198667000Y-100287000D03*
%TD*%
D13*
%TO.P,USB1,6*%
%TO.N,Net-(USB1-Pad6)*%
X104300000Y-9271000D03*
X111600000Y-9271000D03*
X111600000Y-13771000D03*
X104300000Y-13771000D03*
D14*
%TO.P,USB1,5*%
%TO.N,VCC*%
X106350000Y-13771000D03*
%TO.P,USB1,4*%
%TO.N,D-*%
X107150000Y-13771000D03*
%TO.P,USB1,3*%
%TO.N,D+*%
X107950000Y-13771000D03*
%TO.P,USB1,2*%
%TO.N,Net-(USB1-Pad2)*%
X108750000Y-13771000D03*
%TO.P,USB1,1*%
%TO.N,GND*%
X109550000Y-13771000D03*
%TD*%
D15*
%TO.P,U1,44*%
%TO.N,+5V*%
X183942750Y-94202750D03*
%TO.P,U1,43*%
%TO.N,GND*%
X183942750Y-95002750D03*
%TO.P,U1,42*%
%TO.N,Net-(U1-Pad42)*%
X183942750Y-95802750D03*
%TO.P,U1,41*%
%TO.N,COL8*%
X183942750Y-96602750D03*
%TO.P,U1,40*%
%TO.N,ROW0*%
X183942750Y-97402750D03*
%TO.P,U1,39*%
%TO.N,ROW1*%
X183942750Y-98202750D03*
%TO.P,U1,38*%
%TO.N,ROW2*%
X183942750Y-99002750D03*
%TO.P,U1,37*%
%TO.N,ROW3*%
X183942750Y-99802750D03*
%TO.P,U1,36*%
%TO.N,ROW4*%
X183942750Y-100602750D03*
%TO.P,U1,35*%
%TO.N,GND*%
X183942750Y-101402750D03*
%TO.P,U1,34*%
%TO.N,+5V*%
X183942750Y-102202750D03*
D16*
%TO.P,U1,33*%
%TO.N,Net-(R4-Pad2)*%
X185642750Y-103902750D03*
%TO.P,U1,32*%
%TO.N,COL7*%
X186442750Y-103902750D03*
%TO.P,U1,31*%
%TO.N,COL6*%
X187242750Y-103902750D03*
%TO.P,U1,30*%
%TO.N,COL5*%
X188042750Y-103902750D03*
%TO.P,U1,29*%
%TO.N,COL4*%
X188842750Y-103902750D03*
%TO.P,U1,28*%
%TO.N,COL3*%
X189642750Y-103902750D03*
%TO.P,U1,27*%
%TO.N,COL2*%
X190442750Y-103902750D03*
%TO.P,U1,26*%
%TO.N,COL1*%
X191242750Y-103902750D03*
%TO.P,U1,25*%
%TO.N,COL0*%
X192042750Y-103902750D03*
%TO.P,U1,24*%
%TO.N,+5V*%
X192842750Y-103902750D03*
%TO.P,U1,23*%
%TO.N,GND*%
X193642750Y-103902750D03*
D15*
%TO.P,U1,22*%
%TO.N,Net-(U1-Pad22)*%
X195342750Y-102202750D03*
%TO.P,U1,21*%
%TO.N,Net-(U1-Pad21)*%
X195342750Y-101402750D03*
%TO.P,U1,20*%
%TO.N,Net-(U1-Pad20)*%
X195342750Y-100602750D03*
%TO.P,U1,19*%
%TO.N,Net-(U1-Pad19)*%
X195342750Y-99802750D03*
%TO.P,U1,18*%
%TO.N,Net-(U1-Pad18)*%
X195342750Y-99002750D03*
%TO.P,U1,17*%
%TO.N,Net-(C3-Pad1)*%
X195342750Y-98202750D03*
%TO.P,U1,16*%
%TO.N,Net-(C4-Pad1)*%
X195342750Y-97402750D03*
%TO.P,U1,15*%
%TO.N,GND*%
X195342750Y-96602750D03*
%TO.P,U1,14*%
%TO.N,+5V*%
X195342750Y-95802750D03*
%TO.P,U1,13*%
%TO.N,Net-(R3-Pad2)*%
X195342750Y-95002750D03*
%TO.P,U1,12*%
%TO.N,Net-(U1-Pad12)*%
X195342750Y-94202750D03*
D16*
%TO.P,U1,11*%
%TO.N,Net-(U1-Pad11)*%
X193642750Y-92502750D03*
%TO.P,U1,10*%
%TO.N,Net-(U1-Pad10)*%
X192842750Y-92502750D03*
%TO.P,U1,9*%
%TO.N,COL9*%
X192042750Y-92502750D03*
%TO.P,U1,8*%
%TO.N,Net-(U1-Pad8)*%
X191242750Y-92502750D03*
%TO.P,U1,7*%
%TO.N,+5V*%
X190442750Y-92502750D03*
%TO.P,U1,6*%
%TO.N,Net-(C6-Pad1)*%
X189642750Y-92502750D03*
%TO.P,U1,5*%
%TO.N,GND*%
X188842750Y-92502750D03*
%TO.P,U1,4*%
%TO.N,DP*%
X188042750Y-92502750D03*
%TO.P,U1,3*%
%TO.N,DN*%
X187242750Y-92502750D03*
%TO.P,U1,2*%
%TO.N,+5V*%
X186442750Y-92502750D03*
%TO.P,U1,1*%
%TO.N,Net-(U1-Pad1)*%
X185642750Y-92502750D03*
%TD*%
D17*
%TO.P,SW1,4*%
%TO.N,N/C*%
X194766000Y-84129000D03*
%TO.P,SW1,3*%
X200966000Y-87829000D03*
%TO.P,SW1,2*%
%TO.N,Net-(R3-Pad2)*%
X194766000Y-87829000D03*
%TO.P,SW1,1*%
%TO.N,GND*%
X200966000Y-84129000D03*
%TD*%
%TO.P,R4,2*%
%TO.N,Net-(R4-Pad2)*%
%TA.AperFunction,SMDPad,CuDef*%
G36*
G01*
X177730998Y-103524000D02*
X178631002Y-103524000D01*
G75*
G02*
X178881000Y-103773998I0J-249998D01*
G01*
X178881000Y-104299002D01*
G75*
G02*
X178631002Y-104549000I-249998J0D01*
G01*
X177730998Y-104549000D01*
G75*
G02*
X177481000Y-104299002I0J249998D01*
G01*
X177481000Y-103773998D01*
G75*
G02*
X177730998Y-103524000I249998J0D01*
G01*
G37*
%TD.AperFunction*%
%TO.P,R4,1*%
%TO.N,GND*%
%TA.AperFunction,SMDPad,CuDef*%
G36*
G01*
X177730998Y-101699000D02*
X178631002Y-101699000D01*
G75*
G02*
X178881000Y-101948998I0J-249998D01*
G01*
X178881000Y-102474002D01*
G75*
G02*
X178631002Y-102724000I-249998J0D01*
G01*
X177730998Y-102724000D01*
G75*
G02*
X177481000Y-102474002I0J249998D01*
G01*
X177481000Y-101948998D01*
G75*
G02*
X177730998Y-101699000I249998J0D01*
G01*
G37*
%TD.AperFunction*%
%TD*%
%TO.P,R3,2*%
%TO.N,Net-(R3-Pad2)*%
%TA.AperFunction,SMDPad,CuDef*%
G36*
G01*
X195091000Y-90493002D02*
X195091000Y-89592998D01*
G75*
G02*
X195340998Y-89343000I249998J0D01*
G01*
X195866002Y-89343000D01*
G75*
G02*
X196116000Y-89592998I0J-249998D01*
G01*
X196116000Y-90493002D01*
G75*
G02*
X195866002Y-90743000I-249998J0D01*
G01*
X195340998Y-90743000D01*
G75*
G02*
X195091000Y-90493002I0J249998D01*
G01*
G37*
%TD.AperFunction*%
%TO.P,R3,1*%
%TO.N,+5V*%
%TA.AperFunction,SMDPad,CuDef*%
G36*
G01*
X193266000Y-90493002D02*
X193266000Y-89592998D01*
G75*
G02*
X193515998Y-89343000I249998J0D01*
G01*
X194041002Y-89343000D01*
G75*
G02*
X194291000Y-89592998I0J-249998D01*
G01*
X194291000Y-90493002D01*
G75*
G02*
X194041002Y-90743000I-249998J0D01*
G01*
X193515998Y-90743000D01*
G75*
G02*
X193266000Y-90493002I0J249998D01*
G01*
G37*
%TD.AperFunction*%
%TD*%
%TO.P,R1,2*%
%TO.N,D-*%
%TA.AperFunction,SMDPad,CuDef*%
G36*
G01*
X187079352Y-88309500D02*
X186179348Y-88309500D01*
G75*
G02*
X185929350Y-88059502I0J249998D01*
G01*
X185929350Y-87534498D01*
G75*
G02*
X186179348Y-87284500I249998J0D01*
G01*
X187079352Y-87284500D01*
G75*
G02*
X187329350Y-87534498I0J-249998D01*
G01*
X187329350Y-88059502D01*
G75*
G02*
X187079352Y-88309500I-249998J0D01*
G01*
G37*
%TD.AperFunction*%
%TO.P,R1,1*%
%TO.N,DN*%
%TA.AperFunction,SMDPad,CuDef*%
G36*
G01*
X187079352Y-90134500D02*
X186179348Y-90134500D01*
G75*
G02*
X185929350Y-89884502I0J249998D01*
G01*
X185929350Y-89359498D01*
G75*
G02*
X186179348Y-89109500I249998J0D01*
G01*
X187079352Y-89109500D01*
G75*
G02*
X187329350Y-89359498I0J-249998D01*
G01*
X187329350Y-89884502D01*
G75*
G02*
X187079352Y-90134500I-249998J0D01*
G01*
G37*
%TD.AperFunction*%
%TD*%
D11*
%TO.P,MX46,1*%
%TO.N,COL9*%
X191175000Y-75375000D03*
%TA.AperFunction,ComponentPad*%
G36*
G01*
X189113688Y-77672350D02*
X189113683Y-77672345D01*
G75*
G02*
X189027655Y-76083683I751317J837345D01*
G01*
X190337657Y-74623683D01*
G75*
G02*
X191926319Y-74537655I837345J-751317D01*
G01*
X191926319Y-74537655D01*
G75*
G02*
X192012347Y-76126317I-751317J-837345D01*
G01*
X190702345Y-77586317D01*
G75*
G02*
X189113683Y-77672345I-837345J751317D01*
G01*
G37*
%TD.AperFunction*%
%TO.P,MX46,2*%
%TO.N,Net-(D46-Pad2)*%
X196215000Y-74295000D03*
%TA.AperFunction,ComponentPad*%
G36*
G01*
X196098483Y-75997395D02*
X196097597Y-75997334D01*
G75*
G02*
X195052666Y-74797597I77403J1122334D01*
G01*
X195092666Y-74217597D01*
G75*
G02*
X196292403Y-73172666I1122334J-77403D01*
G01*
X196292403Y-73172666D01*
G75*
G02*
X197337334Y-74372403I-77403J-1122334D01*
G01*
X197297334Y-74952403D01*
G75*
G02*
X196097597Y-75997334I-1122334J77403D01*
G01*
G37*
%TD.AperFunction*%
%TD*%
%TO.P,MX45,1*%
%TO.N,COL9*%
X191175000Y-56325000D03*
%TA.AperFunction,ComponentPad*%
G36*
G01*
X189113688Y-58622350D02*
X189113683Y-58622345D01*
G75*
G02*
X189027655Y-57033683I751317J837345D01*
G01*
X190337657Y-55573683D01*
G75*
G02*
X191926319Y-55487655I837345J-751317D01*
G01*
X191926319Y-55487655D01*
G75*
G02*
X192012347Y-57076317I-751317J-837345D01*
G01*
X190702345Y-58536317D01*
G75*
G02*
X189113683Y-58622345I-837345J751317D01*
G01*
G37*
%TD.AperFunction*%
%TO.P,MX45,2*%
%TO.N,Net-(D45-Pad2)*%
X196215000Y-55245000D03*
%TA.AperFunction,ComponentPad*%
G36*
G01*
X196098483Y-56947395D02*
X196097597Y-56947334D01*
G75*
G02*
X195052666Y-55747597I77403J1122334D01*
G01*
X195092666Y-55167597D01*
G75*
G02*
X196292403Y-54122666I1122334J-77403D01*
G01*
X196292403Y-54122666D01*
G75*
G02*
X197337334Y-55322403I-77403J-1122334D01*
G01*
X197297334Y-55902403D01*
G75*
G02*
X196097597Y-56947334I-1122334J77403D01*
G01*
G37*
%TD.AperFunction*%
%TD*%
%TO.P,MX44,1*%
%TO.N,COL9*%
X191175000Y-37275000D03*
%TA.AperFunction,ComponentPad*%
G36*
G01*
X189113688Y-39572350D02*
X189113683Y-39572345D01*
G75*
G02*
X189027655Y-37983683I751317J837345D01*
G01*
X190337657Y-36523683D01*
G75*
G02*
X191926319Y-36437655I837345J-751317D01*
G01*
X191926319Y-36437655D01*
G75*
G02*
X192012347Y-38026317I-751317J-837345D01*
G01*
X190702345Y-39486317D01*
G75*
G02*
X189113683Y-39572345I-837345J751317D01*
G01*
G37*
%TD.AperFunction*%
%TO.P,MX44,2*%
%TO.N,Net-(D44-Pad2)*%
X196215000Y-36195000D03*
%TA.AperFunction,ComponentPad*%
G36*
G01*
X196098483Y-37897395D02*
X196097597Y-37897334D01*
G75*
G02*
X195052666Y-36697597I77403J1122334D01*
G01*
X195092666Y-36117597D01*
G75*
G02*
X196292403Y-35072666I1122334J-77403D01*
G01*
X196292403Y-35072666D01*
G75*
G02*
X197337334Y-36272403I-77403J-1122334D01*
G01*
X197297334Y-36852403D01*
G75*
G02*
X196097597Y-37897334I-1122334J77403D01*
G01*
G37*
%TD.AperFunction*%
%TD*%
%TO.P,MX42,1*%
%TO.N,COL8*%
X172125000Y-75375000D03*
%TA.AperFunction,ComponentPad*%
G36*
G01*
X170063688Y-77672350D02*
X170063683Y-77672345D01*
G75*
G02*
X169977655Y-76083683I751317J837345D01*
G01*
X171287657Y-74623683D01*
G75*
G02*
X172876319Y-74537655I837345J-751317D01*
G01*
X172876319Y-74537655D01*
G75*
G02*
X172962347Y-76126317I-751317J-837345D01*
G01*
X171652345Y-77586317D01*
G75*
G02*
X170063683Y-77672345I-837345J751317D01*
G01*
G37*
%TD.AperFunction*%
%TO.P,MX42,2*%
%TO.N,Net-(D42-Pad2)*%
X177165000Y-74295000D03*
%TA.AperFunction,ComponentPad*%
G36*
G01*
X177048483Y-75997395D02*
X177047597Y-75997334D01*
G75*
G02*
X176002666Y-74797597I77403J1122334D01*
G01*
X176042666Y-74217597D01*
G75*
G02*
X177242403Y-73172666I1122334J-77403D01*
G01*
X177242403Y-73172666D01*
G75*
G02*
X178287334Y-74372403I-77403J-1122334D01*
G01*
X178247334Y-74952403D01*
G75*
G02*
X177047597Y-75997334I-1122334J77403D01*
G01*
G37*
%TD.AperFunction*%
%TD*%
%TO.P,MX41,1*%
%TO.N,COL8*%
X172125000Y-56325000D03*
%TA.AperFunction,ComponentPad*%
G36*
G01*
X170063688Y-58622350D02*
X170063683Y-58622345D01*
G75*
G02*
X169977655Y-57033683I751317J837345D01*
G01*
X171287657Y-55573683D01*
G75*
G02*
X172876319Y-55487655I837345J-751317D01*
G01*
X172876319Y-55487655D01*
G75*
G02*
X172962347Y-57076317I-751317J-837345D01*
G01*
X171652345Y-58536317D01*
G75*
G02*
X170063683Y-58622345I-837345J751317D01*
G01*
G37*
%TD.AperFunction*%
%TO.P,MX41,2*%
%TO.N,Net-(D41-Pad2)*%
X177165000Y-55245000D03*
%TA.AperFunction,ComponentPad*%
G36*
G01*
X177048483Y-56947395D02*
X177047597Y-56947334D01*
G75*
G02*
X176002666Y-55747597I77403J1122334D01*
G01*
X176042666Y-55167597D01*
G75*
G02*
X177242403Y-54122666I1122334J-77403D01*
G01*
X177242403Y-54122666D01*
G75*
G02*
X178287334Y-55322403I-77403J-1122334D01*
G01*
X178247334Y-55902403D01*
G75*
G02*
X177047597Y-56947334I-1122334J77403D01*
G01*
G37*
%TD.AperFunction*%
%TD*%
%TO.P,MX40,1*%
%TO.N,COL8*%
X172125000Y-37275000D03*
%TA.AperFunction,ComponentPad*%
G36*
G01*
X170063688Y-39572350D02*
X170063683Y-39572345D01*
G75*
G02*
X169977655Y-37983683I751317J837345D01*
G01*
X171287657Y-36523683D01*
G75*
G02*
X172876319Y-36437655I837345J-751317D01*
G01*
X172876319Y-36437655D01*
G75*
G02*
X172962347Y-38026317I-751317J-837345D01*
G01*
X171652345Y-39486317D01*
G75*
G02*
X170063683Y-39572345I-837345J751317D01*
G01*
G37*
%TD.AperFunction*%
%TO.P,MX40,2*%
%TO.N,Net-(D40-Pad2)*%
X177165000Y-36195000D03*
%TA.AperFunction,ComponentPad*%
G36*
G01*
X177048483Y-37897395D02*
X177047597Y-37897334D01*
G75*
G02*
X176002666Y-36697597I77403J1122334D01*
G01*
X176042666Y-36117597D01*
G75*
G02*
X177242403Y-35072666I1122334J-77403D01*
G01*
X177242403Y-35072666D01*
G75*
G02*
X178287334Y-36272403I-77403J-1122334D01*
G01*
X178247334Y-36852403D01*
G75*
G02*
X177047597Y-37897334I-1122334J77403D01*
G01*
G37*
%TD.AperFunction*%
%TD*%
%TO.P,MX39,1*%
%TO.N,COL8*%
X172125000Y-18225000D03*
%TA.AperFunction,ComponentPad*%
G36*
G01*
X170063688Y-20522350D02*
X170063683Y-20522345D01*
G75*
G02*
X169977655Y-18933683I751317J837345D01*
G01*
X171287657Y-17473683D01*
G75*
G02*
X172876319Y-17387655I837345J-751317D01*
G01*
X172876319Y-17387655D01*
G75*
G02*
X172962347Y-18976317I-751317J-837345D01*
G01*
X171652345Y-20436317D01*
G75*
G02*
X170063683Y-20522345I-837345J751317D01*
G01*
G37*
%TD.AperFunction*%
%TO.P,MX39,2*%
%TO.N,Net-(D39-Pad2)*%
X177165000Y-17145000D03*
%TA.AperFunction,ComponentPad*%
G36*
G01*
X177048483Y-18847395D02*
X177047597Y-18847334D01*
G75*
G02*
X176002666Y-17647597I77403J1122334D01*
G01*
X176042666Y-17067597D01*
G75*
G02*
X177242403Y-16022666I1122334J-77403D01*
G01*
X177242403Y-16022666D01*
G75*
G02*
X178287334Y-17222403I-77403J-1122334D01*
G01*
X178247334Y-17802403D01*
G75*
G02*
X177047597Y-18847334I-1122334J77403D01*
G01*
G37*
%TD.AperFunction*%
%TD*%
%TO.P,MX38,1*%
%TO.N,COL7*%
X162600000Y-94425000D03*
%TA.AperFunction,ComponentPad*%
G36*
G01*
X160538688Y-96722350D02*
X160538683Y-96722345D01*
G75*
G02*
X160452655Y-95133683I751317J837345D01*
G01*
X161762657Y-93673683D01*
G75*
G02*
X163351319Y-93587655I837345J-751317D01*
G01*
X163351319Y-93587655D01*
G75*
G02*
X163437347Y-95176317I-751317J-837345D01*
G01*
X162127345Y-96636317D01*
G75*
G02*
X160538683Y-96722345I-837345J751317D01*
G01*
G37*
%TD.AperFunction*%
%TO.P,MX38,2*%
%TO.N,Net-(D38-Pad2)*%
X167640000Y-93345000D03*
%TA.AperFunction,ComponentPad*%
G36*
G01*
X167523483Y-95047395D02*
X167522597Y-95047334D01*
G75*
G02*
X166477666Y-93847597I77403J1122334D01*
G01*
X166517666Y-93267597D01*
G75*
G02*
X167717403Y-92222666I1122334J-77403D01*
G01*
X167717403Y-92222666D01*
G75*
G02*
X168762334Y-93422403I-77403J-1122334D01*
G01*
X168722334Y-94002403D01*
G75*
G02*
X167522597Y-95047334I-1122334J77403D01*
G01*
G37*
%TD.AperFunction*%
%TD*%
%TO.P,MX37,1*%
%TO.N,COL7*%
X153075000Y-75375000D03*
%TA.AperFunction,ComponentPad*%
G36*
G01*
X151013688Y-77672350D02*
X151013683Y-77672345D01*
G75*
G02*
X150927655Y-76083683I751317J837345D01*
G01*
X152237657Y-74623683D01*
G75*
G02*
X153826319Y-74537655I837345J-751317D01*
G01*
X153826319Y-74537655D01*
G75*
G02*
X153912347Y-76126317I-751317J-837345D01*
G01*
X152602345Y-77586317D01*
G75*
G02*
X151013683Y-77672345I-837345J751317D01*
G01*
G37*
%TD.AperFunction*%
%TO.P,MX37,2*%
%TO.N,Net-(D37-Pad2)*%
X158115000Y-74295000D03*
%TA.AperFunction,ComponentPad*%
G36*
G01*
X157998483Y-75997395D02*
X157997597Y-75997334D01*
G75*
G02*
X156952666Y-74797597I77403J1122334D01*
G01*
X156992666Y-74217597D01*
G75*
G02*
X158192403Y-73172666I1122334J-77403D01*
G01*
X158192403Y-73172666D01*
G75*
G02*
X159237334Y-74372403I-77403J-1122334D01*
G01*
X159197334Y-74952403D01*
G75*
G02*
X157997597Y-75997334I-1122334J77403D01*
G01*
G37*
%TD.AperFunction*%
%TD*%
%TO.P,MX36,1*%
%TO.N,COL7*%
X153075000Y-56325000D03*
%TA.AperFunction,ComponentPad*%
G36*
G01*
X151013688Y-58622350D02*
X151013683Y-58622345D01*
G75*
G02*
X150927655Y-57033683I751317J837345D01*
G01*
X152237657Y-55573683D01*
G75*
G02*
X153826319Y-55487655I837345J-751317D01*
G01*
X153826319Y-55487655D01*
G75*
G02*
X153912347Y-57076317I-751317J-837345D01*
G01*
X152602345Y-58536317D01*
G75*
G02*
X151013683Y-58622345I-837345J751317D01*
G01*
G37*
%TD.AperFunction*%
%TO.P,MX36,2*%
%TO.N,Net-(D36-Pad2)*%
X158115000Y-55245000D03*
%TA.AperFunction,ComponentPad*%
G36*
G01*
X157998483Y-56947395D02*
X157997597Y-56947334D01*
G75*
G02*
X156952666Y-55747597I77403J1122334D01*
G01*
X156992666Y-55167597D01*
G75*
G02*
X158192403Y-54122666I1122334J-77403D01*
G01*
X158192403Y-54122666D01*
G75*
G02*
X159237334Y-55322403I-77403J-1122334D01*
G01*
X159197334Y-55902403D01*
G75*
G02*
X157997597Y-56947334I-1122334J77403D01*
G01*
G37*
%TD.AperFunction*%
%TD*%
%TO.P,MX35,1*%
%TO.N,COL7*%
X153075000Y-37275000D03*
%TA.AperFunction,ComponentPad*%
G36*
G01*
X151013688Y-39572350D02*
X151013683Y-39572345D01*
G75*
G02*
X150927655Y-37983683I751317J837345D01*
G01*
X152237657Y-36523683D01*
G75*
G02*
X153826319Y-36437655I837345J-751317D01*
G01*
X153826319Y-36437655D01*
G75*
G02*
X153912347Y-38026317I-751317J-837345D01*
G01*
X152602345Y-39486317D01*
G75*
G02*
X151013683Y-39572345I-837345J751317D01*
G01*
G37*
%TD.AperFunction*%
%TO.P,MX35,2*%
%TO.N,Net-(D35-Pad2)*%
X158115000Y-36195000D03*
%TA.AperFunction,ComponentPad*%
G36*
G01*
X157998483Y-37897395D02*
X157997597Y-37897334D01*
G75*
G02*
X156952666Y-36697597I77403J1122334D01*
G01*
X156992666Y-36117597D01*
G75*
G02*
X158192403Y-35072666I1122334J-77403D01*
G01*
X158192403Y-35072666D01*
G75*
G02*
X159237334Y-36272403I-77403J-1122334D01*
G01*
X159197334Y-36852403D01*
G75*
G02*
X157997597Y-37897334I-1122334J77403D01*
G01*
G37*
%TD.AperFunction*%
%TD*%
%TO.P,MX34,1*%
%TO.N,COL7*%
X153075000Y-18225000D03*
%TA.AperFunction,ComponentPad*%
G36*
G01*
X151013688Y-20522350D02*
X151013683Y-20522345D01*
G75*
G02*
X150927655Y-18933683I751317J837345D01*
G01*
X152237657Y-17473683D01*
G75*
G02*
X153826319Y-17387655I837345J-751317D01*
G01*
X153826319Y-17387655D01*
G75*
G02*
X153912347Y-18976317I-751317J-837345D01*
G01*
X152602345Y-20436317D01*
G75*
G02*
X151013683Y-20522345I-837345J751317D01*
G01*
G37*
%TD.AperFunction*%
%TO.P,MX34,2*%
%TO.N,Net-(D34-Pad2)*%
X158115000Y-17145000D03*
%TA.AperFunction,ComponentPad*%
G36*
G01*
X157998483Y-18847395D02*
X157997597Y-18847334D01*
G75*
G02*
X156952666Y-17647597I77403J1122334D01*
G01*
X156992666Y-17067597D01*
G75*
G02*
X158192403Y-16022666I1122334J-77403D01*
G01*
X158192403Y-16022666D01*
G75*
G02*
X159237334Y-17222403I-77403J-1122334D01*
G01*
X159197334Y-17802403D01*
G75*
G02*
X157997597Y-18847334I-1122334J77403D01*
G01*
G37*
%TD.AperFunction*%
%TD*%
%TO.P,MX33,1*%
%TO.N,COL6*%
X143550000Y-94425000D03*
%TA.AperFunction,ComponentPad*%
G36*
G01*
X141488688Y-96722350D02*
X141488683Y-96722345D01*
G75*
G02*
X141402655Y-95133683I751317J837345D01*
G01*
X142712657Y-93673683D01*
G75*
G02*
X144301319Y-93587655I837345J-751317D01*
G01*
X144301319Y-93587655D01*
G75*
G02*
X144387347Y-95176317I-751317J-837345D01*
G01*
X143077345Y-96636317D01*
G75*
G02*
X141488683Y-96722345I-837345J751317D01*
G01*
G37*
%TD.AperFunction*%
%TO.P,MX33,2*%
%TO.N,Net-(D33-Pad2)*%
X148590000Y-93345000D03*
%TA.AperFunction,ComponentPad*%
G36*
G01*
X148473483Y-95047395D02*
X148472597Y-95047334D01*
G75*
G02*
X147427666Y-93847597I77403J1122334D01*
G01*
X147467666Y-93267597D01*
G75*
G02*
X148667403Y-92222666I1122334J-77403D01*
G01*
X148667403Y-92222666D01*
G75*
G02*
X149712334Y-93422403I-77403J-1122334D01*
G01*
X149672334Y-94002403D01*
G75*
G02*
X148472597Y-95047334I-1122334J77403D01*
G01*
G37*
%TD.AperFunction*%
%TD*%
%TO.P,MX32,1*%
%TO.N,COL6*%
X134025000Y-75375000D03*
%TA.AperFunction,ComponentPad*%
G36*
G01*
X131963688Y-77672350D02*
X131963683Y-77672345D01*
G75*
G02*
X131877655Y-76083683I751317J837345D01*
G01*
X133187657Y-74623683D01*
G75*
G02*
X134776319Y-74537655I837345J-751317D01*
G01*
X134776319Y-74537655D01*
G75*
G02*
X134862347Y-76126317I-751317J-837345D01*
G01*
X133552345Y-77586317D01*
G75*
G02*
X131963683Y-77672345I-837345J751317D01*
G01*
G37*
%TD.AperFunction*%
%TO.P,MX32,2*%
%TO.N,Net-(D32-Pad2)*%
X139065000Y-74295000D03*
%TA.AperFunction,ComponentPad*%
G36*
G01*
X138948483Y-75997395D02*
X138947597Y-75997334D01*
G75*
G02*
X137902666Y-74797597I77403J1122334D01*
G01*
X137942666Y-74217597D01*
G75*
G02*
X139142403Y-73172666I1122334J-77403D01*
G01*
X139142403Y-73172666D01*
G75*
G02*
X140187334Y-74372403I-77403J-1122334D01*
G01*
X140147334Y-74952403D01*
G75*
G02*
X138947597Y-75997334I-1122334J77403D01*
G01*
G37*
%TD.AperFunction*%
%TD*%
%TO.P,MX31,1*%
%TO.N,COL6*%
X134025000Y-56325000D03*
%TA.AperFunction,ComponentPad*%
G36*
G01*
X131963688Y-58622350D02*
X131963683Y-58622345D01*
G75*
G02*
X131877655Y-57033683I751317J837345D01*
G01*
X133187657Y-55573683D01*
G75*
G02*
X134776319Y-55487655I837345J-751317D01*
G01*
X134776319Y-55487655D01*
G75*
G02*
X134862347Y-57076317I-751317J-837345D01*
G01*
X133552345Y-58536317D01*
G75*
G02*
X131963683Y-58622345I-837345J751317D01*
G01*
G37*
%TD.AperFunction*%
%TO.P,MX31,2*%
%TO.N,Net-(D31-Pad2)*%
X139065000Y-55245000D03*
%TA.AperFunction,ComponentPad*%
G36*
G01*
X138948483Y-56947395D02*
X138947597Y-56947334D01*
G75*
G02*
X137902666Y-55747597I77403J1122334D01*
G01*
X137942666Y-55167597D01*
G75*
G02*
X139142403Y-54122666I1122334J-77403D01*
G01*
X139142403Y-54122666D01*
G75*
G02*
X140187334Y-55322403I-77403J-1122334D01*
G01*
X140147334Y-55902403D01*
G75*
G02*
X138947597Y-56947334I-1122334J77403D01*
G01*
G37*
%TD.AperFunction*%
%TD*%
%TO.P,MX30,1*%
%TO.N,COL6*%
X134025000Y-37275000D03*
%TA.AperFunction,ComponentPad*%
G36*
G01*
X131963688Y-39572350D02*
X131963683Y-39572345D01*
G75*
G02*
X131877655Y-37983683I751317J837345D01*
G01*
X133187657Y-36523683D01*
G75*
G02*
X134776319Y-36437655I837345J-751317D01*
G01*
X134776319Y-36437655D01*
G75*
G02*
X134862347Y-38026317I-751317J-837345D01*
G01*
X133552345Y-39486317D01*
G75*
G02*
X131963683Y-39572345I-837345J751317D01*
G01*
G37*
%TD.AperFunction*%
%TO.P,MX30,2*%
%TO.N,Net-(D30-Pad2)*%
X139065000Y-36195000D03*
%TA.AperFunction,ComponentPad*%
G36*
G01*
X138948483Y-37897395D02*
X138947597Y-37897334D01*
G75*
G02*
X137902666Y-36697597I77403J1122334D01*
G01*
X137942666Y-36117597D01*
G75*
G02*
X139142403Y-35072666I1122334J-77403D01*
G01*
X139142403Y-35072666D01*
G75*
G02*
X140187334Y-36272403I-77403J-1122334D01*
G01*
X140147334Y-36852403D01*
G75*
G02*
X138947597Y-37897334I-1122334J77403D01*
G01*
G37*
%TD.AperFunction*%
%TD*%
%TO.P,MX29,1*%
%TO.N,COL6*%
X134025000Y-18225000D03*
%TA.AperFunction,ComponentPad*%
G36*
G01*
X131963688Y-20522350D02*
X131963683Y-20522345D01*
G75*
G02*
X131877655Y-18933683I751317J837345D01*
G01*
X133187657Y-17473683D01*
G75*
G02*
X134776319Y-17387655I837345J-751317D01*
G01*
X134776319Y-17387655D01*
G75*
G02*
X134862347Y-18976317I-751317J-837345D01*
G01*
X133552345Y-20436317D01*
G75*
G02*
X131963683Y-20522345I-837345J751317D01*
G01*
G37*
%TD.AperFunction*%
%TO.P,MX29,2*%
%TO.N,Net-(D29-Pad2)*%
X139065000Y-17145000D03*
%TA.AperFunction,ComponentPad*%
G36*
G01*
X138948483Y-18847395D02*
X138947597Y-18847334D01*
G75*
G02*
X137902666Y-17647597I77403J1122334D01*
G01*
X137942666Y-17067597D01*
G75*
G02*
X139142403Y-16022666I1122334J-77403D01*
G01*
X139142403Y-16022666D01*
G75*
G02*
X140187334Y-17222403I-77403J-1122334D01*
G01*
X140147334Y-17802403D01*
G75*
G02*
X138947597Y-18847334I-1122334J77403D01*
G01*
G37*
%TD.AperFunction*%
%TD*%
%TO.P,MX28,1*%
%TO.N,COL5*%
X119737500Y-94425000D03*
%TA.AperFunction,ComponentPad*%
G36*
G01*
X117676188Y-96722350D02*
X117676183Y-96722345D01*
G75*
G02*
X117590155Y-95133683I751317J837345D01*
G01*
X118900157Y-93673683D01*
G75*
G02*
X120488819Y-93587655I837345J-751317D01*
G01*
X120488819Y-93587655D01*
G75*
G02*
X120574847Y-95176317I-751317J-837345D01*
G01*
X119264845Y-96636317D01*
G75*
G02*
X117676183Y-96722345I-837345J751317D01*
G01*
G37*
%TD.AperFunction*%
%TO.P,MX28,2*%
%TO.N,Net-(D28-Pad2)*%
X124777500Y-93345000D03*
%TA.AperFunction,ComponentPad*%
G36*
G01*
X124660983Y-95047395D02*
X124660097Y-95047334D01*
G75*
G02*
X123615166Y-93847597I77403J1122334D01*
G01*
X123655166Y-93267597D01*
G75*
G02*
X124854903Y-92222666I1122334J-77403D01*
G01*
X124854903Y-92222666D01*
G75*
G02*
X125899834Y-93422403I-77403J-1122334D01*
G01*
X125859834Y-94002403D01*
G75*
G02*
X124660097Y-95047334I-1122334J77403D01*
G01*
G37*
%TD.AperFunction*%
%TD*%
%TO.P,MX27,1*%
%TO.N,COL5*%
X114975000Y-75375000D03*
%TA.AperFunction,ComponentPad*%
G36*
G01*
X112913688Y-77672350D02*
X112913683Y-77672345D01*
G75*
G02*
X112827655Y-76083683I751317J837345D01*
G01*
X114137657Y-74623683D01*
G75*
G02*
X115726319Y-74537655I837345J-751317D01*
G01*
X115726319Y-74537655D01*
G75*
G02*
X115812347Y-76126317I-751317J-837345D01*
G01*
X114502345Y-77586317D01*
G75*
G02*
X112913683Y-77672345I-837345J751317D01*
G01*
G37*
%TD.AperFunction*%
%TO.P,MX27,2*%
%TO.N,Net-(D27-Pad2)*%
X120015000Y-74295000D03*
%TA.AperFunction,ComponentPad*%
G36*
G01*
X119898483Y-75997395D02*
X119897597Y-75997334D01*
G75*
G02*
X118852666Y-74797597I77403J1122334D01*
G01*
X118892666Y-74217597D01*
G75*
G02*
X120092403Y-73172666I1122334J-77403D01*
G01*
X120092403Y-73172666D01*
G75*
G02*
X121137334Y-74372403I-77403J-1122334D01*
G01*
X121097334Y-74952403D01*
G75*
G02*
X119897597Y-75997334I-1122334J77403D01*
G01*
G37*
%TD.AperFunction*%
%TD*%
%TO.P,MX26,1*%
%TO.N,COL5*%
X114975000Y-56325000D03*
%TA.AperFunction,ComponentPad*%
G36*
G01*
X112913688Y-58622350D02*
X112913683Y-58622345D01*
G75*
G02*
X112827655Y-57033683I751317J837345D01*
G01*
X114137657Y-55573683D01*
G75*
G02*
X115726319Y-55487655I837345J-751317D01*
G01*
X115726319Y-55487655D01*
G75*
G02*
X115812347Y-57076317I-751317J-837345D01*
G01*
X114502345Y-58536317D01*
G75*
G02*
X112913683Y-58622345I-837345J751317D01*
G01*
G37*
%TD.AperFunction*%
%TO.P,MX26,2*%
%TO.N,Net-(D26-Pad2)*%
X120015000Y-55245000D03*
%TA.AperFunction,ComponentPad*%
G36*
G01*
X119898483Y-56947395D02*
X119897597Y-56947334D01*
G75*
G02*
X118852666Y-55747597I77403J1122334D01*
G01*
X118892666Y-55167597D01*
G75*
G02*
X120092403Y-54122666I1122334J-77403D01*
G01*
X120092403Y-54122666D01*
G75*
G02*
X121137334Y-55322403I-77403J-1122334D01*
G01*
X121097334Y-55902403D01*
G75*
G02*
X119897597Y-56947334I-1122334J77403D01*
G01*
G37*
%TD.AperFunction*%
%TD*%
%TO.P,MX25,1*%
%TO.N,COL5*%
X114975000Y-37275000D03*
%TA.AperFunction,ComponentPad*%
G36*
G01*
X112913688Y-39572350D02*
X112913683Y-39572345D01*
G75*
G02*
X112827655Y-37983683I751317J837345D01*
G01*
X114137657Y-36523683D01*
G75*
G02*
X115726319Y-36437655I837345J-751317D01*
G01*
X115726319Y-36437655D01*
G75*
G02*
X115812347Y-38026317I-751317J-837345D01*
G01*
X114502345Y-39486317D01*
G75*
G02*
X112913683Y-39572345I-837345J751317D01*
G01*
G37*
%TD.AperFunction*%
%TO.P,MX25,2*%
%TO.N,Net-(D25-Pad2)*%
X120015000Y-36195000D03*
%TA.AperFunction,ComponentPad*%
G36*
G01*
X119898483Y-37897395D02*
X119897597Y-37897334D01*
G75*
G02*
X118852666Y-36697597I77403J1122334D01*
G01*
X118892666Y-36117597D01*
G75*
G02*
X120092403Y-35072666I1122334J-77403D01*
G01*
X120092403Y-35072666D01*
G75*
G02*
X121137334Y-36272403I-77403J-1122334D01*
G01*
X121097334Y-36852403D01*
G75*
G02*
X119897597Y-37897334I-1122334J77403D01*
G01*
G37*
%TD.AperFunction*%
%TD*%
%TO.P,MX24,1*%
%TO.N,COL5*%
X114975000Y-18225000D03*
%TA.AperFunction,ComponentPad*%
G36*
G01*
X112913688Y-20522350D02*
X112913683Y-20522345D01*
G75*
G02*
X112827655Y-18933683I751317J837345D01*
G01*
X114137657Y-17473683D01*
G75*
G02*
X115726319Y-17387655I837345J-751317D01*
G01*
X115726319Y-17387655D01*
G75*
G02*
X115812347Y-18976317I-751317J-837345D01*
G01*
X114502345Y-20436317D01*
G75*
G02*
X112913683Y-20522345I-837345J751317D01*
G01*
G37*
%TD.AperFunction*%
%TO.P,MX24,2*%
%TO.N,Net-(D24-Pad2)*%
X120015000Y-17145000D03*
%TA.AperFunction,ComponentPad*%
G36*
G01*
X119898483Y-18847395D02*
X119897597Y-18847334D01*
G75*
G02*
X118852666Y-17647597I77403J1122334D01*
G01*
X118892666Y-17067597D01*
G75*
G02*
X120092403Y-16022666I1122334J-77403D01*
G01*
X120092403Y-16022666D01*
G75*
G02*
X121137334Y-17222403I-77403J-1122334D01*
G01*
X121097334Y-17802403D01*
G75*
G02*
X119897597Y-18847334I-1122334J77403D01*
G01*
G37*
%TD.AperFunction*%
%TD*%
%TO.P,MX23,1*%
%TO.N,COL4*%
X91162500Y-94425000D03*
%TA.AperFunction,ComponentPad*%
G36*
G01*
X89101188Y-96722350D02*
X89101183Y-96722345D01*
G75*
G02*
X89015155Y-95133683I751317J837345D01*
G01*
X90325157Y-93673683D01*
G75*
G02*
X91913819Y-93587655I837345J-751317D01*
G01*
X91913819Y-93587655D01*
G75*
G02*
X91999847Y-95176317I-751317J-837345D01*
G01*
X90689845Y-96636317D01*
G75*
G02*
X89101183Y-96722345I-837345J751317D01*
G01*
G37*
%TD.AperFunction*%
%TO.P,MX23,2*%
%TO.N,Net-(D23-Pad2)*%
X96202500Y-93345000D03*
%TA.AperFunction,ComponentPad*%
G36*
G01*
X96085983Y-95047395D02*
X96085097Y-95047334D01*
G75*
G02*
X95040166Y-93847597I77403J1122334D01*
G01*
X95080166Y-93267597D01*
G75*
G02*
X96279903Y-92222666I1122334J-77403D01*
G01*
X96279903Y-92222666D01*
G75*
G02*
X97324834Y-93422403I-77403J-1122334D01*
G01*
X97284834Y-94002403D01*
G75*
G02*
X96085097Y-95047334I-1122334J77403D01*
G01*
G37*
%TD.AperFunction*%
%TD*%
%TO.P,MX22,1*%
%TO.N,COL4*%
X95925000Y-75375000D03*
%TA.AperFunction,ComponentPad*%
G36*
G01*
X93863688Y-77672350D02*
X93863683Y-77672345D01*
G75*
G02*
X93777655Y-76083683I751317J837345D01*
G01*
X95087657Y-74623683D01*
G75*
G02*
X96676319Y-74537655I837345J-751317D01*
G01*
X96676319Y-74537655D01*
G75*
G02*
X96762347Y-76126317I-751317J-837345D01*
G01*
X95452345Y-77586317D01*
G75*
G02*
X93863683Y-77672345I-837345J751317D01*
G01*
G37*
%TD.AperFunction*%
%TO.P,MX22,2*%
%TO.N,Net-(D22-Pad2)*%
X100965000Y-74295000D03*
%TA.AperFunction,ComponentPad*%
G36*
G01*
X100848483Y-75997395D02*
X100847597Y-75997334D01*
G75*
G02*
X99802666Y-74797597I77403J1122334D01*
G01*
X99842666Y-74217597D01*
G75*
G02*
X101042403Y-73172666I1122334J-77403D01*
G01*
X101042403Y-73172666D01*
G75*
G02*
X102087334Y-74372403I-77403J-1122334D01*
G01*
X102047334Y-74952403D01*
G75*
G02*
X100847597Y-75997334I-1122334J77403D01*
G01*
G37*
%TD.AperFunction*%
%TD*%
%TO.P,MX21,1*%
%TO.N,COL4*%
X95925000Y-56325000D03*
%TA.AperFunction,ComponentPad*%
G36*
G01*
X93863688Y-58622350D02*
X93863683Y-58622345D01*
G75*
G02*
X93777655Y-57033683I751317J837345D01*
G01*
X95087657Y-55573683D01*
G75*
G02*
X96676319Y-55487655I837345J-751317D01*
G01*
X96676319Y-55487655D01*
G75*
G02*
X96762347Y-57076317I-751317J-837345D01*
G01*
X95452345Y-58536317D01*
G75*
G02*
X93863683Y-58622345I-837345J751317D01*
G01*
G37*
%TD.AperFunction*%
%TO.P,MX21,2*%
%TO.N,Net-(D21-Pad2)*%
X100965000Y-55245000D03*
%TA.AperFunction,ComponentPad*%
G36*
G01*
X100848483Y-56947395D02*
X100847597Y-56947334D01*
G75*
G02*
X99802666Y-55747597I77403J1122334D01*
G01*
X99842666Y-55167597D01*
G75*
G02*
X101042403Y-54122666I1122334J-77403D01*
G01*
X101042403Y-54122666D01*
G75*
G02*
X102087334Y-55322403I-77403J-1122334D01*
G01*
X102047334Y-55902403D01*
G75*
G02*
X100847597Y-56947334I-1122334J77403D01*
G01*
G37*
%TD.AperFunction*%
%TD*%
%TO.P,MX20,1*%
%TO.N,COL4*%
X95925000Y-37275000D03*
%TA.AperFunction,ComponentPad*%
G36*
G01*
X93863688Y-39572350D02*
X93863683Y-39572345D01*
G75*
G02*
X93777655Y-37983683I751317J837345D01*
G01*
X95087657Y-36523683D01*
G75*
G02*
X96676319Y-36437655I837345J-751317D01*
G01*
X96676319Y-36437655D01*
G75*
G02*
X96762347Y-38026317I-751317J-837345D01*
G01*
X95452345Y-39486317D01*
G75*
G02*
X93863683Y-39572345I-837345J751317D01*
G01*
G37*
%TD.AperFunction*%
%TO.P,MX20,2*%
%TO.N,Net-(D20-Pad2)*%
X100965000Y-36195000D03*
%TA.AperFunction,ComponentPad*%
G36*
G01*
X100848483Y-37897395D02*
X100847597Y-37897334D01*
G75*
G02*
X99802666Y-36697597I77403J1122334D01*
G01*
X99842666Y-36117597D01*
G75*
G02*
X101042403Y-35072666I1122334J-77403D01*
G01*
X101042403Y-35072666D01*
G75*
G02*
X102087334Y-36272403I-77403J-1122334D01*
G01*
X102047334Y-36852403D01*
G75*
G02*
X100847597Y-37897334I-1122334J77403D01*
G01*
G37*
%TD.AperFunction*%
%TD*%
%TO.P,MX19,1*%
%TO.N,COL4*%
X95925000Y-18225000D03*
%TA.AperFunction,ComponentPad*%
G36*
G01*
X93863688Y-20522350D02*
X93863683Y-20522345D01*
G75*
G02*
X93777655Y-18933683I751317J837345D01*
G01*
X95087657Y-17473683D01*
G75*
G02*
X96676319Y-17387655I837345J-751317D01*
G01*
X96676319Y-17387655D01*
G75*
G02*
X96762347Y-18976317I-751317J-837345D01*
G01*
X95452345Y-20436317D01*
G75*
G02*
X93863683Y-20522345I-837345J751317D01*
G01*
G37*
%TD.AperFunction*%
%TO.P,MX19,2*%
%TO.N,Net-(D19-Pad2)*%
X100965000Y-17145000D03*
%TA.AperFunction,ComponentPad*%
G36*
G01*
X100848483Y-18847395D02*
X100847597Y-18847334D01*
G75*
G02*
X99802666Y-17647597I77403J1122334D01*
G01*
X99842666Y-17067597D01*
G75*
G02*
X101042403Y-16022666I1122334J-77403D01*
G01*
X101042403Y-16022666D01*
G75*
G02*
X102087334Y-17222403I-77403J-1122334D01*
G01*
X102047334Y-17802403D01*
G75*
G02*
X100847597Y-18847334I-1122334J77403D01*
G01*
G37*
%TD.AperFunction*%
%TD*%
%TO.P,MX18,1*%
%TO.N,COL3*%
X67350000Y-94425000D03*
%TA.AperFunction,ComponentPad*%
G36*
G01*
X65288688Y-96722350D02*
X65288683Y-96722345D01*
G75*
G02*
X65202655Y-95133683I751317J837345D01*
G01*
X66512657Y-93673683D01*
G75*
G02*
X68101319Y-93587655I837345J-751317D01*
G01*
X68101319Y-93587655D01*
G75*
G02*
X68187347Y-95176317I-751317J-837345D01*
G01*
X66877345Y-96636317D01*
G75*
G02*
X65288683Y-96722345I-837345J751317D01*
G01*
G37*
%TD.AperFunction*%
%TO.P,MX18,2*%
%TO.N,Net-(D18-Pad2)*%
X72390000Y-93345000D03*
%TA.AperFunction,ComponentPad*%
G36*
G01*
X72273483Y-95047395D02*
X72272597Y-95047334D01*
G75*
G02*
X71227666Y-93847597I77403J1122334D01*
G01*
X71267666Y-93267597D01*
G75*
G02*
X72467403Y-92222666I1122334J-77403D01*
G01*
X72467403Y-92222666D01*
G75*
G02*
X73512334Y-93422403I-77403J-1122334D01*
G01*
X73472334Y-94002403D01*
G75*
G02*
X72272597Y-95047334I-1122334J77403D01*
G01*
G37*
%TD.AperFunction*%
%TD*%
%TO.P,MX17,1*%
%TO.N,COL3*%
X76875000Y-75375000D03*
%TA.AperFunction,ComponentPad*%
G36*
G01*
X74813688Y-77672350D02*
X74813683Y-77672345D01*
G75*
G02*
X74727655Y-76083683I751317J837345D01*
G01*
X76037657Y-74623683D01*
G75*
G02*
X77626319Y-74537655I837345J-751317D01*
G01*
X77626319Y-74537655D01*
G75*
G02*
X77712347Y-76126317I-751317J-837345D01*
G01*
X76402345Y-77586317D01*
G75*
G02*
X74813683Y-77672345I-837345J751317D01*
G01*
G37*
%TD.AperFunction*%
%TO.P,MX17,2*%
%TO.N,Net-(D17-Pad2)*%
X81915000Y-74295000D03*
%TA.AperFunction,ComponentPad*%
G36*
G01*
X81798483Y-75997395D02*
X81797597Y-75997334D01*
G75*
G02*
X80752666Y-74797597I77403J1122334D01*
G01*
X80792666Y-74217597D01*
G75*
G02*
X81992403Y-73172666I1122334J-77403D01*
G01*
X81992403Y-73172666D01*
G75*
G02*
X83037334Y-74372403I-77403J-1122334D01*
G01*
X82997334Y-74952403D01*
G75*
G02*
X81797597Y-75997334I-1122334J77403D01*
G01*
G37*
%TD.AperFunction*%
%TD*%
%TO.P,MX16,1*%
%TO.N,COL3*%
X76875000Y-56325000D03*
%TA.AperFunction,ComponentPad*%
G36*
G01*
X74813688Y-58622350D02*
X74813683Y-58622345D01*
G75*
G02*
X74727655Y-57033683I751317J837345D01*
G01*
X76037657Y-55573683D01*
G75*
G02*
X77626319Y-55487655I837345J-751317D01*
G01*
X77626319Y-55487655D01*
G75*
G02*
X77712347Y-57076317I-751317J-837345D01*
G01*
X76402345Y-58536317D01*
G75*
G02*
X74813683Y-58622345I-837345J751317D01*
G01*
G37*
%TD.AperFunction*%
%TO.P,MX16,2*%
%TO.N,Net-(D16-Pad2)*%
X81915000Y-55245000D03*
%TA.AperFunction,ComponentPad*%
G36*
G01*
X81798483Y-56947395D02*
X81797597Y-56947334D01*
G75*
G02*
X80752666Y-55747597I77403J1122334D01*
G01*
X80792666Y-55167597D01*
G75*
G02*
X81992403Y-54122666I1122334J-77403D01*
G01*
X81992403Y-54122666D01*
G75*
G02*
X83037334Y-55322403I-77403J-1122334D01*
G01*
X82997334Y-55902403D01*
G75*
G02*
X81797597Y-56947334I-1122334J77403D01*
G01*
G37*
%TD.AperFunction*%
%TD*%
%TO.P,MX15,1*%
%TO.N,COL3*%
X76875000Y-37275000D03*
%TA.AperFunction,ComponentPad*%
G36*
G01*
X74813688Y-39572350D02*
X74813683Y-39572345D01*
G75*
G02*
X74727655Y-37983683I751317J837345D01*
G01*
X76037657Y-36523683D01*
G75*
G02*
X77626319Y-36437655I837345J-751317D01*
G01*
X77626319Y-36437655D01*
G75*
G02*
X77712347Y-38026317I-751317J-837345D01*
G01*
X76402345Y-39486317D01*
G75*
G02*
X74813683Y-39572345I-837345J751317D01*
G01*
G37*
%TD.AperFunction*%
%TO.P,MX15,2*%
%TO.N,Net-(D15-Pad2)*%
X81915000Y-36195000D03*
%TA.AperFunction,ComponentPad*%
G36*
G01*
X81798483Y-37897395D02*
X81797597Y-37897334D01*
G75*
G02*
X80752666Y-36697597I77403J1122334D01*
G01*
X80792666Y-36117597D01*
G75*
G02*
X81992403Y-35072666I1122334J-77403D01*
G01*
X81992403Y-35072666D01*
G75*
G02*
X83037334Y-36272403I-77403J-1122334D01*
G01*
X82997334Y-36852403D01*
G75*
G02*
X81797597Y-37897334I-1122334J77403D01*
G01*
G37*
%TD.AperFunction*%
%TD*%
%TO.P,MX14,1*%
%TO.N,COL3*%
X76875000Y-18225000D03*
%TA.AperFunction,ComponentPad*%
G36*
G01*
X74813688Y-20522350D02*
X74813683Y-20522345D01*
G75*
G02*
X74727655Y-18933683I751317J837345D01*
G01*
X76037657Y-17473683D01*
G75*
G02*
X77626319Y-17387655I837345J-751317D01*
G01*
X77626319Y-17387655D01*
G75*
G02*
X77712347Y-18976317I-751317J-837345D01*
G01*
X76402345Y-20436317D01*
G75*
G02*
X74813683Y-20522345I-837345J751317D01*
G01*
G37*
%TD.AperFunction*%
%TO.P,MX14,2*%
%TO.N,Net-(D14-Pad2)*%
X81915000Y-17145000D03*
%TA.AperFunction,ComponentPad*%
G36*
G01*
X81798483Y-18847395D02*
X81797597Y-18847334D01*
G75*
G02*
X80752666Y-17647597I77403J1122334D01*
G01*
X80792666Y-17067597D01*
G75*
G02*
X81992403Y-16022666I1122334J-77403D01*
G01*
X81992403Y-16022666D01*
G75*
G02*
X83037334Y-17222403I-77403J-1122334D01*
G01*
X82997334Y-17802403D01*
G75*
G02*
X81797597Y-18847334I-1122334J77403D01*
G01*
G37*
%TD.AperFunction*%
%TD*%
%TO.P,MX13,1*%
%TO.N,COL2*%
X48300000Y-94425000D03*
%TA.AperFunction,ComponentPad*%
G36*
G01*
X46238688Y-96722350D02*
X46238683Y-96722345D01*
G75*
G02*
X46152655Y-95133683I751317J837345D01*
G01*
X47462657Y-93673683D01*
G75*
G02*
X49051319Y-93587655I837345J-751317D01*
G01*
X49051319Y-93587655D01*
G75*
G02*
X49137347Y-95176317I-751317J-837345D01*
G01*
X47827345Y-96636317D01*
G75*
G02*
X46238683Y-96722345I-837345J751317D01*
G01*
G37*
%TD.AperFunction*%
%TO.P,MX13,2*%
%TO.N,Net-(D13-Pad2)*%
X53340000Y-93345000D03*
%TA.AperFunction,ComponentPad*%
G36*
G01*
X53223483Y-95047395D02*
X53222597Y-95047334D01*
G75*
G02*
X52177666Y-93847597I77403J1122334D01*
G01*
X52217666Y-93267597D01*
G75*
G02*
X53417403Y-92222666I1122334J-77403D01*
G01*
X53417403Y-92222666D01*
G75*
G02*
X54462334Y-93422403I-77403J-1122334D01*
G01*
X54422334Y-94002403D01*
G75*
G02*
X53222597Y-95047334I-1122334J77403D01*
G01*
G37*
%TD.AperFunction*%
%TD*%
%TO.P,MX12,1*%
%TO.N,COL2*%
X57825000Y-75375000D03*
%TA.AperFunction,ComponentPad*%
G36*
G01*
X55763688Y-77672350D02*
X55763683Y-77672345D01*
G75*
G02*
X55677655Y-76083683I751317J837345D01*
G01*
X56987657Y-74623683D01*
G75*
G02*
X58576319Y-74537655I837345J-751317D01*
G01*
X58576319Y-74537655D01*
G75*
G02*
X58662347Y-76126317I-751317J-837345D01*
G01*
X57352345Y-77586317D01*
G75*
G02*
X55763683Y-77672345I-837345J751317D01*
G01*
G37*
%TD.AperFunction*%
%TO.P,MX12,2*%
%TO.N,Net-(D12-Pad2)*%
X62865000Y-74295000D03*
%TA.AperFunction,ComponentPad*%
G36*
G01*
X62748483Y-75997395D02*
X62747597Y-75997334D01*
G75*
G02*
X61702666Y-74797597I77403J1122334D01*
G01*
X61742666Y-74217597D01*
G75*
G02*
X62942403Y-73172666I1122334J-77403D01*
G01*
X62942403Y-73172666D01*
G75*
G02*
X63987334Y-74372403I-77403J-1122334D01*
G01*
X63947334Y-74952403D01*
G75*
G02*
X62747597Y-75997334I-1122334J77403D01*
G01*
G37*
%TD.AperFunction*%
%TD*%
%TO.P,MX11,1*%
%TO.N,COL2*%
X57825000Y-56325000D03*
%TA.AperFunction,ComponentPad*%
G36*
G01*
X55763688Y-58622350D02*
X55763683Y-58622345D01*
G75*
G02*
X55677655Y-57033683I751317J837345D01*
G01*
X56987657Y-55573683D01*
G75*
G02*
X58576319Y-55487655I837345J-751317D01*
G01*
X58576319Y-55487655D01*
G75*
G02*
X58662347Y-57076317I-751317J-837345D01*
G01*
X57352345Y-58536317D01*
G75*
G02*
X55763683Y-58622345I-837345J751317D01*
G01*
G37*
%TD.AperFunction*%
%TO.P,MX11,2*%
%TO.N,Net-(D11-Pad2)*%
X62865000Y-55245000D03*
%TA.AperFunction,ComponentPad*%
G36*
G01*
X62748483Y-56947395D02*
X62747597Y-56947334D01*
G75*
G02*
X61702666Y-55747597I77403J1122334D01*
G01*
X61742666Y-55167597D01*
G75*
G02*
X62942403Y-54122666I1122334J-77403D01*
G01*
X62942403Y-54122666D01*
G75*
G02*
X63987334Y-55322403I-77403J-1122334D01*
G01*
X63947334Y-55902403D01*
G75*
G02*
X62747597Y-56947334I-1122334J77403D01*
G01*
G37*
%TD.AperFunction*%
%TD*%
%TO.P,MX10,1*%
%TO.N,COL2*%
X57825000Y-37275000D03*
%TA.AperFunction,ComponentPad*%
G36*
G01*
X55763688Y-39572350D02*
X55763683Y-39572345D01*
G75*
G02*
X55677655Y-37983683I751317J837345D01*
G01*
X56987657Y-36523683D01*
G75*
G02*
X58576319Y-36437655I837345J-751317D01*
G01*
X58576319Y-36437655D01*
G75*
G02*
X58662347Y-38026317I-751317J-837345D01*
G01*
X57352345Y-39486317D01*
G75*
G02*
X55763683Y-39572345I-837345J751317D01*
G01*
G37*
%TD.AperFunction*%
%TO.P,MX10,2*%
%TO.N,Net-(D10-Pad2)*%
X62865000Y-36195000D03*
%TA.AperFunction,ComponentPad*%
G36*
G01*
X62748483Y-37897395D02*
X62747597Y-37897334D01*
G75*
G02*
X61702666Y-36697597I77403J1122334D01*
G01*
X61742666Y-36117597D01*
G75*
G02*
X62942403Y-35072666I1122334J-77403D01*
G01*
X62942403Y-35072666D01*
G75*
G02*
X63987334Y-36272403I-77403J-1122334D01*
G01*
X63947334Y-36852403D01*
G75*
G02*
X62747597Y-37897334I-1122334J77403D01*
G01*
G37*
%TD.AperFunction*%
%TD*%
%TO.P,MX9,1*%
%TO.N,COL2*%
X57825000Y-18225000D03*
%TA.AperFunction,ComponentPad*%
G36*
G01*
X55763688Y-20522350D02*
X55763683Y-20522345D01*
G75*
G02*
X55677655Y-18933683I751317J837345D01*
G01*
X56987657Y-17473683D01*
G75*
G02*
X58576319Y-17387655I837345J-751317D01*
G01*
X58576319Y-17387655D01*
G75*
G02*
X58662347Y-18976317I-751317J-837345D01*
G01*
X57352345Y-20436317D01*
G75*
G02*
X55763683Y-20522345I-837345J751317D01*
G01*
G37*
%TD.AperFunction*%
%TO.P,MX9,2*%
%TO.N,Net-(D9-Pad2)*%
X62865000Y-17145000D03*
%TA.AperFunction,ComponentPad*%
G36*
G01*
X62748483Y-18847395D02*
X62747597Y-18847334D01*
G75*
G02*
X61702666Y-17647597I77403J1122334D01*
G01*
X61742666Y-17067597D01*
G75*
G02*
X62942403Y-16022666I1122334J-77403D01*
G01*
X62942403Y-16022666D01*
G75*
G02*
X63987334Y-17222403I-77403J-1122334D01*
G01*
X63947334Y-17802403D01*
G75*
G02*
X62747597Y-18847334I-1122334J77403D01*
G01*
G37*
%TD.AperFunction*%
%TD*%
%TO.P,MX8,1*%
%TO.N,COL1*%
X38775000Y-75375000D03*
%TA.AperFunction,ComponentPad*%
G36*
G01*
X36713688Y-77672350D02*
X36713683Y-77672345D01*
G75*
G02*
X36627655Y-76083683I751317J837345D01*
G01*
X37937657Y-74623683D01*
G75*
G02*
X39526319Y-74537655I837345J-751317D01*
G01*
X39526319Y-74537655D01*
G75*
G02*
X39612347Y-76126317I-751317J-837345D01*
G01*
X38302345Y-77586317D01*
G75*
G02*
X36713683Y-77672345I-837345J751317D01*
G01*
G37*
%TD.AperFunction*%
%TO.P,MX8,2*%
%TO.N,Net-(D8-Pad2)*%
X43815000Y-74295000D03*
%TA.AperFunction,ComponentPad*%
G36*
G01*
X43698483Y-75997395D02*
X43697597Y-75997334D01*
G75*
G02*
X42652666Y-74797597I77403J1122334D01*
G01*
X42692666Y-74217597D01*
G75*
G02*
X43892403Y-73172666I1122334J-77403D01*
G01*
X43892403Y-73172666D01*
G75*
G02*
X44937334Y-74372403I-77403J-1122334D01*
G01*
X44897334Y-74952403D01*
G75*
G02*
X43697597Y-75997334I-1122334J77403D01*
G01*
G37*
%TD.AperFunction*%
%TD*%
%TO.P,MX7,1*%
%TO.N,COL1*%
X38775000Y-56325000D03*
%TA.AperFunction,ComponentPad*%
G36*
G01*
X36713688Y-58622350D02*
X36713683Y-58622345D01*
G75*
G02*
X36627655Y-57033683I751317J837345D01*
G01*
X37937657Y-55573683D01*
G75*
G02*
X39526319Y-55487655I837345J-751317D01*
G01*
X39526319Y-55487655D01*
G75*
G02*
X39612347Y-57076317I-751317J-837345D01*
G01*
X38302345Y-58536317D01*
G75*
G02*
X36713683Y-58622345I-837345J751317D01*
G01*
G37*
%TD.AperFunction*%
%TO.P,MX7,2*%
%TO.N,Net-(D7-Pad2)*%
X43815000Y-55245000D03*
%TA.AperFunction,ComponentPad*%
G36*
G01*
X43698483Y-56947395D02*
X43697597Y-56947334D01*
G75*
G02*
X42652666Y-55747597I77403J1122334D01*
G01*
X42692666Y-55167597D01*
G75*
G02*
X43892403Y-54122666I1122334J-77403D01*
G01*
X43892403Y-54122666D01*
G75*
G02*
X44937334Y-55322403I-77403J-1122334D01*
G01*
X44897334Y-55902403D01*
G75*
G02*
X43697597Y-56947334I-1122334J77403D01*
G01*
G37*
%TD.AperFunction*%
%TD*%
%TO.P,MX6,1*%
%TO.N,COL1*%
X38775000Y-37275000D03*
%TA.AperFunction,ComponentPad*%
G36*
G01*
X36713688Y-39572350D02*
X36713683Y-39572345D01*
G75*
G02*
X36627655Y-37983683I751317J837345D01*
G01*
X37937657Y-36523683D01*
G75*
G02*
X39526319Y-36437655I837345J-751317D01*
G01*
X39526319Y-36437655D01*
G75*
G02*
X39612347Y-38026317I-751317J-837345D01*
G01*
X38302345Y-39486317D01*
G75*
G02*
X36713683Y-39572345I-837345J751317D01*
G01*
G37*
%TD.AperFunction*%
%TO.P,MX6,2*%
%TO.N,Net-(D6-Pad2)*%
X43815000Y-36195000D03*
%TA.AperFunction,ComponentPad*%
G36*
G01*
X43698483Y-37897395D02*
X43697597Y-37897334D01*
G75*
G02*
X42652666Y-36697597I77403J1122334D01*
G01*
X42692666Y-36117597D01*
G75*
G02*
X43892403Y-35072666I1122334J-77403D01*
G01*
X43892403Y-35072666D01*
G75*
G02*
X44937334Y-36272403I-77403J-1122334D01*
G01*
X44897334Y-36852403D01*
G75*
G02*
X43697597Y-37897334I-1122334J77403D01*
G01*
G37*
%TD.AperFunction*%
%TD*%
%TO.P,MX5,1*%
%TO.N,COL1*%
X38775000Y-18225000D03*
%TA.AperFunction,ComponentPad*%
G36*
G01*
X36713688Y-20522350D02*
X36713683Y-20522345D01*
G75*
G02*
X36627655Y-18933683I751317J837345D01*
G01*
X37937657Y-17473683D01*
G75*
G02*
X39526319Y-17387655I837345J-751317D01*
G01*
X39526319Y-17387655D01*
G75*
G02*
X39612347Y-18976317I-751317J-837345D01*
G01*
X38302345Y-20436317D01*
G75*
G02*
X36713683Y-20522345I-837345J751317D01*
G01*
G37*
%TD.AperFunction*%
%TO.P,MX5,2*%
%TO.N,Net-(D5-Pad2)*%
X43815000Y-17145000D03*
%TA.AperFunction,ComponentPad*%
G36*
G01*
X43698483Y-18847395D02*
X43697597Y-18847334D01*
G75*
G02*
X42652666Y-17647597I77403J1122334D01*
G01*
X42692666Y-17067597D01*
G75*
G02*
X43892403Y-16022666I1122334J-77403D01*
G01*
X43892403Y-16022666D01*
G75*
G02*
X44937334Y-17222403I-77403J-1122334D01*
G01*
X44897334Y-17802403D01*
G75*
G02*
X43697597Y-18847334I-1122334J77403D01*
G01*
G37*
%TD.AperFunction*%
%TD*%
%TO.P,MX4,1*%
%TO.N,COL0*%
X19725000Y-75375000D03*
%TA.AperFunction,ComponentPad*%
G36*
G01*
X17663688Y-77672350D02*
X17663683Y-77672345D01*
G75*
G02*
X17577655Y-76083683I751317J837345D01*
G01*
X18887657Y-74623683D01*
G75*
G02*
X20476319Y-74537655I837345J-751317D01*
G01*
X20476319Y-74537655D01*
G75*
G02*
X20562347Y-76126317I-751317J-837345D01*
G01*
X19252345Y-77586317D01*
G75*
G02*
X17663683Y-77672345I-837345J751317D01*
G01*
G37*
%TD.AperFunction*%
%TO.P,MX4,2*%
%TO.N,Net-(D4-Pad2)*%
X24765000Y-74295000D03*
%TA.AperFunction,ComponentPad*%
G36*
G01*
X24648483Y-75997395D02*
X24647597Y-75997334D01*
G75*
G02*
X23602666Y-74797597I77403J1122334D01*
G01*
X23642666Y-74217597D01*
G75*
G02*
X24842403Y-73172666I1122334J-77403D01*
G01*
X24842403Y-73172666D01*
G75*
G02*
X25887334Y-74372403I-77403J-1122334D01*
G01*
X25847334Y-74952403D01*
G75*
G02*
X24647597Y-75997334I-1122334J77403D01*
G01*
G37*
%TD.AperFunction*%
%TD*%
%TO.P,MX3,1*%
%TO.N,COL0*%
X19725000Y-56325000D03*
%TA.AperFunction,ComponentPad*%
G36*
G01*
X17663688Y-58622350D02*
X17663683Y-58622345D01*
G75*
G02*
X17577655Y-57033683I751317J837345D01*
G01*
X18887657Y-55573683D01*
G75*
G02*
X20476319Y-55487655I837345J-751317D01*
G01*
X20476319Y-55487655D01*
G75*
G02*
X20562347Y-57076317I-751317J-837345D01*
G01*
X19252345Y-58536317D01*
G75*
G02*
X17663683Y-58622345I-837345J751317D01*
G01*
G37*
%TD.AperFunction*%
%TO.P,MX3,2*%
%TO.N,Net-(D3-Pad2)*%
X24765000Y-55245000D03*
%TA.AperFunction,ComponentPad*%
G36*
G01*
X24648483Y-56947395D02*
X24647597Y-56947334D01*
G75*
G02*
X23602666Y-55747597I77403J1122334D01*
G01*
X23642666Y-55167597D01*
G75*
G02*
X24842403Y-54122666I1122334J-77403D01*
G01*
X24842403Y-54122666D01*
G75*
G02*
X25887334Y-55322403I-77403J-1122334D01*
G01*
X25847334Y-55902403D01*
G75*
G02*
X24647597Y-56947334I-1122334J77403D01*
G01*
G37*
%TD.AperFunction*%
%TD*%
%TO.P,MX2,1*%
%TO.N,COL0*%
X19725000Y-37275000D03*
%TA.AperFunction,ComponentPad*%
G36*
G01*
X17663688Y-39572350D02*
X17663683Y-39572345D01*
G75*
G02*
X17577655Y-37983683I751317J837345D01*
G01*
X18887657Y-36523683D01*
G75*
G02*
X20476319Y-36437655I837345J-751317D01*
G01*
X20476319Y-36437655D01*
G75*
G02*
X20562347Y-38026317I-751317J-837345D01*
G01*
X19252345Y-39486317D01*
G75*
G02*
X17663683Y-39572345I-837345J751317D01*
G01*
G37*
%TD.AperFunction*%
%TO.P,MX2,2*%
%TO.N,Net-(D2-Pad2)*%
X24765000Y-36195000D03*
%TA.AperFunction,ComponentPad*%
G36*
G01*
X24648483Y-37897395D02*
X24647597Y-37897334D01*
G75*
G02*
X23602666Y-36697597I77403J1122334D01*
G01*
X23642666Y-36117597D01*
G75*
G02*
X24842403Y-35072666I1122334J-77403D01*
G01*
X24842403Y-35072666D01*
G75*
G02*
X25887334Y-36272403I-77403J-1122334D01*
G01*
X25847334Y-36852403D01*
G75*
G02*
X24647597Y-37897334I-1122334J77403D01*
G01*
G37*
%TD.AperFunction*%
%TD*%
%TO.P,MX1,1*%
%TO.N,COL0*%
X19725000Y-18225000D03*
%TA.AperFunction,ComponentPad*%
G36*
G01*
X17663688Y-20522350D02*
X17663683Y-20522345D01*
G75*
G02*
X17577655Y-18933683I751317J837345D01*
G01*
X18887657Y-17473683D01*
G75*
G02*
X20476319Y-17387655I837345J-751317D01*
G01*
X20476319Y-17387655D01*
G75*
G02*
X20562347Y-18976317I-751317J-837345D01*
G01*
X19252345Y-20436317D01*
G75*
G02*
X17663683Y-20522345I-837345J751317D01*
G01*
G37*
%TD.AperFunction*%
%TO.P,MX1,2*%
%TO.N,Net-(D1-Pad2)*%
X24765000Y-17145000D03*
%TA.AperFunction,ComponentPad*%
G36*
G01*
X24648483Y-18847395D02*
X24647597Y-18847334D01*
G75*
G02*
X23602666Y-17647597I77403J1122334D01*
G01*
X23642666Y-17067597D01*
G75*
G02*
X24842403Y-16022666I1122334J-77403D01*
G01*
X24842403Y-16022666D01*
G75*
G02*
X25887334Y-17222403I-77403J-1122334D01*
G01*
X25847334Y-17802403D01*
G75*
G02*
X24647597Y-18847334I-1122334J77403D01*
G01*
G37*
%TD.AperFunction*%
%TD*%
%TO.P,F1,2*%
%TO.N,VCC*%
%TA.AperFunction,SMDPad,CuDef*%
G36*
G01*
X182108000Y-88506000D02*
X180858000Y-88506000D01*
G75*
G02*
X180608000Y-88256000I0J250000D01*
G01*
X180608000Y-87506000D01*
G75*
G02*
X180858000Y-87256000I250000J0D01*
G01*
X182108000Y-87256000D01*
G75*
G02*
X182358000Y-87506000I0J-250000D01*
G01*
X182358000Y-88256000D01*
G75*
G02*
X182108000Y-88506000I-250000J0D01*
G01*
G37*
%TD.AperFunction*%
%TO.P,F1,1*%
%TO.N,+5V*%
%TA.AperFunction,SMDPad,CuDef*%
G36*
G01*
X182108000Y-91306000D02*
X180858000Y-91306000D01*
G75*
G02*
X180608000Y-91056000I0J250000D01*
G01*
X180608000Y-90306000D01*
G75*
G02*
X180858000Y-90056000I250000J0D01*
G01*
X182108000Y-90056000D01*
G75*
G02*
X182358000Y-90306000I0J-250000D01*
G01*
X182358000Y-91056000D01*
G75*
G02*
X182108000Y-91306000I-250000J0D01*
G01*
G37*
%TD.AperFunction*%
%TD*%
D18*
%TO.P,D46,2*%
%TO.N,Net-(D46-Pad2)*%
X201612500Y-77725000D03*
%TO.P,D46,1*%
%TO.N,ROW3*%
X201612500Y-81025000D03*
%TD*%
%TO.P,D45,2*%
%TO.N,Net-(D45-Pad2)*%
X201612500Y-58675000D03*
%TO.P,D45,1*%
%TO.N,ROW2*%
X201612500Y-61975000D03*
%TD*%
%TO.P,D44,2*%
%TO.N,Net-(D44-Pad2)*%
X201612500Y-39625000D03*
%TO.P,D44,1*%
%TO.N,ROW1*%
X201612500Y-42925000D03*
%TD*%
%TO.P,D43,2*%
%TO.N,Net-(D43-Pad2)*%
X201612500Y-20575000D03*
%TO.P,D43,1*%
%TO.N,ROW0*%
X201612500Y-23875000D03*
%TD*%
%TO.P,D42,2*%
%TO.N,Net-(D42-Pad2)*%
X182562500Y-77725000D03*
%TO.P,D42,1*%
%TO.N,ROW3*%
X182562500Y-81025000D03*
%TD*%
%TO.P,D41,2*%
%TO.N,Net-(D41-Pad2)*%
X182562500Y-58675000D03*
%TO.P,D41,1*%
%TO.N,ROW2*%
X182562500Y-61975000D03*
%TD*%
%TO.P,D40,2*%
%TO.N,Net-(D40-Pad2)*%
X182562500Y-39625000D03*
%TO.P,D40,1*%
%TO.N,ROW1*%
X182562500Y-42925000D03*
%TD*%
%TO.P,D39,2*%
%TO.N,Net-(D39-Pad2)*%
X182562500Y-20575000D03*
%TO.P,D39,1*%
%TO.N,ROW0*%
X182562500Y-23875000D03*
%TD*%
%TO.P,D38,2*%
%TO.N,Net-(D38-Pad2)*%
X173037500Y-96775000D03*
%TO.P,D38,1*%
%TO.N,ROW4*%
X173037500Y-100075000D03*
%TD*%
%TO.P,D37,2*%
%TO.N,Net-(D37-Pad2)*%
X163512500Y-77725000D03*
%TO.P,D37,1*%
%TO.N,ROW3*%
X163512500Y-81025000D03*
%TD*%
%TO.P,D36,2*%
%TO.N,Net-(D36-Pad2)*%
X163512500Y-58675000D03*
%TO.P,D36,1*%
%TO.N,ROW2*%
X163512500Y-61975000D03*
%TD*%
%TO.P,D35,2*%
%TO.N,Net-(D35-Pad2)*%
X163512500Y-39625000D03*
%TO.P,D35,1*%
%TO.N,ROW1*%
X163512500Y-42925000D03*
%TD*%
%TO.P,D34,2*%
%TO.N,Net-(D34-Pad2)*%
X163512500Y-20575000D03*
%TO.P,D34,1*%
%TO.N,ROW0*%
X163512500Y-23875000D03*
%TD*%
%TO.P,D33,2*%
%TO.N,Net-(D33-Pad2)*%
X153987500Y-96775000D03*
%TO.P,D33,1*%
%TO.N,ROW4*%
X153987500Y-100075000D03*
%TD*%
%TO.P,D32,2*%
%TO.N,Net-(D32-Pad2)*%
X144462500Y-77725000D03*
%TO.P,D32,1*%
%TO.N,ROW3*%
X144462500Y-81025000D03*
%TD*%
%TO.P,D31,2*%
%TO.N,Net-(D31-Pad2)*%
X144462500Y-58675000D03*
%TO.P,D31,1*%
%TO.N,ROW2*%
X144462500Y-61975000D03*
%TD*%
%TO.P,D30,2*%
%TO.N,Net-(D30-Pad2)*%
X144462500Y-39625000D03*
%TO.P,D30,1*%
%TO.N,ROW1*%
X144462500Y-42925000D03*
%TD*%
%TO.P,D29,2*%
%TO.N,Net-(D29-Pad2)*%
X144462500Y-20575000D03*
%TO.P,D29,1*%
%TO.N,ROW0*%
X144462500Y-23875000D03*
%TD*%
%TO.P,D28,2*%
%TO.N,Net-(D28-Pad2)*%
X130175000Y-96775000D03*
%TO.P,D28,1*%
%TO.N,ROW4*%
X130175000Y-100075000D03*
%TD*%
%TO.P,D27,2*%
%TO.N,Net-(D27-Pad2)*%
X125412500Y-77725000D03*
%TO.P,D27,1*%
%TO.N,ROW3*%
X125412500Y-81025000D03*
%TD*%
%TO.P,D26,2*%
%TO.N,Net-(D26-Pad2)*%
X125412500Y-58675000D03*
%TO.P,D26,1*%
%TO.N,ROW2*%
X125412500Y-61975000D03*
%TD*%
%TO.P,D25,2*%
%TO.N,Net-(D25-Pad2)*%
X125412500Y-39625000D03*
%TO.P,D25,1*%
%TO.N,ROW1*%
X125412500Y-42925000D03*
%TD*%
%TO.P,D24,2*%
%TO.N,Net-(D24-Pad2)*%
X125412500Y-20575000D03*
%TO.P,D24,1*%
%TO.N,ROW0*%
X125412500Y-23875000D03*
%TD*%
%TO.P,D23,2*%
%TO.N,Net-(D23-Pad2)*%
X101600000Y-96775000D03*
%TO.P,D23,1*%
%TO.N,ROW4*%
X101600000Y-100075000D03*
%TD*%
%TO.P,D22,2*%
%TO.N,Net-(D22-Pad2)*%
X106362500Y-77725000D03*
%TO.P,D22,1*%
%TO.N,ROW3*%
X106362500Y-81025000D03*
%TD*%
%TO.P,D21,2*%
%TO.N,Net-(D21-Pad2)*%
X106362500Y-58675000D03*
%TO.P,D21,1*%
%TO.N,ROW2*%
X106362500Y-61975000D03*
%TD*%
%TO.P,D20,2*%
%TO.N,Net-(D20-Pad2)*%
X106362500Y-39625000D03*
%TO.P,D20,1*%
%TO.N,ROW1*%
X106362500Y-42925000D03*
%TD*%
%TO.P,D18,2*%
%TO.N,Net-(D18-Pad2)*%
X77787500Y-96775000D03*
%TO.P,D18,1*%
%TO.N,ROW4*%
X77787500Y-100075000D03*
%TD*%
%TO.P,D17,2*%
%TO.N,Net-(D17-Pad2)*%
X87312500Y-77725000D03*
%TO.P,D17,1*%
%TO.N,ROW3*%
X87312500Y-81025000D03*
%TD*%
%TO.P,D16,2*%
%TO.N,Net-(D16-Pad2)*%
X87312500Y-58675000D03*
%TO.P,D16,1*%
%TO.N,ROW2*%
X87312500Y-61975000D03*
%TD*%
%TO.P,D15,2*%
%TO.N,Net-(D15-Pad2)*%
X87312500Y-39625000D03*
%TO.P,D15,1*%
%TO.N,ROW1*%
X87312500Y-42925000D03*
%TD*%
%TO.P,D14,2*%
%TO.N,Net-(D14-Pad2)*%
X87312500Y-20575000D03*
%TO.P,D14,1*%
%TO.N,ROW0*%
X87312500Y-23875000D03*
%TD*%
%TO.P,D13,2*%
%TO.N,Net-(D13-Pad2)*%
X58737500Y-96775000D03*
%TO.P,D13,1*%
%TO.N,ROW4*%
X58737500Y-100075000D03*
%TD*%
%TO.P,D12,2*%
%TO.N,Net-(D12-Pad2)*%
X68262500Y-77725000D03*
%TO.P,D12,1*%
%TO.N,ROW3*%
X68262500Y-81025000D03*
%TD*%
%TO.P,D11,2*%
%TO.N,Net-(D11-Pad2)*%
X68262500Y-58675000D03*
%TO.P,D11,1*%
%TO.N,ROW2*%
X68262500Y-61975000D03*
%TD*%
%TO.P,D10,2*%
%TO.N,Net-(D10-Pad2)*%
X68262500Y-39625000D03*
%TO.P,D10,1*%
%TO.N,ROW1*%
X68262500Y-42925000D03*
%TD*%
%TO.P,D9,2*%
%TO.N,Net-(D9-Pad2)*%
X68262500Y-20575000D03*
%TO.P,D9,1*%
%TO.N,ROW0*%
X68262500Y-23875000D03*
%TD*%
%TO.P,D8,2*%
%TO.N,Net-(D8-Pad2)*%
X49212500Y-77725000D03*
%TO.P,D8,1*%
%TO.N,ROW3*%
X49212500Y-81025000D03*
%TD*%
%TO.P,D7,2*%
%TO.N,Net-(D7-Pad2)*%
X49212500Y-58675000D03*
%TO.P,D7,1*%
%TO.N,ROW2*%
X49212500Y-61975000D03*
%TD*%
%TO.P,D6,2*%
%TO.N,Net-(D6-Pad2)*%
X49212500Y-39625000D03*
%TO.P,D6,1*%
%TO.N,ROW1*%
X49212500Y-42925000D03*
%TD*%
%TO.P,D5,2*%
%TO.N,Net-(D5-Pad2)*%
X49212500Y-20575000D03*
%TO.P,D5,1*%
%TO.N,ROW0*%
X49212500Y-23875000D03*
%TD*%
%TO.P,D4,2*%
%TO.N,Net-(D4-Pad2)*%
X30162500Y-77725000D03*
%TO.P,D4,1*%
%TO.N,ROW3*%
X30162500Y-81025000D03*
%TD*%
%TO.P,D3,2*%
%TO.N,Net-(D3-Pad2)*%
X30162500Y-58675000D03*
%TO.P,D3,1*%
%TO.N,ROW2*%
X30162500Y-61975000D03*
%TD*%
%TO.P,D2,2*%
%TO.N,Net-(D2-Pad2)*%
X30162500Y-39625000D03*
%TO.P,D2,1*%
%TO.N,ROW1*%
X30162500Y-42925000D03*
%TD*%
%TO.P,D1,2*%
%TO.N,Net-(D1-Pad2)*%
X30162500Y-20575000D03*
%TO.P,D1,1*%
%TO.N,ROW0*%
X30162500Y-23875000D03*
%TD*%
%TO.P,C7,2*%
%TO.N,GND*%
%TA.AperFunction,SMDPad,CuDef*%
G36*
G01*
X181008000Y-95065000D02*
X181958000Y-95065000D01*
G75*
G02*
X182208000Y-95315000I0J-250000D01*
G01*
X182208000Y-95815000D01*
G75*
G02*
X181958000Y-96065000I-250000J0D01*
G01*
X181008000Y-96065000D01*
G75*
G02*
X180758000Y-95815000I0J250000D01*
G01*
X180758000Y-95315000D01*
G75*
G02*
X181008000Y-95065000I250000J0D01*
G01*
G37*
%TD.AperFunction*%
%TO.P,C7,1*%
%TO.N,+5V*%
%TA.AperFunction,SMDPad,CuDef*%
G36*
G01*
X181008000Y-93165000D02*
X181958000Y-93165000D01*
G75*
G02*
X182208000Y-93415000I0J-250000D01*
G01*
X182208000Y-93915000D01*
G75*
G02*
X181958000Y-94165000I-250000J0D01*
G01*
X181008000Y-94165000D01*
G75*
G02*
X180758000Y-93915000I0J250000D01*
G01*
X180758000Y-93415000D01*
G75*
G02*
X181008000Y-93165000I250000J0D01*
G01*
G37*
%TD.AperFunction*%
%TD*%
%TO.P,C6,2*%
%TO.N,GND*%
%TA.AperFunction,SMDPad,CuDef*%
G36*
G01*
X192372000Y-87180000D02*
X191422000Y-87180000D01*
G75*
G02*
X191172000Y-86930000I0J250000D01*
G01*
X191172000Y-86430000D01*
G75*
G02*
X191422000Y-86180000I250000J0D01*
G01*
X192372000Y-86180000D01*
G75*
G02*
X192622000Y-86430000I0J-250000D01*
G01*
X192622000Y-86930000D01*
G75*
G02*
X192372000Y-87180000I-250000J0D01*
G01*
G37*
%TD.AperFunction*%
%TO.P,C6,1*%
%TO.N,Net-(C6-Pad1)*%
%TA.AperFunction,SMDPad,CuDef*%
G36*
G01*
X192372000Y-89080000D02*
X191422000Y-89080000D01*
G75*
G02*
X191172000Y-88830000I0J250000D01*
G01*
X191172000Y-88330000D01*
G75*
G02*
X191422000Y-88080000I250000J0D01*
G01*
X192372000Y-88080000D01*
G75*
G02*
X192622000Y-88330000I0J-250000D01*
G01*
X192622000Y-88830000D01*
G75*
G02*
X192372000Y-89080000I-250000J0D01*
G01*
G37*
%TD.AperFunction*%
%TD*%
%TO.P,C5,2*%
%TO.N,GND*%
%TA.AperFunction,SMDPad,CuDef*%
G36*
G01*
X199332000Y-92677000D02*
X199332000Y-91727000D01*
G75*
G02*
X199582000Y-91477000I250000J0D01*
G01*
X200082000Y-91477000D01*
G75*
G02*
X200332000Y-91727000I0J-250000D01*
G01*
X200332000Y-92677000D01*
G75*
G02*
X200082000Y-92927000I-250000J0D01*
G01*
X199582000Y-92927000D01*
G75*
G02*
X199332000Y-92677000I0J250000D01*
G01*
G37*
%TD.AperFunction*%
%TO.P,C5,1*%
%TO.N,+5V*%
%TA.AperFunction,SMDPad,CuDef*%
G36*
G01*
X197432000Y-92677000D02*
X197432000Y-91727000D01*
G75*
G02*
X197682000Y-91477000I250000J0D01*
G01*
X198182000Y-91477000D01*
G75*
G02*
X198432000Y-91727000I0J-250000D01*
G01*
X198432000Y-92677000D01*
G75*
G02*
X198182000Y-92927000I-250000J0D01*
G01*
X197682000Y-92927000D01*
G75*
G02*
X197432000Y-92677000I0J250000D01*
G01*
G37*
%TD.AperFunction*%
%TD*%
%TO.P,C4,2*%
%TO.N,GND*%
%TA.AperFunction,SMDPad,CuDef*%
G36*
G01*
X198940000Y-94394000D02*
X198940000Y-95344000D01*
G75*
G02*
X198690000Y-95594000I-250000J0D01*
G01*
X198190000Y-95594000D01*
G75*
G02*
X197940000Y-95344000I0J250000D01*
G01*
X197940000Y-94394000D01*
G75*
G02*
X198190000Y-94144000I250000J0D01*
G01*
X198690000Y-94144000D01*
G75*
G02*
X198940000Y-94394000I0J-250000D01*
G01*
G37*
%TD.AperFunction*%
%TO.P,C4,1*%
%TO.N,Net-(C4-Pad1)*%
%TA.AperFunction,SMDPad,CuDef*%
G36*
G01*
X200840000Y-94394000D02*
X200840000Y-95344000D01*
G75*
G02*
X200590000Y-95594000I-250000J0D01*
G01*
X200090000Y-95594000D01*
G75*
G02*
X199840000Y-95344000I0J250000D01*
G01*
X199840000Y-94394000D01*
G75*
G02*
X200090000Y-94144000I250000J0D01*
G01*
X200590000Y-94144000D01*
G75*
G02*
X200840000Y-94394000I0J-250000D01*
G01*
G37*
%TD.AperFunction*%
%TD*%
%TO.P,C3,2*%
%TO.N,GND*%
%TA.AperFunction,SMDPad,CuDef*%
G36*
G01*
X199713000Y-103218000D02*
X199713000Y-102268000D01*
G75*
G02*
X199963000Y-102018000I250000J0D01*
G01*
X200463000Y-102018000D01*
G75*
G02*
X200713000Y-102268000I0J-250000D01*
G01*
X200713000Y-103218000D01*
G75*
G02*
X200463000Y-103468000I-250000J0D01*
G01*
X199963000Y-103468000D01*
G75*
G02*
X199713000Y-103218000I0J250000D01*
G01*
G37*
%TD.AperFunction*%
%TO.P,C3,1*%
%TO.N,Net-(C3-Pad1)*%
%TA.AperFunction,SMDPad,CuDef*%
G36*
G01*
X197813000Y-103218000D02*
X197813000Y-102268000D01*
G75*
G02*
X198063000Y-102018000I250000J0D01*
G01*
X198563000Y-102018000D01*
G75*
G02*
X198813000Y-102268000I0J-250000D01*
G01*
X198813000Y-103218000D01*
G75*
G02*
X198563000Y-103468000I-250000J0D01*
G01*
X198063000Y-103468000D01*
G75*
G02*
X197813000Y-103218000I0J250000D01*
G01*
G37*
%TD.AperFunction*%
%TD*%
%TO.P,C2,2*%
%TO.N,GND*%
%TA.AperFunction,SMDPad,CuDef*%
G36*
G01*
X180525000Y-102268000D02*
X180525000Y-103218000D01*
G75*
G02*
X180275000Y-103468000I-250000J0D01*
G01*
X179775000Y-103468000D01*
G75*
G02*
X179525000Y-103218000I0J250000D01*
G01*
X179525000Y-102268000D01*
G75*
G02*
X179775000Y-102018000I250000J0D01*
G01*
X180275000Y-102018000D01*
G75*
G02*
X180525000Y-102268000I0J-250000D01*
G01*
G37*
%TD.AperFunction*%
%TO.P,C2,1*%
%TO.N,+5V*%
%TA.AperFunction,SMDPad,CuDef*%
G36*
G01*
X182425000Y-102268000D02*
X182425000Y-103218000D01*
G75*
G02*
X182175000Y-103468000I-250000J0D01*
G01*
X181675000Y-103468000D01*
G75*
G02*
X181425000Y-103218000I0J250000D01*
G01*
X181425000Y-102268000D01*
G75*
G02*
X181675000Y-102018000I250000J0D01*
G01*
X182175000Y-102018000D01*
G75*
G02*
X182425000Y-102268000I0J-250000D01*
G01*
G37*
%TD.AperFunction*%
%TD*%
%TO.P,C1,2*%
%TO.N,GND*%
%TA.AperFunction,SMDPad,CuDef*%
G36*
G01*
X199332000Y-105758000D02*
X199332000Y-104808000D01*
G75*
G02*
X199582000Y-104558000I250000J0D01*
G01*
X200082000Y-104558000D01*
G75*
G02*
X200332000Y-104808000I0J-250000D01*
G01*
X200332000Y-105758000D01*
G75*
G02*
X200082000Y-106008000I-250000J0D01*
G01*
X199582000Y-106008000D01*
G75*
G02*
X199332000Y-105758000I0J250000D01*
G01*
G37*
%TD.AperFunction*%
%TO.P,C1,1*%
%TO.N,+5V*%
%TA.AperFunction,SMDPad,CuDef*%
G36*
G01*
X197432000Y-105758000D02*
X197432000Y-104808000D01*
G75*
G02*
X197682000Y-104558000I250000J0D01*
G01*
X198182000Y-104558000D01*
G75*
G02*
X198432000Y-104808000I0J-250000D01*
G01*
X198432000Y-105758000D01*
G75*
G02*
X198182000Y-106008000I-250000J0D01*
G01*
X197682000Y-106008000D01*
G75*
G02*
X197432000Y-105758000I0J250000D01*
G01*
G37*
%TD.AperFunction*%
%TD*%
D19*
%TO.N,+5V*%
X181483000Y-85217000D03*
X190627000Y-85217000D03*
%TO.N,ROW0*%
X167404999Y-25672999D03*
X178666328Y-97367127D03*
X112649000Y-24765000D03*
X101600000Y-31750000D03*
%TO.N,ROW1*%
X166642999Y-44976999D03*
X179197000Y-98298000D03*
X188976000Y-43815000D03*
X183515000Y-43815000D03*
%TO.N,ROW2*%
X165735000Y-63627000D03*
X179959000Y-99060000D03*
X188595000Y-62992000D03*
X183642000Y-62992000D03*
%TO.N,ROW3*%
X188849000Y-82042000D03*
X183642000Y-82042000D03*
%TO.N,COL0*%
X191135000Y-106553000D03*
%TO.N,COL1*%
X189767118Y-106420118D03*
%TO.N,COL3*%
X66040000Y-104140000D03*
%TO.N,COL4*%
X89916000Y-104140000D03*
%TO.N,COL5*%
X118491000Y-104140000D03*
%TO.N,COL6*%
X142240000Y-104140000D03*
%TO.N,COL7*%
X161290000Y-104140000D03*
%TO.N,COL8*%
X178435000Y-96266000D03*
%TO.N,COL9*%
X192024000Y-90833500D03*
%TD*%
D20*
%TO.N,GND*%
X188817250Y-92528250D02*
X188842750Y-92502750D01*
X188788000Y-92448000D02*
X188842750Y-92502750D01*
X181483000Y-95565000D02*
X182311000Y-95565000D01*
X182873250Y-95002750D02*
X183942750Y-95002750D01*
X182311000Y-95565000D02*
X182873250Y-95002750D01*
X188728750Y-95002750D02*
X188817250Y-95091250D01*
X183942750Y-95002750D02*
X188728750Y-95002750D01*
X188817250Y-95091250D02*
X188817250Y-92528250D01*
X195243250Y-96602750D02*
X195230750Y-96615250D01*
X195342750Y-96602750D02*
X195243250Y-96602750D01*
X188817250Y-96615250D02*
X188817250Y-95091250D01*
X188817250Y-97659250D02*
X188817250Y-96615250D01*
X185073750Y-101402750D02*
X188817250Y-97659250D01*
X183942750Y-101402750D02*
X185073750Y-101402750D01*
X180025000Y-102743000D02*
X180025000Y-101661000D01*
X180283250Y-101402750D02*
X183942750Y-101402750D01*
X180025000Y-101661000D02*
X180283250Y-101402750D01*
X180062500Y-102780500D02*
X180025000Y-102743000D01*
X196542791Y-96602750D02*
X195342750Y-96602750D01*
X199832000Y-92202000D02*
X199832000Y-93030000D01*
X198440000Y-94422000D02*
X198440000Y-94869000D01*
X199832000Y-93030000D02*
X198440000Y-94422000D01*
X196706250Y-96602750D02*
X196542791Y-96602750D01*
X198440000Y-94869000D02*
X196706250Y-96602750D01*
X200367000Y-100287000D02*
X201676000Y-98978000D01*
X201676000Y-98978000D02*
X201676000Y-93726000D01*
X200152000Y-92202000D02*
X199832000Y-92202000D01*
X201676000Y-93726000D02*
X200152000Y-92202000D01*
X200367000Y-100089902D02*
X200367000Y-100287000D01*
X198667000Y-98389902D02*
X200367000Y-100089902D01*
X198667000Y-98087000D02*
X198667000Y-98389902D01*
X200966000Y-84129000D02*
X200969000Y-84129000D01*
X194414848Y-96602750D02*
X195342750Y-96602750D01*
X193642750Y-97374848D02*
X194414848Y-96602750D01*
X193614250Y-97659250D02*
X193642750Y-97630750D01*
X188817250Y-97659250D02*
X193614250Y-97659250D01*
X193642750Y-97630750D02*
X193642750Y-97374848D01*
X193642750Y-103902750D02*
X193642750Y-97630750D01*
X200213000Y-100441000D02*
X200367000Y-100287000D01*
X200213000Y-102743000D02*
X200213000Y-100441000D01*
X199832000Y-103124000D02*
X200213000Y-102743000D01*
X199832000Y-105283000D02*
X199832000Y-103124000D01*
X199333171Y-85761829D02*
X200966000Y-84129000D01*
X199333171Y-91703171D02*
X199333171Y-85761829D01*
X199832000Y-92202000D02*
X199333171Y-91703171D01*
X179493500Y-102211500D02*
X180025000Y-102743000D01*
X178181000Y-102211500D02*
X179493500Y-102211500D01*
X109550000Y-15612500D02*
X109550000Y-13771000D01*
X183880250Y-26463500D02*
X113177558Y-26463500D01*
X109550000Y-22835942D02*
X109550000Y-15612500D01*
X113177558Y-26463500D02*
X109550000Y-22835942D01*
X187329499Y-29912749D02*
X183880250Y-26463500D01*
X187329499Y-81760749D02*
X187329499Y-29912749D01*
X189836499Y-84267749D02*
X187329499Y-81760749D01*
X188842750Y-91446250D02*
X189836499Y-90452501D01*
X188842750Y-92502750D02*
X188842750Y-91446250D01*
X190635998Y-86680000D02*
X189836499Y-85880501D01*
X191897000Y-86680000D02*
X190635998Y-86680000D01*
X189836499Y-85880501D02*
X189836499Y-84267749D01*
X189836499Y-90452501D02*
X189836499Y-85880501D01*
%TO.N,+5V*%
X181483000Y-93665000D02*
X182311000Y-93665000D01*
X182848750Y-94202750D02*
X183942750Y-94202750D01*
X182311000Y-93665000D02*
X182848750Y-94202750D01*
X195320750Y-95824750D02*
X195342750Y-95802750D01*
X181925000Y-102743000D02*
X182433000Y-102235000D01*
X183910500Y-102235000D02*
X183942750Y-102202750D01*
X182433000Y-102235000D02*
X183910500Y-102235000D01*
X181483000Y-90681000D02*
X181483000Y-93665000D01*
X181997510Y-91195510D02*
X181483000Y-90681000D01*
X197932000Y-92202000D02*
X197367510Y-92766490D01*
X196521119Y-95802750D02*
X195342750Y-95802750D01*
X197367510Y-94956359D02*
X196521119Y-95802750D01*
X197367510Y-92766490D02*
X197367510Y-94956359D01*
X180089000Y-90681000D02*
X181483000Y-90681000D01*
X179832000Y-90424000D02*
X180089000Y-90681000D01*
X179832000Y-86868000D02*
X179832000Y-90424000D01*
X197932000Y-88458000D02*
X197932000Y-92202000D01*
X195961000Y-86487000D02*
X197932000Y-88458000D01*
X192842750Y-103053750D02*
X192842750Y-103902750D01*
X191991750Y-102202750D02*
X192842750Y-103053750D01*
X183942750Y-102202750D02*
X191991750Y-102202750D01*
X193092000Y-105283000D02*
X197932000Y-105283000D01*
X192842750Y-105033750D02*
X193092000Y-105283000D01*
X192842750Y-103902750D02*
X192842750Y-105033750D01*
X199517000Y-82931000D02*
X195961000Y-86487000D01*
X202438000Y-83448098D02*
X201920902Y-82931000D01*
X202438000Y-105029000D02*
X202438000Y-83448098D01*
X201920902Y-82931000D02*
X199517000Y-82931000D01*
X200660000Y-106807000D02*
X202438000Y-105029000D01*
X197932000Y-105283000D02*
X197932000Y-106238000D01*
X198501000Y-106807000D02*
X200660000Y-106807000D01*
X197932000Y-106238000D02*
X198501000Y-106807000D01*
X179832000Y-86868000D02*
X181483000Y-85217000D01*
X192659000Y-85217000D02*
X193475499Y-86033499D01*
X190627000Y-85217000D02*
X192659000Y-85217000D01*
X193929000Y-86487000D02*
X193475499Y-86033499D01*
X195961000Y-86487000D02*
X193929000Y-86487000D01*
X193475499Y-89739999D02*
X193475499Y-86033499D01*
X193778500Y-90043000D02*
X193475499Y-89739999D01*
X190442750Y-91574848D02*
X190442750Y-92502750D01*
X190871519Y-91146079D02*
X190442750Y-91574848D01*
X191644559Y-90042999D02*
X190871519Y-90816039D01*
X190871519Y-90816039D02*
X190871519Y-91146079D01*
X193778500Y-90043000D02*
X191644559Y-90042999D01*
X186442750Y-91371750D02*
X186442750Y-92502750D01*
X185752000Y-90681000D02*
X186442750Y-91371750D01*
X181483000Y-90681000D02*
X185752000Y-90681000D01*
D21*
%TO.N,Net-(C3-Pad1)*%
X196582750Y-98202750D02*
X195342750Y-98202750D01*
X198667000Y-100287000D02*
X196582750Y-98202750D01*
X198313000Y-100641000D02*
X198667000Y-100287000D01*
X198313000Y-102743000D02*
X198313000Y-100641000D01*
%TO.N,Net-(C4-Pad1)*%
X195349000Y-97409000D02*
X195342750Y-97402750D01*
X200367000Y-94896000D02*
X200340000Y-94869000D01*
X197354868Y-96686000D02*
X196638118Y-97402750D01*
X200367000Y-96686000D02*
X197354868Y-96686000D01*
X200367000Y-98087000D02*
X200367000Y-96686000D01*
X196638118Y-97402750D02*
X195342750Y-97402750D01*
X200367000Y-96686000D02*
X200367000Y-94896000D01*
%TO.N,Net-(C6-Pad1)*%
X191897000Y-88580000D02*
X190801009Y-88580000D01*
X190801009Y-88580000D02*
X190354009Y-89027000D01*
X189642750Y-91378119D02*
X189642750Y-92502750D01*
X190354009Y-90666860D02*
X189642750Y-91378119D01*
X190354009Y-89027000D02*
X190354009Y-90666860D01*
%TO.N,Net-(D1-Pad2)*%
X27312500Y-17725000D02*
X30162500Y-20575000D01*
X24725000Y-17725000D02*
X27312500Y-17725000D01*
%TO.N,ROW0*%
X48541599Y-24545901D02*
X49212500Y-23875000D01*
X30833401Y-24545901D02*
X48541599Y-24545901D01*
X30162500Y-23875000D02*
X30833401Y-24545901D01*
X67591599Y-24545901D02*
X68262500Y-23875000D01*
X49883401Y-24545901D02*
X67591599Y-24545901D01*
X49212500Y-23875000D02*
X49883401Y-24545901D01*
X86641599Y-24545901D02*
X87312500Y-23875000D01*
X68933401Y-24545901D02*
X86641599Y-24545901D01*
X68262500Y-23875000D02*
X68933401Y-24545901D01*
X124741599Y-24545901D02*
X125412500Y-23875000D01*
X143791599Y-24545901D02*
X144462500Y-23875000D01*
X126083401Y-24545901D02*
X143791599Y-24545901D01*
X125412500Y-23875000D02*
X126083401Y-24545901D01*
X162841599Y-24545901D02*
X163512500Y-23875000D01*
X145133401Y-24545901D02*
X162841599Y-24545901D01*
X144462500Y-23875000D02*
X145133401Y-24545901D01*
X196089000Y-23875000D02*
X201612500Y-23875000D01*
X195418099Y-24545901D02*
X196089000Y-23875000D01*
X183233401Y-24545901D02*
X195418099Y-24545901D01*
X182562500Y-23875000D02*
X183233401Y-24545901D01*
X181891599Y-24545901D02*
X182562500Y-23875000D01*
X163512500Y-23875000D02*
X164183401Y-24545901D01*
X164183401Y-24545901D02*
X166970099Y-24545901D01*
X167351099Y-25619099D02*
X167404999Y-25672999D01*
X167351099Y-24545901D02*
X167351099Y-25619099D01*
X166970099Y-24545901D02*
X167351099Y-24545901D01*
X167351099Y-24545901D02*
X181891599Y-24545901D01*
X178701951Y-97402750D02*
X183942750Y-97402750D01*
X178666328Y-97367127D02*
X178701951Y-97402750D01*
X112868099Y-24545901D02*
X112649000Y-24765000D01*
X124741599Y-24545901D02*
X112868099Y-24545901D01*
X93600000Y-30162500D02*
X87312500Y-23875000D01*
X96775000Y-30162500D02*
X93600000Y-30162500D01*
X96775000Y-30162500D02*
X96775000Y-30893750D01*
X96775000Y-30893750D02*
X97631250Y-31750000D01*
X97631250Y-31750000D02*
X101600000Y-31750000D01*
%TO.N,Net-(D2-Pad2)*%
X27312500Y-36775000D02*
X30162500Y-39625000D01*
X24725000Y-36775000D02*
X27312500Y-36775000D01*
%TO.N,ROW1*%
X48541599Y-43595901D02*
X49212500Y-42925000D01*
X30162500Y-42925000D02*
X30833401Y-43595901D01*
X67591599Y-43595901D02*
X68262500Y-42925000D01*
X49883401Y-43595901D02*
X67591599Y-43595901D01*
X49212500Y-42925000D02*
X49883401Y-43595901D01*
X86641599Y-43595901D02*
X87312500Y-42925000D01*
X68933401Y-43595901D02*
X86641599Y-43595901D01*
X68262500Y-42925000D02*
X68933401Y-43595901D01*
X105691599Y-43595901D02*
X106362500Y-42925000D01*
X87983401Y-43595901D02*
X105691599Y-43595901D01*
X87312500Y-42925000D02*
X87983401Y-43595901D01*
X124741599Y-43595901D02*
X125412500Y-42925000D01*
X107033401Y-43595901D02*
X124741599Y-43595901D01*
X106362500Y-42925000D02*
X107033401Y-43595901D01*
X126083401Y-43595901D02*
X143791599Y-43595901D01*
X143791599Y-43595901D02*
X144462500Y-42925000D01*
X125412500Y-42925000D02*
X126083401Y-43595901D01*
X162841599Y-43595901D02*
X163512500Y-42925000D01*
X145133401Y-43595901D02*
X162841599Y-43595901D01*
X144462500Y-42925000D02*
X145133401Y-43595901D01*
X181891599Y-43595901D02*
X182562500Y-42925000D01*
X163512500Y-42925000D02*
X164183401Y-43595901D01*
X200941599Y-43595901D02*
X201612500Y-42925000D01*
X30833401Y-43595901D02*
X32800901Y-43595901D01*
X32800901Y-43595901D02*
X34001099Y-43595901D01*
X34001099Y-43595901D02*
X48541599Y-43595901D01*
X164183401Y-43595901D02*
X166277901Y-43595901D01*
X166658901Y-44961097D02*
X166642999Y-44976999D01*
X166658901Y-43595901D02*
X166658901Y-44961097D01*
X166277901Y-43595901D02*
X166658901Y-43595901D01*
X166658901Y-43595901D02*
X181891599Y-43595901D01*
X183847500Y-98298000D02*
X183942750Y-98202750D01*
X179197000Y-98298000D02*
X183847500Y-98298000D01*
X189195099Y-43595901D02*
X188976000Y-43815000D01*
X200941599Y-43595901D02*
X189195099Y-43595901D01*
X182625000Y-42925000D02*
X183515000Y-43815000D01*
X182562500Y-42925000D02*
X182625000Y-42925000D01*
%TO.N,Net-(D3-Pad2)*%
X27312500Y-55825000D02*
X30162500Y-58675000D01*
X24725000Y-55825000D02*
X27312500Y-55825000D01*
%TO.N,ROW2*%
X48541599Y-62645901D02*
X49212500Y-61975000D01*
X30162500Y-61975000D02*
X30833401Y-62645901D01*
X67591599Y-62645901D02*
X68262500Y-61975000D01*
X49883401Y-62645901D02*
X67591599Y-62645901D01*
X49212500Y-61975000D02*
X49883401Y-62645901D01*
X86641599Y-62645901D02*
X87312500Y-61975000D01*
X68933401Y-62645901D02*
X86641599Y-62645901D01*
X68262500Y-61975000D02*
X68933401Y-62645901D01*
X105691599Y-62645901D02*
X106362500Y-61975000D01*
X87983401Y-62645901D02*
X105691599Y-62645901D01*
X87312500Y-61975000D02*
X87983401Y-62645901D01*
X124741599Y-62645901D02*
X125412500Y-61975000D01*
X107033401Y-62645901D02*
X124741599Y-62645901D01*
X106362500Y-61975000D02*
X107033401Y-62645901D01*
X143791599Y-62645901D02*
X144462500Y-61975000D01*
X126083401Y-62645901D02*
X143791599Y-62645901D01*
X125412500Y-61975000D02*
X126083401Y-62645901D01*
X162841599Y-62645901D02*
X163512500Y-61975000D01*
X145133401Y-62645901D02*
X162841599Y-62645901D01*
X144462500Y-61975000D02*
X145133401Y-62645901D01*
X181891599Y-62645901D02*
X182562500Y-61975000D01*
X163512500Y-61975000D02*
X164183401Y-62645901D01*
X200941599Y-62645901D02*
X201612500Y-61975000D01*
X182562500Y-61975000D02*
X183233401Y-62645901D01*
X30833401Y-62645901D02*
X33181901Y-62645901D01*
X33181901Y-62645901D02*
X34255099Y-62645901D01*
X34255099Y-62645901D02*
X48541599Y-62645901D01*
X165700099Y-63592099D02*
X165735000Y-63627000D01*
X165700099Y-62645901D02*
X165700099Y-63592099D01*
X164183401Y-62645901D02*
X165700099Y-62645901D01*
X165700099Y-62645901D02*
X181891599Y-62645901D01*
X183885500Y-99060000D02*
X183942750Y-99002750D01*
X179959000Y-99060000D02*
X183885500Y-99060000D01*
X188941099Y-62645901D02*
X188595000Y-62992000D01*
X200941599Y-62645901D02*
X188941099Y-62645901D01*
X183579500Y-62992000D02*
X183233401Y-62645901D01*
X183642000Y-62992000D02*
X183579500Y-62992000D01*
%TO.N,Net-(D4-Pad2)*%
X27312500Y-74875000D02*
X30162500Y-77725000D01*
X24725000Y-74875000D02*
X27312500Y-74875000D01*
%TO.N,ROW3*%
X48541599Y-81695901D02*
X49212500Y-81025000D01*
X30162500Y-81025000D02*
X30833401Y-81695901D01*
X67591599Y-81695901D02*
X68262500Y-81025000D01*
X49883401Y-81695901D02*
X67591599Y-81695901D01*
X49212500Y-81025000D02*
X49883401Y-81695901D01*
X86641599Y-81695901D02*
X87312500Y-81025000D01*
X68933401Y-81695901D02*
X86641599Y-81695901D01*
X68262500Y-81025000D02*
X68933401Y-81695901D01*
X105691599Y-81695901D02*
X106362500Y-81025000D01*
X87983401Y-81695901D02*
X105691599Y-81695901D01*
X87312500Y-81025000D02*
X87983401Y-81695901D01*
X124741599Y-81695901D02*
X125412500Y-81025000D01*
X107033401Y-81695901D02*
X124741599Y-81695901D01*
X106362500Y-81025000D02*
X107033401Y-81695901D01*
X143791599Y-81695901D02*
X144462500Y-81025000D01*
X126083401Y-81695901D02*
X143791599Y-81695901D01*
X125412500Y-81025000D02*
X126083401Y-81695901D01*
X162841599Y-81695901D02*
X163512500Y-81025000D01*
X145133401Y-81695901D02*
X162841599Y-81695901D01*
X144462500Y-81025000D02*
X145133401Y-81695901D01*
X181891599Y-81695901D02*
X182562500Y-81025000D01*
X164183401Y-81695901D02*
X181891599Y-81695901D01*
X163512500Y-81025000D02*
X164183401Y-81695901D01*
X200941599Y-81695901D02*
X201612500Y-81025000D01*
X182562500Y-81025000D02*
X183233401Y-81695901D01*
X34070901Y-81695901D02*
X48541599Y-81695901D01*
X30833401Y-81695901D02*
X33620099Y-81695901D01*
X33620099Y-81695901D02*
X34070901Y-81695901D01*
X164183401Y-81695901D02*
X164183401Y-84935401D01*
X179050750Y-99802750D02*
X183942750Y-99802750D01*
X164183401Y-84935401D02*
X179050750Y-99802750D01*
X189195099Y-81695901D02*
X188849000Y-82042000D01*
X200941599Y-81695901D02*
X189195099Y-81695901D01*
X183579500Y-82042000D02*
X183233401Y-81695901D01*
X183642000Y-82042000D02*
X183579500Y-82042000D01*
%TO.N,Net-(D5-Pad2)*%
X46362500Y-17725000D02*
X49212500Y-20575000D01*
X43775000Y-17725000D02*
X46362500Y-17725000D01*
%TO.N,Net-(D6-Pad2)*%
X46362500Y-36775000D02*
X49212500Y-39625000D01*
X43775000Y-36775000D02*
X46362500Y-36775000D01*
%TO.N,Net-(D7-Pad2)*%
X46362500Y-55825000D02*
X49212500Y-58675000D01*
X43775000Y-55825000D02*
X46362500Y-55825000D01*
%TO.N,Net-(D8-Pad2)*%
X46362500Y-74875000D02*
X49212500Y-77725000D01*
X43775000Y-74875000D02*
X46362500Y-74875000D01*
%TO.N,Net-(D9-Pad2)*%
X65412500Y-17725000D02*
X68262500Y-20575000D01*
X62825000Y-17725000D02*
X65412500Y-17725000D01*
%TO.N,Net-(D10-Pad2)*%
X65412500Y-36775000D02*
X68262500Y-39625000D01*
X62825000Y-36775000D02*
X65412500Y-36775000D01*
%TO.N,Net-(D11-Pad2)*%
X65412500Y-55825000D02*
X68262500Y-58675000D01*
X62825000Y-55825000D02*
X65412500Y-55825000D01*
%TO.N,Net-(D12-Pad2)*%
X65412500Y-74875000D02*
X68262500Y-77725000D01*
X62825000Y-74875000D02*
X65412500Y-74875000D01*
%TO.N,Net-(D13-Pad2)*%
X55887500Y-93925000D02*
X58737500Y-96775000D01*
X53300000Y-93925000D02*
X55887500Y-93925000D01*
%TO.N,ROW4*%
X77116599Y-100745901D02*
X77787500Y-100075000D01*
X59408401Y-100745901D02*
X77116599Y-100745901D01*
X58737500Y-100075000D02*
X59408401Y-100745901D01*
X100929099Y-100745901D02*
X101600000Y-100075000D01*
X78458401Y-100745901D02*
X100929099Y-100745901D01*
X77787500Y-100075000D02*
X78458401Y-100745901D01*
X129504099Y-100745901D02*
X130175000Y-100075000D01*
X102270901Y-100745901D02*
X129504099Y-100745901D01*
X101600000Y-100075000D02*
X102270901Y-100745901D01*
X153316599Y-100745901D02*
X153987500Y-100075000D01*
X130845901Y-100745901D02*
X153316599Y-100745901D01*
X130175000Y-100075000D02*
X130845901Y-100745901D01*
X172366599Y-100745901D02*
X173037500Y-100075000D01*
X154658401Y-100745901D02*
X172366599Y-100745901D01*
X153987500Y-100075000D02*
X154658401Y-100745901D01*
X173565250Y-100602750D02*
X183942750Y-100602750D01*
X173037500Y-100075000D02*
X173565250Y-100602750D01*
%TO.N,Net-(D14-Pad2)*%
X84462500Y-17725000D02*
X87312500Y-20575000D01*
X81875000Y-17725000D02*
X84462500Y-17725000D01*
%TO.N,Net-(D15-Pad2)*%
X84462500Y-36775000D02*
X87312500Y-39625000D01*
X81875000Y-36775000D02*
X84462500Y-36775000D01*
%TO.N,Net-(D16-Pad2)*%
X84462500Y-55825000D02*
X87312500Y-58675000D01*
X81875000Y-55825000D02*
X84462500Y-55825000D01*
%TO.N,Net-(D17-Pad2)*%
X84462500Y-74875000D02*
X87312500Y-77725000D01*
X81875000Y-74875000D02*
X84462500Y-74875000D01*
%TO.N,Net-(D18-Pad2)*%
X74937500Y-93925000D02*
X77787500Y-96775000D01*
X72350000Y-93925000D02*
X74937500Y-93925000D01*
%TO.N,Net-(D19-Pad2)*%
X100925000Y-29312500D02*
X100075000Y-30162500D01*
X100925000Y-17725000D02*
X100925000Y-29312500D01*
%TO.N,Net-(D20-Pad2)*%
X103512500Y-36775000D02*
X106362500Y-39625000D01*
X100925000Y-36775000D02*
X103512500Y-36775000D01*
%TO.N,Net-(D21-Pad2)*%
X103512500Y-55825000D02*
X106362500Y-58675000D01*
X100925000Y-55825000D02*
X103512500Y-55825000D01*
%TO.N,Net-(D22-Pad2)*%
X103512500Y-74875000D02*
X106362500Y-77725000D01*
X100925000Y-74875000D02*
X103512500Y-74875000D01*
%TO.N,Net-(D23-Pad2)*%
X98750000Y-93925000D02*
X101600000Y-96775000D01*
X96162500Y-93925000D02*
X98750000Y-93925000D01*
%TO.N,Net-(D24-Pad2)*%
X122562500Y-17725000D02*
X125412500Y-20575000D01*
X119975000Y-17725000D02*
X122562500Y-17725000D01*
%TO.N,Net-(D25-Pad2)*%
X122562500Y-36775000D02*
X125412500Y-39625000D01*
X119975000Y-36775000D02*
X122562500Y-36775000D01*
%TO.N,Net-(D26-Pad2)*%
X122562500Y-55825000D02*
X125412500Y-58675000D01*
X119975000Y-55825000D02*
X122562500Y-55825000D01*
%TO.N,Net-(D27-Pad2)*%
X122562500Y-74875000D02*
X125412500Y-77725000D01*
X119975000Y-74875000D02*
X122562500Y-74875000D01*
%TO.N,Net-(D28-Pad2)*%
X127325000Y-93925000D02*
X130175000Y-96775000D01*
X124737500Y-93925000D02*
X127325000Y-93925000D01*
%TO.N,Net-(D29-Pad2)*%
X141612500Y-17725000D02*
X144462500Y-20575000D01*
X139025000Y-17725000D02*
X141612500Y-17725000D01*
%TO.N,Net-(D30-Pad2)*%
X141612500Y-36775000D02*
X144462500Y-39625000D01*
X139025000Y-36775000D02*
X141612500Y-36775000D01*
%TO.N,Net-(D31-Pad2)*%
X141612500Y-55825000D02*
X144462500Y-58675000D01*
X139025000Y-55825000D02*
X141612500Y-55825000D01*
%TO.N,Net-(D32-Pad2)*%
X141612500Y-74875000D02*
X144462500Y-77725000D01*
X139025000Y-74875000D02*
X141612500Y-74875000D01*
%TO.N,Net-(D33-Pad2)*%
X151137500Y-93925000D02*
X153987500Y-96775000D01*
X148550000Y-93925000D02*
X151137500Y-93925000D01*
%TO.N,Net-(D34-Pad2)*%
X160662500Y-17725000D02*
X163512500Y-20575000D01*
X158075000Y-17725000D02*
X160662500Y-17725000D01*
%TO.N,Net-(D35-Pad2)*%
X160662500Y-36775000D02*
X163512500Y-39625000D01*
X158075000Y-36775000D02*
X160662500Y-36775000D01*
%TO.N,Net-(D36-Pad2)*%
X160662500Y-55825000D02*
X163512500Y-58675000D01*
X158075000Y-55825000D02*
X160662500Y-55825000D01*
%TO.N,Net-(D37-Pad2)*%
X160662500Y-74875000D02*
X163512500Y-77725000D01*
X158075000Y-74875000D02*
X160662500Y-74875000D01*
%TO.N,Net-(D38-Pad2)*%
X170187500Y-93925000D02*
X173037500Y-96775000D01*
X167600000Y-93925000D02*
X170187500Y-93925000D01*
%TO.N,Net-(D39-Pad2)*%
X179712500Y-17725000D02*
X182562500Y-20575000D01*
X177125000Y-17725000D02*
X179712500Y-17725000D01*
%TO.N,Net-(D40-Pad2)*%
X179712500Y-36775000D02*
X182562500Y-39625000D01*
X177125000Y-36775000D02*
X179712500Y-36775000D01*
%TO.N,Net-(D41-Pad2)*%
X179712500Y-55825000D02*
X182562500Y-58675000D01*
X177125000Y-55825000D02*
X179712500Y-55825000D01*
%TO.N,Net-(D42-Pad2)*%
X179712500Y-74875000D02*
X182562500Y-77725000D01*
X177125000Y-74875000D02*
X179712500Y-74875000D01*
%TO.N,Net-(D43-Pad2)*%
X198762500Y-17725000D02*
X201612500Y-20575000D01*
X196175000Y-17725000D02*
X198762500Y-17725000D01*
%TO.N,Net-(D44-Pad2)*%
X198762500Y-36775000D02*
X201612500Y-39625000D01*
X196175000Y-36775000D02*
X198762500Y-36775000D01*
%TO.N,Net-(D45-Pad2)*%
X198762500Y-55825000D02*
X201612500Y-58675000D01*
X196175000Y-55825000D02*
X198762500Y-55825000D01*
%TO.N,Net-(D46-Pad2)*%
X198762500Y-74875000D02*
X201612500Y-77725000D01*
X196175000Y-74875000D02*
X198762500Y-74875000D01*
D20*
%TO.N,VCC*%
X106350000Y-15612500D02*
X106350000Y-16681250D01*
X106350000Y-16681250D02*
X104775000Y-18256250D01*
X104775000Y-18256250D02*
X104775000Y-30956250D01*
X104775000Y-30956250D02*
X105568750Y-31750000D01*
X105568750Y-31750000D02*
X181768750Y-31750000D01*
X184432501Y-84931499D02*
X181483000Y-87881000D01*
X184432501Y-34413751D02*
X184432501Y-84931499D01*
X181768750Y-31750000D02*
X184432501Y-34413751D01*
X106350000Y-15612500D02*
X106350000Y-13771000D01*
D21*
%TO.N,COL0*%
X192024000Y-103921500D02*
X192042750Y-103902750D01*
X192042750Y-105645250D02*
X192042750Y-103902750D01*
X191135000Y-106553000D02*
X192042750Y-105645250D01*
%TO.N,COL1*%
X191242750Y-103902750D02*
X191255777Y-103915777D01*
X191242750Y-104944486D02*
X191242750Y-103902750D01*
X189767118Y-106420118D02*
X191242750Y-104944486D01*
%TO.N,COL2*%
X187886042Y-107273060D02*
X190442750Y-104716352D01*
X190442750Y-104716352D02*
X190442750Y-103902750D01*
X56213126Y-107273060D02*
X187886042Y-107273060D01*
X46990000Y-98049934D02*
X56213126Y-107273060D01*
X46990000Y-95885000D02*
X46990000Y-98049934D01*
%TO.N,COL3*%
X189642750Y-104716352D02*
X189642750Y-103902750D01*
X187540052Y-106819050D02*
X189642750Y-104716352D01*
X68719050Y-106819050D02*
X187540052Y-106819050D01*
X66040000Y-104140000D02*
X68719050Y-106819050D01*
%TO.N,COL4*%
X187194062Y-106365040D02*
X188842750Y-104716352D01*
X92141040Y-106365040D02*
X187194062Y-106365040D01*
X188842750Y-104716352D02*
X188842750Y-103902750D01*
X89916000Y-104140000D02*
X92141040Y-106365040D01*
%TO.N,COL5*%
X188042750Y-104716352D02*
X188042750Y-103902750D01*
X186848072Y-105911030D02*
X188042750Y-104716352D01*
X120262030Y-105911030D02*
X186848072Y-105911030D01*
X118491000Y-104140000D02*
X120262030Y-105911030D01*
%TO.N,COL6*%
X187242750Y-104716352D02*
X187242750Y-103902750D01*
X186502082Y-105457020D02*
X187242750Y-104716352D01*
X143557020Y-105457020D02*
X186502082Y-105457020D01*
X142240000Y-104140000D02*
X143557020Y-105457020D01*
%TO.N,COL7*%
X186436000Y-103909500D02*
X186442750Y-103902750D01*
X186442750Y-104716352D02*
X186442750Y-103902750D01*
X186156092Y-105003010D02*
X186442750Y-104716352D01*
X162153010Y-105003010D02*
X186156092Y-105003010D01*
X161290000Y-104140000D02*
X162153010Y-105003010D01*
%TO.N,COL8*%
X183898500Y-96647000D02*
X183942750Y-96602750D01*
X178771750Y-96602750D02*
X183942750Y-96602750D01*
X178435000Y-96266000D02*
X178771750Y-96602750D01*
%TO.N,COL9*%
X192024000Y-92484000D02*
X192042750Y-92502750D01*
X192024000Y-90833500D02*
X192024000Y-92484000D01*
D22*
%TO.N,D-*%
X107150000Y-15458501D02*
X107150000Y-13771000D01*
X107325000Y-15633501D02*
X107150000Y-15458501D01*
X107325000Y-23696200D02*
X107325000Y-15633501D01*
X112682800Y-29054000D02*
X107325000Y-23696200D01*
X186084000Y-31843200D02*
X183294800Y-29054000D01*
X186084000Y-82420950D02*
X186084000Y-31843200D01*
X183294800Y-29054000D02*
X112682800Y-29054000D01*
X187420350Y-87006000D02*
X187420350Y-83757300D01*
X186629350Y-87797000D02*
X187420350Y-87006000D01*
X187420350Y-83757300D02*
X186084000Y-82420950D01*
%TO.N,D+*%
X107775000Y-23509800D02*
X107775000Y-15633501D01*
X188661350Y-87797000D02*
X187870350Y-87006000D01*
X186534000Y-31656800D02*
X183481200Y-28604000D01*
X107950000Y-15458501D02*
X107950000Y-13771000D01*
X187870350Y-83570900D02*
X186534000Y-82234550D01*
X186534000Y-82234550D02*
X186534000Y-31656800D01*
X183481200Y-28604000D02*
X112869200Y-28604000D01*
X107775000Y-15633501D02*
X107950000Y-15458501D01*
X187870350Y-87006000D02*
X187870350Y-83570900D01*
X112869200Y-28604000D02*
X107775000Y-23509800D01*
D21*
%TO.N,Net-(R3-Pad2)*%
X195342750Y-95002750D02*
X196589250Y-95002750D01*
X196589250Y-95002750D02*
X196850000Y-94742000D01*
X196850000Y-94742000D02*
X196850000Y-91289500D01*
X195603500Y-90043000D02*
X196850000Y-91289500D01*
X195603500Y-88666500D02*
X194766000Y-87829000D01*
X195603500Y-90043000D02*
X195603500Y-88666500D01*
%TO.N,Net-(R4-Pad2)*%
X178181000Y-104036500D02*
X178839500Y-104036500D01*
X178839500Y-104036500D02*
X179070000Y-104267000D01*
X185278500Y-104267000D02*
X185642750Y-103902750D01*
X179070000Y-104267000D02*
X185278500Y-104267000D01*
%TO.N,DN*%
X186629350Y-89622000D02*
X186629350Y-90617350D01*
X187242750Y-91230750D02*
X187242750Y-92502750D01*
X186629350Y-90617350D02*
X187242750Y-91230750D01*
%TO.N,DP*%
X188661350Y-89622000D02*
X188661350Y-90611650D01*
X188042750Y-91230250D02*
X188042750Y-92502750D01*
X188661350Y-90611650D02*
X188042750Y-91230250D01*
%TD*%
%TO.N,GND*%
X188916565Y-93703935D02*
X189013256Y-93783287D01*
X189036417Y-93795667D01*
X189128500Y-93887750D01*
X189242087Y-93878204D01*
X189243268Y-93878562D01*
X189367750Y-93890822D01*
X189917750Y-93890822D01*
X190042232Y-93878562D01*
X190042750Y-93878405D01*
X190043268Y-93878562D01*
X190167750Y-93890822D01*
X190717750Y-93890822D01*
X190842232Y-93878562D01*
X190842750Y-93878405D01*
X190843268Y-93878562D01*
X190967750Y-93890822D01*
X191517750Y-93890822D01*
X191642232Y-93878562D01*
X191642750Y-93878405D01*
X191643268Y-93878562D01*
X191767750Y-93890822D01*
X192317750Y-93890822D01*
X192442232Y-93878562D01*
X192442750Y-93878405D01*
X192443268Y-93878562D01*
X192567750Y-93890822D01*
X193117750Y-93890822D01*
X193242232Y-93878562D01*
X193242750Y-93878405D01*
X193243268Y-93878562D01*
X193367750Y-93890822D01*
X193917750Y-93890822D01*
X193958712Y-93886788D01*
X193954678Y-93927750D01*
X193954678Y-94477750D01*
X193966938Y-94602232D01*
X193967095Y-94602750D01*
X193966938Y-94603268D01*
X193954678Y-94727750D01*
X193954678Y-95277750D01*
X193966938Y-95402232D01*
X193967095Y-95402750D01*
X193966938Y-95403268D01*
X193954678Y-95527750D01*
X193954678Y-96077750D01*
X193966938Y-96202232D01*
X193967296Y-96203413D01*
X193957750Y-96317000D01*
X194049833Y-96409083D01*
X194062213Y-96432244D01*
X194141565Y-96528935D01*
X194183000Y-96562940D01*
X194183000Y-96642560D01*
X194141565Y-96676565D01*
X194062213Y-96773256D01*
X194049833Y-96796417D01*
X193957750Y-96888500D01*
X193967296Y-97002087D01*
X193966938Y-97003268D01*
X193954678Y-97127750D01*
X193954678Y-97677750D01*
X193966938Y-97802232D01*
X193967095Y-97802750D01*
X193966938Y-97803268D01*
X193954678Y-97927750D01*
X193954678Y-98477750D01*
X193966938Y-98602232D01*
X193967095Y-98602750D01*
X193966938Y-98603268D01*
X193954678Y-98727750D01*
X193954678Y-99277750D01*
X193966938Y-99402232D01*
X193967095Y-99402750D01*
X193966938Y-99403268D01*
X193954678Y-99527750D01*
X193954678Y-100077750D01*
X193966938Y-100202232D01*
X193967095Y-100202750D01*
X193966938Y-100203268D01*
X193954678Y-100327750D01*
X193954678Y-100877750D01*
X193966938Y-101002232D01*
X193967095Y-101002750D01*
X193966938Y-101003268D01*
X193954678Y-101127750D01*
X193954678Y-101677750D01*
X193966938Y-101802232D01*
X193967095Y-101802750D01*
X193966938Y-101803268D01*
X193954678Y-101927750D01*
X193954678Y-102477750D01*
X193958869Y-102520302D01*
X193928500Y-102517750D01*
X193769750Y-102676500D01*
X193769750Y-102743000D01*
X193611130Y-102743000D01*
X193609103Y-102736316D01*
X193590528Y-102701565D01*
X193532449Y-102592907D01*
X193455142Y-102498708D01*
X193455139Y-102498705D01*
X193429291Y-102467209D01*
X193397796Y-102441362D01*
X192604147Y-101647715D01*
X192578291Y-101616209D01*
X192452592Y-101513051D01*
X192309184Y-101436397D01*
X192153576Y-101389194D01*
X192032303Y-101377250D01*
X192032300Y-101377250D01*
X191991750Y-101373256D01*
X191951200Y-101377250D01*
X185327750Y-101377250D01*
X185327750Y-101275748D01*
X185187584Y-101275748D01*
X185223287Y-101232244D01*
X185235667Y-101209083D01*
X185327750Y-101117000D01*
X185318204Y-101003413D01*
X185318562Y-101002232D01*
X185330822Y-100877750D01*
X185330822Y-100327750D01*
X185318562Y-100203268D01*
X185318405Y-100202750D01*
X185318562Y-100202232D01*
X185330822Y-100077750D01*
X185330822Y-99527750D01*
X185318562Y-99403268D01*
X185318405Y-99402750D01*
X185318562Y-99402232D01*
X185330822Y-99277750D01*
X185330822Y-98727750D01*
X185318562Y-98603268D01*
X185318405Y-98602750D01*
X185318562Y-98602232D01*
X185330822Y-98477750D01*
X185330822Y-97927750D01*
X185318562Y-97803268D01*
X185318405Y-97802750D01*
X185318562Y-97802232D01*
X185330822Y-97677750D01*
X185330822Y-97127750D01*
X185318562Y-97003268D01*
X185318405Y-97002750D01*
X185318562Y-97002232D01*
X185330822Y-96877750D01*
X185330822Y-96327750D01*
X185318562Y-96203268D01*
X185318405Y-96202750D01*
X185318562Y-96202232D01*
X185330822Y-96077750D01*
X185330822Y-95527750D01*
X185318562Y-95403268D01*
X185318204Y-95402087D01*
X185327750Y-95288500D01*
X185235667Y-95196417D01*
X185223287Y-95173256D01*
X185143935Y-95076565D01*
X185053991Y-95002750D01*
X185143935Y-94928935D01*
X185223287Y-94832244D01*
X185235667Y-94809083D01*
X185327750Y-94717000D01*
X185318204Y-94603413D01*
X185318562Y-94602232D01*
X185330822Y-94477750D01*
X185330822Y-93927750D01*
X185326788Y-93886788D01*
X185367750Y-93890822D01*
X185917750Y-93890822D01*
X186042232Y-93878562D01*
X186042750Y-93878405D01*
X186043268Y-93878562D01*
X186167750Y-93890822D01*
X186717750Y-93890822D01*
X186842232Y-93878562D01*
X186842750Y-93878405D01*
X186843268Y-93878562D01*
X186967750Y-93890822D01*
X187517750Y-93890822D01*
X187642232Y-93878562D01*
X187642750Y-93878405D01*
X187643268Y-93878562D01*
X187767750Y-93890822D01*
X188317750Y-93890822D01*
X188442232Y-93878562D01*
X188443413Y-93878204D01*
X188557000Y-93887750D01*
X188649083Y-93795667D01*
X188672244Y-93783287D01*
X188768935Y-93703935D01*
X188842750Y-93613991D01*
X188916565Y-93703935D01*
%TA.AperFunction,Conductor*%
D23*
G36*
X188916565Y-93703935D02*
G01*
X189013256Y-93783287D01*
X189036417Y-93795667D01*
X189128500Y-93887750D01*
X189242087Y-93878204D01*
X189243268Y-93878562D01*
X189367750Y-93890822D01*
X189917750Y-93890822D01*
X190042232Y-93878562D01*
X190042750Y-93878405D01*
X190043268Y-93878562D01*
X190167750Y-93890822D01*
X190717750Y-93890822D01*
X190842232Y-93878562D01*
X190842750Y-93878405D01*
X190843268Y-93878562D01*
X190967750Y-93890822D01*
X191517750Y-93890822D01*
X191642232Y-93878562D01*
X191642750Y-93878405D01*
X191643268Y-93878562D01*
X191767750Y-93890822D01*
X192317750Y-93890822D01*
X192442232Y-93878562D01*
X192442750Y-93878405D01*
X192443268Y-93878562D01*
X192567750Y-93890822D01*
X193117750Y-93890822D01*
X193242232Y-93878562D01*
X193242750Y-93878405D01*
X193243268Y-93878562D01*
X193367750Y-93890822D01*
X193917750Y-93890822D01*
X193958712Y-93886788D01*
X193954678Y-93927750D01*
X193954678Y-94477750D01*
X193966938Y-94602232D01*
X193967095Y-94602750D01*
X193966938Y-94603268D01*
X193954678Y-94727750D01*
X193954678Y-95277750D01*
X193966938Y-95402232D01*
X193967095Y-95402750D01*
X193966938Y-95403268D01*
X193954678Y-95527750D01*
X193954678Y-96077750D01*
X193966938Y-96202232D01*
X193967296Y-96203413D01*
X193957750Y-96317000D01*
X194049833Y-96409083D01*
X194062213Y-96432244D01*
X194141565Y-96528935D01*
X194183000Y-96562940D01*
X194183000Y-96642560D01*
X194141565Y-96676565D01*
X194062213Y-96773256D01*
X194049833Y-96796417D01*
X193957750Y-96888500D01*
X193967296Y-97002087D01*
X193966938Y-97003268D01*
X193954678Y-97127750D01*
X193954678Y-97677750D01*
X193966938Y-97802232D01*
X193967095Y-97802750D01*
X193966938Y-97803268D01*
X193954678Y-97927750D01*
X193954678Y-98477750D01*
X193966938Y-98602232D01*
X193967095Y-98602750D01*
X193966938Y-98603268D01*
X193954678Y-98727750D01*
X193954678Y-99277750D01*
X193966938Y-99402232D01*
X193967095Y-99402750D01*
X193966938Y-99403268D01*
X193954678Y-99527750D01*
X193954678Y-100077750D01*
X193966938Y-100202232D01*
X193967095Y-100202750D01*
X193966938Y-100203268D01*
X193954678Y-100327750D01*
X193954678Y-100877750D01*
X193966938Y-101002232D01*
X193967095Y-101002750D01*
X193966938Y-101003268D01*
X193954678Y-101127750D01*
X193954678Y-101677750D01*
X193966938Y-101802232D01*
X193967095Y-101802750D01*
X193966938Y-101803268D01*
X193954678Y-101927750D01*
X193954678Y-102477750D01*
X193958869Y-102520302D01*
X193928500Y-102517750D01*
X193769750Y-102676500D01*
X193769750Y-102743000D01*
X193611130Y-102743000D01*
X193609103Y-102736316D01*
X193590528Y-102701565D01*
X193532449Y-102592907D01*
X193455142Y-102498708D01*
X193455139Y-102498705D01*
X193429291Y-102467209D01*
X193397796Y-102441362D01*
X192604147Y-101647715D01*
X192578291Y-101616209D01*
X192452592Y-101513051D01*
X192309184Y-101436397D01*
X192153576Y-101389194D01*
X192032303Y-101377250D01*
X192032300Y-101377250D01*
X191991750Y-101373256D01*
X191951200Y-101377250D01*
X185327750Y-101377250D01*
X185327750Y-101275748D01*
X185187584Y-101275748D01*
X185223287Y-101232244D01*
X185235667Y-101209083D01*
X185327750Y-101117000D01*
X185318204Y-101003413D01*
X185318562Y-101002232D01*
X185330822Y-100877750D01*
X185330822Y-100327750D01*
X185318562Y-100203268D01*
X185318405Y-100202750D01*
X185318562Y-100202232D01*
X185330822Y-100077750D01*
X185330822Y-99527750D01*
X185318562Y-99403268D01*
X185318405Y-99402750D01*
X185318562Y-99402232D01*
X185330822Y-99277750D01*
X185330822Y-98727750D01*
X185318562Y-98603268D01*
X185318405Y-98602750D01*
X185318562Y-98602232D01*
X185330822Y-98477750D01*
X185330822Y-97927750D01*
X185318562Y-97803268D01*
X185318405Y-97802750D01*
X185318562Y-97802232D01*
X185330822Y-97677750D01*
X185330822Y-97127750D01*
X185318562Y-97003268D01*
X185318405Y-97002750D01*
X185318562Y-97002232D01*
X185330822Y-96877750D01*
X185330822Y-96327750D01*
X185318562Y-96203268D01*
X185318405Y-96202750D01*
X185318562Y-96202232D01*
X185330822Y-96077750D01*
X185330822Y-95527750D01*
X185318562Y-95403268D01*
X185318204Y-95402087D01*
X185327750Y-95288500D01*
X185235667Y-95196417D01*
X185223287Y-95173256D01*
X185143935Y-95076565D01*
X185053991Y-95002750D01*
X185143935Y-94928935D01*
X185223287Y-94832244D01*
X185235667Y-94809083D01*
X185327750Y-94717000D01*
X185318204Y-94603413D01*
X185318562Y-94602232D01*
X185330822Y-94477750D01*
X185330822Y-93927750D01*
X185326788Y-93886788D01*
X185367750Y-93890822D01*
X185917750Y-93890822D01*
X186042232Y-93878562D01*
X186042750Y-93878405D01*
X186043268Y-93878562D01*
X186167750Y-93890822D01*
X186717750Y-93890822D01*
X186842232Y-93878562D01*
X186842750Y-93878405D01*
X186843268Y-93878562D01*
X186967750Y-93890822D01*
X187517750Y-93890822D01*
X187642232Y-93878562D01*
X187642750Y-93878405D01*
X187643268Y-93878562D01*
X187767750Y-93890822D01*
X188317750Y-93890822D01*
X188442232Y-93878562D01*
X188443413Y-93878204D01*
X188557000Y-93887750D01*
X188649083Y-93795667D01*
X188672244Y-93783287D01*
X188768935Y-93703935D01*
X188842750Y-93613991D01*
X188916565Y-93703935D01*
G37*
%TD.AperFunction*%
%TD*%
D21*
%TO.N,GND*%
X201612500Y-104013000D02*
X201040436Y-104013000D01*
X201067494Y-103998537D01*
X201164185Y-103919185D01*
X201243537Y-103822494D01*
X201302502Y-103712180D01*
X201338812Y-103592482D01*
X201351072Y-103468000D01*
X201348000Y-103028750D01*
X201189250Y-102870000D01*
X200340000Y-102870000D01*
X200340000Y-102890000D01*
X200086000Y-102890000D01*
X200086000Y-102870000D01*
X200066000Y-102870000D01*
X200066000Y-102616000D01*
X200086000Y-102616000D01*
X200086000Y-102596000D01*
X200340000Y-102596000D01*
X200340000Y-102616000D01*
X201189250Y-102616000D01*
X201348000Y-102457250D01*
X201351072Y-102018000D01*
X201338812Y-101893518D01*
X201302502Y-101773820D01*
X201243537Y-101663506D01*
X201179918Y-101585985D01*
X201211180Y-101576502D01*
X201321494Y-101517537D01*
X201418185Y-101438185D01*
X201497537Y-101341494D01*
X201556502Y-101231180D01*
X201592812Y-101111482D01*
X201605072Y-100987000D01*
X201602000Y-100572750D01*
X201443250Y-100414000D01*
X200494000Y-100414000D01*
X200494000Y-100434000D01*
X200240000Y-100434000D01*
X200240000Y-100414000D01*
X200220000Y-100414000D01*
X200220000Y-100160000D01*
X200240000Y-100160000D01*
X200240000Y-100140000D01*
X200494000Y-100140000D01*
X200494000Y-100160000D01*
X201443250Y-100160000D01*
X201602000Y-100001250D01*
X201605072Y-99587000D01*
X201592812Y-99462518D01*
X201556502Y-99342820D01*
X201497537Y-99232506D01*
X201460191Y-99187000D01*
X201497537Y-99141494D01*
X201556502Y-99031180D01*
X201592812Y-98911482D01*
X201605072Y-98787000D01*
X201605072Y-97387000D01*
X201592812Y-97262518D01*
X201556502Y-97142820D01*
X201497537Y-97032506D01*
X201418185Y-96935815D01*
X201321494Y-96856463D01*
X201211180Y-96797498D01*
X201129000Y-96772569D01*
X201129000Y-96723425D01*
X201132686Y-96686000D01*
X201129000Y-96648574D01*
X201129000Y-96044971D01*
X201217962Y-95971962D01*
X201328405Y-95837386D01*
X201410472Y-95683850D01*
X201461008Y-95517254D01*
X201478072Y-95344000D01*
X201478072Y-94394000D01*
X201461008Y-94220746D01*
X201410472Y-94054150D01*
X201328405Y-93900614D01*
X201217962Y-93766038D01*
X201083386Y-93655595D01*
X200977505Y-93599000D01*
X201612501Y-93599000D01*
X201612500Y-104013000D01*
%TA.AperFunction,Conductor*%
D23*
G36*
X201612500Y-104013000D02*
G01*
X201040436Y-104013000D01*
X201067494Y-103998537D01*
X201164185Y-103919185D01*
X201243537Y-103822494D01*
X201302502Y-103712180D01*
X201338812Y-103592482D01*
X201351072Y-103468000D01*
X201348000Y-103028750D01*
X201189250Y-102870000D01*
X200340000Y-102870000D01*
X200340000Y-102890000D01*
X200086000Y-102890000D01*
X200086000Y-102870000D01*
X200066000Y-102870000D01*
X200066000Y-102616000D01*
X200086000Y-102616000D01*
X200086000Y-102596000D01*
X200340000Y-102596000D01*
X200340000Y-102616000D01*
X201189250Y-102616000D01*
X201348000Y-102457250D01*
X201351072Y-102018000D01*
X201338812Y-101893518D01*
X201302502Y-101773820D01*
X201243537Y-101663506D01*
X201179918Y-101585985D01*
X201211180Y-101576502D01*
X201321494Y-101517537D01*
X201418185Y-101438185D01*
X201497537Y-101341494D01*
X201556502Y-101231180D01*
X201592812Y-101111482D01*
X201605072Y-100987000D01*
X201602000Y-100572750D01*
X201443250Y-100414000D01*
X200494000Y-100414000D01*
X200494000Y-100434000D01*
X200240000Y-100434000D01*
X200240000Y-100414000D01*
X200220000Y-100414000D01*
X200220000Y-100160000D01*
X200240000Y-100160000D01*
X200240000Y-100140000D01*
X200494000Y-100140000D01*
X200494000Y-100160000D01*
X201443250Y-100160000D01*
X201602000Y-100001250D01*
X201605072Y-99587000D01*
X201592812Y-99462518D01*
X201556502Y-99342820D01*
X201497537Y-99232506D01*
X201460191Y-99187000D01*
X201497537Y-99141494D01*
X201556502Y-99031180D01*
X201592812Y-98911482D01*
X201605072Y-98787000D01*
X201605072Y-97387000D01*
X201592812Y-97262518D01*
X201556502Y-97142820D01*
X201497537Y-97032506D01*
X201418185Y-96935815D01*
X201321494Y-96856463D01*
X201211180Y-96797498D01*
X201129000Y-96772569D01*
X201129000Y-96723425D01*
X201132686Y-96686000D01*
X201129000Y-96648574D01*
X201129000Y-96044971D01*
X201217962Y-95971962D01*
X201328405Y-95837386D01*
X201410472Y-95683850D01*
X201461008Y-95517254D01*
X201478072Y-95344000D01*
X201478072Y-94394000D01*
X201461008Y-94220746D01*
X201410472Y-94054150D01*
X201328405Y-93900614D01*
X201217962Y-93766038D01*
X201083386Y-93655595D01*
X200977505Y-93599000D01*
X201612501Y-93599000D01*
X201612500Y-104013000D01*
G37*
%TD.AperFunction*%
D21*
X198794000Y-97960000D02*
X198814000Y-97960000D01*
X198814000Y-98214000D01*
X198794000Y-98214000D01*
X198794000Y-98234000D01*
X198540000Y-98234000D01*
X198540000Y-98214000D01*
X198520000Y-98214000D01*
X198520000Y-97960000D01*
X198540000Y-97960000D01*
X198540000Y-97940000D01*
X198794000Y-97940000D01*
X198794000Y-97960000D01*
%TA.AperFunction,Conductor*%
D23*
G36*
X198794000Y-97960000D02*
G01*
X198814000Y-97960000D01*
X198814000Y-98214000D01*
X198794000Y-98214000D01*
X198794000Y-98234000D01*
X198540000Y-98234000D01*
X198540000Y-98214000D01*
X198520000Y-98214000D01*
X198520000Y-97960000D01*
X198540000Y-97960000D01*
X198540000Y-97940000D01*
X198794000Y-97940000D01*
X198794000Y-97960000D01*
G37*
%TD.AperFunction*%
D21*
X198567000Y-94742000D02*
X198587000Y-94742000D01*
X198587000Y-94996000D01*
X198567000Y-94996000D01*
X198567000Y-95016000D01*
X198313000Y-95016000D01*
X198313000Y-94996000D01*
X198293000Y-94996000D01*
X198293000Y-94742000D01*
X198313000Y-94742000D01*
X198313000Y-94722000D01*
X198567000Y-94722000D01*
X198567000Y-94742000D01*
%TA.AperFunction,Conductor*%
D23*
G36*
X198567000Y-94742000D02*
G01*
X198587000Y-94742000D01*
X198587000Y-94996000D01*
X198567000Y-94996000D01*
X198567000Y-95016000D01*
X198313000Y-95016000D01*
X198313000Y-94996000D01*
X198293000Y-94996000D01*
X198293000Y-94742000D01*
X198313000Y-94742000D01*
X198313000Y-94722000D01*
X198567000Y-94722000D01*
X198567000Y-94742000D01*
G37*
%TD.AperFunction*%
%TD*%
D21*
%TO.N,GND*%
X110136487Y-8479889D02*
X110115000Y-8698050D01*
X110115000Y-9843949D01*
X110136487Y-10062110D01*
X110221401Y-10342033D01*
X110359294Y-10600013D01*
X110544866Y-10826134D01*
X110770986Y-11011706D01*
X111028966Y-11149599D01*
X111308889Y-11234513D01*
X111600000Y-11263185D01*
X111891110Y-11234513D01*
X112171033Y-11149599D01*
X112429013Y-11011706D01*
X112655134Y-10826134D01*
X112840706Y-10600014D01*
X112846250Y-10589641D01*
X112846250Y-11938668D01*
X112849019Y-11966780D01*
X112848985Y-11971609D01*
X112849885Y-11980780D01*
X112866078Y-12134846D01*
X112878104Y-12193432D01*
X112889315Y-12252203D01*
X112891979Y-12261024D01*
X112937788Y-12409008D01*
X112960963Y-12464140D01*
X112983376Y-12519614D01*
X112987702Y-12527751D01*
X113061382Y-12664020D01*
X113094817Y-12713588D01*
X113127588Y-12763669D01*
X113133413Y-12770810D01*
X113232159Y-12890173D01*
X113274593Y-12932312D01*
X113316456Y-12975061D01*
X113323557Y-12980935D01*
X113443605Y-13078844D01*
X113493432Y-13111949D01*
X113538000Y-13142466D01*
X113538000Y-15748000D01*
X111754175Y-15748000D01*
X111891110Y-15734513D01*
X112171033Y-15649599D01*
X112429013Y-15511706D01*
X112655134Y-15326134D01*
X112840706Y-15100014D01*
X112978599Y-14842034D01*
X113063513Y-14562111D01*
X113085000Y-14343950D01*
X113085000Y-13198050D01*
X113063513Y-12979889D01*
X112978599Y-12699966D01*
X112840706Y-12441986D01*
X112655134Y-12215866D01*
X112429014Y-12030294D01*
X112171034Y-11892401D01*
X111891111Y-11807487D01*
X111600000Y-11778815D01*
X111308890Y-11807487D01*
X111028967Y-11892401D01*
X110770987Y-12030294D01*
X110544867Y-12215866D01*
X110390123Y-12404421D01*
X110334406Y-12297366D01*
X110256123Y-12199807D01*
X110160311Y-12119396D01*
X110050652Y-12059221D01*
X109931361Y-12021596D01*
X109831750Y-12011000D01*
X109673000Y-12169750D01*
X109673000Y-13644000D01*
X109697000Y-13644000D01*
X109697000Y-13898000D01*
X109673000Y-13898000D01*
X109673000Y-15372250D01*
X109831750Y-15531000D01*
X109931361Y-15520404D01*
X110050652Y-15482779D01*
X110160311Y-15422604D01*
X110256123Y-15342193D01*
X110334406Y-15244634D01*
X110390123Y-15137578D01*
X110544866Y-15326134D01*
X110770986Y-15511706D01*
X111028966Y-15649599D01*
X111308889Y-15734513D01*
X111445824Y-15748000D01*
X108628667Y-15748000D01*
X108632337Y-15741134D01*
X108674365Y-15602586D01*
X108681113Y-15534072D01*
X109000000Y-15534072D01*
X109124482Y-15521812D01*
X109149266Y-15514294D01*
X109168639Y-15520404D01*
X109268250Y-15531000D01*
X109427000Y-15372250D01*
X109427000Y-15367033D01*
X109451185Y-15347185D01*
X109530537Y-15250494D01*
X109589502Y-15140180D01*
X109625812Y-15020482D01*
X109638072Y-14896000D01*
X109638072Y-12646000D01*
X109625812Y-12521518D01*
X109589502Y-12401820D01*
X109530537Y-12291506D01*
X109451185Y-12194815D01*
X109427000Y-12174967D01*
X109427000Y-12169750D01*
X109268250Y-12011000D01*
X109168639Y-12021596D01*
X109149266Y-12027706D01*
X109124482Y-12020188D01*
X109000000Y-12007928D01*
X108500000Y-12007928D01*
X108375518Y-12020188D01*
X108350000Y-12027929D01*
X108324482Y-12020188D01*
X108200000Y-12007928D01*
X107700000Y-12007928D01*
X107575518Y-12020188D01*
X107550000Y-12027929D01*
X107524482Y-12020188D01*
X107400000Y-12007928D01*
X106900000Y-12007928D01*
X106775518Y-12020188D01*
X106750000Y-12027929D01*
X106724482Y-12020188D01*
X106600000Y-12007928D01*
X106100000Y-12007928D01*
X105975518Y-12020188D01*
X105855820Y-12056498D01*
X105745506Y-12115463D01*
X105648815Y-12194815D01*
X105569463Y-12291506D01*
X105510498Y-12401820D01*
X105509754Y-12404271D01*
X105355134Y-12215866D01*
X105129014Y-12030294D01*
X104871034Y-11892401D01*
X104591111Y-11807487D01*
X104300000Y-11778815D01*
X104008890Y-11807487D01*
X103728967Y-11892401D01*
X103470987Y-12030294D01*
X103244867Y-12215866D01*
X103059294Y-12441986D01*
X102921401Y-12699966D01*
X102836487Y-12979889D01*
X102815000Y-13198050D01*
X102815000Y-14343949D01*
X102836487Y-14562110D01*
X102921401Y-14842033D01*
X103059294Y-15100013D01*
X103244866Y-15326134D01*
X103470986Y-15511706D01*
X103728966Y-15649599D01*
X104008889Y-15734513D01*
X104145824Y-15748000D01*
X102362000Y-15748000D01*
X102362000Y-13142015D01*
X102407338Y-13111433D01*
X102457419Y-13078662D01*
X102464560Y-13072837D01*
X102583923Y-12974091D01*
X102626062Y-12931657D01*
X102668811Y-12889794D01*
X102674685Y-12882693D01*
X102772594Y-12762645D01*
X102805699Y-12712818D01*
X102839494Y-12663462D01*
X102843877Y-12655356D01*
X102916604Y-12518575D01*
X102939398Y-12463273D01*
X102962964Y-12408290D01*
X102965689Y-12399487D01*
X103010464Y-12251186D01*
X103022087Y-12192483D01*
X103034520Y-12133994D01*
X103035483Y-12124829D01*
X103050600Y-11970656D01*
X103050600Y-11970652D01*
X103053750Y-11938669D01*
X103053750Y-10589641D01*
X103059294Y-10600013D01*
X103244866Y-10826134D01*
X103470986Y-11011706D01*
X103728966Y-11149599D01*
X104008889Y-11234513D01*
X104300000Y-11263185D01*
X104591110Y-11234513D01*
X104871033Y-11149599D01*
X105129013Y-11011706D01*
X105355134Y-10826134D01*
X105540706Y-10600014D01*
X105678599Y-10342034D01*
X105763513Y-10062111D01*
X105785000Y-9843950D01*
X105785000Y-8698050D01*
X105763513Y-8479889D01*
X105702877Y-8280000D01*
X110197123Y-8280000D01*
X110136487Y-8479889D01*
%TA.AperFunction,Conductor*%
D23*
G36*
X110136487Y-8479889D02*
G01*
X110115000Y-8698050D01*
X110115000Y-9843949D01*
X110136487Y-10062110D01*
X110221401Y-10342033D01*
X110359294Y-10600013D01*
X110544866Y-10826134D01*
X110770986Y-11011706D01*
X111028966Y-11149599D01*
X111308889Y-11234513D01*
X111600000Y-11263185D01*
X111891110Y-11234513D01*
X112171033Y-11149599D01*
X112429013Y-11011706D01*
X112655134Y-10826134D01*
X112840706Y-10600014D01*
X112846250Y-10589641D01*
X112846250Y-11938668D01*
X112849019Y-11966780D01*
X112848985Y-11971609D01*
X112849885Y-11980780D01*
X112866078Y-12134846D01*
X112878104Y-12193432D01*
X112889315Y-12252203D01*
X112891979Y-12261024D01*
X112937788Y-12409008D01*
X112960963Y-12464140D01*
X112983376Y-12519614D01*
X112987702Y-12527751D01*
X113061382Y-12664020D01*
X113094817Y-12713588D01*
X113127588Y-12763669D01*
X113133413Y-12770810D01*
X113232159Y-12890173D01*
X113274593Y-12932312D01*
X113316456Y-12975061D01*
X113323557Y-12980935D01*
X113443605Y-13078844D01*
X113493432Y-13111949D01*
X113538000Y-13142466D01*
X113538000Y-15748000D01*
X111754175Y-15748000D01*
X111891110Y-15734513D01*
X112171033Y-15649599D01*
X112429013Y-15511706D01*
X112655134Y-15326134D01*
X112840706Y-15100014D01*
X112978599Y-14842034D01*
X113063513Y-14562111D01*
X113085000Y-14343950D01*
X113085000Y-13198050D01*
X113063513Y-12979889D01*
X112978599Y-12699966D01*
X112840706Y-12441986D01*
X112655134Y-12215866D01*
X112429014Y-12030294D01*
X112171034Y-11892401D01*
X111891111Y-11807487D01*
X111600000Y-11778815D01*
X111308890Y-11807487D01*
X111028967Y-11892401D01*
X110770987Y-12030294D01*
X110544867Y-12215866D01*
X110390123Y-12404421D01*
X110334406Y-12297366D01*
X110256123Y-12199807D01*
X110160311Y-12119396D01*
X110050652Y-12059221D01*
X109931361Y-12021596D01*
X109831750Y-12011000D01*
X109673000Y-12169750D01*
X109673000Y-13644000D01*
X109697000Y-13644000D01*
X109697000Y-13898000D01*
X109673000Y-13898000D01*
X109673000Y-15372250D01*
X109831750Y-15531000D01*
X109931361Y-15520404D01*
X110050652Y-15482779D01*
X110160311Y-15422604D01*
X110256123Y-15342193D01*
X110334406Y-15244634D01*
X110390123Y-15137578D01*
X110544866Y-15326134D01*
X110770986Y-15511706D01*
X111028966Y-15649599D01*
X111308889Y-15734513D01*
X111445824Y-15748000D01*
X108628667Y-15748000D01*
X108632337Y-15741134D01*
X108674365Y-15602586D01*
X108681113Y-15534072D01*
X109000000Y-15534072D01*
X109124482Y-15521812D01*
X109149266Y-15514294D01*
X109168639Y-15520404D01*
X109268250Y-15531000D01*
X109427000Y-15372250D01*
X109427000Y-15367033D01*
X109451185Y-15347185D01*
X109530537Y-15250494D01*
X109589502Y-15140180D01*
X109625812Y-15020482D01*
X109638072Y-14896000D01*
X109638072Y-12646000D01*
X109625812Y-12521518D01*
X109589502Y-12401820D01*
X109530537Y-12291506D01*
X109451185Y-12194815D01*
X109427000Y-12174967D01*
X109427000Y-12169750D01*
X109268250Y-12011000D01*
X109168639Y-12021596D01*
X109149266Y-12027706D01*
X109124482Y-12020188D01*
X109000000Y-12007928D01*
X108500000Y-12007928D01*
X108375518Y-12020188D01*
X108350000Y-12027929D01*
X108324482Y-12020188D01*
X108200000Y-12007928D01*
X107700000Y-12007928D01*
X107575518Y-12020188D01*
X107550000Y-12027929D01*
X107524482Y-12020188D01*
X107400000Y-12007928D01*
X106900000Y-12007928D01*
X106775518Y-12020188D01*
X106750000Y-12027929D01*
X106724482Y-12020188D01*
X106600000Y-12007928D01*
X106100000Y-12007928D01*
X105975518Y-12020188D01*
X105855820Y-12056498D01*
X105745506Y-12115463D01*
X105648815Y-12194815D01*
X105569463Y-12291506D01*
X105510498Y-12401820D01*
X105509754Y-12404271D01*
X105355134Y-12215866D01*
X105129014Y-12030294D01*
X104871034Y-11892401D01*
X104591111Y-11807487D01*
X104300000Y-11778815D01*
X104008890Y-11807487D01*
X103728967Y-11892401D01*
X103470987Y-12030294D01*
X103244867Y-12215866D01*
X103059294Y-12441986D01*
X102921401Y-12699966D01*
X102836487Y-12979889D01*
X102815000Y-13198050D01*
X102815000Y-14343949D01*
X102836487Y-14562110D01*
X102921401Y-14842033D01*
X103059294Y-15100013D01*
X103244866Y-15326134D01*
X103470986Y-15511706D01*
X103728966Y-15649599D01*
X104008889Y-15734513D01*
X104145824Y-15748000D01*
X102362000Y-15748000D01*
X102362000Y-13142015D01*
X102407338Y-13111433D01*
X102457419Y-13078662D01*
X102464560Y-13072837D01*
X102583923Y-12974091D01*
X102626062Y-12931657D01*
X102668811Y-12889794D01*
X102674685Y-12882693D01*
X102772594Y-12762645D01*
X102805699Y-12712818D01*
X102839494Y-12663462D01*
X102843877Y-12655356D01*
X102916604Y-12518575D01*
X102939398Y-12463273D01*
X102962964Y-12408290D01*
X102965689Y-12399487D01*
X103010464Y-12251186D01*
X103022087Y-12192483D01*
X103034520Y-12133994D01*
X103035483Y-12124829D01*
X103050600Y-11970656D01*
X103050600Y-11970652D01*
X103053750Y-11938669D01*
X103053750Y-10589641D01*
X103059294Y-10600013D01*
X103244866Y-10826134D01*
X103470986Y-11011706D01*
X103728966Y-11149599D01*
X104008889Y-11234513D01*
X104300000Y-11263185D01*
X104591110Y-11234513D01*
X104871033Y-11149599D01*
X105129013Y-11011706D01*
X105355134Y-10826134D01*
X105540706Y-10600014D01*
X105678599Y-10342034D01*
X105763513Y-10062111D01*
X105785000Y-9843950D01*
X105785000Y-8698050D01*
X105763513Y-8479889D01*
X105702877Y-8280000D01*
X110197123Y-8280000D01*
X110136487Y-8479889D01*
G37*
%TD.AperFunction*%
%TD*%
M02*
