%TF.GenerationSoftware,KiCad,Pcbnew,(5.1.12)-1*%
%TF.CreationDate,2021-12-29T23:43:14-05:00*%
%TF.ProjectId,my-keeb,6d792d6b-6565-4622-9e6b-696361645f70,rev?*%
%TF.SameCoordinates,Original*%
%TF.FileFunction,Legend,Bot*%
%TF.FilePolarity,Positive*%
%FSLAX46Y46*%
G04 Gerber Fmt 4.6, Leading zero omitted, Abs format (unit mm)*
G04 Created by KiCad (PCBNEW (5.1.12)-1) date 2021-12-29 23:43:14*
%MOMM*%
%LPD*%
G01*
G04 APERTURE LIST*
%ADD10C,0.120000*%
%ADD11C,0.150000*%
%ADD12R,1.200000X1.400000*%
%ADD13O,2.700000X1.700000*%
%ADD14R,2.250000X0.500000*%
%ADD15R,1.500000X0.550000*%
%ADD16R,0.550000X1.500000*%
%ADD17R,1.800000X1.100000*%
%ADD18C,1.750000*%
%ADD19C,2.250000*%
%ADD20C,3.987800*%
%ADD21R,1.200000X0.900000*%
G04 APERTURE END LIST*
D10*
%TO.C,Y1*%
X197867000Y-101187000D02*
X197867000Y-97187000D01*
X201167000Y-101187000D02*
X197867000Y-101187000D01*
D11*
%TO.C,USB1*%
X201604000Y-26028000D02*
X196154000Y-26028000D01*
X201604000Y-33728000D02*
X196154000Y-33728000D01*
X196154000Y-26028000D02*
X196154000Y-33728000D01*
%TO.C,U1*%
X185042750Y-93027750D02*
X185042750Y-91752750D01*
X184467750Y-103377750D02*
X184467750Y-102702750D01*
X194817750Y-103377750D02*
X194817750Y-102702750D01*
X194817750Y-93027750D02*
X194817750Y-93702750D01*
X184467750Y-93027750D02*
X184467750Y-93702750D01*
X194817750Y-93027750D02*
X194142750Y-93027750D01*
X194817750Y-103377750D02*
X194142750Y-103377750D01*
X184467750Y-103377750D02*
X185142750Y-103377750D01*
X184467750Y-93027750D02*
X185042750Y-93027750D01*
%TO.C,SW1*%
X195266000Y-88579000D02*
X200466000Y-88579000D01*
X200466000Y-88579000D02*
X200466000Y-83379000D01*
X200466000Y-83379000D02*
X195266000Y-83379000D01*
X195266000Y-83379000D02*
X195266000Y-88579000D01*
X198866000Y-85979000D02*
G75*
G03*
X198866000Y-85979000I-1000000J0D01*
G01*
D10*
%TO.C,R4*%
X178916000Y-102896936D02*
X178916000Y-103351064D01*
X177446000Y-102896936D02*
X177446000Y-103351064D01*
%TO.C,R3*%
X194463936Y-89308000D02*
X194918064Y-89308000D01*
X194463936Y-90778000D02*
X194918064Y-90778000D01*
%TO.C,R2*%
X185447000Y-88873064D02*
X185447000Y-88418936D01*
X186917000Y-88873064D02*
X186917000Y-88418936D01*
%TO.C,R1*%
X183161000Y-88873064D02*
X183161000Y-88418936D01*
X184631000Y-88873064D02*
X184631000Y-88418936D01*
%TO.C,F1*%
X180573000Y-89883064D02*
X180573000Y-88678936D01*
X182393000Y-89883064D02*
X182393000Y-88678936D01*
%TO.C,D46*%
X202612500Y-81625000D02*
X202612500Y-77725000D01*
X200612500Y-81625000D02*
X200612500Y-77725000D01*
X202612500Y-81625000D02*
X200612500Y-81625000D01*
%TO.C,D45*%
X202612500Y-62575000D02*
X202612500Y-58675000D01*
X200612500Y-62575000D02*
X200612500Y-58675000D01*
X202612500Y-62575000D02*
X200612500Y-62575000D01*
%TO.C,D44*%
X202612500Y-43525000D02*
X202612500Y-39625000D01*
X200612500Y-43525000D02*
X200612500Y-39625000D01*
X202612500Y-43525000D02*
X200612500Y-43525000D01*
%TO.C,D43*%
X202612500Y-24475000D02*
X202612500Y-20575000D01*
X200612500Y-24475000D02*
X200612500Y-20575000D01*
X202612500Y-24475000D02*
X200612500Y-24475000D01*
%TO.C,D42*%
X183562500Y-81625000D02*
X183562500Y-77725000D01*
X181562500Y-81625000D02*
X181562500Y-77725000D01*
X183562500Y-81625000D02*
X181562500Y-81625000D01*
%TO.C,D41*%
X183562500Y-62575000D02*
X183562500Y-58675000D01*
X181562500Y-62575000D02*
X181562500Y-58675000D01*
X183562500Y-62575000D02*
X181562500Y-62575000D01*
%TO.C,D40*%
X183562500Y-43525000D02*
X183562500Y-39625000D01*
X181562500Y-43525000D02*
X181562500Y-39625000D01*
X183562500Y-43525000D02*
X181562500Y-43525000D01*
%TO.C,D39*%
X183562500Y-24475000D02*
X183562500Y-20575000D01*
X181562500Y-24475000D02*
X181562500Y-20575000D01*
X183562500Y-24475000D02*
X181562500Y-24475000D01*
%TO.C,D38*%
X174037500Y-100675000D02*
X174037500Y-96775000D01*
X172037500Y-100675000D02*
X172037500Y-96775000D01*
X174037500Y-100675000D02*
X172037500Y-100675000D01*
%TO.C,D37*%
X164512500Y-81625000D02*
X164512500Y-77725000D01*
X162512500Y-81625000D02*
X162512500Y-77725000D01*
X164512500Y-81625000D02*
X162512500Y-81625000D01*
%TO.C,D36*%
X164512500Y-62575000D02*
X164512500Y-58675000D01*
X162512500Y-62575000D02*
X162512500Y-58675000D01*
X164512500Y-62575000D02*
X162512500Y-62575000D01*
%TO.C,D35*%
X164512500Y-43525000D02*
X164512500Y-39625000D01*
X162512500Y-43525000D02*
X162512500Y-39625000D01*
X164512500Y-43525000D02*
X162512500Y-43525000D01*
%TO.C,D34*%
X164512500Y-24475000D02*
X164512500Y-20575000D01*
X162512500Y-24475000D02*
X162512500Y-20575000D01*
X164512500Y-24475000D02*
X162512500Y-24475000D01*
%TO.C,D33*%
X154987500Y-100675000D02*
X154987500Y-96775000D01*
X152987500Y-100675000D02*
X152987500Y-96775000D01*
X154987500Y-100675000D02*
X152987500Y-100675000D01*
%TO.C,D32*%
X145462500Y-81625000D02*
X145462500Y-77725000D01*
X143462500Y-81625000D02*
X143462500Y-77725000D01*
X145462500Y-81625000D02*
X143462500Y-81625000D01*
%TO.C,D31*%
X145462500Y-62575000D02*
X145462500Y-58675000D01*
X143462500Y-62575000D02*
X143462500Y-58675000D01*
X145462500Y-62575000D02*
X143462500Y-62575000D01*
%TO.C,D30*%
X145462500Y-43525000D02*
X145462500Y-39625000D01*
X143462500Y-43525000D02*
X143462500Y-39625000D01*
X145462500Y-43525000D02*
X143462500Y-43525000D01*
%TO.C,D29*%
X145462500Y-24475000D02*
X145462500Y-20575000D01*
X143462500Y-24475000D02*
X143462500Y-20575000D01*
X145462500Y-24475000D02*
X143462500Y-24475000D01*
%TO.C,D28*%
X131175000Y-100675000D02*
X131175000Y-96775000D01*
X129175000Y-100675000D02*
X129175000Y-96775000D01*
X131175000Y-100675000D02*
X129175000Y-100675000D01*
%TO.C,D27*%
X126412500Y-81625000D02*
X126412500Y-77725000D01*
X124412500Y-81625000D02*
X124412500Y-77725000D01*
X126412500Y-81625000D02*
X124412500Y-81625000D01*
%TO.C,D26*%
X126412500Y-62575000D02*
X126412500Y-58675000D01*
X124412500Y-62575000D02*
X124412500Y-58675000D01*
X126412500Y-62575000D02*
X124412500Y-62575000D01*
%TO.C,D25*%
X126412500Y-43525000D02*
X126412500Y-39625000D01*
X124412500Y-43525000D02*
X124412500Y-39625000D01*
X126412500Y-43525000D02*
X124412500Y-43525000D01*
%TO.C,D24*%
X126412500Y-24475000D02*
X126412500Y-20575000D01*
X124412500Y-24475000D02*
X124412500Y-20575000D01*
X126412500Y-24475000D02*
X124412500Y-24475000D01*
%TO.C,D23*%
X102600000Y-100675000D02*
X102600000Y-96775000D01*
X100600000Y-100675000D02*
X100600000Y-96775000D01*
X102600000Y-100675000D02*
X100600000Y-100675000D01*
%TO.C,D22*%
X107362500Y-81625000D02*
X107362500Y-77725000D01*
X105362500Y-81625000D02*
X105362500Y-77725000D01*
X107362500Y-81625000D02*
X105362500Y-81625000D01*
%TO.C,D21*%
X107362500Y-62575000D02*
X107362500Y-58675000D01*
X105362500Y-62575000D02*
X105362500Y-58675000D01*
X107362500Y-62575000D02*
X105362500Y-62575000D01*
%TO.C,D20*%
X107362500Y-43525000D02*
X107362500Y-39625000D01*
X105362500Y-43525000D02*
X105362500Y-39625000D01*
X107362500Y-43525000D02*
X105362500Y-43525000D01*
%TO.C,D19*%
X107362500Y-24475000D02*
X107362500Y-20575000D01*
X105362500Y-24475000D02*
X105362500Y-20575000D01*
X107362500Y-24475000D02*
X105362500Y-24475000D01*
%TO.C,D18*%
X78787500Y-100675000D02*
X78787500Y-96775000D01*
X76787500Y-100675000D02*
X76787500Y-96775000D01*
X78787500Y-100675000D02*
X76787500Y-100675000D01*
%TO.C,D17*%
X88312500Y-81625000D02*
X88312500Y-77725000D01*
X86312500Y-81625000D02*
X86312500Y-77725000D01*
X88312500Y-81625000D02*
X86312500Y-81625000D01*
%TO.C,D16*%
X88312500Y-62575000D02*
X88312500Y-58675000D01*
X86312500Y-62575000D02*
X86312500Y-58675000D01*
X88312500Y-62575000D02*
X86312500Y-62575000D01*
%TO.C,D15*%
X88312500Y-43525000D02*
X88312500Y-39625000D01*
X86312500Y-43525000D02*
X86312500Y-39625000D01*
X88312500Y-43525000D02*
X86312500Y-43525000D01*
%TO.C,D14*%
X88312500Y-24475000D02*
X88312500Y-20575000D01*
X86312500Y-24475000D02*
X86312500Y-20575000D01*
X88312500Y-24475000D02*
X86312500Y-24475000D01*
%TO.C,D13*%
X59737500Y-100675000D02*
X59737500Y-96775000D01*
X57737500Y-100675000D02*
X57737500Y-96775000D01*
X59737500Y-100675000D02*
X57737500Y-100675000D01*
%TO.C,D12*%
X69262500Y-81625000D02*
X69262500Y-77725000D01*
X67262500Y-81625000D02*
X67262500Y-77725000D01*
X69262500Y-81625000D02*
X67262500Y-81625000D01*
%TO.C,D11*%
X69262500Y-62575000D02*
X69262500Y-58675000D01*
X67262500Y-62575000D02*
X67262500Y-58675000D01*
X69262500Y-62575000D02*
X67262500Y-62575000D01*
%TO.C,D10*%
X69262500Y-43525000D02*
X69262500Y-39625000D01*
X67262500Y-43525000D02*
X67262500Y-39625000D01*
X69262500Y-43525000D02*
X67262500Y-43525000D01*
%TO.C,D9*%
X69262500Y-24475000D02*
X69262500Y-20575000D01*
X67262500Y-24475000D02*
X67262500Y-20575000D01*
X69262500Y-24475000D02*
X67262500Y-24475000D01*
%TO.C,D8*%
X50212500Y-81625000D02*
X50212500Y-77725000D01*
X48212500Y-81625000D02*
X48212500Y-77725000D01*
X50212500Y-81625000D02*
X48212500Y-81625000D01*
%TO.C,D7*%
X50212500Y-62575000D02*
X50212500Y-58675000D01*
X48212500Y-62575000D02*
X48212500Y-58675000D01*
X50212500Y-62575000D02*
X48212500Y-62575000D01*
%TO.C,D6*%
X50212500Y-43525000D02*
X50212500Y-39625000D01*
X48212500Y-43525000D02*
X48212500Y-39625000D01*
X50212500Y-43525000D02*
X48212500Y-43525000D01*
%TO.C,D5*%
X50212500Y-24475000D02*
X50212500Y-20575000D01*
X48212500Y-24475000D02*
X48212500Y-20575000D01*
X50212500Y-24475000D02*
X48212500Y-24475000D01*
%TO.C,D4*%
X31162500Y-81625000D02*
X31162500Y-77725000D01*
X29162500Y-81625000D02*
X29162500Y-77725000D01*
X31162500Y-81625000D02*
X29162500Y-81625000D01*
%TO.C,D3*%
X31162500Y-62575000D02*
X31162500Y-58675000D01*
X29162500Y-62575000D02*
X29162500Y-58675000D01*
X31162500Y-62575000D02*
X29162500Y-62575000D01*
%TO.C,D2*%
X31162500Y-43525000D02*
X31162500Y-39625000D01*
X29162500Y-43525000D02*
X29162500Y-39625000D01*
X31162500Y-43525000D02*
X29162500Y-43525000D01*
%TO.C,D1*%
X31162500Y-24475000D02*
X31162500Y-20575000D01*
X29162500Y-24475000D02*
X29162500Y-20575000D01*
X31162500Y-24475000D02*
X29162500Y-24475000D01*
%TO.C,C7*%
X182218000Y-94353748D02*
X182218000Y-94876252D01*
X180748000Y-94353748D02*
X180748000Y-94876252D01*
%TO.C,C6*%
X189364252Y-90143000D02*
X188841748Y-90143000D01*
X189364252Y-88673000D02*
X188841748Y-88673000D01*
%TO.C,C5*%
X198620748Y-91467000D02*
X199143252Y-91467000D01*
X198620748Y-92937000D02*
X199143252Y-92937000D01*
%TO.C,C4*%
X199651252Y-95604000D02*
X199128748Y-95604000D01*
X199651252Y-94134000D02*
X199128748Y-94134000D01*
%TO.C,C3*%
X199001748Y-102008000D02*
X199524252Y-102008000D01*
X199001748Y-103478000D02*
X199524252Y-103478000D01*
%TO.C,C2*%
X181236252Y-103478000D02*
X180713748Y-103478000D01*
X181236252Y-102008000D02*
X180713748Y-102008000D01*
%TO.C,C1*%
X198620748Y-104548000D02*
X199143252Y-104548000D01*
X198620748Y-106018000D02*
X199143252Y-106018000D01*
%TO.C,Y1*%
D11*
X201943190Y-98710809D02*
X202419380Y-98710809D01*
X201419380Y-98377476D02*
X201943190Y-98710809D01*
X201419380Y-99044142D01*
X202419380Y-99901285D02*
X202419380Y-99329857D01*
X202419380Y-99615571D02*
X201419380Y-99615571D01*
X201562238Y-99520333D01*
X201657476Y-99425095D01*
X201705095Y-99329857D01*
%TO.C,USB1*%
X199024380Y-28139904D02*
X199833904Y-28139904D01*
X199929142Y-28187523D01*
X199976761Y-28235142D01*
X200024380Y-28330380D01*
X200024380Y-28520857D01*
X199976761Y-28616095D01*
X199929142Y-28663714D01*
X199833904Y-28711333D01*
X199024380Y-28711333D01*
X199976761Y-29139904D02*
X200024380Y-29282761D01*
X200024380Y-29520857D01*
X199976761Y-29616095D01*
X199929142Y-29663714D01*
X199833904Y-29711333D01*
X199738666Y-29711333D01*
X199643428Y-29663714D01*
X199595809Y-29616095D01*
X199548190Y-29520857D01*
X199500571Y-29330380D01*
X199452952Y-29235142D01*
X199405333Y-29187523D01*
X199310095Y-29139904D01*
X199214857Y-29139904D01*
X199119619Y-29187523D01*
X199072000Y-29235142D01*
X199024380Y-29330380D01*
X199024380Y-29568476D01*
X199072000Y-29711333D01*
X199500571Y-30473238D02*
X199548190Y-30616095D01*
X199595809Y-30663714D01*
X199691047Y-30711333D01*
X199833904Y-30711333D01*
X199929142Y-30663714D01*
X199976761Y-30616095D01*
X200024380Y-30520857D01*
X200024380Y-30139904D01*
X199024380Y-30139904D01*
X199024380Y-30473238D01*
X199072000Y-30568476D01*
X199119619Y-30616095D01*
X199214857Y-30663714D01*
X199310095Y-30663714D01*
X199405333Y-30616095D01*
X199452952Y-30568476D01*
X199500571Y-30473238D01*
X199500571Y-30139904D01*
X200024380Y-31663714D02*
X200024380Y-31092285D01*
X200024380Y-31378000D02*
X199024380Y-31378000D01*
X199167238Y-31282761D01*
X199262476Y-31187523D01*
X199310095Y-31092285D01*
%TO.C,U1*%
X181645130Y-97440845D02*
X182454654Y-97440845D01*
X182549892Y-97488464D01*
X182597511Y-97536083D01*
X182645130Y-97631321D01*
X182645130Y-97821797D01*
X182597511Y-97917035D01*
X182549892Y-97964654D01*
X182454654Y-98012273D01*
X181645130Y-98012273D01*
X182645130Y-99012273D02*
X182645130Y-98440845D01*
X182645130Y-98726559D02*
X181645130Y-98726559D01*
X181787988Y-98631321D01*
X181883226Y-98536083D01*
X181930845Y-98440845D01*
%TO.C,SW1*%
X199199333Y-82319761D02*
X199056476Y-82367380D01*
X198818380Y-82367380D01*
X198723142Y-82319761D01*
X198675523Y-82272142D01*
X198627904Y-82176904D01*
X198627904Y-82081666D01*
X198675523Y-81986428D01*
X198723142Y-81938809D01*
X198818380Y-81891190D01*
X199008857Y-81843571D01*
X199104095Y-81795952D01*
X199151714Y-81748333D01*
X199199333Y-81653095D01*
X199199333Y-81557857D01*
X199151714Y-81462619D01*
X199104095Y-81415000D01*
X199008857Y-81367380D01*
X198770761Y-81367380D01*
X198627904Y-81415000D01*
X198294571Y-81367380D02*
X198056476Y-82367380D01*
X197866000Y-81653095D01*
X197675523Y-82367380D01*
X197437428Y-81367380D01*
X196532666Y-82367380D02*
X197104095Y-82367380D01*
X196818380Y-82367380D02*
X196818380Y-81367380D01*
X196913619Y-81510238D01*
X197008857Y-81605476D01*
X197104095Y-81653095D01*
%TO.C,R4*%
X176983380Y-102957333D02*
X176507190Y-102624000D01*
X176983380Y-102385904D02*
X175983380Y-102385904D01*
X175983380Y-102766857D01*
X176031000Y-102862095D01*
X176078619Y-102909714D01*
X176173857Y-102957333D01*
X176316714Y-102957333D01*
X176411952Y-102909714D01*
X176459571Y-102862095D01*
X176507190Y-102766857D01*
X176507190Y-102385904D01*
X176316714Y-103814476D02*
X176983380Y-103814476D01*
X175935761Y-103576380D02*
X176650047Y-103338285D01*
X176650047Y-103957333D01*
%TO.C,R3*%
X194857666Y-92145380D02*
X195191000Y-91669190D01*
X195429095Y-92145380D02*
X195429095Y-91145380D01*
X195048142Y-91145380D01*
X194952904Y-91193000D01*
X194905285Y-91240619D01*
X194857666Y-91335857D01*
X194857666Y-91478714D01*
X194905285Y-91573952D01*
X194952904Y-91621571D01*
X195048142Y-91669190D01*
X195429095Y-91669190D01*
X194524333Y-91145380D02*
X193905285Y-91145380D01*
X194238619Y-91526333D01*
X194095761Y-91526333D01*
X194000523Y-91573952D01*
X193952904Y-91621571D01*
X193905285Y-91716809D01*
X193905285Y-91954904D01*
X193952904Y-92050142D01*
X194000523Y-92097761D01*
X194095761Y-92145380D01*
X194381476Y-92145380D01*
X194476714Y-92097761D01*
X194524333Y-92050142D01*
%TO.C,R2*%
X188284380Y-88479333D02*
X187808190Y-88146000D01*
X188284380Y-87907904D02*
X187284380Y-87907904D01*
X187284380Y-88288857D01*
X187332000Y-88384095D01*
X187379619Y-88431714D01*
X187474857Y-88479333D01*
X187617714Y-88479333D01*
X187712952Y-88431714D01*
X187760571Y-88384095D01*
X187808190Y-88288857D01*
X187808190Y-87907904D01*
X187379619Y-88860285D02*
X187332000Y-88907904D01*
X187284380Y-89003142D01*
X187284380Y-89241238D01*
X187332000Y-89336476D01*
X187379619Y-89384095D01*
X187474857Y-89431714D01*
X187570095Y-89431714D01*
X187712952Y-89384095D01*
X188284380Y-88812666D01*
X188284380Y-89431714D01*
%TO.C,R1*%
X185998380Y-88479333D02*
X185522190Y-88146000D01*
X185998380Y-87907904D02*
X184998380Y-87907904D01*
X184998380Y-88288857D01*
X185046000Y-88384095D01*
X185093619Y-88431714D01*
X185188857Y-88479333D01*
X185331714Y-88479333D01*
X185426952Y-88431714D01*
X185474571Y-88384095D01*
X185522190Y-88288857D01*
X185522190Y-87907904D01*
X185998380Y-89431714D02*
X185998380Y-88860285D01*
X185998380Y-89146000D02*
X184998380Y-89146000D01*
X185141238Y-89050761D01*
X185236476Y-88955523D01*
X185284095Y-88860285D01*
%TO.C,F1*%
X183231571Y-88947666D02*
X183231571Y-88614333D01*
X183755380Y-88614333D02*
X182755380Y-88614333D01*
X182755380Y-89090523D01*
X183755380Y-89995285D02*
X183755380Y-89423857D01*
X183755380Y-89709571D02*
X182755380Y-89709571D01*
X182898238Y-89614333D01*
X182993476Y-89519095D01*
X183041095Y-89423857D01*
%TO.C,D46*%
X204064880Y-78160714D02*
X203064880Y-78160714D01*
X203064880Y-78398809D01*
X203112500Y-78541666D01*
X203207738Y-78636904D01*
X203302976Y-78684523D01*
X203493452Y-78732142D01*
X203636309Y-78732142D01*
X203826785Y-78684523D01*
X203922023Y-78636904D01*
X204017261Y-78541666D01*
X204064880Y-78398809D01*
X204064880Y-78160714D01*
X203398214Y-79589285D02*
X204064880Y-79589285D01*
X203017261Y-79351190D02*
X203731547Y-79113095D01*
X203731547Y-79732142D01*
X203064880Y-80541666D02*
X203064880Y-80351190D01*
X203112500Y-80255952D01*
X203160119Y-80208333D01*
X203302976Y-80113095D01*
X203493452Y-80065476D01*
X203874404Y-80065476D01*
X203969642Y-80113095D01*
X204017261Y-80160714D01*
X204064880Y-80255952D01*
X204064880Y-80446428D01*
X204017261Y-80541666D01*
X203969642Y-80589285D01*
X203874404Y-80636904D01*
X203636309Y-80636904D01*
X203541071Y-80589285D01*
X203493452Y-80541666D01*
X203445833Y-80446428D01*
X203445833Y-80255952D01*
X203493452Y-80160714D01*
X203541071Y-80113095D01*
X203636309Y-80065476D01*
%TO.C,D45*%
X204064880Y-59110714D02*
X203064880Y-59110714D01*
X203064880Y-59348809D01*
X203112500Y-59491666D01*
X203207738Y-59586904D01*
X203302976Y-59634523D01*
X203493452Y-59682142D01*
X203636309Y-59682142D01*
X203826785Y-59634523D01*
X203922023Y-59586904D01*
X204017261Y-59491666D01*
X204064880Y-59348809D01*
X204064880Y-59110714D01*
X203398214Y-60539285D02*
X204064880Y-60539285D01*
X203017261Y-60301190D02*
X203731547Y-60063095D01*
X203731547Y-60682142D01*
X203064880Y-61539285D02*
X203064880Y-61063095D01*
X203541071Y-61015476D01*
X203493452Y-61063095D01*
X203445833Y-61158333D01*
X203445833Y-61396428D01*
X203493452Y-61491666D01*
X203541071Y-61539285D01*
X203636309Y-61586904D01*
X203874404Y-61586904D01*
X203969642Y-61539285D01*
X204017261Y-61491666D01*
X204064880Y-61396428D01*
X204064880Y-61158333D01*
X204017261Y-61063095D01*
X203969642Y-61015476D01*
%TO.C,D44*%
X204064880Y-40060714D02*
X203064880Y-40060714D01*
X203064880Y-40298809D01*
X203112500Y-40441666D01*
X203207738Y-40536904D01*
X203302976Y-40584523D01*
X203493452Y-40632142D01*
X203636309Y-40632142D01*
X203826785Y-40584523D01*
X203922023Y-40536904D01*
X204017261Y-40441666D01*
X204064880Y-40298809D01*
X204064880Y-40060714D01*
X203398214Y-41489285D02*
X204064880Y-41489285D01*
X203017261Y-41251190D02*
X203731547Y-41013095D01*
X203731547Y-41632142D01*
X203398214Y-42441666D02*
X204064880Y-42441666D01*
X203017261Y-42203571D02*
X203731547Y-41965476D01*
X203731547Y-42584523D01*
%TO.C,D43*%
X204064880Y-21010714D02*
X203064880Y-21010714D01*
X203064880Y-21248809D01*
X203112500Y-21391666D01*
X203207738Y-21486904D01*
X203302976Y-21534523D01*
X203493452Y-21582142D01*
X203636309Y-21582142D01*
X203826785Y-21534523D01*
X203922023Y-21486904D01*
X204017261Y-21391666D01*
X204064880Y-21248809D01*
X204064880Y-21010714D01*
X203398214Y-22439285D02*
X204064880Y-22439285D01*
X203017261Y-22201190D02*
X203731547Y-21963095D01*
X203731547Y-22582142D01*
X203064880Y-22867857D02*
X203064880Y-23486904D01*
X203445833Y-23153571D01*
X203445833Y-23296428D01*
X203493452Y-23391666D01*
X203541071Y-23439285D01*
X203636309Y-23486904D01*
X203874404Y-23486904D01*
X203969642Y-23439285D01*
X204017261Y-23391666D01*
X204064880Y-23296428D01*
X204064880Y-23010714D01*
X204017261Y-22915476D01*
X203969642Y-22867857D01*
%TO.C,D42*%
X185014880Y-78160714D02*
X184014880Y-78160714D01*
X184014880Y-78398809D01*
X184062500Y-78541666D01*
X184157738Y-78636904D01*
X184252976Y-78684523D01*
X184443452Y-78732142D01*
X184586309Y-78732142D01*
X184776785Y-78684523D01*
X184872023Y-78636904D01*
X184967261Y-78541666D01*
X185014880Y-78398809D01*
X185014880Y-78160714D01*
X184348214Y-79589285D02*
X185014880Y-79589285D01*
X183967261Y-79351190D02*
X184681547Y-79113095D01*
X184681547Y-79732142D01*
X184110119Y-80065476D02*
X184062500Y-80113095D01*
X184014880Y-80208333D01*
X184014880Y-80446428D01*
X184062500Y-80541666D01*
X184110119Y-80589285D01*
X184205357Y-80636904D01*
X184300595Y-80636904D01*
X184443452Y-80589285D01*
X185014880Y-80017857D01*
X185014880Y-80636904D01*
%TO.C,D41*%
X185014880Y-59110714D02*
X184014880Y-59110714D01*
X184014880Y-59348809D01*
X184062500Y-59491666D01*
X184157738Y-59586904D01*
X184252976Y-59634523D01*
X184443452Y-59682142D01*
X184586309Y-59682142D01*
X184776785Y-59634523D01*
X184872023Y-59586904D01*
X184967261Y-59491666D01*
X185014880Y-59348809D01*
X185014880Y-59110714D01*
X184348214Y-60539285D02*
X185014880Y-60539285D01*
X183967261Y-60301190D02*
X184681547Y-60063095D01*
X184681547Y-60682142D01*
X185014880Y-61586904D02*
X185014880Y-61015476D01*
X185014880Y-61301190D02*
X184014880Y-61301190D01*
X184157738Y-61205952D01*
X184252976Y-61110714D01*
X184300595Y-61015476D01*
%TO.C,D40*%
X185014880Y-40060714D02*
X184014880Y-40060714D01*
X184014880Y-40298809D01*
X184062500Y-40441666D01*
X184157738Y-40536904D01*
X184252976Y-40584523D01*
X184443452Y-40632142D01*
X184586309Y-40632142D01*
X184776785Y-40584523D01*
X184872023Y-40536904D01*
X184967261Y-40441666D01*
X185014880Y-40298809D01*
X185014880Y-40060714D01*
X184348214Y-41489285D02*
X185014880Y-41489285D01*
X183967261Y-41251190D02*
X184681547Y-41013095D01*
X184681547Y-41632142D01*
X184014880Y-42203571D02*
X184014880Y-42298809D01*
X184062500Y-42394047D01*
X184110119Y-42441666D01*
X184205357Y-42489285D01*
X184395833Y-42536904D01*
X184633928Y-42536904D01*
X184824404Y-42489285D01*
X184919642Y-42441666D01*
X184967261Y-42394047D01*
X185014880Y-42298809D01*
X185014880Y-42203571D01*
X184967261Y-42108333D01*
X184919642Y-42060714D01*
X184824404Y-42013095D01*
X184633928Y-41965476D01*
X184395833Y-41965476D01*
X184205357Y-42013095D01*
X184110119Y-42060714D01*
X184062500Y-42108333D01*
X184014880Y-42203571D01*
%TO.C,D39*%
X185014880Y-21010714D02*
X184014880Y-21010714D01*
X184014880Y-21248809D01*
X184062500Y-21391666D01*
X184157738Y-21486904D01*
X184252976Y-21534523D01*
X184443452Y-21582142D01*
X184586309Y-21582142D01*
X184776785Y-21534523D01*
X184872023Y-21486904D01*
X184967261Y-21391666D01*
X185014880Y-21248809D01*
X185014880Y-21010714D01*
X184014880Y-21915476D02*
X184014880Y-22534523D01*
X184395833Y-22201190D01*
X184395833Y-22344047D01*
X184443452Y-22439285D01*
X184491071Y-22486904D01*
X184586309Y-22534523D01*
X184824404Y-22534523D01*
X184919642Y-22486904D01*
X184967261Y-22439285D01*
X185014880Y-22344047D01*
X185014880Y-22058333D01*
X184967261Y-21963095D01*
X184919642Y-21915476D01*
X185014880Y-23010714D02*
X185014880Y-23201190D01*
X184967261Y-23296428D01*
X184919642Y-23344047D01*
X184776785Y-23439285D01*
X184586309Y-23486904D01*
X184205357Y-23486904D01*
X184110119Y-23439285D01*
X184062500Y-23391666D01*
X184014880Y-23296428D01*
X184014880Y-23105952D01*
X184062500Y-23010714D01*
X184110119Y-22963095D01*
X184205357Y-22915476D01*
X184443452Y-22915476D01*
X184538690Y-22963095D01*
X184586309Y-23010714D01*
X184633928Y-23105952D01*
X184633928Y-23296428D01*
X184586309Y-23391666D01*
X184538690Y-23439285D01*
X184443452Y-23486904D01*
%TO.C,D38*%
X175489880Y-97210714D02*
X174489880Y-97210714D01*
X174489880Y-97448809D01*
X174537500Y-97591666D01*
X174632738Y-97686904D01*
X174727976Y-97734523D01*
X174918452Y-97782142D01*
X175061309Y-97782142D01*
X175251785Y-97734523D01*
X175347023Y-97686904D01*
X175442261Y-97591666D01*
X175489880Y-97448809D01*
X175489880Y-97210714D01*
X174489880Y-98115476D02*
X174489880Y-98734523D01*
X174870833Y-98401190D01*
X174870833Y-98544047D01*
X174918452Y-98639285D01*
X174966071Y-98686904D01*
X175061309Y-98734523D01*
X175299404Y-98734523D01*
X175394642Y-98686904D01*
X175442261Y-98639285D01*
X175489880Y-98544047D01*
X175489880Y-98258333D01*
X175442261Y-98163095D01*
X175394642Y-98115476D01*
X174918452Y-99305952D02*
X174870833Y-99210714D01*
X174823214Y-99163095D01*
X174727976Y-99115476D01*
X174680357Y-99115476D01*
X174585119Y-99163095D01*
X174537500Y-99210714D01*
X174489880Y-99305952D01*
X174489880Y-99496428D01*
X174537500Y-99591666D01*
X174585119Y-99639285D01*
X174680357Y-99686904D01*
X174727976Y-99686904D01*
X174823214Y-99639285D01*
X174870833Y-99591666D01*
X174918452Y-99496428D01*
X174918452Y-99305952D01*
X174966071Y-99210714D01*
X175013690Y-99163095D01*
X175108928Y-99115476D01*
X175299404Y-99115476D01*
X175394642Y-99163095D01*
X175442261Y-99210714D01*
X175489880Y-99305952D01*
X175489880Y-99496428D01*
X175442261Y-99591666D01*
X175394642Y-99639285D01*
X175299404Y-99686904D01*
X175108928Y-99686904D01*
X175013690Y-99639285D01*
X174966071Y-99591666D01*
X174918452Y-99496428D01*
%TO.C,D37*%
X165964880Y-78160714D02*
X164964880Y-78160714D01*
X164964880Y-78398809D01*
X165012500Y-78541666D01*
X165107738Y-78636904D01*
X165202976Y-78684523D01*
X165393452Y-78732142D01*
X165536309Y-78732142D01*
X165726785Y-78684523D01*
X165822023Y-78636904D01*
X165917261Y-78541666D01*
X165964880Y-78398809D01*
X165964880Y-78160714D01*
X164964880Y-79065476D02*
X164964880Y-79684523D01*
X165345833Y-79351190D01*
X165345833Y-79494047D01*
X165393452Y-79589285D01*
X165441071Y-79636904D01*
X165536309Y-79684523D01*
X165774404Y-79684523D01*
X165869642Y-79636904D01*
X165917261Y-79589285D01*
X165964880Y-79494047D01*
X165964880Y-79208333D01*
X165917261Y-79113095D01*
X165869642Y-79065476D01*
X164964880Y-80017857D02*
X164964880Y-80684523D01*
X165964880Y-80255952D01*
%TO.C,D36*%
X165964880Y-59110714D02*
X164964880Y-59110714D01*
X164964880Y-59348809D01*
X165012500Y-59491666D01*
X165107738Y-59586904D01*
X165202976Y-59634523D01*
X165393452Y-59682142D01*
X165536309Y-59682142D01*
X165726785Y-59634523D01*
X165822023Y-59586904D01*
X165917261Y-59491666D01*
X165964880Y-59348809D01*
X165964880Y-59110714D01*
X164964880Y-60015476D02*
X164964880Y-60634523D01*
X165345833Y-60301190D01*
X165345833Y-60444047D01*
X165393452Y-60539285D01*
X165441071Y-60586904D01*
X165536309Y-60634523D01*
X165774404Y-60634523D01*
X165869642Y-60586904D01*
X165917261Y-60539285D01*
X165964880Y-60444047D01*
X165964880Y-60158333D01*
X165917261Y-60063095D01*
X165869642Y-60015476D01*
X164964880Y-61491666D02*
X164964880Y-61301190D01*
X165012500Y-61205952D01*
X165060119Y-61158333D01*
X165202976Y-61063095D01*
X165393452Y-61015476D01*
X165774404Y-61015476D01*
X165869642Y-61063095D01*
X165917261Y-61110714D01*
X165964880Y-61205952D01*
X165964880Y-61396428D01*
X165917261Y-61491666D01*
X165869642Y-61539285D01*
X165774404Y-61586904D01*
X165536309Y-61586904D01*
X165441071Y-61539285D01*
X165393452Y-61491666D01*
X165345833Y-61396428D01*
X165345833Y-61205952D01*
X165393452Y-61110714D01*
X165441071Y-61063095D01*
X165536309Y-61015476D01*
%TO.C,D35*%
X165964880Y-40060714D02*
X164964880Y-40060714D01*
X164964880Y-40298809D01*
X165012500Y-40441666D01*
X165107738Y-40536904D01*
X165202976Y-40584523D01*
X165393452Y-40632142D01*
X165536309Y-40632142D01*
X165726785Y-40584523D01*
X165822023Y-40536904D01*
X165917261Y-40441666D01*
X165964880Y-40298809D01*
X165964880Y-40060714D01*
X164964880Y-40965476D02*
X164964880Y-41584523D01*
X165345833Y-41251190D01*
X165345833Y-41394047D01*
X165393452Y-41489285D01*
X165441071Y-41536904D01*
X165536309Y-41584523D01*
X165774404Y-41584523D01*
X165869642Y-41536904D01*
X165917261Y-41489285D01*
X165964880Y-41394047D01*
X165964880Y-41108333D01*
X165917261Y-41013095D01*
X165869642Y-40965476D01*
X164964880Y-42489285D02*
X164964880Y-42013095D01*
X165441071Y-41965476D01*
X165393452Y-42013095D01*
X165345833Y-42108333D01*
X165345833Y-42346428D01*
X165393452Y-42441666D01*
X165441071Y-42489285D01*
X165536309Y-42536904D01*
X165774404Y-42536904D01*
X165869642Y-42489285D01*
X165917261Y-42441666D01*
X165964880Y-42346428D01*
X165964880Y-42108333D01*
X165917261Y-42013095D01*
X165869642Y-41965476D01*
%TO.C,D34*%
X165964880Y-21010714D02*
X164964880Y-21010714D01*
X164964880Y-21248809D01*
X165012500Y-21391666D01*
X165107738Y-21486904D01*
X165202976Y-21534523D01*
X165393452Y-21582142D01*
X165536309Y-21582142D01*
X165726785Y-21534523D01*
X165822023Y-21486904D01*
X165917261Y-21391666D01*
X165964880Y-21248809D01*
X165964880Y-21010714D01*
X164964880Y-21915476D02*
X164964880Y-22534523D01*
X165345833Y-22201190D01*
X165345833Y-22344047D01*
X165393452Y-22439285D01*
X165441071Y-22486904D01*
X165536309Y-22534523D01*
X165774404Y-22534523D01*
X165869642Y-22486904D01*
X165917261Y-22439285D01*
X165964880Y-22344047D01*
X165964880Y-22058333D01*
X165917261Y-21963095D01*
X165869642Y-21915476D01*
X165298214Y-23391666D02*
X165964880Y-23391666D01*
X164917261Y-23153571D02*
X165631547Y-22915476D01*
X165631547Y-23534523D01*
%TO.C,D33*%
X156439880Y-97210714D02*
X155439880Y-97210714D01*
X155439880Y-97448809D01*
X155487500Y-97591666D01*
X155582738Y-97686904D01*
X155677976Y-97734523D01*
X155868452Y-97782142D01*
X156011309Y-97782142D01*
X156201785Y-97734523D01*
X156297023Y-97686904D01*
X156392261Y-97591666D01*
X156439880Y-97448809D01*
X156439880Y-97210714D01*
X155439880Y-98115476D02*
X155439880Y-98734523D01*
X155820833Y-98401190D01*
X155820833Y-98544047D01*
X155868452Y-98639285D01*
X155916071Y-98686904D01*
X156011309Y-98734523D01*
X156249404Y-98734523D01*
X156344642Y-98686904D01*
X156392261Y-98639285D01*
X156439880Y-98544047D01*
X156439880Y-98258333D01*
X156392261Y-98163095D01*
X156344642Y-98115476D01*
X155439880Y-99067857D02*
X155439880Y-99686904D01*
X155820833Y-99353571D01*
X155820833Y-99496428D01*
X155868452Y-99591666D01*
X155916071Y-99639285D01*
X156011309Y-99686904D01*
X156249404Y-99686904D01*
X156344642Y-99639285D01*
X156392261Y-99591666D01*
X156439880Y-99496428D01*
X156439880Y-99210714D01*
X156392261Y-99115476D01*
X156344642Y-99067857D01*
%TO.C,D32*%
X146914880Y-78160714D02*
X145914880Y-78160714D01*
X145914880Y-78398809D01*
X145962500Y-78541666D01*
X146057738Y-78636904D01*
X146152976Y-78684523D01*
X146343452Y-78732142D01*
X146486309Y-78732142D01*
X146676785Y-78684523D01*
X146772023Y-78636904D01*
X146867261Y-78541666D01*
X146914880Y-78398809D01*
X146914880Y-78160714D01*
X145914880Y-79065476D02*
X145914880Y-79684523D01*
X146295833Y-79351190D01*
X146295833Y-79494047D01*
X146343452Y-79589285D01*
X146391071Y-79636904D01*
X146486309Y-79684523D01*
X146724404Y-79684523D01*
X146819642Y-79636904D01*
X146867261Y-79589285D01*
X146914880Y-79494047D01*
X146914880Y-79208333D01*
X146867261Y-79113095D01*
X146819642Y-79065476D01*
X146010119Y-80065476D02*
X145962500Y-80113095D01*
X145914880Y-80208333D01*
X145914880Y-80446428D01*
X145962500Y-80541666D01*
X146010119Y-80589285D01*
X146105357Y-80636904D01*
X146200595Y-80636904D01*
X146343452Y-80589285D01*
X146914880Y-80017857D01*
X146914880Y-80636904D01*
%TO.C,D31*%
X146914880Y-59110714D02*
X145914880Y-59110714D01*
X145914880Y-59348809D01*
X145962500Y-59491666D01*
X146057738Y-59586904D01*
X146152976Y-59634523D01*
X146343452Y-59682142D01*
X146486309Y-59682142D01*
X146676785Y-59634523D01*
X146772023Y-59586904D01*
X146867261Y-59491666D01*
X146914880Y-59348809D01*
X146914880Y-59110714D01*
X145914880Y-60015476D02*
X145914880Y-60634523D01*
X146295833Y-60301190D01*
X146295833Y-60444047D01*
X146343452Y-60539285D01*
X146391071Y-60586904D01*
X146486309Y-60634523D01*
X146724404Y-60634523D01*
X146819642Y-60586904D01*
X146867261Y-60539285D01*
X146914880Y-60444047D01*
X146914880Y-60158333D01*
X146867261Y-60063095D01*
X146819642Y-60015476D01*
X146914880Y-61586904D02*
X146914880Y-61015476D01*
X146914880Y-61301190D02*
X145914880Y-61301190D01*
X146057738Y-61205952D01*
X146152976Y-61110714D01*
X146200595Y-61015476D01*
%TO.C,D30*%
X146914880Y-40060714D02*
X145914880Y-40060714D01*
X145914880Y-40298809D01*
X145962500Y-40441666D01*
X146057738Y-40536904D01*
X146152976Y-40584523D01*
X146343452Y-40632142D01*
X146486309Y-40632142D01*
X146676785Y-40584523D01*
X146772023Y-40536904D01*
X146867261Y-40441666D01*
X146914880Y-40298809D01*
X146914880Y-40060714D01*
X145914880Y-40965476D02*
X145914880Y-41584523D01*
X146295833Y-41251190D01*
X146295833Y-41394047D01*
X146343452Y-41489285D01*
X146391071Y-41536904D01*
X146486309Y-41584523D01*
X146724404Y-41584523D01*
X146819642Y-41536904D01*
X146867261Y-41489285D01*
X146914880Y-41394047D01*
X146914880Y-41108333D01*
X146867261Y-41013095D01*
X146819642Y-40965476D01*
X145914880Y-42203571D02*
X145914880Y-42298809D01*
X145962500Y-42394047D01*
X146010119Y-42441666D01*
X146105357Y-42489285D01*
X146295833Y-42536904D01*
X146533928Y-42536904D01*
X146724404Y-42489285D01*
X146819642Y-42441666D01*
X146867261Y-42394047D01*
X146914880Y-42298809D01*
X146914880Y-42203571D01*
X146867261Y-42108333D01*
X146819642Y-42060714D01*
X146724404Y-42013095D01*
X146533928Y-41965476D01*
X146295833Y-41965476D01*
X146105357Y-42013095D01*
X146010119Y-42060714D01*
X145962500Y-42108333D01*
X145914880Y-42203571D01*
%TO.C,D29*%
X146914880Y-21010714D02*
X145914880Y-21010714D01*
X145914880Y-21248809D01*
X145962500Y-21391666D01*
X146057738Y-21486904D01*
X146152976Y-21534523D01*
X146343452Y-21582142D01*
X146486309Y-21582142D01*
X146676785Y-21534523D01*
X146772023Y-21486904D01*
X146867261Y-21391666D01*
X146914880Y-21248809D01*
X146914880Y-21010714D01*
X146010119Y-21963095D02*
X145962500Y-22010714D01*
X145914880Y-22105952D01*
X145914880Y-22344047D01*
X145962500Y-22439285D01*
X146010119Y-22486904D01*
X146105357Y-22534523D01*
X146200595Y-22534523D01*
X146343452Y-22486904D01*
X146914880Y-21915476D01*
X146914880Y-22534523D01*
X146914880Y-23010714D02*
X146914880Y-23201190D01*
X146867261Y-23296428D01*
X146819642Y-23344047D01*
X146676785Y-23439285D01*
X146486309Y-23486904D01*
X146105357Y-23486904D01*
X146010119Y-23439285D01*
X145962500Y-23391666D01*
X145914880Y-23296428D01*
X145914880Y-23105952D01*
X145962500Y-23010714D01*
X146010119Y-22963095D01*
X146105357Y-22915476D01*
X146343452Y-22915476D01*
X146438690Y-22963095D01*
X146486309Y-23010714D01*
X146533928Y-23105952D01*
X146533928Y-23296428D01*
X146486309Y-23391666D01*
X146438690Y-23439285D01*
X146343452Y-23486904D01*
%TO.C,D28*%
X132627380Y-97210714D02*
X131627380Y-97210714D01*
X131627380Y-97448809D01*
X131675000Y-97591666D01*
X131770238Y-97686904D01*
X131865476Y-97734523D01*
X132055952Y-97782142D01*
X132198809Y-97782142D01*
X132389285Y-97734523D01*
X132484523Y-97686904D01*
X132579761Y-97591666D01*
X132627380Y-97448809D01*
X132627380Y-97210714D01*
X131722619Y-98163095D02*
X131675000Y-98210714D01*
X131627380Y-98305952D01*
X131627380Y-98544047D01*
X131675000Y-98639285D01*
X131722619Y-98686904D01*
X131817857Y-98734523D01*
X131913095Y-98734523D01*
X132055952Y-98686904D01*
X132627380Y-98115476D01*
X132627380Y-98734523D01*
X132055952Y-99305952D02*
X132008333Y-99210714D01*
X131960714Y-99163095D01*
X131865476Y-99115476D01*
X131817857Y-99115476D01*
X131722619Y-99163095D01*
X131675000Y-99210714D01*
X131627380Y-99305952D01*
X131627380Y-99496428D01*
X131675000Y-99591666D01*
X131722619Y-99639285D01*
X131817857Y-99686904D01*
X131865476Y-99686904D01*
X131960714Y-99639285D01*
X132008333Y-99591666D01*
X132055952Y-99496428D01*
X132055952Y-99305952D01*
X132103571Y-99210714D01*
X132151190Y-99163095D01*
X132246428Y-99115476D01*
X132436904Y-99115476D01*
X132532142Y-99163095D01*
X132579761Y-99210714D01*
X132627380Y-99305952D01*
X132627380Y-99496428D01*
X132579761Y-99591666D01*
X132532142Y-99639285D01*
X132436904Y-99686904D01*
X132246428Y-99686904D01*
X132151190Y-99639285D01*
X132103571Y-99591666D01*
X132055952Y-99496428D01*
%TO.C,D27*%
X127864880Y-78160714D02*
X126864880Y-78160714D01*
X126864880Y-78398809D01*
X126912500Y-78541666D01*
X127007738Y-78636904D01*
X127102976Y-78684523D01*
X127293452Y-78732142D01*
X127436309Y-78732142D01*
X127626785Y-78684523D01*
X127722023Y-78636904D01*
X127817261Y-78541666D01*
X127864880Y-78398809D01*
X127864880Y-78160714D01*
X126960119Y-79113095D02*
X126912500Y-79160714D01*
X126864880Y-79255952D01*
X126864880Y-79494047D01*
X126912500Y-79589285D01*
X126960119Y-79636904D01*
X127055357Y-79684523D01*
X127150595Y-79684523D01*
X127293452Y-79636904D01*
X127864880Y-79065476D01*
X127864880Y-79684523D01*
X126864880Y-80017857D02*
X126864880Y-80684523D01*
X127864880Y-80255952D01*
%TO.C,D26*%
X127864880Y-59110714D02*
X126864880Y-59110714D01*
X126864880Y-59348809D01*
X126912500Y-59491666D01*
X127007738Y-59586904D01*
X127102976Y-59634523D01*
X127293452Y-59682142D01*
X127436309Y-59682142D01*
X127626785Y-59634523D01*
X127722023Y-59586904D01*
X127817261Y-59491666D01*
X127864880Y-59348809D01*
X127864880Y-59110714D01*
X126960119Y-60063095D02*
X126912500Y-60110714D01*
X126864880Y-60205952D01*
X126864880Y-60444047D01*
X126912500Y-60539285D01*
X126960119Y-60586904D01*
X127055357Y-60634523D01*
X127150595Y-60634523D01*
X127293452Y-60586904D01*
X127864880Y-60015476D01*
X127864880Y-60634523D01*
X126864880Y-61491666D02*
X126864880Y-61301190D01*
X126912500Y-61205952D01*
X126960119Y-61158333D01*
X127102976Y-61063095D01*
X127293452Y-61015476D01*
X127674404Y-61015476D01*
X127769642Y-61063095D01*
X127817261Y-61110714D01*
X127864880Y-61205952D01*
X127864880Y-61396428D01*
X127817261Y-61491666D01*
X127769642Y-61539285D01*
X127674404Y-61586904D01*
X127436309Y-61586904D01*
X127341071Y-61539285D01*
X127293452Y-61491666D01*
X127245833Y-61396428D01*
X127245833Y-61205952D01*
X127293452Y-61110714D01*
X127341071Y-61063095D01*
X127436309Y-61015476D01*
%TO.C,D25*%
X127864880Y-40060714D02*
X126864880Y-40060714D01*
X126864880Y-40298809D01*
X126912500Y-40441666D01*
X127007738Y-40536904D01*
X127102976Y-40584523D01*
X127293452Y-40632142D01*
X127436309Y-40632142D01*
X127626785Y-40584523D01*
X127722023Y-40536904D01*
X127817261Y-40441666D01*
X127864880Y-40298809D01*
X127864880Y-40060714D01*
X126960119Y-41013095D02*
X126912500Y-41060714D01*
X126864880Y-41155952D01*
X126864880Y-41394047D01*
X126912500Y-41489285D01*
X126960119Y-41536904D01*
X127055357Y-41584523D01*
X127150595Y-41584523D01*
X127293452Y-41536904D01*
X127864880Y-40965476D01*
X127864880Y-41584523D01*
X126864880Y-42489285D02*
X126864880Y-42013095D01*
X127341071Y-41965476D01*
X127293452Y-42013095D01*
X127245833Y-42108333D01*
X127245833Y-42346428D01*
X127293452Y-42441666D01*
X127341071Y-42489285D01*
X127436309Y-42536904D01*
X127674404Y-42536904D01*
X127769642Y-42489285D01*
X127817261Y-42441666D01*
X127864880Y-42346428D01*
X127864880Y-42108333D01*
X127817261Y-42013095D01*
X127769642Y-41965476D01*
%TO.C,D24*%
X127864880Y-21010714D02*
X126864880Y-21010714D01*
X126864880Y-21248809D01*
X126912500Y-21391666D01*
X127007738Y-21486904D01*
X127102976Y-21534523D01*
X127293452Y-21582142D01*
X127436309Y-21582142D01*
X127626785Y-21534523D01*
X127722023Y-21486904D01*
X127817261Y-21391666D01*
X127864880Y-21248809D01*
X127864880Y-21010714D01*
X126960119Y-21963095D02*
X126912500Y-22010714D01*
X126864880Y-22105952D01*
X126864880Y-22344047D01*
X126912500Y-22439285D01*
X126960119Y-22486904D01*
X127055357Y-22534523D01*
X127150595Y-22534523D01*
X127293452Y-22486904D01*
X127864880Y-21915476D01*
X127864880Y-22534523D01*
X127198214Y-23391666D02*
X127864880Y-23391666D01*
X126817261Y-23153571D02*
X127531547Y-22915476D01*
X127531547Y-23534523D01*
%TO.C,D23*%
X104052380Y-97210714D02*
X103052380Y-97210714D01*
X103052380Y-97448809D01*
X103100000Y-97591666D01*
X103195238Y-97686904D01*
X103290476Y-97734523D01*
X103480952Y-97782142D01*
X103623809Y-97782142D01*
X103814285Y-97734523D01*
X103909523Y-97686904D01*
X104004761Y-97591666D01*
X104052380Y-97448809D01*
X104052380Y-97210714D01*
X103147619Y-98163095D02*
X103100000Y-98210714D01*
X103052380Y-98305952D01*
X103052380Y-98544047D01*
X103100000Y-98639285D01*
X103147619Y-98686904D01*
X103242857Y-98734523D01*
X103338095Y-98734523D01*
X103480952Y-98686904D01*
X104052380Y-98115476D01*
X104052380Y-98734523D01*
X103052380Y-99067857D02*
X103052380Y-99686904D01*
X103433333Y-99353571D01*
X103433333Y-99496428D01*
X103480952Y-99591666D01*
X103528571Y-99639285D01*
X103623809Y-99686904D01*
X103861904Y-99686904D01*
X103957142Y-99639285D01*
X104004761Y-99591666D01*
X104052380Y-99496428D01*
X104052380Y-99210714D01*
X104004761Y-99115476D01*
X103957142Y-99067857D01*
%TO.C,D22*%
X108814880Y-78160714D02*
X107814880Y-78160714D01*
X107814880Y-78398809D01*
X107862500Y-78541666D01*
X107957738Y-78636904D01*
X108052976Y-78684523D01*
X108243452Y-78732142D01*
X108386309Y-78732142D01*
X108576785Y-78684523D01*
X108672023Y-78636904D01*
X108767261Y-78541666D01*
X108814880Y-78398809D01*
X108814880Y-78160714D01*
X107910119Y-79113095D02*
X107862500Y-79160714D01*
X107814880Y-79255952D01*
X107814880Y-79494047D01*
X107862500Y-79589285D01*
X107910119Y-79636904D01*
X108005357Y-79684523D01*
X108100595Y-79684523D01*
X108243452Y-79636904D01*
X108814880Y-79065476D01*
X108814880Y-79684523D01*
X107910119Y-80065476D02*
X107862500Y-80113095D01*
X107814880Y-80208333D01*
X107814880Y-80446428D01*
X107862500Y-80541666D01*
X107910119Y-80589285D01*
X108005357Y-80636904D01*
X108100595Y-80636904D01*
X108243452Y-80589285D01*
X108814880Y-80017857D01*
X108814880Y-80636904D01*
%TO.C,D21*%
X108814880Y-59110714D02*
X107814880Y-59110714D01*
X107814880Y-59348809D01*
X107862500Y-59491666D01*
X107957738Y-59586904D01*
X108052976Y-59634523D01*
X108243452Y-59682142D01*
X108386309Y-59682142D01*
X108576785Y-59634523D01*
X108672023Y-59586904D01*
X108767261Y-59491666D01*
X108814880Y-59348809D01*
X108814880Y-59110714D01*
X107910119Y-60063095D02*
X107862500Y-60110714D01*
X107814880Y-60205952D01*
X107814880Y-60444047D01*
X107862500Y-60539285D01*
X107910119Y-60586904D01*
X108005357Y-60634523D01*
X108100595Y-60634523D01*
X108243452Y-60586904D01*
X108814880Y-60015476D01*
X108814880Y-60634523D01*
X108814880Y-61586904D02*
X108814880Y-61015476D01*
X108814880Y-61301190D02*
X107814880Y-61301190D01*
X107957738Y-61205952D01*
X108052976Y-61110714D01*
X108100595Y-61015476D01*
%TO.C,D20*%
X108814880Y-40060714D02*
X107814880Y-40060714D01*
X107814880Y-40298809D01*
X107862500Y-40441666D01*
X107957738Y-40536904D01*
X108052976Y-40584523D01*
X108243452Y-40632142D01*
X108386309Y-40632142D01*
X108576785Y-40584523D01*
X108672023Y-40536904D01*
X108767261Y-40441666D01*
X108814880Y-40298809D01*
X108814880Y-40060714D01*
X107910119Y-41013095D02*
X107862500Y-41060714D01*
X107814880Y-41155952D01*
X107814880Y-41394047D01*
X107862500Y-41489285D01*
X107910119Y-41536904D01*
X108005357Y-41584523D01*
X108100595Y-41584523D01*
X108243452Y-41536904D01*
X108814880Y-40965476D01*
X108814880Y-41584523D01*
X107814880Y-42203571D02*
X107814880Y-42298809D01*
X107862500Y-42394047D01*
X107910119Y-42441666D01*
X108005357Y-42489285D01*
X108195833Y-42536904D01*
X108433928Y-42536904D01*
X108624404Y-42489285D01*
X108719642Y-42441666D01*
X108767261Y-42394047D01*
X108814880Y-42298809D01*
X108814880Y-42203571D01*
X108767261Y-42108333D01*
X108719642Y-42060714D01*
X108624404Y-42013095D01*
X108433928Y-41965476D01*
X108195833Y-41965476D01*
X108005357Y-42013095D01*
X107910119Y-42060714D01*
X107862500Y-42108333D01*
X107814880Y-42203571D01*
%TO.C,D19*%
X108814880Y-21010714D02*
X107814880Y-21010714D01*
X107814880Y-21248809D01*
X107862500Y-21391666D01*
X107957738Y-21486904D01*
X108052976Y-21534523D01*
X108243452Y-21582142D01*
X108386309Y-21582142D01*
X108576785Y-21534523D01*
X108672023Y-21486904D01*
X108767261Y-21391666D01*
X108814880Y-21248809D01*
X108814880Y-21010714D01*
X108814880Y-22534523D02*
X108814880Y-21963095D01*
X108814880Y-22248809D02*
X107814880Y-22248809D01*
X107957738Y-22153571D01*
X108052976Y-22058333D01*
X108100595Y-21963095D01*
X108814880Y-23010714D02*
X108814880Y-23201190D01*
X108767261Y-23296428D01*
X108719642Y-23344047D01*
X108576785Y-23439285D01*
X108386309Y-23486904D01*
X108005357Y-23486904D01*
X107910119Y-23439285D01*
X107862500Y-23391666D01*
X107814880Y-23296428D01*
X107814880Y-23105952D01*
X107862500Y-23010714D01*
X107910119Y-22963095D01*
X108005357Y-22915476D01*
X108243452Y-22915476D01*
X108338690Y-22963095D01*
X108386309Y-23010714D01*
X108433928Y-23105952D01*
X108433928Y-23296428D01*
X108386309Y-23391666D01*
X108338690Y-23439285D01*
X108243452Y-23486904D01*
%TO.C,D18*%
X80239880Y-97210714D02*
X79239880Y-97210714D01*
X79239880Y-97448809D01*
X79287500Y-97591666D01*
X79382738Y-97686904D01*
X79477976Y-97734523D01*
X79668452Y-97782142D01*
X79811309Y-97782142D01*
X80001785Y-97734523D01*
X80097023Y-97686904D01*
X80192261Y-97591666D01*
X80239880Y-97448809D01*
X80239880Y-97210714D01*
X80239880Y-98734523D02*
X80239880Y-98163095D01*
X80239880Y-98448809D02*
X79239880Y-98448809D01*
X79382738Y-98353571D01*
X79477976Y-98258333D01*
X79525595Y-98163095D01*
X79668452Y-99305952D02*
X79620833Y-99210714D01*
X79573214Y-99163095D01*
X79477976Y-99115476D01*
X79430357Y-99115476D01*
X79335119Y-99163095D01*
X79287500Y-99210714D01*
X79239880Y-99305952D01*
X79239880Y-99496428D01*
X79287500Y-99591666D01*
X79335119Y-99639285D01*
X79430357Y-99686904D01*
X79477976Y-99686904D01*
X79573214Y-99639285D01*
X79620833Y-99591666D01*
X79668452Y-99496428D01*
X79668452Y-99305952D01*
X79716071Y-99210714D01*
X79763690Y-99163095D01*
X79858928Y-99115476D01*
X80049404Y-99115476D01*
X80144642Y-99163095D01*
X80192261Y-99210714D01*
X80239880Y-99305952D01*
X80239880Y-99496428D01*
X80192261Y-99591666D01*
X80144642Y-99639285D01*
X80049404Y-99686904D01*
X79858928Y-99686904D01*
X79763690Y-99639285D01*
X79716071Y-99591666D01*
X79668452Y-99496428D01*
%TO.C,D17*%
X89764880Y-78160714D02*
X88764880Y-78160714D01*
X88764880Y-78398809D01*
X88812500Y-78541666D01*
X88907738Y-78636904D01*
X89002976Y-78684523D01*
X89193452Y-78732142D01*
X89336309Y-78732142D01*
X89526785Y-78684523D01*
X89622023Y-78636904D01*
X89717261Y-78541666D01*
X89764880Y-78398809D01*
X89764880Y-78160714D01*
X89764880Y-79684523D02*
X89764880Y-79113095D01*
X89764880Y-79398809D02*
X88764880Y-79398809D01*
X88907738Y-79303571D01*
X89002976Y-79208333D01*
X89050595Y-79113095D01*
X88764880Y-80017857D02*
X88764880Y-80684523D01*
X89764880Y-80255952D01*
%TO.C,D16*%
X89764880Y-59110714D02*
X88764880Y-59110714D01*
X88764880Y-59348809D01*
X88812500Y-59491666D01*
X88907738Y-59586904D01*
X89002976Y-59634523D01*
X89193452Y-59682142D01*
X89336309Y-59682142D01*
X89526785Y-59634523D01*
X89622023Y-59586904D01*
X89717261Y-59491666D01*
X89764880Y-59348809D01*
X89764880Y-59110714D01*
X89764880Y-60634523D02*
X89764880Y-60063095D01*
X89764880Y-60348809D02*
X88764880Y-60348809D01*
X88907738Y-60253571D01*
X89002976Y-60158333D01*
X89050595Y-60063095D01*
X88764880Y-61491666D02*
X88764880Y-61301190D01*
X88812500Y-61205952D01*
X88860119Y-61158333D01*
X89002976Y-61063095D01*
X89193452Y-61015476D01*
X89574404Y-61015476D01*
X89669642Y-61063095D01*
X89717261Y-61110714D01*
X89764880Y-61205952D01*
X89764880Y-61396428D01*
X89717261Y-61491666D01*
X89669642Y-61539285D01*
X89574404Y-61586904D01*
X89336309Y-61586904D01*
X89241071Y-61539285D01*
X89193452Y-61491666D01*
X89145833Y-61396428D01*
X89145833Y-61205952D01*
X89193452Y-61110714D01*
X89241071Y-61063095D01*
X89336309Y-61015476D01*
%TO.C,D15*%
X89764880Y-40060714D02*
X88764880Y-40060714D01*
X88764880Y-40298809D01*
X88812500Y-40441666D01*
X88907738Y-40536904D01*
X89002976Y-40584523D01*
X89193452Y-40632142D01*
X89336309Y-40632142D01*
X89526785Y-40584523D01*
X89622023Y-40536904D01*
X89717261Y-40441666D01*
X89764880Y-40298809D01*
X89764880Y-40060714D01*
X89764880Y-41584523D02*
X89764880Y-41013095D01*
X89764880Y-41298809D02*
X88764880Y-41298809D01*
X88907738Y-41203571D01*
X89002976Y-41108333D01*
X89050595Y-41013095D01*
X88764880Y-42489285D02*
X88764880Y-42013095D01*
X89241071Y-41965476D01*
X89193452Y-42013095D01*
X89145833Y-42108333D01*
X89145833Y-42346428D01*
X89193452Y-42441666D01*
X89241071Y-42489285D01*
X89336309Y-42536904D01*
X89574404Y-42536904D01*
X89669642Y-42489285D01*
X89717261Y-42441666D01*
X89764880Y-42346428D01*
X89764880Y-42108333D01*
X89717261Y-42013095D01*
X89669642Y-41965476D01*
%TO.C,D14*%
X89764880Y-21010714D02*
X88764880Y-21010714D01*
X88764880Y-21248809D01*
X88812500Y-21391666D01*
X88907738Y-21486904D01*
X89002976Y-21534523D01*
X89193452Y-21582142D01*
X89336309Y-21582142D01*
X89526785Y-21534523D01*
X89622023Y-21486904D01*
X89717261Y-21391666D01*
X89764880Y-21248809D01*
X89764880Y-21010714D01*
X89764880Y-22534523D02*
X89764880Y-21963095D01*
X89764880Y-22248809D02*
X88764880Y-22248809D01*
X88907738Y-22153571D01*
X89002976Y-22058333D01*
X89050595Y-21963095D01*
X89098214Y-23391666D02*
X89764880Y-23391666D01*
X88717261Y-23153571D02*
X89431547Y-22915476D01*
X89431547Y-23534523D01*
%TO.C,D13*%
X61189880Y-97210714D02*
X60189880Y-97210714D01*
X60189880Y-97448809D01*
X60237500Y-97591666D01*
X60332738Y-97686904D01*
X60427976Y-97734523D01*
X60618452Y-97782142D01*
X60761309Y-97782142D01*
X60951785Y-97734523D01*
X61047023Y-97686904D01*
X61142261Y-97591666D01*
X61189880Y-97448809D01*
X61189880Y-97210714D01*
X61189880Y-98734523D02*
X61189880Y-98163095D01*
X61189880Y-98448809D02*
X60189880Y-98448809D01*
X60332738Y-98353571D01*
X60427976Y-98258333D01*
X60475595Y-98163095D01*
X60189880Y-99067857D02*
X60189880Y-99686904D01*
X60570833Y-99353571D01*
X60570833Y-99496428D01*
X60618452Y-99591666D01*
X60666071Y-99639285D01*
X60761309Y-99686904D01*
X60999404Y-99686904D01*
X61094642Y-99639285D01*
X61142261Y-99591666D01*
X61189880Y-99496428D01*
X61189880Y-99210714D01*
X61142261Y-99115476D01*
X61094642Y-99067857D01*
%TO.C,D12*%
X70714880Y-78160714D02*
X69714880Y-78160714D01*
X69714880Y-78398809D01*
X69762500Y-78541666D01*
X69857738Y-78636904D01*
X69952976Y-78684523D01*
X70143452Y-78732142D01*
X70286309Y-78732142D01*
X70476785Y-78684523D01*
X70572023Y-78636904D01*
X70667261Y-78541666D01*
X70714880Y-78398809D01*
X70714880Y-78160714D01*
X70714880Y-79684523D02*
X70714880Y-79113095D01*
X70714880Y-79398809D02*
X69714880Y-79398809D01*
X69857738Y-79303571D01*
X69952976Y-79208333D01*
X70000595Y-79113095D01*
X69810119Y-80065476D02*
X69762500Y-80113095D01*
X69714880Y-80208333D01*
X69714880Y-80446428D01*
X69762500Y-80541666D01*
X69810119Y-80589285D01*
X69905357Y-80636904D01*
X70000595Y-80636904D01*
X70143452Y-80589285D01*
X70714880Y-80017857D01*
X70714880Y-80636904D01*
%TO.C,D11*%
X70714880Y-59110714D02*
X69714880Y-59110714D01*
X69714880Y-59348809D01*
X69762500Y-59491666D01*
X69857738Y-59586904D01*
X69952976Y-59634523D01*
X70143452Y-59682142D01*
X70286309Y-59682142D01*
X70476785Y-59634523D01*
X70572023Y-59586904D01*
X70667261Y-59491666D01*
X70714880Y-59348809D01*
X70714880Y-59110714D01*
X70714880Y-60634523D02*
X70714880Y-60063095D01*
X70714880Y-60348809D02*
X69714880Y-60348809D01*
X69857738Y-60253571D01*
X69952976Y-60158333D01*
X70000595Y-60063095D01*
X70714880Y-61586904D02*
X70714880Y-61015476D01*
X70714880Y-61301190D02*
X69714880Y-61301190D01*
X69857738Y-61205952D01*
X69952976Y-61110714D01*
X70000595Y-61015476D01*
%TO.C,D10*%
X70714880Y-40060714D02*
X69714880Y-40060714D01*
X69714880Y-40298809D01*
X69762500Y-40441666D01*
X69857738Y-40536904D01*
X69952976Y-40584523D01*
X70143452Y-40632142D01*
X70286309Y-40632142D01*
X70476785Y-40584523D01*
X70572023Y-40536904D01*
X70667261Y-40441666D01*
X70714880Y-40298809D01*
X70714880Y-40060714D01*
X70714880Y-41584523D02*
X70714880Y-41013095D01*
X70714880Y-41298809D02*
X69714880Y-41298809D01*
X69857738Y-41203571D01*
X69952976Y-41108333D01*
X70000595Y-41013095D01*
X69714880Y-42203571D02*
X69714880Y-42298809D01*
X69762500Y-42394047D01*
X69810119Y-42441666D01*
X69905357Y-42489285D01*
X70095833Y-42536904D01*
X70333928Y-42536904D01*
X70524404Y-42489285D01*
X70619642Y-42441666D01*
X70667261Y-42394047D01*
X70714880Y-42298809D01*
X70714880Y-42203571D01*
X70667261Y-42108333D01*
X70619642Y-42060714D01*
X70524404Y-42013095D01*
X70333928Y-41965476D01*
X70095833Y-41965476D01*
X69905357Y-42013095D01*
X69810119Y-42060714D01*
X69762500Y-42108333D01*
X69714880Y-42203571D01*
%TO.C,D9*%
X70714880Y-21486904D02*
X69714880Y-21486904D01*
X69714880Y-21725000D01*
X69762500Y-21867857D01*
X69857738Y-21963095D01*
X69952976Y-22010714D01*
X70143452Y-22058333D01*
X70286309Y-22058333D01*
X70476785Y-22010714D01*
X70572023Y-21963095D01*
X70667261Y-21867857D01*
X70714880Y-21725000D01*
X70714880Y-21486904D01*
X70714880Y-22534523D02*
X70714880Y-22725000D01*
X70667261Y-22820238D01*
X70619642Y-22867857D01*
X70476785Y-22963095D01*
X70286309Y-23010714D01*
X69905357Y-23010714D01*
X69810119Y-22963095D01*
X69762500Y-22915476D01*
X69714880Y-22820238D01*
X69714880Y-22629761D01*
X69762500Y-22534523D01*
X69810119Y-22486904D01*
X69905357Y-22439285D01*
X70143452Y-22439285D01*
X70238690Y-22486904D01*
X70286309Y-22534523D01*
X70333928Y-22629761D01*
X70333928Y-22820238D01*
X70286309Y-22915476D01*
X70238690Y-22963095D01*
X70143452Y-23010714D01*
%TO.C,D8*%
X51664880Y-78636904D02*
X50664880Y-78636904D01*
X50664880Y-78875000D01*
X50712500Y-79017857D01*
X50807738Y-79113095D01*
X50902976Y-79160714D01*
X51093452Y-79208333D01*
X51236309Y-79208333D01*
X51426785Y-79160714D01*
X51522023Y-79113095D01*
X51617261Y-79017857D01*
X51664880Y-78875000D01*
X51664880Y-78636904D01*
X51093452Y-79779761D02*
X51045833Y-79684523D01*
X50998214Y-79636904D01*
X50902976Y-79589285D01*
X50855357Y-79589285D01*
X50760119Y-79636904D01*
X50712500Y-79684523D01*
X50664880Y-79779761D01*
X50664880Y-79970238D01*
X50712500Y-80065476D01*
X50760119Y-80113095D01*
X50855357Y-80160714D01*
X50902976Y-80160714D01*
X50998214Y-80113095D01*
X51045833Y-80065476D01*
X51093452Y-79970238D01*
X51093452Y-79779761D01*
X51141071Y-79684523D01*
X51188690Y-79636904D01*
X51283928Y-79589285D01*
X51474404Y-79589285D01*
X51569642Y-79636904D01*
X51617261Y-79684523D01*
X51664880Y-79779761D01*
X51664880Y-79970238D01*
X51617261Y-80065476D01*
X51569642Y-80113095D01*
X51474404Y-80160714D01*
X51283928Y-80160714D01*
X51188690Y-80113095D01*
X51141071Y-80065476D01*
X51093452Y-79970238D01*
%TO.C,D7*%
X51664880Y-59586904D02*
X50664880Y-59586904D01*
X50664880Y-59825000D01*
X50712500Y-59967857D01*
X50807738Y-60063095D01*
X50902976Y-60110714D01*
X51093452Y-60158333D01*
X51236309Y-60158333D01*
X51426785Y-60110714D01*
X51522023Y-60063095D01*
X51617261Y-59967857D01*
X51664880Y-59825000D01*
X51664880Y-59586904D01*
X50664880Y-60491666D02*
X50664880Y-61158333D01*
X51664880Y-60729761D01*
%TO.C,D6*%
X51664880Y-40536904D02*
X50664880Y-40536904D01*
X50664880Y-40775000D01*
X50712500Y-40917857D01*
X50807738Y-41013095D01*
X50902976Y-41060714D01*
X51093452Y-41108333D01*
X51236309Y-41108333D01*
X51426785Y-41060714D01*
X51522023Y-41013095D01*
X51617261Y-40917857D01*
X51664880Y-40775000D01*
X51664880Y-40536904D01*
X50664880Y-41965476D02*
X50664880Y-41775000D01*
X50712500Y-41679761D01*
X50760119Y-41632142D01*
X50902976Y-41536904D01*
X51093452Y-41489285D01*
X51474404Y-41489285D01*
X51569642Y-41536904D01*
X51617261Y-41584523D01*
X51664880Y-41679761D01*
X51664880Y-41870238D01*
X51617261Y-41965476D01*
X51569642Y-42013095D01*
X51474404Y-42060714D01*
X51236309Y-42060714D01*
X51141071Y-42013095D01*
X51093452Y-41965476D01*
X51045833Y-41870238D01*
X51045833Y-41679761D01*
X51093452Y-41584523D01*
X51141071Y-41536904D01*
X51236309Y-41489285D01*
%TO.C,D5*%
X51664880Y-21486904D02*
X50664880Y-21486904D01*
X50664880Y-21725000D01*
X50712500Y-21867857D01*
X50807738Y-21963095D01*
X50902976Y-22010714D01*
X51093452Y-22058333D01*
X51236309Y-22058333D01*
X51426785Y-22010714D01*
X51522023Y-21963095D01*
X51617261Y-21867857D01*
X51664880Y-21725000D01*
X51664880Y-21486904D01*
X50664880Y-22963095D02*
X50664880Y-22486904D01*
X51141071Y-22439285D01*
X51093452Y-22486904D01*
X51045833Y-22582142D01*
X51045833Y-22820238D01*
X51093452Y-22915476D01*
X51141071Y-22963095D01*
X51236309Y-23010714D01*
X51474404Y-23010714D01*
X51569642Y-22963095D01*
X51617261Y-22915476D01*
X51664880Y-22820238D01*
X51664880Y-22582142D01*
X51617261Y-22486904D01*
X51569642Y-22439285D01*
%TO.C,D4*%
X32614880Y-78636904D02*
X31614880Y-78636904D01*
X31614880Y-78875000D01*
X31662500Y-79017857D01*
X31757738Y-79113095D01*
X31852976Y-79160714D01*
X32043452Y-79208333D01*
X32186309Y-79208333D01*
X32376785Y-79160714D01*
X32472023Y-79113095D01*
X32567261Y-79017857D01*
X32614880Y-78875000D01*
X32614880Y-78636904D01*
X31948214Y-80065476D02*
X32614880Y-80065476D01*
X31567261Y-79827380D02*
X32281547Y-79589285D01*
X32281547Y-80208333D01*
%TO.C,D3*%
X32614880Y-59586904D02*
X31614880Y-59586904D01*
X31614880Y-59825000D01*
X31662500Y-59967857D01*
X31757738Y-60063095D01*
X31852976Y-60110714D01*
X32043452Y-60158333D01*
X32186309Y-60158333D01*
X32376785Y-60110714D01*
X32472023Y-60063095D01*
X32567261Y-59967857D01*
X32614880Y-59825000D01*
X32614880Y-59586904D01*
X31614880Y-60491666D02*
X31614880Y-61110714D01*
X31995833Y-60777380D01*
X31995833Y-60920238D01*
X32043452Y-61015476D01*
X32091071Y-61063095D01*
X32186309Y-61110714D01*
X32424404Y-61110714D01*
X32519642Y-61063095D01*
X32567261Y-61015476D01*
X32614880Y-60920238D01*
X32614880Y-60634523D01*
X32567261Y-60539285D01*
X32519642Y-60491666D01*
%TO.C,D2*%
X32614880Y-40536904D02*
X31614880Y-40536904D01*
X31614880Y-40775000D01*
X31662500Y-40917857D01*
X31757738Y-41013095D01*
X31852976Y-41060714D01*
X32043452Y-41108333D01*
X32186309Y-41108333D01*
X32376785Y-41060714D01*
X32472023Y-41013095D01*
X32567261Y-40917857D01*
X32614880Y-40775000D01*
X32614880Y-40536904D01*
X31710119Y-41489285D02*
X31662500Y-41536904D01*
X31614880Y-41632142D01*
X31614880Y-41870238D01*
X31662500Y-41965476D01*
X31710119Y-42013095D01*
X31805357Y-42060714D01*
X31900595Y-42060714D01*
X32043452Y-42013095D01*
X32614880Y-41441666D01*
X32614880Y-42060714D01*
%TO.C,D1*%
X32614880Y-21486904D02*
X31614880Y-21486904D01*
X31614880Y-21725000D01*
X31662500Y-21867857D01*
X31757738Y-21963095D01*
X31852976Y-22010714D01*
X32043452Y-22058333D01*
X32186309Y-22058333D01*
X32376785Y-22010714D01*
X32472023Y-21963095D01*
X32567261Y-21867857D01*
X32614880Y-21725000D01*
X32614880Y-21486904D01*
X32614880Y-23010714D02*
X32614880Y-22439285D01*
X32614880Y-22725000D02*
X31614880Y-22725000D01*
X31757738Y-22629761D01*
X31852976Y-22534523D01*
X31900595Y-22439285D01*
%TO.C,C7*%
X180160142Y-94448333D02*
X180207761Y-94400714D01*
X180255380Y-94257857D01*
X180255380Y-94162619D01*
X180207761Y-94019761D01*
X180112523Y-93924523D01*
X180017285Y-93876904D01*
X179826809Y-93829285D01*
X179683952Y-93829285D01*
X179493476Y-93876904D01*
X179398238Y-93924523D01*
X179303000Y-94019761D01*
X179255380Y-94162619D01*
X179255380Y-94257857D01*
X179303000Y-94400714D01*
X179350619Y-94448333D01*
X179255380Y-94781666D02*
X179255380Y-95448333D01*
X180255380Y-95019761D01*
%TO.C,C6*%
X189269666Y-88085142D02*
X189317285Y-88132761D01*
X189460142Y-88180380D01*
X189555380Y-88180380D01*
X189698238Y-88132761D01*
X189793476Y-88037523D01*
X189841095Y-87942285D01*
X189888714Y-87751809D01*
X189888714Y-87608952D01*
X189841095Y-87418476D01*
X189793476Y-87323238D01*
X189698238Y-87228000D01*
X189555380Y-87180380D01*
X189460142Y-87180380D01*
X189317285Y-87228000D01*
X189269666Y-87275619D01*
X188412523Y-87180380D02*
X188603000Y-87180380D01*
X188698238Y-87228000D01*
X188745857Y-87275619D01*
X188841095Y-87418476D01*
X188888714Y-87608952D01*
X188888714Y-87989904D01*
X188841095Y-88085142D01*
X188793476Y-88132761D01*
X188698238Y-88180380D01*
X188507761Y-88180380D01*
X188412523Y-88132761D01*
X188364904Y-88085142D01*
X188317285Y-87989904D01*
X188317285Y-87751809D01*
X188364904Y-87656571D01*
X188412523Y-87608952D01*
X188507761Y-87561333D01*
X188698238Y-87561333D01*
X188793476Y-87608952D01*
X188841095Y-87656571D01*
X188888714Y-87751809D01*
%TO.C,C5*%
X199048666Y-94239142D02*
X199096285Y-94286761D01*
X199239142Y-94334380D01*
X199334380Y-94334380D01*
X199477238Y-94286761D01*
X199572476Y-94191523D01*
X199620095Y-94096285D01*
X199667714Y-93905809D01*
X199667714Y-93762952D01*
X199620095Y-93572476D01*
X199572476Y-93477238D01*
X199477238Y-93382000D01*
X199334380Y-93334380D01*
X199239142Y-93334380D01*
X199096285Y-93382000D01*
X199048666Y-93429619D01*
X198143904Y-93334380D02*
X198620095Y-93334380D01*
X198667714Y-93810571D01*
X198620095Y-93762952D01*
X198524857Y-93715333D01*
X198286761Y-93715333D01*
X198191523Y-93762952D01*
X198143904Y-93810571D01*
X198096285Y-93905809D01*
X198096285Y-94143904D01*
X198143904Y-94239142D01*
X198191523Y-94286761D01*
X198286761Y-94334380D01*
X198524857Y-94334380D01*
X198620095Y-94286761D01*
X198667714Y-94239142D01*
%TO.C,C4*%
X199556666Y-93546142D02*
X199604285Y-93593761D01*
X199747142Y-93641380D01*
X199842380Y-93641380D01*
X199985238Y-93593761D01*
X200080476Y-93498523D01*
X200128095Y-93403285D01*
X200175714Y-93212809D01*
X200175714Y-93069952D01*
X200128095Y-92879476D01*
X200080476Y-92784238D01*
X199985238Y-92689000D01*
X199842380Y-92641380D01*
X199747142Y-92641380D01*
X199604285Y-92689000D01*
X199556666Y-92736619D01*
X198699523Y-92974714D02*
X198699523Y-93641380D01*
X198937619Y-92593761D02*
X199175714Y-93308047D01*
X198556666Y-93308047D01*
%TO.C,C3*%
X199429666Y-104780142D02*
X199477285Y-104827761D01*
X199620142Y-104875380D01*
X199715380Y-104875380D01*
X199858238Y-104827761D01*
X199953476Y-104732523D01*
X200001095Y-104637285D01*
X200048714Y-104446809D01*
X200048714Y-104303952D01*
X200001095Y-104113476D01*
X199953476Y-104018238D01*
X199858238Y-103923000D01*
X199715380Y-103875380D01*
X199620142Y-103875380D01*
X199477285Y-103923000D01*
X199429666Y-103970619D01*
X199096333Y-103875380D02*
X198477285Y-103875380D01*
X198810619Y-104256333D01*
X198667761Y-104256333D01*
X198572523Y-104303952D01*
X198524904Y-104351571D01*
X198477285Y-104446809D01*
X198477285Y-104684904D01*
X198524904Y-104780142D01*
X198572523Y-104827761D01*
X198667761Y-104875380D01*
X198953476Y-104875380D01*
X199048714Y-104827761D01*
X199096333Y-104780142D01*
%TO.C,C2*%
X181141666Y-101420142D02*
X181189285Y-101467761D01*
X181332142Y-101515380D01*
X181427380Y-101515380D01*
X181570238Y-101467761D01*
X181665476Y-101372523D01*
X181713095Y-101277285D01*
X181760714Y-101086809D01*
X181760714Y-100943952D01*
X181713095Y-100753476D01*
X181665476Y-100658238D01*
X181570238Y-100563000D01*
X181427380Y-100515380D01*
X181332142Y-100515380D01*
X181189285Y-100563000D01*
X181141666Y-100610619D01*
X180760714Y-100610619D02*
X180713095Y-100563000D01*
X180617857Y-100515380D01*
X180379761Y-100515380D01*
X180284523Y-100563000D01*
X180236904Y-100610619D01*
X180189285Y-100705857D01*
X180189285Y-100801095D01*
X180236904Y-100943952D01*
X180808333Y-101515380D01*
X180189285Y-101515380D01*
%TO.C,C1*%
X199048666Y-107320142D02*
X199096285Y-107367761D01*
X199239142Y-107415380D01*
X199334380Y-107415380D01*
X199477238Y-107367761D01*
X199572476Y-107272523D01*
X199620095Y-107177285D01*
X199667714Y-106986809D01*
X199667714Y-106843952D01*
X199620095Y-106653476D01*
X199572476Y-106558238D01*
X199477238Y-106463000D01*
X199334380Y-106415380D01*
X199239142Y-106415380D01*
X199096285Y-106463000D01*
X199048666Y-106510619D01*
X198096285Y-107415380D02*
X198667714Y-107415380D01*
X198382000Y-107415380D02*
X198382000Y-106415380D01*
X198477238Y-106558238D01*
X198572476Y-106653476D01*
X198667714Y-106701095D01*
%TD*%
%LPC*%
D12*
%TO.C,Y1*%
X200367000Y-100287000D03*
X200367000Y-98087000D03*
X198667000Y-98087000D03*
X198667000Y-100287000D03*
%TD*%
D13*
%TO.C,USB1*%
X201604000Y-26228000D03*
X201604000Y-33528000D03*
X197104000Y-33528000D03*
X197104000Y-26228000D03*
D14*
X197104000Y-28278000D03*
X197104000Y-29078000D03*
X197104000Y-29878000D03*
X197104000Y-30678000D03*
X197104000Y-31478000D03*
%TD*%
D15*
%TO.C,U1*%
X183942750Y-94202750D03*
X183942750Y-95002750D03*
X183942750Y-95802750D03*
X183942750Y-96602750D03*
X183942750Y-97402750D03*
X183942750Y-98202750D03*
X183942750Y-99002750D03*
X183942750Y-99802750D03*
X183942750Y-100602750D03*
X183942750Y-101402750D03*
X183942750Y-102202750D03*
D16*
X185642750Y-103902750D03*
X186442750Y-103902750D03*
X187242750Y-103902750D03*
X188042750Y-103902750D03*
X188842750Y-103902750D03*
X189642750Y-103902750D03*
X190442750Y-103902750D03*
X191242750Y-103902750D03*
X192042750Y-103902750D03*
X192842750Y-103902750D03*
X193642750Y-103902750D03*
D15*
X195342750Y-102202750D03*
X195342750Y-101402750D03*
X195342750Y-100602750D03*
X195342750Y-99802750D03*
X195342750Y-99002750D03*
X195342750Y-98202750D03*
X195342750Y-97402750D03*
X195342750Y-96602750D03*
X195342750Y-95802750D03*
X195342750Y-95002750D03*
X195342750Y-94202750D03*
D16*
X193642750Y-92502750D03*
X192842750Y-92502750D03*
X192042750Y-92502750D03*
X191242750Y-92502750D03*
X190442750Y-92502750D03*
X189642750Y-92502750D03*
X188842750Y-92502750D03*
X188042750Y-92502750D03*
X187242750Y-92502750D03*
X186442750Y-92502750D03*
X185642750Y-92502750D03*
%TD*%
D17*
%TO.C,SW1*%
X194766000Y-84129000D03*
X200966000Y-87829000D03*
X194766000Y-87829000D03*
X200966000Y-84129000D03*
%TD*%
%TO.C,R4*%
G36*
G01*
X177730998Y-103524000D02*
X178631002Y-103524000D01*
G75*
G02*
X178881000Y-103773998I0J-249998D01*
G01*
X178881000Y-104299002D01*
G75*
G02*
X178631002Y-104549000I-249998J0D01*
G01*
X177730998Y-104549000D01*
G75*
G02*
X177481000Y-104299002I0J249998D01*
G01*
X177481000Y-103773998D01*
G75*
G02*
X177730998Y-103524000I249998J0D01*
G01*
G37*
G36*
G01*
X177730998Y-101699000D02*
X178631002Y-101699000D01*
G75*
G02*
X178881000Y-101948998I0J-249998D01*
G01*
X178881000Y-102474002D01*
G75*
G02*
X178631002Y-102724000I-249998J0D01*
G01*
X177730998Y-102724000D01*
G75*
G02*
X177481000Y-102474002I0J249998D01*
G01*
X177481000Y-101948998D01*
G75*
G02*
X177730998Y-101699000I249998J0D01*
G01*
G37*
%TD*%
%TO.C,R3*%
G36*
G01*
X195091000Y-90493002D02*
X195091000Y-89592998D01*
G75*
G02*
X195340998Y-89343000I249998J0D01*
G01*
X195866002Y-89343000D01*
G75*
G02*
X196116000Y-89592998I0J-249998D01*
G01*
X196116000Y-90493002D01*
G75*
G02*
X195866002Y-90743000I-249998J0D01*
G01*
X195340998Y-90743000D01*
G75*
G02*
X195091000Y-90493002I0J249998D01*
G01*
G37*
G36*
G01*
X193266000Y-90493002D02*
X193266000Y-89592998D01*
G75*
G02*
X193515998Y-89343000I249998J0D01*
G01*
X194041002Y-89343000D01*
G75*
G02*
X194291000Y-89592998I0J-249998D01*
G01*
X194291000Y-90493002D01*
G75*
G02*
X194041002Y-90743000I-249998J0D01*
G01*
X193515998Y-90743000D01*
G75*
G02*
X193266000Y-90493002I0J249998D01*
G01*
G37*
%TD*%
%TO.C,R2*%
G36*
G01*
X186632002Y-88246000D02*
X185731998Y-88246000D01*
G75*
G02*
X185482000Y-87996002I0J249998D01*
G01*
X185482000Y-87470998D01*
G75*
G02*
X185731998Y-87221000I249998J0D01*
G01*
X186632002Y-87221000D01*
G75*
G02*
X186882000Y-87470998I0J-249998D01*
G01*
X186882000Y-87996002D01*
G75*
G02*
X186632002Y-88246000I-249998J0D01*
G01*
G37*
G36*
G01*
X186632002Y-90071000D02*
X185731998Y-90071000D01*
G75*
G02*
X185482000Y-89821002I0J249998D01*
G01*
X185482000Y-89295998D01*
G75*
G02*
X185731998Y-89046000I249998J0D01*
G01*
X186632002Y-89046000D01*
G75*
G02*
X186882000Y-89295998I0J-249998D01*
G01*
X186882000Y-89821002D01*
G75*
G02*
X186632002Y-90071000I-249998J0D01*
G01*
G37*
%TD*%
%TO.C,R1*%
G36*
G01*
X184346002Y-88246000D02*
X183445998Y-88246000D01*
G75*
G02*
X183196000Y-87996002I0J249998D01*
G01*
X183196000Y-87470998D01*
G75*
G02*
X183445998Y-87221000I249998J0D01*
G01*
X184346002Y-87221000D01*
G75*
G02*
X184596000Y-87470998I0J-249998D01*
G01*
X184596000Y-87996002D01*
G75*
G02*
X184346002Y-88246000I-249998J0D01*
G01*
G37*
G36*
G01*
X184346002Y-90071000D02*
X183445998Y-90071000D01*
G75*
G02*
X183196000Y-89821002I0J249998D01*
G01*
X183196000Y-89295998D01*
G75*
G02*
X183445998Y-89046000I249998J0D01*
G01*
X184346002Y-89046000D01*
G75*
G02*
X184596000Y-89295998I0J-249998D01*
G01*
X184596000Y-89821002D01*
G75*
G02*
X184346002Y-90071000I-249998J0D01*
G01*
G37*
%TD*%
D18*
%TO.C,MX46*%
X198755000Y-79375000D03*
X188595000Y-79375000D03*
D19*
X191175000Y-75375000D03*
D20*
X193675000Y-79375000D03*
G36*
G01*
X189113688Y-77672350D02*
X189113683Y-77672345D01*
G75*
G02*
X189027655Y-76083683I751317J837345D01*
G01*
X190337657Y-74623683D01*
G75*
G02*
X191926319Y-74537655I837345J-751317D01*
G01*
X191926319Y-74537655D01*
G75*
G02*
X192012347Y-76126317I-751317J-837345D01*
G01*
X190702345Y-77586317D01*
G75*
G02*
X189113683Y-77672345I-837345J751317D01*
G01*
G37*
D19*
X196215000Y-74295000D03*
G36*
G01*
X196098483Y-75997395D02*
X196097597Y-75997334D01*
G75*
G02*
X195052666Y-74797597I77403J1122334D01*
G01*
X195092666Y-74217597D01*
G75*
G02*
X196292403Y-73172666I1122334J-77403D01*
G01*
X196292403Y-73172666D01*
G75*
G02*
X197337334Y-74372403I-77403J-1122334D01*
G01*
X197297334Y-74952403D01*
G75*
G02*
X196097597Y-75997334I-1122334J77403D01*
G01*
G37*
%TD*%
D18*
%TO.C,MX45*%
X198755000Y-60325000D03*
X188595000Y-60325000D03*
D19*
X191175000Y-56325000D03*
D20*
X193675000Y-60325000D03*
G36*
G01*
X189113688Y-58622350D02*
X189113683Y-58622345D01*
G75*
G02*
X189027655Y-57033683I751317J837345D01*
G01*
X190337657Y-55573683D01*
G75*
G02*
X191926319Y-55487655I837345J-751317D01*
G01*
X191926319Y-55487655D01*
G75*
G02*
X192012347Y-57076317I-751317J-837345D01*
G01*
X190702345Y-58536317D01*
G75*
G02*
X189113683Y-58622345I-837345J751317D01*
G01*
G37*
D19*
X196215000Y-55245000D03*
G36*
G01*
X196098483Y-56947395D02*
X196097597Y-56947334D01*
G75*
G02*
X195052666Y-55747597I77403J1122334D01*
G01*
X195092666Y-55167597D01*
G75*
G02*
X196292403Y-54122666I1122334J-77403D01*
G01*
X196292403Y-54122666D01*
G75*
G02*
X197337334Y-55322403I-77403J-1122334D01*
G01*
X197297334Y-55902403D01*
G75*
G02*
X196097597Y-56947334I-1122334J77403D01*
G01*
G37*
%TD*%
D18*
%TO.C,MX44*%
X198755000Y-41275000D03*
X188595000Y-41275000D03*
D19*
X191175000Y-37275000D03*
D20*
X193675000Y-41275000D03*
G36*
G01*
X189113688Y-39572350D02*
X189113683Y-39572345D01*
G75*
G02*
X189027655Y-37983683I751317J837345D01*
G01*
X190337657Y-36523683D01*
G75*
G02*
X191926319Y-36437655I837345J-751317D01*
G01*
X191926319Y-36437655D01*
G75*
G02*
X192012347Y-38026317I-751317J-837345D01*
G01*
X190702345Y-39486317D01*
G75*
G02*
X189113683Y-39572345I-837345J751317D01*
G01*
G37*
D19*
X196215000Y-36195000D03*
G36*
G01*
X196098483Y-37897395D02*
X196097597Y-37897334D01*
G75*
G02*
X195052666Y-36697597I77403J1122334D01*
G01*
X195092666Y-36117597D01*
G75*
G02*
X196292403Y-35072666I1122334J-77403D01*
G01*
X196292403Y-35072666D01*
G75*
G02*
X197337334Y-36272403I-77403J-1122334D01*
G01*
X197297334Y-36852403D01*
G75*
G02*
X196097597Y-37897334I-1122334J77403D01*
G01*
G37*
%TD*%
D18*
%TO.C,MX43*%
X198755000Y-22225000D03*
X188595000Y-22225000D03*
D19*
X191175000Y-18225000D03*
D20*
X193675000Y-22225000D03*
G36*
G01*
X189113688Y-20522350D02*
X189113683Y-20522345D01*
G75*
G02*
X189027655Y-18933683I751317J837345D01*
G01*
X190337657Y-17473683D01*
G75*
G02*
X191926319Y-17387655I837345J-751317D01*
G01*
X191926319Y-17387655D01*
G75*
G02*
X192012347Y-18976317I-751317J-837345D01*
G01*
X190702345Y-20436317D01*
G75*
G02*
X189113683Y-20522345I-837345J751317D01*
G01*
G37*
D19*
X196215000Y-17145000D03*
G36*
G01*
X196098483Y-18847395D02*
X196097597Y-18847334D01*
G75*
G02*
X195052666Y-17647597I77403J1122334D01*
G01*
X195092666Y-17067597D01*
G75*
G02*
X196292403Y-16022666I1122334J-77403D01*
G01*
X196292403Y-16022666D01*
G75*
G02*
X197337334Y-17222403I-77403J-1122334D01*
G01*
X197297334Y-17802403D01*
G75*
G02*
X196097597Y-18847334I-1122334J77403D01*
G01*
G37*
%TD*%
D18*
%TO.C,MX42*%
X179705000Y-79375000D03*
X169545000Y-79375000D03*
D19*
X172125000Y-75375000D03*
D20*
X174625000Y-79375000D03*
G36*
G01*
X170063688Y-77672350D02*
X170063683Y-77672345D01*
G75*
G02*
X169977655Y-76083683I751317J837345D01*
G01*
X171287657Y-74623683D01*
G75*
G02*
X172876319Y-74537655I837345J-751317D01*
G01*
X172876319Y-74537655D01*
G75*
G02*
X172962347Y-76126317I-751317J-837345D01*
G01*
X171652345Y-77586317D01*
G75*
G02*
X170063683Y-77672345I-837345J751317D01*
G01*
G37*
D19*
X177165000Y-74295000D03*
G36*
G01*
X177048483Y-75997395D02*
X177047597Y-75997334D01*
G75*
G02*
X176002666Y-74797597I77403J1122334D01*
G01*
X176042666Y-74217597D01*
G75*
G02*
X177242403Y-73172666I1122334J-77403D01*
G01*
X177242403Y-73172666D01*
G75*
G02*
X178287334Y-74372403I-77403J-1122334D01*
G01*
X178247334Y-74952403D01*
G75*
G02*
X177047597Y-75997334I-1122334J77403D01*
G01*
G37*
%TD*%
D18*
%TO.C,MX41*%
X179705000Y-60325000D03*
X169545000Y-60325000D03*
D19*
X172125000Y-56325000D03*
D20*
X174625000Y-60325000D03*
G36*
G01*
X170063688Y-58622350D02*
X170063683Y-58622345D01*
G75*
G02*
X169977655Y-57033683I751317J837345D01*
G01*
X171287657Y-55573683D01*
G75*
G02*
X172876319Y-55487655I837345J-751317D01*
G01*
X172876319Y-55487655D01*
G75*
G02*
X172962347Y-57076317I-751317J-837345D01*
G01*
X171652345Y-58536317D01*
G75*
G02*
X170063683Y-58622345I-837345J751317D01*
G01*
G37*
D19*
X177165000Y-55245000D03*
G36*
G01*
X177048483Y-56947395D02*
X177047597Y-56947334D01*
G75*
G02*
X176002666Y-55747597I77403J1122334D01*
G01*
X176042666Y-55167597D01*
G75*
G02*
X177242403Y-54122666I1122334J-77403D01*
G01*
X177242403Y-54122666D01*
G75*
G02*
X178287334Y-55322403I-77403J-1122334D01*
G01*
X178247334Y-55902403D01*
G75*
G02*
X177047597Y-56947334I-1122334J77403D01*
G01*
G37*
%TD*%
D18*
%TO.C,MX40*%
X179705000Y-41275000D03*
X169545000Y-41275000D03*
D19*
X172125000Y-37275000D03*
D20*
X174625000Y-41275000D03*
G36*
G01*
X170063688Y-39572350D02*
X170063683Y-39572345D01*
G75*
G02*
X169977655Y-37983683I751317J837345D01*
G01*
X171287657Y-36523683D01*
G75*
G02*
X172876319Y-36437655I837345J-751317D01*
G01*
X172876319Y-36437655D01*
G75*
G02*
X172962347Y-38026317I-751317J-837345D01*
G01*
X171652345Y-39486317D01*
G75*
G02*
X170063683Y-39572345I-837345J751317D01*
G01*
G37*
D19*
X177165000Y-36195000D03*
G36*
G01*
X177048483Y-37897395D02*
X177047597Y-37897334D01*
G75*
G02*
X176002666Y-36697597I77403J1122334D01*
G01*
X176042666Y-36117597D01*
G75*
G02*
X177242403Y-35072666I1122334J-77403D01*
G01*
X177242403Y-35072666D01*
G75*
G02*
X178287334Y-36272403I-77403J-1122334D01*
G01*
X178247334Y-36852403D01*
G75*
G02*
X177047597Y-37897334I-1122334J77403D01*
G01*
G37*
%TD*%
D18*
%TO.C,MX39*%
X179705000Y-22225000D03*
X169545000Y-22225000D03*
D19*
X172125000Y-18225000D03*
D20*
X174625000Y-22225000D03*
G36*
G01*
X170063688Y-20522350D02*
X170063683Y-20522345D01*
G75*
G02*
X169977655Y-18933683I751317J837345D01*
G01*
X171287657Y-17473683D01*
G75*
G02*
X172876319Y-17387655I837345J-751317D01*
G01*
X172876319Y-17387655D01*
G75*
G02*
X172962347Y-18976317I-751317J-837345D01*
G01*
X171652345Y-20436317D01*
G75*
G02*
X170063683Y-20522345I-837345J751317D01*
G01*
G37*
D19*
X177165000Y-17145000D03*
G36*
G01*
X177048483Y-18847395D02*
X177047597Y-18847334D01*
G75*
G02*
X176002666Y-17647597I77403J1122334D01*
G01*
X176042666Y-17067597D01*
G75*
G02*
X177242403Y-16022666I1122334J-77403D01*
G01*
X177242403Y-16022666D01*
G75*
G02*
X178287334Y-17222403I-77403J-1122334D01*
G01*
X178247334Y-17802403D01*
G75*
G02*
X177047597Y-18847334I-1122334J77403D01*
G01*
G37*
%TD*%
D18*
%TO.C,MX38*%
X170180000Y-98425000D03*
X160020000Y-98425000D03*
D19*
X162600000Y-94425000D03*
D20*
X165100000Y-98425000D03*
G36*
G01*
X160538688Y-96722350D02*
X160538683Y-96722345D01*
G75*
G02*
X160452655Y-95133683I751317J837345D01*
G01*
X161762657Y-93673683D01*
G75*
G02*
X163351319Y-93587655I837345J-751317D01*
G01*
X163351319Y-93587655D01*
G75*
G02*
X163437347Y-95176317I-751317J-837345D01*
G01*
X162127345Y-96636317D01*
G75*
G02*
X160538683Y-96722345I-837345J751317D01*
G01*
G37*
D19*
X167640000Y-93345000D03*
G36*
G01*
X167523483Y-95047395D02*
X167522597Y-95047334D01*
G75*
G02*
X166477666Y-93847597I77403J1122334D01*
G01*
X166517666Y-93267597D01*
G75*
G02*
X167717403Y-92222666I1122334J-77403D01*
G01*
X167717403Y-92222666D01*
G75*
G02*
X168762334Y-93422403I-77403J-1122334D01*
G01*
X168722334Y-94002403D01*
G75*
G02*
X167522597Y-95047334I-1122334J77403D01*
G01*
G37*
%TD*%
D18*
%TO.C,MX37*%
X160655000Y-79375000D03*
X150495000Y-79375000D03*
D19*
X153075000Y-75375000D03*
D20*
X155575000Y-79375000D03*
G36*
G01*
X151013688Y-77672350D02*
X151013683Y-77672345D01*
G75*
G02*
X150927655Y-76083683I751317J837345D01*
G01*
X152237657Y-74623683D01*
G75*
G02*
X153826319Y-74537655I837345J-751317D01*
G01*
X153826319Y-74537655D01*
G75*
G02*
X153912347Y-76126317I-751317J-837345D01*
G01*
X152602345Y-77586317D01*
G75*
G02*
X151013683Y-77672345I-837345J751317D01*
G01*
G37*
D19*
X158115000Y-74295000D03*
G36*
G01*
X157998483Y-75997395D02*
X157997597Y-75997334D01*
G75*
G02*
X156952666Y-74797597I77403J1122334D01*
G01*
X156992666Y-74217597D01*
G75*
G02*
X158192403Y-73172666I1122334J-77403D01*
G01*
X158192403Y-73172666D01*
G75*
G02*
X159237334Y-74372403I-77403J-1122334D01*
G01*
X159197334Y-74952403D01*
G75*
G02*
X157997597Y-75997334I-1122334J77403D01*
G01*
G37*
%TD*%
D18*
%TO.C,MX36*%
X160655000Y-60325000D03*
X150495000Y-60325000D03*
D19*
X153075000Y-56325000D03*
D20*
X155575000Y-60325000D03*
G36*
G01*
X151013688Y-58622350D02*
X151013683Y-58622345D01*
G75*
G02*
X150927655Y-57033683I751317J837345D01*
G01*
X152237657Y-55573683D01*
G75*
G02*
X153826319Y-55487655I837345J-751317D01*
G01*
X153826319Y-55487655D01*
G75*
G02*
X153912347Y-57076317I-751317J-837345D01*
G01*
X152602345Y-58536317D01*
G75*
G02*
X151013683Y-58622345I-837345J751317D01*
G01*
G37*
D19*
X158115000Y-55245000D03*
G36*
G01*
X157998483Y-56947395D02*
X157997597Y-56947334D01*
G75*
G02*
X156952666Y-55747597I77403J1122334D01*
G01*
X156992666Y-55167597D01*
G75*
G02*
X158192403Y-54122666I1122334J-77403D01*
G01*
X158192403Y-54122666D01*
G75*
G02*
X159237334Y-55322403I-77403J-1122334D01*
G01*
X159197334Y-55902403D01*
G75*
G02*
X157997597Y-56947334I-1122334J77403D01*
G01*
G37*
%TD*%
D18*
%TO.C,MX35*%
X160655000Y-41275000D03*
X150495000Y-41275000D03*
D19*
X153075000Y-37275000D03*
D20*
X155575000Y-41275000D03*
G36*
G01*
X151013688Y-39572350D02*
X151013683Y-39572345D01*
G75*
G02*
X150927655Y-37983683I751317J837345D01*
G01*
X152237657Y-36523683D01*
G75*
G02*
X153826319Y-36437655I837345J-751317D01*
G01*
X153826319Y-36437655D01*
G75*
G02*
X153912347Y-38026317I-751317J-837345D01*
G01*
X152602345Y-39486317D01*
G75*
G02*
X151013683Y-39572345I-837345J751317D01*
G01*
G37*
D19*
X158115000Y-36195000D03*
G36*
G01*
X157998483Y-37897395D02*
X157997597Y-37897334D01*
G75*
G02*
X156952666Y-36697597I77403J1122334D01*
G01*
X156992666Y-36117597D01*
G75*
G02*
X158192403Y-35072666I1122334J-77403D01*
G01*
X158192403Y-35072666D01*
G75*
G02*
X159237334Y-36272403I-77403J-1122334D01*
G01*
X159197334Y-36852403D01*
G75*
G02*
X157997597Y-37897334I-1122334J77403D01*
G01*
G37*
%TD*%
D18*
%TO.C,MX34*%
X160655000Y-22225000D03*
X150495000Y-22225000D03*
D19*
X153075000Y-18225000D03*
D20*
X155575000Y-22225000D03*
G36*
G01*
X151013688Y-20522350D02*
X151013683Y-20522345D01*
G75*
G02*
X150927655Y-18933683I751317J837345D01*
G01*
X152237657Y-17473683D01*
G75*
G02*
X153826319Y-17387655I837345J-751317D01*
G01*
X153826319Y-17387655D01*
G75*
G02*
X153912347Y-18976317I-751317J-837345D01*
G01*
X152602345Y-20436317D01*
G75*
G02*
X151013683Y-20522345I-837345J751317D01*
G01*
G37*
D19*
X158115000Y-17145000D03*
G36*
G01*
X157998483Y-18847395D02*
X157997597Y-18847334D01*
G75*
G02*
X156952666Y-17647597I77403J1122334D01*
G01*
X156992666Y-17067597D01*
G75*
G02*
X158192403Y-16022666I1122334J-77403D01*
G01*
X158192403Y-16022666D01*
G75*
G02*
X159237334Y-17222403I-77403J-1122334D01*
G01*
X159197334Y-17802403D01*
G75*
G02*
X157997597Y-18847334I-1122334J77403D01*
G01*
G37*
%TD*%
D18*
%TO.C,MX33*%
X151130000Y-98425000D03*
X140970000Y-98425000D03*
D19*
X143550000Y-94425000D03*
D20*
X146050000Y-98425000D03*
G36*
G01*
X141488688Y-96722350D02*
X141488683Y-96722345D01*
G75*
G02*
X141402655Y-95133683I751317J837345D01*
G01*
X142712657Y-93673683D01*
G75*
G02*
X144301319Y-93587655I837345J-751317D01*
G01*
X144301319Y-93587655D01*
G75*
G02*
X144387347Y-95176317I-751317J-837345D01*
G01*
X143077345Y-96636317D01*
G75*
G02*
X141488683Y-96722345I-837345J751317D01*
G01*
G37*
D19*
X148590000Y-93345000D03*
G36*
G01*
X148473483Y-95047395D02*
X148472597Y-95047334D01*
G75*
G02*
X147427666Y-93847597I77403J1122334D01*
G01*
X147467666Y-93267597D01*
G75*
G02*
X148667403Y-92222666I1122334J-77403D01*
G01*
X148667403Y-92222666D01*
G75*
G02*
X149712334Y-93422403I-77403J-1122334D01*
G01*
X149672334Y-94002403D01*
G75*
G02*
X148472597Y-95047334I-1122334J77403D01*
G01*
G37*
%TD*%
D18*
%TO.C,MX32*%
X141605000Y-79375000D03*
X131445000Y-79375000D03*
D19*
X134025000Y-75375000D03*
D20*
X136525000Y-79375000D03*
G36*
G01*
X131963688Y-77672350D02*
X131963683Y-77672345D01*
G75*
G02*
X131877655Y-76083683I751317J837345D01*
G01*
X133187657Y-74623683D01*
G75*
G02*
X134776319Y-74537655I837345J-751317D01*
G01*
X134776319Y-74537655D01*
G75*
G02*
X134862347Y-76126317I-751317J-837345D01*
G01*
X133552345Y-77586317D01*
G75*
G02*
X131963683Y-77672345I-837345J751317D01*
G01*
G37*
D19*
X139065000Y-74295000D03*
G36*
G01*
X138948483Y-75997395D02*
X138947597Y-75997334D01*
G75*
G02*
X137902666Y-74797597I77403J1122334D01*
G01*
X137942666Y-74217597D01*
G75*
G02*
X139142403Y-73172666I1122334J-77403D01*
G01*
X139142403Y-73172666D01*
G75*
G02*
X140187334Y-74372403I-77403J-1122334D01*
G01*
X140147334Y-74952403D01*
G75*
G02*
X138947597Y-75997334I-1122334J77403D01*
G01*
G37*
%TD*%
D18*
%TO.C,MX31*%
X141605000Y-60325000D03*
X131445000Y-60325000D03*
D19*
X134025000Y-56325000D03*
D20*
X136525000Y-60325000D03*
G36*
G01*
X131963688Y-58622350D02*
X131963683Y-58622345D01*
G75*
G02*
X131877655Y-57033683I751317J837345D01*
G01*
X133187657Y-55573683D01*
G75*
G02*
X134776319Y-55487655I837345J-751317D01*
G01*
X134776319Y-55487655D01*
G75*
G02*
X134862347Y-57076317I-751317J-837345D01*
G01*
X133552345Y-58536317D01*
G75*
G02*
X131963683Y-58622345I-837345J751317D01*
G01*
G37*
D19*
X139065000Y-55245000D03*
G36*
G01*
X138948483Y-56947395D02*
X138947597Y-56947334D01*
G75*
G02*
X137902666Y-55747597I77403J1122334D01*
G01*
X137942666Y-55167597D01*
G75*
G02*
X139142403Y-54122666I1122334J-77403D01*
G01*
X139142403Y-54122666D01*
G75*
G02*
X140187334Y-55322403I-77403J-1122334D01*
G01*
X140147334Y-55902403D01*
G75*
G02*
X138947597Y-56947334I-1122334J77403D01*
G01*
G37*
%TD*%
D18*
%TO.C,MX30*%
X141605000Y-41275000D03*
X131445000Y-41275000D03*
D19*
X134025000Y-37275000D03*
D20*
X136525000Y-41275000D03*
G36*
G01*
X131963688Y-39572350D02*
X131963683Y-39572345D01*
G75*
G02*
X131877655Y-37983683I751317J837345D01*
G01*
X133187657Y-36523683D01*
G75*
G02*
X134776319Y-36437655I837345J-751317D01*
G01*
X134776319Y-36437655D01*
G75*
G02*
X134862347Y-38026317I-751317J-837345D01*
G01*
X133552345Y-39486317D01*
G75*
G02*
X131963683Y-39572345I-837345J751317D01*
G01*
G37*
D19*
X139065000Y-36195000D03*
G36*
G01*
X138948483Y-37897395D02*
X138947597Y-37897334D01*
G75*
G02*
X137902666Y-36697597I77403J1122334D01*
G01*
X137942666Y-36117597D01*
G75*
G02*
X139142403Y-35072666I1122334J-77403D01*
G01*
X139142403Y-35072666D01*
G75*
G02*
X140187334Y-36272403I-77403J-1122334D01*
G01*
X140147334Y-36852403D01*
G75*
G02*
X138947597Y-37897334I-1122334J77403D01*
G01*
G37*
%TD*%
D18*
%TO.C,MX29*%
X141605000Y-22225000D03*
X131445000Y-22225000D03*
D19*
X134025000Y-18225000D03*
D20*
X136525000Y-22225000D03*
G36*
G01*
X131963688Y-20522350D02*
X131963683Y-20522345D01*
G75*
G02*
X131877655Y-18933683I751317J837345D01*
G01*
X133187657Y-17473683D01*
G75*
G02*
X134776319Y-17387655I837345J-751317D01*
G01*
X134776319Y-17387655D01*
G75*
G02*
X134862347Y-18976317I-751317J-837345D01*
G01*
X133552345Y-20436317D01*
G75*
G02*
X131963683Y-20522345I-837345J751317D01*
G01*
G37*
D19*
X139065000Y-17145000D03*
G36*
G01*
X138948483Y-18847395D02*
X138947597Y-18847334D01*
G75*
G02*
X137902666Y-17647597I77403J1122334D01*
G01*
X137942666Y-17067597D01*
G75*
G02*
X139142403Y-16022666I1122334J-77403D01*
G01*
X139142403Y-16022666D01*
G75*
G02*
X140187334Y-17222403I-77403J-1122334D01*
G01*
X140147334Y-17802403D01*
G75*
G02*
X138947597Y-18847334I-1122334J77403D01*
G01*
G37*
%TD*%
D18*
%TO.C,MX28*%
X127317500Y-98425000D03*
X117157500Y-98425000D03*
D19*
X119737500Y-94425000D03*
D20*
X122237500Y-98425000D03*
G36*
G01*
X117676188Y-96722350D02*
X117676183Y-96722345D01*
G75*
G02*
X117590155Y-95133683I751317J837345D01*
G01*
X118900157Y-93673683D01*
G75*
G02*
X120488819Y-93587655I837345J-751317D01*
G01*
X120488819Y-93587655D01*
G75*
G02*
X120574847Y-95176317I-751317J-837345D01*
G01*
X119264845Y-96636317D01*
G75*
G02*
X117676183Y-96722345I-837345J751317D01*
G01*
G37*
D19*
X124777500Y-93345000D03*
G36*
G01*
X124660983Y-95047395D02*
X124660097Y-95047334D01*
G75*
G02*
X123615166Y-93847597I77403J1122334D01*
G01*
X123655166Y-93267597D01*
G75*
G02*
X124854903Y-92222666I1122334J-77403D01*
G01*
X124854903Y-92222666D01*
G75*
G02*
X125899834Y-93422403I-77403J-1122334D01*
G01*
X125859834Y-94002403D01*
G75*
G02*
X124660097Y-95047334I-1122334J77403D01*
G01*
G37*
%TD*%
D18*
%TO.C,MX27*%
X122555000Y-79375000D03*
X112395000Y-79375000D03*
D19*
X114975000Y-75375000D03*
D20*
X117475000Y-79375000D03*
G36*
G01*
X112913688Y-77672350D02*
X112913683Y-77672345D01*
G75*
G02*
X112827655Y-76083683I751317J837345D01*
G01*
X114137657Y-74623683D01*
G75*
G02*
X115726319Y-74537655I837345J-751317D01*
G01*
X115726319Y-74537655D01*
G75*
G02*
X115812347Y-76126317I-751317J-837345D01*
G01*
X114502345Y-77586317D01*
G75*
G02*
X112913683Y-77672345I-837345J751317D01*
G01*
G37*
D19*
X120015000Y-74295000D03*
G36*
G01*
X119898483Y-75997395D02*
X119897597Y-75997334D01*
G75*
G02*
X118852666Y-74797597I77403J1122334D01*
G01*
X118892666Y-74217597D01*
G75*
G02*
X120092403Y-73172666I1122334J-77403D01*
G01*
X120092403Y-73172666D01*
G75*
G02*
X121137334Y-74372403I-77403J-1122334D01*
G01*
X121097334Y-74952403D01*
G75*
G02*
X119897597Y-75997334I-1122334J77403D01*
G01*
G37*
%TD*%
D18*
%TO.C,MX26*%
X122555000Y-60325000D03*
X112395000Y-60325000D03*
D19*
X114975000Y-56325000D03*
D20*
X117475000Y-60325000D03*
G36*
G01*
X112913688Y-58622350D02*
X112913683Y-58622345D01*
G75*
G02*
X112827655Y-57033683I751317J837345D01*
G01*
X114137657Y-55573683D01*
G75*
G02*
X115726319Y-55487655I837345J-751317D01*
G01*
X115726319Y-55487655D01*
G75*
G02*
X115812347Y-57076317I-751317J-837345D01*
G01*
X114502345Y-58536317D01*
G75*
G02*
X112913683Y-58622345I-837345J751317D01*
G01*
G37*
D19*
X120015000Y-55245000D03*
G36*
G01*
X119898483Y-56947395D02*
X119897597Y-56947334D01*
G75*
G02*
X118852666Y-55747597I77403J1122334D01*
G01*
X118892666Y-55167597D01*
G75*
G02*
X120092403Y-54122666I1122334J-77403D01*
G01*
X120092403Y-54122666D01*
G75*
G02*
X121137334Y-55322403I-77403J-1122334D01*
G01*
X121097334Y-55902403D01*
G75*
G02*
X119897597Y-56947334I-1122334J77403D01*
G01*
G37*
%TD*%
D18*
%TO.C,MX25*%
X122555000Y-41275000D03*
X112395000Y-41275000D03*
D19*
X114975000Y-37275000D03*
D20*
X117475000Y-41275000D03*
G36*
G01*
X112913688Y-39572350D02*
X112913683Y-39572345D01*
G75*
G02*
X112827655Y-37983683I751317J837345D01*
G01*
X114137657Y-36523683D01*
G75*
G02*
X115726319Y-36437655I837345J-751317D01*
G01*
X115726319Y-36437655D01*
G75*
G02*
X115812347Y-38026317I-751317J-837345D01*
G01*
X114502345Y-39486317D01*
G75*
G02*
X112913683Y-39572345I-837345J751317D01*
G01*
G37*
D19*
X120015000Y-36195000D03*
G36*
G01*
X119898483Y-37897395D02*
X119897597Y-37897334D01*
G75*
G02*
X118852666Y-36697597I77403J1122334D01*
G01*
X118892666Y-36117597D01*
G75*
G02*
X120092403Y-35072666I1122334J-77403D01*
G01*
X120092403Y-35072666D01*
G75*
G02*
X121137334Y-36272403I-77403J-1122334D01*
G01*
X121097334Y-36852403D01*
G75*
G02*
X119897597Y-37897334I-1122334J77403D01*
G01*
G37*
%TD*%
D18*
%TO.C,MX24*%
X122555000Y-22225000D03*
X112395000Y-22225000D03*
D19*
X114975000Y-18225000D03*
D20*
X117475000Y-22225000D03*
G36*
G01*
X112913688Y-20522350D02*
X112913683Y-20522345D01*
G75*
G02*
X112827655Y-18933683I751317J837345D01*
G01*
X114137657Y-17473683D01*
G75*
G02*
X115726319Y-17387655I837345J-751317D01*
G01*
X115726319Y-17387655D01*
G75*
G02*
X115812347Y-18976317I-751317J-837345D01*
G01*
X114502345Y-20436317D01*
G75*
G02*
X112913683Y-20522345I-837345J751317D01*
G01*
G37*
D19*
X120015000Y-17145000D03*
G36*
G01*
X119898483Y-18847395D02*
X119897597Y-18847334D01*
G75*
G02*
X118852666Y-17647597I77403J1122334D01*
G01*
X118892666Y-17067597D01*
G75*
G02*
X120092403Y-16022666I1122334J-77403D01*
G01*
X120092403Y-16022666D01*
G75*
G02*
X121137334Y-17222403I-77403J-1122334D01*
G01*
X121097334Y-17802403D01*
G75*
G02*
X119897597Y-18847334I-1122334J77403D01*
G01*
G37*
%TD*%
D18*
%TO.C,MX23*%
X98742500Y-98425000D03*
X88582500Y-98425000D03*
D19*
X91162500Y-94425000D03*
D20*
X93662500Y-98425000D03*
G36*
G01*
X89101188Y-96722350D02*
X89101183Y-96722345D01*
G75*
G02*
X89015155Y-95133683I751317J837345D01*
G01*
X90325157Y-93673683D01*
G75*
G02*
X91913819Y-93587655I837345J-751317D01*
G01*
X91913819Y-93587655D01*
G75*
G02*
X91999847Y-95176317I-751317J-837345D01*
G01*
X90689845Y-96636317D01*
G75*
G02*
X89101183Y-96722345I-837345J751317D01*
G01*
G37*
D19*
X96202500Y-93345000D03*
G36*
G01*
X96085983Y-95047395D02*
X96085097Y-95047334D01*
G75*
G02*
X95040166Y-93847597I77403J1122334D01*
G01*
X95080166Y-93267597D01*
G75*
G02*
X96279903Y-92222666I1122334J-77403D01*
G01*
X96279903Y-92222666D01*
G75*
G02*
X97324834Y-93422403I-77403J-1122334D01*
G01*
X97284834Y-94002403D01*
G75*
G02*
X96085097Y-95047334I-1122334J77403D01*
G01*
G37*
%TD*%
D18*
%TO.C,MX22*%
X103505000Y-79375000D03*
X93345000Y-79375000D03*
D19*
X95925000Y-75375000D03*
D20*
X98425000Y-79375000D03*
G36*
G01*
X93863688Y-77672350D02*
X93863683Y-77672345D01*
G75*
G02*
X93777655Y-76083683I751317J837345D01*
G01*
X95087657Y-74623683D01*
G75*
G02*
X96676319Y-74537655I837345J-751317D01*
G01*
X96676319Y-74537655D01*
G75*
G02*
X96762347Y-76126317I-751317J-837345D01*
G01*
X95452345Y-77586317D01*
G75*
G02*
X93863683Y-77672345I-837345J751317D01*
G01*
G37*
D19*
X100965000Y-74295000D03*
G36*
G01*
X100848483Y-75997395D02*
X100847597Y-75997334D01*
G75*
G02*
X99802666Y-74797597I77403J1122334D01*
G01*
X99842666Y-74217597D01*
G75*
G02*
X101042403Y-73172666I1122334J-77403D01*
G01*
X101042403Y-73172666D01*
G75*
G02*
X102087334Y-74372403I-77403J-1122334D01*
G01*
X102047334Y-74952403D01*
G75*
G02*
X100847597Y-75997334I-1122334J77403D01*
G01*
G37*
%TD*%
D18*
%TO.C,MX21*%
X103505000Y-60325000D03*
X93345000Y-60325000D03*
D19*
X95925000Y-56325000D03*
D20*
X98425000Y-60325000D03*
G36*
G01*
X93863688Y-58622350D02*
X93863683Y-58622345D01*
G75*
G02*
X93777655Y-57033683I751317J837345D01*
G01*
X95087657Y-55573683D01*
G75*
G02*
X96676319Y-55487655I837345J-751317D01*
G01*
X96676319Y-55487655D01*
G75*
G02*
X96762347Y-57076317I-751317J-837345D01*
G01*
X95452345Y-58536317D01*
G75*
G02*
X93863683Y-58622345I-837345J751317D01*
G01*
G37*
D19*
X100965000Y-55245000D03*
G36*
G01*
X100848483Y-56947395D02*
X100847597Y-56947334D01*
G75*
G02*
X99802666Y-55747597I77403J1122334D01*
G01*
X99842666Y-55167597D01*
G75*
G02*
X101042403Y-54122666I1122334J-77403D01*
G01*
X101042403Y-54122666D01*
G75*
G02*
X102087334Y-55322403I-77403J-1122334D01*
G01*
X102047334Y-55902403D01*
G75*
G02*
X100847597Y-56947334I-1122334J77403D01*
G01*
G37*
%TD*%
D18*
%TO.C,MX20*%
X103505000Y-41275000D03*
X93345000Y-41275000D03*
D19*
X95925000Y-37275000D03*
D20*
X98425000Y-41275000D03*
G36*
G01*
X93863688Y-39572350D02*
X93863683Y-39572345D01*
G75*
G02*
X93777655Y-37983683I751317J837345D01*
G01*
X95087657Y-36523683D01*
G75*
G02*
X96676319Y-36437655I837345J-751317D01*
G01*
X96676319Y-36437655D01*
G75*
G02*
X96762347Y-38026317I-751317J-837345D01*
G01*
X95452345Y-39486317D01*
G75*
G02*
X93863683Y-39572345I-837345J751317D01*
G01*
G37*
D19*
X100965000Y-36195000D03*
G36*
G01*
X100848483Y-37897395D02*
X100847597Y-37897334D01*
G75*
G02*
X99802666Y-36697597I77403J1122334D01*
G01*
X99842666Y-36117597D01*
G75*
G02*
X101042403Y-35072666I1122334J-77403D01*
G01*
X101042403Y-35072666D01*
G75*
G02*
X102087334Y-36272403I-77403J-1122334D01*
G01*
X102047334Y-36852403D01*
G75*
G02*
X100847597Y-37897334I-1122334J77403D01*
G01*
G37*
%TD*%
D18*
%TO.C,MX19*%
X103505000Y-22225000D03*
X93345000Y-22225000D03*
D19*
X95925000Y-18225000D03*
D20*
X98425000Y-22225000D03*
G36*
G01*
X93863688Y-20522350D02*
X93863683Y-20522345D01*
G75*
G02*
X93777655Y-18933683I751317J837345D01*
G01*
X95087657Y-17473683D01*
G75*
G02*
X96676319Y-17387655I837345J-751317D01*
G01*
X96676319Y-17387655D01*
G75*
G02*
X96762347Y-18976317I-751317J-837345D01*
G01*
X95452345Y-20436317D01*
G75*
G02*
X93863683Y-20522345I-837345J751317D01*
G01*
G37*
D19*
X100965000Y-17145000D03*
G36*
G01*
X100848483Y-18847395D02*
X100847597Y-18847334D01*
G75*
G02*
X99802666Y-17647597I77403J1122334D01*
G01*
X99842666Y-17067597D01*
G75*
G02*
X101042403Y-16022666I1122334J-77403D01*
G01*
X101042403Y-16022666D01*
G75*
G02*
X102087334Y-17222403I-77403J-1122334D01*
G01*
X102047334Y-17802403D01*
G75*
G02*
X100847597Y-18847334I-1122334J77403D01*
G01*
G37*
%TD*%
D18*
%TO.C,MX18*%
X74930000Y-98425000D03*
X64770000Y-98425000D03*
D19*
X67350000Y-94425000D03*
D20*
X69850000Y-98425000D03*
G36*
G01*
X65288688Y-96722350D02*
X65288683Y-96722345D01*
G75*
G02*
X65202655Y-95133683I751317J837345D01*
G01*
X66512657Y-93673683D01*
G75*
G02*
X68101319Y-93587655I837345J-751317D01*
G01*
X68101319Y-93587655D01*
G75*
G02*
X68187347Y-95176317I-751317J-837345D01*
G01*
X66877345Y-96636317D01*
G75*
G02*
X65288683Y-96722345I-837345J751317D01*
G01*
G37*
D19*
X72390000Y-93345000D03*
G36*
G01*
X72273483Y-95047395D02*
X72272597Y-95047334D01*
G75*
G02*
X71227666Y-93847597I77403J1122334D01*
G01*
X71267666Y-93267597D01*
G75*
G02*
X72467403Y-92222666I1122334J-77403D01*
G01*
X72467403Y-92222666D01*
G75*
G02*
X73512334Y-93422403I-77403J-1122334D01*
G01*
X73472334Y-94002403D01*
G75*
G02*
X72272597Y-95047334I-1122334J77403D01*
G01*
G37*
%TD*%
D18*
%TO.C,MX17*%
X84455000Y-79375000D03*
X74295000Y-79375000D03*
D19*
X76875000Y-75375000D03*
D20*
X79375000Y-79375000D03*
G36*
G01*
X74813688Y-77672350D02*
X74813683Y-77672345D01*
G75*
G02*
X74727655Y-76083683I751317J837345D01*
G01*
X76037657Y-74623683D01*
G75*
G02*
X77626319Y-74537655I837345J-751317D01*
G01*
X77626319Y-74537655D01*
G75*
G02*
X77712347Y-76126317I-751317J-837345D01*
G01*
X76402345Y-77586317D01*
G75*
G02*
X74813683Y-77672345I-837345J751317D01*
G01*
G37*
D19*
X81915000Y-74295000D03*
G36*
G01*
X81798483Y-75997395D02*
X81797597Y-75997334D01*
G75*
G02*
X80752666Y-74797597I77403J1122334D01*
G01*
X80792666Y-74217597D01*
G75*
G02*
X81992403Y-73172666I1122334J-77403D01*
G01*
X81992403Y-73172666D01*
G75*
G02*
X83037334Y-74372403I-77403J-1122334D01*
G01*
X82997334Y-74952403D01*
G75*
G02*
X81797597Y-75997334I-1122334J77403D01*
G01*
G37*
%TD*%
D18*
%TO.C,MX16*%
X84455000Y-60325000D03*
X74295000Y-60325000D03*
D19*
X76875000Y-56325000D03*
D20*
X79375000Y-60325000D03*
G36*
G01*
X74813688Y-58622350D02*
X74813683Y-58622345D01*
G75*
G02*
X74727655Y-57033683I751317J837345D01*
G01*
X76037657Y-55573683D01*
G75*
G02*
X77626319Y-55487655I837345J-751317D01*
G01*
X77626319Y-55487655D01*
G75*
G02*
X77712347Y-57076317I-751317J-837345D01*
G01*
X76402345Y-58536317D01*
G75*
G02*
X74813683Y-58622345I-837345J751317D01*
G01*
G37*
D19*
X81915000Y-55245000D03*
G36*
G01*
X81798483Y-56947395D02*
X81797597Y-56947334D01*
G75*
G02*
X80752666Y-55747597I77403J1122334D01*
G01*
X80792666Y-55167597D01*
G75*
G02*
X81992403Y-54122666I1122334J-77403D01*
G01*
X81992403Y-54122666D01*
G75*
G02*
X83037334Y-55322403I-77403J-1122334D01*
G01*
X82997334Y-55902403D01*
G75*
G02*
X81797597Y-56947334I-1122334J77403D01*
G01*
G37*
%TD*%
D18*
%TO.C,MX15*%
X84455000Y-41275000D03*
X74295000Y-41275000D03*
D19*
X76875000Y-37275000D03*
D20*
X79375000Y-41275000D03*
G36*
G01*
X74813688Y-39572350D02*
X74813683Y-39572345D01*
G75*
G02*
X74727655Y-37983683I751317J837345D01*
G01*
X76037657Y-36523683D01*
G75*
G02*
X77626319Y-36437655I837345J-751317D01*
G01*
X77626319Y-36437655D01*
G75*
G02*
X77712347Y-38026317I-751317J-837345D01*
G01*
X76402345Y-39486317D01*
G75*
G02*
X74813683Y-39572345I-837345J751317D01*
G01*
G37*
D19*
X81915000Y-36195000D03*
G36*
G01*
X81798483Y-37897395D02*
X81797597Y-37897334D01*
G75*
G02*
X80752666Y-36697597I77403J1122334D01*
G01*
X80792666Y-36117597D01*
G75*
G02*
X81992403Y-35072666I1122334J-77403D01*
G01*
X81992403Y-35072666D01*
G75*
G02*
X83037334Y-36272403I-77403J-1122334D01*
G01*
X82997334Y-36852403D01*
G75*
G02*
X81797597Y-37897334I-1122334J77403D01*
G01*
G37*
%TD*%
D18*
%TO.C,MX14*%
X84455000Y-22225000D03*
X74295000Y-22225000D03*
D19*
X76875000Y-18225000D03*
D20*
X79375000Y-22225000D03*
G36*
G01*
X74813688Y-20522350D02*
X74813683Y-20522345D01*
G75*
G02*
X74727655Y-18933683I751317J837345D01*
G01*
X76037657Y-17473683D01*
G75*
G02*
X77626319Y-17387655I837345J-751317D01*
G01*
X77626319Y-17387655D01*
G75*
G02*
X77712347Y-18976317I-751317J-837345D01*
G01*
X76402345Y-20436317D01*
G75*
G02*
X74813683Y-20522345I-837345J751317D01*
G01*
G37*
D19*
X81915000Y-17145000D03*
G36*
G01*
X81798483Y-18847395D02*
X81797597Y-18847334D01*
G75*
G02*
X80752666Y-17647597I77403J1122334D01*
G01*
X80792666Y-17067597D01*
G75*
G02*
X81992403Y-16022666I1122334J-77403D01*
G01*
X81992403Y-16022666D01*
G75*
G02*
X83037334Y-17222403I-77403J-1122334D01*
G01*
X82997334Y-17802403D01*
G75*
G02*
X81797597Y-18847334I-1122334J77403D01*
G01*
G37*
%TD*%
D18*
%TO.C,MX13*%
X55880000Y-98425000D03*
X45720000Y-98425000D03*
D19*
X48300000Y-94425000D03*
D20*
X50800000Y-98425000D03*
G36*
G01*
X46238688Y-96722350D02*
X46238683Y-96722345D01*
G75*
G02*
X46152655Y-95133683I751317J837345D01*
G01*
X47462657Y-93673683D01*
G75*
G02*
X49051319Y-93587655I837345J-751317D01*
G01*
X49051319Y-93587655D01*
G75*
G02*
X49137347Y-95176317I-751317J-837345D01*
G01*
X47827345Y-96636317D01*
G75*
G02*
X46238683Y-96722345I-837345J751317D01*
G01*
G37*
D19*
X53340000Y-93345000D03*
G36*
G01*
X53223483Y-95047395D02*
X53222597Y-95047334D01*
G75*
G02*
X52177666Y-93847597I77403J1122334D01*
G01*
X52217666Y-93267597D01*
G75*
G02*
X53417403Y-92222666I1122334J-77403D01*
G01*
X53417403Y-92222666D01*
G75*
G02*
X54462334Y-93422403I-77403J-1122334D01*
G01*
X54422334Y-94002403D01*
G75*
G02*
X53222597Y-95047334I-1122334J77403D01*
G01*
G37*
%TD*%
D18*
%TO.C,MX12*%
X65405000Y-79375000D03*
X55245000Y-79375000D03*
D19*
X57825000Y-75375000D03*
D20*
X60325000Y-79375000D03*
G36*
G01*
X55763688Y-77672350D02*
X55763683Y-77672345D01*
G75*
G02*
X55677655Y-76083683I751317J837345D01*
G01*
X56987657Y-74623683D01*
G75*
G02*
X58576319Y-74537655I837345J-751317D01*
G01*
X58576319Y-74537655D01*
G75*
G02*
X58662347Y-76126317I-751317J-837345D01*
G01*
X57352345Y-77586317D01*
G75*
G02*
X55763683Y-77672345I-837345J751317D01*
G01*
G37*
D19*
X62865000Y-74295000D03*
G36*
G01*
X62748483Y-75997395D02*
X62747597Y-75997334D01*
G75*
G02*
X61702666Y-74797597I77403J1122334D01*
G01*
X61742666Y-74217597D01*
G75*
G02*
X62942403Y-73172666I1122334J-77403D01*
G01*
X62942403Y-73172666D01*
G75*
G02*
X63987334Y-74372403I-77403J-1122334D01*
G01*
X63947334Y-74952403D01*
G75*
G02*
X62747597Y-75997334I-1122334J77403D01*
G01*
G37*
%TD*%
D18*
%TO.C,MX11*%
X65405000Y-60325000D03*
X55245000Y-60325000D03*
D19*
X57825000Y-56325000D03*
D20*
X60325000Y-60325000D03*
G36*
G01*
X55763688Y-58622350D02*
X55763683Y-58622345D01*
G75*
G02*
X55677655Y-57033683I751317J837345D01*
G01*
X56987657Y-55573683D01*
G75*
G02*
X58576319Y-55487655I837345J-751317D01*
G01*
X58576319Y-55487655D01*
G75*
G02*
X58662347Y-57076317I-751317J-837345D01*
G01*
X57352345Y-58536317D01*
G75*
G02*
X55763683Y-58622345I-837345J751317D01*
G01*
G37*
D19*
X62865000Y-55245000D03*
G36*
G01*
X62748483Y-56947395D02*
X62747597Y-56947334D01*
G75*
G02*
X61702666Y-55747597I77403J1122334D01*
G01*
X61742666Y-55167597D01*
G75*
G02*
X62942403Y-54122666I1122334J-77403D01*
G01*
X62942403Y-54122666D01*
G75*
G02*
X63987334Y-55322403I-77403J-1122334D01*
G01*
X63947334Y-55902403D01*
G75*
G02*
X62747597Y-56947334I-1122334J77403D01*
G01*
G37*
%TD*%
D18*
%TO.C,MX10*%
X65405000Y-41275000D03*
X55245000Y-41275000D03*
D19*
X57825000Y-37275000D03*
D20*
X60325000Y-41275000D03*
G36*
G01*
X55763688Y-39572350D02*
X55763683Y-39572345D01*
G75*
G02*
X55677655Y-37983683I751317J837345D01*
G01*
X56987657Y-36523683D01*
G75*
G02*
X58576319Y-36437655I837345J-751317D01*
G01*
X58576319Y-36437655D01*
G75*
G02*
X58662347Y-38026317I-751317J-837345D01*
G01*
X57352345Y-39486317D01*
G75*
G02*
X55763683Y-39572345I-837345J751317D01*
G01*
G37*
D19*
X62865000Y-36195000D03*
G36*
G01*
X62748483Y-37897395D02*
X62747597Y-37897334D01*
G75*
G02*
X61702666Y-36697597I77403J1122334D01*
G01*
X61742666Y-36117597D01*
G75*
G02*
X62942403Y-35072666I1122334J-77403D01*
G01*
X62942403Y-35072666D01*
G75*
G02*
X63987334Y-36272403I-77403J-1122334D01*
G01*
X63947334Y-36852403D01*
G75*
G02*
X62747597Y-37897334I-1122334J77403D01*
G01*
G37*
%TD*%
D18*
%TO.C,MX9*%
X65405000Y-22225000D03*
X55245000Y-22225000D03*
D19*
X57825000Y-18225000D03*
D20*
X60325000Y-22225000D03*
G36*
G01*
X55763688Y-20522350D02*
X55763683Y-20522345D01*
G75*
G02*
X55677655Y-18933683I751317J837345D01*
G01*
X56987657Y-17473683D01*
G75*
G02*
X58576319Y-17387655I837345J-751317D01*
G01*
X58576319Y-17387655D01*
G75*
G02*
X58662347Y-18976317I-751317J-837345D01*
G01*
X57352345Y-20436317D01*
G75*
G02*
X55763683Y-20522345I-837345J751317D01*
G01*
G37*
D19*
X62865000Y-17145000D03*
G36*
G01*
X62748483Y-18847395D02*
X62747597Y-18847334D01*
G75*
G02*
X61702666Y-17647597I77403J1122334D01*
G01*
X61742666Y-17067597D01*
G75*
G02*
X62942403Y-16022666I1122334J-77403D01*
G01*
X62942403Y-16022666D01*
G75*
G02*
X63987334Y-17222403I-77403J-1122334D01*
G01*
X63947334Y-17802403D01*
G75*
G02*
X62747597Y-18847334I-1122334J77403D01*
G01*
G37*
%TD*%
D18*
%TO.C,MX8*%
X46355000Y-79375000D03*
X36195000Y-79375000D03*
D19*
X38775000Y-75375000D03*
D20*
X41275000Y-79375000D03*
G36*
G01*
X36713688Y-77672350D02*
X36713683Y-77672345D01*
G75*
G02*
X36627655Y-76083683I751317J837345D01*
G01*
X37937657Y-74623683D01*
G75*
G02*
X39526319Y-74537655I837345J-751317D01*
G01*
X39526319Y-74537655D01*
G75*
G02*
X39612347Y-76126317I-751317J-837345D01*
G01*
X38302345Y-77586317D01*
G75*
G02*
X36713683Y-77672345I-837345J751317D01*
G01*
G37*
D19*
X43815000Y-74295000D03*
G36*
G01*
X43698483Y-75997395D02*
X43697597Y-75997334D01*
G75*
G02*
X42652666Y-74797597I77403J1122334D01*
G01*
X42692666Y-74217597D01*
G75*
G02*
X43892403Y-73172666I1122334J-77403D01*
G01*
X43892403Y-73172666D01*
G75*
G02*
X44937334Y-74372403I-77403J-1122334D01*
G01*
X44897334Y-74952403D01*
G75*
G02*
X43697597Y-75997334I-1122334J77403D01*
G01*
G37*
%TD*%
D18*
%TO.C,MX7*%
X46355000Y-60325000D03*
X36195000Y-60325000D03*
D19*
X38775000Y-56325000D03*
D20*
X41275000Y-60325000D03*
G36*
G01*
X36713688Y-58622350D02*
X36713683Y-58622345D01*
G75*
G02*
X36627655Y-57033683I751317J837345D01*
G01*
X37937657Y-55573683D01*
G75*
G02*
X39526319Y-55487655I837345J-751317D01*
G01*
X39526319Y-55487655D01*
G75*
G02*
X39612347Y-57076317I-751317J-837345D01*
G01*
X38302345Y-58536317D01*
G75*
G02*
X36713683Y-58622345I-837345J751317D01*
G01*
G37*
D19*
X43815000Y-55245000D03*
G36*
G01*
X43698483Y-56947395D02*
X43697597Y-56947334D01*
G75*
G02*
X42652666Y-55747597I77403J1122334D01*
G01*
X42692666Y-55167597D01*
G75*
G02*
X43892403Y-54122666I1122334J-77403D01*
G01*
X43892403Y-54122666D01*
G75*
G02*
X44937334Y-55322403I-77403J-1122334D01*
G01*
X44897334Y-55902403D01*
G75*
G02*
X43697597Y-56947334I-1122334J77403D01*
G01*
G37*
%TD*%
D18*
%TO.C,MX6*%
X46355000Y-41275000D03*
X36195000Y-41275000D03*
D19*
X38775000Y-37275000D03*
D20*
X41275000Y-41275000D03*
G36*
G01*
X36713688Y-39572350D02*
X36713683Y-39572345D01*
G75*
G02*
X36627655Y-37983683I751317J837345D01*
G01*
X37937657Y-36523683D01*
G75*
G02*
X39526319Y-36437655I837345J-751317D01*
G01*
X39526319Y-36437655D01*
G75*
G02*
X39612347Y-38026317I-751317J-837345D01*
G01*
X38302345Y-39486317D01*
G75*
G02*
X36713683Y-39572345I-837345J751317D01*
G01*
G37*
D19*
X43815000Y-36195000D03*
G36*
G01*
X43698483Y-37897395D02*
X43697597Y-37897334D01*
G75*
G02*
X42652666Y-36697597I77403J1122334D01*
G01*
X42692666Y-36117597D01*
G75*
G02*
X43892403Y-35072666I1122334J-77403D01*
G01*
X43892403Y-35072666D01*
G75*
G02*
X44937334Y-36272403I-77403J-1122334D01*
G01*
X44897334Y-36852403D01*
G75*
G02*
X43697597Y-37897334I-1122334J77403D01*
G01*
G37*
%TD*%
D18*
%TO.C,MX5*%
X46355000Y-22225000D03*
X36195000Y-22225000D03*
D19*
X38775000Y-18225000D03*
D20*
X41275000Y-22225000D03*
G36*
G01*
X36713688Y-20522350D02*
X36713683Y-20522345D01*
G75*
G02*
X36627655Y-18933683I751317J837345D01*
G01*
X37937657Y-17473683D01*
G75*
G02*
X39526319Y-17387655I837345J-751317D01*
G01*
X39526319Y-17387655D01*
G75*
G02*
X39612347Y-18976317I-751317J-837345D01*
G01*
X38302345Y-20436317D01*
G75*
G02*
X36713683Y-20522345I-837345J751317D01*
G01*
G37*
D19*
X43815000Y-17145000D03*
G36*
G01*
X43698483Y-18847395D02*
X43697597Y-18847334D01*
G75*
G02*
X42652666Y-17647597I77403J1122334D01*
G01*
X42692666Y-17067597D01*
G75*
G02*
X43892403Y-16022666I1122334J-77403D01*
G01*
X43892403Y-16022666D01*
G75*
G02*
X44937334Y-17222403I-77403J-1122334D01*
G01*
X44897334Y-17802403D01*
G75*
G02*
X43697597Y-18847334I-1122334J77403D01*
G01*
G37*
%TD*%
D18*
%TO.C,MX4*%
X27305000Y-79375000D03*
X17145000Y-79375000D03*
D19*
X19725000Y-75375000D03*
D20*
X22225000Y-79375000D03*
G36*
G01*
X17663688Y-77672350D02*
X17663683Y-77672345D01*
G75*
G02*
X17577655Y-76083683I751317J837345D01*
G01*
X18887657Y-74623683D01*
G75*
G02*
X20476319Y-74537655I837345J-751317D01*
G01*
X20476319Y-74537655D01*
G75*
G02*
X20562347Y-76126317I-751317J-837345D01*
G01*
X19252345Y-77586317D01*
G75*
G02*
X17663683Y-77672345I-837345J751317D01*
G01*
G37*
D19*
X24765000Y-74295000D03*
G36*
G01*
X24648483Y-75997395D02*
X24647597Y-75997334D01*
G75*
G02*
X23602666Y-74797597I77403J1122334D01*
G01*
X23642666Y-74217597D01*
G75*
G02*
X24842403Y-73172666I1122334J-77403D01*
G01*
X24842403Y-73172666D01*
G75*
G02*
X25887334Y-74372403I-77403J-1122334D01*
G01*
X25847334Y-74952403D01*
G75*
G02*
X24647597Y-75997334I-1122334J77403D01*
G01*
G37*
%TD*%
D18*
%TO.C,MX3*%
X27305000Y-60325000D03*
X17145000Y-60325000D03*
D19*
X19725000Y-56325000D03*
D20*
X22225000Y-60325000D03*
G36*
G01*
X17663688Y-58622350D02*
X17663683Y-58622345D01*
G75*
G02*
X17577655Y-57033683I751317J837345D01*
G01*
X18887657Y-55573683D01*
G75*
G02*
X20476319Y-55487655I837345J-751317D01*
G01*
X20476319Y-55487655D01*
G75*
G02*
X20562347Y-57076317I-751317J-837345D01*
G01*
X19252345Y-58536317D01*
G75*
G02*
X17663683Y-58622345I-837345J751317D01*
G01*
G37*
D19*
X24765000Y-55245000D03*
G36*
G01*
X24648483Y-56947395D02*
X24647597Y-56947334D01*
G75*
G02*
X23602666Y-55747597I77403J1122334D01*
G01*
X23642666Y-55167597D01*
G75*
G02*
X24842403Y-54122666I1122334J-77403D01*
G01*
X24842403Y-54122666D01*
G75*
G02*
X25887334Y-55322403I-77403J-1122334D01*
G01*
X25847334Y-55902403D01*
G75*
G02*
X24647597Y-56947334I-1122334J77403D01*
G01*
G37*
%TD*%
D18*
%TO.C,MX2*%
X27305000Y-41275000D03*
X17145000Y-41275000D03*
D19*
X19725000Y-37275000D03*
D20*
X22225000Y-41275000D03*
G36*
G01*
X17663688Y-39572350D02*
X17663683Y-39572345D01*
G75*
G02*
X17577655Y-37983683I751317J837345D01*
G01*
X18887657Y-36523683D01*
G75*
G02*
X20476319Y-36437655I837345J-751317D01*
G01*
X20476319Y-36437655D01*
G75*
G02*
X20562347Y-38026317I-751317J-837345D01*
G01*
X19252345Y-39486317D01*
G75*
G02*
X17663683Y-39572345I-837345J751317D01*
G01*
G37*
D19*
X24765000Y-36195000D03*
G36*
G01*
X24648483Y-37897395D02*
X24647597Y-37897334D01*
G75*
G02*
X23602666Y-36697597I77403J1122334D01*
G01*
X23642666Y-36117597D01*
G75*
G02*
X24842403Y-35072666I1122334J-77403D01*
G01*
X24842403Y-35072666D01*
G75*
G02*
X25887334Y-36272403I-77403J-1122334D01*
G01*
X25847334Y-36852403D01*
G75*
G02*
X24647597Y-37897334I-1122334J77403D01*
G01*
G37*
%TD*%
D18*
%TO.C,MX1*%
X27305000Y-22225000D03*
X17145000Y-22225000D03*
D19*
X19725000Y-18225000D03*
D20*
X22225000Y-22225000D03*
G36*
G01*
X17663688Y-20522350D02*
X17663683Y-20522345D01*
G75*
G02*
X17577655Y-18933683I751317J837345D01*
G01*
X18887657Y-17473683D01*
G75*
G02*
X20476319Y-17387655I837345J-751317D01*
G01*
X20476319Y-17387655D01*
G75*
G02*
X20562347Y-18976317I-751317J-837345D01*
G01*
X19252345Y-20436317D01*
G75*
G02*
X17663683Y-20522345I-837345J751317D01*
G01*
G37*
D19*
X24765000Y-17145000D03*
G36*
G01*
X24648483Y-18847395D02*
X24647597Y-18847334D01*
G75*
G02*
X23602666Y-17647597I77403J1122334D01*
G01*
X23642666Y-17067597D01*
G75*
G02*
X24842403Y-16022666I1122334J-77403D01*
G01*
X24842403Y-16022666D01*
G75*
G02*
X25887334Y-17222403I-77403J-1122334D01*
G01*
X25847334Y-17802403D01*
G75*
G02*
X24647597Y-18847334I-1122334J77403D01*
G01*
G37*
%TD*%
%TO.C,F1*%
G36*
G01*
X182108000Y-88506000D02*
X180858000Y-88506000D01*
G75*
G02*
X180608000Y-88256000I0J250000D01*
G01*
X180608000Y-87506000D01*
G75*
G02*
X180858000Y-87256000I250000J0D01*
G01*
X182108000Y-87256000D01*
G75*
G02*
X182358000Y-87506000I0J-250000D01*
G01*
X182358000Y-88256000D01*
G75*
G02*
X182108000Y-88506000I-250000J0D01*
G01*
G37*
G36*
G01*
X182108000Y-91306000D02*
X180858000Y-91306000D01*
G75*
G02*
X180608000Y-91056000I0J250000D01*
G01*
X180608000Y-90306000D01*
G75*
G02*
X180858000Y-90056000I250000J0D01*
G01*
X182108000Y-90056000D01*
G75*
G02*
X182358000Y-90306000I0J-250000D01*
G01*
X182358000Y-91056000D01*
G75*
G02*
X182108000Y-91306000I-250000J0D01*
G01*
G37*
%TD*%
D21*
%TO.C,D46*%
X201612500Y-77725000D03*
X201612500Y-81025000D03*
%TD*%
%TO.C,D45*%
X201612500Y-58675000D03*
X201612500Y-61975000D03*
%TD*%
%TO.C,D44*%
X201612500Y-39625000D03*
X201612500Y-42925000D03*
%TD*%
%TO.C,D43*%
X201612500Y-20575000D03*
X201612500Y-23875000D03*
%TD*%
%TO.C,D42*%
X182562500Y-77725000D03*
X182562500Y-81025000D03*
%TD*%
%TO.C,D41*%
X182562500Y-58675000D03*
X182562500Y-61975000D03*
%TD*%
%TO.C,D40*%
X182562500Y-39625000D03*
X182562500Y-42925000D03*
%TD*%
%TO.C,D39*%
X182562500Y-20575000D03*
X182562500Y-23875000D03*
%TD*%
%TO.C,D38*%
X173037500Y-96775000D03*
X173037500Y-100075000D03*
%TD*%
%TO.C,D37*%
X163512500Y-77725000D03*
X163512500Y-81025000D03*
%TD*%
%TO.C,D36*%
X163512500Y-58675000D03*
X163512500Y-61975000D03*
%TD*%
%TO.C,D35*%
X163512500Y-39625000D03*
X163512500Y-42925000D03*
%TD*%
%TO.C,D34*%
X163512500Y-20575000D03*
X163512500Y-23875000D03*
%TD*%
%TO.C,D33*%
X153987500Y-96775000D03*
X153987500Y-100075000D03*
%TD*%
%TO.C,D32*%
X144462500Y-77725000D03*
X144462500Y-81025000D03*
%TD*%
%TO.C,D31*%
X144462500Y-58675000D03*
X144462500Y-61975000D03*
%TD*%
%TO.C,D30*%
X144462500Y-39625000D03*
X144462500Y-42925000D03*
%TD*%
%TO.C,D29*%
X144462500Y-20575000D03*
X144462500Y-23875000D03*
%TD*%
%TO.C,D28*%
X130175000Y-96775000D03*
X130175000Y-100075000D03*
%TD*%
%TO.C,D27*%
X125412500Y-77725000D03*
X125412500Y-81025000D03*
%TD*%
%TO.C,D26*%
X125412500Y-58675000D03*
X125412500Y-61975000D03*
%TD*%
%TO.C,D25*%
X125412500Y-39625000D03*
X125412500Y-42925000D03*
%TD*%
%TO.C,D24*%
X125412500Y-20575000D03*
X125412500Y-23875000D03*
%TD*%
%TO.C,D23*%
X101600000Y-96775000D03*
X101600000Y-100075000D03*
%TD*%
%TO.C,D22*%
X106362500Y-77725000D03*
X106362500Y-81025000D03*
%TD*%
%TO.C,D21*%
X106362500Y-58675000D03*
X106362500Y-61975000D03*
%TD*%
%TO.C,D20*%
X106362500Y-39625000D03*
X106362500Y-42925000D03*
%TD*%
%TO.C,D19*%
X106362500Y-20575000D03*
X106362500Y-23875000D03*
%TD*%
%TO.C,D18*%
X77787500Y-96775000D03*
X77787500Y-100075000D03*
%TD*%
%TO.C,D17*%
X87312500Y-77725000D03*
X87312500Y-81025000D03*
%TD*%
%TO.C,D16*%
X87312500Y-58675000D03*
X87312500Y-61975000D03*
%TD*%
%TO.C,D15*%
X87312500Y-39625000D03*
X87312500Y-42925000D03*
%TD*%
%TO.C,D14*%
X87312500Y-20575000D03*
X87312500Y-23875000D03*
%TD*%
%TO.C,D13*%
X58737500Y-96775000D03*
X58737500Y-100075000D03*
%TD*%
%TO.C,D12*%
X68262500Y-77725000D03*
X68262500Y-81025000D03*
%TD*%
%TO.C,D11*%
X68262500Y-58675000D03*
X68262500Y-61975000D03*
%TD*%
%TO.C,D10*%
X68262500Y-39625000D03*
X68262500Y-42925000D03*
%TD*%
%TO.C,D9*%
X68262500Y-20575000D03*
X68262500Y-23875000D03*
%TD*%
%TO.C,D8*%
X49212500Y-77725000D03*
X49212500Y-81025000D03*
%TD*%
%TO.C,D7*%
X49212500Y-58675000D03*
X49212500Y-61975000D03*
%TD*%
%TO.C,D6*%
X49212500Y-39625000D03*
X49212500Y-42925000D03*
%TD*%
%TO.C,D5*%
X49212500Y-20575000D03*
X49212500Y-23875000D03*
%TD*%
%TO.C,D4*%
X30162500Y-77725000D03*
X30162500Y-81025000D03*
%TD*%
%TO.C,D3*%
X30162500Y-58675000D03*
X30162500Y-61975000D03*
%TD*%
%TO.C,D2*%
X30162500Y-39625000D03*
X30162500Y-42925000D03*
%TD*%
%TO.C,D1*%
X30162500Y-20575000D03*
X30162500Y-23875000D03*
%TD*%
%TO.C,C7*%
G36*
G01*
X181008000Y-95065000D02*
X181958000Y-95065000D01*
G75*
G02*
X182208000Y-95315000I0J-250000D01*
G01*
X182208000Y-95815000D01*
G75*
G02*
X181958000Y-96065000I-250000J0D01*
G01*
X181008000Y-96065000D01*
G75*
G02*
X180758000Y-95815000I0J250000D01*
G01*
X180758000Y-95315000D01*
G75*
G02*
X181008000Y-95065000I250000J0D01*
G01*
G37*
G36*
G01*
X181008000Y-93165000D02*
X181958000Y-93165000D01*
G75*
G02*
X182208000Y-93415000I0J-250000D01*
G01*
X182208000Y-93915000D01*
G75*
G02*
X181958000Y-94165000I-250000J0D01*
G01*
X181008000Y-94165000D01*
G75*
G02*
X180758000Y-93915000I0J250000D01*
G01*
X180758000Y-93415000D01*
G75*
G02*
X181008000Y-93165000I250000J0D01*
G01*
G37*
%TD*%
%TO.C,C6*%
G36*
G01*
X188653000Y-88933000D02*
X188653000Y-89883000D01*
G75*
G02*
X188403000Y-90133000I-250000J0D01*
G01*
X187903000Y-90133000D01*
G75*
G02*
X187653000Y-89883000I0J250000D01*
G01*
X187653000Y-88933000D01*
G75*
G02*
X187903000Y-88683000I250000J0D01*
G01*
X188403000Y-88683000D01*
G75*
G02*
X188653000Y-88933000I0J-250000D01*
G01*
G37*
G36*
G01*
X190553000Y-88933000D02*
X190553000Y-89883000D01*
G75*
G02*
X190303000Y-90133000I-250000J0D01*
G01*
X189803000Y-90133000D01*
G75*
G02*
X189553000Y-89883000I0J250000D01*
G01*
X189553000Y-88933000D01*
G75*
G02*
X189803000Y-88683000I250000J0D01*
G01*
X190303000Y-88683000D01*
G75*
G02*
X190553000Y-88933000I0J-250000D01*
G01*
G37*
%TD*%
%TO.C,C5*%
G36*
G01*
X199332000Y-92677000D02*
X199332000Y-91727000D01*
G75*
G02*
X199582000Y-91477000I250000J0D01*
G01*
X200082000Y-91477000D01*
G75*
G02*
X200332000Y-91727000I0J-250000D01*
G01*
X200332000Y-92677000D01*
G75*
G02*
X200082000Y-92927000I-250000J0D01*
G01*
X199582000Y-92927000D01*
G75*
G02*
X199332000Y-92677000I0J250000D01*
G01*
G37*
G36*
G01*
X197432000Y-92677000D02*
X197432000Y-91727000D01*
G75*
G02*
X197682000Y-91477000I250000J0D01*
G01*
X198182000Y-91477000D01*
G75*
G02*
X198432000Y-91727000I0J-250000D01*
G01*
X198432000Y-92677000D01*
G75*
G02*
X198182000Y-92927000I-250000J0D01*
G01*
X197682000Y-92927000D01*
G75*
G02*
X197432000Y-92677000I0J250000D01*
G01*
G37*
%TD*%
%TO.C,C4*%
G36*
G01*
X198940000Y-94394000D02*
X198940000Y-95344000D01*
G75*
G02*
X198690000Y-95594000I-250000J0D01*
G01*
X198190000Y-95594000D01*
G75*
G02*
X197940000Y-95344000I0J250000D01*
G01*
X197940000Y-94394000D01*
G75*
G02*
X198190000Y-94144000I250000J0D01*
G01*
X198690000Y-94144000D01*
G75*
G02*
X198940000Y-94394000I0J-250000D01*
G01*
G37*
G36*
G01*
X200840000Y-94394000D02*
X200840000Y-95344000D01*
G75*
G02*
X200590000Y-95594000I-250000J0D01*
G01*
X200090000Y-95594000D01*
G75*
G02*
X199840000Y-95344000I0J250000D01*
G01*
X199840000Y-94394000D01*
G75*
G02*
X200090000Y-94144000I250000J0D01*
G01*
X200590000Y-94144000D01*
G75*
G02*
X200840000Y-94394000I0J-250000D01*
G01*
G37*
%TD*%
%TO.C,C3*%
G36*
G01*
X199713000Y-103218000D02*
X199713000Y-102268000D01*
G75*
G02*
X199963000Y-102018000I250000J0D01*
G01*
X200463000Y-102018000D01*
G75*
G02*
X200713000Y-102268000I0J-250000D01*
G01*
X200713000Y-103218000D01*
G75*
G02*
X200463000Y-103468000I-250000J0D01*
G01*
X199963000Y-103468000D01*
G75*
G02*
X199713000Y-103218000I0J250000D01*
G01*
G37*
G36*
G01*
X197813000Y-103218000D02*
X197813000Y-102268000D01*
G75*
G02*
X198063000Y-102018000I250000J0D01*
G01*
X198563000Y-102018000D01*
G75*
G02*
X198813000Y-102268000I0J-250000D01*
G01*
X198813000Y-103218000D01*
G75*
G02*
X198563000Y-103468000I-250000J0D01*
G01*
X198063000Y-103468000D01*
G75*
G02*
X197813000Y-103218000I0J250000D01*
G01*
G37*
%TD*%
%TO.C,C2*%
G36*
G01*
X180525000Y-102268000D02*
X180525000Y-103218000D01*
G75*
G02*
X180275000Y-103468000I-250000J0D01*
G01*
X179775000Y-103468000D01*
G75*
G02*
X179525000Y-103218000I0J250000D01*
G01*
X179525000Y-102268000D01*
G75*
G02*
X179775000Y-102018000I250000J0D01*
G01*
X180275000Y-102018000D01*
G75*
G02*
X180525000Y-102268000I0J-250000D01*
G01*
G37*
G36*
G01*
X182425000Y-102268000D02*
X182425000Y-103218000D01*
G75*
G02*
X182175000Y-103468000I-250000J0D01*
G01*
X181675000Y-103468000D01*
G75*
G02*
X181425000Y-103218000I0J250000D01*
G01*
X181425000Y-102268000D01*
G75*
G02*
X181675000Y-102018000I250000J0D01*
G01*
X182175000Y-102018000D01*
G75*
G02*
X182425000Y-102268000I0J-250000D01*
G01*
G37*
%TD*%
%TO.C,C1*%
G36*
G01*
X199332000Y-105758000D02*
X199332000Y-104808000D01*
G75*
G02*
X199582000Y-104558000I250000J0D01*
G01*
X200082000Y-104558000D01*
G75*
G02*
X200332000Y-104808000I0J-250000D01*
G01*
X200332000Y-105758000D01*
G75*
G02*
X200082000Y-106008000I-250000J0D01*
G01*
X199582000Y-106008000D01*
G75*
G02*
X199332000Y-105758000I0J250000D01*
G01*
G37*
G36*
G01*
X197432000Y-105758000D02*
X197432000Y-104808000D01*
G75*
G02*
X197682000Y-104558000I250000J0D01*
G01*
X198182000Y-104558000D01*
G75*
G02*
X198432000Y-104808000I0J-250000D01*
G01*
X198432000Y-105758000D01*
G75*
G02*
X198182000Y-106008000I-250000J0D01*
G01*
X197682000Y-106008000D01*
G75*
G02*
X197432000Y-105758000I0J250000D01*
G01*
G37*
%TD*%
M02*
