G04 #@! TF.GenerationSoftware,KiCad,Pcbnew,(5.1.12)-1*
G04 #@! TF.CreationDate,2022-09-08T23:58:54-04:00*
G04 #@! TF.ProjectId,my-keeb-pro-micro,6d792d6b-6565-4622-9d70-726f2d6d6963,rev?*
G04 #@! TF.SameCoordinates,Original*
G04 #@! TF.FileFunction,Legend,Top*
G04 #@! TF.FilePolarity,Positive*
%FSLAX46Y46*%
G04 Gerber Fmt 4.6, Leading zero omitted, Abs format (unit mm)*
G04 Created by KiCad (PCBNEW (5.1.12)-1) date 2022-09-08 23:58:54*
%MOMM*%
%LPD*%
G01*
G04 APERTURE LIST*
%ADD10C,0.010000*%
%ADD11C,0.381000*%
%ADD12C,0.150000*%
%ADD13C,2.000000*%
%ADD14R,1.600000X1.600000*%
%ADD15C,1.600000*%
%ADD16C,3.987800*%
%ADD17C,1.750000*%
%ADD18R,1.752600X1.752600*%
%ADD19C,1.752600*%
%ADD20R,1.800000X1.100000*%
G04 APERTURE END LIST*
D10*
G36*
X73140366Y-89001014D02*
G01*
X70451150Y-90574039D01*
X64713378Y-95513425D01*
X64699355Y-96247712D01*
X64695938Y-96436284D01*
X64692843Y-96625614D01*
X64690174Y-96807910D01*
X64688034Y-96975378D01*
X64686527Y-97120225D01*
X64685755Y-97234657D01*
X64685679Y-97280167D01*
X64686024Y-97578333D01*
X66501509Y-99948723D01*
X68316993Y-102319114D01*
X71237205Y-104789222D01*
X71542233Y-105047092D01*
X71838790Y-105297522D01*
X72125244Y-105539146D01*
X72399967Y-105770599D01*
X72661326Y-105990517D01*
X72907691Y-106197535D01*
X73137433Y-106390289D01*
X73348919Y-106567412D01*
X73540521Y-106727542D01*
X73710607Y-106869312D01*
X73857546Y-106991358D01*
X73979709Y-107092315D01*
X74075464Y-107170819D01*
X74143181Y-107225504D01*
X74181230Y-107255006D01*
X74189166Y-107260054D01*
X74211070Y-107248797D01*
X74265856Y-107215880D01*
X74351036Y-107162901D01*
X74464122Y-107091459D01*
X74602624Y-107003151D01*
X74764054Y-106899577D01*
X74945922Y-106782334D01*
X75145739Y-106653020D01*
X75361018Y-106513233D01*
X75589268Y-106364573D01*
X75828001Y-106208636D01*
X75903666Y-106159121D01*
X76145158Y-106000927D01*
X76376775Y-105849019D01*
X76596036Y-105705033D01*
X76800460Y-105570606D01*
X76987567Y-105447377D01*
X77154876Y-105336981D01*
X77299907Y-105241057D01*
X77420180Y-105161242D01*
X77513212Y-105099173D01*
X77576525Y-105056488D01*
X77607636Y-105034823D01*
X77610338Y-105032649D01*
X77615669Y-105010984D01*
X77621136Y-104956210D01*
X77626778Y-104867243D01*
X77632636Y-104742996D01*
X77638749Y-104582384D01*
X77645156Y-104384320D01*
X77651897Y-104147719D01*
X77659011Y-103871495D01*
X77666538Y-103554561D01*
X77670416Y-103382848D01*
X77706572Y-101757863D01*
X77593578Y-101635864D01*
X77566219Y-101606743D01*
X77511359Y-101548738D01*
X77430685Y-101463623D01*
X77325887Y-101353175D01*
X77198651Y-101219170D01*
X77050665Y-101063383D01*
X76883619Y-100887591D01*
X76699198Y-100693569D01*
X76499093Y-100483094D01*
X76284989Y-100257942D01*
X76058576Y-100019888D01*
X75821541Y-99770709D01*
X75575572Y-99512180D01*
X75322357Y-99246077D01*
X75247500Y-99167417D01*
X74994495Y-98901514D01*
X74749491Y-98643913D01*
X74514074Y-98396286D01*
X74289828Y-98160305D01*
X74078341Y-97937643D01*
X73881198Y-97729971D01*
X73699985Y-97538963D01*
X73536286Y-97366291D01*
X73391690Y-97213627D01*
X73267780Y-97082643D01*
X73166143Y-96975011D01*
X73088364Y-96892404D01*
X73036030Y-96836494D01*
X73010726Y-96808954D01*
X73008534Y-96806295D01*
X73021328Y-96788505D01*
X73060002Y-96743027D01*
X73121553Y-96673125D01*
X73202976Y-96582062D01*
X73301270Y-96473101D01*
X73413431Y-96349504D01*
X73536456Y-96214534D01*
X73667342Y-96071456D01*
X73803086Y-95923531D01*
X73940684Y-95774022D01*
X74077135Y-95626193D01*
X74209435Y-95483306D01*
X74334580Y-95348625D01*
X74449568Y-95225413D01*
X74551396Y-95116932D01*
X74637060Y-95026445D01*
X74703558Y-94957216D01*
X74747886Y-94912507D01*
X74767042Y-94895582D01*
X74791503Y-94890636D01*
X74854405Y-94879081D01*
X74952471Y-94861492D01*
X75082424Y-94838446D01*
X75240985Y-94810517D01*
X75424878Y-94778281D01*
X75630824Y-94742314D01*
X75855547Y-94703193D01*
X76095768Y-94661491D01*
X76348210Y-94617786D01*
X76372725Y-94613548D01*
X77953034Y-94340379D01*
X77965021Y-94064940D01*
X77966494Y-94011861D01*
X77968087Y-93919047D01*
X77969780Y-93789097D01*
X77971554Y-93624608D01*
X77973391Y-93428179D01*
X77975272Y-93202408D01*
X77977179Y-92949892D01*
X77979092Y-92673231D01*
X77980994Y-92375022D01*
X77982865Y-92057864D01*
X77984686Y-91724354D01*
X77986439Y-91377091D01*
X77988106Y-91018674D01*
X77989666Y-90651699D01*
X77989743Y-90632862D01*
X78002477Y-87476224D01*
X77286447Y-87463300D01*
X77095047Y-87459701D01*
X76898412Y-87455743D01*
X76705418Y-87451623D01*
X76524942Y-87447539D01*
X76365861Y-87443688D01*
X76237054Y-87440265D01*
X76200000Y-87439182D01*
X75829583Y-87427989D01*
X73140366Y-89001014D01*
G37*
X73140366Y-89001014D02*
X70451150Y-90574039D01*
X64713378Y-95513425D01*
X64699355Y-96247712D01*
X64695938Y-96436284D01*
X64692843Y-96625614D01*
X64690174Y-96807910D01*
X64688034Y-96975378D01*
X64686527Y-97120225D01*
X64685755Y-97234657D01*
X64685679Y-97280167D01*
X64686024Y-97578333D01*
X66501509Y-99948723D01*
X68316993Y-102319114D01*
X71237205Y-104789222D01*
X71542233Y-105047092D01*
X71838790Y-105297522D01*
X72125244Y-105539146D01*
X72399967Y-105770599D01*
X72661326Y-105990517D01*
X72907691Y-106197535D01*
X73137433Y-106390289D01*
X73348919Y-106567412D01*
X73540521Y-106727542D01*
X73710607Y-106869312D01*
X73857546Y-106991358D01*
X73979709Y-107092315D01*
X74075464Y-107170819D01*
X74143181Y-107225504D01*
X74181230Y-107255006D01*
X74189166Y-107260054D01*
X74211070Y-107248797D01*
X74265856Y-107215880D01*
X74351036Y-107162901D01*
X74464122Y-107091459D01*
X74602624Y-107003151D01*
X74764054Y-106899577D01*
X74945922Y-106782334D01*
X75145739Y-106653020D01*
X75361018Y-106513233D01*
X75589268Y-106364573D01*
X75828001Y-106208636D01*
X75903666Y-106159121D01*
X76145158Y-106000927D01*
X76376775Y-105849019D01*
X76596036Y-105705033D01*
X76800460Y-105570606D01*
X76987567Y-105447377D01*
X77154876Y-105336981D01*
X77299907Y-105241057D01*
X77420180Y-105161242D01*
X77513212Y-105099173D01*
X77576525Y-105056488D01*
X77607636Y-105034823D01*
X77610338Y-105032649D01*
X77615669Y-105010984D01*
X77621136Y-104956210D01*
X77626778Y-104867243D01*
X77632636Y-104742996D01*
X77638749Y-104582384D01*
X77645156Y-104384320D01*
X77651897Y-104147719D01*
X77659011Y-103871495D01*
X77666538Y-103554561D01*
X77670416Y-103382848D01*
X77706572Y-101757863D01*
X77593578Y-101635864D01*
X77566219Y-101606743D01*
X77511359Y-101548738D01*
X77430685Y-101463623D01*
X77325887Y-101353175D01*
X77198651Y-101219170D01*
X77050665Y-101063383D01*
X76883619Y-100887591D01*
X76699198Y-100693569D01*
X76499093Y-100483094D01*
X76284989Y-100257942D01*
X76058576Y-100019888D01*
X75821541Y-99770709D01*
X75575572Y-99512180D01*
X75322357Y-99246077D01*
X75247500Y-99167417D01*
X74994495Y-98901514D01*
X74749491Y-98643913D01*
X74514074Y-98396286D01*
X74289828Y-98160305D01*
X74078341Y-97937643D01*
X73881198Y-97729971D01*
X73699985Y-97538963D01*
X73536286Y-97366291D01*
X73391690Y-97213627D01*
X73267780Y-97082643D01*
X73166143Y-96975011D01*
X73088364Y-96892404D01*
X73036030Y-96836494D01*
X73010726Y-96808954D01*
X73008534Y-96806295D01*
X73021328Y-96788505D01*
X73060002Y-96743027D01*
X73121553Y-96673125D01*
X73202976Y-96582062D01*
X73301270Y-96473101D01*
X73413431Y-96349504D01*
X73536456Y-96214534D01*
X73667342Y-96071456D01*
X73803086Y-95923531D01*
X73940684Y-95774022D01*
X74077135Y-95626193D01*
X74209435Y-95483306D01*
X74334580Y-95348625D01*
X74449568Y-95225413D01*
X74551396Y-95116932D01*
X74637060Y-95026445D01*
X74703558Y-94957216D01*
X74747886Y-94912507D01*
X74767042Y-94895582D01*
X74791503Y-94890636D01*
X74854405Y-94879081D01*
X74952471Y-94861492D01*
X75082424Y-94838446D01*
X75240985Y-94810517D01*
X75424878Y-94778281D01*
X75630824Y-94742314D01*
X75855547Y-94703193D01*
X76095768Y-94661491D01*
X76348210Y-94617786D01*
X76372725Y-94613548D01*
X77953034Y-94340379D01*
X77965021Y-94064940D01*
X77966494Y-94011861D01*
X77968087Y-93919047D01*
X77969780Y-93789097D01*
X77971554Y-93624608D01*
X77973391Y-93428179D01*
X77975272Y-93202408D01*
X77977179Y-92949892D01*
X77979092Y-92673231D01*
X77980994Y-92375022D01*
X77982865Y-92057864D01*
X77984686Y-91724354D01*
X77986439Y-91377091D01*
X77988106Y-91018674D01*
X77989666Y-90651699D01*
X77989743Y-90632862D01*
X78002477Y-87476224D01*
X77286447Y-87463300D01*
X77095047Y-87459701D01*
X76898412Y-87455743D01*
X76705418Y-87451623D01*
X76524942Y-87447539D01*
X76365861Y-87443688D01*
X76237054Y-87440265D01*
X76200000Y-87439182D01*
X75829583Y-87427989D01*
X73140366Y-89001014D01*
G36*
X72315991Y-14579350D02*
G01*
X72256118Y-14596936D01*
X72162881Y-14624934D01*
X72039750Y-14662272D01*
X71890196Y-14707874D01*
X71717687Y-14760669D01*
X71525694Y-14819584D01*
X71317686Y-14883544D01*
X71097133Y-14951477D01*
X70867504Y-15022309D01*
X70632270Y-15094968D01*
X70394900Y-15168379D01*
X70158863Y-15241470D01*
X69927630Y-15313167D01*
X69704670Y-15382397D01*
X69493453Y-15448087D01*
X69297449Y-15509164D01*
X69120127Y-15564554D01*
X68964956Y-15613184D01*
X68835408Y-15653981D01*
X68734951Y-15685871D01*
X68667055Y-15707781D01*
X68635189Y-15718639D01*
X68633198Y-15719551D01*
X68622516Y-15738550D01*
X68592479Y-15793019D01*
X68544010Y-15881266D01*
X68478036Y-16001601D01*
X68395478Y-16152334D01*
X68297263Y-16331773D01*
X68184314Y-16538229D01*
X68057555Y-16770010D01*
X67917911Y-17025426D01*
X67766306Y-17302786D01*
X67603665Y-17600401D01*
X67430911Y-17916578D01*
X67248969Y-18249628D01*
X67058763Y-18597860D01*
X66861218Y-18959583D01*
X66657257Y-19333107D01*
X66447806Y-19716741D01*
X66419507Y-19768579D01*
X64213044Y-23810324D01*
X64120169Y-25261329D01*
X64027294Y-26712333D01*
X63131327Y-27611917D01*
X62235360Y-28511500D01*
X60975229Y-32247417D01*
X59715098Y-35983333D01*
X59609362Y-45610553D01*
X60795244Y-47481988D01*
X60956941Y-47737580D01*
X61111788Y-47983165D01*
X61258324Y-48216382D01*
X61395090Y-48434870D01*
X61520625Y-48636269D01*
X61633469Y-48818218D01*
X61732162Y-48978356D01*
X61815243Y-49114322D01*
X61881252Y-49223757D01*
X61928729Y-49304298D01*
X61956213Y-49353586D01*
X61962688Y-49369244D01*
X61940011Y-49388375D01*
X61891931Y-49428738D01*
X61825520Y-49484403D01*
X61748458Y-49548928D01*
X61672774Y-49613401D01*
X61610702Y-49668434D01*
X61568572Y-49708259D01*
X61552716Y-49727110D01*
X61552710Y-49727228D01*
X61570128Y-49740903D01*
X61620147Y-49774837D01*
X61699444Y-49826896D01*
X61804696Y-49894946D01*
X61932577Y-49976853D01*
X62079765Y-50070482D01*
X62242935Y-50173701D01*
X62418763Y-50284374D01*
X62493187Y-50331062D01*
X62674508Y-50445251D01*
X62843711Y-50552879D01*
X62997561Y-50651813D01*
X63132823Y-50739923D01*
X63246259Y-50815077D01*
X63334635Y-50875144D01*
X63394714Y-50917993D01*
X63423260Y-50941492D01*
X63425171Y-50944896D01*
X63417802Y-50970900D01*
X63401085Y-51032520D01*
X63376441Y-51124432D01*
X63345293Y-51241309D01*
X63309061Y-51377829D01*
X63269167Y-51528666D01*
X63257576Y-51572583D01*
X63098431Y-52175833D01*
X62228540Y-54059667D01*
X61358649Y-55943500D01*
X61096237Y-58869471D01*
X60833825Y-61795441D01*
X60279087Y-63965667D01*
X60222668Y-66329155D01*
X60166250Y-68692643D01*
X59319583Y-69890307D01*
X59129013Y-70159137D01*
X58961596Y-70393730D01*
X58817415Y-70593976D01*
X58696550Y-70759764D01*
X58599083Y-70890985D01*
X58525094Y-70987530D01*
X58474664Y-71049287D01*
X58447875Y-71076148D01*
X58444164Y-71077311D01*
X58421218Y-71064456D01*
X58365662Y-71031357D01*
X58280868Y-70980075D01*
X58170207Y-70912671D01*
X58037050Y-70831205D01*
X57884768Y-70737738D01*
X57716732Y-70634332D01*
X57536314Y-70523048D01*
X57424003Y-70453650D01*
X56432594Y-69840649D01*
X55180150Y-69586033D01*
X54954805Y-69540378D01*
X54740919Y-69497348D01*
X54542249Y-69457679D01*
X54362548Y-69422105D01*
X54205573Y-69391363D01*
X54075078Y-69366188D01*
X53974819Y-69347315D01*
X53908551Y-69335479D01*
X53880099Y-69331417D01*
X53852378Y-69339911D01*
X53790186Y-69364197D01*
X53697561Y-69402475D01*
X53578536Y-69452945D01*
X53437149Y-69513810D01*
X53277434Y-69583269D01*
X53103428Y-69659525D01*
X52919167Y-69740779D01*
X52728685Y-69825231D01*
X52536020Y-69911082D01*
X52345206Y-69996535D01*
X52160279Y-70079789D01*
X51985276Y-70159046D01*
X51824232Y-70232508D01*
X51681183Y-70298375D01*
X51560164Y-70354848D01*
X51465212Y-70400128D01*
X51400362Y-70432418D01*
X51369650Y-70449917D01*
X51368442Y-70450945D01*
X51352038Y-70472653D01*
X51313314Y-70527024D01*
X51253847Y-70611776D01*
X51175214Y-70724627D01*
X51078992Y-70863295D01*
X50966757Y-71025499D01*
X50840085Y-71208958D01*
X50700554Y-71411389D01*
X50549741Y-71630510D01*
X50389221Y-71864042D01*
X50220571Y-72109701D01*
X50045369Y-72365206D01*
X50014940Y-72409612D01*
X48696245Y-74334224D01*
X48330880Y-77849445D01*
X48291104Y-78232795D01*
X48252531Y-78605845D01*
X48215390Y-78966318D01*
X48179912Y-79311934D01*
X48146325Y-79640416D01*
X48114859Y-79949484D01*
X48085744Y-80236862D01*
X48059209Y-80500269D01*
X48035484Y-80737428D01*
X48014798Y-80946060D01*
X47997381Y-81123888D01*
X47983463Y-81268631D01*
X47973272Y-81378013D01*
X47967039Y-81449754D01*
X47964992Y-81481083D01*
X47967725Y-81517912D01*
X47975818Y-81593723D01*
X47988892Y-81705553D01*
X48006568Y-81850442D01*
X48028466Y-82025429D01*
X48054207Y-82227551D01*
X48083413Y-82453848D01*
X48115704Y-82701359D01*
X48150701Y-82967122D01*
X48188025Y-83248175D01*
X48227296Y-83541558D01*
X48257689Y-83767083D01*
X48550908Y-85936667D01*
X49866228Y-88324421D01*
X51181547Y-90712176D01*
X50965714Y-91181921D01*
X50905668Y-91312387D01*
X50851512Y-91429637D01*
X50805729Y-91528327D01*
X50770804Y-91603114D01*
X50749220Y-91648655D01*
X50743317Y-91660359D01*
X50722586Y-91666992D01*
X50663245Y-91684577D01*
X50567413Y-91712506D01*
X50437205Y-91750175D01*
X50274739Y-91796977D01*
X50082131Y-91852306D01*
X49861498Y-91915557D01*
X49614956Y-91986124D01*
X49344623Y-92063401D01*
X49052615Y-92146782D01*
X48741048Y-92235661D01*
X48412040Y-92329433D01*
X48067706Y-92427491D01*
X47710165Y-92529229D01*
X47341592Y-92634025D01*
X43946429Y-93599000D01*
X43184610Y-94583954D01*
X42422791Y-95568907D01*
X42335489Y-97123954D01*
X42321183Y-97378784D01*
X42307481Y-97622894D01*
X42294580Y-97852742D01*
X42282681Y-98064786D01*
X42271982Y-98255483D01*
X42262680Y-98421292D01*
X42254976Y-98558671D01*
X42249067Y-98664076D01*
X42245153Y-98733967D01*
X42243495Y-98763667D01*
X42238805Y-98848333D01*
X42651194Y-98874989D01*
X42722509Y-98879530D01*
X42833193Y-98886487D01*
X42980363Y-98895679D01*
X43161134Y-98906929D01*
X43372622Y-98920058D01*
X43611942Y-98934888D01*
X43876211Y-98951241D01*
X44162544Y-98968937D01*
X44468057Y-98987799D01*
X44789866Y-99007648D01*
X45125086Y-99028306D01*
X45470833Y-99049594D01*
X45824223Y-99071334D01*
X45977545Y-99080760D01*
X48891507Y-99259877D01*
X50856462Y-98104701D01*
X51121791Y-97948557D01*
X51377164Y-97797962D01*
X51620171Y-97654352D01*
X51848403Y-97519164D01*
X52059453Y-97393837D01*
X52250911Y-97279806D01*
X52420368Y-97178510D01*
X52565415Y-97091385D01*
X52683645Y-97019868D01*
X52772648Y-96965398D01*
X52830015Y-96929410D01*
X52853337Y-96913342D01*
X52853486Y-96913183D01*
X52866523Y-96887431D01*
X52893176Y-96825568D01*
X52932068Y-96731071D01*
X52981822Y-96607418D01*
X53041059Y-96458086D01*
X53108400Y-96286552D01*
X53182469Y-96096294D01*
X53261887Y-95890788D01*
X53345277Y-95673513D01*
X53360045Y-95634881D01*
X53834533Y-94392923D01*
X55103498Y-93191628D01*
X55301030Y-93004674D01*
X55491664Y-92824334D01*
X55672880Y-92652986D01*
X55842159Y-92493008D01*
X55996984Y-92346778D01*
X56134833Y-92216674D01*
X56253189Y-92105074D01*
X56349532Y-92014356D01*
X56421344Y-91946899D01*
X56466105Y-91905080D01*
X56476943Y-91895083D01*
X56581423Y-91799833D01*
X58180683Y-86254167D01*
X58400959Y-80560333D01*
X58877556Y-77311604D01*
X58931199Y-76946121D01*
X58983205Y-76592142D01*
X59033241Y-76251924D01*
X59080971Y-75927721D01*
X59126063Y-75621790D01*
X59168182Y-75336387D01*
X59206995Y-75073767D01*
X59242169Y-74836186D01*
X59273368Y-74625900D01*
X59300260Y-74445165D01*
X59322510Y-74296236D01*
X59339785Y-74181370D01*
X59351751Y-74102821D01*
X59358075Y-74062846D01*
X59359002Y-74058026D01*
X59363617Y-74076212D01*
X59373309Y-74130382D01*
X59387193Y-74214605D01*
X59404383Y-74322954D01*
X59423994Y-74449501D01*
X59445141Y-74588316D01*
X59466938Y-74733471D01*
X59488500Y-74879038D01*
X59508941Y-75019088D01*
X59527375Y-75147692D01*
X59542918Y-75258922D01*
X59554685Y-75346850D01*
X59561788Y-75405547D01*
X59563520Y-75427417D01*
X59560155Y-75454873D01*
X59550581Y-75521465D01*
X59535211Y-75624519D01*
X59514459Y-75761356D01*
X59488740Y-75929303D01*
X59458468Y-76125683D01*
X59424056Y-76347821D01*
X59385919Y-76593040D01*
X59344471Y-76858666D01*
X59300125Y-77142021D01*
X59253297Y-77440431D01*
X59204399Y-77751220D01*
X59180329Y-77903917D01*
X58798063Y-80327500D01*
X58723211Y-83650667D01*
X58648358Y-86973833D01*
X57781234Y-89471500D01*
X57672290Y-89784991D01*
X57566851Y-90087788D01*
X57465781Y-90377439D01*
X57369944Y-90651494D01*
X57280205Y-90907500D01*
X57197428Y-91143007D01*
X57122478Y-91355564D01*
X57056217Y-91542720D01*
X56999512Y-91702023D01*
X56953225Y-91831023D01*
X56918222Y-91927268D01*
X56895366Y-91988306D01*
X56885659Y-92011500D01*
X56866662Y-92033915D01*
X56821242Y-92084604D01*
X56751861Y-92160891D01*
X56660982Y-92260104D01*
X56551067Y-92379568D01*
X56424578Y-92516609D01*
X56283978Y-92668553D01*
X56131729Y-92832726D01*
X55970293Y-93006453D01*
X55894349Y-93088063D01*
X54931491Y-94122293D01*
X54429885Y-94903277D01*
X53928278Y-95684261D01*
X53962389Y-96790047D01*
X53969012Y-97007536D01*
X53975205Y-97216265D01*
X53980842Y-97411626D01*
X53985797Y-97589010D01*
X53989945Y-97743810D01*
X53993160Y-97871416D01*
X53995317Y-97967222D01*
X53996290Y-98026618D01*
X53996333Y-98036121D01*
X53996166Y-98176409D01*
X56165750Y-98961889D01*
X58224888Y-98479334D01*
X58512603Y-98411846D01*
X58788532Y-98347004D01*
X59049900Y-98285464D01*
X59293932Y-98227885D01*
X59517853Y-98174928D01*
X59718888Y-98127249D01*
X59894263Y-98085509D01*
X60041202Y-98050365D01*
X60156932Y-98022476D01*
X60238676Y-98002502D01*
X60283661Y-97991101D01*
X60291863Y-97988639D01*
X60300148Y-97968184D01*
X60322405Y-97910483D01*
X60357732Y-97817928D01*
X60405227Y-97692906D01*
X60463986Y-97537808D01*
X60533108Y-97355023D01*
X60611690Y-97146941D01*
X60698830Y-96915950D01*
X60793626Y-96664440D01*
X60895175Y-96394801D01*
X61002574Y-96109421D01*
X61114922Y-95810691D01*
X61225824Y-95515616D01*
X62151948Y-93050731D01*
X62561530Y-90635667D01*
X63561066Y-88307333D01*
X64560601Y-85979000D01*
X64931310Y-83100333D01*
X65302018Y-80221667D01*
X65529913Y-77575833D01*
X65564302Y-77177467D01*
X65595367Y-76819606D01*
X65623272Y-76500568D01*
X65648180Y-76218669D01*
X65670253Y-75972226D01*
X65689656Y-75759554D01*
X65706551Y-75578970D01*
X65721103Y-75428791D01*
X65733474Y-75307333D01*
X65743827Y-75212913D01*
X65752326Y-75143846D01*
X65759135Y-75098451D01*
X65764415Y-75075042D01*
X65768332Y-75071937D01*
X65771048Y-75087452D01*
X65771160Y-75088750D01*
X65773043Y-75130939D01*
X65775052Y-75212532D01*
X65777158Y-75330598D01*
X65779334Y-75482209D01*
X65781549Y-75664434D01*
X65783776Y-75874345D01*
X65785984Y-76109010D01*
X65788146Y-76365501D01*
X65790232Y-76640888D01*
X65792213Y-76932242D01*
X65794061Y-77236632D01*
X65795746Y-77551129D01*
X65796025Y-77607583D01*
X65807536Y-79967667D01*
X65396944Y-83343750D01*
X64986351Y-86719833D01*
X63874487Y-89012040D01*
X62762623Y-91304248D01*
X62731723Y-93694250D01*
X65555684Y-93694250D01*
X69295633Y-90756049D01*
X73035583Y-87817849D01*
X75347395Y-87153380D01*
X77659207Y-86488910D01*
X77669216Y-86403288D01*
X77670768Y-86373978D01*
X77673399Y-86304375D01*
X77677051Y-86196505D01*
X77681665Y-86052393D01*
X77687182Y-85874064D01*
X77693543Y-85663544D01*
X77700690Y-85422858D01*
X77708564Y-85154030D01*
X77717106Y-84859088D01*
X77726257Y-84540056D01*
X77735959Y-84198958D01*
X77746152Y-83837822D01*
X77756779Y-83458671D01*
X77767780Y-83063532D01*
X77779096Y-82654429D01*
X77790669Y-82233389D01*
X77798218Y-81957333D01*
X77809876Y-81530769D01*
X77821261Y-81115441D01*
X77832317Y-80713334D01*
X77842988Y-80326430D01*
X77853219Y-79956713D01*
X77862953Y-79606166D01*
X77872136Y-79276771D01*
X77880710Y-78970512D01*
X77888622Y-78689373D01*
X77895814Y-78435336D01*
X77902231Y-78210384D01*
X77907817Y-78016500D01*
X77912517Y-77855668D01*
X77916274Y-77729871D01*
X77919034Y-77641092D01*
X77920740Y-77591314D01*
X77921266Y-77580765D01*
X77922630Y-77600405D01*
X77926047Y-77660799D01*
X77931438Y-77760421D01*
X77938726Y-77897748D01*
X77947833Y-78071252D01*
X77958680Y-78279409D01*
X77971189Y-78520694D01*
X77985282Y-78793580D01*
X78000881Y-79096543D01*
X78017907Y-79428058D01*
X78036283Y-79786598D01*
X78055931Y-80170638D01*
X78076772Y-80578654D01*
X78098728Y-81009119D01*
X78121722Y-81460509D01*
X78145674Y-81931297D01*
X78170506Y-82419959D01*
X78196142Y-82924970D01*
X78222502Y-83444803D01*
X78249508Y-83977933D01*
X78277082Y-84522835D01*
X78291026Y-84798598D01*
X78656729Y-92032667D01*
X78764035Y-98657833D01*
X78457485Y-100118333D01*
X78406450Y-100361652D01*
X78357875Y-100593574D01*
X78312477Y-100810655D01*
X78270972Y-101009453D01*
X78234077Y-101186524D01*
X78202510Y-101338427D01*
X78176987Y-101461717D01*
X78158224Y-101552952D01*
X78146938Y-101608689D01*
X78143843Y-101624923D01*
X78152636Y-101653567D01*
X78181921Y-101718178D01*
X78231262Y-101817925D01*
X78300223Y-101951977D01*
X78388369Y-102119502D01*
X78495263Y-102319670D01*
X78620471Y-102551649D01*
X78763555Y-102814607D01*
X78856416Y-102984371D01*
X79576083Y-104297729D01*
X79692500Y-104295068D01*
X79768880Y-104292168D01*
X79835582Y-104287695D01*
X79861833Y-104284853D01*
X79889855Y-104282005D01*
X79957184Y-104275747D01*
X80060951Y-104266334D01*
X80198288Y-104254018D01*
X80366327Y-104239054D01*
X80562200Y-104221695D01*
X80783038Y-104202196D01*
X81025974Y-104180809D01*
X81288139Y-104157790D01*
X81566665Y-104133391D01*
X81858684Y-104107866D01*
X82093411Y-104087388D01*
X82393013Y-104061129D01*
X82680705Y-104035636D01*
X82953683Y-104011172D01*
X83209146Y-103987999D01*
X83444291Y-103966383D01*
X83656315Y-103946586D01*
X83842417Y-103928873D01*
X83999793Y-103913505D01*
X84125642Y-103900748D01*
X84217161Y-103890865D01*
X84271547Y-103884119D01*
X84286439Y-103881156D01*
X84301085Y-103861746D01*
X84338693Y-103811018D01*
X84397187Y-103731791D01*
X84474493Y-103626884D01*
X84568538Y-103499115D01*
X84677246Y-103351304D01*
X84798544Y-103186269D01*
X84930356Y-103006830D01*
X85070610Y-102815806D01*
X85155115Y-102700667D01*
X85317418Y-102478827D01*
X85466239Y-102274073D01*
X85600105Y-102088495D01*
X85717541Y-101924180D01*
X85817073Y-101783216D01*
X85897227Y-101667693D01*
X85956528Y-101579699D01*
X85993504Y-101521322D01*
X86006680Y-101494650D01*
X86006686Y-101494167D01*
X86000204Y-101469494D01*
X85981831Y-101406606D01*
X85952248Y-101307711D01*
X85912131Y-101175019D01*
X85862159Y-101010738D01*
X85803008Y-100817077D01*
X85735359Y-100596246D01*
X85659887Y-100350454D01*
X85577271Y-100081909D01*
X85488190Y-99792821D01*
X85393321Y-99485399D01*
X85293341Y-99161852D01*
X85188929Y-98824389D01*
X85080763Y-98475220D01*
X85029060Y-98308465D01*
X84054171Y-95165097D01*
X83831251Y-92635798D01*
X83608332Y-90106500D01*
X84036768Y-84969866D01*
X84075362Y-84507497D01*
X84113075Y-84056360D01*
X84149754Y-83618263D01*
X84185245Y-83195012D01*
X84219396Y-82788414D01*
X84252053Y-82400275D01*
X84283062Y-82032403D01*
X84312272Y-81686604D01*
X84339528Y-81364684D01*
X84364677Y-81068450D01*
X84387566Y-80799710D01*
X84408043Y-80560268D01*
X84425953Y-80351934D01*
X84441144Y-80176511D01*
X84453462Y-80035809D01*
X84462755Y-79931633D01*
X84468868Y-79865789D01*
X84471649Y-79840085D01*
X84471761Y-79839788D01*
X84471478Y-79861264D01*
X84469343Y-79922976D01*
X84465445Y-80022873D01*
X84459875Y-80158901D01*
X84452722Y-80329007D01*
X84444078Y-80531141D01*
X84434030Y-80763250D01*
X84422671Y-81023280D01*
X84410089Y-81309180D01*
X84396374Y-81618897D01*
X84381618Y-81950379D01*
X84365909Y-82301573D01*
X84349338Y-82670428D01*
X84331995Y-83054890D01*
X84313970Y-83452908D01*
X84295352Y-83862428D01*
X84294263Y-83886338D01*
X84110210Y-87926333D01*
X84331984Y-90757365D01*
X84358864Y-91099594D01*
X84384967Y-91430142D01*
X84410092Y-91746559D01*
X84434037Y-92046392D01*
X84456604Y-92327190D01*
X84477591Y-92586501D01*
X84496798Y-92821875D01*
X84514025Y-93030859D01*
X84529070Y-93211001D01*
X84541734Y-93359851D01*
X84551816Y-93474957D01*
X84559115Y-93553867D01*
X84563432Y-93594130D01*
X84564350Y-93598989D01*
X84586797Y-93601034D01*
X84648010Y-93603378D01*
X84744428Y-93605956D01*
X84872484Y-93608706D01*
X85028615Y-93611563D01*
X85209258Y-93614463D01*
X85410847Y-93617344D01*
X85629818Y-93620141D01*
X85862608Y-93622790D01*
X85940737Y-93623609D01*
X87306530Y-93637636D01*
X88637723Y-92445734D01*
X88841011Y-92263687D01*
X89036003Y-92089013D01*
X89220283Y-91923877D01*
X89391438Y-91770446D01*
X89547053Y-91630885D01*
X89684714Y-91507360D01*
X89802008Y-91402039D01*
X89896519Y-91317085D01*
X89965834Y-91254667D01*
X90007538Y-91216949D01*
X90018547Y-91206846D01*
X90068178Y-91159860D01*
X89842300Y-89035239D01*
X89810879Y-88739987D01*
X89780683Y-88456837D01*
X89752015Y-88188600D01*
X89725180Y-87938085D01*
X89700479Y-87708105D01*
X89678217Y-87501470D01*
X89658696Y-87320992D01*
X89642219Y-87169480D01*
X89629091Y-87049747D01*
X89619614Y-86964602D01*
X89614091Y-86916857D01*
X89612753Y-86907191D01*
X89592607Y-86899868D01*
X89536461Y-86880306D01*
X89448394Y-86849903D01*
X89332480Y-86810059D01*
X89192798Y-86762175D01*
X89033423Y-86707650D01*
X88858433Y-86647883D01*
X88731643Y-86604637D01*
X88548161Y-86541989D01*
X88377393Y-86483496D01*
X88223436Y-86430575D01*
X88090386Y-86384643D01*
X87982339Y-86347114D01*
X87903391Y-86319408D01*
X87857638Y-86302939D01*
X87847575Y-86298880D01*
X87842474Y-86277084D01*
X87830591Y-86216943D01*
X87812526Y-86121794D01*
X87788877Y-85994979D01*
X87760244Y-85839834D01*
X87727225Y-85659701D01*
X87690421Y-85457917D01*
X87650431Y-85237823D01*
X87607852Y-85002756D01*
X87563286Y-84756057D01*
X87517331Y-84501064D01*
X87470586Y-84241116D01*
X87423651Y-83979553D01*
X87377124Y-83719714D01*
X87331605Y-83464938D01*
X87287694Y-83218563D01*
X87245989Y-82983930D01*
X87207090Y-82764377D01*
X87171595Y-82563243D01*
X87140105Y-82383868D01*
X87113217Y-82229590D01*
X87091533Y-82103749D01*
X87075650Y-82009684D01*
X87066168Y-81950733D01*
X87063618Y-81930363D01*
X87078766Y-81910749D01*
X87120682Y-81863089D01*
X87186941Y-81789995D01*
X87275116Y-81694078D01*
X87382785Y-81577950D01*
X87507520Y-81444223D01*
X87646898Y-81295509D01*
X87798494Y-81134419D01*
X87959881Y-80963565D01*
X88031349Y-80888101D01*
X88993614Y-79872810D01*
X89100311Y-79618417D01*
X84493991Y-79618417D01*
X84490665Y-79648465D01*
X84483315Y-79644875D01*
X84480519Y-79601539D01*
X84483315Y-79591958D01*
X84491041Y-79589299D01*
X84493991Y-79618417D01*
X89100311Y-79618417D01*
X89675976Y-78245890D01*
X90358337Y-76618971D01*
X90489878Y-75245319D01*
X90621418Y-73871667D01*
X90385198Y-65272447D01*
X89716902Y-63909973D01*
X89048605Y-62547500D01*
X89027430Y-60864750D01*
X89023985Y-60582718D01*
X89020716Y-60299042D01*
X89017669Y-60018647D01*
X89014889Y-59746454D01*
X89012421Y-59487389D01*
X89010309Y-59246373D01*
X89008600Y-59028331D01*
X89007339Y-58838186D01*
X89006570Y-58680860D01*
X89006338Y-58568167D01*
X89006420Y-57954333D01*
X89516295Y-57689750D01*
X89651069Y-57619201D01*
X89773132Y-57554135D01*
X89877520Y-57497292D01*
X89959267Y-57451414D01*
X90013411Y-57419240D01*
X90034985Y-57403513D01*
X90035082Y-57403313D01*
X90031561Y-57379900D01*
X90018797Y-57321672D01*
X89998343Y-57234749D01*
X89971753Y-57125250D01*
X89940577Y-56999294D01*
X89906370Y-56863001D01*
X89870684Y-56722488D01*
X89835071Y-56583877D01*
X89801085Y-56453286D01*
X89770277Y-56336833D01*
X89744202Y-56240640D01*
X89724410Y-56170824D01*
X89713785Y-56137060D01*
X89729271Y-56120855D01*
X89777355Y-56085911D01*
X89854048Y-56034785D01*
X89955362Y-55970038D01*
X90077311Y-55894229D01*
X90215905Y-55809916D01*
X90328753Y-55742417D01*
X90475599Y-55654491D01*
X90610157Y-55572565D01*
X90728237Y-55499297D01*
X90825648Y-55437342D01*
X90898201Y-55389357D01*
X90941706Y-55357999D01*
X90952781Y-55346742D01*
X90937433Y-55315875D01*
X90912632Y-55293092D01*
X90889321Y-55272540D01*
X90839276Y-55225412D01*
X90765826Y-55154938D01*
X90672298Y-55064348D01*
X90562020Y-54956873D01*
X90438321Y-54835741D01*
X90304528Y-54704184D01*
X90224906Y-54625651D01*
X89577716Y-53986602D01*
X89958816Y-53664175D01*
X90065838Y-53572780D01*
X90160776Y-53490073D01*
X90239222Y-53420028D01*
X90296768Y-53366621D01*
X90329008Y-53333826D01*
X90334333Y-53325516D01*
X90317487Y-53308007D01*
X90270193Y-53265345D01*
X90192138Y-53197261D01*
X90083006Y-53103486D01*
X89942485Y-52983751D01*
X89770258Y-52837788D01*
X89566013Y-52665327D01*
X89362677Y-52494065D01*
X89299271Y-52440713D01*
X89483355Y-52049136D01*
X89550194Y-51904745D01*
X89598709Y-51794505D01*
X89630201Y-51715056D01*
X89645970Y-51663038D01*
X89647314Y-51635092D01*
X89645138Y-51630946D01*
X89619984Y-51613683D01*
X89562955Y-51581180D01*
X89480226Y-51536746D01*
X89377975Y-51483688D01*
X89262380Y-51425314D01*
X89245270Y-51416800D01*
X88867703Y-51229266D01*
X88469705Y-49157788D01*
X89020124Y-47163969D01*
X89570543Y-45170149D01*
X89045631Y-43595729D01*
X88870874Y-43071561D01*
X83165842Y-43071561D01*
X83153733Y-43824280D01*
X83150393Y-44020233D01*
X83146625Y-44221476D01*
X83142613Y-44419384D01*
X83138543Y-44605334D01*
X83134600Y-44770703D01*
X83130970Y-44906867D01*
X83129261Y-44963452D01*
X83116897Y-45349904D01*
X82124365Y-46250582D01*
X81951017Y-46408119D01*
X81787291Y-46557362D01*
X81635831Y-46695871D01*
X81499280Y-46821205D01*
X81380284Y-46930927D01*
X81281486Y-47022597D01*
X81205529Y-47093774D01*
X81155058Y-47142021D01*
X81132716Y-47164897D01*
X81131833Y-47166335D01*
X81147775Y-47183929D01*
X81191516Y-47221782D01*
X81256923Y-47274832D01*
X81337867Y-47338021D01*
X81364666Y-47358505D01*
X81597500Y-47535600D01*
X81595390Y-47918967D01*
X81593969Y-48045248D01*
X81591326Y-48159445D01*
X81587748Y-48253754D01*
X81583523Y-48320372D01*
X81579515Y-48349832D01*
X81560946Y-48375090D01*
X81514908Y-48413094D01*
X81439014Y-48465471D01*
X81330879Y-48533849D01*
X81188116Y-48619854D01*
X81153000Y-48640609D01*
X80740250Y-48883886D01*
X80359250Y-48871773D01*
X80250982Y-48868363D01*
X80107737Y-48863902D01*
X79936853Y-48858616D01*
X79745668Y-48852729D01*
X79541518Y-48846469D01*
X79331741Y-48840061D01*
X79123675Y-48833730D01*
X79099833Y-48833007D01*
X78221416Y-48806354D01*
X76955916Y-48173344D01*
X76690373Y-48040239D01*
X76460889Y-47924576D01*
X76265454Y-47825287D01*
X76102052Y-47741307D01*
X75968672Y-47671569D01*
X75863301Y-47615006D01*
X75783926Y-47570552D01*
X75728534Y-47537140D01*
X75695111Y-47513704D01*
X75681646Y-47499177D01*
X75681279Y-47498000D01*
X75677113Y-47460486D01*
X75672788Y-47391054D01*
X75668854Y-47300115D01*
X75666196Y-47212400D01*
X75660250Y-46969133D01*
X77459416Y-46877055D01*
X77731261Y-46863104D01*
X77990717Y-46849715D01*
X78234709Y-46837049D01*
X78460160Y-46825271D01*
X78663994Y-46814544D01*
X78843135Y-46805030D01*
X78994507Y-46796893D01*
X79115033Y-46790297D01*
X79201637Y-46785403D01*
X79251243Y-46782376D01*
X79262321Y-46781445D01*
X79256918Y-46761330D01*
X79239672Y-46707253D01*
X79212585Y-46625258D01*
X79177658Y-46521391D01*
X79136892Y-46401695D01*
X79128066Y-46375957D01*
X79081143Y-46237567D01*
X79044556Y-46123663D01*
X79015776Y-46023579D01*
X78992277Y-45926652D01*
X78971531Y-45822218D01*
X78951011Y-45699612D01*
X78928189Y-45548170D01*
X78922269Y-45507591D01*
X78854464Y-45041181D01*
X78132718Y-44044207D01*
X78142966Y-43351753D01*
X78153213Y-42659300D01*
X78727065Y-42204263D01*
X79300916Y-41749226D01*
X79438500Y-41760439D01*
X79484611Y-41763268D01*
X79568798Y-41767454D01*
X79686831Y-41772821D01*
X79834479Y-41779192D01*
X80007512Y-41786391D01*
X80201701Y-41794242D01*
X80412815Y-41802568D01*
X80636625Y-41811193D01*
X80832674Y-41818589D01*
X82089264Y-41865526D01*
X82627553Y-42468544D01*
X83165842Y-43071561D01*
X88870874Y-43071561D01*
X88520720Y-42021309D01*
X89518999Y-39787596D01*
X90144585Y-38387808D01*
X85244845Y-38387808D01*
X85219506Y-38624904D01*
X85179246Y-38921558D01*
X85122857Y-39217634D01*
X85052635Y-39504610D01*
X84970873Y-39773966D01*
X84879866Y-40017181D01*
X84795356Y-40200107D01*
X84667042Y-40420269D01*
X84529594Y-40601147D01*
X84383744Y-40742301D01*
X84230225Y-40843289D01*
X84069766Y-40903669D01*
X83903100Y-40922999D01*
X83730959Y-40900839D01*
X83665874Y-40881985D01*
X83485666Y-40804881D01*
X83292792Y-40690079D01*
X83089285Y-40539581D01*
X82877177Y-40355388D01*
X82658500Y-40139501D01*
X82435288Y-39893923D01*
X82209572Y-39620654D01*
X81983387Y-39321697D01*
X81768574Y-39013702D01*
X81657339Y-38847903D01*
X81736671Y-38727952D01*
X81876755Y-38529771D01*
X82034332Y-38330376D01*
X82201920Y-38138041D01*
X82372038Y-37961043D01*
X82537204Y-37807658D01*
X82655833Y-37711202D01*
X82844539Y-37583514D01*
X83042569Y-37475941D01*
X83237225Y-37395009D01*
X83322763Y-37368352D01*
X83408081Y-37347209D01*
X83485193Y-37334649D01*
X83568559Y-37329406D01*
X83672638Y-37330219D01*
X83734316Y-37332394D01*
X83899752Y-37345445D01*
X84043454Y-37372870D01*
X84179126Y-37419031D01*
X84320468Y-37488289D01*
X84433574Y-37554989D01*
X84539256Y-37629945D01*
X84660583Y-37731358D01*
X84789014Y-37850941D01*
X84916008Y-37980407D01*
X85033023Y-38111470D01*
X85121847Y-38222737D01*
X85244845Y-38387808D01*
X90144585Y-38387808D01*
X90517279Y-37553884D01*
X90280977Y-36607726D01*
X90136244Y-36028210D01*
X76856166Y-36028210D01*
X76850319Y-36054360D01*
X76833598Y-36116780D01*
X76807232Y-36211173D01*
X76772451Y-36333244D01*
X76730485Y-36478695D01*
X76682564Y-36643231D01*
X76629917Y-36822555D01*
X76593448Y-36946014D01*
X76529279Y-37162196D01*
X76475367Y-37342146D01*
X76430172Y-37490287D01*
X76392153Y-37611042D01*
X76359768Y-37708833D01*
X76331475Y-37788084D01*
X76305735Y-37853218D01*
X76281005Y-37908659D01*
X76255743Y-37958829D01*
X76228410Y-38008151D01*
X76215673Y-38030137D01*
X76156101Y-38132222D01*
X76093125Y-38240396D01*
X76036741Y-38337482D01*
X76014914Y-38375167D01*
X75929213Y-38523333D01*
X75688898Y-38517659D01*
X75622919Y-38516073D01*
X75519344Y-38513545D01*
X75382898Y-38510193D01*
X75218305Y-38506133D01*
X75030289Y-38501482D01*
X74823574Y-38496357D01*
X74602886Y-38490875D01*
X74372948Y-38485152D01*
X74210333Y-38481099D01*
X72972083Y-38450212D01*
X72374125Y-37846521D01*
X71776166Y-37242831D01*
X71776166Y-36088345D01*
X72100158Y-35871690D01*
X72497866Y-35627080D01*
X72899492Y-35422269D01*
X73303344Y-35258001D01*
X73707728Y-35135022D01*
X73850500Y-35101563D01*
X73933003Y-35084880D01*
X74010020Y-35072494D01*
X74090175Y-35063795D01*
X74182091Y-35058171D01*
X74294392Y-35055012D01*
X74435701Y-35053705D01*
X74527833Y-35053555D01*
X74688940Y-35054128D01*
X74816062Y-35056229D01*
X74917538Y-35060438D01*
X75001706Y-35067335D01*
X75076905Y-35077497D01*
X75151473Y-35091506D01*
X75187868Y-35099403D01*
X75558539Y-35203366D01*
X75912808Y-35345306D01*
X76247294Y-35523788D01*
X76368739Y-35601047D01*
X76470075Y-35672020D01*
X76570638Y-35748526D01*
X76664519Y-35825385D01*
X76745808Y-35897418D01*
X76808593Y-35959445D01*
X76846964Y-36006287D01*
X76856166Y-36028210D01*
X90136244Y-36028210D01*
X90044676Y-35661569D01*
X90201535Y-35008434D01*
X90246494Y-34819642D01*
X90281651Y-34667961D01*
X90307753Y-34549503D01*
X90325545Y-34460381D01*
X90335772Y-34396708D01*
X90339181Y-34354597D01*
X90336516Y-34330158D01*
X90332988Y-34323157D01*
X90315740Y-34302830D01*
X90272737Y-34252766D01*
X90205935Y-34175230D01*
X90117291Y-34072489D01*
X90008764Y-33946805D01*
X89882310Y-33800446D01*
X89739886Y-33635675D01*
X89583449Y-33454759D01*
X89414957Y-33259961D01*
X89236367Y-33053548D01*
X89049636Y-32837783D01*
X88997101Y-32777090D01*
X88808412Y-32559102D01*
X88627271Y-32349819D01*
X88455639Y-32151508D01*
X88295479Y-31966438D01*
X88148754Y-31796878D01*
X88017425Y-31645094D01*
X87903456Y-31513356D01*
X87808809Y-31403932D01*
X87735445Y-31319089D01*
X87685329Y-31261096D01*
X87660422Y-31232222D01*
X87658260Y-31229696D01*
X87651992Y-31215906D01*
X87649529Y-31190864D01*
X87651448Y-31150806D01*
X87658322Y-31091969D01*
X87670728Y-31010590D01*
X87689241Y-30902907D01*
X87714437Y-30765156D01*
X87746890Y-30593574D01*
X87787176Y-30384398D01*
X87788701Y-30376522D01*
X87947500Y-29556818D01*
X87947500Y-22893800D01*
X87138995Y-22893800D01*
X87138750Y-22954993D01*
X87137589Y-23032846D01*
X87135464Y-23129353D01*
X87132327Y-23246506D01*
X87128130Y-23386300D01*
X87122823Y-23550728D01*
X87116359Y-23741784D01*
X87108689Y-23961461D01*
X87099764Y-24211754D01*
X87089537Y-24494656D01*
X87077958Y-24812160D01*
X87064980Y-25166261D01*
X87050553Y-25558952D01*
X87036893Y-25930636D01*
X86930619Y-28822927D01*
X86883434Y-28861913D01*
X86777669Y-28933487D01*
X86650171Y-28995866D01*
X86516593Y-29042825D01*
X86392589Y-29068139D01*
X86358596Y-29070616D01*
X86308012Y-29067865D01*
X86234754Y-29058877D01*
X86178679Y-29049793D01*
X85986937Y-28995207D01*
X85788232Y-28899605D01*
X85583248Y-28763608D01*
X85372667Y-28587837D01*
X85157170Y-28372914D01*
X84937441Y-28119459D01*
X84714161Y-27828095D01*
X84506299Y-27527250D01*
X84430539Y-27409995D01*
X84350866Y-27282322D01*
X84270435Y-27149741D01*
X84192403Y-27017763D01*
X84119926Y-26891899D01*
X84056160Y-26777661D01*
X84004260Y-26680559D01*
X83967382Y-26606104D01*
X83948684Y-26559808D01*
X83947000Y-26550577D01*
X83952812Y-26506908D01*
X83968849Y-26430607D01*
X83993017Y-26329545D01*
X84023218Y-26211590D01*
X84057357Y-26084611D01*
X84093337Y-25956478D01*
X84129062Y-25835060D01*
X84162435Y-25728226D01*
X84180193Y-25675167D01*
X84291645Y-25388151D01*
X84428322Y-25093270D01*
X84583982Y-24801895D01*
X84752384Y-24525395D01*
X84927286Y-24275142D01*
X84999303Y-24182917D01*
X85199569Y-23955624D01*
X85428418Y-23730527D01*
X85674656Y-23517409D01*
X85927088Y-23326058D01*
X86136342Y-23188934D01*
X86256358Y-23120276D01*
X86390276Y-23050104D01*
X86531157Y-22981429D01*
X86672064Y-22917263D01*
X86806058Y-22860615D01*
X86926202Y-22814497D01*
X87025557Y-22781920D01*
X87097185Y-22765894D01*
X87113825Y-22764750D01*
X87119157Y-22764440D01*
X87123962Y-22764841D01*
X87128190Y-22767945D01*
X87131794Y-22775746D01*
X87134725Y-22790239D01*
X87136935Y-22813416D01*
X87138374Y-22847272D01*
X87138995Y-22893800D01*
X87947500Y-22893800D01*
X87947500Y-19801417D01*
X85142916Y-19802521D01*
X82467914Y-23029886D01*
X82201070Y-23351749D01*
X81941391Y-23664810D01*
X81690169Y-23967517D01*
X81448696Y-24258320D01*
X81218265Y-24535667D01*
X81000168Y-24798007D01*
X80795697Y-25043789D01*
X80606143Y-25271462D01*
X80432800Y-25479475D01*
X80276960Y-25666277D01*
X80139914Y-25830316D01*
X80022955Y-25970041D01*
X79927375Y-26083902D01*
X79854466Y-26170347D01*
X79805520Y-26227826D01*
X79781830Y-26254786D01*
X79779747Y-26256725D01*
X79748913Y-26253988D01*
X79681257Y-26246975D01*
X79580997Y-26236166D01*
X79452352Y-26222042D01*
X79299541Y-26205083D01*
X79126780Y-26185770D01*
X78938288Y-26164582D01*
X78738284Y-26142001D01*
X78530986Y-26118506D01*
X78320611Y-26094578D01*
X78111378Y-26070697D01*
X77907506Y-26047344D01*
X77713211Y-26024999D01*
X77532713Y-26004142D01*
X77370229Y-25985254D01*
X77229978Y-25968815D01*
X77116177Y-25955305D01*
X77033046Y-25945205D01*
X76984802Y-25938995D01*
X76974045Y-25937217D01*
X76968938Y-25915955D01*
X76955648Y-25855473D01*
X76934642Y-25757988D01*
X76906389Y-25625720D01*
X76871357Y-25460888D01*
X76830014Y-25265711D01*
X76782829Y-25042408D01*
X76730269Y-24793197D01*
X76672802Y-24520298D01*
X76610897Y-24225929D01*
X76545022Y-23912310D01*
X76507325Y-23732642D01*
X73723296Y-23732642D01*
X73723091Y-23833667D01*
X73495754Y-23936579D01*
X73364654Y-23998264D01*
X73205445Y-24076928D01*
X73026537Y-24168140D01*
X72836339Y-24267464D01*
X72643261Y-24370468D01*
X72455711Y-24472716D01*
X72282099Y-24569776D01*
X72146583Y-24647931D01*
X71750832Y-24889835D01*
X71379860Y-25135380D01*
X71036149Y-25382556D01*
X70722184Y-25629353D01*
X70440448Y-25873762D01*
X70193423Y-26113771D01*
X69983595Y-26347371D01*
X69873498Y-26487795D01*
X69803229Y-26584507D01*
X69745986Y-26667976D01*
X69696537Y-26747462D01*
X69649652Y-26832225D01*
X69600101Y-26931522D01*
X69542653Y-27054616D01*
X69499230Y-27150372D01*
X69380103Y-27394644D01*
X69259497Y-27600763D01*
X69134678Y-27772892D01*
X69002912Y-27915191D01*
X68986977Y-27930026D01*
X68849089Y-28038642D01*
X68691830Y-28133288D01*
X68530504Y-28205560D01*
X68427240Y-28237407D01*
X68313764Y-28255850D01*
X68176203Y-28264682D01*
X68031753Y-28263675D01*
X67897610Y-28252599D01*
X67849539Y-28245086D01*
X67754642Y-28223369D01*
X67653820Y-28194123D01*
X67609473Y-28178814D01*
X67493808Y-28135538D01*
X67507406Y-27487435D01*
X67530415Y-26744456D01*
X67567756Y-26015158D01*
X67619051Y-25301965D01*
X67683921Y-24607299D01*
X67761985Y-23933582D01*
X67852866Y-23283237D01*
X67956182Y-22658687D01*
X68071556Y-22062354D01*
X68198608Y-21496661D01*
X68336958Y-20964031D01*
X68486228Y-20466886D01*
X68646037Y-20007648D01*
X68700794Y-19865410D01*
X68882771Y-19438473D01*
X69075389Y-19052405D01*
X69278753Y-18707072D01*
X69492971Y-18402340D01*
X69718149Y-18138076D01*
X69954395Y-17914147D01*
X70201815Y-17730419D01*
X70460516Y-17586758D01*
X70559083Y-17543745D01*
X70628765Y-17517099D01*
X70688612Y-17499828D01*
X70751287Y-17490048D01*
X70829454Y-17485878D01*
X70935775Y-17485435D01*
X70950666Y-17485540D01*
X71063230Y-17487569D01*
X71147597Y-17493164D01*
X71217889Y-17504623D01*
X71288225Y-17524244D01*
X71372224Y-17554137D01*
X71552273Y-17633195D01*
X71717402Y-17731998D01*
X71878220Y-17857662D01*
X72010937Y-17982348D01*
X72201788Y-18198174D01*
X72384194Y-18454248D01*
X72557732Y-18749250D01*
X72721983Y-19081861D01*
X72876525Y-19450762D01*
X73020938Y-19854635D01*
X73154799Y-20292161D01*
X73277690Y-20762020D01*
X73389188Y-21262895D01*
X73488872Y-21793465D01*
X73576322Y-22352414D01*
X73651116Y-22938420D01*
X73680886Y-23214058D01*
X73694220Y-23349924D01*
X73705827Y-23478133D01*
X73715006Y-23590151D01*
X73721062Y-23677442D01*
X73723295Y-23731474D01*
X73723296Y-23732642D01*
X76507325Y-23732642D01*
X76475645Y-23581659D01*
X76403235Y-23236196D01*
X76328259Y-22878139D01*
X76284603Y-22669500D01*
X76208118Y-22304319D01*
X76133699Y-21949914D01*
X76061830Y-21608547D01*
X75992997Y-21282484D01*
X75927683Y-20973990D01*
X75866372Y-20685328D01*
X75809550Y-20418764D01*
X75757699Y-20176561D01*
X75711305Y-19960986D01*
X75670852Y-19774301D01*
X75636824Y-19618772D01*
X75609705Y-19496664D01*
X75589980Y-19410240D01*
X75578133Y-19361766D01*
X75575170Y-19352142D01*
X75557701Y-19322745D01*
X75518535Y-19261572D01*
X75459336Y-19171082D01*
X75381771Y-19053733D01*
X75287504Y-18911985D01*
X75178201Y-18748298D01*
X75055528Y-18565131D01*
X74921149Y-18364942D01*
X74776730Y-18150192D01*
X74623936Y-17923339D01*
X74464433Y-17686843D01*
X74299886Y-17443162D01*
X74131960Y-17194757D01*
X73962321Y-16944087D01*
X73792633Y-16693610D01*
X73624564Y-16445786D01*
X73459777Y-16203075D01*
X73299938Y-15967935D01*
X73146712Y-15742826D01*
X73001765Y-15530207D01*
X72866763Y-15332537D01*
X72743369Y-15152276D01*
X72633251Y-14991882D01*
X72538073Y-14853816D01*
X72459500Y-14740536D01*
X72399198Y-14654502D01*
X72358832Y-14598173D01*
X72340068Y-14574008D01*
X72339032Y-14573250D01*
X72315991Y-14579350D01*
G37*
X72315991Y-14579350D02*
X72256118Y-14596936D01*
X72162881Y-14624934D01*
X72039750Y-14662272D01*
X71890196Y-14707874D01*
X71717687Y-14760669D01*
X71525694Y-14819584D01*
X71317686Y-14883544D01*
X71097133Y-14951477D01*
X70867504Y-15022309D01*
X70632270Y-15094968D01*
X70394900Y-15168379D01*
X70158863Y-15241470D01*
X69927630Y-15313167D01*
X69704670Y-15382397D01*
X69493453Y-15448087D01*
X69297449Y-15509164D01*
X69120127Y-15564554D01*
X68964956Y-15613184D01*
X68835408Y-15653981D01*
X68734951Y-15685871D01*
X68667055Y-15707781D01*
X68635189Y-15718639D01*
X68633198Y-15719551D01*
X68622516Y-15738550D01*
X68592479Y-15793019D01*
X68544010Y-15881266D01*
X68478036Y-16001601D01*
X68395478Y-16152334D01*
X68297263Y-16331773D01*
X68184314Y-16538229D01*
X68057555Y-16770010D01*
X67917911Y-17025426D01*
X67766306Y-17302786D01*
X67603665Y-17600401D01*
X67430911Y-17916578D01*
X67248969Y-18249628D01*
X67058763Y-18597860D01*
X66861218Y-18959583D01*
X66657257Y-19333107D01*
X66447806Y-19716741D01*
X66419507Y-19768579D01*
X64213044Y-23810324D01*
X64120169Y-25261329D01*
X64027294Y-26712333D01*
X63131327Y-27611917D01*
X62235360Y-28511500D01*
X60975229Y-32247417D01*
X59715098Y-35983333D01*
X59609362Y-45610553D01*
X60795244Y-47481988D01*
X60956941Y-47737580D01*
X61111788Y-47983165D01*
X61258324Y-48216382D01*
X61395090Y-48434870D01*
X61520625Y-48636269D01*
X61633469Y-48818218D01*
X61732162Y-48978356D01*
X61815243Y-49114322D01*
X61881252Y-49223757D01*
X61928729Y-49304298D01*
X61956213Y-49353586D01*
X61962688Y-49369244D01*
X61940011Y-49388375D01*
X61891931Y-49428738D01*
X61825520Y-49484403D01*
X61748458Y-49548928D01*
X61672774Y-49613401D01*
X61610702Y-49668434D01*
X61568572Y-49708259D01*
X61552716Y-49727110D01*
X61552710Y-49727228D01*
X61570128Y-49740903D01*
X61620147Y-49774837D01*
X61699444Y-49826896D01*
X61804696Y-49894946D01*
X61932577Y-49976853D01*
X62079765Y-50070482D01*
X62242935Y-50173701D01*
X62418763Y-50284374D01*
X62493187Y-50331062D01*
X62674508Y-50445251D01*
X62843711Y-50552879D01*
X62997561Y-50651813D01*
X63132823Y-50739923D01*
X63246259Y-50815077D01*
X63334635Y-50875144D01*
X63394714Y-50917993D01*
X63423260Y-50941492D01*
X63425171Y-50944896D01*
X63417802Y-50970900D01*
X63401085Y-51032520D01*
X63376441Y-51124432D01*
X63345293Y-51241309D01*
X63309061Y-51377829D01*
X63269167Y-51528666D01*
X63257576Y-51572583D01*
X63098431Y-52175833D01*
X62228540Y-54059667D01*
X61358649Y-55943500D01*
X61096237Y-58869471D01*
X60833825Y-61795441D01*
X60279087Y-63965667D01*
X60222668Y-66329155D01*
X60166250Y-68692643D01*
X59319583Y-69890307D01*
X59129013Y-70159137D01*
X58961596Y-70393730D01*
X58817415Y-70593976D01*
X58696550Y-70759764D01*
X58599083Y-70890985D01*
X58525094Y-70987530D01*
X58474664Y-71049287D01*
X58447875Y-71076148D01*
X58444164Y-71077311D01*
X58421218Y-71064456D01*
X58365662Y-71031357D01*
X58280868Y-70980075D01*
X58170207Y-70912671D01*
X58037050Y-70831205D01*
X57884768Y-70737738D01*
X57716732Y-70634332D01*
X57536314Y-70523048D01*
X57424003Y-70453650D01*
X56432594Y-69840649D01*
X55180150Y-69586033D01*
X54954805Y-69540378D01*
X54740919Y-69497348D01*
X54542249Y-69457679D01*
X54362548Y-69422105D01*
X54205573Y-69391363D01*
X54075078Y-69366188D01*
X53974819Y-69347315D01*
X53908551Y-69335479D01*
X53880099Y-69331417D01*
X53852378Y-69339911D01*
X53790186Y-69364197D01*
X53697561Y-69402475D01*
X53578536Y-69452945D01*
X53437149Y-69513810D01*
X53277434Y-69583269D01*
X53103428Y-69659525D01*
X52919167Y-69740779D01*
X52728685Y-69825231D01*
X52536020Y-69911082D01*
X52345206Y-69996535D01*
X52160279Y-70079789D01*
X51985276Y-70159046D01*
X51824232Y-70232508D01*
X51681183Y-70298375D01*
X51560164Y-70354848D01*
X51465212Y-70400128D01*
X51400362Y-70432418D01*
X51369650Y-70449917D01*
X51368442Y-70450945D01*
X51352038Y-70472653D01*
X51313314Y-70527024D01*
X51253847Y-70611776D01*
X51175214Y-70724627D01*
X51078992Y-70863295D01*
X50966757Y-71025499D01*
X50840085Y-71208958D01*
X50700554Y-71411389D01*
X50549741Y-71630510D01*
X50389221Y-71864042D01*
X50220571Y-72109701D01*
X50045369Y-72365206D01*
X50014940Y-72409612D01*
X48696245Y-74334224D01*
X48330880Y-77849445D01*
X48291104Y-78232795D01*
X48252531Y-78605845D01*
X48215390Y-78966318D01*
X48179912Y-79311934D01*
X48146325Y-79640416D01*
X48114859Y-79949484D01*
X48085744Y-80236862D01*
X48059209Y-80500269D01*
X48035484Y-80737428D01*
X48014798Y-80946060D01*
X47997381Y-81123888D01*
X47983463Y-81268631D01*
X47973272Y-81378013D01*
X47967039Y-81449754D01*
X47964992Y-81481083D01*
X47967725Y-81517912D01*
X47975818Y-81593723D01*
X47988892Y-81705553D01*
X48006568Y-81850442D01*
X48028466Y-82025429D01*
X48054207Y-82227551D01*
X48083413Y-82453848D01*
X48115704Y-82701359D01*
X48150701Y-82967122D01*
X48188025Y-83248175D01*
X48227296Y-83541558D01*
X48257689Y-83767083D01*
X48550908Y-85936667D01*
X49866228Y-88324421D01*
X51181547Y-90712176D01*
X50965714Y-91181921D01*
X50905668Y-91312387D01*
X50851512Y-91429637D01*
X50805729Y-91528327D01*
X50770804Y-91603114D01*
X50749220Y-91648655D01*
X50743317Y-91660359D01*
X50722586Y-91666992D01*
X50663245Y-91684577D01*
X50567413Y-91712506D01*
X50437205Y-91750175D01*
X50274739Y-91796977D01*
X50082131Y-91852306D01*
X49861498Y-91915557D01*
X49614956Y-91986124D01*
X49344623Y-92063401D01*
X49052615Y-92146782D01*
X48741048Y-92235661D01*
X48412040Y-92329433D01*
X48067706Y-92427491D01*
X47710165Y-92529229D01*
X47341592Y-92634025D01*
X43946429Y-93599000D01*
X43184610Y-94583954D01*
X42422791Y-95568907D01*
X42335489Y-97123954D01*
X42321183Y-97378784D01*
X42307481Y-97622894D01*
X42294580Y-97852742D01*
X42282681Y-98064786D01*
X42271982Y-98255483D01*
X42262680Y-98421292D01*
X42254976Y-98558671D01*
X42249067Y-98664076D01*
X42245153Y-98733967D01*
X42243495Y-98763667D01*
X42238805Y-98848333D01*
X42651194Y-98874989D01*
X42722509Y-98879530D01*
X42833193Y-98886487D01*
X42980363Y-98895679D01*
X43161134Y-98906929D01*
X43372622Y-98920058D01*
X43611942Y-98934888D01*
X43876211Y-98951241D01*
X44162544Y-98968937D01*
X44468057Y-98987799D01*
X44789866Y-99007648D01*
X45125086Y-99028306D01*
X45470833Y-99049594D01*
X45824223Y-99071334D01*
X45977545Y-99080760D01*
X48891507Y-99259877D01*
X50856462Y-98104701D01*
X51121791Y-97948557D01*
X51377164Y-97797962D01*
X51620171Y-97654352D01*
X51848403Y-97519164D01*
X52059453Y-97393837D01*
X52250911Y-97279806D01*
X52420368Y-97178510D01*
X52565415Y-97091385D01*
X52683645Y-97019868D01*
X52772648Y-96965398D01*
X52830015Y-96929410D01*
X52853337Y-96913342D01*
X52853486Y-96913183D01*
X52866523Y-96887431D01*
X52893176Y-96825568D01*
X52932068Y-96731071D01*
X52981822Y-96607418D01*
X53041059Y-96458086D01*
X53108400Y-96286552D01*
X53182469Y-96096294D01*
X53261887Y-95890788D01*
X53345277Y-95673513D01*
X53360045Y-95634881D01*
X53834533Y-94392923D01*
X55103498Y-93191628D01*
X55301030Y-93004674D01*
X55491664Y-92824334D01*
X55672880Y-92652986D01*
X55842159Y-92493008D01*
X55996984Y-92346778D01*
X56134833Y-92216674D01*
X56253189Y-92105074D01*
X56349532Y-92014356D01*
X56421344Y-91946899D01*
X56466105Y-91905080D01*
X56476943Y-91895083D01*
X56581423Y-91799833D01*
X58180683Y-86254167D01*
X58400959Y-80560333D01*
X58877556Y-77311604D01*
X58931199Y-76946121D01*
X58983205Y-76592142D01*
X59033241Y-76251924D01*
X59080971Y-75927721D01*
X59126063Y-75621790D01*
X59168182Y-75336387D01*
X59206995Y-75073767D01*
X59242169Y-74836186D01*
X59273368Y-74625900D01*
X59300260Y-74445165D01*
X59322510Y-74296236D01*
X59339785Y-74181370D01*
X59351751Y-74102821D01*
X59358075Y-74062846D01*
X59359002Y-74058026D01*
X59363617Y-74076212D01*
X59373309Y-74130382D01*
X59387193Y-74214605D01*
X59404383Y-74322954D01*
X59423994Y-74449501D01*
X59445141Y-74588316D01*
X59466938Y-74733471D01*
X59488500Y-74879038D01*
X59508941Y-75019088D01*
X59527375Y-75147692D01*
X59542918Y-75258922D01*
X59554685Y-75346850D01*
X59561788Y-75405547D01*
X59563520Y-75427417D01*
X59560155Y-75454873D01*
X59550581Y-75521465D01*
X59535211Y-75624519D01*
X59514459Y-75761356D01*
X59488740Y-75929303D01*
X59458468Y-76125683D01*
X59424056Y-76347821D01*
X59385919Y-76593040D01*
X59344471Y-76858666D01*
X59300125Y-77142021D01*
X59253297Y-77440431D01*
X59204399Y-77751220D01*
X59180329Y-77903917D01*
X58798063Y-80327500D01*
X58723211Y-83650667D01*
X58648358Y-86973833D01*
X57781234Y-89471500D01*
X57672290Y-89784991D01*
X57566851Y-90087788D01*
X57465781Y-90377439D01*
X57369944Y-90651494D01*
X57280205Y-90907500D01*
X57197428Y-91143007D01*
X57122478Y-91355564D01*
X57056217Y-91542720D01*
X56999512Y-91702023D01*
X56953225Y-91831023D01*
X56918222Y-91927268D01*
X56895366Y-91988306D01*
X56885659Y-92011500D01*
X56866662Y-92033915D01*
X56821242Y-92084604D01*
X56751861Y-92160891D01*
X56660982Y-92260104D01*
X56551067Y-92379568D01*
X56424578Y-92516609D01*
X56283978Y-92668553D01*
X56131729Y-92832726D01*
X55970293Y-93006453D01*
X55894349Y-93088063D01*
X54931491Y-94122293D01*
X54429885Y-94903277D01*
X53928278Y-95684261D01*
X53962389Y-96790047D01*
X53969012Y-97007536D01*
X53975205Y-97216265D01*
X53980842Y-97411626D01*
X53985797Y-97589010D01*
X53989945Y-97743810D01*
X53993160Y-97871416D01*
X53995317Y-97967222D01*
X53996290Y-98026618D01*
X53996333Y-98036121D01*
X53996166Y-98176409D01*
X56165750Y-98961889D01*
X58224888Y-98479334D01*
X58512603Y-98411846D01*
X58788532Y-98347004D01*
X59049900Y-98285464D01*
X59293932Y-98227885D01*
X59517853Y-98174928D01*
X59718888Y-98127249D01*
X59894263Y-98085509D01*
X60041202Y-98050365D01*
X60156932Y-98022476D01*
X60238676Y-98002502D01*
X60283661Y-97991101D01*
X60291863Y-97988639D01*
X60300148Y-97968184D01*
X60322405Y-97910483D01*
X60357732Y-97817928D01*
X60405227Y-97692906D01*
X60463986Y-97537808D01*
X60533108Y-97355023D01*
X60611690Y-97146941D01*
X60698830Y-96915950D01*
X60793626Y-96664440D01*
X60895175Y-96394801D01*
X61002574Y-96109421D01*
X61114922Y-95810691D01*
X61225824Y-95515616D01*
X62151948Y-93050731D01*
X62561530Y-90635667D01*
X63561066Y-88307333D01*
X64560601Y-85979000D01*
X64931310Y-83100333D01*
X65302018Y-80221667D01*
X65529913Y-77575833D01*
X65564302Y-77177467D01*
X65595367Y-76819606D01*
X65623272Y-76500568D01*
X65648180Y-76218669D01*
X65670253Y-75972226D01*
X65689656Y-75759554D01*
X65706551Y-75578970D01*
X65721103Y-75428791D01*
X65733474Y-75307333D01*
X65743827Y-75212913D01*
X65752326Y-75143846D01*
X65759135Y-75098451D01*
X65764415Y-75075042D01*
X65768332Y-75071937D01*
X65771048Y-75087452D01*
X65771160Y-75088750D01*
X65773043Y-75130939D01*
X65775052Y-75212532D01*
X65777158Y-75330598D01*
X65779334Y-75482209D01*
X65781549Y-75664434D01*
X65783776Y-75874345D01*
X65785984Y-76109010D01*
X65788146Y-76365501D01*
X65790232Y-76640888D01*
X65792213Y-76932242D01*
X65794061Y-77236632D01*
X65795746Y-77551129D01*
X65796025Y-77607583D01*
X65807536Y-79967667D01*
X65396944Y-83343750D01*
X64986351Y-86719833D01*
X63874487Y-89012040D01*
X62762623Y-91304248D01*
X62731723Y-93694250D01*
X65555684Y-93694250D01*
X69295633Y-90756049D01*
X73035583Y-87817849D01*
X75347395Y-87153380D01*
X77659207Y-86488910D01*
X77669216Y-86403288D01*
X77670768Y-86373978D01*
X77673399Y-86304375D01*
X77677051Y-86196505D01*
X77681665Y-86052393D01*
X77687182Y-85874064D01*
X77693543Y-85663544D01*
X77700690Y-85422858D01*
X77708564Y-85154030D01*
X77717106Y-84859088D01*
X77726257Y-84540056D01*
X77735959Y-84198958D01*
X77746152Y-83837822D01*
X77756779Y-83458671D01*
X77767780Y-83063532D01*
X77779096Y-82654429D01*
X77790669Y-82233389D01*
X77798218Y-81957333D01*
X77809876Y-81530769D01*
X77821261Y-81115441D01*
X77832317Y-80713334D01*
X77842988Y-80326430D01*
X77853219Y-79956713D01*
X77862953Y-79606166D01*
X77872136Y-79276771D01*
X77880710Y-78970512D01*
X77888622Y-78689373D01*
X77895814Y-78435336D01*
X77902231Y-78210384D01*
X77907817Y-78016500D01*
X77912517Y-77855668D01*
X77916274Y-77729871D01*
X77919034Y-77641092D01*
X77920740Y-77591314D01*
X77921266Y-77580765D01*
X77922630Y-77600405D01*
X77926047Y-77660799D01*
X77931438Y-77760421D01*
X77938726Y-77897748D01*
X77947833Y-78071252D01*
X77958680Y-78279409D01*
X77971189Y-78520694D01*
X77985282Y-78793580D01*
X78000881Y-79096543D01*
X78017907Y-79428058D01*
X78036283Y-79786598D01*
X78055931Y-80170638D01*
X78076772Y-80578654D01*
X78098728Y-81009119D01*
X78121722Y-81460509D01*
X78145674Y-81931297D01*
X78170506Y-82419959D01*
X78196142Y-82924970D01*
X78222502Y-83444803D01*
X78249508Y-83977933D01*
X78277082Y-84522835D01*
X78291026Y-84798598D01*
X78656729Y-92032667D01*
X78764035Y-98657833D01*
X78457485Y-100118333D01*
X78406450Y-100361652D01*
X78357875Y-100593574D01*
X78312477Y-100810655D01*
X78270972Y-101009453D01*
X78234077Y-101186524D01*
X78202510Y-101338427D01*
X78176987Y-101461717D01*
X78158224Y-101552952D01*
X78146938Y-101608689D01*
X78143843Y-101624923D01*
X78152636Y-101653567D01*
X78181921Y-101718178D01*
X78231262Y-101817925D01*
X78300223Y-101951977D01*
X78388369Y-102119502D01*
X78495263Y-102319670D01*
X78620471Y-102551649D01*
X78763555Y-102814607D01*
X78856416Y-102984371D01*
X79576083Y-104297729D01*
X79692500Y-104295068D01*
X79768880Y-104292168D01*
X79835582Y-104287695D01*
X79861833Y-104284853D01*
X79889855Y-104282005D01*
X79957184Y-104275747D01*
X80060951Y-104266334D01*
X80198288Y-104254018D01*
X80366327Y-104239054D01*
X80562200Y-104221695D01*
X80783038Y-104202196D01*
X81025974Y-104180809D01*
X81288139Y-104157790D01*
X81566665Y-104133391D01*
X81858684Y-104107866D01*
X82093411Y-104087388D01*
X82393013Y-104061129D01*
X82680705Y-104035636D01*
X82953683Y-104011172D01*
X83209146Y-103987999D01*
X83444291Y-103966383D01*
X83656315Y-103946586D01*
X83842417Y-103928873D01*
X83999793Y-103913505D01*
X84125642Y-103900748D01*
X84217161Y-103890865D01*
X84271547Y-103884119D01*
X84286439Y-103881156D01*
X84301085Y-103861746D01*
X84338693Y-103811018D01*
X84397187Y-103731791D01*
X84474493Y-103626884D01*
X84568538Y-103499115D01*
X84677246Y-103351304D01*
X84798544Y-103186269D01*
X84930356Y-103006830D01*
X85070610Y-102815806D01*
X85155115Y-102700667D01*
X85317418Y-102478827D01*
X85466239Y-102274073D01*
X85600105Y-102088495D01*
X85717541Y-101924180D01*
X85817073Y-101783216D01*
X85897227Y-101667693D01*
X85956528Y-101579699D01*
X85993504Y-101521322D01*
X86006680Y-101494650D01*
X86006686Y-101494167D01*
X86000204Y-101469494D01*
X85981831Y-101406606D01*
X85952248Y-101307711D01*
X85912131Y-101175019D01*
X85862159Y-101010738D01*
X85803008Y-100817077D01*
X85735359Y-100596246D01*
X85659887Y-100350454D01*
X85577271Y-100081909D01*
X85488190Y-99792821D01*
X85393321Y-99485399D01*
X85293341Y-99161852D01*
X85188929Y-98824389D01*
X85080763Y-98475220D01*
X85029060Y-98308465D01*
X84054171Y-95165097D01*
X83831251Y-92635798D01*
X83608332Y-90106500D01*
X84036768Y-84969866D01*
X84075362Y-84507497D01*
X84113075Y-84056360D01*
X84149754Y-83618263D01*
X84185245Y-83195012D01*
X84219396Y-82788414D01*
X84252053Y-82400275D01*
X84283062Y-82032403D01*
X84312272Y-81686604D01*
X84339528Y-81364684D01*
X84364677Y-81068450D01*
X84387566Y-80799710D01*
X84408043Y-80560268D01*
X84425953Y-80351934D01*
X84441144Y-80176511D01*
X84453462Y-80035809D01*
X84462755Y-79931633D01*
X84468868Y-79865789D01*
X84471649Y-79840085D01*
X84471761Y-79839788D01*
X84471478Y-79861264D01*
X84469343Y-79922976D01*
X84465445Y-80022873D01*
X84459875Y-80158901D01*
X84452722Y-80329007D01*
X84444078Y-80531141D01*
X84434030Y-80763250D01*
X84422671Y-81023280D01*
X84410089Y-81309180D01*
X84396374Y-81618897D01*
X84381618Y-81950379D01*
X84365909Y-82301573D01*
X84349338Y-82670428D01*
X84331995Y-83054890D01*
X84313970Y-83452908D01*
X84295352Y-83862428D01*
X84294263Y-83886338D01*
X84110210Y-87926333D01*
X84331984Y-90757365D01*
X84358864Y-91099594D01*
X84384967Y-91430142D01*
X84410092Y-91746559D01*
X84434037Y-92046392D01*
X84456604Y-92327190D01*
X84477591Y-92586501D01*
X84496798Y-92821875D01*
X84514025Y-93030859D01*
X84529070Y-93211001D01*
X84541734Y-93359851D01*
X84551816Y-93474957D01*
X84559115Y-93553867D01*
X84563432Y-93594130D01*
X84564350Y-93598989D01*
X84586797Y-93601034D01*
X84648010Y-93603378D01*
X84744428Y-93605956D01*
X84872484Y-93608706D01*
X85028615Y-93611563D01*
X85209258Y-93614463D01*
X85410847Y-93617344D01*
X85629818Y-93620141D01*
X85862608Y-93622790D01*
X85940737Y-93623609D01*
X87306530Y-93637636D01*
X88637723Y-92445734D01*
X88841011Y-92263687D01*
X89036003Y-92089013D01*
X89220283Y-91923877D01*
X89391438Y-91770446D01*
X89547053Y-91630885D01*
X89684714Y-91507360D01*
X89802008Y-91402039D01*
X89896519Y-91317085D01*
X89965834Y-91254667D01*
X90007538Y-91216949D01*
X90018547Y-91206846D01*
X90068178Y-91159860D01*
X89842300Y-89035239D01*
X89810879Y-88739987D01*
X89780683Y-88456837D01*
X89752015Y-88188600D01*
X89725180Y-87938085D01*
X89700479Y-87708105D01*
X89678217Y-87501470D01*
X89658696Y-87320992D01*
X89642219Y-87169480D01*
X89629091Y-87049747D01*
X89619614Y-86964602D01*
X89614091Y-86916857D01*
X89612753Y-86907191D01*
X89592607Y-86899868D01*
X89536461Y-86880306D01*
X89448394Y-86849903D01*
X89332480Y-86810059D01*
X89192798Y-86762175D01*
X89033423Y-86707650D01*
X88858433Y-86647883D01*
X88731643Y-86604637D01*
X88548161Y-86541989D01*
X88377393Y-86483496D01*
X88223436Y-86430575D01*
X88090386Y-86384643D01*
X87982339Y-86347114D01*
X87903391Y-86319408D01*
X87857638Y-86302939D01*
X87847575Y-86298880D01*
X87842474Y-86277084D01*
X87830591Y-86216943D01*
X87812526Y-86121794D01*
X87788877Y-85994979D01*
X87760244Y-85839834D01*
X87727225Y-85659701D01*
X87690421Y-85457917D01*
X87650431Y-85237823D01*
X87607852Y-85002756D01*
X87563286Y-84756057D01*
X87517331Y-84501064D01*
X87470586Y-84241116D01*
X87423651Y-83979553D01*
X87377124Y-83719714D01*
X87331605Y-83464938D01*
X87287694Y-83218563D01*
X87245989Y-82983930D01*
X87207090Y-82764377D01*
X87171595Y-82563243D01*
X87140105Y-82383868D01*
X87113217Y-82229590D01*
X87091533Y-82103749D01*
X87075650Y-82009684D01*
X87066168Y-81950733D01*
X87063618Y-81930363D01*
X87078766Y-81910749D01*
X87120682Y-81863089D01*
X87186941Y-81789995D01*
X87275116Y-81694078D01*
X87382785Y-81577950D01*
X87507520Y-81444223D01*
X87646898Y-81295509D01*
X87798494Y-81134419D01*
X87959881Y-80963565D01*
X88031349Y-80888101D01*
X88993614Y-79872810D01*
X89100311Y-79618417D01*
X84493991Y-79618417D01*
X84490665Y-79648465D01*
X84483315Y-79644875D01*
X84480519Y-79601539D01*
X84483315Y-79591958D01*
X84491041Y-79589299D01*
X84493991Y-79618417D01*
X89100311Y-79618417D01*
X89675976Y-78245890D01*
X90358337Y-76618971D01*
X90489878Y-75245319D01*
X90621418Y-73871667D01*
X90385198Y-65272447D01*
X89716902Y-63909973D01*
X89048605Y-62547500D01*
X89027430Y-60864750D01*
X89023985Y-60582718D01*
X89020716Y-60299042D01*
X89017669Y-60018647D01*
X89014889Y-59746454D01*
X89012421Y-59487389D01*
X89010309Y-59246373D01*
X89008600Y-59028331D01*
X89007339Y-58838186D01*
X89006570Y-58680860D01*
X89006338Y-58568167D01*
X89006420Y-57954333D01*
X89516295Y-57689750D01*
X89651069Y-57619201D01*
X89773132Y-57554135D01*
X89877520Y-57497292D01*
X89959267Y-57451414D01*
X90013411Y-57419240D01*
X90034985Y-57403513D01*
X90035082Y-57403313D01*
X90031561Y-57379900D01*
X90018797Y-57321672D01*
X89998343Y-57234749D01*
X89971753Y-57125250D01*
X89940577Y-56999294D01*
X89906370Y-56863001D01*
X89870684Y-56722488D01*
X89835071Y-56583877D01*
X89801085Y-56453286D01*
X89770277Y-56336833D01*
X89744202Y-56240640D01*
X89724410Y-56170824D01*
X89713785Y-56137060D01*
X89729271Y-56120855D01*
X89777355Y-56085911D01*
X89854048Y-56034785D01*
X89955362Y-55970038D01*
X90077311Y-55894229D01*
X90215905Y-55809916D01*
X90328753Y-55742417D01*
X90475599Y-55654491D01*
X90610157Y-55572565D01*
X90728237Y-55499297D01*
X90825648Y-55437342D01*
X90898201Y-55389357D01*
X90941706Y-55357999D01*
X90952781Y-55346742D01*
X90937433Y-55315875D01*
X90912632Y-55293092D01*
X90889321Y-55272540D01*
X90839276Y-55225412D01*
X90765826Y-55154938D01*
X90672298Y-55064348D01*
X90562020Y-54956873D01*
X90438321Y-54835741D01*
X90304528Y-54704184D01*
X90224906Y-54625651D01*
X89577716Y-53986602D01*
X89958816Y-53664175D01*
X90065838Y-53572780D01*
X90160776Y-53490073D01*
X90239222Y-53420028D01*
X90296768Y-53366621D01*
X90329008Y-53333826D01*
X90334333Y-53325516D01*
X90317487Y-53308007D01*
X90270193Y-53265345D01*
X90192138Y-53197261D01*
X90083006Y-53103486D01*
X89942485Y-52983751D01*
X89770258Y-52837788D01*
X89566013Y-52665327D01*
X89362677Y-52494065D01*
X89299271Y-52440713D01*
X89483355Y-52049136D01*
X89550194Y-51904745D01*
X89598709Y-51794505D01*
X89630201Y-51715056D01*
X89645970Y-51663038D01*
X89647314Y-51635092D01*
X89645138Y-51630946D01*
X89619984Y-51613683D01*
X89562955Y-51581180D01*
X89480226Y-51536746D01*
X89377975Y-51483688D01*
X89262380Y-51425314D01*
X89245270Y-51416800D01*
X88867703Y-51229266D01*
X88469705Y-49157788D01*
X89020124Y-47163969D01*
X89570543Y-45170149D01*
X89045631Y-43595729D01*
X88870874Y-43071561D01*
X83165842Y-43071561D01*
X83153733Y-43824280D01*
X83150393Y-44020233D01*
X83146625Y-44221476D01*
X83142613Y-44419384D01*
X83138543Y-44605334D01*
X83134600Y-44770703D01*
X83130970Y-44906867D01*
X83129261Y-44963452D01*
X83116897Y-45349904D01*
X82124365Y-46250582D01*
X81951017Y-46408119D01*
X81787291Y-46557362D01*
X81635831Y-46695871D01*
X81499280Y-46821205D01*
X81380284Y-46930927D01*
X81281486Y-47022597D01*
X81205529Y-47093774D01*
X81155058Y-47142021D01*
X81132716Y-47164897D01*
X81131833Y-47166335D01*
X81147775Y-47183929D01*
X81191516Y-47221782D01*
X81256923Y-47274832D01*
X81337867Y-47338021D01*
X81364666Y-47358505D01*
X81597500Y-47535600D01*
X81595390Y-47918967D01*
X81593969Y-48045248D01*
X81591326Y-48159445D01*
X81587748Y-48253754D01*
X81583523Y-48320372D01*
X81579515Y-48349832D01*
X81560946Y-48375090D01*
X81514908Y-48413094D01*
X81439014Y-48465471D01*
X81330879Y-48533849D01*
X81188116Y-48619854D01*
X81153000Y-48640609D01*
X80740250Y-48883886D01*
X80359250Y-48871773D01*
X80250982Y-48868363D01*
X80107737Y-48863902D01*
X79936853Y-48858616D01*
X79745668Y-48852729D01*
X79541518Y-48846469D01*
X79331741Y-48840061D01*
X79123675Y-48833730D01*
X79099833Y-48833007D01*
X78221416Y-48806354D01*
X76955916Y-48173344D01*
X76690373Y-48040239D01*
X76460889Y-47924576D01*
X76265454Y-47825287D01*
X76102052Y-47741307D01*
X75968672Y-47671569D01*
X75863301Y-47615006D01*
X75783926Y-47570552D01*
X75728534Y-47537140D01*
X75695111Y-47513704D01*
X75681646Y-47499177D01*
X75681279Y-47498000D01*
X75677113Y-47460486D01*
X75672788Y-47391054D01*
X75668854Y-47300115D01*
X75666196Y-47212400D01*
X75660250Y-46969133D01*
X77459416Y-46877055D01*
X77731261Y-46863104D01*
X77990717Y-46849715D01*
X78234709Y-46837049D01*
X78460160Y-46825271D01*
X78663994Y-46814544D01*
X78843135Y-46805030D01*
X78994507Y-46796893D01*
X79115033Y-46790297D01*
X79201637Y-46785403D01*
X79251243Y-46782376D01*
X79262321Y-46781445D01*
X79256918Y-46761330D01*
X79239672Y-46707253D01*
X79212585Y-46625258D01*
X79177658Y-46521391D01*
X79136892Y-46401695D01*
X79128066Y-46375957D01*
X79081143Y-46237567D01*
X79044556Y-46123663D01*
X79015776Y-46023579D01*
X78992277Y-45926652D01*
X78971531Y-45822218D01*
X78951011Y-45699612D01*
X78928189Y-45548170D01*
X78922269Y-45507591D01*
X78854464Y-45041181D01*
X78132718Y-44044207D01*
X78142966Y-43351753D01*
X78153213Y-42659300D01*
X78727065Y-42204263D01*
X79300916Y-41749226D01*
X79438500Y-41760439D01*
X79484611Y-41763268D01*
X79568798Y-41767454D01*
X79686831Y-41772821D01*
X79834479Y-41779192D01*
X80007512Y-41786391D01*
X80201701Y-41794242D01*
X80412815Y-41802568D01*
X80636625Y-41811193D01*
X80832674Y-41818589D01*
X82089264Y-41865526D01*
X82627553Y-42468544D01*
X83165842Y-43071561D01*
X88870874Y-43071561D01*
X88520720Y-42021309D01*
X89518999Y-39787596D01*
X90144585Y-38387808D01*
X85244845Y-38387808D01*
X85219506Y-38624904D01*
X85179246Y-38921558D01*
X85122857Y-39217634D01*
X85052635Y-39504610D01*
X84970873Y-39773966D01*
X84879866Y-40017181D01*
X84795356Y-40200107D01*
X84667042Y-40420269D01*
X84529594Y-40601147D01*
X84383744Y-40742301D01*
X84230225Y-40843289D01*
X84069766Y-40903669D01*
X83903100Y-40922999D01*
X83730959Y-40900839D01*
X83665874Y-40881985D01*
X83485666Y-40804881D01*
X83292792Y-40690079D01*
X83089285Y-40539581D01*
X82877177Y-40355388D01*
X82658500Y-40139501D01*
X82435288Y-39893923D01*
X82209572Y-39620654D01*
X81983387Y-39321697D01*
X81768574Y-39013702D01*
X81657339Y-38847903D01*
X81736671Y-38727952D01*
X81876755Y-38529771D01*
X82034332Y-38330376D01*
X82201920Y-38138041D01*
X82372038Y-37961043D01*
X82537204Y-37807658D01*
X82655833Y-37711202D01*
X82844539Y-37583514D01*
X83042569Y-37475941D01*
X83237225Y-37395009D01*
X83322763Y-37368352D01*
X83408081Y-37347209D01*
X83485193Y-37334649D01*
X83568559Y-37329406D01*
X83672638Y-37330219D01*
X83734316Y-37332394D01*
X83899752Y-37345445D01*
X84043454Y-37372870D01*
X84179126Y-37419031D01*
X84320468Y-37488289D01*
X84433574Y-37554989D01*
X84539256Y-37629945D01*
X84660583Y-37731358D01*
X84789014Y-37850941D01*
X84916008Y-37980407D01*
X85033023Y-38111470D01*
X85121847Y-38222737D01*
X85244845Y-38387808D01*
X90144585Y-38387808D01*
X90517279Y-37553884D01*
X90280977Y-36607726D01*
X90136244Y-36028210D01*
X76856166Y-36028210D01*
X76850319Y-36054360D01*
X76833598Y-36116780D01*
X76807232Y-36211173D01*
X76772451Y-36333244D01*
X76730485Y-36478695D01*
X76682564Y-36643231D01*
X76629917Y-36822555D01*
X76593448Y-36946014D01*
X76529279Y-37162196D01*
X76475367Y-37342146D01*
X76430172Y-37490287D01*
X76392153Y-37611042D01*
X76359768Y-37708833D01*
X76331475Y-37788084D01*
X76305735Y-37853218D01*
X76281005Y-37908659D01*
X76255743Y-37958829D01*
X76228410Y-38008151D01*
X76215673Y-38030137D01*
X76156101Y-38132222D01*
X76093125Y-38240396D01*
X76036741Y-38337482D01*
X76014914Y-38375167D01*
X75929213Y-38523333D01*
X75688898Y-38517659D01*
X75622919Y-38516073D01*
X75519344Y-38513545D01*
X75382898Y-38510193D01*
X75218305Y-38506133D01*
X75030289Y-38501482D01*
X74823574Y-38496357D01*
X74602886Y-38490875D01*
X74372948Y-38485152D01*
X74210333Y-38481099D01*
X72972083Y-38450212D01*
X72374125Y-37846521D01*
X71776166Y-37242831D01*
X71776166Y-36088345D01*
X72100158Y-35871690D01*
X72497866Y-35627080D01*
X72899492Y-35422269D01*
X73303344Y-35258001D01*
X73707728Y-35135022D01*
X73850500Y-35101563D01*
X73933003Y-35084880D01*
X74010020Y-35072494D01*
X74090175Y-35063795D01*
X74182091Y-35058171D01*
X74294392Y-35055012D01*
X74435701Y-35053705D01*
X74527833Y-35053555D01*
X74688940Y-35054128D01*
X74816062Y-35056229D01*
X74917538Y-35060438D01*
X75001706Y-35067335D01*
X75076905Y-35077497D01*
X75151473Y-35091506D01*
X75187868Y-35099403D01*
X75558539Y-35203366D01*
X75912808Y-35345306D01*
X76247294Y-35523788D01*
X76368739Y-35601047D01*
X76470075Y-35672020D01*
X76570638Y-35748526D01*
X76664519Y-35825385D01*
X76745808Y-35897418D01*
X76808593Y-35959445D01*
X76846964Y-36006287D01*
X76856166Y-36028210D01*
X90136244Y-36028210D01*
X90044676Y-35661569D01*
X90201535Y-35008434D01*
X90246494Y-34819642D01*
X90281651Y-34667961D01*
X90307753Y-34549503D01*
X90325545Y-34460381D01*
X90335772Y-34396708D01*
X90339181Y-34354597D01*
X90336516Y-34330158D01*
X90332988Y-34323157D01*
X90315740Y-34302830D01*
X90272737Y-34252766D01*
X90205935Y-34175230D01*
X90117291Y-34072489D01*
X90008764Y-33946805D01*
X89882310Y-33800446D01*
X89739886Y-33635675D01*
X89583449Y-33454759D01*
X89414957Y-33259961D01*
X89236367Y-33053548D01*
X89049636Y-32837783D01*
X88997101Y-32777090D01*
X88808412Y-32559102D01*
X88627271Y-32349819D01*
X88455639Y-32151508D01*
X88295479Y-31966438D01*
X88148754Y-31796878D01*
X88017425Y-31645094D01*
X87903456Y-31513356D01*
X87808809Y-31403932D01*
X87735445Y-31319089D01*
X87685329Y-31261096D01*
X87660422Y-31232222D01*
X87658260Y-31229696D01*
X87651992Y-31215906D01*
X87649529Y-31190864D01*
X87651448Y-31150806D01*
X87658322Y-31091969D01*
X87670728Y-31010590D01*
X87689241Y-30902907D01*
X87714437Y-30765156D01*
X87746890Y-30593574D01*
X87787176Y-30384398D01*
X87788701Y-30376522D01*
X87947500Y-29556818D01*
X87947500Y-22893800D01*
X87138995Y-22893800D01*
X87138750Y-22954993D01*
X87137589Y-23032846D01*
X87135464Y-23129353D01*
X87132327Y-23246506D01*
X87128130Y-23386300D01*
X87122823Y-23550728D01*
X87116359Y-23741784D01*
X87108689Y-23961461D01*
X87099764Y-24211754D01*
X87089537Y-24494656D01*
X87077958Y-24812160D01*
X87064980Y-25166261D01*
X87050553Y-25558952D01*
X87036893Y-25930636D01*
X86930619Y-28822927D01*
X86883434Y-28861913D01*
X86777669Y-28933487D01*
X86650171Y-28995866D01*
X86516593Y-29042825D01*
X86392589Y-29068139D01*
X86358596Y-29070616D01*
X86308012Y-29067865D01*
X86234754Y-29058877D01*
X86178679Y-29049793D01*
X85986937Y-28995207D01*
X85788232Y-28899605D01*
X85583248Y-28763608D01*
X85372667Y-28587837D01*
X85157170Y-28372914D01*
X84937441Y-28119459D01*
X84714161Y-27828095D01*
X84506299Y-27527250D01*
X84430539Y-27409995D01*
X84350866Y-27282322D01*
X84270435Y-27149741D01*
X84192403Y-27017763D01*
X84119926Y-26891899D01*
X84056160Y-26777661D01*
X84004260Y-26680559D01*
X83967382Y-26606104D01*
X83948684Y-26559808D01*
X83947000Y-26550577D01*
X83952812Y-26506908D01*
X83968849Y-26430607D01*
X83993017Y-26329545D01*
X84023218Y-26211590D01*
X84057357Y-26084611D01*
X84093337Y-25956478D01*
X84129062Y-25835060D01*
X84162435Y-25728226D01*
X84180193Y-25675167D01*
X84291645Y-25388151D01*
X84428322Y-25093270D01*
X84583982Y-24801895D01*
X84752384Y-24525395D01*
X84927286Y-24275142D01*
X84999303Y-24182917D01*
X85199569Y-23955624D01*
X85428418Y-23730527D01*
X85674656Y-23517409D01*
X85927088Y-23326058D01*
X86136342Y-23188934D01*
X86256358Y-23120276D01*
X86390276Y-23050104D01*
X86531157Y-22981429D01*
X86672064Y-22917263D01*
X86806058Y-22860615D01*
X86926202Y-22814497D01*
X87025557Y-22781920D01*
X87097185Y-22765894D01*
X87113825Y-22764750D01*
X87119157Y-22764440D01*
X87123962Y-22764841D01*
X87128190Y-22767945D01*
X87131794Y-22775746D01*
X87134725Y-22790239D01*
X87136935Y-22813416D01*
X87138374Y-22847272D01*
X87138995Y-22893800D01*
X87947500Y-22893800D01*
X87947500Y-19801417D01*
X85142916Y-19802521D01*
X82467914Y-23029886D01*
X82201070Y-23351749D01*
X81941391Y-23664810D01*
X81690169Y-23967517D01*
X81448696Y-24258320D01*
X81218265Y-24535667D01*
X81000168Y-24798007D01*
X80795697Y-25043789D01*
X80606143Y-25271462D01*
X80432800Y-25479475D01*
X80276960Y-25666277D01*
X80139914Y-25830316D01*
X80022955Y-25970041D01*
X79927375Y-26083902D01*
X79854466Y-26170347D01*
X79805520Y-26227826D01*
X79781830Y-26254786D01*
X79779747Y-26256725D01*
X79748913Y-26253988D01*
X79681257Y-26246975D01*
X79580997Y-26236166D01*
X79452352Y-26222042D01*
X79299541Y-26205083D01*
X79126780Y-26185770D01*
X78938288Y-26164582D01*
X78738284Y-26142001D01*
X78530986Y-26118506D01*
X78320611Y-26094578D01*
X78111378Y-26070697D01*
X77907506Y-26047344D01*
X77713211Y-26024999D01*
X77532713Y-26004142D01*
X77370229Y-25985254D01*
X77229978Y-25968815D01*
X77116177Y-25955305D01*
X77033046Y-25945205D01*
X76984802Y-25938995D01*
X76974045Y-25937217D01*
X76968938Y-25915955D01*
X76955648Y-25855473D01*
X76934642Y-25757988D01*
X76906389Y-25625720D01*
X76871357Y-25460888D01*
X76830014Y-25265711D01*
X76782829Y-25042408D01*
X76730269Y-24793197D01*
X76672802Y-24520298D01*
X76610897Y-24225929D01*
X76545022Y-23912310D01*
X76507325Y-23732642D01*
X73723296Y-23732642D01*
X73723091Y-23833667D01*
X73495754Y-23936579D01*
X73364654Y-23998264D01*
X73205445Y-24076928D01*
X73026537Y-24168140D01*
X72836339Y-24267464D01*
X72643261Y-24370468D01*
X72455711Y-24472716D01*
X72282099Y-24569776D01*
X72146583Y-24647931D01*
X71750832Y-24889835D01*
X71379860Y-25135380D01*
X71036149Y-25382556D01*
X70722184Y-25629353D01*
X70440448Y-25873762D01*
X70193423Y-26113771D01*
X69983595Y-26347371D01*
X69873498Y-26487795D01*
X69803229Y-26584507D01*
X69745986Y-26667976D01*
X69696537Y-26747462D01*
X69649652Y-26832225D01*
X69600101Y-26931522D01*
X69542653Y-27054616D01*
X69499230Y-27150372D01*
X69380103Y-27394644D01*
X69259497Y-27600763D01*
X69134678Y-27772892D01*
X69002912Y-27915191D01*
X68986977Y-27930026D01*
X68849089Y-28038642D01*
X68691830Y-28133288D01*
X68530504Y-28205560D01*
X68427240Y-28237407D01*
X68313764Y-28255850D01*
X68176203Y-28264682D01*
X68031753Y-28263675D01*
X67897610Y-28252599D01*
X67849539Y-28245086D01*
X67754642Y-28223369D01*
X67653820Y-28194123D01*
X67609473Y-28178814D01*
X67493808Y-28135538D01*
X67507406Y-27487435D01*
X67530415Y-26744456D01*
X67567756Y-26015158D01*
X67619051Y-25301965D01*
X67683921Y-24607299D01*
X67761985Y-23933582D01*
X67852866Y-23283237D01*
X67956182Y-22658687D01*
X68071556Y-22062354D01*
X68198608Y-21496661D01*
X68336958Y-20964031D01*
X68486228Y-20466886D01*
X68646037Y-20007648D01*
X68700794Y-19865410D01*
X68882771Y-19438473D01*
X69075389Y-19052405D01*
X69278753Y-18707072D01*
X69492971Y-18402340D01*
X69718149Y-18138076D01*
X69954395Y-17914147D01*
X70201815Y-17730419D01*
X70460516Y-17586758D01*
X70559083Y-17543745D01*
X70628765Y-17517099D01*
X70688612Y-17499828D01*
X70751287Y-17490048D01*
X70829454Y-17485878D01*
X70935775Y-17485435D01*
X70950666Y-17485540D01*
X71063230Y-17487569D01*
X71147597Y-17493164D01*
X71217889Y-17504623D01*
X71288225Y-17524244D01*
X71372224Y-17554137D01*
X71552273Y-17633195D01*
X71717402Y-17731998D01*
X71878220Y-17857662D01*
X72010937Y-17982348D01*
X72201788Y-18198174D01*
X72384194Y-18454248D01*
X72557732Y-18749250D01*
X72721983Y-19081861D01*
X72876525Y-19450762D01*
X73020938Y-19854635D01*
X73154799Y-20292161D01*
X73277690Y-20762020D01*
X73389188Y-21262895D01*
X73488872Y-21793465D01*
X73576322Y-22352414D01*
X73651116Y-22938420D01*
X73680886Y-23214058D01*
X73694220Y-23349924D01*
X73705827Y-23478133D01*
X73715006Y-23590151D01*
X73721062Y-23677442D01*
X73723295Y-23731474D01*
X73723296Y-23732642D01*
X76507325Y-23732642D01*
X76475645Y-23581659D01*
X76403235Y-23236196D01*
X76328259Y-22878139D01*
X76284603Y-22669500D01*
X76208118Y-22304319D01*
X76133699Y-21949914D01*
X76061830Y-21608547D01*
X75992997Y-21282484D01*
X75927683Y-20973990D01*
X75866372Y-20685328D01*
X75809550Y-20418764D01*
X75757699Y-20176561D01*
X75711305Y-19960986D01*
X75670852Y-19774301D01*
X75636824Y-19618772D01*
X75609705Y-19496664D01*
X75589980Y-19410240D01*
X75578133Y-19361766D01*
X75575170Y-19352142D01*
X75557701Y-19322745D01*
X75518535Y-19261572D01*
X75459336Y-19171082D01*
X75381771Y-19053733D01*
X75287504Y-18911985D01*
X75178201Y-18748298D01*
X75055528Y-18565131D01*
X74921149Y-18364942D01*
X74776730Y-18150192D01*
X74623936Y-17923339D01*
X74464433Y-17686843D01*
X74299886Y-17443162D01*
X74131960Y-17194757D01*
X73962321Y-16944087D01*
X73792633Y-16693610D01*
X73624564Y-16445786D01*
X73459777Y-16203075D01*
X73299938Y-15967935D01*
X73146712Y-15742826D01*
X73001765Y-15530207D01*
X72866763Y-15332537D01*
X72743369Y-15152276D01*
X72633251Y-14991882D01*
X72538073Y-14853816D01*
X72459500Y-14740536D01*
X72399198Y-14654502D01*
X72358832Y-14598173D01*
X72340068Y-14574008D01*
X72339032Y-14573250D01*
X72315991Y-14579350D01*
D11*
X123825000Y-15716250D02*
X126365000Y-15716250D01*
X108585000Y-13176250D02*
X126365000Y-13176250D01*
X126365000Y-13176250D02*
X126365000Y-46196250D01*
X126365000Y-46196250D02*
X108585000Y-46196250D01*
X108585000Y-46196250D02*
X108585000Y-13176250D01*
D12*
G36*
X111630365Y-21605280D02*
G01*
X111630365Y-21705280D01*
X111130365Y-21705280D01*
X111130365Y-21605280D01*
X111630365Y-21605280D01*
G37*
X111630365Y-21605280D02*
X111630365Y-21705280D01*
X111130365Y-21705280D01*
X111130365Y-21605280D01*
X111630365Y-21605280D01*
G36*
X111630365Y-21605280D02*
G01*
X111630365Y-21905280D01*
X111530365Y-21905280D01*
X111530365Y-21605280D01*
X111630365Y-21605280D01*
G37*
X111630365Y-21605280D02*
X111630365Y-21905280D01*
X111530365Y-21905280D01*
X111530365Y-21605280D01*
X111630365Y-21605280D01*
G36*
X111630365Y-22205280D02*
G01*
X111630365Y-22405280D01*
X111530365Y-22405280D01*
X111530365Y-22205280D01*
X111630365Y-22205280D01*
G37*
X111630365Y-22205280D02*
X111630365Y-22405280D01*
X111530365Y-22405280D01*
X111530365Y-22205280D01*
X111630365Y-22205280D01*
G36*
X111230365Y-21605280D02*
G01*
X111230365Y-22405280D01*
X111130365Y-22405280D01*
X111130365Y-21605280D01*
X111230365Y-21605280D01*
G37*
X111230365Y-21605280D02*
X111230365Y-22405280D01*
X111130365Y-22405280D01*
X111130365Y-21605280D01*
X111230365Y-21605280D01*
G36*
X111430365Y-22005280D02*
G01*
X111430365Y-22105280D01*
X111330365Y-22105280D01*
X111330365Y-22005280D01*
X111430365Y-22005280D01*
G37*
X111430365Y-22005280D02*
X111430365Y-22105280D01*
X111330365Y-22105280D01*
X111330365Y-22005280D01*
X111430365Y-22005280D01*
D11*
X123825000Y-15716250D02*
X123825000Y-18256250D01*
X123825000Y-18256250D02*
X126365000Y-18256250D01*
D12*
X86300000Y-29150000D02*
X91500000Y-29150000D01*
X91500000Y-29150000D02*
X91500000Y-34350000D01*
X91500000Y-34350000D02*
X86300000Y-34350000D01*
X86300000Y-34350000D02*
X86300000Y-29150000D01*
X89900000Y-31750000D02*
G75*
G03*
X89900000Y-31750000I-1000000J0D01*
G01*
D13*
X201812500Y-83475000D02*
X201812500Y-83075000D01*
X201412500Y-83075000D01*
X201412500Y-83475000D01*
X201812500Y-83475000D01*
X201412500Y-75475000D02*
G75*
G03*
X201412500Y-75475000I200000J0D01*
G01*
X125447300Y-17109950D02*
X125447300Y-16862550D01*
X125199900Y-16862550D01*
X125199900Y-17109950D01*
X125447300Y-17109950D01*
X124742700Y-19526250D02*
G75*
G03*
X124742700Y-19526250I123700J0D01*
G01*
X125199900Y-22066250D02*
G75*
G03*
X125199900Y-22066250I123700J0D01*
G01*
X124742700Y-24606250D02*
G75*
G03*
X124742700Y-24606250I123700J0D01*
G01*
X125199900Y-27146250D02*
G75*
G03*
X125199900Y-27146250I123700J0D01*
G01*
X124742700Y-29686250D02*
G75*
G03*
X124742700Y-29686250I123700J0D01*
G01*
X125199900Y-32226250D02*
G75*
G03*
X125199900Y-32226250I123700J0D01*
G01*
X124742700Y-34766250D02*
G75*
G03*
X124742700Y-34766250I123700J0D01*
G01*
X125199900Y-37306250D02*
G75*
G03*
X125199900Y-37306250I123700J0D01*
G01*
X124742700Y-39846250D02*
G75*
G03*
X124742700Y-39846250I123700J0D01*
G01*
X125199900Y-42386250D02*
G75*
G03*
X125199900Y-42386250I123700J0D01*
G01*
X109959900Y-44926250D02*
G75*
G03*
X109959900Y-44926250I123700J0D01*
G01*
X109502700Y-42386250D02*
G75*
G03*
X109502700Y-42386250I123700J0D01*
G01*
X109959900Y-39846250D02*
G75*
G03*
X109959900Y-39846250I123700J0D01*
G01*
X109502700Y-37306250D02*
G75*
G03*
X109502700Y-37306250I123700J0D01*
G01*
X109959900Y-34766250D02*
G75*
G03*
X109959900Y-34766250I123700J0D01*
G01*
X109502700Y-32226250D02*
G75*
G03*
X109502700Y-32226250I123700J0D01*
G01*
X109959900Y-29686250D02*
G75*
G03*
X109959900Y-29686250I123700J0D01*
G01*
X109502700Y-27146250D02*
G75*
G03*
X109502700Y-27146250I123700J0D01*
G01*
X109959900Y-24606250D02*
G75*
G03*
X109959900Y-24606250I123700J0D01*
G01*
X109502700Y-22066250D02*
G75*
G03*
X109502700Y-22066250I123700J0D01*
G01*
X109959900Y-19526250D02*
G75*
G03*
X109959900Y-19526250I123700J0D01*
G01*
X124742700Y-44926250D02*
G75*
G03*
X124742700Y-44926250I123700J0D01*
G01*
X109502700Y-16986250D02*
G75*
G03*
X109502700Y-16986250I123700J0D01*
G01*
X201812500Y-64425000D02*
X201812500Y-64025000D01*
X201412500Y-64025000D01*
X201412500Y-64425000D01*
X201812500Y-64425000D01*
X201412500Y-56425000D02*
G75*
G03*
X201412500Y-56425000I200000J0D01*
G01*
X201812500Y-45375000D02*
X201812500Y-44975000D01*
X201412500Y-44975000D01*
X201412500Y-45375000D01*
X201812500Y-45375000D01*
X201412500Y-37375000D02*
G75*
G03*
X201412500Y-37375000I200000J0D01*
G01*
X201812500Y-26325000D02*
X201812500Y-25925000D01*
X201412500Y-25925000D01*
X201412500Y-26325000D01*
X201812500Y-26325000D01*
X201412500Y-18325000D02*
G75*
G03*
X201412500Y-18325000I200000J0D01*
G01*
X182762500Y-83475000D02*
X182762500Y-83075000D01*
X182362500Y-83075000D01*
X182362500Y-83475000D01*
X182762500Y-83475000D01*
X182362500Y-75475000D02*
G75*
G03*
X182362500Y-75475000I200000J0D01*
G01*
X182762500Y-64425000D02*
X182762500Y-64025000D01*
X182362500Y-64025000D01*
X182362500Y-64425000D01*
X182762500Y-64425000D01*
X182362500Y-56425000D02*
G75*
G03*
X182362500Y-56425000I200000J0D01*
G01*
X182762500Y-45375000D02*
X182762500Y-44975000D01*
X182362500Y-44975000D01*
X182362500Y-45375000D01*
X182762500Y-45375000D01*
X182362500Y-37375000D02*
G75*
G03*
X182362500Y-37375000I200000J0D01*
G01*
X182762500Y-26325000D02*
X182762500Y-25925000D01*
X182362500Y-25925000D01*
X182362500Y-26325000D01*
X182762500Y-26325000D01*
X182362500Y-18325000D02*
G75*
G03*
X182362500Y-18325000I200000J0D01*
G01*
X173237500Y-102525000D02*
X173237500Y-102125000D01*
X172837500Y-102125000D01*
X172837500Y-102525000D01*
X173237500Y-102525000D01*
X172837500Y-94525000D02*
G75*
G03*
X172837500Y-94525000I200000J0D01*
G01*
X163712500Y-83475000D02*
X163712500Y-83075000D01*
X163312500Y-83075000D01*
X163312500Y-83475000D01*
X163712500Y-83475000D01*
X163312500Y-75475000D02*
G75*
G03*
X163312500Y-75475000I200000J0D01*
G01*
X163712500Y-64425000D02*
X163712500Y-64025000D01*
X163312500Y-64025000D01*
X163312500Y-64425000D01*
X163712500Y-64425000D01*
X163312500Y-56425000D02*
G75*
G03*
X163312500Y-56425000I200000J0D01*
G01*
X163712500Y-45375000D02*
X163712500Y-44975000D01*
X163312500Y-44975000D01*
X163312500Y-45375000D01*
X163712500Y-45375000D01*
X163312500Y-37375000D02*
G75*
G03*
X163312500Y-37375000I200000J0D01*
G01*
X163712500Y-26325000D02*
X163712500Y-25925000D01*
X163312500Y-25925000D01*
X163312500Y-26325000D01*
X163712500Y-26325000D01*
X163312500Y-18325000D02*
G75*
G03*
X163312500Y-18325000I200000J0D01*
G01*
X154187500Y-102525000D02*
X154187500Y-102125000D01*
X153787500Y-102125000D01*
X153787500Y-102525000D01*
X154187500Y-102525000D01*
X153787500Y-94525000D02*
G75*
G03*
X153787500Y-94525000I200000J0D01*
G01*
X144662500Y-83475000D02*
X144662500Y-83075000D01*
X144262500Y-83075000D01*
X144262500Y-83475000D01*
X144662500Y-83475000D01*
X144262500Y-75475000D02*
G75*
G03*
X144262500Y-75475000I200000J0D01*
G01*
X144662500Y-64425000D02*
X144662500Y-64025000D01*
X144262500Y-64025000D01*
X144262500Y-64425000D01*
X144662500Y-64425000D01*
X144262500Y-56425000D02*
G75*
G03*
X144262500Y-56425000I200000J0D01*
G01*
X144662500Y-45375000D02*
X144662500Y-44975000D01*
X144262500Y-44975000D01*
X144262500Y-45375000D01*
X144662500Y-45375000D01*
X144262500Y-37375000D02*
G75*
G03*
X144262500Y-37375000I200000J0D01*
G01*
X144662500Y-26325000D02*
X144662500Y-25925000D01*
X144262500Y-25925000D01*
X144262500Y-26325000D01*
X144662500Y-26325000D01*
X144262500Y-18325000D02*
G75*
G03*
X144262500Y-18325000I200000J0D01*
G01*
X130375000Y-102525000D02*
X130375000Y-102125000D01*
X129975000Y-102125000D01*
X129975000Y-102525000D01*
X130375000Y-102525000D01*
X129975000Y-94525000D02*
G75*
G03*
X129975000Y-94525000I200000J0D01*
G01*
X125612500Y-83475000D02*
X125612500Y-83075000D01*
X125212500Y-83075000D01*
X125212500Y-83475000D01*
X125612500Y-83475000D01*
X125212500Y-75475000D02*
G75*
G03*
X125212500Y-75475000I200000J0D01*
G01*
X125612500Y-64425000D02*
X125612500Y-64025000D01*
X125212500Y-64025000D01*
X125212500Y-64425000D01*
X125612500Y-64425000D01*
X125212500Y-56425000D02*
G75*
G03*
X125212500Y-56425000I200000J0D01*
G01*
X114568750Y-49412500D02*
X114568750Y-49012500D01*
X114168750Y-49012500D01*
X114168750Y-49412500D01*
X114568750Y-49412500D01*
X121968750Y-49212500D02*
G75*
G03*
X121968750Y-49212500I200000J0D01*
G01*
X114568750Y-30362500D02*
X114568750Y-29962500D01*
X114168750Y-29962500D01*
X114168750Y-30362500D01*
X114568750Y-30362500D01*
X121968750Y-30162500D02*
G75*
G03*
X121968750Y-30162500I200000J0D01*
G01*
X101800000Y-102525000D02*
X101800000Y-102125000D01*
X101400000Y-102125000D01*
X101400000Y-102525000D01*
X101800000Y-102525000D01*
X101400000Y-94525000D02*
G75*
G03*
X101400000Y-94525000I200000J0D01*
G01*
X106562500Y-83475000D02*
X106562500Y-83075000D01*
X106162500Y-83075000D01*
X106162500Y-83475000D01*
X106562500Y-83475000D01*
X106162500Y-75475000D02*
G75*
G03*
X106162500Y-75475000I200000J0D01*
G01*
X106562500Y-64425000D02*
X106562500Y-64025000D01*
X106162500Y-64025000D01*
X106162500Y-64425000D01*
X106562500Y-64425000D01*
X106162500Y-56425000D02*
G75*
G03*
X106162500Y-56425000I200000J0D01*
G01*
X94725000Y-49412500D02*
X94725000Y-49012500D01*
X94325000Y-49012500D01*
X94325000Y-49412500D01*
X94725000Y-49412500D01*
X102125000Y-49212500D02*
G75*
G03*
X102125000Y-49212500I200000J0D01*
G01*
X106562500Y-26325000D02*
X106562500Y-25925000D01*
X106162500Y-25925000D01*
X106162500Y-26325000D01*
X106562500Y-26325000D01*
X106162500Y-18325000D02*
G75*
G03*
X106162500Y-18325000I200000J0D01*
G01*
X77987500Y-102525000D02*
X77987500Y-102125000D01*
X77587500Y-102125000D01*
X77587500Y-102525000D01*
X77987500Y-102525000D01*
X77587500Y-94525000D02*
G75*
G03*
X77587500Y-94525000I200000J0D01*
G01*
X87512500Y-83475000D02*
X87512500Y-83075000D01*
X87112500Y-83075000D01*
X87112500Y-83475000D01*
X87512500Y-83475000D01*
X87112500Y-75475000D02*
G75*
G03*
X87112500Y-75475000I200000J0D01*
G01*
X87512500Y-64425000D02*
X87512500Y-64025000D01*
X87112500Y-64025000D01*
X87112500Y-64425000D01*
X87512500Y-64425000D01*
X87112500Y-56425000D02*
G75*
G03*
X87112500Y-56425000I200000J0D01*
G01*
X87512500Y-45375000D02*
X87512500Y-44975000D01*
X87112500Y-44975000D01*
X87112500Y-45375000D01*
X87512500Y-45375000D01*
X87112500Y-37375000D02*
G75*
G03*
X87112500Y-37375000I200000J0D01*
G01*
X87512500Y-26325000D02*
X87512500Y-25925000D01*
X87112500Y-25925000D01*
X87112500Y-26325000D01*
X87512500Y-26325000D01*
X87112500Y-18325000D02*
G75*
G03*
X87112500Y-18325000I200000J0D01*
G01*
X58937500Y-102525000D02*
X58937500Y-102125000D01*
X58537500Y-102125000D01*
X58537500Y-102525000D01*
X58937500Y-102525000D01*
X58537500Y-94525000D02*
G75*
G03*
X58537500Y-94525000I200000J0D01*
G01*
X68462500Y-83475000D02*
X68462500Y-83075000D01*
X68062500Y-83075000D01*
X68062500Y-83475000D01*
X68462500Y-83475000D01*
X68062500Y-75475000D02*
G75*
G03*
X68062500Y-75475000I200000J0D01*
G01*
X68462500Y-64425000D02*
X68462500Y-64025000D01*
X68062500Y-64025000D01*
X68062500Y-64425000D01*
X68462500Y-64425000D01*
X68062500Y-56425000D02*
G75*
G03*
X68062500Y-56425000I200000J0D01*
G01*
X68462500Y-45375000D02*
X68462500Y-44975000D01*
X68062500Y-44975000D01*
X68062500Y-45375000D01*
X68462500Y-45375000D01*
X68062500Y-37375000D02*
G75*
G03*
X68062500Y-37375000I200000J0D01*
G01*
X68462500Y-26325000D02*
X68462500Y-25925000D01*
X68062500Y-25925000D01*
X68062500Y-26325000D01*
X68462500Y-26325000D01*
X68062500Y-18325000D02*
G75*
G03*
X68062500Y-18325000I200000J0D01*
G01*
X49412500Y-83475000D02*
X49412500Y-83075000D01*
X49012500Y-83075000D01*
X49012500Y-83475000D01*
X49412500Y-83475000D01*
X49012500Y-75475000D02*
G75*
G03*
X49012500Y-75475000I200000J0D01*
G01*
X49412500Y-64425000D02*
X49412500Y-64025000D01*
X49012500Y-64025000D01*
X49012500Y-64425000D01*
X49412500Y-64425000D01*
X49012500Y-56425000D02*
G75*
G03*
X49012500Y-56425000I200000J0D01*
G01*
X49412500Y-45375000D02*
X49412500Y-44975000D01*
X49012500Y-44975000D01*
X49012500Y-45375000D01*
X49412500Y-45375000D01*
X49012500Y-37375000D02*
G75*
G03*
X49012500Y-37375000I200000J0D01*
G01*
X49412500Y-26325000D02*
X49412500Y-25925000D01*
X49012500Y-25925000D01*
X49012500Y-26325000D01*
X49412500Y-26325000D01*
X49012500Y-18325000D02*
G75*
G03*
X49012500Y-18325000I200000J0D01*
G01*
X30362500Y-83475000D02*
X30362500Y-83075000D01*
X29962500Y-83075000D01*
X29962500Y-83475000D01*
X30362500Y-83475000D01*
X29962500Y-75475000D02*
G75*
G03*
X29962500Y-75475000I200000J0D01*
G01*
X30362500Y-64425000D02*
X30362500Y-64025000D01*
X29962500Y-64025000D01*
X29962500Y-64425000D01*
X30362500Y-64425000D01*
X29962500Y-56425000D02*
G75*
G03*
X29962500Y-56425000I200000J0D01*
G01*
X30362500Y-45375000D02*
X30362500Y-44975000D01*
X29962500Y-44975000D01*
X29962500Y-45375000D01*
X30362500Y-45375000D01*
X29962500Y-37375000D02*
G75*
G03*
X29962500Y-37375000I200000J0D01*
G01*
X30362500Y-26325000D02*
X30362500Y-25925000D01*
X29962500Y-25925000D01*
X29962500Y-26325000D01*
X30362500Y-26325000D01*
X29962500Y-18325000D02*
G75*
G03*
X29962500Y-18325000I200000J0D01*
G01*
D12*
X122345523Y-19888154D02*
X122345523Y-19088154D01*
X122536000Y-19088154D01*
X122650285Y-19126250D01*
X122726476Y-19202440D01*
X122764571Y-19278630D01*
X122802666Y-19431011D01*
X122802666Y-19545297D01*
X122764571Y-19697678D01*
X122726476Y-19773869D01*
X122650285Y-19850059D01*
X122536000Y-19888154D01*
X122345523Y-19888154D01*
X123107428Y-19164345D02*
X123145523Y-19126250D01*
X123221714Y-19088154D01*
X123412190Y-19088154D01*
X123488380Y-19126250D01*
X123526476Y-19164345D01*
X123564571Y-19240535D01*
X123564571Y-19316726D01*
X123526476Y-19431011D01*
X123069333Y-19888154D01*
X123564571Y-19888154D01*
X122345523Y-30048154D02*
X122345523Y-29248154D01*
X122536000Y-29248154D01*
X122650285Y-29286250D01*
X122726476Y-29362440D01*
X122764571Y-29438630D01*
X122802666Y-29591011D01*
X122802666Y-29705297D01*
X122764571Y-29857678D01*
X122726476Y-29933869D01*
X122650285Y-30010059D01*
X122536000Y-30048154D01*
X122345523Y-30048154D01*
X123297904Y-29248154D02*
X123374095Y-29248154D01*
X123450285Y-29286250D01*
X123488380Y-29324345D01*
X123526476Y-29400535D01*
X123564571Y-29552916D01*
X123564571Y-29743392D01*
X123526476Y-29895773D01*
X123488380Y-29971964D01*
X123450285Y-30010059D01*
X123374095Y-30048154D01*
X123297904Y-30048154D01*
X123221714Y-30010059D01*
X123183619Y-29971964D01*
X123145523Y-29895773D01*
X123107428Y-29743392D01*
X123107428Y-29552916D01*
X123145523Y-29400535D01*
X123183619Y-29324345D01*
X123221714Y-29286250D01*
X123297904Y-29248154D01*
X122345523Y-27508154D02*
X122345523Y-26708154D01*
X122536000Y-26708154D01*
X122650285Y-26746250D01*
X122726476Y-26822440D01*
X122764571Y-26898630D01*
X122802666Y-27051011D01*
X122802666Y-27165297D01*
X122764571Y-27317678D01*
X122726476Y-27393869D01*
X122650285Y-27470059D01*
X122536000Y-27508154D01*
X122345523Y-27508154D01*
X123564571Y-27508154D02*
X123107428Y-27508154D01*
X123336000Y-27508154D02*
X123336000Y-26708154D01*
X123259809Y-26822440D01*
X123183619Y-26898630D01*
X123107428Y-26936726D01*
X122326476Y-24206250D02*
X122250285Y-24168154D01*
X122136000Y-24168154D01*
X122021714Y-24206250D01*
X121945523Y-24282440D01*
X121907428Y-24358630D01*
X121869333Y-24511011D01*
X121869333Y-24625297D01*
X121907428Y-24777678D01*
X121945523Y-24853869D01*
X122021714Y-24930059D01*
X122136000Y-24968154D01*
X122212190Y-24968154D01*
X122326476Y-24930059D01*
X122364571Y-24891964D01*
X122364571Y-24625297D01*
X122212190Y-24625297D01*
X122707428Y-24968154D02*
X122707428Y-24168154D01*
X123164571Y-24968154D01*
X123164571Y-24168154D01*
X123545523Y-24968154D02*
X123545523Y-24168154D01*
X123736000Y-24168154D01*
X123850285Y-24206250D01*
X123926476Y-24282440D01*
X123964571Y-24358630D01*
X124002666Y-24511011D01*
X124002666Y-24625297D01*
X123964571Y-24777678D01*
X123926476Y-24853869D01*
X123850285Y-24930059D01*
X123736000Y-24968154D01*
X123545523Y-24968154D01*
X122326476Y-21666250D02*
X122250285Y-21628154D01*
X122136000Y-21628154D01*
X122021714Y-21666250D01*
X121945523Y-21742440D01*
X121907428Y-21818630D01*
X121869333Y-21971011D01*
X121869333Y-22085297D01*
X121907428Y-22237678D01*
X121945523Y-22313869D01*
X122021714Y-22390059D01*
X122136000Y-22428154D01*
X122212190Y-22428154D01*
X122326476Y-22390059D01*
X122364571Y-22351964D01*
X122364571Y-22085297D01*
X122212190Y-22085297D01*
X122707428Y-22428154D02*
X122707428Y-21628154D01*
X123164571Y-22428154D01*
X123164571Y-21628154D01*
X123545523Y-22428154D02*
X123545523Y-21628154D01*
X123736000Y-21628154D01*
X123850285Y-21666250D01*
X123926476Y-21742440D01*
X123964571Y-21818630D01*
X124002666Y-21971011D01*
X124002666Y-22085297D01*
X123964571Y-22237678D01*
X123926476Y-22313869D01*
X123850285Y-22390059D01*
X123736000Y-22428154D01*
X123545523Y-22428154D01*
X122345523Y-32588154D02*
X122345523Y-31788154D01*
X122536000Y-31788154D01*
X122650285Y-31826250D01*
X122726476Y-31902440D01*
X122764571Y-31978630D01*
X122802666Y-32131011D01*
X122802666Y-32245297D01*
X122764571Y-32397678D01*
X122726476Y-32473869D01*
X122650285Y-32550059D01*
X122536000Y-32588154D01*
X122345523Y-32588154D01*
X123488380Y-32054821D02*
X123488380Y-32588154D01*
X123297904Y-31750059D02*
X123107428Y-32321488D01*
X123602666Y-32321488D01*
X122802666Y-35051964D02*
X122764571Y-35090059D01*
X122650285Y-35128154D01*
X122574095Y-35128154D01*
X122459809Y-35090059D01*
X122383619Y-35013869D01*
X122345523Y-34937678D01*
X122307428Y-34785297D01*
X122307428Y-34671011D01*
X122345523Y-34518630D01*
X122383619Y-34442440D01*
X122459809Y-34366250D01*
X122574095Y-34328154D01*
X122650285Y-34328154D01*
X122764571Y-34366250D01*
X122802666Y-34404345D01*
X123488380Y-34328154D02*
X123336000Y-34328154D01*
X123259809Y-34366250D01*
X123221714Y-34404345D01*
X123145523Y-34518630D01*
X123107428Y-34671011D01*
X123107428Y-34975773D01*
X123145523Y-35051964D01*
X123183619Y-35090059D01*
X123259809Y-35128154D01*
X123412190Y-35128154D01*
X123488380Y-35090059D01*
X123526476Y-35051964D01*
X123564571Y-34975773D01*
X123564571Y-34785297D01*
X123526476Y-34709107D01*
X123488380Y-34671011D01*
X123412190Y-34632916D01*
X123259809Y-34632916D01*
X123183619Y-34671011D01*
X123145523Y-34709107D01*
X123107428Y-34785297D01*
X122345523Y-37668154D02*
X122345523Y-36868154D01*
X122536000Y-36868154D01*
X122650285Y-36906250D01*
X122726476Y-36982440D01*
X122764571Y-37058630D01*
X122802666Y-37211011D01*
X122802666Y-37325297D01*
X122764571Y-37477678D01*
X122726476Y-37553869D01*
X122650285Y-37630059D01*
X122536000Y-37668154D01*
X122345523Y-37668154D01*
X123069333Y-36868154D02*
X123602666Y-36868154D01*
X123259809Y-37668154D01*
X122383619Y-39789107D02*
X122650285Y-39789107D01*
X122764571Y-40208154D02*
X122383619Y-40208154D01*
X122383619Y-39408154D01*
X122764571Y-39408154D01*
X123450285Y-39408154D02*
X123297904Y-39408154D01*
X123221714Y-39446250D01*
X123183619Y-39484345D01*
X123107428Y-39598630D01*
X123069333Y-39751011D01*
X123069333Y-40055773D01*
X123107428Y-40131964D01*
X123145523Y-40170059D01*
X123221714Y-40208154D01*
X123374095Y-40208154D01*
X123450285Y-40170059D01*
X123488380Y-40131964D01*
X123526476Y-40055773D01*
X123526476Y-39865297D01*
X123488380Y-39789107D01*
X123450285Y-39751011D01*
X123374095Y-39712916D01*
X123221714Y-39712916D01*
X123145523Y-39751011D01*
X123107428Y-39789107D01*
X123069333Y-39865297D01*
X122612190Y-42329107D02*
X122726476Y-42367202D01*
X122764571Y-42405297D01*
X122802666Y-42481488D01*
X122802666Y-42595773D01*
X122764571Y-42671964D01*
X122726476Y-42710059D01*
X122650285Y-42748154D01*
X122345523Y-42748154D01*
X122345523Y-41948154D01*
X122612190Y-41948154D01*
X122688380Y-41986250D01*
X122726476Y-42024345D01*
X122764571Y-42100535D01*
X122764571Y-42176726D01*
X122726476Y-42252916D01*
X122688380Y-42291011D01*
X122612190Y-42329107D01*
X122345523Y-42329107D01*
X123488380Y-42214821D02*
X123488380Y-42748154D01*
X123297904Y-41910059D02*
X123107428Y-42481488D01*
X123602666Y-42481488D01*
X122612190Y-44869107D02*
X122726476Y-44907202D01*
X122764571Y-44945297D01*
X122802666Y-45021488D01*
X122802666Y-45135773D01*
X122764571Y-45211964D01*
X122726476Y-45250059D01*
X122650285Y-45288154D01*
X122345523Y-45288154D01*
X122345523Y-44488154D01*
X122612190Y-44488154D01*
X122688380Y-44526250D01*
X122726476Y-44564345D01*
X122764571Y-44640535D01*
X122764571Y-44716726D01*
X122726476Y-44792916D01*
X122688380Y-44831011D01*
X122612190Y-44869107D01*
X122345523Y-44869107D01*
X123526476Y-44488154D02*
X123145523Y-44488154D01*
X123107428Y-44869107D01*
X123145523Y-44831011D01*
X123221714Y-44792916D01*
X123412190Y-44792916D01*
X123488380Y-44831011D01*
X123526476Y-44869107D01*
X123564571Y-44945297D01*
X123564571Y-45135773D01*
X123526476Y-45211964D01*
X123488380Y-45250059D01*
X123412190Y-45288154D01*
X123221714Y-45288154D01*
X123145523Y-45250059D01*
X123107428Y-45211964D01*
X111690190Y-44869107D02*
X111804476Y-44907202D01*
X111842571Y-44945297D01*
X111880666Y-45021488D01*
X111880666Y-45135773D01*
X111842571Y-45211964D01*
X111804476Y-45250059D01*
X111728285Y-45288154D01*
X111423523Y-45288154D01*
X111423523Y-44488154D01*
X111690190Y-44488154D01*
X111766380Y-44526250D01*
X111804476Y-44564345D01*
X111842571Y-44640535D01*
X111842571Y-44716726D01*
X111804476Y-44792916D01*
X111766380Y-44831011D01*
X111690190Y-44869107D01*
X111423523Y-44869107D01*
X112566380Y-44488154D02*
X112414000Y-44488154D01*
X112337809Y-44526250D01*
X112299714Y-44564345D01*
X112223523Y-44678630D01*
X112185428Y-44831011D01*
X112185428Y-45135773D01*
X112223523Y-45211964D01*
X112261619Y-45250059D01*
X112337809Y-45288154D01*
X112490190Y-45288154D01*
X112566380Y-45250059D01*
X112604476Y-45211964D01*
X112642571Y-45135773D01*
X112642571Y-44945297D01*
X112604476Y-44869107D01*
X112566380Y-44831011D01*
X112490190Y-44792916D01*
X112337809Y-44792916D01*
X112261619Y-44831011D01*
X112223523Y-44869107D01*
X112185428Y-44945297D01*
X111690190Y-39789107D02*
X111804476Y-39827202D01*
X111842571Y-39865297D01*
X111880666Y-39941488D01*
X111880666Y-40055773D01*
X111842571Y-40131964D01*
X111804476Y-40170059D01*
X111728285Y-40208154D01*
X111423523Y-40208154D01*
X111423523Y-39408154D01*
X111690190Y-39408154D01*
X111766380Y-39446250D01*
X111804476Y-39484345D01*
X111842571Y-39560535D01*
X111842571Y-39636726D01*
X111804476Y-39712916D01*
X111766380Y-39751011D01*
X111690190Y-39789107D01*
X111423523Y-39789107D01*
X112147333Y-39408154D02*
X112642571Y-39408154D01*
X112375904Y-39712916D01*
X112490190Y-39712916D01*
X112566380Y-39751011D01*
X112604476Y-39789107D01*
X112642571Y-39865297D01*
X112642571Y-40055773D01*
X112604476Y-40131964D01*
X112566380Y-40170059D01*
X112490190Y-40208154D01*
X112261619Y-40208154D01*
X112185428Y-40170059D01*
X112147333Y-40131964D01*
X111690190Y-37249107D02*
X111804476Y-37287202D01*
X111842571Y-37325297D01*
X111880666Y-37401488D01*
X111880666Y-37515773D01*
X111842571Y-37591964D01*
X111804476Y-37630059D01*
X111728285Y-37668154D01*
X111423523Y-37668154D01*
X111423523Y-36868154D01*
X111690190Y-36868154D01*
X111766380Y-36906250D01*
X111804476Y-36944345D01*
X111842571Y-37020535D01*
X111842571Y-37096726D01*
X111804476Y-37172916D01*
X111766380Y-37211011D01*
X111690190Y-37249107D01*
X111423523Y-37249107D01*
X112642571Y-37668154D02*
X112185428Y-37668154D01*
X112414000Y-37668154D02*
X112414000Y-36868154D01*
X112337809Y-36982440D01*
X112261619Y-37058630D01*
X112185428Y-37096726D01*
X111747333Y-27089107D02*
X111480666Y-27089107D01*
X111480666Y-27508154D02*
X111480666Y-26708154D01*
X111861619Y-26708154D01*
X112509238Y-26974821D02*
X112509238Y-27508154D01*
X112318761Y-26670059D02*
X112128285Y-27241488D01*
X112623523Y-27241488D01*
X110947333Y-24168154D02*
X111214000Y-24968154D01*
X111480666Y-24168154D01*
X112204476Y-24891964D02*
X112166380Y-24930059D01*
X112052095Y-24968154D01*
X111975904Y-24968154D01*
X111861619Y-24930059D01*
X111785428Y-24853869D01*
X111747333Y-24777678D01*
X111709238Y-24625297D01*
X111709238Y-24511011D01*
X111747333Y-24358630D01*
X111785428Y-24282440D01*
X111861619Y-24206250D01*
X111975904Y-24168154D01*
X112052095Y-24168154D01*
X112166380Y-24206250D01*
X112204476Y-24244345D01*
X113004476Y-24891964D02*
X112966380Y-24930059D01*
X112852095Y-24968154D01*
X112775904Y-24968154D01*
X112661619Y-24930059D01*
X112585428Y-24853869D01*
X112547333Y-24777678D01*
X112509238Y-24625297D01*
X112509238Y-24511011D01*
X112547333Y-24358630D01*
X112585428Y-24282440D01*
X112661619Y-24206250D01*
X112775904Y-24168154D01*
X112852095Y-24168154D01*
X112966380Y-24206250D01*
X113004476Y-24244345D01*
X111404476Y-19126250D02*
X111328285Y-19088154D01*
X111214000Y-19088154D01*
X111099714Y-19126250D01*
X111023523Y-19202440D01*
X110985428Y-19278630D01*
X110947333Y-19431011D01*
X110947333Y-19545297D01*
X110985428Y-19697678D01*
X111023523Y-19773869D01*
X111099714Y-19850059D01*
X111214000Y-19888154D01*
X111290190Y-19888154D01*
X111404476Y-19850059D01*
X111442571Y-19811964D01*
X111442571Y-19545297D01*
X111290190Y-19545297D01*
X111785428Y-19888154D02*
X111785428Y-19088154D01*
X112242571Y-19888154D01*
X112242571Y-19088154D01*
X112623523Y-19888154D02*
X112623523Y-19088154D01*
X112814000Y-19088154D01*
X112928285Y-19126250D01*
X113004476Y-19202440D01*
X113042571Y-19278630D01*
X113080666Y-19431011D01*
X113080666Y-19545297D01*
X113042571Y-19697678D01*
X113004476Y-19773869D01*
X112928285Y-19850059D01*
X112814000Y-19888154D01*
X112623523Y-19888154D01*
X111461619Y-17348154D02*
X111194952Y-16967202D01*
X111004476Y-17348154D02*
X111004476Y-16548154D01*
X111309238Y-16548154D01*
X111385428Y-16586250D01*
X111423523Y-16624345D01*
X111461619Y-16700535D01*
X111461619Y-16814821D01*
X111423523Y-16891011D01*
X111385428Y-16929107D01*
X111309238Y-16967202D01*
X111004476Y-16967202D01*
X111766380Y-17119583D02*
X112147333Y-17119583D01*
X111690190Y-17348154D02*
X111956857Y-16548154D01*
X112223523Y-17348154D01*
X112414000Y-16548154D02*
X112604476Y-17348154D01*
X112756857Y-16776726D01*
X112909238Y-17348154D01*
X113099714Y-16548154D01*
X111747333Y-29629107D02*
X111480666Y-29629107D01*
X111480666Y-30048154D02*
X111480666Y-29248154D01*
X111861619Y-29248154D01*
X112547333Y-29248154D02*
X112166380Y-29248154D01*
X112128285Y-29629107D01*
X112166380Y-29591011D01*
X112242571Y-29552916D01*
X112433047Y-29552916D01*
X112509238Y-29591011D01*
X112547333Y-29629107D01*
X112585428Y-29705297D01*
X112585428Y-29895773D01*
X112547333Y-29971964D01*
X112509238Y-30010059D01*
X112433047Y-30048154D01*
X112242571Y-30048154D01*
X112166380Y-30010059D01*
X112128285Y-29971964D01*
X111747333Y-32169107D02*
X111480666Y-32169107D01*
X111480666Y-32588154D02*
X111480666Y-31788154D01*
X111861619Y-31788154D01*
X112509238Y-31788154D02*
X112356857Y-31788154D01*
X112280666Y-31826250D01*
X112242571Y-31864345D01*
X112166380Y-31978630D01*
X112128285Y-32131011D01*
X112128285Y-32435773D01*
X112166380Y-32511964D01*
X112204476Y-32550059D01*
X112280666Y-32588154D01*
X112433047Y-32588154D01*
X112509238Y-32550059D01*
X112547333Y-32511964D01*
X112585428Y-32435773D01*
X112585428Y-32245297D01*
X112547333Y-32169107D01*
X112509238Y-32131011D01*
X112433047Y-32092916D01*
X112280666Y-32092916D01*
X112204476Y-32131011D01*
X112166380Y-32169107D01*
X112128285Y-32245297D01*
X111747333Y-34709107D02*
X111480666Y-34709107D01*
X111480666Y-35128154D02*
X111480666Y-34328154D01*
X111861619Y-34328154D01*
X112090190Y-34328154D02*
X112623523Y-34328154D01*
X112280666Y-35128154D01*
X111690190Y-42329107D02*
X111804476Y-42367202D01*
X111842571Y-42405297D01*
X111880666Y-42481488D01*
X111880666Y-42595773D01*
X111842571Y-42671964D01*
X111804476Y-42710059D01*
X111728285Y-42748154D01*
X111423523Y-42748154D01*
X111423523Y-41948154D01*
X111690190Y-41948154D01*
X111766380Y-41986250D01*
X111804476Y-42024345D01*
X111842571Y-42100535D01*
X111842571Y-42176726D01*
X111804476Y-42252916D01*
X111766380Y-42291011D01*
X111690190Y-42329107D01*
X111423523Y-42329107D01*
X112185428Y-42024345D02*
X112223523Y-41986250D01*
X112299714Y-41948154D01*
X112490190Y-41948154D01*
X112566380Y-41986250D01*
X112604476Y-42024345D01*
X112642571Y-42100535D01*
X112642571Y-42176726D01*
X112604476Y-42291011D01*
X112147333Y-42748154D01*
X112642571Y-42748154D01*
X118856395Y-16548154D02*
X119313538Y-16548154D01*
X119084967Y-17348154D02*
X119084967Y-16548154D01*
X119504014Y-16548154D02*
X120037348Y-17348154D01*
X120037348Y-16548154D02*
X119504014Y-17348154D01*
X120494491Y-16548154D02*
X120570681Y-16548154D01*
X120646872Y-16586250D01*
X120684967Y-16624345D01*
X120723062Y-16700535D01*
X120761157Y-16852916D01*
X120761157Y-17043392D01*
X120723062Y-17195773D01*
X120684967Y-17271964D01*
X120646872Y-17310059D01*
X120570681Y-17348154D01*
X120494491Y-17348154D01*
X120418300Y-17310059D01*
X120380205Y-17271964D01*
X120342110Y-17195773D01*
X120304014Y-17043392D01*
X120304014Y-16852916D01*
X120342110Y-16700535D01*
X120380205Y-16624345D01*
X120418300Y-16586250D01*
X120494491Y-16548154D01*
X121675443Y-16510059D02*
X120989729Y-17538630D01*
X121942110Y-17348154D02*
X121942110Y-16548154D01*
X122132586Y-16548154D01*
X122246872Y-16586250D01*
X122323062Y-16662440D01*
X122361157Y-16738630D01*
X122399252Y-16891011D01*
X122399252Y-17005297D01*
X122361157Y-17157678D01*
X122323062Y-17233869D01*
X122246872Y-17310059D01*
X122132586Y-17348154D01*
X121942110Y-17348154D01*
X122665919Y-16548154D02*
X123161157Y-16548154D01*
X122894491Y-16852916D01*
X123008776Y-16852916D01*
X123084967Y-16891011D01*
X123123062Y-16929107D01*
X123161157Y-17005297D01*
X123161157Y-17195773D01*
X123123062Y-17271964D01*
X123084967Y-17310059D01*
X123008776Y-17348154D01*
X122780205Y-17348154D01*
X122704014Y-17310059D01*
X122665919Y-17271964D01*
X111901666Y-22370059D02*
X112015952Y-22408154D01*
X112206428Y-22408154D01*
X112282619Y-22370059D01*
X112320714Y-22331964D01*
X112358809Y-22255773D01*
X112358809Y-22179583D01*
X112320714Y-22103392D01*
X112282619Y-22065297D01*
X112206428Y-22027202D01*
X112054047Y-21989107D01*
X111977857Y-21951011D01*
X111939761Y-21912916D01*
X111901666Y-21836726D01*
X111901666Y-21760535D01*
X111939761Y-21684345D01*
X111977857Y-21646250D01*
X112054047Y-21608154D01*
X112244523Y-21608154D01*
X112358809Y-21646250D01*
X112587380Y-21608154D02*
X113044523Y-21608154D01*
X112815952Y-22408154D02*
X112815952Y-21608154D01*
X87566666Y-36218761D02*
X87709523Y-36266380D01*
X87947619Y-36266380D01*
X88042857Y-36218761D01*
X88090476Y-36171142D01*
X88138095Y-36075904D01*
X88138095Y-35980666D01*
X88090476Y-35885428D01*
X88042857Y-35837809D01*
X87947619Y-35790190D01*
X87757142Y-35742571D01*
X87661904Y-35694952D01*
X87614285Y-35647333D01*
X87566666Y-35552095D01*
X87566666Y-35456857D01*
X87614285Y-35361619D01*
X87661904Y-35314000D01*
X87757142Y-35266380D01*
X87995238Y-35266380D01*
X88138095Y-35314000D01*
X88471428Y-35266380D02*
X88709523Y-36266380D01*
X88900000Y-35552095D01*
X89090476Y-36266380D01*
X89328571Y-35266380D01*
X90233333Y-36266380D02*
X89661904Y-36266380D01*
X89947619Y-36266380D02*
X89947619Y-35266380D01*
X89852380Y-35409238D01*
X89757142Y-35504476D01*
X89661904Y-35552095D01*
%LPC*%
D14*
X201612500Y-83275000D03*
D15*
X201612500Y-75475000D03*
D16*
X117475000Y-41275000D03*
D17*
X112395000Y-41275000D03*
X122555000Y-41275000D03*
D16*
X122237500Y-98425000D03*
D17*
X117157500Y-98425000D03*
X127317500Y-98425000D03*
D18*
X125323600Y-16986250D03*
D19*
X124866400Y-19526250D03*
X125323600Y-22066250D03*
X124866400Y-24606250D03*
X125323600Y-27146250D03*
X124866400Y-29686250D03*
X125323600Y-32226250D03*
X124866400Y-34766250D03*
X125323600Y-37306250D03*
X124866400Y-39846250D03*
X125323600Y-42386250D03*
X110083600Y-44926250D03*
X109626400Y-42386250D03*
X110083600Y-39846250D03*
X109626400Y-37306250D03*
X110083600Y-34766250D03*
X109626400Y-32226250D03*
X110083600Y-29686250D03*
X109626400Y-27146250D03*
X110083600Y-24606250D03*
X109626400Y-22066250D03*
X110083600Y-19526250D03*
X124866400Y-44926250D03*
X109626400Y-16986250D03*
D20*
X92000000Y-33600000D03*
X85800000Y-29900000D03*
X92000000Y-29900000D03*
X85800000Y-33600000D03*
D16*
X193675000Y-79375000D03*
D17*
X188595000Y-79375000D03*
X198755000Y-79375000D03*
D16*
X193675000Y-60325000D03*
D17*
X188595000Y-60325000D03*
X198755000Y-60325000D03*
D16*
X193675000Y-41275000D03*
D17*
X188595000Y-41275000D03*
X198755000Y-41275000D03*
D16*
X193675000Y-22225000D03*
D17*
X188595000Y-22225000D03*
X198755000Y-22225000D03*
D16*
X174625000Y-79375000D03*
D17*
X169545000Y-79375000D03*
X179705000Y-79375000D03*
D16*
X174625000Y-60325000D03*
D17*
X169545000Y-60325000D03*
X179705000Y-60325000D03*
D16*
X174625000Y-41275000D03*
D17*
X169545000Y-41275000D03*
X179705000Y-41275000D03*
D16*
X174625000Y-22225000D03*
D17*
X169545000Y-22225000D03*
X179705000Y-22225000D03*
D16*
X165100000Y-98425000D03*
D17*
X160020000Y-98425000D03*
X170180000Y-98425000D03*
D16*
X155575000Y-79375000D03*
D17*
X150495000Y-79375000D03*
X160655000Y-79375000D03*
D16*
X155575000Y-60325000D03*
D17*
X150495000Y-60325000D03*
X160655000Y-60325000D03*
D16*
X155575000Y-41275000D03*
D17*
X150495000Y-41275000D03*
X160655000Y-41275000D03*
D16*
X155575000Y-22225000D03*
D17*
X150495000Y-22225000D03*
X160655000Y-22225000D03*
D16*
X146050000Y-98425000D03*
D17*
X140970000Y-98425000D03*
X151130000Y-98425000D03*
D16*
X136525000Y-79375000D03*
D17*
X131445000Y-79375000D03*
X141605000Y-79375000D03*
D16*
X136525000Y-60325000D03*
D17*
X131445000Y-60325000D03*
X141605000Y-60325000D03*
D16*
X136525000Y-41275000D03*
D17*
X131445000Y-41275000D03*
X141605000Y-41275000D03*
D16*
X136525000Y-22225000D03*
D17*
X131445000Y-22225000D03*
X141605000Y-22225000D03*
D16*
X117475000Y-79375000D03*
D17*
X112395000Y-79375000D03*
X122555000Y-79375000D03*
D16*
X117475000Y-60325000D03*
D17*
X112395000Y-60325000D03*
X122555000Y-60325000D03*
D16*
X117475000Y-22225000D03*
D17*
X112395000Y-22225000D03*
X122555000Y-22225000D03*
D16*
X93662500Y-98425000D03*
D17*
X88582500Y-98425000D03*
X98742500Y-98425000D03*
D16*
X98425000Y-79375000D03*
D17*
X93345000Y-79375000D03*
X103505000Y-79375000D03*
D16*
X98425000Y-60325000D03*
D17*
X93345000Y-60325000D03*
X103505000Y-60325000D03*
D16*
X98425000Y-41275000D03*
D17*
X93345000Y-41275000D03*
X103505000Y-41275000D03*
D16*
X98425000Y-22225000D03*
D17*
X93345000Y-22225000D03*
X103505000Y-22225000D03*
D16*
X69850000Y-98425000D03*
D17*
X64770000Y-98425000D03*
X74930000Y-98425000D03*
D16*
X79375000Y-79375000D03*
D17*
X74295000Y-79375000D03*
X84455000Y-79375000D03*
D16*
X79375000Y-60325000D03*
D17*
X74295000Y-60325000D03*
X84455000Y-60325000D03*
D16*
X79375000Y-41275000D03*
D17*
X74295000Y-41275000D03*
X84455000Y-41275000D03*
D16*
X79375000Y-22225000D03*
D17*
X74295000Y-22225000D03*
X84455000Y-22225000D03*
D16*
X50800000Y-98425000D03*
D17*
X45720000Y-98425000D03*
X55880000Y-98425000D03*
D16*
X60325000Y-79375000D03*
D17*
X55245000Y-79375000D03*
X65405000Y-79375000D03*
D16*
X60325000Y-60325000D03*
D17*
X55245000Y-60325000D03*
X65405000Y-60325000D03*
D16*
X60325000Y-41275000D03*
D17*
X55245000Y-41275000D03*
X65405000Y-41275000D03*
D16*
X60325000Y-22225000D03*
D17*
X55245000Y-22225000D03*
X65405000Y-22225000D03*
D16*
X41275000Y-79375000D03*
D17*
X36195000Y-79375000D03*
X46355000Y-79375000D03*
D16*
X41275000Y-60325000D03*
D17*
X36195000Y-60325000D03*
X46355000Y-60325000D03*
D16*
X41275000Y-41275000D03*
D17*
X36195000Y-41275000D03*
X46355000Y-41275000D03*
D16*
X41275000Y-22225000D03*
D17*
X36195000Y-22225000D03*
X46355000Y-22225000D03*
D16*
X22225000Y-79375000D03*
D17*
X17145000Y-79375000D03*
X27305000Y-79375000D03*
D16*
X22225000Y-60325000D03*
D17*
X17145000Y-60325000D03*
X27305000Y-60325000D03*
D16*
X22225000Y-41275000D03*
D17*
X17145000Y-41275000D03*
X27305000Y-41275000D03*
D16*
X22225000Y-22225000D03*
D17*
X17145000Y-22225000D03*
X27305000Y-22225000D03*
D14*
X201612500Y-64225000D03*
D15*
X201612500Y-56425000D03*
D14*
X201612500Y-45175000D03*
D15*
X201612500Y-37375000D03*
D14*
X201612500Y-26125000D03*
D15*
X201612500Y-18325000D03*
D14*
X182562500Y-83275000D03*
D15*
X182562500Y-75475000D03*
D14*
X182562500Y-64225000D03*
D15*
X182562500Y-56425000D03*
D14*
X182562500Y-45175000D03*
D15*
X182562500Y-37375000D03*
D14*
X182562500Y-26125000D03*
D15*
X182562500Y-18325000D03*
D14*
X173037500Y-102325000D03*
D15*
X173037500Y-94525000D03*
D14*
X163512500Y-83275000D03*
D15*
X163512500Y-75475000D03*
D14*
X163512500Y-64225000D03*
D15*
X163512500Y-56425000D03*
D14*
X163512500Y-45175000D03*
D15*
X163512500Y-37375000D03*
D14*
X163512500Y-26125000D03*
D15*
X163512500Y-18325000D03*
D14*
X153987500Y-102325000D03*
D15*
X153987500Y-94525000D03*
D14*
X144462500Y-83275000D03*
D15*
X144462500Y-75475000D03*
D14*
X144462500Y-64225000D03*
D15*
X144462500Y-56425000D03*
D14*
X144462500Y-45175000D03*
D15*
X144462500Y-37375000D03*
D14*
X144462500Y-26125000D03*
D15*
X144462500Y-18325000D03*
D14*
X130175000Y-102325000D03*
D15*
X130175000Y-94525000D03*
D14*
X125412500Y-83275000D03*
D15*
X125412500Y-75475000D03*
D14*
X125412500Y-64225000D03*
D15*
X125412500Y-56425000D03*
D14*
X114368750Y-49212500D03*
D15*
X122168750Y-49212500D03*
D14*
X114368750Y-30162500D03*
D15*
X122168750Y-30162500D03*
D14*
X101600000Y-102325000D03*
D15*
X101600000Y-94525000D03*
D14*
X106362500Y-83275000D03*
D15*
X106362500Y-75475000D03*
D14*
X106362500Y-64225000D03*
D15*
X106362500Y-56425000D03*
D14*
X94525000Y-49212500D03*
D15*
X102325000Y-49212500D03*
D14*
X106362500Y-26125000D03*
D15*
X106362500Y-18325000D03*
D14*
X77787500Y-102325000D03*
D15*
X77787500Y-94525000D03*
D14*
X87312500Y-83275000D03*
D15*
X87312500Y-75475000D03*
D14*
X87312500Y-64225000D03*
D15*
X87312500Y-56425000D03*
D14*
X87312500Y-45175000D03*
D15*
X87312500Y-37375000D03*
D14*
X87312500Y-26125000D03*
D15*
X87312500Y-18325000D03*
D14*
X58737500Y-102325000D03*
D15*
X58737500Y-94525000D03*
D14*
X68262500Y-83275000D03*
D15*
X68262500Y-75475000D03*
D14*
X68262500Y-64225000D03*
D15*
X68262500Y-56425000D03*
D14*
X68262500Y-45175000D03*
D15*
X68262500Y-37375000D03*
D14*
X68262500Y-26125000D03*
D15*
X68262500Y-18325000D03*
D14*
X49212500Y-83275000D03*
D15*
X49212500Y-75475000D03*
D14*
X49212500Y-64225000D03*
D15*
X49212500Y-56425000D03*
D14*
X49212500Y-45175000D03*
D15*
X49212500Y-37375000D03*
D14*
X49212500Y-26125000D03*
D15*
X49212500Y-18325000D03*
D14*
X30162500Y-83275000D03*
D15*
X30162500Y-75475000D03*
D14*
X30162500Y-64225000D03*
D15*
X30162500Y-56425000D03*
D14*
X30162500Y-45175000D03*
D15*
X30162500Y-37375000D03*
D14*
X30162500Y-26125000D03*
D15*
X30162500Y-18325000D03*
M02*
