G04 #@! TF.GenerationSoftware,KiCad,Pcbnew,(5.1.12)-1*
G04 #@! TF.CreationDate,2022-09-08T23:58:54-04:00*
G04 #@! TF.ProjectId,my-keeb-pro-micro,6d792d6b-6565-4622-9d70-726f2d6d6963,rev?*
G04 #@! TF.SameCoordinates,Original*
G04 #@! TF.FileFunction,Soldermask,Top*
G04 #@! TF.FilePolarity,Negative*
%FSLAX46Y46*%
G04 Gerber Fmt 4.6, Leading zero omitted, Abs format (unit mm)*
G04 Created by KiCad (PCBNEW (5.1.12)-1) date 2022-09-08 23:58:54*
%MOMM*%
%LPD*%
G01*
G04 APERTURE LIST*
%ADD10R,1.600000X1.600000*%
%ADD11C,1.600000*%
%ADD12C,3.987800*%
%ADD13C,1.750000*%
%ADD14R,1.752600X1.752600*%
%ADD15C,1.752600*%
%ADD16R,1.800000X1.100000*%
G04 APERTURE END LIST*
D10*
X201612500Y-83275000D03*
D11*
X201612500Y-75475000D03*
D12*
X117475000Y-41275000D03*
D13*
X112395000Y-41275000D03*
X122555000Y-41275000D03*
D12*
X122237500Y-98425000D03*
D13*
X117157500Y-98425000D03*
X127317500Y-98425000D03*
D14*
X125323600Y-16986250D03*
D15*
X124866400Y-19526250D03*
X125323600Y-22066250D03*
X124866400Y-24606250D03*
X125323600Y-27146250D03*
X124866400Y-29686250D03*
X125323600Y-32226250D03*
X124866400Y-34766250D03*
X125323600Y-37306250D03*
X124866400Y-39846250D03*
X125323600Y-42386250D03*
X110083600Y-44926250D03*
X109626400Y-42386250D03*
X110083600Y-39846250D03*
X109626400Y-37306250D03*
X110083600Y-34766250D03*
X109626400Y-32226250D03*
X110083600Y-29686250D03*
X109626400Y-27146250D03*
X110083600Y-24606250D03*
X109626400Y-22066250D03*
X110083600Y-19526250D03*
X124866400Y-44926250D03*
X109626400Y-16986250D03*
D16*
X92000000Y-33600000D03*
X85800000Y-29900000D03*
X92000000Y-29900000D03*
X85800000Y-33600000D03*
D12*
X193675000Y-79375000D03*
D13*
X188595000Y-79375000D03*
X198755000Y-79375000D03*
D12*
X193675000Y-60325000D03*
D13*
X188595000Y-60325000D03*
X198755000Y-60325000D03*
D12*
X193675000Y-41275000D03*
D13*
X188595000Y-41275000D03*
X198755000Y-41275000D03*
D12*
X193675000Y-22225000D03*
D13*
X188595000Y-22225000D03*
X198755000Y-22225000D03*
D12*
X174625000Y-79375000D03*
D13*
X169545000Y-79375000D03*
X179705000Y-79375000D03*
D12*
X174625000Y-60325000D03*
D13*
X169545000Y-60325000D03*
X179705000Y-60325000D03*
D12*
X174625000Y-41275000D03*
D13*
X169545000Y-41275000D03*
X179705000Y-41275000D03*
D12*
X174625000Y-22225000D03*
D13*
X169545000Y-22225000D03*
X179705000Y-22225000D03*
D12*
X165100000Y-98425000D03*
D13*
X160020000Y-98425000D03*
X170180000Y-98425000D03*
D12*
X155575000Y-79375000D03*
D13*
X150495000Y-79375000D03*
X160655000Y-79375000D03*
D12*
X155575000Y-60325000D03*
D13*
X150495000Y-60325000D03*
X160655000Y-60325000D03*
D12*
X155575000Y-41275000D03*
D13*
X150495000Y-41275000D03*
X160655000Y-41275000D03*
D12*
X155575000Y-22225000D03*
D13*
X150495000Y-22225000D03*
X160655000Y-22225000D03*
D12*
X146050000Y-98425000D03*
D13*
X140970000Y-98425000D03*
X151130000Y-98425000D03*
D12*
X136525000Y-79375000D03*
D13*
X131445000Y-79375000D03*
X141605000Y-79375000D03*
D12*
X136525000Y-60325000D03*
D13*
X131445000Y-60325000D03*
X141605000Y-60325000D03*
D12*
X136525000Y-41275000D03*
D13*
X131445000Y-41275000D03*
X141605000Y-41275000D03*
D12*
X136525000Y-22225000D03*
D13*
X131445000Y-22225000D03*
X141605000Y-22225000D03*
D12*
X117475000Y-79375000D03*
D13*
X112395000Y-79375000D03*
X122555000Y-79375000D03*
D12*
X117475000Y-60325000D03*
D13*
X112395000Y-60325000D03*
X122555000Y-60325000D03*
D12*
X117475000Y-22225000D03*
D13*
X112395000Y-22225000D03*
X122555000Y-22225000D03*
D12*
X93662500Y-98425000D03*
D13*
X88582500Y-98425000D03*
X98742500Y-98425000D03*
D12*
X98425000Y-79375000D03*
D13*
X93345000Y-79375000D03*
X103505000Y-79375000D03*
D12*
X98425000Y-60325000D03*
D13*
X93345000Y-60325000D03*
X103505000Y-60325000D03*
D12*
X98425000Y-41275000D03*
D13*
X93345000Y-41275000D03*
X103505000Y-41275000D03*
D12*
X98425000Y-22225000D03*
D13*
X93345000Y-22225000D03*
X103505000Y-22225000D03*
D12*
X69850000Y-98425000D03*
D13*
X64770000Y-98425000D03*
X74930000Y-98425000D03*
D12*
X79375000Y-79375000D03*
D13*
X74295000Y-79375000D03*
X84455000Y-79375000D03*
D12*
X79375000Y-60325000D03*
D13*
X74295000Y-60325000D03*
X84455000Y-60325000D03*
D12*
X79375000Y-41275000D03*
D13*
X74295000Y-41275000D03*
X84455000Y-41275000D03*
D12*
X79375000Y-22225000D03*
D13*
X74295000Y-22225000D03*
X84455000Y-22225000D03*
D12*
X50800000Y-98425000D03*
D13*
X45720000Y-98425000D03*
X55880000Y-98425000D03*
D12*
X60325000Y-79375000D03*
D13*
X55245000Y-79375000D03*
X65405000Y-79375000D03*
D12*
X60325000Y-60325000D03*
D13*
X55245000Y-60325000D03*
X65405000Y-60325000D03*
D12*
X60325000Y-41275000D03*
D13*
X55245000Y-41275000D03*
X65405000Y-41275000D03*
D12*
X60325000Y-22225000D03*
D13*
X55245000Y-22225000D03*
X65405000Y-22225000D03*
D12*
X41275000Y-79375000D03*
D13*
X36195000Y-79375000D03*
X46355000Y-79375000D03*
D12*
X41275000Y-60325000D03*
D13*
X36195000Y-60325000D03*
X46355000Y-60325000D03*
D12*
X41275000Y-41275000D03*
D13*
X36195000Y-41275000D03*
X46355000Y-41275000D03*
D12*
X41275000Y-22225000D03*
D13*
X36195000Y-22225000D03*
X46355000Y-22225000D03*
D12*
X22225000Y-79375000D03*
D13*
X17145000Y-79375000D03*
X27305000Y-79375000D03*
D12*
X22225000Y-60325000D03*
D13*
X17145000Y-60325000D03*
X27305000Y-60325000D03*
D12*
X22225000Y-41275000D03*
D13*
X17145000Y-41275000D03*
X27305000Y-41275000D03*
D12*
X22225000Y-22225000D03*
D13*
X17145000Y-22225000D03*
X27305000Y-22225000D03*
D10*
X201612500Y-64225000D03*
D11*
X201612500Y-56425000D03*
D10*
X201612500Y-45175000D03*
D11*
X201612500Y-37375000D03*
D10*
X201612500Y-26125000D03*
D11*
X201612500Y-18325000D03*
D10*
X182562500Y-83275000D03*
D11*
X182562500Y-75475000D03*
D10*
X182562500Y-64225000D03*
D11*
X182562500Y-56425000D03*
D10*
X182562500Y-45175000D03*
D11*
X182562500Y-37375000D03*
D10*
X182562500Y-26125000D03*
D11*
X182562500Y-18325000D03*
D10*
X173037500Y-102325000D03*
D11*
X173037500Y-94525000D03*
D10*
X163512500Y-83275000D03*
D11*
X163512500Y-75475000D03*
D10*
X163512500Y-64225000D03*
D11*
X163512500Y-56425000D03*
D10*
X163512500Y-45175000D03*
D11*
X163512500Y-37375000D03*
D10*
X163512500Y-26125000D03*
D11*
X163512500Y-18325000D03*
D10*
X153987500Y-102325000D03*
D11*
X153987500Y-94525000D03*
D10*
X144462500Y-83275000D03*
D11*
X144462500Y-75475000D03*
D10*
X144462500Y-64225000D03*
D11*
X144462500Y-56425000D03*
D10*
X144462500Y-45175000D03*
D11*
X144462500Y-37375000D03*
D10*
X144462500Y-26125000D03*
D11*
X144462500Y-18325000D03*
D10*
X130175000Y-102325000D03*
D11*
X130175000Y-94525000D03*
D10*
X125412500Y-83275000D03*
D11*
X125412500Y-75475000D03*
D10*
X125412500Y-64225000D03*
D11*
X125412500Y-56425000D03*
D10*
X114368750Y-49212500D03*
D11*
X122168750Y-49212500D03*
D10*
X114368750Y-30162500D03*
D11*
X122168750Y-30162500D03*
D10*
X101600000Y-102325000D03*
D11*
X101600000Y-94525000D03*
D10*
X106362500Y-83275000D03*
D11*
X106362500Y-75475000D03*
D10*
X106362500Y-64225000D03*
D11*
X106362500Y-56425000D03*
D10*
X94525000Y-49212500D03*
D11*
X102325000Y-49212500D03*
D10*
X106362500Y-26125000D03*
D11*
X106362500Y-18325000D03*
D10*
X77787500Y-102325000D03*
D11*
X77787500Y-94525000D03*
D10*
X87312500Y-83275000D03*
D11*
X87312500Y-75475000D03*
D10*
X87312500Y-64225000D03*
D11*
X87312500Y-56425000D03*
D10*
X87312500Y-45175000D03*
D11*
X87312500Y-37375000D03*
D10*
X87312500Y-26125000D03*
D11*
X87312500Y-18325000D03*
D10*
X58737500Y-102325000D03*
D11*
X58737500Y-94525000D03*
D10*
X68262500Y-83275000D03*
D11*
X68262500Y-75475000D03*
D10*
X68262500Y-64225000D03*
D11*
X68262500Y-56425000D03*
D10*
X68262500Y-45175000D03*
D11*
X68262500Y-37375000D03*
D10*
X68262500Y-26125000D03*
D11*
X68262500Y-18325000D03*
D10*
X49212500Y-83275000D03*
D11*
X49212500Y-75475000D03*
D10*
X49212500Y-64225000D03*
D11*
X49212500Y-56425000D03*
D10*
X49212500Y-45175000D03*
D11*
X49212500Y-37375000D03*
D10*
X49212500Y-26125000D03*
D11*
X49212500Y-18325000D03*
D10*
X30162500Y-83275000D03*
D11*
X30162500Y-75475000D03*
D10*
X30162500Y-64225000D03*
D11*
X30162500Y-56425000D03*
D10*
X30162500Y-45175000D03*
D11*
X30162500Y-37375000D03*
D10*
X30162500Y-26125000D03*
D11*
X30162500Y-18325000D03*
M02*
