  0
SECTION
  2
HEADER
  9
$ACADVER
  1
AC1009
  9
$EXTMIN
 10
0.0
 20
0.0
 30
0.0
  9
$EXTMAX
 10
1000.0
 20
1000.0
 30
0.0
  9
$FILLMODE
 70
 0
  9
$SPLFRAME
 70
 1
  0
ENDSEC
  0
SECTION
  2
TABLES
  0
TABLE
  2
LAYER
 70
1
  0
LAYER
  2
0
 70
     0
 62
     7
  6
CONTINUOUS
  0
ENDTAB
  0
ENDSEC
  0
SECTION
  2
ENTITIES
  0
LINE
  8
0
 62
     0
 10
0.0950846
 20
95.5075
 30
0.0
 11
190.595
 21
95.5075
 31
0.0
  0
LINE
  8
0
 62
     0
 10
190.595
 20
95.5075
 30
0.0
 11
190.595
 21
0.257693
 31
0.0
  0
LINE
  8
0
 62
     0
 10
190.595
 20
0.257693
 30
0.0
 11
0.0950846
 21
0.257693
 31
0.0
  0
LINE
  8
0
 62
     0
 10
0.0950846
 20
0.257693
 30
0.0
 11
0.0950846
 21
95.5075
 31
0.0
  0
LINE
  8
0
 62
     0
 10
145.495
 20
16.7831
 30
0.0
 11
159.494
 21
16.7831
 31
0.0
  0
LINE
  8
0
 62
     0
 10
159.494
 20
16.7831
 30
0.0
 11
159.494
 21
2.78364
 31
0.0
  0
LINE
  8
0
 62
     0
 10
159.494
 20
2.78364
 30
0.0
 11
145.495
 21
2.78364
 31
0.0
  0
LINE
  8
0
 62
     0
 10
145.495
 20
2.78364
 30
0.0
 11
145.495
 21
16.7831
 31
0.0
  0
LINE
  8
0
 62
     0
 10
126.445
 20
16.7831
 30
0.0
 11
140.444
 21
16.7831
 31
0.0
  0
LINE
  8
0
 62
     0
 10
140.444
 20
16.7831
 30
0.0
 11
140.444
 21
2.78364
 31
0.0
  0
LINE
  8
0
 62
     0
 10
140.444
 20
2.78364
 30
0.0
 11
126.445
 21
2.78364
 31
0.0
  0
LINE
  8
0
 62
     0
 10
126.445
 20
2.78364
 30
0.0
 11
126.445
 21
16.7831
 31
0.0
  0
LINE
  8
0
 62
     0
 10
102.632
 20
16.7831
 30
0.0
 11
116.632
 21
16.7831
 31
0.0
  0
LINE
  8
0
 62
     0
 10
116.632
 20
16.7831
 30
0.0
 11
116.632
 21
2.78364
 31
0.0
  0
LINE
  8
0
 62
     0
 10
116.632
 20
2.78364
 30
0.0
 11
102.632
 21
2.78364
 31
0.0
  0
LINE
  8
0
 62
     0
 10
102.632
 20
2.78364
 30
0.0
 11
102.632
 21
16.7831
 31
0.0
  0
LINE
  8
0
 62
     0
 10
74.0572
 20
16.7831
 30
0.0
 11
88.0565
 21
16.7831
 31
0.0
  0
LINE
  8
0
 62
     0
 10
88.0565
 20
16.7831
 30
0.0
 11
88.0565
 21
2.78364
 31
0.0
  0
LINE
  8
0
 62
     0
 10
88.0565
 20
2.78364
 30
0.0
 11
74.0572
 21
2.78364
 31
0.0
  0
LINE
  8
0
 62
     0
 10
74.0572
 20
2.78364
 30
0.0
 11
74.0572
 21
16.7831
 31
0.0
  0
LINE
  8
0
 62
     0
 10
50.2447
 20
16.7831
 30
0.0
 11
64.244
 21
16.7831
 31
0.0
  0
LINE
  8
0
 62
     0
 10
64.244
 20
16.7831
 30
0.0
 11
64.244
 21
2.78364
 31
0.0
  0
LINE
  8
0
 62
     0
 10
64.244
 20
2.78364
 30
0.0
 11
50.2447
 21
2.78364
 31
0.0
  0
LINE
  8
0
 62
     0
 10
50.2447
 20
2.78364
 30
0.0
 11
50.2447
 21
16.7831
 31
0.0
  0
LINE
  8
0
 62
     0
 10
31.1947
 20
16.7831
 30
0.0
 11
45.194
 21
16.7831
 31
0.0
  0
LINE
  8
0
 62
     0
 10
45.194
 20
16.7831
 30
0.0
 11
45.194
 21
2.78364
 31
0.0
  0
LINE
  8
0
 62
     0
 10
45.194
 20
2.78364
 30
0.0
 11
31.1947
 21
2.78364
 31
0.0
  0
LINE
  8
0
 62
     0
 10
31.1947
 20
2.78364
 30
0.0
 11
31.1947
 21
16.7831
 31
0.0
  0
LINE
  8
0
 62
     0
 10
174.07
 20
35.833
 30
0.0
 11
188.069
 21
35.833
 31
0.0
  0
LINE
  8
0
 62
     0
 10
188.069
 20
35.833
 30
0.0
 11
188.069
 21
21.8336
 31
0.0
  0
LINE
  8
0
 62
     0
 10
188.069
 20
21.8336
 30
0.0
 11
174.07
 21
21.8336
 31
0.0
  0
LINE
  8
0
 62
     0
 10
174.07
 20
21.8336
 30
0.0
 11
174.07
 21
35.833
 31
0.0
  0
LINE
  8
0
 62
     0
 10
155.02
 20
35.833
 30
0.0
 11
169.019
 21
35.833
 31
0.0
  0
LINE
  8
0
 62
     0
 10
169.019
 20
35.833
 30
0.0
 11
169.019
 21
21.8336
 31
0.0
  0
LINE
  8
0
 62
     0
 10
169.019
 20
21.8336
 30
0.0
 11
155.02
 21
21.8336
 31
0.0
  0
LINE
  8
0
 62
     0
 10
155.02
 20
21.8336
 30
0.0
 11
155.02
 21
35.833
 31
0.0
  0
LINE
  8
0
 62
     0
 10
135.97
 20
35.833
 30
0.0
 11
149.969
 21
35.833
 31
0.0
  0
LINE
  8
0
 62
     0
 10
149.969
 20
35.833
 30
0.0
 11
149.969
 21
21.8336
 31
0.0
  0
LINE
  8
0
 62
     0
 10
149.969
 20
21.8336
 30
0.0
 11
135.97
 21
21.8336
 31
0.0
  0
LINE
  8
0
 62
     0
 10
135.97
 20
21.8336
 30
0.0
 11
135.97
 21
35.833
 31
0.0
  0
LINE
  8
0
 62
     0
 10
116.918
 20
35.833
 30
0.0
 11
130.919
 21
35.833
 31
0.0
  0
LINE
  8
0
 62
     0
 10
130.919
 20
35.833
 30
0.0
 11
130.919
 21
21.8336
 31
0.0
  0
LINE
  8
0
 62
     0
 10
130.919
 20
21.8336
 30
0.0
 11
116.918
 21
21.8336
 31
0.0
  0
LINE
  8
0
 62
     0
 10
116.918
 20
21.8336
 30
0.0
 11
116.918
 21
35.833
 31
0.0
  0
LINE
  8
0
 62
     0
 10
97.8683
 20
35.833
 30
0.0
 11
111.869
 21
35.833
 31
0.0
  0
LINE
  8
0
 62
     0
 10
111.869
 20
35.833
 30
0.0
 11
111.869
 21
21.8336
 31
0.0
  0
LINE
  8
0
 62
     0
 10
111.869
 20
21.8336
 30
0.0
 11
97.8683
 21
21.8336
 31
0.0
  0
LINE
  8
0
 62
     0
 10
97.8683
 20
21.8336
 30
0.0
 11
97.8683
 21
35.833
 31
0.0
  0
LINE
  8
0
 62
     0
 10
78.8197
 20
35.833
 30
0.0
 11
92.819
 21
35.833
 31
0.0
  0
LINE
  8
0
 62
     0
 10
92.819
 20
35.833
 30
0.0
 11
92.819
 21
21.8336
 31
0.0
  0
LINE
  8
0
 62
     0
 10
92.819
 20
21.8336
 30
0.0
 11
78.8197
 21
21.8336
 31
0.0
  0
LINE
  8
0
 62
     0
 10
78.8197
 20
21.8336
 30
0.0
 11
78.8197
 21
35.833
 31
0.0
  0
LINE
  8
0
 62
     0
 10
59.7697
 20
35.833
 30
0.0
 11
73.769
 21
35.833
 31
0.0
  0
LINE
  8
0
 62
     0
 10
73.769
 20
35.833
 30
0.0
 11
73.769
 21
21.8336
 31
0.0
  0
LINE
  8
0
 62
     0
 10
73.769
 20
21.8336
 30
0.0
 11
59.7697
 21
21.8336
 31
0.0
  0
LINE
  8
0
 62
     0
 10
59.7697
 20
21.8336
 30
0.0
 11
59.7697
 21
35.833
 31
0.0
  0
LINE
  8
0
 62
     0
 10
40.7197
 20
35.833
 30
0.0
 11
54.719
 21
35.833
 31
0.0
  0
LINE
  8
0
 62
     0
 10
54.719
 20
35.833
 30
0.0
 11
54.719
 21
21.8336
 31
0.0
  0
LINE
  8
0
 62
     0
 10
54.719
 20
21.8336
 30
0.0
 11
40.7197
 21
21.8336
 31
0.0
  0
LINE
  8
0
 62
     0
 10
40.7197
 20
21.8336
 30
0.0
 11
40.7197
 21
35.833
 31
0.0
  0
LINE
  8
0
 62
     0
 10
21.6697
 20
35.833
 30
0.0
 11
35.669
 21
35.833
 31
0.0
  0
LINE
  8
0
 62
     0
 10
35.669
 20
35.833
 30
0.0
 11
35.669
 21
21.8336
 31
0.0
  0
LINE
  8
0
 62
     0
 10
35.669
 20
21.8336
 30
0.0
 11
21.6697
 21
21.8336
 31
0.0
  0
LINE
  8
0
 62
     0
 10
21.6697
 20
21.8336
 30
0.0
 11
21.6697
 21
35.833
 31
0.0
  0
LINE
  8
0
 62
     0
 10
2.61965
 20
35.833
 30
0.0
 11
16.6192
 21
35.833
 31
0.0
  0
LINE
  8
0
 62
     0
 10
16.6192
 20
35.833
 30
0.0
 11
16.6192
 21
21.8336
 31
0.0
  0
LINE
  8
0
 62
     0
 10
16.6192
 20
21.8336
 30
0.0
 11
2.61965
 21
21.8336
 31
0.0
  0
LINE
  8
0
 62
     0
 10
2.61965
 20
21.8336
 30
0.0
 11
2.61965
 21
35.833
 31
0.0
  0
LINE
  8
0
 62
     0
 10
174.07
 20
54.8831
 30
0.0
 11
188.069
 21
54.8831
 31
0.0
  0
LINE
  8
0
 62
     0
 10
188.069
 20
54.8831
 30
0.0
 11
188.069
 21
40.8838
 31
0.0
  0
LINE
  8
0
 62
     0
 10
188.069
 20
40.8838
 30
0.0
 11
174.07
 21
40.8838
 31
0.0
  0
LINE
  8
0
 62
     0
 10
174.07
 20
40.8838
 30
0.0
 11
174.07
 21
54.8831
 31
0.0
  0
LINE
  8
0
 62
     0
 10
155.02
 20
54.8831
 30
0.0
 11
169.019
 21
54.8831
 31
0.0
  0
LINE
  8
0
 62
     0
 10
169.019
 20
54.8831
 30
0.0
 11
169.019
 21
40.8838
 31
0.0
  0
LINE
  8
0
 62
     0
 10
169.019
 20
40.8838
 30
0.0
 11
155.02
 21
40.8838
 31
0.0
  0
LINE
  8
0
 62
     0
 10
155.02
 20
40.8838
 30
0.0
 11
155.02
 21
54.8831
 31
0.0
  0
LINE
  8
0
 62
     0
 10
135.97
 20
54.8831
 30
0.0
 11
149.969
 21
54.8831
 31
0.0
  0
LINE
  8
0
 62
     0
 10
149.969
 20
54.8831
 30
0.0
 11
149.969
 21
40.8838
 31
0.0
  0
LINE
  8
0
 62
     0
 10
149.969
 20
40.8838
 30
0.0
 11
135.97
 21
40.8838
 31
0.0
  0
LINE
  8
0
 62
     0
 10
135.97
 20
40.8838
 30
0.0
 11
135.97
 21
54.8831
 31
0.0
  0
LINE
  8
0
 62
     0
 10
116.918
 20
54.8831
 30
0.0
 11
130.919
 21
54.8831
 31
0.0
  0
LINE
  8
0
 62
     0
 10
130.919
 20
54.8831
 30
0.0
 11
130.919
 21
40.8838
 31
0.0
  0
LINE
  8
0
 62
     0
 10
130.919
 20
40.8838
 30
0.0
 11
116.918
 21
40.8838
 31
0.0
  0
LINE
  8
0
 62
     0
 10
116.918
 20
40.8838
 30
0.0
 11
116.918
 21
54.8831
 31
0.0
  0
LINE
  8
0
 62
     0
 10
97.8683
 20
54.8831
 30
0.0
 11
111.869
 21
54.8831
 31
0.0
  0
LINE
  8
0
 62
     0
 10
111.869
 20
54.8831
 30
0.0
 11
111.869
 21
40.8838
 31
0.0
  0
LINE
  8
0
 62
     0
 10
111.869
 20
40.8838
 30
0.0
 11
97.8683
 21
40.8838
 31
0.0
  0
LINE
  8
0
 62
     0
 10
97.8683
 20
40.8838
 30
0.0
 11
97.8683
 21
54.8831
 31
0.0
  0
LINE
  8
0
 62
     0
 10
78.8197
 20
54.8831
 30
0.0
 11
92.819
 21
54.8831
 31
0.0
  0
LINE
  8
0
 62
     0
 10
92.819
 20
54.8831
 30
0.0
 11
92.819
 21
40.8838
 31
0.0
  0
LINE
  8
0
 62
     0
 10
92.819
 20
40.8838
 30
0.0
 11
78.8197
 21
40.8838
 31
0.0
  0
LINE
  8
0
 62
     0
 10
78.8197
 20
40.8838
 30
0.0
 11
78.8197
 21
54.8831
 31
0.0
  0
LINE
  8
0
 62
     0
 10
59.7697
 20
54.8831
 30
0.0
 11
73.769
 21
54.8831
 31
0.0
  0
LINE
  8
0
 62
     0
 10
73.769
 20
54.8831
 30
0.0
 11
73.769
 21
40.8838
 31
0.0
  0
LINE
  8
0
 62
     0
 10
73.769
 20
40.8838
 30
0.0
 11
59.7697
 21
40.8838
 31
0.0
  0
LINE
  8
0
 62
     0
 10
59.7697
 20
40.8838
 30
0.0
 11
59.7697
 21
54.8831
 31
0.0
  0
LINE
  8
0
 62
     0
 10
40.7197
 20
54.8831
 30
0.0
 11
54.719
 21
54.8831
 31
0.0
  0
LINE
  8
0
 62
     0
 10
54.719
 20
54.8831
 30
0.0
 11
54.719
 21
40.8838
 31
0.0
  0
LINE
  8
0
 62
     0
 10
54.719
 20
40.8838
 30
0.0
 11
40.7197
 21
40.8838
 31
0.0
  0
LINE
  8
0
 62
     0
 10
40.7197
 20
40.8838
 30
0.0
 11
40.7197
 21
54.8831
 31
0.0
  0
LINE
  8
0
 62
     0
 10
21.6697
 20
54.8831
 30
0.0
 11
35.669
 21
54.8831
 31
0.0
  0
LINE
  8
0
 62
     0
 10
35.669
 20
54.8831
 30
0.0
 11
35.669
 21
40.8838
 31
0.0
  0
LINE
  8
0
 62
     0
 10
35.669
 20
40.8838
 30
0.0
 11
21.6697
 21
40.8838
 31
0.0
  0
LINE
  8
0
 62
     0
 10
21.6697
 20
40.8838
 30
0.0
 11
21.6697
 21
54.8831
 31
0.0
  0
LINE
  8
0
 62
     0
 10
2.61965
 20
54.8831
 30
0.0
 11
16.6192
 21
54.8831
 31
0.0
  0
LINE
  8
0
 62
     0
 10
16.6192
 20
54.8831
 30
0.0
 11
16.6192
 21
40.8838
 31
0.0
  0
LINE
  8
0
 62
     0
 10
16.6192
 20
40.8838
 30
0.0
 11
2.61965
 21
40.8838
 31
0.0
  0
LINE
  8
0
 62
     0
 10
2.61965
 20
40.8838
 30
0.0
 11
2.61965
 21
54.8831
 31
0.0
  0
LINE
  8
0
 62
     0
 10
174.07
 20
73.9331
 30
0.0
 11
188.069
 21
73.9331
 31
0.0
  0
LINE
  8
0
 62
     0
 10
188.069
 20
73.9331
 30
0.0
 11
188.069
 21
59.9338
 31
0.0
  0
LINE
  8
0
 62
     0
 10
188.069
 20
59.9338
 30
0.0
 11
174.07
 21
59.9338
 31
0.0
  0
LINE
  8
0
 62
     0
 10
174.07
 20
59.9338
 30
0.0
 11
174.07
 21
73.9331
 31
0.0
  0
LINE
  8
0
 62
     0
 10
155.02
 20
73.9331
 30
0.0
 11
169.019
 21
73.9331
 31
0.0
  0
LINE
  8
0
 62
     0
 10
169.019
 20
73.9331
 30
0.0
 11
169.019
 21
59.9338
 31
0.0
  0
LINE
  8
0
 62
     0
 10
169.019
 20
59.9338
 30
0.0
 11
155.02
 21
59.9338
 31
0.0
  0
LINE
  8
0
 62
     0
 10
155.02
 20
59.9338
 30
0.0
 11
155.02
 21
73.9331
 31
0.0
  0
LINE
  8
0
 62
     0
 10
135.97
 20
73.9331
 30
0.0
 11
149.969
 21
73.9331
 31
0.0
  0
LINE
  8
0
 62
     0
 10
149.969
 20
73.9331
 30
0.0
 11
149.969
 21
59.9338
 31
0.0
  0
LINE
  8
0
 62
     0
 10
149.969
 20
59.9338
 30
0.0
 11
135.97
 21
59.9338
 31
0.0
  0
LINE
  8
0
 62
     0
 10
135.97
 20
59.9338
 30
0.0
 11
135.97
 21
73.9331
 31
0.0
  0
LINE
  8
0
 62
     0
 10
116.918
 20
73.9331
 30
0.0
 11
130.919
 21
73.9331
 31
0.0
  0
LINE
  8
0
 62
     0
 10
130.919
 20
73.9331
 30
0.0
 11
130.919
 21
59.9338
 31
0.0
  0
LINE
  8
0
 62
     0
 10
130.919
 20
59.9338
 30
0.0
 11
116.918
 21
59.9338
 31
0.0
  0
LINE
  8
0
 62
     0
 10
116.918
 20
59.9338
 30
0.0
 11
116.918
 21
73.9331
 31
0.0
  0
LINE
  8
0
 62
     0
 10
97.8683
 20
73.9331
 30
0.0
 11
111.869
 21
73.9331
 31
0.0
  0
LINE
  8
0
 62
     0
 10
111.869
 20
73.9331
 30
0.0
 11
111.869
 21
59.9338
 31
0.0
  0
LINE
  8
0
 62
     0
 10
111.869
 20
59.9338
 30
0.0
 11
97.8683
 21
59.9338
 31
0.0
  0
LINE
  8
0
 62
     0
 10
97.8683
 20
59.9338
 30
0.0
 11
97.8683
 21
73.9331
 31
0.0
  0
LINE
  8
0
 62
     0
 10
78.8197
 20
73.9331
 30
0.0
 11
92.819
 21
73.9331
 31
0.0
  0
LINE
  8
0
 62
     0
 10
92.819
 20
73.9331
 30
0.0
 11
92.819
 21
59.9338
 31
0.0
  0
LINE
  8
0
 62
     0
 10
92.819
 20
59.9338
 30
0.0
 11
78.8197
 21
59.9338
 31
0.0
  0
LINE
  8
0
 62
     0
 10
78.8197
 20
59.9338
 30
0.0
 11
78.8197
 21
73.9331
 31
0.0
  0
LINE
  8
0
 62
     0
 10
59.7697
 20
73.9331
 30
0.0
 11
73.769
 21
73.9331
 31
0.0
  0
LINE
  8
0
 62
     0
 10
73.769
 20
73.9331
 30
0.0
 11
73.769
 21
59.9338
 31
0.0
  0
LINE
  8
0
 62
     0
 10
73.769
 20
59.9338
 30
0.0
 11
59.7697
 21
59.9338
 31
0.0
  0
LINE
  8
0
 62
     0
 10
59.7697
 20
59.9338
 30
0.0
 11
59.7697
 21
73.9331
 31
0.0
  0
LINE
  8
0
 62
     0
 10
40.7197
 20
73.9331
 30
0.0
 11
54.719
 21
73.9331
 31
0.0
  0
LINE
  8
0
 62
     0
 10
54.719
 20
73.9331
 30
0.0
 11
54.719
 21
59.9338
 31
0.0
  0
LINE
  8
0
 62
     0
 10
54.719
 20
59.9338
 30
0.0
 11
40.7197
 21
59.9338
 31
0.0
  0
LINE
  8
0
 62
     0
 10
40.7197
 20
59.9338
 30
0.0
 11
40.7197
 21
73.9331
 31
0.0
  0
LINE
  8
0
 62
     0
 10
21.6697
 20
73.9331
 30
0.0
 11
35.669
 21
73.9331
 31
0.0
  0
LINE
  8
0
 62
     0
 10
35.669
 20
73.9331
 30
0.0
 11
35.669
 21
59.9338
 31
0.0
  0
LINE
  8
0
 62
     0
 10
35.669
 20
59.9338
 30
0.0
 11
21.6697
 21
59.9338
 31
0.0
  0
LINE
  8
0
 62
     0
 10
21.6697
 20
59.9338
 30
0.0
 11
21.6697
 21
73.9331
 31
0.0
  0
LINE
  8
0
 62
     0
 10
2.61965
 20
73.9331
 30
0.0
 11
16.6192
 21
73.9331
 31
0.0
  0
LINE
  8
0
 62
     0
 10
16.6192
 20
73.9331
 30
0.0
 11
16.6192
 21
59.9338
 31
0.0
  0
LINE
  8
0
 62
     0
 10
16.6192
 20
59.9338
 30
0.0
 11
2.61965
 21
59.9338
 31
0.0
  0
LINE
  8
0
 62
     0
 10
2.61965
 20
59.9338
 30
0.0
 11
2.61965
 21
73.9331
 31
0.0
  0
LINE
  8
0
 62
     0
 10
174.07
 20
92.9831
 30
0.0
 11
188.069
 21
92.9831
 31
0.0
  0
LINE
  8
0
 62
     0
 10
188.069
 20
92.9831
 30
0.0
 11
188.069
 21
78.9838
 31
0.0
  0
LINE
  8
0
 62
     0
 10
188.069
 20
78.9838
 30
0.0
 11
174.07
 21
78.9838
 31
0.0
  0
LINE
  8
0
 62
     0
 10
174.07
 20
78.9838
 30
0.0
 11
174.07
 21
92.9831
 31
0.0
  0
LINE
  8
0
 62
     0
 10
155.02
 20
92.9831
 30
0.0
 11
169.019
 21
92.9831
 31
0.0
  0
LINE
  8
0
 62
     0
 10
169.019
 20
92.9831
 30
0.0
 11
169.019
 21
78.9838
 31
0.0
  0
LINE
  8
0
 62
     0
 10
169.019
 20
78.9838
 30
0.0
 11
155.02
 21
78.9838
 31
0.0
  0
LINE
  8
0
 62
     0
 10
155.02
 20
78.9838
 30
0.0
 11
155.02
 21
92.9831
 31
0.0
  0
LINE
  8
0
 62
     0
 10
135.97
 20
92.9831
 30
0.0
 11
149.969
 21
92.9831
 31
0.0
  0
LINE
  8
0
 62
     0
 10
149.969
 20
92.9831
 30
0.0
 11
149.969
 21
78.9838
 31
0.0
  0
LINE
  8
0
 62
     0
 10
149.969
 20
78.9838
 30
0.0
 11
135.97
 21
78.9838
 31
0.0
  0
LINE
  8
0
 62
     0
 10
135.97
 20
78.9838
 30
0.0
 11
135.97
 21
92.9831
 31
0.0
  0
LINE
  8
0
 62
     0
 10
116.918
 20
92.9831
 30
0.0
 11
130.919
 21
92.9831
 31
0.0
  0
LINE
  8
0
 62
     0
 10
130.919
 20
92.9831
 30
0.0
 11
130.919
 21
78.9838
 31
0.0
  0
LINE
  8
0
 62
     0
 10
130.919
 20
78.9838
 30
0.0
 11
116.918
 21
78.9838
 31
0.0
  0
LINE
  8
0
 62
     0
 10
116.918
 20
78.9838
 30
0.0
 11
116.918
 21
92.9831
 31
0.0
  0
LINE
  8
0
 62
     0
 10
97.8683
 20
92.9831
 30
0.0
 11
111.869
 21
92.9831
 31
0.0
  0
LINE
  8
0
 62
     0
 10
111.869
 20
92.9831
 30
0.0
 11
111.869
 21
78.9838
 31
0.0
  0
LINE
  8
0
 62
     0
 10
111.869
 20
78.9838
 30
0.0
 11
97.8683
 21
78.9838
 31
0.0
  0
LINE
  8
0
 62
     0
 10
97.8683
 20
78.9838
 30
0.0
 11
97.8683
 21
92.9831
 31
0.0
  0
LINE
  8
0
 62
     0
 10
78.8197
 20
92.9831
 30
0.0
 11
92.819
 21
92.9831
 31
0.0
  0
LINE
  8
0
 62
     0
 10
92.819
 20
92.9831
 30
0.0
 11
92.819
 21
78.9838
 31
0.0
  0
LINE
  8
0
 62
     0
 10
92.819
 20
78.9838
 30
0.0
 11
78.8197
 21
78.9838
 31
0.0
  0
LINE
  8
0
 62
     0
 10
78.8197
 20
78.9838
 30
0.0
 11
78.8197
 21
92.9831
 31
0.0
  0
LINE
  8
0
 62
     0
 10
59.7697
 20
92.9831
 30
0.0
 11
73.769
 21
92.9831
 31
0.0
  0
LINE
  8
0
 62
     0
 10
73.769
 20
92.9831
 30
0.0
 11
73.769
 21
78.9838
 31
0.0
  0
LINE
  8
0
 62
     0
 10
73.769
 20
78.9838
 30
0.0
 11
59.7697
 21
78.9838
 31
0.0
  0
LINE
  8
0
 62
     0
 10
59.7697
 20
78.9838
 30
0.0
 11
59.7697
 21
92.9831
 31
0.0
  0
LINE
  8
0
 62
     0
 10
40.7197
 20
92.9831
 30
0.0
 11
54.719
 21
92.9831
 31
0.0
  0
LINE
  8
0
 62
     0
 10
54.719
 20
92.9831
 30
0.0
 11
54.719
 21
78.9838
 31
0.0
  0
LINE
  8
0
 62
     0
 10
54.719
 20
78.9838
 30
0.0
 11
40.7197
 21
78.9838
 31
0.0
  0
LINE
  8
0
 62
     0
 10
40.7197
 20
78.9838
 30
0.0
 11
40.7197
 21
92.9831
 31
0.0
  0
LINE
  8
0
 62
     0
 10
21.6697
 20
92.9831
 30
0.0
 11
35.669
 21
92.9831
 31
0.0
  0
LINE
  8
0
 62
     0
 10
35.669
 20
92.9831
 30
0.0
 11
35.669
 21
78.9838
 31
0.0
  0
LINE
  8
0
 62
     0
 10
35.669
 20
78.9838
 30
0.0
 11
21.6697
 21
78.9838
 31
0.0
  0
LINE
  8
0
 62
     0
 10
21.6697
 20
78.9838
 30
0.0
 11
21.6697
 21
92.9831
 31
0.0
  0
LINE
  8
0
 62
     0
 10
2.61965
 20
92.9831
 30
0.0
 11
16.6192
 21
92.9831
 31
0.0
  0
LINE
  8
0
 62
     0
 10
16.6192
 20
92.9831
 30
0.0
 11
16.6192
 21
78.9838
 31
0.0
  0
LINE
  8
0
 62
     0
 10
16.6192
 20
78.9838
 30
0.0
 11
2.61965
 21
78.9838
 31
0.0
  0
LINE
  8
0
 62
     0
 10
2.61965
 20
78.9838
 30
0.0
 11
2.61965
 21
92.9831
 31
0.0
  0
ENDSEC
  0
EOF
