%TF.GenerationSoftware,KiCad,Pcbnew,(5.1.12)-1*%
%TF.CreationDate,2022-01-03T14:25:47-05:00*%
%TF.ProjectId,my-keeb-type-c,6d792d6b-6565-4622-9d74-7970652d632e,rev?*%
%TF.SameCoordinates,Original*%
%TF.FileFunction,Soldermask,Bot*%
%TF.FilePolarity,Negative*%
%FSLAX46Y46*%
G04 Gerber Fmt 4.6, Leading zero omitted, Abs format (unit mm)*
G04 Created by KiCad (PCBNEW (5.1.12)-1) date 2022-01-03 14:25:47*
%MOMM*%
%LPD*%
G01*
G04 APERTURE LIST*
%ADD10C,1.750000*%
%ADD11C,2.250000*%
%ADD12C,3.987800*%
%ADD13R,1.800000X2.100000*%
%ADD14R,0.600000X2.450000*%
%ADD15R,0.300000X2.450000*%
%ADD16C,0.650000*%
%ADD17R,0.700000X0.600000*%
%ADD18R,0.700000X1.000000*%
%ADD19R,0.550000X1.500000*%
%ADD20R,1.500000X0.550000*%
%ADD21R,1.800000X1.100000*%
%ADD22R,1.700000X1.700000*%
%ADD23C,1.700000*%
%ADD24R,1.200000X0.900000*%
%ADD25R,0.900000X1.200000*%
G04 APERTURE END LIST*
%TO.C,FB1*%
G36*
G01*
X123756000Y-22282999D02*
X123756000Y-23183001D01*
G75*
G02*
X123506001Y-23433000I-249999J0D01*
G01*
X122855999Y-23433000D01*
G75*
G02*
X122606000Y-23183001I0J249999D01*
G01*
X122606000Y-22282999D01*
G75*
G02*
X122855999Y-22033000I249999J0D01*
G01*
X123506001Y-22033000D01*
G75*
G02*
X123756000Y-22282999I0J-249999D01*
G01*
G37*
G36*
G01*
X125806000Y-22282999D02*
X125806000Y-23183001D01*
G75*
G02*
X125556001Y-23433000I-249999J0D01*
G01*
X124905999Y-23433000D01*
G75*
G02*
X124656000Y-23183001I0J249999D01*
G01*
X124656000Y-22282999D01*
G75*
G02*
X124905999Y-22033000I249999J0D01*
G01*
X125556001Y-22033000D01*
G75*
G02*
X125806000Y-22282999I0J-249999D01*
G01*
G37*
%TD*%
D10*
%TO.C,MX46*%
X207486250Y-88106250D03*
X197326250Y-88106250D03*
D11*
X199906250Y-84106250D03*
D12*
X202406250Y-88106250D03*
G36*
G01*
X197844938Y-86403600D02*
X197844933Y-86403595D01*
G75*
G02*
X197758905Y-84814933I751317J837345D01*
G01*
X199068907Y-83354933D01*
G75*
G02*
X200657569Y-83268905I837345J-751317D01*
G01*
X200657569Y-83268905D01*
G75*
G02*
X200743597Y-84857567I-751317J-837345D01*
G01*
X199433595Y-86317567D01*
G75*
G02*
X197844933Y-86403595I-837345J751317D01*
G01*
G37*
D11*
X204946250Y-83026250D03*
G36*
G01*
X204829733Y-84728645D02*
X204828847Y-84728584D01*
G75*
G02*
X203783916Y-83528847I77403J1122334D01*
G01*
X203823916Y-82948847D01*
G75*
G02*
X205023653Y-81903916I1122334J-77403D01*
G01*
X205023653Y-81903916D01*
G75*
G02*
X206068584Y-83103653I-77403J-1122334D01*
G01*
X206028584Y-83683653D01*
G75*
G02*
X204828847Y-84728584I-1122334J77403D01*
G01*
G37*
%TD*%
D10*
%TO.C,MX18*%
X83661250Y-107156250D03*
X73501250Y-107156250D03*
D11*
X76081250Y-103156250D03*
D12*
X78581250Y-107156250D03*
G36*
G01*
X74019938Y-105453600D02*
X74019933Y-105453595D01*
G75*
G02*
X73933905Y-103864933I751317J837345D01*
G01*
X75243907Y-102404933D01*
G75*
G02*
X76832569Y-102318905I837345J-751317D01*
G01*
X76832569Y-102318905D01*
G75*
G02*
X76918597Y-103907567I-751317J-837345D01*
G01*
X75608595Y-105367567D01*
G75*
G02*
X74019933Y-105453595I-837345J751317D01*
G01*
G37*
D11*
X81121250Y-102076250D03*
G36*
G01*
X81004733Y-103778645D02*
X81003847Y-103778584D01*
G75*
G02*
X79958916Y-102578847I77403J1122334D01*
G01*
X79998916Y-101998847D01*
G75*
G02*
X81198653Y-100953916I1122334J-77403D01*
G01*
X81198653Y-100953916D01*
G75*
G02*
X82243584Y-102153653I-77403J-1122334D01*
G01*
X82203584Y-102733653D01*
G75*
G02*
X81003847Y-103778584I-1122334J77403D01*
G01*
G37*
%TD*%
D10*
%TO.C,MX19*%
X112236250Y-30956250D03*
X102076250Y-30956250D03*
D11*
X104656250Y-26956250D03*
D12*
X107156250Y-30956250D03*
G36*
G01*
X102594938Y-29253600D02*
X102594933Y-29253595D01*
G75*
G02*
X102508905Y-27664933I751317J837345D01*
G01*
X103818907Y-26204933D01*
G75*
G02*
X105407569Y-26118905I837345J-751317D01*
G01*
X105407569Y-26118905D01*
G75*
G02*
X105493597Y-27707567I-751317J-837345D01*
G01*
X104183595Y-29167567D01*
G75*
G02*
X102594933Y-29253595I-837345J751317D01*
G01*
G37*
D11*
X109696250Y-25876250D03*
G36*
G01*
X109579733Y-27578645D02*
X109578847Y-27578584D01*
G75*
G02*
X108533916Y-26378847I77403J1122334D01*
G01*
X108573916Y-25798847D01*
G75*
G02*
X109773653Y-24753916I1122334J-77403D01*
G01*
X109773653Y-24753916D01*
G75*
G02*
X110818584Y-25953653I-77403J-1122334D01*
G01*
X110778584Y-26533653D01*
G75*
G02*
X109578847Y-27578584I-1122334J77403D01*
G01*
G37*
%TD*%
D10*
%TO.C,MX24*%
X131286250Y-30956250D03*
X121126250Y-30956250D03*
D11*
X123706250Y-26956250D03*
D12*
X126206250Y-30956250D03*
G36*
G01*
X121644938Y-29253600D02*
X121644933Y-29253595D01*
G75*
G02*
X121558905Y-27664933I751317J837345D01*
G01*
X122868907Y-26204933D01*
G75*
G02*
X124457569Y-26118905I837345J-751317D01*
G01*
X124457569Y-26118905D01*
G75*
G02*
X124543597Y-27707567I-751317J-837345D01*
G01*
X123233595Y-29167567D01*
G75*
G02*
X121644933Y-29253595I-837345J751317D01*
G01*
G37*
D11*
X128746250Y-25876250D03*
G36*
G01*
X128629733Y-27578645D02*
X128628847Y-27578584D01*
G75*
G02*
X127583916Y-26378847I77403J1122334D01*
G01*
X127623916Y-25798847D01*
G75*
G02*
X128823653Y-24753916I1122334J-77403D01*
G01*
X128823653Y-24753916D01*
G75*
G02*
X129868584Y-25953653I-77403J-1122334D01*
G01*
X129828584Y-26533653D01*
G75*
G02*
X128628847Y-27578584I-1122334J77403D01*
G01*
G37*
%TD*%
D10*
%TO.C,MX42*%
X188436250Y-88106250D03*
X178276250Y-88106250D03*
D11*
X180856250Y-84106250D03*
D12*
X183356250Y-88106250D03*
G36*
G01*
X178794938Y-86403600D02*
X178794933Y-86403595D01*
G75*
G02*
X178708905Y-84814933I751317J837345D01*
G01*
X180018907Y-83354933D01*
G75*
G02*
X181607569Y-83268905I837345J-751317D01*
G01*
X181607569Y-83268905D01*
G75*
G02*
X181693597Y-84857567I-751317J-837345D01*
G01*
X180383595Y-86317567D01*
G75*
G02*
X178794933Y-86403595I-837345J751317D01*
G01*
G37*
D11*
X185896250Y-83026250D03*
G36*
G01*
X185779733Y-84728645D02*
X185778847Y-84728584D01*
G75*
G02*
X184733916Y-83528847I77403J1122334D01*
G01*
X184773916Y-82948847D01*
G75*
G02*
X185973653Y-81903916I1122334J-77403D01*
G01*
X185973653Y-81903916D01*
G75*
G02*
X187018584Y-83103653I-77403J-1122334D01*
G01*
X186978584Y-83683653D01*
G75*
G02*
X185778847Y-84728584I-1122334J77403D01*
G01*
G37*
%TD*%
D10*
%TO.C,MX39*%
X188436250Y-30956250D03*
X178276250Y-30956250D03*
D11*
X180856250Y-26956250D03*
D12*
X183356250Y-30956250D03*
G36*
G01*
X178794938Y-29253600D02*
X178794933Y-29253595D01*
G75*
G02*
X178708905Y-27664933I751317J837345D01*
G01*
X180018907Y-26204933D01*
G75*
G02*
X181607569Y-26118905I837345J-751317D01*
G01*
X181607569Y-26118905D01*
G75*
G02*
X181693597Y-27707567I-751317J-837345D01*
G01*
X180383595Y-29167567D01*
G75*
G02*
X178794933Y-29253595I-837345J751317D01*
G01*
G37*
D11*
X185896250Y-25876250D03*
G36*
G01*
X185779733Y-27578645D02*
X185778847Y-27578584D01*
G75*
G02*
X184733916Y-26378847I77403J1122334D01*
G01*
X184773916Y-25798847D01*
G75*
G02*
X185973653Y-24753916I1122334J-77403D01*
G01*
X185973653Y-24753916D01*
G75*
G02*
X187018584Y-25953653I-77403J-1122334D01*
G01*
X186978584Y-26533653D01*
G75*
G02*
X185778847Y-27578584I-1122334J77403D01*
G01*
G37*
%TD*%
D13*
%TO.C,Y1*%
X203066000Y-106606000D03*
X203066000Y-103706000D03*
X205366000Y-103706000D03*
X205366000Y-106606000D03*
%TD*%
D14*
%TO.C,USB1*%
X119906250Y-24070000D03*
X113456250Y-24070000D03*
X119131250Y-24070000D03*
X114231250Y-24070000D03*
D15*
X114931250Y-24070000D03*
X118431250Y-24070000D03*
X115431250Y-24070000D03*
X117931250Y-24070000D03*
X115931250Y-24070000D03*
X117431250Y-24070000D03*
X116931250Y-24070000D03*
X116431250Y-24070000D03*
D16*
X119571250Y-22125000D03*
X113791250Y-22125000D03*
%TD*%
D17*
%TO.C,U2*%
X118507000Y-38891250D03*
X120507000Y-38891250D03*
X118507000Y-36991250D03*
D18*
X120507000Y-37191250D03*
%TD*%
D19*
%TO.C,U1*%
X188659000Y-99329000D03*
X189459000Y-99329000D03*
X190259000Y-99329000D03*
X191059000Y-99329000D03*
X191859000Y-99329000D03*
X192659000Y-99329000D03*
X193459000Y-99329000D03*
X194259000Y-99329000D03*
X195059000Y-99329000D03*
X195859000Y-99329000D03*
X196659000Y-99329000D03*
D20*
X198359000Y-101029000D03*
X198359000Y-101829000D03*
X198359000Y-102629000D03*
X198359000Y-103429000D03*
X198359000Y-104229000D03*
X198359000Y-105029000D03*
X198359000Y-105829000D03*
X198359000Y-106629000D03*
X198359000Y-107429000D03*
X198359000Y-108229000D03*
X198359000Y-109029000D03*
D19*
X196659000Y-110729000D03*
X195859000Y-110729000D03*
X195059000Y-110729000D03*
X194259000Y-110729000D03*
X193459000Y-110729000D03*
X192659000Y-110729000D03*
X191859000Y-110729000D03*
X191059000Y-110729000D03*
X190259000Y-110729000D03*
X189459000Y-110729000D03*
X188659000Y-110729000D03*
D20*
X186959000Y-109029000D03*
X186959000Y-108229000D03*
X186959000Y-107429000D03*
X186959000Y-106629000D03*
X186959000Y-105829000D03*
X186959000Y-105029000D03*
X186959000Y-104229000D03*
X186959000Y-103429000D03*
X186959000Y-102629000D03*
X186959000Y-101829000D03*
X186959000Y-101029000D03*
%TD*%
D21*
%TO.C,SW1*%
X210237000Y-92765000D03*
X204037000Y-92765000D03*
X210237000Y-96465000D03*
X204037000Y-96465000D03*
%TD*%
%TO.C,R6*%
G36*
G01*
X192157001Y-97358000D02*
X191256999Y-97358000D01*
G75*
G02*
X191007000Y-97108001I0J249999D01*
G01*
X191007000Y-96407999D01*
G75*
G02*
X191256999Y-96158000I249999J0D01*
G01*
X192157001Y-96158000D01*
G75*
G02*
X192407000Y-96407999I0J-249999D01*
G01*
X192407000Y-97108001D01*
G75*
G02*
X192157001Y-97358000I-249999J0D01*
G01*
G37*
G36*
G01*
X192157001Y-95358000D02*
X191256999Y-95358000D01*
G75*
G02*
X191007000Y-95108001I0J249999D01*
G01*
X191007000Y-94407999D01*
G75*
G02*
X191256999Y-94158000I249999J0D01*
G01*
X192157001Y-94158000D01*
G75*
G02*
X192407000Y-94407999I0J-249999D01*
G01*
X192407000Y-95108001D01*
G75*
G02*
X192157001Y-95358000I-249999J0D01*
G01*
G37*
%TD*%
%TO.C,R5*%
G36*
G01*
X190061001Y-97358000D02*
X189160999Y-97358000D01*
G75*
G02*
X188911000Y-97108001I0J249999D01*
G01*
X188911000Y-96407999D01*
G75*
G02*
X189160999Y-96158000I249999J0D01*
G01*
X190061001Y-96158000D01*
G75*
G02*
X190311000Y-96407999I0J-249999D01*
G01*
X190311000Y-97108001D01*
G75*
G02*
X190061001Y-97358000I-249999J0D01*
G01*
G37*
G36*
G01*
X190061001Y-95358000D02*
X189160999Y-95358000D01*
G75*
G02*
X188911000Y-95108001I0J249999D01*
G01*
X188911000Y-94407999D01*
G75*
G02*
X189160999Y-94158000I249999J0D01*
G01*
X190061001Y-94158000D01*
G75*
G02*
X190311000Y-94407999I0J-249999D01*
G01*
X190311000Y-95108001D01*
G75*
G02*
X190061001Y-95358000I-249999J0D01*
G01*
G37*
%TD*%
%TO.C,R4*%
G36*
G01*
X113900000Y-33681249D02*
X113900000Y-34581251D01*
G75*
G02*
X113650001Y-34831250I-249999J0D01*
G01*
X112949999Y-34831250D01*
G75*
G02*
X112700000Y-34581251I0J249999D01*
G01*
X112700000Y-33681249D01*
G75*
G02*
X112949999Y-33431250I249999J0D01*
G01*
X113650001Y-33431250D01*
G75*
G02*
X113900000Y-33681249I0J-249999D01*
G01*
G37*
G36*
G01*
X115900000Y-33681249D02*
X115900000Y-34581251D01*
G75*
G02*
X115650001Y-34831250I-249999J0D01*
G01*
X114949999Y-34831250D01*
G75*
G02*
X114700000Y-34581251I0J249999D01*
G01*
X114700000Y-33681249D01*
G75*
G02*
X114949999Y-33431250I249999J0D01*
G01*
X115650001Y-33431250D01*
G75*
G02*
X115900000Y-33681249I0J-249999D01*
G01*
G37*
%TD*%
%TO.C,R3*%
G36*
G01*
X122955000Y-34581251D02*
X122955000Y-33681249D01*
G75*
G02*
X123204999Y-33431250I249999J0D01*
G01*
X123905001Y-33431250D01*
G75*
G02*
X124155000Y-33681249I0J-249999D01*
G01*
X124155000Y-34581251D01*
G75*
G02*
X123905001Y-34831250I-249999J0D01*
G01*
X123204999Y-34831250D01*
G75*
G02*
X122955000Y-34581251I0J249999D01*
G01*
G37*
G36*
G01*
X120955000Y-34581251D02*
X120955000Y-33681249D01*
G75*
G02*
X121204999Y-33431250I249999J0D01*
G01*
X121905001Y-33431250D01*
G75*
G02*
X122155000Y-33681249I0J-249999D01*
G01*
X122155000Y-34581251D01*
G75*
G02*
X121905001Y-34831250I-249999J0D01*
G01*
X121204999Y-34831250D01*
G75*
G02*
X120955000Y-34581251I0J249999D01*
G01*
G37*
%TD*%
%TO.C,R2*%
G36*
G01*
X179248000Y-111448001D02*
X179248000Y-110547999D01*
G75*
G02*
X179497999Y-110298000I249999J0D01*
G01*
X180198001Y-110298000D01*
G75*
G02*
X180448000Y-110547999I0J-249999D01*
G01*
X180448000Y-111448001D01*
G75*
G02*
X180198001Y-111698000I-249999J0D01*
G01*
X179497999Y-111698000D01*
G75*
G02*
X179248000Y-111448001I0J249999D01*
G01*
G37*
G36*
G01*
X181248000Y-111448001D02*
X181248000Y-110547999D01*
G75*
G02*
X181497999Y-110298000I249999J0D01*
G01*
X182198001Y-110298000D01*
G75*
G02*
X182448000Y-110547999I0J-249999D01*
G01*
X182448000Y-111448001D01*
G75*
G02*
X182198001Y-111698000I-249999J0D01*
G01*
X181497999Y-111698000D01*
G75*
G02*
X181248000Y-111448001I0J249999D01*
G01*
G37*
%TD*%
%TO.C,R1*%
G36*
G01*
X201498000Y-96831999D02*
X201498000Y-97732001D01*
G75*
G02*
X201248001Y-97982000I-249999J0D01*
G01*
X200547999Y-97982000D01*
G75*
G02*
X200298000Y-97732001I0J249999D01*
G01*
X200298000Y-96831999D01*
G75*
G02*
X200547999Y-96582000I249999J0D01*
G01*
X201248001Y-96582000D01*
G75*
G02*
X201498000Y-96831999I0J-249999D01*
G01*
G37*
G36*
G01*
X199498000Y-96831999D02*
X199498000Y-97732001D01*
G75*
G02*
X199248001Y-97982000I-249999J0D01*
G01*
X198547999Y-97982000D01*
G75*
G02*
X198298000Y-97732001I0J249999D01*
G01*
X198298000Y-96831999D01*
G75*
G02*
X198547999Y-96582000I249999J0D01*
G01*
X199248001Y-96582000D01*
G75*
G02*
X199498000Y-96831999I0J-249999D01*
G01*
G37*
%TD*%
D10*
%TO.C,MX45*%
X207486250Y-69056250D03*
X197326250Y-69056250D03*
D11*
X199906250Y-65056250D03*
D12*
X202406250Y-69056250D03*
G36*
G01*
X197844938Y-67353600D02*
X197844933Y-67353595D01*
G75*
G02*
X197758905Y-65764933I751317J837345D01*
G01*
X199068907Y-64304933D01*
G75*
G02*
X200657569Y-64218905I837345J-751317D01*
G01*
X200657569Y-64218905D01*
G75*
G02*
X200743597Y-65807567I-751317J-837345D01*
G01*
X199433595Y-67267567D01*
G75*
G02*
X197844933Y-67353595I-837345J751317D01*
G01*
G37*
D11*
X204946250Y-63976250D03*
G36*
G01*
X204829733Y-65678645D02*
X204828847Y-65678584D01*
G75*
G02*
X203783916Y-64478847I77403J1122334D01*
G01*
X203823916Y-63898847D01*
G75*
G02*
X205023653Y-62853916I1122334J-77403D01*
G01*
X205023653Y-62853916D01*
G75*
G02*
X206068584Y-64053653I-77403J-1122334D01*
G01*
X206028584Y-64633653D01*
G75*
G02*
X204828847Y-65678584I-1122334J77403D01*
G01*
G37*
%TD*%
D10*
%TO.C,MX44*%
X207486250Y-50006250D03*
X197326250Y-50006250D03*
D11*
X199906250Y-46006250D03*
D12*
X202406250Y-50006250D03*
G36*
G01*
X197844938Y-48303600D02*
X197844933Y-48303595D01*
G75*
G02*
X197758905Y-46714933I751317J837345D01*
G01*
X199068907Y-45254933D01*
G75*
G02*
X200657569Y-45168905I837345J-751317D01*
G01*
X200657569Y-45168905D01*
G75*
G02*
X200743597Y-46757567I-751317J-837345D01*
G01*
X199433595Y-48217567D01*
G75*
G02*
X197844933Y-48303595I-837345J751317D01*
G01*
G37*
D11*
X204946250Y-44926250D03*
G36*
G01*
X204829733Y-46628645D02*
X204828847Y-46628584D01*
G75*
G02*
X203783916Y-45428847I77403J1122334D01*
G01*
X203823916Y-44848847D01*
G75*
G02*
X205023653Y-43803916I1122334J-77403D01*
G01*
X205023653Y-43803916D01*
G75*
G02*
X206068584Y-45003653I-77403J-1122334D01*
G01*
X206028584Y-45583653D01*
G75*
G02*
X204828847Y-46628584I-1122334J77403D01*
G01*
G37*
%TD*%
D10*
%TO.C,MX43*%
X207486250Y-30956250D03*
X197326250Y-30956250D03*
D11*
X199906250Y-26956250D03*
D12*
X202406250Y-30956250D03*
G36*
G01*
X197844938Y-29253600D02*
X197844933Y-29253595D01*
G75*
G02*
X197758905Y-27664933I751317J837345D01*
G01*
X199068907Y-26204933D01*
G75*
G02*
X200657569Y-26118905I837345J-751317D01*
G01*
X200657569Y-26118905D01*
G75*
G02*
X200743597Y-27707567I-751317J-837345D01*
G01*
X199433595Y-29167567D01*
G75*
G02*
X197844933Y-29253595I-837345J751317D01*
G01*
G37*
D11*
X204946250Y-25876250D03*
G36*
G01*
X204829733Y-27578645D02*
X204828847Y-27578584D01*
G75*
G02*
X203783916Y-26378847I77403J1122334D01*
G01*
X203823916Y-25798847D01*
G75*
G02*
X205023653Y-24753916I1122334J-77403D01*
G01*
X205023653Y-24753916D01*
G75*
G02*
X206068584Y-25953653I-77403J-1122334D01*
G01*
X206028584Y-26533653D01*
G75*
G02*
X204828847Y-27578584I-1122334J77403D01*
G01*
G37*
%TD*%
D10*
%TO.C,MX41*%
X188436250Y-69056250D03*
X178276250Y-69056250D03*
D11*
X180856250Y-65056250D03*
D12*
X183356250Y-69056250D03*
G36*
G01*
X178794938Y-67353600D02*
X178794933Y-67353595D01*
G75*
G02*
X178708905Y-65764933I751317J837345D01*
G01*
X180018907Y-64304933D01*
G75*
G02*
X181607569Y-64218905I837345J-751317D01*
G01*
X181607569Y-64218905D01*
G75*
G02*
X181693597Y-65807567I-751317J-837345D01*
G01*
X180383595Y-67267567D01*
G75*
G02*
X178794933Y-67353595I-837345J751317D01*
G01*
G37*
D11*
X185896250Y-63976250D03*
G36*
G01*
X185779733Y-65678645D02*
X185778847Y-65678584D01*
G75*
G02*
X184733916Y-64478847I77403J1122334D01*
G01*
X184773916Y-63898847D01*
G75*
G02*
X185973653Y-62853916I1122334J-77403D01*
G01*
X185973653Y-62853916D01*
G75*
G02*
X187018584Y-64053653I-77403J-1122334D01*
G01*
X186978584Y-64633653D01*
G75*
G02*
X185778847Y-65678584I-1122334J77403D01*
G01*
G37*
%TD*%
D10*
%TO.C,MX40*%
X188436250Y-50006250D03*
X178276250Y-50006250D03*
D11*
X180856250Y-46006250D03*
D12*
X183356250Y-50006250D03*
G36*
G01*
X178794938Y-48303600D02*
X178794933Y-48303595D01*
G75*
G02*
X178708905Y-46714933I751317J837345D01*
G01*
X180018907Y-45254933D01*
G75*
G02*
X181607569Y-45168905I837345J-751317D01*
G01*
X181607569Y-45168905D01*
G75*
G02*
X181693597Y-46757567I-751317J-837345D01*
G01*
X180383595Y-48217567D01*
G75*
G02*
X178794933Y-48303595I-837345J751317D01*
G01*
G37*
D11*
X185896250Y-44926250D03*
G36*
G01*
X185779733Y-46628645D02*
X185778847Y-46628584D01*
G75*
G02*
X184733916Y-45428847I77403J1122334D01*
G01*
X184773916Y-44848847D01*
G75*
G02*
X185973653Y-43803916I1122334J-77403D01*
G01*
X185973653Y-43803916D01*
G75*
G02*
X187018584Y-45003653I-77403J-1122334D01*
G01*
X186978584Y-45583653D01*
G75*
G02*
X185778847Y-46628584I-1122334J77403D01*
G01*
G37*
%TD*%
D10*
%TO.C,MX38*%
X178911250Y-107156250D03*
X168751250Y-107156250D03*
D11*
X171331250Y-103156250D03*
D12*
X173831250Y-107156250D03*
G36*
G01*
X169269938Y-105453600D02*
X169269933Y-105453595D01*
G75*
G02*
X169183905Y-103864933I751317J837345D01*
G01*
X170493907Y-102404933D01*
G75*
G02*
X172082569Y-102318905I837345J-751317D01*
G01*
X172082569Y-102318905D01*
G75*
G02*
X172168597Y-103907567I-751317J-837345D01*
G01*
X170858595Y-105367567D01*
G75*
G02*
X169269933Y-105453595I-837345J751317D01*
G01*
G37*
D11*
X176371250Y-102076250D03*
G36*
G01*
X176254733Y-103778645D02*
X176253847Y-103778584D01*
G75*
G02*
X175208916Y-102578847I77403J1122334D01*
G01*
X175248916Y-101998847D01*
G75*
G02*
X176448653Y-100953916I1122334J-77403D01*
G01*
X176448653Y-100953916D01*
G75*
G02*
X177493584Y-102153653I-77403J-1122334D01*
G01*
X177453584Y-102733653D01*
G75*
G02*
X176253847Y-103778584I-1122334J77403D01*
G01*
G37*
%TD*%
D10*
%TO.C,MX37*%
X169386250Y-88106250D03*
X159226250Y-88106250D03*
D11*
X161806250Y-84106250D03*
D12*
X164306250Y-88106250D03*
G36*
G01*
X159744938Y-86403600D02*
X159744933Y-86403595D01*
G75*
G02*
X159658905Y-84814933I751317J837345D01*
G01*
X160968907Y-83354933D01*
G75*
G02*
X162557569Y-83268905I837345J-751317D01*
G01*
X162557569Y-83268905D01*
G75*
G02*
X162643597Y-84857567I-751317J-837345D01*
G01*
X161333595Y-86317567D01*
G75*
G02*
X159744933Y-86403595I-837345J751317D01*
G01*
G37*
D11*
X166846250Y-83026250D03*
G36*
G01*
X166729733Y-84728645D02*
X166728847Y-84728584D01*
G75*
G02*
X165683916Y-83528847I77403J1122334D01*
G01*
X165723916Y-82948847D01*
G75*
G02*
X166923653Y-81903916I1122334J-77403D01*
G01*
X166923653Y-81903916D01*
G75*
G02*
X167968584Y-83103653I-77403J-1122334D01*
G01*
X167928584Y-83683653D01*
G75*
G02*
X166728847Y-84728584I-1122334J77403D01*
G01*
G37*
%TD*%
D10*
%TO.C,MX36*%
X169386250Y-69056250D03*
X159226250Y-69056250D03*
D11*
X161806250Y-65056250D03*
D12*
X164306250Y-69056250D03*
G36*
G01*
X159744938Y-67353600D02*
X159744933Y-67353595D01*
G75*
G02*
X159658905Y-65764933I751317J837345D01*
G01*
X160968907Y-64304933D01*
G75*
G02*
X162557569Y-64218905I837345J-751317D01*
G01*
X162557569Y-64218905D01*
G75*
G02*
X162643597Y-65807567I-751317J-837345D01*
G01*
X161333595Y-67267567D01*
G75*
G02*
X159744933Y-67353595I-837345J751317D01*
G01*
G37*
D11*
X166846250Y-63976250D03*
G36*
G01*
X166729733Y-65678645D02*
X166728847Y-65678584D01*
G75*
G02*
X165683916Y-64478847I77403J1122334D01*
G01*
X165723916Y-63898847D01*
G75*
G02*
X166923653Y-62853916I1122334J-77403D01*
G01*
X166923653Y-62853916D01*
G75*
G02*
X167968584Y-64053653I-77403J-1122334D01*
G01*
X167928584Y-64633653D01*
G75*
G02*
X166728847Y-65678584I-1122334J77403D01*
G01*
G37*
%TD*%
D10*
%TO.C,MX35*%
X169386250Y-50006250D03*
X159226250Y-50006250D03*
D11*
X161806250Y-46006250D03*
D12*
X164306250Y-50006250D03*
G36*
G01*
X159744938Y-48303600D02*
X159744933Y-48303595D01*
G75*
G02*
X159658905Y-46714933I751317J837345D01*
G01*
X160968907Y-45254933D01*
G75*
G02*
X162557569Y-45168905I837345J-751317D01*
G01*
X162557569Y-45168905D01*
G75*
G02*
X162643597Y-46757567I-751317J-837345D01*
G01*
X161333595Y-48217567D01*
G75*
G02*
X159744933Y-48303595I-837345J751317D01*
G01*
G37*
D11*
X166846250Y-44926250D03*
G36*
G01*
X166729733Y-46628645D02*
X166728847Y-46628584D01*
G75*
G02*
X165683916Y-45428847I77403J1122334D01*
G01*
X165723916Y-44848847D01*
G75*
G02*
X166923653Y-43803916I1122334J-77403D01*
G01*
X166923653Y-43803916D01*
G75*
G02*
X167968584Y-45003653I-77403J-1122334D01*
G01*
X167928584Y-45583653D01*
G75*
G02*
X166728847Y-46628584I-1122334J77403D01*
G01*
G37*
%TD*%
D10*
%TO.C,MX34*%
X169386250Y-30956250D03*
X159226250Y-30956250D03*
D11*
X161806250Y-26956250D03*
D12*
X164306250Y-30956250D03*
G36*
G01*
X159744938Y-29253600D02*
X159744933Y-29253595D01*
G75*
G02*
X159658905Y-27664933I751317J837345D01*
G01*
X160968907Y-26204933D01*
G75*
G02*
X162557569Y-26118905I837345J-751317D01*
G01*
X162557569Y-26118905D01*
G75*
G02*
X162643597Y-27707567I-751317J-837345D01*
G01*
X161333595Y-29167567D01*
G75*
G02*
X159744933Y-29253595I-837345J751317D01*
G01*
G37*
D11*
X166846250Y-25876250D03*
G36*
G01*
X166729733Y-27578645D02*
X166728847Y-27578584D01*
G75*
G02*
X165683916Y-26378847I77403J1122334D01*
G01*
X165723916Y-25798847D01*
G75*
G02*
X166923653Y-24753916I1122334J-77403D01*
G01*
X166923653Y-24753916D01*
G75*
G02*
X167968584Y-25953653I-77403J-1122334D01*
G01*
X167928584Y-26533653D01*
G75*
G02*
X166728847Y-27578584I-1122334J77403D01*
G01*
G37*
%TD*%
D10*
%TO.C,MX33*%
X159861250Y-107156250D03*
X149701250Y-107156250D03*
D11*
X152281250Y-103156250D03*
D12*
X154781250Y-107156250D03*
G36*
G01*
X150219938Y-105453600D02*
X150219933Y-105453595D01*
G75*
G02*
X150133905Y-103864933I751317J837345D01*
G01*
X151443907Y-102404933D01*
G75*
G02*
X153032569Y-102318905I837345J-751317D01*
G01*
X153032569Y-102318905D01*
G75*
G02*
X153118597Y-103907567I-751317J-837345D01*
G01*
X151808595Y-105367567D01*
G75*
G02*
X150219933Y-105453595I-837345J751317D01*
G01*
G37*
D11*
X157321250Y-102076250D03*
G36*
G01*
X157204733Y-103778645D02*
X157203847Y-103778584D01*
G75*
G02*
X156158916Y-102578847I77403J1122334D01*
G01*
X156198916Y-101998847D01*
G75*
G02*
X157398653Y-100953916I1122334J-77403D01*
G01*
X157398653Y-100953916D01*
G75*
G02*
X158443584Y-102153653I-77403J-1122334D01*
G01*
X158403584Y-102733653D01*
G75*
G02*
X157203847Y-103778584I-1122334J77403D01*
G01*
G37*
%TD*%
D10*
%TO.C,MX32*%
X150336250Y-88106250D03*
X140176250Y-88106250D03*
D11*
X142756250Y-84106250D03*
D12*
X145256250Y-88106250D03*
G36*
G01*
X140694938Y-86403600D02*
X140694933Y-86403595D01*
G75*
G02*
X140608905Y-84814933I751317J837345D01*
G01*
X141918907Y-83354933D01*
G75*
G02*
X143507569Y-83268905I837345J-751317D01*
G01*
X143507569Y-83268905D01*
G75*
G02*
X143593597Y-84857567I-751317J-837345D01*
G01*
X142283595Y-86317567D01*
G75*
G02*
X140694933Y-86403595I-837345J751317D01*
G01*
G37*
D11*
X147796250Y-83026250D03*
G36*
G01*
X147679733Y-84728645D02*
X147678847Y-84728584D01*
G75*
G02*
X146633916Y-83528847I77403J1122334D01*
G01*
X146673916Y-82948847D01*
G75*
G02*
X147873653Y-81903916I1122334J-77403D01*
G01*
X147873653Y-81903916D01*
G75*
G02*
X148918584Y-83103653I-77403J-1122334D01*
G01*
X148878584Y-83683653D01*
G75*
G02*
X147678847Y-84728584I-1122334J77403D01*
G01*
G37*
%TD*%
D10*
%TO.C,MX31*%
X150336250Y-69056250D03*
X140176250Y-69056250D03*
D11*
X142756250Y-65056250D03*
D12*
X145256250Y-69056250D03*
G36*
G01*
X140694938Y-67353600D02*
X140694933Y-67353595D01*
G75*
G02*
X140608905Y-65764933I751317J837345D01*
G01*
X141918907Y-64304933D01*
G75*
G02*
X143507569Y-64218905I837345J-751317D01*
G01*
X143507569Y-64218905D01*
G75*
G02*
X143593597Y-65807567I-751317J-837345D01*
G01*
X142283595Y-67267567D01*
G75*
G02*
X140694933Y-67353595I-837345J751317D01*
G01*
G37*
D11*
X147796250Y-63976250D03*
G36*
G01*
X147679733Y-65678645D02*
X147678847Y-65678584D01*
G75*
G02*
X146633916Y-64478847I77403J1122334D01*
G01*
X146673916Y-63898847D01*
G75*
G02*
X147873653Y-62853916I1122334J-77403D01*
G01*
X147873653Y-62853916D01*
G75*
G02*
X148918584Y-64053653I-77403J-1122334D01*
G01*
X148878584Y-64633653D01*
G75*
G02*
X147678847Y-65678584I-1122334J77403D01*
G01*
G37*
%TD*%
D10*
%TO.C,MX30*%
X150336250Y-50006250D03*
X140176250Y-50006250D03*
D11*
X142756250Y-46006250D03*
D12*
X145256250Y-50006250D03*
G36*
G01*
X140694938Y-48303600D02*
X140694933Y-48303595D01*
G75*
G02*
X140608905Y-46714933I751317J837345D01*
G01*
X141918907Y-45254933D01*
G75*
G02*
X143507569Y-45168905I837345J-751317D01*
G01*
X143507569Y-45168905D01*
G75*
G02*
X143593597Y-46757567I-751317J-837345D01*
G01*
X142283595Y-48217567D01*
G75*
G02*
X140694933Y-48303595I-837345J751317D01*
G01*
G37*
D11*
X147796250Y-44926250D03*
G36*
G01*
X147679733Y-46628645D02*
X147678847Y-46628584D01*
G75*
G02*
X146633916Y-45428847I77403J1122334D01*
G01*
X146673916Y-44848847D01*
G75*
G02*
X147873653Y-43803916I1122334J-77403D01*
G01*
X147873653Y-43803916D01*
G75*
G02*
X148918584Y-45003653I-77403J-1122334D01*
G01*
X148878584Y-45583653D01*
G75*
G02*
X147678847Y-46628584I-1122334J77403D01*
G01*
G37*
%TD*%
D10*
%TO.C,MX29*%
X150336250Y-30956250D03*
X140176250Y-30956250D03*
D11*
X142756250Y-26956250D03*
D12*
X145256250Y-30956250D03*
G36*
G01*
X140694938Y-29253600D02*
X140694933Y-29253595D01*
G75*
G02*
X140608905Y-27664933I751317J837345D01*
G01*
X141918907Y-26204933D01*
G75*
G02*
X143507569Y-26118905I837345J-751317D01*
G01*
X143507569Y-26118905D01*
G75*
G02*
X143593597Y-27707567I-751317J-837345D01*
G01*
X142283595Y-29167567D01*
G75*
G02*
X140694933Y-29253595I-837345J751317D01*
G01*
G37*
D11*
X147796250Y-25876250D03*
G36*
G01*
X147679733Y-27578645D02*
X147678847Y-27578584D01*
G75*
G02*
X146633916Y-26378847I77403J1122334D01*
G01*
X146673916Y-25798847D01*
G75*
G02*
X147873653Y-24753916I1122334J-77403D01*
G01*
X147873653Y-24753916D01*
G75*
G02*
X148918584Y-25953653I-77403J-1122334D01*
G01*
X148878584Y-26533653D01*
G75*
G02*
X147678847Y-27578584I-1122334J77403D01*
G01*
G37*
%TD*%
D10*
%TO.C,MX28*%
X136048750Y-107156250D03*
X125888750Y-107156250D03*
D11*
X128468750Y-103156250D03*
D12*
X130968750Y-107156250D03*
G36*
G01*
X126407438Y-105453600D02*
X126407433Y-105453595D01*
G75*
G02*
X126321405Y-103864933I751317J837345D01*
G01*
X127631407Y-102404933D01*
G75*
G02*
X129220069Y-102318905I837345J-751317D01*
G01*
X129220069Y-102318905D01*
G75*
G02*
X129306097Y-103907567I-751317J-837345D01*
G01*
X127996095Y-105367567D01*
G75*
G02*
X126407433Y-105453595I-837345J751317D01*
G01*
G37*
D11*
X133508750Y-102076250D03*
G36*
G01*
X133392233Y-103778645D02*
X133391347Y-103778584D01*
G75*
G02*
X132346416Y-102578847I77403J1122334D01*
G01*
X132386416Y-101998847D01*
G75*
G02*
X133586153Y-100953916I1122334J-77403D01*
G01*
X133586153Y-100953916D01*
G75*
G02*
X134631084Y-102153653I-77403J-1122334D01*
G01*
X134591084Y-102733653D01*
G75*
G02*
X133391347Y-103778584I-1122334J77403D01*
G01*
G37*
%TD*%
D10*
%TO.C,MX27*%
X131286250Y-88106250D03*
X121126250Y-88106250D03*
D11*
X123706250Y-84106250D03*
D12*
X126206250Y-88106250D03*
G36*
G01*
X121644938Y-86403600D02*
X121644933Y-86403595D01*
G75*
G02*
X121558905Y-84814933I751317J837345D01*
G01*
X122868907Y-83354933D01*
G75*
G02*
X124457569Y-83268905I837345J-751317D01*
G01*
X124457569Y-83268905D01*
G75*
G02*
X124543597Y-84857567I-751317J-837345D01*
G01*
X123233595Y-86317567D01*
G75*
G02*
X121644933Y-86403595I-837345J751317D01*
G01*
G37*
D11*
X128746250Y-83026250D03*
G36*
G01*
X128629733Y-84728645D02*
X128628847Y-84728584D01*
G75*
G02*
X127583916Y-83528847I77403J1122334D01*
G01*
X127623916Y-82948847D01*
G75*
G02*
X128823653Y-81903916I1122334J-77403D01*
G01*
X128823653Y-81903916D01*
G75*
G02*
X129868584Y-83103653I-77403J-1122334D01*
G01*
X129828584Y-83683653D01*
G75*
G02*
X128628847Y-84728584I-1122334J77403D01*
G01*
G37*
%TD*%
D10*
%TO.C,MX26*%
X131286250Y-69056250D03*
X121126250Y-69056250D03*
D11*
X123706250Y-65056250D03*
D12*
X126206250Y-69056250D03*
G36*
G01*
X121644938Y-67353600D02*
X121644933Y-67353595D01*
G75*
G02*
X121558905Y-65764933I751317J837345D01*
G01*
X122868907Y-64304933D01*
G75*
G02*
X124457569Y-64218905I837345J-751317D01*
G01*
X124457569Y-64218905D01*
G75*
G02*
X124543597Y-65807567I-751317J-837345D01*
G01*
X123233595Y-67267567D01*
G75*
G02*
X121644933Y-67353595I-837345J751317D01*
G01*
G37*
D11*
X128746250Y-63976250D03*
G36*
G01*
X128629733Y-65678645D02*
X128628847Y-65678584D01*
G75*
G02*
X127583916Y-64478847I77403J1122334D01*
G01*
X127623916Y-63898847D01*
G75*
G02*
X128823653Y-62853916I1122334J-77403D01*
G01*
X128823653Y-62853916D01*
G75*
G02*
X129868584Y-64053653I-77403J-1122334D01*
G01*
X129828584Y-64633653D01*
G75*
G02*
X128628847Y-65678584I-1122334J77403D01*
G01*
G37*
%TD*%
D10*
%TO.C,MX25*%
X131286250Y-50006250D03*
X121126250Y-50006250D03*
D11*
X123706250Y-46006250D03*
D12*
X126206250Y-50006250D03*
G36*
G01*
X121644938Y-48303600D02*
X121644933Y-48303595D01*
G75*
G02*
X121558905Y-46714933I751317J837345D01*
G01*
X122868907Y-45254933D01*
G75*
G02*
X124457569Y-45168905I837345J-751317D01*
G01*
X124457569Y-45168905D01*
G75*
G02*
X124543597Y-46757567I-751317J-837345D01*
G01*
X123233595Y-48217567D01*
G75*
G02*
X121644933Y-48303595I-837345J751317D01*
G01*
G37*
D11*
X128746250Y-44926250D03*
G36*
G01*
X128629733Y-46628645D02*
X128628847Y-46628584D01*
G75*
G02*
X127583916Y-45428847I77403J1122334D01*
G01*
X127623916Y-44848847D01*
G75*
G02*
X128823653Y-43803916I1122334J-77403D01*
G01*
X128823653Y-43803916D01*
G75*
G02*
X129868584Y-45003653I-77403J-1122334D01*
G01*
X129828584Y-45583653D01*
G75*
G02*
X128628847Y-46628584I-1122334J77403D01*
G01*
G37*
%TD*%
D10*
%TO.C,MX23*%
X107473750Y-107156250D03*
X97313750Y-107156250D03*
D11*
X99893750Y-103156250D03*
D12*
X102393750Y-107156250D03*
G36*
G01*
X97832438Y-105453600D02*
X97832433Y-105453595D01*
G75*
G02*
X97746405Y-103864933I751317J837345D01*
G01*
X99056407Y-102404933D01*
G75*
G02*
X100645069Y-102318905I837345J-751317D01*
G01*
X100645069Y-102318905D01*
G75*
G02*
X100731097Y-103907567I-751317J-837345D01*
G01*
X99421095Y-105367567D01*
G75*
G02*
X97832433Y-105453595I-837345J751317D01*
G01*
G37*
D11*
X104933750Y-102076250D03*
G36*
G01*
X104817233Y-103778645D02*
X104816347Y-103778584D01*
G75*
G02*
X103771416Y-102578847I77403J1122334D01*
G01*
X103811416Y-101998847D01*
G75*
G02*
X105011153Y-100953916I1122334J-77403D01*
G01*
X105011153Y-100953916D01*
G75*
G02*
X106056084Y-102153653I-77403J-1122334D01*
G01*
X106016084Y-102733653D01*
G75*
G02*
X104816347Y-103778584I-1122334J77403D01*
G01*
G37*
%TD*%
D10*
%TO.C,MX22*%
X112236250Y-88106250D03*
X102076250Y-88106250D03*
D11*
X104656250Y-84106250D03*
D12*
X107156250Y-88106250D03*
G36*
G01*
X102594938Y-86403600D02*
X102594933Y-86403595D01*
G75*
G02*
X102508905Y-84814933I751317J837345D01*
G01*
X103818907Y-83354933D01*
G75*
G02*
X105407569Y-83268905I837345J-751317D01*
G01*
X105407569Y-83268905D01*
G75*
G02*
X105493597Y-84857567I-751317J-837345D01*
G01*
X104183595Y-86317567D01*
G75*
G02*
X102594933Y-86403595I-837345J751317D01*
G01*
G37*
D11*
X109696250Y-83026250D03*
G36*
G01*
X109579733Y-84728645D02*
X109578847Y-84728584D01*
G75*
G02*
X108533916Y-83528847I77403J1122334D01*
G01*
X108573916Y-82948847D01*
G75*
G02*
X109773653Y-81903916I1122334J-77403D01*
G01*
X109773653Y-81903916D01*
G75*
G02*
X110818584Y-83103653I-77403J-1122334D01*
G01*
X110778584Y-83683653D01*
G75*
G02*
X109578847Y-84728584I-1122334J77403D01*
G01*
G37*
%TD*%
D10*
%TO.C,MX21*%
X112236250Y-69056250D03*
X102076250Y-69056250D03*
D11*
X104656250Y-65056250D03*
D12*
X107156250Y-69056250D03*
G36*
G01*
X102594938Y-67353600D02*
X102594933Y-67353595D01*
G75*
G02*
X102508905Y-65764933I751317J837345D01*
G01*
X103818907Y-64304933D01*
G75*
G02*
X105407569Y-64218905I837345J-751317D01*
G01*
X105407569Y-64218905D01*
G75*
G02*
X105493597Y-65807567I-751317J-837345D01*
G01*
X104183595Y-67267567D01*
G75*
G02*
X102594933Y-67353595I-837345J751317D01*
G01*
G37*
D11*
X109696250Y-63976250D03*
G36*
G01*
X109579733Y-65678645D02*
X109578847Y-65678584D01*
G75*
G02*
X108533916Y-64478847I77403J1122334D01*
G01*
X108573916Y-63898847D01*
G75*
G02*
X109773653Y-62853916I1122334J-77403D01*
G01*
X109773653Y-62853916D01*
G75*
G02*
X110818584Y-64053653I-77403J-1122334D01*
G01*
X110778584Y-64633653D01*
G75*
G02*
X109578847Y-65678584I-1122334J77403D01*
G01*
G37*
%TD*%
D10*
%TO.C,MX20*%
X112236250Y-50006250D03*
X102076250Y-50006250D03*
D11*
X104656250Y-46006250D03*
D12*
X107156250Y-50006250D03*
G36*
G01*
X102594938Y-48303600D02*
X102594933Y-48303595D01*
G75*
G02*
X102508905Y-46714933I751317J837345D01*
G01*
X103818907Y-45254933D01*
G75*
G02*
X105407569Y-45168905I837345J-751317D01*
G01*
X105407569Y-45168905D01*
G75*
G02*
X105493597Y-46757567I-751317J-837345D01*
G01*
X104183595Y-48217567D01*
G75*
G02*
X102594933Y-48303595I-837345J751317D01*
G01*
G37*
D11*
X109696250Y-44926250D03*
G36*
G01*
X109579733Y-46628645D02*
X109578847Y-46628584D01*
G75*
G02*
X108533916Y-45428847I77403J1122334D01*
G01*
X108573916Y-44848847D01*
G75*
G02*
X109773653Y-43803916I1122334J-77403D01*
G01*
X109773653Y-43803916D01*
G75*
G02*
X110818584Y-45003653I-77403J-1122334D01*
G01*
X110778584Y-45583653D01*
G75*
G02*
X109578847Y-46628584I-1122334J77403D01*
G01*
G37*
%TD*%
D10*
%TO.C,MX17*%
X93186250Y-88106250D03*
X83026250Y-88106250D03*
D11*
X85606250Y-84106250D03*
D12*
X88106250Y-88106250D03*
G36*
G01*
X83544938Y-86403600D02*
X83544933Y-86403595D01*
G75*
G02*
X83458905Y-84814933I751317J837345D01*
G01*
X84768907Y-83354933D01*
G75*
G02*
X86357569Y-83268905I837345J-751317D01*
G01*
X86357569Y-83268905D01*
G75*
G02*
X86443597Y-84857567I-751317J-837345D01*
G01*
X85133595Y-86317567D01*
G75*
G02*
X83544933Y-86403595I-837345J751317D01*
G01*
G37*
D11*
X90646250Y-83026250D03*
G36*
G01*
X90529733Y-84728645D02*
X90528847Y-84728584D01*
G75*
G02*
X89483916Y-83528847I77403J1122334D01*
G01*
X89523916Y-82948847D01*
G75*
G02*
X90723653Y-81903916I1122334J-77403D01*
G01*
X90723653Y-81903916D01*
G75*
G02*
X91768584Y-83103653I-77403J-1122334D01*
G01*
X91728584Y-83683653D01*
G75*
G02*
X90528847Y-84728584I-1122334J77403D01*
G01*
G37*
%TD*%
D10*
%TO.C,MX16*%
X93186250Y-69056250D03*
X83026250Y-69056250D03*
D11*
X85606250Y-65056250D03*
D12*
X88106250Y-69056250D03*
G36*
G01*
X83544938Y-67353600D02*
X83544933Y-67353595D01*
G75*
G02*
X83458905Y-65764933I751317J837345D01*
G01*
X84768907Y-64304933D01*
G75*
G02*
X86357569Y-64218905I837345J-751317D01*
G01*
X86357569Y-64218905D01*
G75*
G02*
X86443597Y-65807567I-751317J-837345D01*
G01*
X85133595Y-67267567D01*
G75*
G02*
X83544933Y-67353595I-837345J751317D01*
G01*
G37*
D11*
X90646250Y-63976250D03*
G36*
G01*
X90529733Y-65678645D02*
X90528847Y-65678584D01*
G75*
G02*
X89483916Y-64478847I77403J1122334D01*
G01*
X89523916Y-63898847D01*
G75*
G02*
X90723653Y-62853916I1122334J-77403D01*
G01*
X90723653Y-62853916D01*
G75*
G02*
X91768584Y-64053653I-77403J-1122334D01*
G01*
X91728584Y-64633653D01*
G75*
G02*
X90528847Y-65678584I-1122334J77403D01*
G01*
G37*
%TD*%
D10*
%TO.C,MX15*%
X93186250Y-50006250D03*
X83026250Y-50006250D03*
D11*
X85606250Y-46006250D03*
D12*
X88106250Y-50006250D03*
G36*
G01*
X83544938Y-48303600D02*
X83544933Y-48303595D01*
G75*
G02*
X83458905Y-46714933I751317J837345D01*
G01*
X84768907Y-45254933D01*
G75*
G02*
X86357569Y-45168905I837345J-751317D01*
G01*
X86357569Y-45168905D01*
G75*
G02*
X86443597Y-46757567I-751317J-837345D01*
G01*
X85133595Y-48217567D01*
G75*
G02*
X83544933Y-48303595I-837345J751317D01*
G01*
G37*
D11*
X90646250Y-44926250D03*
G36*
G01*
X90529733Y-46628645D02*
X90528847Y-46628584D01*
G75*
G02*
X89483916Y-45428847I77403J1122334D01*
G01*
X89523916Y-44848847D01*
G75*
G02*
X90723653Y-43803916I1122334J-77403D01*
G01*
X90723653Y-43803916D01*
G75*
G02*
X91768584Y-45003653I-77403J-1122334D01*
G01*
X91728584Y-45583653D01*
G75*
G02*
X90528847Y-46628584I-1122334J77403D01*
G01*
G37*
%TD*%
D10*
%TO.C,MX14*%
X93186250Y-30956250D03*
X83026250Y-30956250D03*
D11*
X85606250Y-26956250D03*
D12*
X88106250Y-30956250D03*
G36*
G01*
X83544938Y-29253600D02*
X83544933Y-29253595D01*
G75*
G02*
X83458905Y-27664933I751317J837345D01*
G01*
X84768907Y-26204933D01*
G75*
G02*
X86357569Y-26118905I837345J-751317D01*
G01*
X86357569Y-26118905D01*
G75*
G02*
X86443597Y-27707567I-751317J-837345D01*
G01*
X85133595Y-29167567D01*
G75*
G02*
X83544933Y-29253595I-837345J751317D01*
G01*
G37*
D11*
X90646250Y-25876250D03*
G36*
G01*
X90529733Y-27578645D02*
X90528847Y-27578584D01*
G75*
G02*
X89483916Y-26378847I77403J1122334D01*
G01*
X89523916Y-25798847D01*
G75*
G02*
X90723653Y-24753916I1122334J-77403D01*
G01*
X90723653Y-24753916D01*
G75*
G02*
X91768584Y-25953653I-77403J-1122334D01*
G01*
X91728584Y-26533653D01*
G75*
G02*
X90528847Y-27578584I-1122334J77403D01*
G01*
G37*
%TD*%
D10*
%TO.C,MX13*%
X64611250Y-107156250D03*
X54451250Y-107156250D03*
D11*
X57031250Y-103156250D03*
D12*
X59531250Y-107156250D03*
G36*
G01*
X54969938Y-105453600D02*
X54969933Y-105453595D01*
G75*
G02*
X54883905Y-103864933I751317J837345D01*
G01*
X56193907Y-102404933D01*
G75*
G02*
X57782569Y-102318905I837345J-751317D01*
G01*
X57782569Y-102318905D01*
G75*
G02*
X57868597Y-103907567I-751317J-837345D01*
G01*
X56558595Y-105367567D01*
G75*
G02*
X54969933Y-105453595I-837345J751317D01*
G01*
G37*
D11*
X62071250Y-102076250D03*
G36*
G01*
X61954733Y-103778645D02*
X61953847Y-103778584D01*
G75*
G02*
X60908916Y-102578847I77403J1122334D01*
G01*
X60948916Y-101998847D01*
G75*
G02*
X62148653Y-100953916I1122334J-77403D01*
G01*
X62148653Y-100953916D01*
G75*
G02*
X63193584Y-102153653I-77403J-1122334D01*
G01*
X63153584Y-102733653D01*
G75*
G02*
X61953847Y-103778584I-1122334J77403D01*
G01*
G37*
%TD*%
D10*
%TO.C,MX12*%
X74136250Y-88106250D03*
X63976250Y-88106250D03*
D11*
X66556250Y-84106250D03*
D12*
X69056250Y-88106250D03*
G36*
G01*
X64494938Y-86403600D02*
X64494933Y-86403595D01*
G75*
G02*
X64408905Y-84814933I751317J837345D01*
G01*
X65718907Y-83354933D01*
G75*
G02*
X67307569Y-83268905I837345J-751317D01*
G01*
X67307569Y-83268905D01*
G75*
G02*
X67393597Y-84857567I-751317J-837345D01*
G01*
X66083595Y-86317567D01*
G75*
G02*
X64494933Y-86403595I-837345J751317D01*
G01*
G37*
D11*
X71596250Y-83026250D03*
G36*
G01*
X71479733Y-84728645D02*
X71478847Y-84728584D01*
G75*
G02*
X70433916Y-83528847I77403J1122334D01*
G01*
X70473916Y-82948847D01*
G75*
G02*
X71673653Y-81903916I1122334J-77403D01*
G01*
X71673653Y-81903916D01*
G75*
G02*
X72718584Y-83103653I-77403J-1122334D01*
G01*
X72678584Y-83683653D01*
G75*
G02*
X71478847Y-84728584I-1122334J77403D01*
G01*
G37*
%TD*%
D10*
%TO.C,MX11*%
X74136250Y-69056250D03*
X63976250Y-69056250D03*
D11*
X66556250Y-65056250D03*
D12*
X69056250Y-69056250D03*
G36*
G01*
X64494938Y-67353600D02*
X64494933Y-67353595D01*
G75*
G02*
X64408905Y-65764933I751317J837345D01*
G01*
X65718907Y-64304933D01*
G75*
G02*
X67307569Y-64218905I837345J-751317D01*
G01*
X67307569Y-64218905D01*
G75*
G02*
X67393597Y-65807567I-751317J-837345D01*
G01*
X66083595Y-67267567D01*
G75*
G02*
X64494933Y-67353595I-837345J751317D01*
G01*
G37*
D11*
X71596250Y-63976250D03*
G36*
G01*
X71479733Y-65678645D02*
X71478847Y-65678584D01*
G75*
G02*
X70433916Y-64478847I77403J1122334D01*
G01*
X70473916Y-63898847D01*
G75*
G02*
X71673653Y-62853916I1122334J-77403D01*
G01*
X71673653Y-62853916D01*
G75*
G02*
X72718584Y-64053653I-77403J-1122334D01*
G01*
X72678584Y-64633653D01*
G75*
G02*
X71478847Y-65678584I-1122334J77403D01*
G01*
G37*
%TD*%
D10*
%TO.C,MX10*%
X74136250Y-50006250D03*
X63976250Y-50006250D03*
D11*
X66556250Y-46006250D03*
D12*
X69056250Y-50006250D03*
G36*
G01*
X64494938Y-48303600D02*
X64494933Y-48303595D01*
G75*
G02*
X64408905Y-46714933I751317J837345D01*
G01*
X65718907Y-45254933D01*
G75*
G02*
X67307569Y-45168905I837345J-751317D01*
G01*
X67307569Y-45168905D01*
G75*
G02*
X67393597Y-46757567I-751317J-837345D01*
G01*
X66083595Y-48217567D01*
G75*
G02*
X64494933Y-48303595I-837345J751317D01*
G01*
G37*
D11*
X71596250Y-44926250D03*
G36*
G01*
X71479733Y-46628645D02*
X71478847Y-46628584D01*
G75*
G02*
X70433916Y-45428847I77403J1122334D01*
G01*
X70473916Y-44848847D01*
G75*
G02*
X71673653Y-43803916I1122334J-77403D01*
G01*
X71673653Y-43803916D01*
G75*
G02*
X72718584Y-45003653I-77403J-1122334D01*
G01*
X72678584Y-45583653D01*
G75*
G02*
X71478847Y-46628584I-1122334J77403D01*
G01*
G37*
%TD*%
D10*
%TO.C,MX9*%
X74136250Y-30956250D03*
X63976250Y-30956250D03*
D11*
X66556250Y-26956250D03*
D12*
X69056250Y-30956250D03*
G36*
G01*
X64494938Y-29253600D02*
X64494933Y-29253595D01*
G75*
G02*
X64408905Y-27664933I751317J837345D01*
G01*
X65718907Y-26204933D01*
G75*
G02*
X67307569Y-26118905I837345J-751317D01*
G01*
X67307569Y-26118905D01*
G75*
G02*
X67393597Y-27707567I-751317J-837345D01*
G01*
X66083595Y-29167567D01*
G75*
G02*
X64494933Y-29253595I-837345J751317D01*
G01*
G37*
D11*
X71596250Y-25876250D03*
G36*
G01*
X71479733Y-27578645D02*
X71478847Y-27578584D01*
G75*
G02*
X70433916Y-26378847I77403J1122334D01*
G01*
X70473916Y-25798847D01*
G75*
G02*
X71673653Y-24753916I1122334J-77403D01*
G01*
X71673653Y-24753916D01*
G75*
G02*
X72718584Y-25953653I-77403J-1122334D01*
G01*
X72678584Y-26533653D01*
G75*
G02*
X71478847Y-27578584I-1122334J77403D01*
G01*
G37*
%TD*%
D10*
%TO.C,MX8*%
X55086250Y-88106250D03*
X44926250Y-88106250D03*
D11*
X47506250Y-84106250D03*
D12*
X50006250Y-88106250D03*
G36*
G01*
X45444938Y-86403600D02*
X45444933Y-86403595D01*
G75*
G02*
X45358905Y-84814933I751317J837345D01*
G01*
X46668907Y-83354933D01*
G75*
G02*
X48257569Y-83268905I837345J-751317D01*
G01*
X48257569Y-83268905D01*
G75*
G02*
X48343597Y-84857567I-751317J-837345D01*
G01*
X47033595Y-86317567D01*
G75*
G02*
X45444933Y-86403595I-837345J751317D01*
G01*
G37*
D11*
X52546250Y-83026250D03*
G36*
G01*
X52429733Y-84728645D02*
X52428847Y-84728584D01*
G75*
G02*
X51383916Y-83528847I77403J1122334D01*
G01*
X51423916Y-82948847D01*
G75*
G02*
X52623653Y-81903916I1122334J-77403D01*
G01*
X52623653Y-81903916D01*
G75*
G02*
X53668584Y-83103653I-77403J-1122334D01*
G01*
X53628584Y-83683653D01*
G75*
G02*
X52428847Y-84728584I-1122334J77403D01*
G01*
G37*
%TD*%
D10*
%TO.C,MX7*%
X55086250Y-69056250D03*
X44926250Y-69056250D03*
D11*
X47506250Y-65056250D03*
D12*
X50006250Y-69056250D03*
G36*
G01*
X45444938Y-67353600D02*
X45444933Y-67353595D01*
G75*
G02*
X45358905Y-65764933I751317J837345D01*
G01*
X46668907Y-64304933D01*
G75*
G02*
X48257569Y-64218905I837345J-751317D01*
G01*
X48257569Y-64218905D01*
G75*
G02*
X48343597Y-65807567I-751317J-837345D01*
G01*
X47033595Y-67267567D01*
G75*
G02*
X45444933Y-67353595I-837345J751317D01*
G01*
G37*
D11*
X52546250Y-63976250D03*
G36*
G01*
X52429733Y-65678645D02*
X52428847Y-65678584D01*
G75*
G02*
X51383916Y-64478847I77403J1122334D01*
G01*
X51423916Y-63898847D01*
G75*
G02*
X52623653Y-62853916I1122334J-77403D01*
G01*
X52623653Y-62853916D01*
G75*
G02*
X53668584Y-64053653I-77403J-1122334D01*
G01*
X53628584Y-64633653D01*
G75*
G02*
X52428847Y-65678584I-1122334J77403D01*
G01*
G37*
%TD*%
D10*
%TO.C,MX6*%
X55086250Y-50006250D03*
X44926250Y-50006250D03*
D11*
X47506250Y-46006250D03*
D12*
X50006250Y-50006250D03*
G36*
G01*
X45444938Y-48303600D02*
X45444933Y-48303595D01*
G75*
G02*
X45358905Y-46714933I751317J837345D01*
G01*
X46668907Y-45254933D01*
G75*
G02*
X48257569Y-45168905I837345J-751317D01*
G01*
X48257569Y-45168905D01*
G75*
G02*
X48343597Y-46757567I-751317J-837345D01*
G01*
X47033595Y-48217567D01*
G75*
G02*
X45444933Y-48303595I-837345J751317D01*
G01*
G37*
D11*
X52546250Y-44926250D03*
G36*
G01*
X52429733Y-46628645D02*
X52428847Y-46628584D01*
G75*
G02*
X51383916Y-45428847I77403J1122334D01*
G01*
X51423916Y-44848847D01*
G75*
G02*
X52623653Y-43803916I1122334J-77403D01*
G01*
X52623653Y-43803916D01*
G75*
G02*
X53668584Y-45003653I-77403J-1122334D01*
G01*
X53628584Y-45583653D01*
G75*
G02*
X52428847Y-46628584I-1122334J77403D01*
G01*
G37*
%TD*%
D10*
%TO.C,MX5*%
X55086250Y-30956250D03*
X44926250Y-30956250D03*
D11*
X47506250Y-26956250D03*
D12*
X50006250Y-30956250D03*
G36*
G01*
X45444938Y-29253600D02*
X45444933Y-29253595D01*
G75*
G02*
X45358905Y-27664933I751317J837345D01*
G01*
X46668907Y-26204933D01*
G75*
G02*
X48257569Y-26118905I837345J-751317D01*
G01*
X48257569Y-26118905D01*
G75*
G02*
X48343597Y-27707567I-751317J-837345D01*
G01*
X47033595Y-29167567D01*
G75*
G02*
X45444933Y-29253595I-837345J751317D01*
G01*
G37*
D11*
X52546250Y-25876250D03*
G36*
G01*
X52429733Y-27578645D02*
X52428847Y-27578584D01*
G75*
G02*
X51383916Y-26378847I77403J1122334D01*
G01*
X51423916Y-25798847D01*
G75*
G02*
X52623653Y-24753916I1122334J-77403D01*
G01*
X52623653Y-24753916D01*
G75*
G02*
X53668584Y-25953653I-77403J-1122334D01*
G01*
X53628584Y-26533653D01*
G75*
G02*
X52428847Y-27578584I-1122334J77403D01*
G01*
G37*
%TD*%
D10*
%TO.C,MX4*%
X36036250Y-88106250D03*
X25876250Y-88106250D03*
D11*
X28456250Y-84106250D03*
D12*
X30956250Y-88106250D03*
G36*
G01*
X26394938Y-86403600D02*
X26394933Y-86403595D01*
G75*
G02*
X26308905Y-84814933I751317J837345D01*
G01*
X27618907Y-83354933D01*
G75*
G02*
X29207569Y-83268905I837345J-751317D01*
G01*
X29207569Y-83268905D01*
G75*
G02*
X29293597Y-84857567I-751317J-837345D01*
G01*
X27983595Y-86317567D01*
G75*
G02*
X26394933Y-86403595I-837345J751317D01*
G01*
G37*
D11*
X33496250Y-83026250D03*
G36*
G01*
X33379733Y-84728645D02*
X33378847Y-84728584D01*
G75*
G02*
X32333916Y-83528847I77403J1122334D01*
G01*
X32373916Y-82948847D01*
G75*
G02*
X33573653Y-81903916I1122334J-77403D01*
G01*
X33573653Y-81903916D01*
G75*
G02*
X34618584Y-83103653I-77403J-1122334D01*
G01*
X34578584Y-83683653D01*
G75*
G02*
X33378847Y-84728584I-1122334J77403D01*
G01*
G37*
%TD*%
D10*
%TO.C,MX3*%
X36036250Y-69056250D03*
X25876250Y-69056250D03*
D11*
X28456250Y-65056250D03*
D12*
X30956250Y-69056250D03*
G36*
G01*
X26394938Y-67353600D02*
X26394933Y-67353595D01*
G75*
G02*
X26308905Y-65764933I751317J837345D01*
G01*
X27618907Y-64304933D01*
G75*
G02*
X29207569Y-64218905I837345J-751317D01*
G01*
X29207569Y-64218905D01*
G75*
G02*
X29293597Y-65807567I-751317J-837345D01*
G01*
X27983595Y-67267567D01*
G75*
G02*
X26394933Y-67353595I-837345J751317D01*
G01*
G37*
D11*
X33496250Y-63976250D03*
G36*
G01*
X33379733Y-65678645D02*
X33378847Y-65678584D01*
G75*
G02*
X32333916Y-64478847I77403J1122334D01*
G01*
X32373916Y-63898847D01*
G75*
G02*
X33573653Y-62853916I1122334J-77403D01*
G01*
X33573653Y-62853916D01*
G75*
G02*
X34618584Y-64053653I-77403J-1122334D01*
G01*
X34578584Y-64633653D01*
G75*
G02*
X33378847Y-65678584I-1122334J77403D01*
G01*
G37*
%TD*%
D10*
%TO.C,MX2*%
X36036250Y-50006250D03*
X25876250Y-50006250D03*
D11*
X28456250Y-46006250D03*
D12*
X30956250Y-50006250D03*
G36*
G01*
X26394938Y-48303600D02*
X26394933Y-48303595D01*
G75*
G02*
X26308905Y-46714933I751317J837345D01*
G01*
X27618907Y-45254933D01*
G75*
G02*
X29207569Y-45168905I837345J-751317D01*
G01*
X29207569Y-45168905D01*
G75*
G02*
X29293597Y-46757567I-751317J-837345D01*
G01*
X27983595Y-48217567D01*
G75*
G02*
X26394933Y-48303595I-837345J751317D01*
G01*
G37*
D11*
X33496250Y-44926250D03*
G36*
G01*
X33379733Y-46628645D02*
X33378847Y-46628584D01*
G75*
G02*
X32333916Y-45428847I77403J1122334D01*
G01*
X32373916Y-44848847D01*
G75*
G02*
X33573653Y-43803916I1122334J-77403D01*
G01*
X33573653Y-43803916D01*
G75*
G02*
X34618584Y-45003653I-77403J-1122334D01*
G01*
X34578584Y-45583653D01*
G75*
G02*
X33378847Y-46628584I-1122334J77403D01*
G01*
G37*
%TD*%
D10*
%TO.C,MX1*%
X36036250Y-30956250D03*
X25876250Y-30956250D03*
D11*
X28456250Y-26956250D03*
D12*
X30956250Y-30956250D03*
G36*
G01*
X26394938Y-29253600D02*
X26394933Y-29253595D01*
G75*
G02*
X26308905Y-27664933I751317J837345D01*
G01*
X27618907Y-26204933D01*
G75*
G02*
X29207569Y-26118905I837345J-751317D01*
G01*
X29207569Y-26118905D01*
G75*
G02*
X29293597Y-27707567I-751317J-837345D01*
G01*
X27983595Y-29167567D01*
G75*
G02*
X26394933Y-29253595I-837345J751317D01*
G01*
G37*
D11*
X33496250Y-25876250D03*
G36*
G01*
X33379733Y-27578645D02*
X33378847Y-27578584D01*
G75*
G02*
X32333916Y-26378847I77403J1122334D01*
G01*
X32373916Y-25798847D01*
G75*
G02*
X33573653Y-24753916I1122334J-77403D01*
G01*
X33573653Y-24753916D01*
G75*
G02*
X34618584Y-25953653I-77403J-1122334D01*
G01*
X34578584Y-26533653D01*
G75*
G02*
X33378847Y-27578584I-1122334J77403D01*
G01*
G37*
%TD*%
D22*
%TO.C,J1*%
X208121250Y-114776250D03*
D23*
X208121250Y-112236250D03*
X205581250Y-114776250D03*
X205581250Y-112236250D03*
X203041250Y-114776250D03*
X203041250Y-112236250D03*
%TD*%
%TO.C,F1*%
G36*
G01*
X114925000Y-39706250D02*
X113675000Y-39706250D01*
G75*
G02*
X113425000Y-39456250I0J250000D01*
G01*
X113425000Y-38531250D01*
G75*
G02*
X113675000Y-38281250I250000J0D01*
G01*
X114925000Y-38281250D01*
G75*
G02*
X115175000Y-38531250I0J-250000D01*
G01*
X115175000Y-39456250D01*
G75*
G02*
X114925000Y-39706250I-250000J0D01*
G01*
G37*
G36*
G01*
X114925000Y-42681250D02*
X113675000Y-42681250D01*
G75*
G02*
X113425000Y-42431250I0J250000D01*
G01*
X113425000Y-41506250D01*
G75*
G02*
X113675000Y-41256250I250000J0D01*
G01*
X114925000Y-41256250D01*
G75*
G02*
X115175000Y-41506250I0J-250000D01*
G01*
X115175000Y-42431250D01*
G75*
G02*
X114925000Y-42681250I-250000J0D01*
G01*
G37*
%TD*%
D24*
%TO.C,D46*%
X210343750Y-87250000D03*
X210343750Y-90550000D03*
%TD*%
%TO.C,D45*%
X210343750Y-68200000D03*
X210343750Y-71500000D03*
%TD*%
%TO.C,D44*%
X210343750Y-49150000D03*
X210343750Y-52450000D03*
%TD*%
%TO.C,D43*%
X210343750Y-30100000D03*
X210343750Y-33400000D03*
%TD*%
%TO.C,D42*%
X191293750Y-87250000D03*
X191293750Y-90550000D03*
%TD*%
%TO.C,D41*%
X191293750Y-68200000D03*
X191293750Y-71500000D03*
%TD*%
%TO.C,D40*%
X191293750Y-49150000D03*
X191293750Y-52450000D03*
%TD*%
%TO.C,D39*%
X191293750Y-30100000D03*
X191293750Y-33400000D03*
%TD*%
%TO.C,D38*%
X181768750Y-104712500D03*
X181768750Y-108012500D03*
%TD*%
%TO.C,D37*%
X172243750Y-87250000D03*
X172243750Y-90550000D03*
%TD*%
%TO.C,D36*%
X172243750Y-68200000D03*
X172243750Y-71500000D03*
%TD*%
%TO.C,D35*%
X172243750Y-49150000D03*
X172243750Y-52450000D03*
%TD*%
%TO.C,D34*%
X172243750Y-30100000D03*
X172243750Y-33400000D03*
%TD*%
%TO.C,D33*%
X162718750Y-106300000D03*
X162718750Y-109600000D03*
%TD*%
%TO.C,D32*%
X153193750Y-87250000D03*
X153193750Y-90550000D03*
%TD*%
%TO.C,D31*%
X153193750Y-68200000D03*
X153193750Y-71500000D03*
%TD*%
%TO.C,D30*%
X153193750Y-49150000D03*
X153193750Y-52450000D03*
%TD*%
%TO.C,D29*%
X153193750Y-30100000D03*
X153193750Y-33400000D03*
%TD*%
%TO.C,D28*%
X138906250Y-106300000D03*
X138906250Y-109600000D03*
%TD*%
%TO.C,D27*%
X134143750Y-87250000D03*
X134143750Y-90550000D03*
%TD*%
%TO.C,D26*%
X134143750Y-68200000D03*
X134143750Y-71500000D03*
%TD*%
%TO.C,D25*%
X134143750Y-49212500D03*
X134143750Y-52512500D03*
%TD*%
%TO.C,D24*%
X134143750Y-30100000D03*
X134143750Y-33400000D03*
%TD*%
%TO.C,D23*%
X110331250Y-106300000D03*
X110331250Y-109600000D03*
%TD*%
%TO.C,D22*%
X115093750Y-87250000D03*
X115093750Y-90550000D03*
%TD*%
%TO.C,D21*%
X115093750Y-68200000D03*
X115093750Y-71500000D03*
%TD*%
%TO.C,D20*%
X115093750Y-49150000D03*
X115093750Y-52450000D03*
%TD*%
D25*
%TO.C,D19*%
X108806250Y-37306250D03*
X105506250Y-37306250D03*
%TD*%
D24*
%TO.C,D18*%
X86518750Y-106300000D03*
X86518750Y-109600000D03*
%TD*%
%TO.C,D17*%
X96043750Y-87250000D03*
X96043750Y-90550000D03*
%TD*%
%TO.C,D16*%
X96043750Y-68200000D03*
X96043750Y-71500000D03*
%TD*%
%TO.C,D15*%
X96043750Y-49150000D03*
X96043750Y-52450000D03*
%TD*%
%TO.C,D14*%
X96043750Y-30100000D03*
X96043750Y-33400000D03*
%TD*%
%TO.C,D13*%
X67468750Y-106300000D03*
X67468750Y-109600000D03*
%TD*%
%TO.C,D12*%
X76993750Y-87250000D03*
X76993750Y-90550000D03*
%TD*%
%TO.C,D11*%
X76993750Y-68200000D03*
X76993750Y-71500000D03*
%TD*%
%TO.C,D10*%
X76993750Y-49150000D03*
X76993750Y-52450000D03*
%TD*%
%TO.C,D9*%
X76993750Y-30100000D03*
X76993750Y-33400000D03*
%TD*%
%TO.C,D8*%
X57943750Y-87250000D03*
X57943750Y-90550000D03*
%TD*%
%TO.C,D7*%
X57943750Y-68200000D03*
X57943750Y-71500000D03*
%TD*%
%TO.C,D6*%
X57943750Y-49150000D03*
X57943750Y-52450000D03*
%TD*%
%TO.C,D5*%
X57943750Y-30100000D03*
X57943750Y-33400000D03*
%TD*%
%TO.C,D4*%
X38893750Y-87250000D03*
X38893750Y-90550000D03*
%TD*%
%TO.C,D3*%
X38893750Y-68200000D03*
X38893750Y-71500000D03*
%TD*%
%TO.C,D2*%
X38893750Y-49150000D03*
X38893750Y-52450000D03*
%TD*%
%TO.C,D1*%
X38893750Y-30100000D03*
X38893750Y-33400000D03*
%TD*%
%TO.C,C8*%
G36*
G01*
X187807000Y-96680000D02*
X187807000Y-97630000D01*
G75*
G02*
X187557000Y-97880000I-250000J0D01*
G01*
X186882000Y-97880000D01*
G75*
G02*
X186632000Y-97630000I0J250000D01*
G01*
X186632000Y-96680000D01*
G75*
G02*
X186882000Y-96430000I250000J0D01*
G01*
X187557000Y-96430000D01*
G75*
G02*
X187807000Y-96680000I0J-250000D01*
G01*
G37*
G36*
G01*
X185732000Y-96680000D02*
X185732000Y-97630000D01*
G75*
G02*
X185482000Y-97880000I-250000J0D01*
G01*
X184807000Y-97880000D01*
G75*
G02*
X184557000Y-97630000I0J250000D01*
G01*
X184557000Y-96680000D01*
G75*
G02*
X184807000Y-96430000I250000J0D01*
G01*
X185482000Y-96430000D01*
G75*
G02*
X185732000Y-96680000I0J-250000D01*
G01*
G37*
%TD*%
%TO.C,C7*%
G36*
G01*
X185260000Y-110972000D02*
X184310000Y-110972000D01*
G75*
G02*
X184060000Y-110722000I0J250000D01*
G01*
X184060000Y-110047000D01*
G75*
G02*
X184310000Y-109797000I250000J0D01*
G01*
X185260000Y-109797000D01*
G75*
G02*
X185510000Y-110047000I0J-250000D01*
G01*
X185510000Y-110722000D01*
G75*
G02*
X185260000Y-110972000I-250000J0D01*
G01*
G37*
G36*
G01*
X185260000Y-108897000D02*
X184310000Y-108897000D01*
G75*
G02*
X184060000Y-108647000I0J250000D01*
G01*
X184060000Y-107972000D01*
G75*
G02*
X184310000Y-107722000I250000J0D01*
G01*
X185260000Y-107722000D01*
G75*
G02*
X185510000Y-107972000I0J-250000D01*
G01*
X185510000Y-108647000D01*
G75*
G02*
X185260000Y-108897000I-250000J0D01*
G01*
G37*
%TD*%
%TO.C,C6*%
G36*
G01*
X202471000Y-98705000D02*
X203421000Y-98705000D01*
G75*
G02*
X203671000Y-98955000I0J-250000D01*
G01*
X203671000Y-99630000D01*
G75*
G02*
X203421000Y-99880000I-250000J0D01*
G01*
X202471000Y-99880000D01*
G75*
G02*
X202221000Y-99630000I0J250000D01*
G01*
X202221000Y-98955000D01*
G75*
G02*
X202471000Y-98705000I250000J0D01*
G01*
G37*
G36*
G01*
X202471000Y-100780000D02*
X203421000Y-100780000D01*
G75*
G02*
X203671000Y-101030000I0J-250000D01*
G01*
X203671000Y-101705000D01*
G75*
G02*
X203421000Y-101955000I-250000J0D01*
G01*
X202471000Y-101955000D01*
G75*
G02*
X202221000Y-101705000I0J250000D01*
G01*
X202221000Y-101030000D01*
G75*
G02*
X202471000Y-100780000I250000J0D01*
G01*
G37*
%TD*%
%TO.C,C5*%
G36*
G01*
X196951000Y-96553000D02*
X196951000Y-97503000D01*
G75*
G02*
X196701000Y-97753000I-250000J0D01*
G01*
X196026000Y-97753000D01*
G75*
G02*
X195776000Y-97503000I0J250000D01*
G01*
X195776000Y-96553000D01*
G75*
G02*
X196026000Y-96303000I250000J0D01*
G01*
X196701000Y-96303000D01*
G75*
G02*
X196951000Y-96553000I0J-250000D01*
G01*
G37*
G36*
G01*
X194876000Y-96553000D02*
X194876000Y-97503000D01*
G75*
G02*
X194626000Y-97753000I-250000J0D01*
G01*
X193951000Y-97753000D01*
G75*
G02*
X193701000Y-97503000I0J250000D01*
G01*
X193701000Y-96553000D01*
G75*
G02*
X193951000Y-96303000I250000J0D01*
G01*
X194626000Y-96303000D01*
G75*
G02*
X194876000Y-96553000I0J-250000D01*
G01*
G37*
%TD*%
%TO.C,C4*%
G36*
G01*
X193701000Y-95344000D02*
X193701000Y-94394000D01*
G75*
G02*
X193951000Y-94144000I250000J0D01*
G01*
X194626000Y-94144000D01*
G75*
G02*
X194876000Y-94394000I0J-250000D01*
G01*
X194876000Y-95344000D01*
G75*
G02*
X194626000Y-95594000I-250000J0D01*
G01*
X193951000Y-95594000D01*
G75*
G02*
X193701000Y-95344000I0J250000D01*
G01*
G37*
G36*
G01*
X195776000Y-95344000D02*
X195776000Y-94394000D01*
G75*
G02*
X196026000Y-94144000I250000J0D01*
G01*
X196701000Y-94144000D01*
G75*
G02*
X196951000Y-94394000I0J-250000D01*
G01*
X196951000Y-95344000D01*
G75*
G02*
X196701000Y-95594000I-250000J0D01*
G01*
X196026000Y-95594000D01*
G75*
G02*
X195776000Y-95344000I0J250000D01*
G01*
G37*
%TD*%
%TO.C,C3*%
G36*
G01*
X196622000Y-113378000D02*
X196622000Y-112428000D01*
G75*
G02*
X196872000Y-112178000I250000J0D01*
G01*
X197547000Y-112178000D01*
G75*
G02*
X197797000Y-112428000I0J-250000D01*
G01*
X197797000Y-113378000D01*
G75*
G02*
X197547000Y-113628000I-250000J0D01*
G01*
X196872000Y-113628000D01*
G75*
G02*
X196622000Y-113378000I0J250000D01*
G01*
G37*
G36*
G01*
X198697000Y-113378000D02*
X198697000Y-112428000D01*
G75*
G02*
X198947000Y-112178000I250000J0D01*
G01*
X199622000Y-112178000D01*
G75*
G02*
X199872000Y-112428000I0J-250000D01*
G01*
X199872000Y-113378000D01*
G75*
G02*
X199622000Y-113628000I-250000J0D01*
G01*
X198947000Y-113628000D01*
G75*
G02*
X198697000Y-113378000I0J250000D01*
G01*
G37*
%TD*%
%TO.C,C2*%
G36*
G01*
X206909000Y-104234000D02*
X206909000Y-103284000D01*
G75*
G02*
X207159000Y-103034000I250000J0D01*
G01*
X207834000Y-103034000D01*
G75*
G02*
X208084000Y-103284000I0J-250000D01*
G01*
X208084000Y-104234000D01*
G75*
G02*
X207834000Y-104484000I-250000J0D01*
G01*
X207159000Y-104484000D01*
G75*
G02*
X206909000Y-104234000I0J250000D01*
G01*
G37*
G36*
G01*
X208984000Y-104234000D02*
X208984000Y-103284000D01*
G75*
G02*
X209234000Y-103034000I250000J0D01*
G01*
X209909000Y-103034000D01*
G75*
G02*
X210159000Y-103284000I0J-250000D01*
G01*
X210159000Y-104234000D01*
G75*
G02*
X209909000Y-104484000I-250000J0D01*
G01*
X209234000Y-104484000D01*
G75*
G02*
X208984000Y-104234000I0J250000D01*
G01*
G37*
%TD*%
%TO.C,C1*%
G36*
G01*
X206909000Y-107155000D02*
X206909000Y-106205000D01*
G75*
G02*
X207159000Y-105955000I250000J0D01*
G01*
X207834000Y-105955000D01*
G75*
G02*
X208084000Y-106205000I0J-250000D01*
G01*
X208084000Y-107155000D01*
G75*
G02*
X207834000Y-107405000I-250000J0D01*
G01*
X207159000Y-107405000D01*
G75*
G02*
X206909000Y-107155000I0J250000D01*
G01*
G37*
G36*
G01*
X208984000Y-107155000D02*
X208984000Y-106205000D01*
G75*
G02*
X209234000Y-105955000I250000J0D01*
G01*
X209909000Y-105955000D01*
G75*
G02*
X210159000Y-106205000I0J-250000D01*
G01*
X210159000Y-107155000D01*
G75*
G02*
X209909000Y-107405000I-250000J0D01*
G01*
X209234000Y-107405000D01*
G75*
G02*
X208984000Y-107155000I0J250000D01*
G01*
G37*
%TD*%
M02*
