%TF.GenerationSoftware,KiCad,Pcbnew,(5.1.12)-1*%
%TF.CreationDate,2022-01-05T12:33:11-05:00*%
%TF.ProjectId,my-keeb-type-c,6d792d6b-6565-4622-9d74-7970652d632e,rev?*%
%TF.SameCoordinates,Original*%
%TF.FileFunction,Copper,L1,Top*%
%TF.FilePolarity,Positive*%
%FSLAX46Y46*%
G04 Gerber Fmt 4.6, Leading zero omitted, Abs format (unit mm)*
G04 Created by KiCad (PCBNEW (5.1.12)-1) date 2022-01-05 12:33:11*
%MOMM*%
%LPD*%
G01*
G04 APERTURE LIST*
%TA.AperFunction,ComponentPad*%
%ADD10C,2.250000*%
%TD*%
%TA.AperFunction,ComponentPad*%
%ADD11O,1.000000X2.100000*%
%TD*%
%TA.AperFunction,ComponentPad*%
%ADD12O,1.000000X1.600000*%
%TD*%
%TA.AperFunction,ComponentPad*%
%ADD13R,1.700000X1.700000*%
%TD*%
%TA.AperFunction,ComponentPad*%
%ADD14C,1.700000*%
%TD*%
%TA.AperFunction,ViaPad*%
%ADD15C,0.800000*%
%TD*%
%TA.AperFunction,Conductor*%
%ADD16C,0.381000*%
%TD*%
%TA.AperFunction,Conductor*%
%ADD17C,0.254000*%
%TD*%
G04 APERTURE END LIST*
D10*
%TO.P,MX46,1*%
%TO.N,COL9*%
X199906250Y-84106250D03*
%TA.AperFunction,ComponentPad*%
G36*
G01*
X197844938Y-86403600D02*
X197844933Y-86403595D01*
G75*
G02*
X197758905Y-84814933I751317J837345D01*
G01*
X199068907Y-83354933D01*
G75*
G02*
X200657569Y-83268905I837345J-751317D01*
G01*
X200657569Y-83268905D01*
G75*
G02*
X200743597Y-84857567I-751317J-837345D01*
G01*
X199433595Y-86317567D01*
G75*
G02*
X197844933Y-86403595I-837345J751317D01*
G01*
G37*
%TD.AperFunction*%
%TO.P,MX46,2*%
%TO.N,Net-(D46-Pad2)*%
X204946250Y-83026250D03*
%TA.AperFunction,ComponentPad*%
G36*
G01*
X204829733Y-84728645D02*
X204828847Y-84728584D01*
G75*
G02*
X203783916Y-83528847I77403J1122334D01*
G01*
X203823916Y-82948847D01*
G75*
G02*
X205023653Y-81903916I1122334J-77403D01*
G01*
X205023653Y-81903916D01*
G75*
G02*
X206068584Y-83103653I-77403J-1122334D01*
G01*
X206028584Y-83683653D01*
G75*
G02*
X204828847Y-84728584I-1122334J77403D01*
G01*
G37*
%TD.AperFunction*%
%TD*%
%TO.P,MX18,1*%
%TO.N,COL3*%
X76081250Y-103156250D03*
%TA.AperFunction,ComponentPad*%
G36*
G01*
X74019938Y-105453600D02*
X74019933Y-105453595D01*
G75*
G02*
X73933905Y-103864933I751317J837345D01*
G01*
X75243907Y-102404933D01*
G75*
G02*
X76832569Y-102318905I837345J-751317D01*
G01*
X76832569Y-102318905D01*
G75*
G02*
X76918597Y-103907567I-751317J-837345D01*
G01*
X75608595Y-105367567D01*
G75*
G02*
X74019933Y-105453595I-837345J751317D01*
G01*
G37*
%TD.AperFunction*%
%TO.P,MX18,2*%
%TO.N,Net-(D18-Pad2)*%
X81121250Y-102076250D03*
%TA.AperFunction,ComponentPad*%
G36*
G01*
X81004733Y-103778645D02*
X81003847Y-103778584D01*
G75*
G02*
X79958916Y-102578847I77403J1122334D01*
G01*
X79998916Y-101998847D01*
G75*
G02*
X81198653Y-100953916I1122334J-77403D01*
G01*
X81198653Y-100953916D01*
G75*
G02*
X82243584Y-102153653I-77403J-1122334D01*
G01*
X82203584Y-102733653D01*
G75*
G02*
X81003847Y-103778584I-1122334J77403D01*
G01*
G37*
%TD.AperFunction*%
%TD*%
%TO.P,MX19,1*%
%TO.N,COL4*%
X104656250Y-26956250D03*
%TA.AperFunction,ComponentPad*%
G36*
G01*
X102594938Y-29253600D02*
X102594933Y-29253595D01*
G75*
G02*
X102508905Y-27664933I751317J837345D01*
G01*
X103818907Y-26204933D01*
G75*
G02*
X105407569Y-26118905I837345J-751317D01*
G01*
X105407569Y-26118905D01*
G75*
G02*
X105493597Y-27707567I-751317J-837345D01*
G01*
X104183595Y-29167567D01*
G75*
G02*
X102594933Y-29253595I-837345J751317D01*
G01*
G37*
%TD.AperFunction*%
%TO.P,MX19,2*%
%TO.N,Net-(D19-Pad2)*%
X109696250Y-25876250D03*
%TA.AperFunction,ComponentPad*%
G36*
G01*
X109579733Y-27578645D02*
X109578847Y-27578584D01*
G75*
G02*
X108533916Y-26378847I77403J1122334D01*
G01*
X108573916Y-25798847D01*
G75*
G02*
X109773653Y-24753916I1122334J-77403D01*
G01*
X109773653Y-24753916D01*
G75*
G02*
X110818584Y-25953653I-77403J-1122334D01*
G01*
X110778584Y-26533653D01*
G75*
G02*
X109578847Y-27578584I-1122334J77403D01*
G01*
G37*
%TD.AperFunction*%
%TD*%
%TO.P,MX24,1*%
%TO.N,COL5*%
X123706250Y-26956250D03*
%TA.AperFunction,ComponentPad*%
G36*
G01*
X121644938Y-29253600D02*
X121644933Y-29253595D01*
G75*
G02*
X121558905Y-27664933I751317J837345D01*
G01*
X122868907Y-26204933D01*
G75*
G02*
X124457569Y-26118905I837345J-751317D01*
G01*
X124457569Y-26118905D01*
G75*
G02*
X124543597Y-27707567I-751317J-837345D01*
G01*
X123233595Y-29167567D01*
G75*
G02*
X121644933Y-29253595I-837345J751317D01*
G01*
G37*
%TD.AperFunction*%
%TO.P,MX24,2*%
%TO.N,Net-(D24-Pad2)*%
X128746250Y-25876250D03*
%TA.AperFunction,ComponentPad*%
G36*
G01*
X128629733Y-27578645D02*
X128628847Y-27578584D01*
G75*
G02*
X127583916Y-26378847I77403J1122334D01*
G01*
X127623916Y-25798847D01*
G75*
G02*
X128823653Y-24753916I1122334J-77403D01*
G01*
X128823653Y-24753916D01*
G75*
G02*
X129868584Y-25953653I-77403J-1122334D01*
G01*
X129828584Y-26533653D01*
G75*
G02*
X128628847Y-27578584I-1122334J77403D01*
G01*
G37*
%TD.AperFunction*%
%TD*%
%TO.P,MX42,1*%
%TO.N,COL8*%
X180856250Y-84106250D03*
%TA.AperFunction,ComponentPad*%
G36*
G01*
X178794938Y-86403600D02*
X178794933Y-86403595D01*
G75*
G02*
X178708905Y-84814933I751317J837345D01*
G01*
X180018907Y-83354933D01*
G75*
G02*
X181607569Y-83268905I837345J-751317D01*
G01*
X181607569Y-83268905D01*
G75*
G02*
X181693597Y-84857567I-751317J-837345D01*
G01*
X180383595Y-86317567D01*
G75*
G02*
X178794933Y-86403595I-837345J751317D01*
G01*
G37*
%TD.AperFunction*%
%TO.P,MX42,2*%
%TO.N,Net-(D42-Pad2)*%
X185896250Y-83026250D03*
%TA.AperFunction,ComponentPad*%
G36*
G01*
X185779733Y-84728645D02*
X185778847Y-84728584D01*
G75*
G02*
X184733916Y-83528847I77403J1122334D01*
G01*
X184773916Y-82948847D01*
G75*
G02*
X185973653Y-81903916I1122334J-77403D01*
G01*
X185973653Y-81903916D01*
G75*
G02*
X187018584Y-83103653I-77403J-1122334D01*
G01*
X186978584Y-83683653D01*
G75*
G02*
X185778847Y-84728584I-1122334J77403D01*
G01*
G37*
%TD.AperFunction*%
%TD*%
%TO.P,MX39,1*%
%TO.N,COL8*%
X180856250Y-26956250D03*
%TA.AperFunction,ComponentPad*%
G36*
G01*
X178794938Y-29253600D02*
X178794933Y-29253595D01*
G75*
G02*
X178708905Y-27664933I751317J837345D01*
G01*
X180018907Y-26204933D01*
G75*
G02*
X181607569Y-26118905I837345J-751317D01*
G01*
X181607569Y-26118905D01*
G75*
G02*
X181693597Y-27707567I-751317J-837345D01*
G01*
X180383595Y-29167567D01*
G75*
G02*
X178794933Y-29253595I-837345J751317D01*
G01*
G37*
%TD.AperFunction*%
%TO.P,MX39,2*%
%TO.N,Net-(D39-Pad2)*%
X185896250Y-25876250D03*
%TA.AperFunction,ComponentPad*%
G36*
G01*
X185779733Y-27578645D02*
X185778847Y-27578584D01*
G75*
G02*
X184733916Y-26378847I77403J1122334D01*
G01*
X184773916Y-25798847D01*
G75*
G02*
X185973653Y-24753916I1122334J-77403D01*
G01*
X185973653Y-24753916D01*
G75*
G02*
X187018584Y-25953653I-77403J-1122334D01*
G01*
X186978584Y-26533653D01*
G75*
G02*
X185778847Y-27578584I-1122334J77403D01*
G01*
G37*
%TD.AperFunction*%
%TD*%
D11*
%TO.P,USB1,13*%
%TO.N,Earth*%
X112361250Y-22655000D03*
X121001250Y-22655000D03*
D12*
X112361250Y-18475000D03*
X121001250Y-18475000D03*
%TD*%
D10*
%TO.P,MX45,1*%
%TO.N,COL9*%
X199906250Y-65056250D03*
%TA.AperFunction,ComponentPad*%
G36*
G01*
X197844938Y-67353600D02*
X197844933Y-67353595D01*
G75*
G02*
X197758905Y-65764933I751317J837345D01*
G01*
X199068907Y-64304933D01*
G75*
G02*
X200657569Y-64218905I837345J-751317D01*
G01*
X200657569Y-64218905D01*
G75*
G02*
X200743597Y-65807567I-751317J-837345D01*
G01*
X199433595Y-67267567D01*
G75*
G02*
X197844933Y-67353595I-837345J751317D01*
G01*
G37*
%TD.AperFunction*%
%TO.P,MX45,2*%
%TO.N,Net-(D45-Pad2)*%
X204946250Y-63976250D03*
%TA.AperFunction,ComponentPad*%
G36*
G01*
X204829733Y-65678645D02*
X204828847Y-65678584D01*
G75*
G02*
X203783916Y-64478847I77403J1122334D01*
G01*
X203823916Y-63898847D01*
G75*
G02*
X205023653Y-62853916I1122334J-77403D01*
G01*
X205023653Y-62853916D01*
G75*
G02*
X206068584Y-64053653I-77403J-1122334D01*
G01*
X206028584Y-64633653D01*
G75*
G02*
X204828847Y-65678584I-1122334J77403D01*
G01*
G37*
%TD.AperFunction*%
%TD*%
%TO.P,MX44,1*%
%TO.N,COL9*%
X199906250Y-46006250D03*
%TA.AperFunction,ComponentPad*%
G36*
G01*
X197844938Y-48303600D02*
X197844933Y-48303595D01*
G75*
G02*
X197758905Y-46714933I751317J837345D01*
G01*
X199068907Y-45254933D01*
G75*
G02*
X200657569Y-45168905I837345J-751317D01*
G01*
X200657569Y-45168905D01*
G75*
G02*
X200743597Y-46757567I-751317J-837345D01*
G01*
X199433595Y-48217567D01*
G75*
G02*
X197844933Y-48303595I-837345J751317D01*
G01*
G37*
%TD.AperFunction*%
%TO.P,MX44,2*%
%TO.N,Net-(D44-Pad2)*%
X204946250Y-44926250D03*
%TA.AperFunction,ComponentPad*%
G36*
G01*
X204829733Y-46628645D02*
X204828847Y-46628584D01*
G75*
G02*
X203783916Y-45428847I77403J1122334D01*
G01*
X203823916Y-44848847D01*
G75*
G02*
X205023653Y-43803916I1122334J-77403D01*
G01*
X205023653Y-43803916D01*
G75*
G02*
X206068584Y-45003653I-77403J-1122334D01*
G01*
X206028584Y-45583653D01*
G75*
G02*
X204828847Y-46628584I-1122334J77403D01*
G01*
G37*
%TD.AperFunction*%
%TD*%
%TO.P,MX43,1*%
%TO.N,COL9*%
X199906250Y-26956250D03*
%TA.AperFunction,ComponentPad*%
G36*
G01*
X197844938Y-29253600D02*
X197844933Y-29253595D01*
G75*
G02*
X197758905Y-27664933I751317J837345D01*
G01*
X199068907Y-26204933D01*
G75*
G02*
X200657569Y-26118905I837345J-751317D01*
G01*
X200657569Y-26118905D01*
G75*
G02*
X200743597Y-27707567I-751317J-837345D01*
G01*
X199433595Y-29167567D01*
G75*
G02*
X197844933Y-29253595I-837345J751317D01*
G01*
G37*
%TD.AperFunction*%
%TO.P,MX43,2*%
%TO.N,Net-(D43-Pad2)*%
X204946250Y-25876250D03*
%TA.AperFunction,ComponentPad*%
G36*
G01*
X204829733Y-27578645D02*
X204828847Y-27578584D01*
G75*
G02*
X203783916Y-26378847I77403J1122334D01*
G01*
X203823916Y-25798847D01*
G75*
G02*
X205023653Y-24753916I1122334J-77403D01*
G01*
X205023653Y-24753916D01*
G75*
G02*
X206068584Y-25953653I-77403J-1122334D01*
G01*
X206028584Y-26533653D01*
G75*
G02*
X204828847Y-27578584I-1122334J77403D01*
G01*
G37*
%TD.AperFunction*%
%TD*%
%TO.P,MX41,1*%
%TO.N,COL8*%
X180856250Y-65056250D03*
%TA.AperFunction,ComponentPad*%
G36*
G01*
X178794938Y-67353600D02*
X178794933Y-67353595D01*
G75*
G02*
X178708905Y-65764933I751317J837345D01*
G01*
X180018907Y-64304933D01*
G75*
G02*
X181607569Y-64218905I837345J-751317D01*
G01*
X181607569Y-64218905D01*
G75*
G02*
X181693597Y-65807567I-751317J-837345D01*
G01*
X180383595Y-67267567D01*
G75*
G02*
X178794933Y-67353595I-837345J751317D01*
G01*
G37*
%TD.AperFunction*%
%TO.P,MX41,2*%
%TO.N,Net-(D41-Pad2)*%
X185896250Y-63976250D03*
%TA.AperFunction,ComponentPad*%
G36*
G01*
X185779733Y-65678645D02*
X185778847Y-65678584D01*
G75*
G02*
X184733916Y-64478847I77403J1122334D01*
G01*
X184773916Y-63898847D01*
G75*
G02*
X185973653Y-62853916I1122334J-77403D01*
G01*
X185973653Y-62853916D01*
G75*
G02*
X187018584Y-64053653I-77403J-1122334D01*
G01*
X186978584Y-64633653D01*
G75*
G02*
X185778847Y-65678584I-1122334J77403D01*
G01*
G37*
%TD.AperFunction*%
%TD*%
%TO.P,MX40,1*%
%TO.N,COL8*%
X180856250Y-46006250D03*
%TA.AperFunction,ComponentPad*%
G36*
G01*
X178794938Y-48303600D02*
X178794933Y-48303595D01*
G75*
G02*
X178708905Y-46714933I751317J837345D01*
G01*
X180018907Y-45254933D01*
G75*
G02*
X181607569Y-45168905I837345J-751317D01*
G01*
X181607569Y-45168905D01*
G75*
G02*
X181693597Y-46757567I-751317J-837345D01*
G01*
X180383595Y-48217567D01*
G75*
G02*
X178794933Y-48303595I-837345J751317D01*
G01*
G37*
%TD.AperFunction*%
%TO.P,MX40,2*%
%TO.N,Net-(D40-Pad2)*%
X185896250Y-44926250D03*
%TA.AperFunction,ComponentPad*%
G36*
G01*
X185779733Y-46628645D02*
X185778847Y-46628584D01*
G75*
G02*
X184733916Y-45428847I77403J1122334D01*
G01*
X184773916Y-44848847D01*
G75*
G02*
X185973653Y-43803916I1122334J-77403D01*
G01*
X185973653Y-43803916D01*
G75*
G02*
X187018584Y-45003653I-77403J-1122334D01*
G01*
X186978584Y-45583653D01*
G75*
G02*
X185778847Y-46628584I-1122334J77403D01*
G01*
G37*
%TD.AperFunction*%
%TD*%
%TO.P,MX38,1*%
%TO.N,COL7*%
X171331250Y-103156250D03*
%TA.AperFunction,ComponentPad*%
G36*
G01*
X169269938Y-105453600D02*
X169269933Y-105453595D01*
G75*
G02*
X169183905Y-103864933I751317J837345D01*
G01*
X170493907Y-102404933D01*
G75*
G02*
X172082569Y-102318905I837345J-751317D01*
G01*
X172082569Y-102318905D01*
G75*
G02*
X172168597Y-103907567I-751317J-837345D01*
G01*
X170858595Y-105367567D01*
G75*
G02*
X169269933Y-105453595I-837345J751317D01*
G01*
G37*
%TD.AperFunction*%
%TO.P,MX38,2*%
%TO.N,Net-(D38-Pad2)*%
X176371250Y-102076250D03*
%TA.AperFunction,ComponentPad*%
G36*
G01*
X176254733Y-103778645D02*
X176253847Y-103778584D01*
G75*
G02*
X175208916Y-102578847I77403J1122334D01*
G01*
X175248916Y-101998847D01*
G75*
G02*
X176448653Y-100953916I1122334J-77403D01*
G01*
X176448653Y-100953916D01*
G75*
G02*
X177493584Y-102153653I-77403J-1122334D01*
G01*
X177453584Y-102733653D01*
G75*
G02*
X176253847Y-103778584I-1122334J77403D01*
G01*
G37*
%TD.AperFunction*%
%TD*%
%TO.P,MX37,1*%
%TO.N,COL7*%
X161806250Y-84106250D03*
%TA.AperFunction,ComponentPad*%
G36*
G01*
X159744938Y-86403600D02*
X159744933Y-86403595D01*
G75*
G02*
X159658905Y-84814933I751317J837345D01*
G01*
X160968907Y-83354933D01*
G75*
G02*
X162557569Y-83268905I837345J-751317D01*
G01*
X162557569Y-83268905D01*
G75*
G02*
X162643597Y-84857567I-751317J-837345D01*
G01*
X161333595Y-86317567D01*
G75*
G02*
X159744933Y-86403595I-837345J751317D01*
G01*
G37*
%TD.AperFunction*%
%TO.P,MX37,2*%
%TO.N,Net-(D37-Pad2)*%
X166846250Y-83026250D03*
%TA.AperFunction,ComponentPad*%
G36*
G01*
X166729733Y-84728645D02*
X166728847Y-84728584D01*
G75*
G02*
X165683916Y-83528847I77403J1122334D01*
G01*
X165723916Y-82948847D01*
G75*
G02*
X166923653Y-81903916I1122334J-77403D01*
G01*
X166923653Y-81903916D01*
G75*
G02*
X167968584Y-83103653I-77403J-1122334D01*
G01*
X167928584Y-83683653D01*
G75*
G02*
X166728847Y-84728584I-1122334J77403D01*
G01*
G37*
%TD.AperFunction*%
%TD*%
%TO.P,MX36,1*%
%TO.N,COL7*%
X161806250Y-65056250D03*
%TA.AperFunction,ComponentPad*%
G36*
G01*
X159744938Y-67353600D02*
X159744933Y-67353595D01*
G75*
G02*
X159658905Y-65764933I751317J837345D01*
G01*
X160968907Y-64304933D01*
G75*
G02*
X162557569Y-64218905I837345J-751317D01*
G01*
X162557569Y-64218905D01*
G75*
G02*
X162643597Y-65807567I-751317J-837345D01*
G01*
X161333595Y-67267567D01*
G75*
G02*
X159744933Y-67353595I-837345J751317D01*
G01*
G37*
%TD.AperFunction*%
%TO.P,MX36,2*%
%TO.N,Net-(D36-Pad2)*%
X166846250Y-63976250D03*
%TA.AperFunction,ComponentPad*%
G36*
G01*
X166729733Y-65678645D02*
X166728847Y-65678584D01*
G75*
G02*
X165683916Y-64478847I77403J1122334D01*
G01*
X165723916Y-63898847D01*
G75*
G02*
X166923653Y-62853916I1122334J-77403D01*
G01*
X166923653Y-62853916D01*
G75*
G02*
X167968584Y-64053653I-77403J-1122334D01*
G01*
X167928584Y-64633653D01*
G75*
G02*
X166728847Y-65678584I-1122334J77403D01*
G01*
G37*
%TD.AperFunction*%
%TD*%
%TO.P,MX35,1*%
%TO.N,COL7*%
X161806250Y-46006250D03*
%TA.AperFunction,ComponentPad*%
G36*
G01*
X159744938Y-48303600D02*
X159744933Y-48303595D01*
G75*
G02*
X159658905Y-46714933I751317J837345D01*
G01*
X160968907Y-45254933D01*
G75*
G02*
X162557569Y-45168905I837345J-751317D01*
G01*
X162557569Y-45168905D01*
G75*
G02*
X162643597Y-46757567I-751317J-837345D01*
G01*
X161333595Y-48217567D01*
G75*
G02*
X159744933Y-48303595I-837345J751317D01*
G01*
G37*
%TD.AperFunction*%
%TO.P,MX35,2*%
%TO.N,Net-(D35-Pad2)*%
X166846250Y-44926250D03*
%TA.AperFunction,ComponentPad*%
G36*
G01*
X166729733Y-46628645D02*
X166728847Y-46628584D01*
G75*
G02*
X165683916Y-45428847I77403J1122334D01*
G01*
X165723916Y-44848847D01*
G75*
G02*
X166923653Y-43803916I1122334J-77403D01*
G01*
X166923653Y-43803916D01*
G75*
G02*
X167968584Y-45003653I-77403J-1122334D01*
G01*
X167928584Y-45583653D01*
G75*
G02*
X166728847Y-46628584I-1122334J77403D01*
G01*
G37*
%TD.AperFunction*%
%TD*%
%TO.P,MX34,1*%
%TO.N,COL7*%
X161806250Y-26956250D03*
%TA.AperFunction,ComponentPad*%
G36*
G01*
X159744938Y-29253600D02*
X159744933Y-29253595D01*
G75*
G02*
X159658905Y-27664933I751317J837345D01*
G01*
X160968907Y-26204933D01*
G75*
G02*
X162557569Y-26118905I837345J-751317D01*
G01*
X162557569Y-26118905D01*
G75*
G02*
X162643597Y-27707567I-751317J-837345D01*
G01*
X161333595Y-29167567D01*
G75*
G02*
X159744933Y-29253595I-837345J751317D01*
G01*
G37*
%TD.AperFunction*%
%TO.P,MX34,2*%
%TO.N,Net-(D34-Pad2)*%
X166846250Y-25876250D03*
%TA.AperFunction,ComponentPad*%
G36*
G01*
X166729733Y-27578645D02*
X166728847Y-27578584D01*
G75*
G02*
X165683916Y-26378847I77403J1122334D01*
G01*
X165723916Y-25798847D01*
G75*
G02*
X166923653Y-24753916I1122334J-77403D01*
G01*
X166923653Y-24753916D01*
G75*
G02*
X167968584Y-25953653I-77403J-1122334D01*
G01*
X167928584Y-26533653D01*
G75*
G02*
X166728847Y-27578584I-1122334J77403D01*
G01*
G37*
%TD.AperFunction*%
%TD*%
%TO.P,MX33,1*%
%TO.N,COL6*%
X152281250Y-103156250D03*
%TA.AperFunction,ComponentPad*%
G36*
G01*
X150219938Y-105453600D02*
X150219933Y-105453595D01*
G75*
G02*
X150133905Y-103864933I751317J837345D01*
G01*
X151443907Y-102404933D01*
G75*
G02*
X153032569Y-102318905I837345J-751317D01*
G01*
X153032569Y-102318905D01*
G75*
G02*
X153118597Y-103907567I-751317J-837345D01*
G01*
X151808595Y-105367567D01*
G75*
G02*
X150219933Y-105453595I-837345J751317D01*
G01*
G37*
%TD.AperFunction*%
%TO.P,MX33,2*%
%TO.N,Net-(D33-Pad2)*%
X157321250Y-102076250D03*
%TA.AperFunction,ComponentPad*%
G36*
G01*
X157204733Y-103778645D02*
X157203847Y-103778584D01*
G75*
G02*
X156158916Y-102578847I77403J1122334D01*
G01*
X156198916Y-101998847D01*
G75*
G02*
X157398653Y-100953916I1122334J-77403D01*
G01*
X157398653Y-100953916D01*
G75*
G02*
X158443584Y-102153653I-77403J-1122334D01*
G01*
X158403584Y-102733653D01*
G75*
G02*
X157203847Y-103778584I-1122334J77403D01*
G01*
G37*
%TD.AperFunction*%
%TD*%
%TO.P,MX32,1*%
%TO.N,COL6*%
X142756250Y-84106250D03*
%TA.AperFunction,ComponentPad*%
G36*
G01*
X140694938Y-86403600D02*
X140694933Y-86403595D01*
G75*
G02*
X140608905Y-84814933I751317J837345D01*
G01*
X141918907Y-83354933D01*
G75*
G02*
X143507569Y-83268905I837345J-751317D01*
G01*
X143507569Y-83268905D01*
G75*
G02*
X143593597Y-84857567I-751317J-837345D01*
G01*
X142283595Y-86317567D01*
G75*
G02*
X140694933Y-86403595I-837345J751317D01*
G01*
G37*
%TD.AperFunction*%
%TO.P,MX32,2*%
%TO.N,Net-(D32-Pad2)*%
X147796250Y-83026250D03*
%TA.AperFunction,ComponentPad*%
G36*
G01*
X147679733Y-84728645D02*
X147678847Y-84728584D01*
G75*
G02*
X146633916Y-83528847I77403J1122334D01*
G01*
X146673916Y-82948847D01*
G75*
G02*
X147873653Y-81903916I1122334J-77403D01*
G01*
X147873653Y-81903916D01*
G75*
G02*
X148918584Y-83103653I-77403J-1122334D01*
G01*
X148878584Y-83683653D01*
G75*
G02*
X147678847Y-84728584I-1122334J77403D01*
G01*
G37*
%TD.AperFunction*%
%TD*%
%TO.P,MX31,1*%
%TO.N,COL6*%
X142756250Y-65056250D03*
%TA.AperFunction,ComponentPad*%
G36*
G01*
X140694938Y-67353600D02*
X140694933Y-67353595D01*
G75*
G02*
X140608905Y-65764933I751317J837345D01*
G01*
X141918907Y-64304933D01*
G75*
G02*
X143507569Y-64218905I837345J-751317D01*
G01*
X143507569Y-64218905D01*
G75*
G02*
X143593597Y-65807567I-751317J-837345D01*
G01*
X142283595Y-67267567D01*
G75*
G02*
X140694933Y-67353595I-837345J751317D01*
G01*
G37*
%TD.AperFunction*%
%TO.P,MX31,2*%
%TO.N,Net-(D31-Pad2)*%
X147796250Y-63976250D03*
%TA.AperFunction,ComponentPad*%
G36*
G01*
X147679733Y-65678645D02*
X147678847Y-65678584D01*
G75*
G02*
X146633916Y-64478847I77403J1122334D01*
G01*
X146673916Y-63898847D01*
G75*
G02*
X147873653Y-62853916I1122334J-77403D01*
G01*
X147873653Y-62853916D01*
G75*
G02*
X148918584Y-64053653I-77403J-1122334D01*
G01*
X148878584Y-64633653D01*
G75*
G02*
X147678847Y-65678584I-1122334J77403D01*
G01*
G37*
%TD.AperFunction*%
%TD*%
%TO.P,MX30,1*%
%TO.N,COL6*%
X142756250Y-46006250D03*
%TA.AperFunction,ComponentPad*%
G36*
G01*
X140694938Y-48303600D02*
X140694933Y-48303595D01*
G75*
G02*
X140608905Y-46714933I751317J837345D01*
G01*
X141918907Y-45254933D01*
G75*
G02*
X143507569Y-45168905I837345J-751317D01*
G01*
X143507569Y-45168905D01*
G75*
G02*
X143593597Y-46757567I-751317J-837345D01*
G01*
X142283595Y-48217567D01*
G75*
G02*
X140694933Y-48303595I-837345J751317D01*
G01*
G37*
%TD.AperFunction*%
%TO.P,MX30,2*%
%TO.N,Net-(D30-Pad2)*%
X147796250Y-44926250D03*
%TA.AperFunction,ComponentPad*%
G36*
G01*
X147679733Y-46628645D02*
X147678847Y-46628584D01*
G75*
G02*
X146633916Y-45428847I77403J1122334D01*
G01*
X146673916Y-44848847D01*
G75*
G02*
X147873653Y-43803916I1122334J-77403D01*
G01*
X147873653Y-43803916D01*
G75*
G02*
X148918584Y-45003653I-77403J-1122334D01*
G01*
X148878584Y-45583653D01*
G75*
G02*
X147678847Y-46628584I-1122334J77403D01*
G01*
G37*
%TD.AperFunction*%
%TD*%
%TO.P,MX29,1*%
%TO.N,COL6*%
X142756250Y-26956250D03*
%TA.AperFunction,ComponentPad*%
G36*
G01*
X140694938Y-29253600D02*
X140694933Y-29253595D01*
G75*
G02*
X140608905Y-27664933I751317J837345D01*
G01*
X141918907Y-26204933D01*
G75*
G02*
X143507569Y-26118905I837345J-751317D01*
G01*
X143507569Y-26118905D01*
G75*
G02*
X143593597Y-27707567I-751317J-837345D01*
G01*
X142283595Y-29167567D01*
G75*
G02*
X140694933Y-29253595I-837345J751317D01*
G01*
G37*
%TD.AperFunction*%
%TO.P,MX29,2*%
%TO.N,Net-(D29-Pad2)*%
X147796250Y-25876250D03*
%TA.AperFunction,ComponentPad*%
G36*
G01*
X147679733Y-27578645D02*
X147678847Y-27578584D01*
G75*
G02*
X146633916Y-26378847I77403J1122334D01*
G01*
X146673916Y-25798847D01*
G75*
G02*
X147873653Y-24753916I1122334J-77403D01*
G01*
X147873653Y-24753916D01*
G75*
G02*
X148918584Y-25953653I-77403J-1122334D01*
G01*
X148878584Y-26533653D01*
G75*
G02*
X147678847Y-27578584I-1122334J77403D01*
G01*
G37*
%TD.AperFunction*%
%TD*%
%TO.P,MX28,1*%
%TO.N,COL5*%
X128468750Y-103156250D03*
%TA.AperFunction,ComponentPad*%
G36*
G01*
X126407438Y-105453600D02*
X126407433Y-105453595D01*
G75*
G02*
X126321405Y-103864933I751317J837345D01*
G01*
X127631407Y-102404933D01*
G75*
G02*
X129220069Y-102318905I837345J-751317D01*
G01*
X129220069Y-102318905D01*
G75*
G02*
X129306097Y-103907567I-751317J-837345D01*
G01*
X127996095Y-105367567D01*
G75*
G02*
X126407433Y-105453595I-837345J751317D01*
G01*
G37*
%TD.AperFunction*%
%TO.P,MX28,2*%
%TO.N,Net-(D28-Pad2)*%
X133508750Y-102076250D03*
%TA.AperFunction,ComponentPad*%
G36*
G01*
X133392233Y-103778645D02*
X133391347Y-103778584D01*
G75*
G02*
X132346416Y-102578847I77403J1122334D01*
G01*
X132386416Y-101998847D01*
G75*
G02*
X133586153Y-100953916I1122334J-77403D01*
G01*
X133586153Y-100953916D01*
G75*
G02*
X134631084Y-102153653I-77403J-1122334D01*
G01*
X134591084Y-102733653D01*
G75*
G02*
X133391347Y-103778584I-1122334J77403D01*
G01*
G37*
%TD.AperFunction*%
%TD*%
%TO.P,MX27,1*%
%TO.N,COL5*%
X123706250Y-84106250D03*
%TA.AperFunction,ComponentPad*%
G36*
G01*
X121644938Y-86403600D02*
X121644933Y-86403595D01*
G75*
G02*
X121558905Y-84814933I751317J837345D01*
G01*
X122868907Y-83354933D01*
G75*
G02*
X124457569Y-83268905I837345J-751317D01*
G01*
X124457569Y-83268905D01*
G75*
G02*
X124543597Y-84857567I-751317J-837345D01*
G01*
X123233595Y-86317567D01*
G75*
G02*
X121644933Y-86403595I-837345J751317D01*
G01*
G37*
%TD.AperFunction*%
%TO.P,MX27,2*%
%TO.N,Net-(D27-Pad2)*%
X128746250Y-83026250D03*
%TA.AperFunction,ComponentPad*%
G36*
G01*
X128629733Y-84728645D02*
X128628847Y-84728584D01*
G75*
G02*
X127583916Y-83528847I77403J1122334D01*
G01*
X127623916Y-82948847D01*
G75*
G02*
X128823653Y-81903916I1122334J-77403D01*
G01*
X128823653Y-81903916D01*
G75*
G02*
X129868584Y-83103653I-77403J-1122334D01*
G01*
X129828584Y-83683653D01*
G75*
G02*
X128628847Y-84728584I-1122334J77403D01*
G01*
G37*
%TD.AperFunction*%
%TD*%
%TO.P,MX26,1*%
%TO.N,COL5*%
X123706250Y-65056250D03*
%TA.AperFunction,ComponentPad*%
G36*
G01*
X121644938Y-67353600D02*
X121644933Y-67353595D01*
G75*
G02*
X121558905Y-65764933I751317J837345D01*
G01*
X122868907Y-64304933D01*
G75*
G02*
X124457569Y-64218905I837345J-751317D01*
G01*
X124457569Y-64218905D01*
G75*
G02*
X124543597Y-65807567I-751317J-837345D01*
G01*
X123233595Y-67267567D01*
G75*
G02*
X121644933Y-67353595I-837345J751317D01*
G01*
G37*
%TD.AperFunction*%
%TO.P,MX26,2*%
%TO.N,Net-(D26-Pad2)*%
X128746250Y-63976250D03*
%TA.AperFunction,ComponentPad*%
G36*
G01*
X128629733Y-65678645D02*
X128628847Y-65678584D01*
G75*
G02*
X127583916Y-64478847I77403J1122334D01*
G01*
X127623916Y-63898847D01*
G75*
G02*
X128823653Y-62853916I1122334J-77403D01*
G01*
X128823653Y-62853916D01*
G75*
G02*
X129868584Y-64053653I-77403J-1122334D01*
G01*
X129828584Y-64633653D01*
G75*
G02*
X128628847Y-65678584I-1122334J77403D01*
G01*
G37*
%TD.AperFunction*%
%TD*%
%TO.P,MX25,1*%
%TO.N,COL5*%
X123706250Y-46006250D03*
%TA.AperFunction,ComponentPad*%
G36*
G01*
X121644938Y-48303600D02*
X121644933Y-48303595D01*
G75*
G02*
X121558905Y-46714933I751317J837345D01*
G01*
X122868907Y-45254933D01*
G75*
G02*
X124457569Y-45168905I837345J-751317D01*
G01*
X124457569Y-45168905D01*
G75*
G02*
X124543597Y-46757567I-751317J-837345D01*
G01*
X123233595Y-48217567D01*
G75*
G02*
X121644933Y-48303595I-837345J751317D01*
G01*
G37*
%TD.AperFunction*%
%TO.P,MX25,2*%
%TO.N,Net-(D25-Pad2)*%
X128746250Y-44926250D03*
%TA.AperFunction,ComponentPad*%
G36*
G01*
X128629733Y-46628645D02*
X128628847Y-46628584D01*
G75*
G02*
X127583916Y-45428847I77403J1122334D01*
G01*
X127623916Y-44848847D01*
G75*
G02*
X128823653Y-43803916I1122334J-77403D01*
G01*
X128823653Y-43803916D01*
G75*
G02*
X129868584Y-45003653I-77403J-1122334D01*
G01*
X129828584Y-45583653D01*
G75*
G02*
X128628847Y-46628584I-1122334J77403D01*
G01*
G37*
%TD.AperFunction*%
%TD*%
%TO.P,MX23,1*%
%TO.N,COL4*%
X99893750Y-103156250D03*
%TA.AperFunction,ComponentPad*%
G36*
G01*
X97832438Y-105453600D02*
X97832433Y-105453595D01*
G75*
G02*
X97746405Y-103864933I751317J837345D01*
G01*
X99056407Y-102404933D01*
G75*
G02*
X100645069Y-102318905I837345J-751317D01*
G01*
X100645069Y-102318905D01*
G75*
G02*
X100731097Y-103907567I-751317J-837345D01*
G01*
X99421095Y-105367567D01*
G75*
G02*
X97832433Y-105453595I-837345J751317D01*
G01*
G37*
%TD.AperFunction*%
%TO.P,MX23,2*%
%TO.N,Net-(D23-Pad2)*%
X104933750Y-102076250D03*
%TA.AperFunction,ComponentPad*%
G36*
G01*
X104817233Y-103778645D02*
X104816347Y-103778584D01*
G75*
G02*
X103771416Y-102578847I77403J1122334D01*
G01*
X103811416Y-101998847D01*
G75*
G02*
X105011153Y-100953916I1122334J-77403D01*
G01*
X105011153Y-100953916D01*
G75*
G02*
X106056084Y-102153653I-77403J-1122334D01*
G01*
X106016084Y-102733653D01*
G75*
G02*
X104816347Y-103778584I-1122334J77403D01*
G01*
G37*
%TD.AperFunction*%
%TD*%
%TO.P,MX22,1*%
%TO.N,COL4*%
X104656250Y-84106250D03*
%TA.AperFunction,ComponentPad*%
G36*
G01*
X102594938Y-86403600D02*
X102594933Y-86403595D01*
G75*
G02*
X102508905Y-84814933I751317J837345D01*
G01*
X103818907Y-83354933D01*
G75*
G02*
X105407569Y-83268905I837345J-751317D01*
G01*
X105407569Y-83268905D01*
G75*
G02*
X105493597Y-84857567I-751317J-837345D01*
G01*
X104183595Y-86317567D01*
G75*
G02*
X102594933Y-86403595I-837345J751317D01*
G01*
G37*
%TD.AperFunction*%
%TO.P,MX22,2*%
%TO.N,Net-(D22-Pad2)*%
X109696250Y-83026250D03*
%TA.AperFunction,ComponentPad*%
G36*
G01*
X109579733Y-84728645D02*
X109578847Y-84728584D01*
G75*
G02*
X108533916Y-83528847I77403J1122334D01*
G01*
X108573916Y-82948847D01*
G75*
G02*
X109773653Y-81903916I1122334J-77403D01*
G01*
X109773653Y-81903916D01*
G75*
G02*
X110818584Y-83103653I-77403J-1122334D01*
G01*
X110778584Y-83683653D01*
G75*
G02*
X109578847Y-84728584I-1122334J77403D01*
G01*
G37*
%TD.AperFunction*%
%TD*%
%TO.P,MX21,1*%
%TO.N,COL4*%
X104656250Y-65056250D03*
%TA.AperFunction,ComponentPad*%
G36*
G01*
X102594938Y-67353600D02*
X102594933Y-67353595D01*
G75*
G02*
X102508905Y-65764933I751317J837345D01*
G01*
X103818907Y-64304933D01*
G75*
G02*
X105407569Y-64218905I837345J-751317D01*
G01*
X105407569Y-64218905D01*
G75*
G02*
X105493597Y-65807567I-751317J-837345D01*
G01*
X104183595Y-67267567D01*
G75*
G02*
X102594933Y-67353595I-837345J751317D01*
G01*
G37*
%TD.AperFunction*%
%TO.P,MX21,2*%
%TO.N,Net-(D21-Pad2)*%
X109696250Y-63976250D03*
%TA.AperFunction,ComponentPad*%
G36*
G01*
X109579733Y-65678645D02*
X109578847Y-65678584D01*
G75*
G02*
X108533916Y-64478847I77403J1122334D01*
G01*
X108573916Y-63898847D01*
G75*
G02*
X109773653Y-62853916I1122334J-77403D01*
G01*
X109773653Y-62853916D01*
G75*
G02*
X110818584Y-64053653I-77403J-1122334D01*
G01*
X110778584Y-64633653D01*
G75*
G02*
X109578847Y-65678584I-1122334J77403D01*
G01*
G37*
%TD.AperFunction*%
%TD*%
%TO.P,MX20,1*%
%TO.N,COL4*%
X104656250Y-46006250D03*
%TA.AperFunction,ComponentPad*%
G36*
G01*
X102594938Y-48303600D02*
X102594933Y-48303595D01*
G75*
G02*
X102508905Y-46714933I751317J837345D01*
G01*
X103818907Y-45254933D01*
G75*
G02*
X105407569Y-45168905I837345J-751317D01*
G01*
X105407569Y-45168905D01*
G75*
G02*
X105493597Y-46757567I-751317J-837345D01*
G01*
X104183595Y-48217567D01*
G75*
G02*
X102594933Y-48303595I-837345J751317D01*
G01*
G37*
%TD.AperFunction*%
%TO.P,MX20,2*%
%TO.N,Net-(D20-Pad2)*%
X109696250Y-44926250D03*
%TA.AperFunction,ComponentPad*%
G36*
G01*
X109579733Y-46628645D02*
X109578847Y-46628584D01*
G75*
G02*
X108533916Y-45428847I77403J1122334D01*
G01*
X108573916Y-44848847D01*
G75*
G02*
X109773653Y-43803916I1122334J-77403D01*
G01*
X109773653Y-43803916D01*
G75*
G02*
X110818584Y-45003653I-77403J-1122334D01*
G01*
X110778584Y-45583653D01*
G75*
G02*
X109578847Y-46628584I-1122334J77403D01*
G01*
G37*
%TD.AperFunction*%
%TD*%
%TO.P,MX17,1*%
%TO.N,COL3*%
X85606250Y-84106250D03*
%TA.AperFunction,ComponentPad*%
G36*
G01*
X83544938Y-86403600D02*
X83544933Y-86403595D01*
G75*
G02*
X83458905Y-84814933I751317J837345D01*
G01*
X84768907Y-83354933D01*
G75*
G02*
X86357569Y-83268905I837345J-751317D01*
G01*
X86357569Y-83268905D01*
G75*
G02*
X86443597Y-84857567I-751317J-837345D01*
G01*
X85133595Y-86317567D01*
G75*
G02*
X83544933Y-86403595I-837345J751317D01*
G01*
G37*
%TD.AperFunction*%
%TO.P,MX17,2*%
%TO.N,Net-(D17-Pad2)*%
X90646250Y-83026250D03*
%TA.AperFunction,ComponentPad*%
G36*
G01*
X90529733Y-84728645D02*
X90528847Y-84728584D01*
G75*
G02*
X89483916Y-83528847I77403J1122334D01*
G01*
X89523916Y-82948847D01*
G75*
G02*
X90723653Y-81903916I1122334J-77403D01*
G01*
X90723653Y-81903916D01*
G75*
G02*
X91768584Y-83103653I-77403J-1122334D01*
G01*
X91728584Y-83683653D01*
G75*
G02*
X90528847Y-84728584I-1122334J77403D01*
G01*
G37*
%TD.AperFunction*%
%TD*%
%TO.P,MX16,1*%
%TO.N,COL3*%
X85606250Y-65056250D03*
%TA.AperFunction,ComponentPad*%
G36*
G01*
X83544938Y-67353600D02*
X83544933Y-67353595D01*
G75*
G02*
X83458905Y-65764933I751317J837345D01*
G01*
X84768907Y-64304933D01*
G75*
G02*
X86357569Y-64218905I837345J-751317D01*
G01*
X86357569Y-64218905D01*
G75*
G02*
X86443597Y-65807567I-751317J-837345D01*
G01*
X85133595Y-67267567D01*
G75*
G02*
X83544933Y-67353595I-837345J751317D01*
G01*
G37*
%TD.AperFunction*%
%TO.P,MX16,2*%
%TO.N,Net-(D16-Pad2)*%
X90646250Y-63976250D03*
%TA.AperFunction,ComponentPad*%
G36*
G01*
X90529733Y-65678645D02*
X90528847Y-65678584D01*
G75*
G02*
X89483916Y-64478847I77403J1122334D01*
G01*
X89523916Y-63898847D01*
G75*
G02*
X90723653Y-62853916I1122334J-77403D01*
G01*
X90723653Y-62853916D01*
G75*
G02*
X91768584Y-64053653I-77403J-1122334D01*
G01*
X91728584Y-64633653D01*
G75*
G02*
X90528847Y-65678584I-1122334J77403D01*
G01*
G37*
%TD.AperFunction*%
%TD*%
%TO.P,MX15,1*%
%TO.N,COL3*%
X85606250Y-46006250D03*
%TA.AperFunction,ComponentPad*%
G36*
G01*
X83544938Y-48303600D02*
X83544933Y-48303595D01*
G75*
G02*
X83458905Y-46714933I751317J837345D01*
G01*
X84768907Y-45254933D01*
G75*
G02*
X86357569Y-45168905I837345J-751317D01*
G01*
X86357569Y-45168905D01*
G75*
G02*
X86443597Y-46757567I-751317J-837345D01*
G01*
X85133595Y-48217567D01*
G75*
G02*
X83544933Y-48303595I-837345J751317D01*
G01*
G37*
%TD.AperFunction*%
%TO.P,MX15,2*%
%TO.N,Net-(D15-Pad2)*%
X90646250Y-44926250D03*
%TA.AperFunction,ComponentPad*%
G36*
G01*
X90529733Y-46628645D02*
X90528847Y-46628584D01*
G75*
G02*
X89483916Y-45428847I77403J1122334D01*
G01*
X89523916Y-44848847D01*
G75*
G02*
X90723653Y-43803916I1122334J-77403D01*
G01*
X90723653Y-43803916D01*
G75*
G02*
X91768584Y-45003653I-77403J-1122334D01*
G01*
X91728584Y-45583653D01*
G75*
G02*
X90528847Y-46628584I-1122334J77403D01*
G01*
G37*
%TD.AperFunction*%
%TD*%
%TO.P,MX14,1*%
%TO.N,COL3*%
X85606250Y-26956250D03*
%TA.AperFunction,ComponentPad*%
G36*
G01*
X83544938Y-29253600D02*
X83544933Y-29253595D01*
G75*
G02*
X83458905Y-27664933I751317J837345D01*
G01*
X84768907Y-26204933D01*
G75*
G02*
X86357569Y-26118905I837345J-751317D01*
G01*
X86357569Y-26118905D01*
G75*
G02*
X86443597Y-27707567I-751317J-837345D01*
G01*
X85133595Y-29167567D01*
G75*
G02*
X83544933Y-29253595I-837345J751317D01*
G01*
G37*
%TD.AperFunction*%
%TO.P,MX14,2*%
%TO.N,Net-(D14-Pad2)*%
X90646250Y-25876250D03*
%TA.AperFunction,ComponentPad*%
G36*
G01*
X90529733Y-27578645D02*
X90528847Y-27578584D01*
G75*
G02*
X89483916Y-26378847I77403J1122334D01*
G01*
X89523916Y-25798847D01*
G75*
G02*
X90723653Y-24753916I1122334J-77403D01*
G01*
X90723653Y-24753916D01*
G75*
G02*
X91768584Y-25953653I-77403J-1122334D01*
G01*
X91728584Y-26533653D01*
G75*
G02*
X90528847Y-27578584I-1122334J77403D01*
G01*
G37*
%TD.AperFunction*%
%TD*%
%TO.P,MX13,1*%
%TO.N,COL2*%
X57031250Y-103156250D03*
%TA.AperFunction,ComponentPad*%
G36*
G01*
X54969938Y-105453600D02*
X54969933Y-105453595D01*
G75*
G02*
X54883905Y-103864933I751317J837345D01*
G01*
X56193907Y-102404933D01*
G75*
G02*
X57782569Y-102318905I837345J-751317D01*
G01*
X57782569Y-102318905D01*
G75*
G02*
X57868597Y-103907567I-751317J-837345D01*
G01*
X56558595Y-105367567D01*
G75*
G02*
X54969933Y-105453595I-837345J751317D01*
G01*
G37*
%TD.AperFunction*%
%TO.P,MX13,2*%
%TO.N,Net-(D13-Pad2)*%
X62071250Y-102076250D03*
%TA.AperFunction,ComponentPad*%
G36*
G01*
X61954733Y-103778645D02*
X61953847Y-103778584D01*
G75*
G02*
X60908916Y-102578847I77403J1122334D01*
G01*
X60948916Y-101998847D01*
G75*
G02*
X62148653Y-100953916I1122334J-77403D01*
G01*
X62148653Y-100953916D01*
G75*
G02*
X63193584Y-102153653I-77403J-1122334D01*
G01*
X63153584Y-102733653D01*
G75*
G02*
X61953847Y-103778584I-1122334J77403D01*
G01*
G37*
%TD.AperFunction*%
%TD*%
%TO.P,MX12,1*%
%TO.N,COL2*%
X66556250Y-84106250D03*
%TA.AperFunction,ComponentPad*%
G36*
G01*
X64494938Y-86403600D02*
X64494933Y-86403595D01*
G75*
G02*
X64408905Y-84814933I751317J837345D01*
G01*
X65718907Y-83354933D01*
G75*
G02*
X67307569Y-83268905I837345J-751317D01*
G01*
X67307569Y-83268905D01*
G75*
G02*
X67393597Y-84857567I-751317J-837345D01*
G01*
X66083595Y-86317567D01*
G75*
G02*
X64494933Y-86403595I-837345J751317D01*
G01*
G37*
%TD.AperFunction*%
%TO.P,MX12,2*%
%TO.N,Net-(D12-Pad2)*%
X71596250Y-83026250D03*
%TA.AperFunction,ComponentPad*%
G36*
G01*
X71479733Y-84728645D02*
X71478847Y-84728584D01*
G75*
G02*
X70433916Y-83528847I77403J1122334D01*
G01*
X70473916Y-82948847D01*
G75*
G02*
X71673653Y-81903916I1122334J-77403D01*
G01*
X71673653Y-81903916D01*
G75*
G02*
X72718584Y-83103653I-77403J-1122334D01*
G01*
X72678584Y-83683653D01*
G75*
G02*
X71478847Y-84728584I-1122334J77403D01*
G01*
G37*
%TD.AperFunction*%
%TD*%
%TO.P,MX11,1*%
%TO.N,COL2*%
X66556250Y-65056250D03*
%TA.AperFunction,ComponentPad*%
G36*
G01*
X64494938Y-67353600D02*
X64494933Y-67353595D01*
G75*
G02*
X64408905Y-65764933I751317J837345D01*
G01*
X65718907Y-64304933D01*
G75*
G02*
X67307569Y-64218905I837345J-751317D01*
G01*
X67307569Y-64218905D01*
G75*
G02*
X67393597Y-65807567I-751317J-837345D01*
G01*
X66083595Y-67267567D01*
G75*
G02*
X64494933Y-67353595I-837345J751317D01*
G01*
G37*
%TD.AperFunction*%
%TO.P,MX11,2*%
%TO.N,Net-(D11-Pad2)*%
X71596250Y-63976250D03*
%TA.AperFunction,ComponentPad*%
G36*
G01*
X71479733Y-65678645D02*
X71478847Y-65678584D01*
G75*
G02*
X70433916Y-64478847I77403J1122334D01*
G01*
X70473916Y-63898847D01*
G75*
G02*
X71673653Y-62853916I1122334J-77403D01*
G01*
X71673653Y-62853916D01*
G75*
G02*
X72718584Y-64053653I-77403J-1122334D01*
G01*
X72678584Y-64633653D01*
G75*
G02*
X71478847Y-65678584I-1122334J77403D01*
G01*
G37*
%TD.AperFunction*%
%TD*%
%TO.P,MX10,1*%
%TO.N,COL2*%
X66556250Y-46006250D03*
%TA.AperFunction,ComponentPad*%
G36*
G01*
X64494938Y-48303600D02*
X64494933Y-48303595D01*
G75*
G02*
X64408905Y-46714933I751317J837345D01*
G01*
X65718907Y-45254933D01*
G75*
G02*
X67307569Y-45168905I837345J-751317D01*
G01*
X67307569Y-45168905D01*
G75*
G02*
X67393597Y-46757567I-751317J-837345D01*
G01*
X66083595Y-48217567D01*
G75*
G02*
X64494933Y-48303595I-837345J751317D01*
G01*
G37*
%TD.AperFunction*%
%TO.P,MX10,2*%
%TO.N,Net-(D10-Pad2)*%
X71596250Y-44926250D03*
%TA.AperFunction,ComponentPad*%
G36*
G01*
X71479733Y-46628645D02*
X71478847Y-46628584D01*
G75*
G02*
X70433916Y-45428847I77403J1122334D01*
G01*
X70473916Y-44848847D01*
G75*
G02*
X71673653Y-43803916I1122334J-77403D01*
G01*
X71673653Y-43803916D01*
G75*
G02*
X72718584Y-45003653I-77403J-1122334D01*
G01*
X72678584Y-45583653D01*
G75*
G02*
X71478847Y-46628584I-1122334J77403D01*
G01*
G37*
%TD.AperFunction*%
%TD*%
%TO.P,MX9,1*%
%TO.N,COL2*%
X66556250Y-26956250D03*
%TA.AperFunction,ComponentPad*%
G36*
G01*
X64494938Y-29253600D02*
X64494933Y-29253595D01*
G75*
G02*
X64408905Y-27664933I751317J837345D01*
G01*
X65718907Y-26204933D01*
G75*
G02*
X67307569Y-26118905I837345J-751317D01*
G01*
X67307569Y-26118905D01*
G75*
G02*
X67393597Y-27707567I-751317J-837345D01*
G01*
X66083595Y-29167567D01*
G75*
G02*
X64494933Y-29253595I-837345J751317D01*
G01*
G37*
%TD.AperFunction*%
%TO.P,MX9,2*%
%TO.N,Net-(D9-Pad2)*%
X71596250Y-25876250D03*
%TA.AperFunction,ComponentPad*%
G36*
G01*
X71479733Y-27578645D02*
X71478847Y-27578584D01*
G75*
G02*
X70433916Y-26378847I77403J1122334D01*
G01*
X70473916Y-25798847D01*
G75*
G02*
X71673653Y-24753916I1122334J-77403D01*
G01*
X71673653Y-24753916D01*
G75*
G02*
X72718584Y-25953653I-77403J-1122334D01*
G01*
X72678584Y-26533653D01*
G75*
G02*
X71478847Y-27578584I-1122334J77403D01*
G01*
G37*
%TD.AperFunction*%
%TD*%
%TO.P,MX8,1*%
%TO.N,COL1*%
X47506250Y-84106250D03*
%TA.AperFunction,ComponentPad*%
G36*
G01*
X45444938Y-86403600D02*
X45444933Y-86403595D01*
G75*
G02*
X45358905Y-84814933I751317J837345D01*
G01*
X46668907Y-83354933D01*
G75*
G02*
X48257569Y-83268905I837345J-751317D01*
G01*
X48257569Y-83268905D01*
G75*
G02*
X48343597Y-84857567I-751317J-837345D01*
G01*
X47033595Y-86317567D01*
G75*
G02*
X45444933Y-86403595I-837345J751317D01*
G01*
G37*
%TD.AperFunction*%
%TO.P,MX8,2*%
%TO.N,Net-(D8-Pad2)*%
X52546250Y-83026250D03*
%TA.AperFunction,ComponentPad*%
G36*
G01*
X52429733Y-84728645D02*
X52428847Y-84728584D01*
G75*
G02*
X51383916Y-83528847I77403J1122334D01*
G01*
X51423916Y-82948847D01*
G75*
G02*
X52623653Y-81903916I1122334J-77403D01*
G01*
X52623653Y-81903916D01*
G75*
G02*
X53668584Y-83103653I-77403J-1122334D01*
G01*
X53628584Y-83683653D01*
G75*
G02*
X52428847Y-84728584I-1122334J77403D01*
G01*
G37*
%TD.AperFunction*%
%TD*%
%TO.P,MX7,1*%
%TO.N,COL1*%
X47506250Y-65056250D03*
%TA.AperFunction,ComponentPad*%
G36*
G01*
X45444938Y-67353600D02*
X45444933Y-67353595D01*
G75*
G02*
X45358905Y-65764933I751317J837345D01*
G01*
X46668907Y-64304933D01*
G75*
G02*
X48257569Y-64218905I837345J-751317D01*
G01*
X48257569Y-64218905D01*
G75*
G02*
X48343597Y-65807567I-751317J-837345D01*
G01*
X47033595Y-67267567D01*
G75*
G02*
X45444933Y-67353595I-837345J751317D01*
G01*
G37*
%TD.AperFunction*%
%TO.P,MX7,2*%
%TO.N,Net-(D7-Pad2)*%
X52546250Y-63976250D03*
%TA.AperFunction,ComponentPad*%
G36*
G01*
X52429733Y-65678645D02*
X52428847Y-65678584D01*
G75*
G02*
X51383916Y-64478847I77403J1122334D01*
G01*
X51423916Y-63898847D01*
G75*
G02*
X52623653Y-62853916I1122334J-77403D01*
G01*
X52623653Y-62853916D01*
G75*
G02*
X53668584Y-64053653I-77403J-1122334D01*
G01*
X53628584Y-64633653D01*
G75*
G02*
X52428847Y-65678584I-1122334J77403D01*
G01*
G37*
%TD.AperFunction*%
%TD*%
%TO.P,MX6,1*%
%TO.N,COL1*%
X47506250Y-46006250D03*
%TA.AperFunction,ComponentPad*%
G36*
G01*
X45444938Y-48303600D02*
X45444933Y-48303595D01*
G75*
G02*
X45358905Y-46714933I751317J837345D01*
G01*
X46668907Y-45254933D01*
G75*
G02*
X48257569Y-45168905I837345J-751317D01*
G01*
X48257569Y-45168905D01*
G75*
G02*
X48343597Y-46757567I-751317J-837345D01*
G01*
X47033595Y-48217567D01*
G75*
G02*
X45444933Y-48303595I-837345J751317D01*
G01*
G37*
%TD.AperFunction*%
%TO.P,MX6,2*%
%TO.N,Net-(D6-Pad2)*%
X52546250Y-44926250D03*
%TA.AperFunction,ComponentPad*%
G36*
G01*
X52429733Y-46628645D02*
X52428847Y-46628584D01*
G75*
G02*
X51383916Y-45428847I77403J1122334D01*
G01*
X51423916Y-44848847D01*
G75*
G02*
X52623653Y-43803916I1122334J-77403D01*
G01*
X52623653Y-43803916D01*
G75*
G02*
X53668584Y-45003653I-77403J-1122334D01*
G01*
X53628584Y-45583653D01*
G75*
G02*
X52428847Y-46628584I-1122334J77403D01*
G01*
G37*
%TD.AperFunction*%
%TD*%
%TO.P,MX5,1*%
%TO.N,COL1*%
X47506250Y-26956250D03*
%TA.AperFunction,ComponentPad*%
G36*
G01*
X45444938Y-29253600D02*
X45444933Y-29253595D01*
G75*
G02*
X45358905Y-27664933I751317J837345D01*
G01*
X46668907Y-26204933D01*
G75*
G02*
X48257569Y-26118905I837345J-751317D01*
G01*
X48257569Y-26118905D01*
G75*
G02*
X48343597Y-27707567I-751317J-837345D01*
G01*
X47033595Y-29167567D01*
G75*
G02*
X45444933Y-29253595I-837345J751317D01*
G01*
G37*
%TD.AperFunction*%
%TO.P,MX5,2*%
%TO.N,Net-(D5-Pad2)*%
X52546250Y-25876250D03*
%TA.AperFunction,ComponentPad*%
G36*
G01*
X52429733Y-27578645D02*
X52428847Y-27578584D01*
G75*
G02*
X51383916Y-26378847I77403J1122334D01*
G01*
X51423916Y-25798847D01*
G75*
G02*
X52623653Y-24753916I1122334J-77403D01*
G01*
X52623653Y-24753916D01*
G75*
G02*
X53668584Y-25953653I-77403J-1122334D01*
G01*
X53628584Y-26533653D01*
G75*
G02*
X52428847Y-27578584I-1122334J77403D01*
G01*
G37*
%TD.AperFunction*%
%TD*%
%TO.P,MX4,1*%
%TO.N,COL0*%
X28456250Y-84106250D03*
%TA.AperFunction,ComponentPad*%
G36*
G01*
X26394938Y-86403600D02*
X26394933Y-86403595D01*
G75*
G02*
X26308905Y-84814933I751317J837345D01*
G01*
X27618907Y-83354933D01*
G75*
G02*
X29207569Y-83268905I837345J-751317D01*
G01*
X29207569Y-83268905D01*
G75*
G02*
X29293597Y-84857567I-751317J-837345D01*
G01*
X27983595Y-86317567D01*
G75*
G02*
X26394933Y-86403595I-837345J751317D01*
G01*
G37*
%TD.AperFunction*%
%TO.P,MX4,2*%
%TO.N,Net-(D4-Pad2)*%
X33496250Y-83026250D03*
%TA.AperFunction,ComponentPad*%
G36*
G01*
X33379733Y-84728645D02*
X33378847Y-84728584D01*
G75*
G02*
X32333916Y-83528847I77403J1122334D01*
G01*
X32373916Y-82948847D01*
G75*
G02*
X33573653Y-81903916I1122334J-77403D01*
G01*
X33573653Y-81903916D01*
G75*
G02*
X34618584Y-83103653I-77403J-1122334D01*
G01*
X34578584Y-83683653D01*
G75*
G02*
X33378847Y-84728584I-1122334J77403D01*
G01*
G37*
%TD.AperFunction*%
%TD*%
%TO.P,MX3,1*%
%TO.N,COL0*%
X28456250Y-65056250D03*
%TA.AperFunction,ComponentPad*%
G36*
G01*
X26394938Y-67353600D02*
X26394933Y-67353595D01*
G75*
G02*
X26308905Y-65764933I751317J837345D01*
G01*
X27618907Y-64304933D01*
G75*
G02*
X29207569Y-64218905I837345J-751317D01*
G01*
X29207569Y-64218905D01*
G75*
G02*
X29293597Y-65807567I-751317J-837345D01*
G01*
X27983595Y-67267567D01*
G75*
G02*
X26394933Y-67353595I-837345J751317D01*
G01*
G37*
%TD.AperFunction*%
%TO.P,MX3,2*%
%TO.N,Net-(D3-Pad2)*%
X33496250Y-63976250D03*
%TA.AperFunction,ComponentPad*%
G36*
G01*
X33379733Y-65678645D02*
X33378847Y-65678584D01*
G75*
G02*
X32333916Y-64478847I77403J1122334D01*
G01*
X32373916Y-63898847D01*
G75*
G02*
X33573653Y-62853916I1122334J-77403D01*
G01*
X33573653Y-62853916D01*
G75*
G02*
X34618584Y-64053653I-77403J-1122334D01*
G01*
X34578584Y-64633653D01*
G75*
G02*
X33378847Y-65678584I-1122334J77403D01*
G01*
G37*
%TD.AperFunction*%
%TD*%
%TO.P,MX2,1*%
%TO.N,COL0*%
X28456250Y-46006250D03*
%TA.AperFunction,ComponentPad*%
G36*
G01*
X26394938Y-48303600D02*
X26394933Y-48303595D01*
G75*
G02*
X26308905Y-46714933I751317J837345D01*
G01*
X27618907Y-45254933D01*
G75*
G02*
X29207569Y-45168905I837345J-751317D01*
G01*
X29207569Y-45168905D01*
G75*
G02*
X29293597Y-46757567I-751317J-837345D01*
G01*
X27983595Y-48217567D01*
G75*
G02*
X26394933Y-48303595I-837345J751317D01*
G01*
G37*
%TD.AperFunction*%
%TO.P,MX2,2*%
%TO.N,Net-(D2-Pad2)*%
X33496250Y-44926250D03*
%TA.AperFunction,ComponentPad*%
G36*
G01*
X33379733Y-46628645D02*
X33378847Y-46628584D01*
G75*
G02*
X32333916Y-45428847I77403J1122334D01*
G01*
X32373916Y-44848847D01*
G75*
G02*
X33573653Y-43803916I1122334J-77403D01*
G01*
X33573653Y-43803916D01*
G75*
G02*
X34618584Y-45003653I-77403J-1122334D01*
G01*
X34578584Y-45583653D01*
G75*
G02*
X33378847Y-46628584I-1122334J77403D01*
G01*
G37*
%TD.AperFunction*%
%TD*%
%TO.P,MX1,1*%
%TO.N,COL0*%
X28456250Y-26956250D03*
%TA.AperFunction,ComponentPad*%
G36*
G01*
X26394938Y-29253600D02*
X26394933Y-29253595D01*
G75*
G02*
X26308905Y-27664933I751317J837345D01*
G01*
X27618907Y-26204933D01*
G75*
G02*
X29207569Y-26118905I837345J-751317D01*
G01*
X29207569Y-26118905D01*
G75*
G02*
X29293597Y-27707567I-751317J-837345D01*
G01*
X27983595Y-29167567D01*
G75*
G02*
X26394933Y-29253595I-837345J751317D01*
G01*
G37*
%TD.AperFunction*%
%TO.P,MX1,2*%
%TO.N,Net-(D1-Pad2)*%
X33496250Y-25876250D03*
%TA.AperFunction,ComponentPad*%
G36*
G01*
X33379733Y-27578645D02*
X33378847Y-27578584D01*
G75*
G02*
X32333916Y-26378847I77403J1122334D01*
G01*
X32373916Y-25798847D01*
G75*
G02*
X33573653Y-24753916I1122334J-77403D01*
G01*
X33573653Y-24753916D01*
G75*
G02*
X34618584Y-25953653I-77403J-1122334D01*
G01*
X34578584Y-26533653D01*
G75*
G02*
X33378847Y-27578584I-1122334J77403D01*
G01*
G37*
%TD.AperFunction*%
%TD*%
D13*
%TO.P,J1,6*%
%TO.N,GND*%
X208121250Y-114776250D03*
D14*
%TO.P,J1,5*%
%TO.N,RST*%
X208121250Y-112236250D03*
%TO.P,J1,4*%
%TO.N,MOSI*%
X205581250Y-114776250D03*
%TO.P,J1,3*%
%TO.N,SCK*%
X205581250Y-112236250D03*
%TO.P,J1,2*%
%TO.N,+5V*%
X203041250Y-114776250D03*
%TO.P,J1,1*%
%TO.N,MISO*%
X203041250Y-112236250D03*
%TD*%
D15*
%TO.N,GND*%
X121793000Y-41783000D03*
X117348000Y-41783000D03*
X185166000Y-94234000D03*
X192913000Y-92837000D03*
%TO.N,+5V*%
X181483000Y-95250000D03*
X187198000Y-95250000D03*
X200787000Y-95377000D03*
X196723000Y-114681000D03*
X183388000Y-110490000D03*
X197739000Y-95377000D03*
%TO.N,ROW0*%
X110331250Y-38893750D03*
X123031250Y-38893750D03*
X172243750Y-34925000D03*
X178593750Y-96837500D03*
%TO.N,ROW1*%
X115093750Y-53975000D03*
X121443750Y-53975000D03*
X172243750Y-53975000D03*
X178560436Y-97836946D03*
%TO.N,ROW2*%
X115093750Y-73025000D03*
X121443750Y-73025000D03*
X172243750Y-73025000D03*
X178547176Y-98851820D03*
%TO.N,ROW3*%
X115093750Y-92075000D03*
X122237500Y-90487500D03*
X172243750Y-91785000D03*
X178541821Y-99874600D03*
%TO.N,VCC*%
X119888000Y-26162000D03*
X114290510Y-26203240D03*
%TO.N,COL1*%
X47498000Y-113919000D03*
%TO.N,COL3*%
X76073000Y-112141000D03*
%TO.N,COL4*%
X99568000Y-111506000D03*
%TO.N,COL5*%
X127793750Y-111125000D03*
%TO.N,COL6*%
X151606250Y-111125000D03*
%TO.N,COL7*%
X170656250Y-111125000D03*
%TO.N,COL8*%
X176403000Y-110998000D03*
%TO.N,COL9*%
X199009000Y-93726000D03*
%TD*%
D16*
%TO.N,GND*%
X121793000Y-41783000D02*
X117348000Y-41783000D01*
X191516000Y-94234000D02*
X192913000Y-92837000D01*
X185166000Y-94234000D02*
X191516000Y-94234000D01*
%TO.N,+5V*%
X186817000Y-114681000D02*
X185166000Y-114681000D01*
X185166000Y-114681000D02*
X183388000Y-112903000D01*
X183388000Y-95250000D02*
X187198000Y-95250000D01*
X181483000Y-95250000D02*
X183388000Y-95250000D01*
X183388000Y-112903000D02*
X183388000Y-110490000D01*
X183388000Y-110490000D02*
X183388000Y-95250000D01*
X196723000Y-114681000D02*
X186817000Y-114681000D01*
X197739000Y-95377000D02*
X200787000Y-95377000D01*
X196818250Y-114776250D02*
X196723000Y-114681000D01*
X203041250Y-114776250D02*
X196818250Y-114776250D01*
X183388000Y-94842058D02*
X186536058Y-91694000D01*
X183388000Y-95250000D02*
X183388000Y-94842058D01*
X194056000Y-91694000D02*
X197739000Y-95377000D01*
X186536058Y-91694000D02*
X194056000Y-91694000D01*
D17*
%TO.N,ROW0*%
X110331250Y-38893750D02*
X123031250Y-38893750D01*
X172243750Y-34925000D02*
X172243750Y-38893750D01*
X172243750Y-38893750D02*
X176212500Y-42862500D01*
X176212500Y-94456250D02*
X178593750Y-96837500D01*
X176212500Y-42862500D02*
X176212500Y-94456250D01*
%TO.N,ROW1*%
X115093750Y-53975000D02*
X121443750Y-53975000D01*
X172243750Y-53975000D02*
X175418750Y-57150000D01*
X175418750Y-57150000D02*
X175758490Y-57489740D01*
X175758490Y-95035000D02*
X178560436Y-97836946D01*
X175758490Y-57489740D02*
X175758490Y-95035000D01*
%TO.N,ROW2*%
X115093750Y-73025000D02*
X121443750Y-73025000D01*
X172243750Y-73025000D02*
X175304480Y-76085730D01*
X175304480Y-95609124D02*
X178547176Y-98851820D01*
X175304480Y-76085730D02*
X175304480Y-95609124D01*
%TO.N,ROW3*%
X120650000Y-92075000D02*
X122237500Y-90487500D01*
X115093750Y-92075000D02*
X120650000Y-92075000D01*
X172243750Y-93576529D02*
X178541821Y-99874600D01*
X172243750Y-91785000D02*
X172243750Y-93576529D01*
D16*
%TO.N,VCC*%
X114331750Y-26162000D02*
X114290510Y-26203240D01*
X119888000Y-26162000D02*
X114331750Y-26162000D01*
D17*
%TO.N,COL0*%
X27146250Y-28416250D02*
X27146250Y-85566250D01*
%TO.N,COL1*%
X46196250Y-66833750D02*
X46196250Y-85566250D01*
X46196250Y-28416250D02*
X46196250Y-66833750D01*
X46196250Y-112617250D02*
X47498000Y-113919000D01*
X46196250Y-85566250D02*
X46196250Y-112617250D01*
%TO.N,COL2*%
X65246250Y-94941250D02*
X57031250Y-103156250D01*
X65246250Y-28416250D02*
X65246250Y-94941250D01*
%TO.N,COL3*%
X84296250Y-94941250D02*
X76081250Y-103156250D01*
X84296250Y-28416250D02*
X84296250Y-94941250D01*
X74771250Y-104616250D02*
X74771250Y-110839250D01*
X74771250Y-110839250D02*
X76073000Y-112141000D01*
%TO.N,COL4*%
X103346250Y-99703750D02*
X99893750Y-103156250D01*
X103346250Y-28416250D02*
X103346250Y-99703750D01*
X98583750Y-110521750D02*
X99568000Y-111506000D01*
X98583750Y-104616250D02*
X98583750Y-110521750D01*
%TO.N,COL5*%
X122396250Y-28416250D02*
X122396250Y-32702500D01*
X124831249Y-44881251D02*
X123706250Y-46006250D01*
X124831249Y-35137499D02*
X124831249Y-44881251D01*
X122396250Y-32702500D02*
X124831249Y-35137499D01*
X122396250Y-68897500D02*
X122396250Y-85566250D01*
X122396250Y-47466250D02*
X122396250Y-68897500D01*
X127158750Y-92493684D02*
X127158750Y-104616250D01*
X122396250Y-87731184D02*
X127158750Y-92493684D01*
X122396250Y-85566250D02*
X122396250Y-87731184D01*
X127158750Y-110490000D02*
X127793750Y-111125000D01*
X127158750Y-104616250D02*
X127158750Y-110490000D01*
%TO.N,COL6*%
X141446250Y-95091250D02*
X150971250Y-104616250D01*
X141446250Y-28416250D02*
X141446250Y-95091250D01*
X150971250Y-104616250D02*
X150971250Y-110490000D01*
X150971250Y-110490000D02*
X151606250Y-111125000D01*
%TO.N,COL7*%
X160496250Y-95091250D02*
X170021250Y-104616250D01*
X160496250Y-28416250D02*
X160496250Y-95091250D01*
X170021250Y-104616250D02*
X170021250Y-110490000D01*
X170021250Y-110490000D02*
X170656250Y-111125000D01*
%TO.N,COL8*%
X179546250Y-52228750D02*
X179546250Y-28416250D01*
X179546250Y-85566250D02*
X179546250Y-52228750D01*
X176403000Y-107885538D02*
X176403000Y-110998000D01*
X179546250Y-104742288D02*
X176403000Y-107885538D01*
X179546250Y-85566250D02*
X179546250Y-104742288D01*
%TO.N,COL9*%
X198596250Y-28416250D02*
X198596250Y-85566250D01*
X198596250Y-93313250D02*
X199009000Y-93726000D01*
X198596250Y-85566250D02*
X198596250Y-93313250D01*
%TD*%
M02*
