%TF.GenerationSoftware,KiCad,Pcbnew,(5.1.12)-1*%
%TF.CreationDate,2022-01-05T12:33:12-05:00*%
%TF.ProjectId,my-keeb-type-c,6d792d6b-6565-4622-9d74-7970652d632e,rev?*%
%TF.SameCoordinates,Original*%
%TF.FileFunction,Legend,Bot*%
%TF.FilePolarity,Positive*%
%FSLAX46Y46*%
G04 Gerber Fmt 4.6, Leading zero omitted, Abs format (unit mm)*
G04 Created by KiCad (PCBNEW (5.1.12)-1) date 2022-01-05 12:33:12*
%MOMM*%
%LPD*%
G01*
G04 APERTURE LIST*
%ADD10C,1.270000*%
%ADD11C,0.010000*%
%ADD12C,0.120000*%
%ADD13C,0.150000*%
%ADD14C,0.250000*%
%ADD15C,1.750000*%
%ADD16C,2.250000*%
%ADD17C,3.987800*%
%ADD18R,1.800000X2.100000*%
%ADD19R,0.600000X2.450000*%
%ADD20R,0.300000X2.450000*%
%ADD21C,0.650000*%
%ADD22R,0.700000X0.600000*%
%ADD23R,0.700000X1.000000*%
%ADD24R,0.550000X1.500000*%
%ADD25R,1.500000X0.550000*%
%ADD26R,1.800000X1.100000*%
%ADD27R,1.700000X1.700000*%
%ADD28C,1.700000*%
%ADD29R,1.200000X0.900000*%
%ADD30R,0.900000X1.200000*%
G04 APERTURE END LIST*
D10*
X40821428Y-114768690D02*
X40337619Y-115010595D01*
X39370000Y-115010595D01*
X38886190Y-114768690D01*
X38644285Y-114284880D01*
X38644285Y-114042976D01*
X38886190Y-113559166D01*
X39370000Y-113317261D01*
X40095714Y-113317261D01*
X40579523Y-113075357D01*
X40821428Y-112591547D01*
X40821428Y-112349642D01*
X40579523Y-111865833D01*
X40095714Y-111623928D01*
X39370000Y-111623928D01*
X38886190Y-111865833D01*
X34290000Y-115010595D02*
X34290000Y-112349642D01*
X34531904Y-111865833D01*
X35015714Y-111623928D01*
X35983333Y-111623928D01*
X36467142Y-111865833D01*
X34290000Y-114768690D02*
X34773809Y-115010595D01*
X35983333Y-115010595D01*
X36467142Y-114768690D01*
X36709047Y-114284880D01*
X36709047Y-113801071D01*
X36467142Y-113317261D01*
X35983333Y-113075357D01*
X34773809Y-113075357D01*
X34290000Y-112833452D01*
X31145238Y-115010595D02*
X31629047Y-114768690D01*
X31870952Y-114284880D01*
X31870952Y-109930595D01*
X29451904Y-114768690D02*
X28968095Y-115010595D01*
X28000476Y-115010595D01*
X27516666Y-114768690D01*
X27274761Y-114284880D01*
X27274761Y-114042976D01*
X27516666Y-113559166D01*
X28000476Y-113317261D01*
X28726190Y-113317261D01*
X29210000Y-113075357D01*
X29451904Y-112591547D01*
X29451904Y-112349642D01*
X29210000Y-111865833D01*
X28726190Y-111623928D01*
X28000476Y-111623928D01*
X27516666Y-111865833D01*
X22920476Y-115010595D02*
X22920476Y-112349642D01*
X23162380Y-111865833D01*
X23646190Y-111623928D01*
X24613809Y-111623928D01*
X25097619Y-111865833D01*
X22920476Y-114768690D02*
X23404285Y-115010595D01*
X24613809Y-115010595D01*
X25097619Y-114768690D01*
X25339523Y-114284880D01*
X25339523Y-113801071D01*
X25097619Y-113317261D01*
X24613809Y-113075357D01*
X23404285Y-113075357D01*
X22920476Y-112833452D01*
D11*
%TO.C,G\u002A\u002A\u002A*%
G36*
X42968460Y-98389276D02*
G01*
X43073882Y-98397957D01*
X43166789Y-98412712D01*
X43254624Y-98434572D01*
X43344830Y-98464572D01*
X43444850Y-98503744D01*
X43503591Y-98528242D01*
X43592879Y-98565177D01*
X43672736Y-98596853D01*
X43731696Y-98618788D01*
X43751500Y-98625198D01*
X43875122Y-98661656D01*
X44010428Y-98705300D01*
X44147243Y-98752493D01*
X44275394Y-98799596D01*
X44384704Y-98842970D01*
X44465001Y-98878978D01*
X44473974Y-98883550D01*
X44563450Y-98935476D01*
X44655385Y-98997081D01*
X44719816Y-99046811D01*
X44810917Y-99111888D01*
X44925485Y-99169206D01*
X45023926Y-99207263D01*
X45183842Y-99267271D01*
X45304530Y-99320224D01*
X45388288Y-99367298D01*
X45437414Y-99409670D01*
X45447128Y-99424120D01*
X45477954Y-99500207D01*
X45504996Y-99598810D01*
X45523585Y-99700121D01*
X45529249Y-99772474D01*
X45523581Y-99831423D01*
X45501842Y-99886055D01*
X45457490Y-99951351D01*
X45443094Y-99969844D01*
X45378250Y-100060809D01*
X45329219Y-100147342D01*
X45301288Y-100219315D01*
X45296835Y-100249945D01*
X45312669Y-100274277D01*
X45354871Y-100316353D01*
X45415737Y-100368796D01*
X45446762Y-100393500D01*
X45563664Y-100491434D01*
X45685668Y-100605851D01*
X45804055Y-100727578D01*
X45910106Y-100847440D01*
X45995103Y-100956265D01*
X46027621Y-101004696D01*
X46079500Y-101080301D01*
X46149496Y-101171926D01*
X46226334Y-101265128D01*
X46267184Y-101311561D01*
X46379480Y-101443611D01*
X46484997Y-101582605D01*
X46577354Y-101719211D01*
X46650169Y-101844097D01*
X46690724Y-101930967D01*
X46712888Y-101998592D01*
X46738202Y-102093329D01*
X46762939Y-102200517D01*
X46776887Y-102269633D01*
X46801396Y-102384270D01*
X46834978Y-102520889D01*
X46872990Y-102661422D01*
X46906660Y-102774750D01*
X46950173Y-102927733D01*
X46983465Y-103080216D01*
X47006848Y-103238225D01*
X47020636Y-103407788D01*
X47025141Y-103594933D01*
X47020676Y-103805687D01*
X47007554Y-104046077D01*
X46986625Y-104315873D01*
X46974422Y-104442537D01*
X46961327Y-104532302D01*
X46944720Y-104590567D01*
X46921981Y-104622732D01*
X46890488Y-104634195D01*
X46847620Y-104630356D01*
X46835242Y-104627734D01*
X46791834Y-104623711D01*
X46733888Y-104630089D01*
X46653693Y-104648344D01*
X46543538Y-104679953D01*
X46511865Y-104689665D01*
X46375138Y-104733339D01*
X46272827Y-104769883D01*
X46198299Y-104802512D01*
X46144921Y-104834445D01*
X46106061Y-104868897D01*
X46082910Y-104897680D01*
X46033966Y-104986217D01*
X46021738Y-105058285D01*
X46043050Y-105111583D01*
X46094724Y-105143808D01*
X46173583Y-105152658D01*
X46276451Y-105135829D01*
X46368402Y-105104585D01*
X46466758Y-105069356D01*
X46590926Y-105031726D01*
X46724934Y-104996103D01*
X46852813Y-104966896D01*
X46900847Y-104957604D01*
X46952388Y-104953905D01*
X46977541Y-104970158D01*
X46982629Y-104981743D01*
X46996091Y-105014919D01*
X47023394Y-105077166D01*
X47060417Y-105159226D01*
X47098240Y-105241499D01*
X47139141Y-105331674D01*
X47172405Y-105408732D01*
X47194428Y-105464072D01*
X47201667Y-105488425D01*
X47216290Y-105509867D01*
X47257012Y-105555414D01*
X47319110Y-105620152D01*
X47397862Y-105699167D01*
X47488544Y-105787544D01*
X47495795Y-105794509D01*
X47603304Y-105898689D01*
X47687325Y-105983694D01*
X47755591Y-106058942D01*
X47815832Y-106133853D01*
X47875780Y-106217842D01*
X47943166Y-106320329D01*
X47996831Y-106404834D01*
X48137298Y-106630289D01*
X48268538Y-106846299D01*
X48387701Y-107047949D01*
X48491938Y-107230328D01*
X48578401Y-107388523D01*
X48644241Y-107517623D01*
X48653615Y-107537250D01*
X48684727Y-107610049D01*
X48722251Y-107708447D01*
X48763715Y-107824751D01*
X48806645Y-107951269D01*
X48848571Y-108080309D01*
X48887018Y-108204179D01*
X48919515Y-108315186D01*
X48943589Y-108405639D01*
X48956769Y-108467846D01*
X48958500Y-108485797D01*
X48946808Y-108533318D01*
X48915755Y-108603748D01*
X48871374Y-108686125D01*
X48819698Y-108769486D01*
X48766760Y-108842869D01*
X48752378Y-108860316D01*
X48690615Y-108920352D01*
X48620032Y-108972154D01*
X48590771Y-108988303D01*
X48536131Y-109019860D01*
X48461426Y-109070600D01*
X48378697Y-109132115D01*
X48334084Y-109167539D01*
X48241458Y-109238857D01*
X48154211Y-109294975D01*
X48062141Y-109340490D01*
X47955046Y-109379995D01*
X47822727Y-109418084D01*
X47721151Y-109443583D01*
X47418108Y-109508582D01*
X47086931Y-109563395D01*
X46724983Y-109608298D01*
X46329622Y-109643571D01*
X45898209Y-109669492D01*
X45428106Y-109686337D01*
X45413084Y-109686713D01*
X45217795Y-109691902D01*
X45020978Y-109697810D01*
X44830284Y-109704159D01*
X44653366Y-109710670D01*
X44497873Y-109717066D01*
X44371458Y-109723070D01*
X44301834Y-109727051D01*
X44123435Y-109736204D01*
X43930648Y-109742153D01*
X43733158Y-109744907D01*
X43540652Y-109744476D01*
X43362816Y-109740868D01*
X43209336Y-109734094D01*
X43105917Y-109725921D01*
X42967162Y-109708228D01*
X42827913Y-109683143D01*
X42678649Y-109648442D01*
X42509853Y-109601901D01*
X42312004Y-109541296D01*
X42301584Y-109537985D01*
X42176971Y-109499251D01*
X42051917Y-109461960D01*
X41938547Y-109429628D01*
X41848987Y-109405766D01*
X41825334Y-109400024D01*
X41666290Y-109352449D01*
X41508962Y-109282469D01*
X41343120Y-109185140D01*
X41250611Y-109122427D01*
X41161690Y-109064360D01*
X41087753Y-109025012D01*
X41036813Y-109008570D01*
X41032256Y-109008334D01*
X40986666Y-109013157D01*
X40913026Y-109026043D01*
X40824311Y-109044614D01*
X40786110Y-109053434D01*
X40596346Y-109098534D01*
X40412947Y-108974059D01*
X40312949Y-108901978D01*
X40205408Y-108817765D01*
X40108756Y-108736043D01*
X40080232Y-108710101D01*
X40004181Y-108642399D01*
X39900998Y-108555411D01*
X39777748Y-108454807D01*
X39641493Y-108346256D01*
X39499300Y-108235429D01*
X39433956Y-108185664D01*
X46063308Y-108185664D01*
X46087390Y-108297660D01*
X46139223Y-108437338D01*
X46174963Y-108516833D01*
X46220574Y-108611372D01*
X46256323Y-108676317D01*
X46289217Y-108720903D01*
X46326261Y-108754362D01*
X46374462Y-108785930D01*
X46382983Y-108791011D01*
X46454110Y-108829409D01*
X46550250Y-108876050D01*
X46663632Y-108927700D01*
X46786487Y-108981129D01*
X46911043Y-109033102D01*
X47029531Y-109080387D01*
X47134179Y-109119753D01*
X47217218Y-109147965D01*
X47270877Y-109161793D01*
X47275750Y-109162411D01*
X47334942Y-109166403D01*
X47421626Y-109170194D01*
X47520962Y-109173184D01*
X47565783Y-109174109D01*
X47652172Y-109174699D01*
X47721302Y-109171544D01*
X47784864Y-109162392D01*
X47854547Y-109144994D01*
X47942041Y-109117100D01*
X48042033Y-109082442D01*
X48216784Y-109018773D01*
X48354988Y-108962920D01*
X48461174Y-108912458D01*
X48539872Y-108864966D01*
X48595610Y-108818018D01*
X48632917Y-108769190D01*
X48635360Y-108764917D01*
X48668328Y-108673171D01*
X48681662Y-108560090D01*
X48677143Y-108435859D01*
X48656553Y-108310661D01*
X48621672Y-108194681D01*
X48574281Y-108098104D01*
X48516161Y-108031113D01*
X48505742Y-108023660D01*
X48392959Y-107971143D01*
X48279593Y-107960929D01*
X48165781Y-107992996D01*
X48051659Y-108067321D01*
X48006000Y-108108833D01*
X47880760Y-108210415D01*
X47739633Y-108288769D01*
X47596113Y-108336874D01*
X47552923Y-108344591D01*
X47481387Y-108343892D01*
X47378958Y-108328689D01*
X47253590Y-108301289D01*
X47113241Y-108264003D01*
X46965867Y-108219139D01*
X46819423Y-108169008D01*
X46681867Y-108115918D01*
X46561155Y-108062179D01*
X46534917Y-108049106D01*
X46443957Y-108008505D01*
X46362039Y-107988457D01*
X46273799Y-107982958D01*
X46197298Y-107984304D01*
X46149692Y-107992653D01*
X46117659Y-108011897D01*
X46096770Y-108034667D01*
X46066571Y-108098838D01*
X46063308Y-108185664D01*
X39433956Y-108185664D01*
X39358231Y-108127993D01*
X39309417Y-108091488D01*
X39212401Y-108035373D01*
X39106980Y-108009131D01*
X38982101Y-108010584D01*
X38932314Y-108017145D01*
X38819860Y-108026646D01*
X38735499Y-108012681D01*
X38670153Y-107972047D01*
X38617547Y-107906026D01*
X38580808Y-107854700D01*
X38536160Y-107808333D01*
X38477261Y-107762487D01*
X38397766Y-107712725D01*
X38291331Y-107654607D01*
X38169690Y-107592699D01*
X38072924Y-107542332D01*
X37989353Y-107494942D01*
X37926736Y-107455217D01*
X37892832Y-107427839D01*
X37889906Y-107423772D01*
X37872773Y-107377241D01*
X37857325Y-107312430D01*
X37854623Y-107296927D01*
X37834367Y-107214487D01*
X37800228Y-107164842D01*
X37743255Y-107138742D01*
X37693514Y-107130437D01*
X37628233Y-107118279D01*
X37590779Y-107095518D01*
X37570879Y-107063794D01*
X37560179Y-107024897D01*
X37546593Y-106952013D01*
X37531395Y-106853283D01*
X37515860Y-106736848D01*
X37504182Y-106637667D01*
X37477417Y-106419989D01*
X37449131Y-106240814D01*
X37418131Y-106096313D01*
X37383224Y-105982658D01*
X37343218Y-105896020D01*
X37296921Y-105832571D01*
X37243138Y-105788480D01*
X37238850Y-105785894D01*
X37206729Y-105765146D01*
X37179448Y-105741049D01*
X37153996Y-105707906D01*
X37127362Y-105660023D01*
X37096536Y-105591706D01*
X37058508Y-105497260D01*
X37010267Y-105370990D01*
X36987416Y-105310239D01*
X36970907Y-105267296D01*
X41169879Y-105267296D01*
X41182555Y-105308217D01*
X41191960Y-105315756D01*
X41222466Y-105319205D01*
X41282801Y-105315670D01*
X41361183Y-105305949D01*
X41380058Y-105302998D01*
X41545362Y-105276153D01*
X41891723Y-105385656D01*
X42112236Y-105452236D01*
X42307689Y-105503524D01*
X42491400Y-105542086D01*
X42676692Y-105570491D01*
X42876883Y-105591303D01*
X43010667Y-105601279D01*
X43189818Y-105615341D01*
X43334578Y-105632298D01*
X43452872Y-105653763D01*
X43552622Y-105681349D01*
X43641753Y-105716669D01*
X43687292Y-105739022D01*
X43799944Y-105781590D01*
X43906826Y-105785980D01*
X43981175Y-105767763D01*
X44031632Y-105734531D01*
X44049018Y-105686398D01*
X44037092Y-105629339D01*
X43999611Y-105569326D01*
X43940334Y-105512333D01*
X43863019Y-105464333D01*
X43771425Y-105431301D01*
X43769151Y-105430758D01*
X43694135Y-105408601D01*
X43628397Y-105381739D01*
X43603334Y-105367565D01*
X43540152Y-105325637D01*
X43484492Y-105294951D01*
X43427585Y-105273416D01*
X43360664Y-105258942D01*
X43274962Y-105249438D01*
X43161712Y-105242814D01*
X43063584Y-105238853D01*
X42915451Y-105231848D01*
X42789026Y-105221709D01*
X42669209Y-105206463D01*
X42540901Y-105184137D01*
X42389003Y-105152756D01*
X42365084Y-105147547D01*
X42170470Y-105109155D01*
X41977637Y-105078873D01*
X41794667Y-105057506D01*
X41629644Y-105045855D01*
X41490652Y-105044725D01*
X41403342Y-105051977D01*
X41325334Y-105073888D01*
X41260708Y-105120300D01*
X41239300Y-105142350D01*
X41189376Y-105209874D01*
X41169879Y-105267296D01*
X36970907Y-105267296D01*
X36888435Y-105052779D01*
X36798763Y-104833415D01*
X36716907Y-104649310D01*
X36641373Y-104497629D01*
X36570668Y-104375535D01*
X36503299Y-104280191D01*
X36437772Y-104208763D01*
X36385259Y-104166651D01*
X36318054Y-104118650D01*
X36240846Y-104060169D01*
X36199497Y-104027407D01*
X36125156Y-103972177D01*
X36044971Y-103920017D01*
X36004500Y-103897082D01*
X35872866Y-103820206D01*
X35774952Y-103741791D01*
X35702549Y-103654467D01*
X35668125Y-103595097D01*
X35609581Y-103497488D01*
X35549074Y-103426478D01*
X36500823Y-103426478D01*
X36505749Y-103465954D01*
X36535516Y-103523021D01*
X36597713Y-103583692D01*
X36683598Y-103641734D01*
X36784427Y-103690911D01*
X36856146Y-103715841D01*
X36978999Y-103745787D01*
X37073948Y-103754974D01*
X37149815Y-103743702D01*
X37189887Y-103727223D01*
X37242047Y-103683487D01*
X37300490Y-103606463D01*
X37360596Y-103503768D01*
X37417746Y-103383018D01*
X37452906Y-103293531D01*
X37489086Y-103206344D01*
X37531275Y-103123732D01*
X37569633Y-103064567D01*
X37618796Y-102993316D01*
X37671904Y-102901435D01*
X37721154Y-102804003D01*
X37758745Y-102716100D01*
X37773298Y-102670950D01*
X37809794Y-102611017D01*
X37887777Y-102555141D01*
X38006568Y-102503615D01*
X38165488Y-102456734D01*
X38363858Y-102414792D01*
X38364584Y-102414661D01*
X38515006Y-102380280D01*
X38649363Y-102335596D01*
X38759263Y-102283992D01*
X38836314Y-102228851D01*
X38843481Y-102221598D01*
X38874032Y-102177171D01*
X38891807Y-102116446D01*
X38900322Y-102036780D01*
X38896541Y-101921209D01*
X38866120Y-101819158D01*
X38804520Y-101719597D01*
X38738330Y-101643280D01*
X38656888Y-101557667D01*
X38493096Y-101557667D01*
X38423152Y-101559533D01*
X38351243Y-101566006D01*
X38271296Y-101578393D01*
X38177237Y-101598003D01*
X38062991Y-101626147D01*
X37922487Y-101664132D01*
X37749649Y-101713269D01*
X37687250Y-101731349D01*
X37552805Y-101771064D01*
X37451682Y-101802997D01*
X37376316Y-101830323D01*
X37319136Y-101856214D01*
X37272574Y-101883843D01*
X37229064Y-101916383D01*
X37211742Y-101930708D01*
X37169958Y-101972690D01*
X37110521Y-102041286D01*
X37039834Y-102128278D01*
X36964300Y-102225445D01*
X36890325Y-102324570D01*
X36824311Y-102417432D01*
X36777553Y-102487980D01*
X36714075Y-102604046D01*
X36654404Y-102741137D01*
X36601044Y-102890239D01*
X36556500Y-103042338D01*
X36523279Y-103188421D01*
X36503885Y-103319472D01*
X36500823Y-103426478D01*
X35549074Y-103426478D01*
X35535927Y-103411049D01*
X35437122Y-103324788D01*
X35385605Y-103285894D01*
X35270695Y-103189256D01*
X35181725Y-103082183D01*
X35105734Y-102948980D01*
X35103359Y-102944084D01*
X35077425Y-102887242D01*
X35056607Y-102831875D01*
X35039146Y-102770107D01*
X35023281Y-102694063D01*
X35007254Y-102595867D01*
X34989306Y-102467644D01*
X34978398Y-102384706D01*
X34961236Y-102243216D01*
X34946364Y-102102789D01*
X34934736Y-101973904D01*
X34927308Y-101867038D01*
X34925000Y-101798470D01*
X34926549Y-101708814D01*
X34933993Y-101642302D01*
X34951526Y-101582141D01*
X34983346Y-101511539D01*
X35009546Y-101460065D01*
X35052228Y-101380734D01*
X35091809Y-101312635D01*
X35121516Y-101267251D01*
X35127887Y-101259341D01*
X35185482Y-101211736D01*
X35263990Y-101176552D01*
X35369819Y-101151883D01*
X35509382Y-101135821D01*
X35553804Y-101132706D01*
X35660256Y-101124571D01*
X35747476Y-101112589D01*
X35823229Y-101093053D01*
X35895282Y-101062259D01*
X35971400Y-101016500D01*
X36059351Y-100952071D01*
X36166899Y-100865266D01*
X36237334Y-100806546D01*
X36358637Y-100705849D01*
X36457021Y-100628976D01*
X36541688Y-100572176D01*
X36621839Y-100531699D01*
X36706676Y-100503795D01*
X36805401Y-100484713D01*
X36927216Y-100470703D01*
X37081322Y-100458014D01*
X37095070Y-100456963D01*
X37247956Y-100443811D01*
X37367738Y-100428323D01*
X37463629Y-100406947D01*
X37544839Y-100376131D01*
X37620582Y-100332323D01*
X37700070Y-100271971D01*
X37792513Y-100191523D01*
X37799252Y-100185458D01*
X37913373Y-100083514D01*
X38009681Y-100000889D01*
X38095590Y-99933121D01*
X38178511Y-99875744D01*
X38265859Y-99824296D01*
X38365046Y-99774313D01*
X38483484Y-99721332D01*
X38628588Y-99660888D01*
X38756167Y-99609263D01*
X38894634Y-99551815D01*
X39054624Y-99482680D01*
X39219783Y-99409085D01*
X39373759Y-99338253D01*
X39432188Y-99310575D01*
X39604276Y-99229963D01*
X41327528Y-99229963D01*
X41339411Y-99243216D01*
X41381119Y-99256563D01*
X41396894Y-99259678D01*
X41500703Y-99279866D01*
X41622509Y-99306823D01*
X41753346Y-99338211D01*
X41884246Y-99371692D01*
X42006241Y-99404927D01*
X42110364Y-99435579D01*
X42187648Y-99461309D01*
X42218393Y-99473878D01*
X42259447Y-99491825D01*
X42302093Y-99505687D01*
X42353378Y-99516412D01*
X42420350Y-99524950D01*
X42510056Y-99532248D01*
X42629545Y-99539256D01*
X42747559Y-99545113D01*
X42882059Y-99552524D01*
X43006592Y-99561257D01*
X43113246Y-99570609D01*
X43194108Y-99579880D01*
X43241262Y-99588368D01*
X43243500Y-99589043D01*
X43298243Y-99601757D01*
X43380646Y-99615193D01*
X43476142Y-99627099D01*
X43513802Y-99630842D01*
X43615280Y-99642051D01*
X43688292Y-99656268D01*
X43746697Y-99677415D01*
X43804352Y-99709414D01*
X43814818Y-99716050D01*
X43884778Y-99756165D01*
X43936911Y-99772345D01*
X43982411Y-99769506D01*
X44041163Y-99767990D01*
X44125003Y-99780489D01*
X44225138Y-99804053D01*
X44332775Y-99835734D01*
X44439122Y-99872585D01*
X44535385Y-99911657D01*
X44612773Y-99950002D01*
X44662491Y-99984672D01*
X44675122Y-100001769D01*
X44697566Y-100023443D01*
X44747426Y-100057485D01*
X44814003Y-100097837D01*
X44886599Y-100138443D01*
X44954517Y-100173247D01*
X45007058Y-100196193D01*
X45028712Y-100201942D01*
X45027022Y-100185193D01*
X45008255Y-100139182D01*
X44975827Y-100071693D01*
X44947871Y-100017792D01*
X44899911Y-99932636D01*
X44852896Y-99857502D01*
X44813923Y-99803384D01*
X44798887Y-99786922D01*
X44725475Y-99737761D01*
X44613592Y-99686873D01*
X44467014Y-99635186D01*
X44289519Y-99583623D01*
X44084886Y-99533111D01*
X43856893Y-99484575D01*
X43609317Y-99438940D01*
X43345937Y-99397132D01*
X43070530Y-99360076D01*
X43042417Y-99356661D01*
X42902273Y-99338095D01*
X42753425Y-99315507D01*
X42611377Y-99291423D01*
X42491635Y-99268369D01*
X42464408Y-99262485D01*
X42234798Y-99213676D01*
X42037964Y-99177010D01*
X41876120Y-99152848D01*
X41751480Y-99141550D01*
X41717849Y-99140703D01*
X41647364Y-99145352D01*
X41563604Y-99157817D01*
X41478099Y-99175460D01*
X41402375Y-99195645D01*
X41347962Y-99215737D01*
X41327528Y-99229963D01*
X39604276Y-99229963D01*
X39606343Y-99228995D01*
X39750847Y-99165932D01*
X39872817Y-99118924D01*
X39979372Y-99085505D01*
X40077628Y-99063213D01*
X40174703Y-99049584D01*
X40190689Y-99048035D01*
X40273399Y-99036431D01*
X40380028Y-99015833D01*
X40494012Y-98989632D01*
X40559239Y-98972578D01*
X40665116Y-98945054D01*
X40769023Y-98920946D01*
X40856428Y-98903489D01*
X40897906Y-98897194D01*
X41022607Y-98863432D01*
X41151339Y-98792476D01*
X41277587Y-98688127D01*
X41306750Y-98658582D01*
X41373857Y-98595841D01*
X41448235Y-98543627D01*
X41534352Y-98500934D01*
X41636673Y-98466758D01*
X41759665Y-98440091D01*
X41907794Y-98419930D01*
X42085525Y-98405268D01*
X42297326Y-98395100D01*
X42502667Y-98389343D01*
X42690295Y-98386002D01*
X42843079Y-98385635D01*
X42968460Y-98389276D01*
G37*
X42968460Y-98389276D02*
X43073882Y-98397957D01*
X43166789Y-98412712D01*
X43254624Y-98434572D01*
X43344830Y-98464572D01*
X43444850Y-98503744D01*
X43503591Y-98528242D01*
X43592879Y-98565177D01*
X43672736Y-98596853D01*
X43731696Y-98618788D01*
X43751500Y-98625198D01*
X43875122Y-98661656D01*
X44010428Y-98705300D01*
X44147243Y-98752493D01*
X44275394Y-98799596D01*
X44384704Y-98842970D01*
X44465001Y-98878978D01*
X44473974Y-98883550D01*
X44563450Y-98935476D01*
X44655385Y-98997081D01*
X44719816Y-99046811D01*
X44810917Y-99111888D01*
X44925485Y-99169206D01*
X45023926Y-99207263D01*
X45183842Y-99267271D01*
X45304530Y-99320224D01*
X45388288Y-99367298D01*
X45437414Y-99409670D01*
X45447128Y-99424120D01*
X45477954Y-99500207D01*
X45504996Y-99598810D01*
X45523585Y-99700121D01*
X45529249Y-99772474D01*
X45523581Y-99831423D01*
X45501842Y-99886055D01*
X45457490Y-99951351D01*
X45443094Y-99969844D01*
X45378250Y-100060809D01*
X45329219Y-100147342D01*
X45301288Y-100219315D01*
X45296835Y-100249945D01*
X45312669Y-100274277D01*
X45354871Y-100316353D01*
X45415737Y-100368796D01*
X45446762Y-100393500D01*
X45563664Y-100491434D01*
X45685668Y-100605851D01*
X45804055Y-100727578D01*
X45910106Y-100847440D01*
X45995103Y-100956265D01*
X46027621Y-101004696D01*
X46079500Y-101080301D01*
X46149496Y-101171926D01*
X46226334Y-101265128D01*
X46267184Y-101311561D01*
X46379480Y-101443611D01*
X46484997Y-101582605D01*
X46577354Y-101719211D01*
X46650169Y-101844097D01*
X46690724Y-101930967D01*
X46712888Y-101998592D01*
X46738202Y-102093329D01*
X46762939Y-102200517D01*
X46776887Y-102269633D01*
X46801396Y-102384270D01*
X46834978Y-102520889D01*
X46872990Y-102661422D01*
X46906660Y-102774750D01*
X46950173Y-102927733D01*
X46983465Y-103080216D01*
X47006848Y-103238225D01*
X47020636Y-103407788D01*
X47025141Y-103594933D01*
X47020676Y-103805687D01*
X47007554Y-104046077D01*
X46986625Y-104315873D01*
X46974422Y-104442537D01*
X46961327Y-104532302D01*
X46944720Y-104590567D01*
X46921981Y-104622732D01*
X46890488Y-104634195D01*
X46847620Y-104630356D01*
X46835242Y-104627734D01*
X46791834Y-104623711D01*
X46733888Y-104630089D01*
X46653693Y-104648344D01*
X46543538Y-104679953D01*
X46511865Y-104689665D01*
X46375138Y-104733339D01*
X46272827Y-104769883D01*
X46198299Y-104802512D01*
X46144921Y-104834445D01*
X46106061Y-104868897D01*
X46082910Y-104897680D01*
X46033966Y-104986217D01*
X46021738Y-105058285D01*
X46043050Y-105111583D01*
X46094724Y-105143808D01*
X46173583Y-105152658D01*
X46276451Y-105135829D01*
X46368402Y-105104585D01*
X46466758Y-105069356D01*
X46590926Y-105031726D01*
X46724934Y-104996103D01*
X46852813Y-104966896D01*
X46900847Y-104957604D01*
X46952388Y-104953905D01*
X46977541Y-104970158D01*
X46982629Y-104981743D01*
X46996091Y-105014919D01*
X47023394Y-105077166D01*
X47060417Y-105159226D01*
X47098240Y-105241499D01*
X47139141Y-105331674D01*
X47172405Y-105408732D01*
X47194428Y-105464072D01*
X47201667Y-105488425D01*
X47216290Y-105509867D01*
X47257012Y-105555414D01*
X47319110Y-105620152D01*
X47397862Y-105699167D01*
X47488544Y-105787544D01*
X47495795Y-105794509D01*
X47603304Y-105898689D01*
X47687325Y-105983694D01*
X47755591Y-106058942D01*
X47815832Y-106133853D01*
X47875780Y-106217842D01*
X47943166Y-106320329D01*
X47996831Y-106404834D01*
X48137298Y-106630289D01*
X48268538Y-106846299D01*
X48387701Y-107047949D01*
X48491938Y-107230328D01*
X48578401Y-107388523D01*
X48644241Y-107517623D01*
X48653615Y-107537250D01*
X48684727Y-107610049D01*
X48722251Y-107708447D01*
X48763715Y-107824751D01*
X48806645Y-107951269D01*
X48848571Y-108080309D01*
X48887018Y-108204179D01*
X48919515Y-108315186D01*
X48943589Y-108405639D01*
X48956769Y-108467846D01*
X48958500Y-108485797D01*
X48946808Y-108533318D01*
X48915755Y-108603748D01*
X48871374Y-108686125D01*
X48819698Y-108769486D01*
X48766760Y-108842869D01*
X48752378Y-108860316D01*
X48690615Y-108920352D01*
X48620032Y-108972154D01*
X48590771Y-108988303D01*
X48536131Y-109019860D01*
X48461426Y-109070600D01*
X48378697Y-109132115D01*
X48334084Y-109167539D01*
X48241458Y-109238857D01*
X48154211Y-109294975D01*
X48062141Y-109340490D01*
X47955046Y-109379995D01*
X47822727Y-109418084D01*
X47721151Y-109443583D01*
X47418108Y-109508582D01*
X47086931Y-109563395D01*
X46724983Y-109608298D01*
X46329622Y-109643571D01*
X45898209Y-109669492D01*
X45428106Y-109686337D01*
X45413084Y-109686713D01*
X45217795Y-109691902D01*
X45020978Y-109697810D01*
X44830284Y-109704159D01*
X44653366Y-109710670D01*
X44497873Y-109717066D01*
X44371458Y-109723070D01*
X44301834Y-109727051D01*
X44123435Y-109736204D01*
X43930648Y-109742153D01*
X43733158Y-109744907D01*
X43540652Y-109744476D01*
X43362816Y-109740868D01*
X43209336Y-109734094D01*
X43105917Y-109725921D01*
X42967162Y-109708228D01*
X42827913Y-109683143D01*
X42678649Y-109648442D01*
X42509853Y-109601901D01*
X42312004Y-109541296D01*
X42301584Y-109537985D01*
X42176971Y-109499251D01*
X42051917Y-109461960D01*
X41938547Y-109429628D01*
X41848987Y-109405766D01*
X41825334Y-109400024D01*
X41666290Y-109352449D01*
X41508962Y-109282469D01*
X41343120Y-109185140D01*
X41250611Y-109122427D01*
X41161690Y-109064360D01*
X41087753Y-109025012D01*
X41036813Y-109008570D01*
X41032256Y-109008334D01*
X40986666Y-109013157D01*
X40913026Y-109026043D01*
X40824311Y-109044614D01*
X40786110Y-109053434D01*
X40596346Y-109098534D01*
X40412947Y-108974059D01*
X40312949Y-108901978D01*
X40205408Y-108817765D01*
X40108756Y-108736043D01*
X40080232Y-108710101D01*
X40004181Y-108642399D01*
X39900998Y-108555411D01*
X39777748Y-108454807D01*
X39641493Y-108346256D01*
X39499300Y-108235429D01*
X39433956Y-108185664D01*
X46063308Y-108185664D01*
X46087390Y-108297660D01*
X46139223Y-108437338D01*
X46174963Y-108516833D01*
X46220574Y-108611372D01*
X46256323Y-108676317D01*
X46289217Y-108720903D01*
X46326261Y-108754362D01*
X46374462Y-108785930D01*
X46382983Y-108791011D01*
X46454110Y-108829409D01*
X46550250Y-108876050D01*
X46663632Y-108927700D01*
X46786487Y-108981129D01*
X46911043Y-109033102D01*
X47029531Y-109080387D01*
X47134179Y-109119753D01*
X47217218Y-109147965D01*
X47270877Y-109161793D01*
X47275750Y-109162411D01*
X47334942Y-109166403D01*
X47421626Y-109170194D01*
X47520962Y-109173184D01*
X47565783Y-109174109D01*
X47652172Y-109174699D01*
X47721302Y-109171544D01*
X47784864Y-109162392D01*
X47854547Y-109144994D01*
X47942041Y-109117100D01*
X48042033Y-109082442D01*
X48216784Y-109018773D01*
X48354988Y-108962920D01*
X48461174Y-108912458D01*
X48539872Y-108864966D01*
X48595610Y-108818018D01*
X48632917Y-108769190D01*
X48635360Y-108764917D01*
X48668328Y-108673171D01*
X48681662Y-108560090D01*
X48677143Y-108435859D01*
X48656553Y-108310661D01*
X48621672Y-108194681D01*
X48574281Y-108098104D01*
X48516161Y-108031113D01*
X48505742Y-108023660D01*
X48392959Y-107971143D01*
X48279593Y-107960929D01*
X48165781Y-107992996D01*
X48051659Y-108067321D01*
X48006000Y-108108833D01*
X47880760Y-108210415D01*
X47739633Y-108288769D01*
X47596113Y-108336874D01*
X47552923Y-108344591D01*
X47481387Y-108343892D01*
X47378958Y-108328689D01*
X47253590Y-108301289D01*
X47113241Y-108264003D01*
X46965867Y-108219139D01*
X46819423Y-108169008D01*
X46681867Y-108115918D01*
X46561155Y-108062179D01*
X46534917Y-108049106D01*
X46443957Y-108008505D01*
X46362039Y-107988457D01*
X46273799Y-107982958D01*
X46197298Y-107984304D01*
X46149692Y-107992653D01*
X46117659Y-108011897D01*
X46096770Y-108034667D01*
X46066571Y-108098838D01*
X46063308Y-108185664D01*
X39433956Y-108185664D01*
X39358231Y-108127993D01*
X39309417Y-108091488D01*
X39212401Y-108035373D01*
X39106980Y-108009131D01*
X38982101Y-108010584D01*
X38932314Y-108017145D01*
X38819860Y-108026646D01*
X38735499Y-108012681D01*
X38670153Y-107972047D01*
X38617547Y-107906026D01*
X38580808Y-107854700D01*
X38536160Y-107808333D01*
X38477261Y-107762487D01*
X38397766Y-107712725D01*
X38291331Y-107654607D01*
X38169690Y-107592699D01*
X38072924Y-107542332D01*
X37989353Y-107494942D01*
X37926736Y-107455217D01*
X37892832Y-107427839D01*
X37889906Y-107423772D01*
X37872773Y-107377241D01*
X37857325Y-107312430D01*
X37854623Y-107296927D01*
X37834367Y-107214487D01*
X37800228Y-107164842D01*
X37743255Y-107138742D01*
X37693514Y-107130437D01*
X37628233Y-107118279D01*
X37590779Y-107095518D01*
X37570879Y-107063794D01*
X37560179Y-107024897D01*
X37546593Y-106952013D01*
X37531395Y-106853283D01*
X37515860Y-106736848D01*
X37504182Y-106637667D01*
X37477417Y-106419989D01*
X37449131Y-106240814D01*
X37418131Y-106096313D01*
X37383224Y-105982658D01*
X37343218Y-105896020D01*
X37296921Y-105832571D01*
X37243138Y-105788480D01*
X37238850Y-105785894D01*
X37206729Y-105765146D01*
X37179448Y-105741049D01*
X37153996Y-105707906D01*
X37127362Y-105660023D01*
X37096536Y-105591706D01*
X37058508Y-105497260D01*
X37010267Y-105370990D01*
X36987416Y-105310239D01*
X36970907Y-105267296D01*
X41169879Y-105267296D01*
X41182555Y-105308217D01*
X41191960Y-105315756D01*
X41222466Y-105319205D01*
X41282801Y-105315670D01*
X41361183Y-105305949D01*
X41380058Y-105302998D01*
X41545362Y-105276153D01*
X41891723Y-105385656D01*
X42112236Y-105452236D01*
X42307689Y-105503524D01*
X42491400Y-105542086D01*
X42676692Y-105570491D01*
X42876883Y-105591303D01*
X43010667Y-105601279D01*
X43189818Y-105615341D01*
X43334578Y-105632298D01*
X43452872Y-105653763D01*
X43552622Y-105681349D01*
X43641753Y-105716669D01*
X43687292Y-105739022D01*
X43799944Y-105781590D01*
X43906826Y-105785980D01*
X43981175Y-105767763D01*
X44031632Y-105734531D01*
X44049018Y-105686398D01*
X44037092Y-105629339D01*
X43999611Y-105569326D01*
X43940334Y-105512333D01*
X43863019Y-105464333D01*
X43771425Y-105431301D01*
X43769151Y-105430758D01*
X43694135Y-105408601D01*
X43628397Y-105381739D01*
X43603334Y-105367565D01*
X43540152Y-105325637D01*
X43484492Y-105294951D01*
X43427585Y-105273416D01*
X43360664Y-105258942D01*
X43274962Y-105249438D01*
X43161712Y-105242814D01*
X43063584Y-105238853D01*
X42915451Y-105231848D01*
X42789026Y-105221709D01*
X42669209Y-105206463D01*
X42540901Y-105184137D01*
X42389003Y-105152756D01*
X42365084Y-105147547D01*
X42170470Y-105109155D01*
X41977637Y-105078873D01*
X41794667Y-105057506D01*
X41629644Y-105045855D01*
X41490652Y-105044725D01*
X41403342Y-105051977D01*
X41325334Y-105073888D01*
X41260708Y-105120300D01*
X41239300Y-105142350D01*
X41189376Y-105209874D01*
X41169879Y-105267296D01*
X36970907Y-105267296D01*
X36888435Y-105052779D01*
X36798763Y-104833415D01*
X36716907Y-104649310D01*
X36641373Y-104497629D01*
X36570668Y-104375535D01*
X36503299Y-104280191D01*
X36437772Y-104208763D01*
X36385259Y-104166651D01*
X36318054Y-104118650D01*
X36240846Y-104060169D01*
X36199497Y-104027407D01*
X36125156Y-103972177D01*
X36044971Y-103920017D01*
X36004500Y-103897082D01*
X35872866Y-103820206D01*
X35774952Y-103741791D01*
X35702549Y-103654467D01*
X35668125Y-103595097D01*
X35609581Y-103497488D01*
X35549074Y-103426478D01*
X36500823Y-103426478D01*
X36505749Y-103465954D01*
X36535516Y-103523021D01*
X36597713Y-103583692D01*
X36683598Y-103641734D01*
X36784427Y-103690911D01*
X36856146Y-103715841D01*
X36978999Y-103745787D01*
X37073948Y-103754974D01*
X37149815Y-103743702D01*
X37189887Y-103727223D01*
X37242047Y-103683487D01*
X37300490Y-103606463D01*
X37360596Y-103503768D01*
X37417746Y-103383018D01*
X37452906Y-103293531D01*
X37489086Y-103206344D01*
X37531275Y-103123732D01*
X37569633Y-103064567D01*
X37618796Y-102993316D01*
X37671904Y-102901435D01*
X37721154Y-102804003D01*
X37758745Y-102716100D01*
X37773298Y-102670950D01*
X37809794Y-102611017D01*
X37887777Y-102555141D01*
X38006568Y-102503615D01*
X38165488Y-102456734D01*
X38363858Y-102414792D01*
X38364584Y-102414661D01*
X38515006Y-102380280D01*
X38649363Y-102335596D01*
X38759263Y-102283992D01*
X38836314Y-102228851D01*
X38843481Y-102221598D01*
X38874032Y-102177171D01*
X38891807Y-102116446D01*
X38900322Y-102036780D01*
X38896541Y-101921209D01*
X38866120Y-101819158D01*
X38804520Y-101719597D01*
X38738330Y-101643280D01*
X38656888Y-101557667D01*
X38493096Y-101557667D01*
X38423152Y-101559533D01*
X38351243Y-101566006D01*
X38271296Y-101578393D01*
X38177237Y-101598003D01*
X38062991Y-101626147D01*
X37922487Y-101664132D01*
X37749649Y-101713269D01*
X37687250Y-101731349D01*
X37552805Y-101771064D01*
X37451682Y-101802997D01*
X37376316Y-101830323D01*
X37319136Y-101856214D01*
X37272574Y-101883843D01*
X37229064Y-101916383D01*
X37211742Y-101930708D01*
X37169958Y-101972690D01*
X37110521Y-102041286D01*
X37039834Y-102128278D01*
X36964300Y-102225445D01*
X36890325Y-102324570D01*
X36824311Y-102417432D01*
X36777553Y-102487980D01*
X36714075Y-102604046D01*
X36654404Y-102741137D01*
X36601044Y-102890239D01*
X36556500Y-103042338D01*
X36523279Y-103188421D01*
X36503885Y-103319472D01*
X36500823Y-103426478D01*
X35549074Y-103426478D01*
X35535927Y-103411049D01*
X35437122Y-103324788D01*
X35385605Y-103285894D01*
X35270695Y-103189256D01*
X35181725Y-103082183D01*
X35105734Y-102948980D01*
X35103359Y-102944084D01*
X35077425Y-102887242D01*
X35056607Y-102831875D01*
X35039146Y-102770107D01*
X35023281Y-102694063D01*
X35007254Y-102595867D01*
X34989306Y-102467644D01*
X34978398Y-102384706D01*
X34961236Y-102243216D01*
X34946364Y-102102789D01*
X34934736Y-101973904D01*
X34927308Y-101867038D01*
X34925000Y-101798470D01*
X34926549Y-101708814D01*
X34933993Y-101642302D01*
X34951526Y-101582141D01*
X34983346Y-101511539D01*
X35009546Y-101460065D01*
X35052228Y-101380734D01*
X35091809Y-101312635D01*
X35121516Y-101267251D01*
X35127887Y-101259341D01*
X35185482Y-101211736D01*
X35263990Y-101176552D01*
X35369819Y-101151883D01*
X35509382Y-101135821D01*
X35553804Y-101132706D01*
X35660256Y-101124571D01*
X35747476Y-101112589D01*
X35823229Y-101093053D01*
X35895282Y-101062259D01*
X35971400Y-101016500D01*
X36059351Y-100952071D01*
X36166899Y-100865266D01*
X36237334Y-100806546D01*
X36358637Y-100705849D01*
X36457021Y-100628976D01*
X36541688Y-100572176D01*
X36621839Y-100531699D01*
X36706676Y-100503795D01*
X36805401Y-100484713D01*
X36927216Y-100470703D01*
X37081322Y-100458014D01*
X37095070Y-100456963D01*
X37247956Y-100443811D01*
X37367738Y-100428323D01*
X37463629Y-100406947D01*
X37544839Y-100376131D01*
X37620582Y-100332323D01*
X37700070Y-100271971D01*
X37792513Y-100191523D01*
X37799252Y-100185458D01*
X37913373Y-100083514D01*
X38009681Y-100000889D01*
X38095590Y-99933121D01*
X38178511Y-99875744D01*
X38265859Y-99824296D01*
X38365046Y-99774313D01*
X38483484Y-99721332D01*
X38628588Y-99660888D01*
X38756167Y-99609263D01*
X38894634Y-99551815D01*
X39054624Y-99482680D01*
X39219783Y-99409085D01*
X39373759Y-99338253D01*
X39432188Y-99310575D01*
X39604276Y-99229963D01*
X41327528Y-99229963D01*
X41339411Y-99243216D01*
X41381119Y-99256563D01*
X41396894Y-99259678D01*
X41500703Y-99279866D01*
X41622509Y-99306823D01*
X41753346Y-99338211D01*
X41884246Y-99371692D01*
X42006241Y-99404927D01*
X42110364Y-99435579D01*
X42187648Y-99461309D01*
X42218393Y-99473878D01*
X42259447Y-99491825D01*
X42302093Y-99505687D01*
X42353378Y-99516412D01*
X42420350Y-99524950D01*
X42510056Y-99532248D01*
X42629545Y-99539256D01*
X42747559Y-99545113D01*
X42882059Y-99552524D01*
X43006592Y-99561257D01*
X43113246Y-99570609D01*
X43194108Y-99579880D01*
X43241262Y-99588368D01*
X43243500Y-99589043D01*
X43298243Y-99601757D01*
X43380646Y-99615193D01*
X43476142Y-99627099D01*
X43513802Y-99630842D01*
X43615280Y-99642051D01*
X43688292Y-99656268D01*
X43746697Y-99677415D01*
X43804352Y-99709414D01*
X43814818Y-99716050D01*
X43884778Y-99756165D01*
X43936911Y-99772345D01*
X43982411Y-99769506D01*
X44041163Y-99767990D01*
X44125003Y-99780489D01*
X44225138Y-99804053D01*
X44332775Y-99835734D01*
X44439122Y-99872585D01*
X44535385Y-99911657D01*
X44612773Y-99950002D01*
X44662491Y-99984672D01*
X44675122Y-100001769D01*
X44697566Y-100023443D01*
X44747426Y-100057485D01*
X44814003Y-100097837D01*
X44886599Y-100138443D01*
X44954517Y-100173247D01*
X45007058Y-100196193D01*
X45028712Y-100201942D01*
X45027022Y-100185193D01*
X45008255Y-100139182D01*
X44975827Y-100071693D01*
X44947871Y-100017792D01*
X44899911Y-99932636D01*
X44852896Y-99857502D01*
X44813923Y-99803384D01*
X44798887Y-99786922D01*
X44725475Y-99737761D01*
X44613592Y-99686873D01*
X44467014Y-99635186D01*
X44289519Y-99583623D01*
X44084886Y-99533111D01*
X43856893Y-99484575D01*
X43609317Y-99438940D01*
X43345937Y-99397132D01*
X43070530Y-99360076D01*
X43042417Y-99356661D01*
X42902273Y-99338095D01*
X42753425Y-99315507D01*
X42611377Y-99291423D01*
X42491635Y-99268369D01*
X42464408Y-99262485D01*
X42234798Y-99213676D01*
X42037964Y-99177010D01*
X41876120Y-99152848D01*
X41751480Y-99141550D01*
X41717849Y-99140703D01*
X41647364Y-99145352D01*
X41563604Y-99157817D01*
X41478099Y-99175460D01*
X41402375Y-99195645D01*
X41347962Y-99215737D01*
X41327528Y-99229963D01*
X39604276Y-99229963D01*
X39606343Y-99228995D01*
X39750847Y-99165932D01*
X39872817Y-99118924D01*
X39979372Y-99085505D01*
X40077628Y-99063213D01*
X40174703Y-99049584D01*
X40190689Y-99048035D01*
X40273399Y-99036431D01*
X40380028Y-99015833D01*
X40494012Y-98989632D01*
X40559239Y-98972578D01*
X40665116Y-98945054D01*
X40769023Y-98920946D01*
X40856428Y-98903489D01*
X40897906Y-98897194D01*
X41022607Y-98863432D01*
X41151339Y-98792476D01*
X41277587Y-98688127D01*
X41306750Y-98658582D01*
X41373857Y-98595841D01*
X41448235Y-98543627D01*
X41534352Y-98500934D01*
X41636673Y-98466758D01*
X41759665Y-98440091D01*
X41907794Y-98419930D01*
X42085525Y-98405268D01*
X42297326Y-98395100D01*
X42502667Y-98389343D01*
X42690295Y-98386002D01*
X42843079Y-98385635D01*
X42968460Y-98389276D01*
D12*
%TO.C,FB1*%
X124467252Y-22023000D02*
X123944748Y-22023000D01*
X124467252Y-23443000D02*
X123944748Y-23443000D01*
%TO.C,Y1*%
X201966000Y-107856000D02*
X201966000Y-102456000D01*
X206466000Y-107856000D02*
X201966000Y-107856000D01*
D13*
%TO.C,U2*%
X118857000Y-36491250D02*
X118857000Y-39391250D01*
X118857000Y-36491250D02*
X120157000Y-36491250D01*
X120157000Y-36491250D02*
X120157000Y-39391250D01*
X120157000Y-39391250D02*
X118857000Y-39391250D01*
%TO.C,U1*%
X188059000Y-99854000D02*
X188059000Y-98579000D01*
X187484000Y-110204000D02*
X187484000Y-109529000D01*
X197834000Y-110204000D02*
X197834000Y-109529000D01*
X197834000Y-99854000D02*
X197834000Y-100529000D01*
X187484000Y-99854000D02*
X187484000Y-100529000D01*
X197834000Y-99854000D02*
X197159000Y-99854000D01*
X197834000Y-110204000D02*
X197159000Y-110204000D01*
X187484000Y-110204000D02*
X188159000Y-110204000D01*
X187484000Y-99854000D02*
X188059000Y-99854000D01*
D12*
%TO.C,SW1*%
X204417000Y-93575000D02*
X204417000Y-95655000D01*
X208587000Y-97335000D02*
X209077000Y-96845000D01*
X209857000Y-93575000D02*
X209857000Y-95655000D01*
X205687000Y-97335000D02*
X205197000Y-96845000D01*
X205687000Y-97335000D02*
X208587000Y-97335000D01*
X205687000Y-91895000D02*
X205197000Y-92385000D01*
X205687000Y-91895000D02*
X208587000Y-91895000D01*
X208587000Y-91895000D02*
X209077000Y-92385000D01*
%TO.C,R6*%
X190972000Y-95985064D02*
X190972000Y-95530936D01*
X192442000Y-95985064D02*
X192442000Y-95530936D01*
%TO.C,R5*%
X188876000Y-95985064D02*
X188876000Y-95530936D01*
X190346000Y-95985064D02*
X190346000Y-95530936D01*
%TO.C,R4*%
X114527064Y-33396250D02*
X114072936Y-33396250D01*
X114527064Y-34866250D02*
X114072936Y-34866250D01*
%TO.C,R3*%
X122327936Y-34866250D02*
X122782064Y-34866250D01*
X122327936Y-33396250D02*
X122782064Y-33396250D01*
%TO.C,R2*%
X180620936Y-110263000D02*
X181075064Y-110263000D01*
X180620936Y-111733000D02*
X181075064Y-111733000D01*
%TO.C,R1*%
X200125064Y-98017000D02*
X199670936Y-98017000D01*
X200125064Y-96547000D02*
X199670936Y-96547000D01*
D14*
%TO.C,J1*%
X209331250Y-111006250D02*
X206831250Y-111006250D01*
X209331250Y-116006250D02*
X209331250Y-111006250D01*
X206831250Y-116006250D02*
X209331250Y-116006250D01*
X206831250Y-111006250D02*
X206831250Y-116006250D01*
D12*
%TO.C,F1*%
X115210000Y-41083314D02*
X115210000Y-39879186D01*
X113390000Y-41083314D02*
X113390000Y-39879186D01*
%TO.C,D46*%
X211343750Y-91150000D02*
X209343750Y-91150000D01*
X209343750Y-91150000D02*
X209343750Y-87250000D01*
X211343750Y-91150000D02*
X211343750Y-87250000D01*
%TO.C,D45*%
X211343750Y-72100000D02*
X209343750Y-72100000D01*
X209343750Y-72100000D02*
X209343750Y-68200000D01*
X211343750Y-72100000D02*
X211343750Y-68200000D01*
%TO.C,D44*%
X211343750Y-53050000D02*
X209343750Y-53050000D01*
X209343750Y-53050000D02*
X209343750Y-49150000D01*
X211343750Y-53050000D02*
X211343750Y-49150000D01*
%TO.C,D43*%
X211343750Y-34000000D02*
X209343750Y-34000000D01*
X209343750Y-34000000D02*
X209343750Y-30100000D01*
X211343750Y-34000000D02*
X211343750Y-30100000D01*
%TO.C,D42*%
X192293750Y-91150000D02*
X190293750Y-91150000D01*
X190293750Y-91150000D02*
X190293750Y-87250000D01*
X192293750Y-91150000D02*
X192293750Y-87250000D01*
%TO.C,D41*%
X192293750Y-72100000D02*
X190293750Y-72100000D01*
X190293750Y-72100000D02*
X190293750Y-68200000D01*
X192293750Y-72100000D02*
X192293750Y-68200000D01*
%TO.C,D40*%
X192293750Y-53050000D02*
X190293750Y-53050000D01*
X190293750Y-53050000D02*
X190293750Y-49150000D01*
X192293750Y-53050000D02*
X192293750Y-49150000D01*
%TO.C,D39*%
X192293750Y-34000000D02*
X190293750Y-34000000D01*
X190293750Y-34000000D02*
X190293750Y-30100000D01*
X192293750Y-34000000D02*
X192293750Y-30100000D01*
%TO.C,D38*%
X182768750Y-108612500D02*
X180768750Y-108612500D01*
X180768750Y-108612500D02*
X180768750Y-104712500D01*
X182768750Y-108612500D02*
X182768750Y-104712500D01*
%TO.C,D37*%
X173243750Y-91150000D02*
X171243750Y-91150000D01*
X171243750Y-91150000D02*
X171243750Y-87250000D01*
X173243750Y-91150000D02*
X173243750Y-87250000D01*
%TO.C,D36*%
X173243750Y-72100000D02*
X171243750Y-72100000D01*
X171243750Y-72100000D02*
X171243750Y-68200000D01*
X173243750Y-72100000D02*
X173243750Y-68200000D01*
%TO.C,D35*%
X173243750Y-53050000D02*
X171243750Y-53050000D01*
X171243750Y-53050000D02*
X171243750Y-49150000D01*
X173243750Y-53050000D02*
X173243750Y-49150000D01*
%TO.C,D34*%
X173243750Y-34000000D02*
X171243750Y-34000000D01*
X171243750Y-34000000D02*
X171243750Y-30100000D01*
X173243750Y-34000000D02*
X173243750Y-30100000D01*
%TO.C,D33*%
X163718750Y-110200000D02*
X161718750Y-110200000D01*
X161718750Y-110200000D02*
X161718750Y-106300000D01*
X163718750Y-110200000D02*
X163718750Y-106300000D01*
%TO.C,D32*%
X154193750Y-91150000D02*
X152193750Y-91150000D01*
X152193750Y-91150000D02*
X152193750Y-87250000D01*
X154193750Y-91150000D02*
X154193750Y-87250000D01*
%TO.C,D31*%
X154193750Y-72100000D02*
X152193750Y-72100000D01*
X152193750Y-72100000D02*
X152193750Y-68200000D01*
X154193750Y-72100000D02*
X154193750Y-68200000D01*
%TO.C,D30*%
X154193750Y-53050000D02*
X152193750Y-53050000D01*
X152193750Y-53050000D02*
X152193750Y-49150000D01*
X154193750Y-53050000D02*
X154193750Y-49150000D01*
%TO.C,D29*%
X154193750Y-34000000D02*
X152193750Y-34000000D01*
X152193750Y-34000000D02*
X152193750Y-30100000D01*
X154193750Y-34000000D02*
X154193750Y-30100000D01*
%TO.C,D28*%
X139906250Y-110200000D02*
X137906250Y-110200000D01*
X137906250Y-110200000D02*
X137906250Y-106300000D01*
X139906250Y-110200000D02*
X139906250Y-106300000D01*
%TO.C,D27*%
X135143750Y-91150000D02*
X133143750Y-91150000D01*
X133143750Y-91150000D02*
X133143750Y-87250000D01*
X135143750Y-91150000D02*
X135143750Y-87250000D01*
%TO.C,D26*%
X135143750Y-72100000D02*
X133143750Y-72100000D01*
X133143750Y-72100000D02*
X133143750Y-68200000D01*
X135143750Y-72100000D02*
X135143750Y-68200000D01*
%TO.C,D25*%
X135143750Y-53112500D02*
X133143750Y-53112500D01*
X133143750Y-53112500D02*
X133143750Y-49212500D01*
X135143750Y-53112500D02*
X135143750Y-49212500D01*
%TO.C,D24*%
X135143750Y-34000000D02*
X133143750Y-34000000D01*
X133143750Y-34000000D02*
X133143750Y-30100000D01*
X135143750Y-34000000D02*
X135143750Y-30100000D01*
%TO.C,D23*%
X111331250Y-110200000D02*
X109331250Y-110200000D01*
X109331250Y-110200000D02*
X109331250Y-106300000D01*
X111331250Y-110200000D02*
X111331250Y-106300000D01*
%TO.C,D22*%
X116093750Y-91150000D02*
X114093750Y-91150000D01*
X114093750Y-91150000D02*
X114093750Y-87250000D01*
X116093750Y-91150000D02*
X116093750Y-87250000D01*
%TO.C,D21*%
X116093750Y-72100000D02*
X114093750Y-72100000D01*
X114093750Y-72100000D02*
X114093750Y-68200000D01*
X116093750Y-72100000D02*
X116093750Y-68200000D01*
%TO.C,D20*%
X116093750Y-53050000D02*
X114093750Y-53050000D01*
X114093750Y-53050000D02*
X114093750Y-49150000D01*
X116093750Y-53050000D02*
X116093750Y-49150000D01*
%TO.C,D19*%
X104906250Y-38306250D02*
X104906250Y-36306250D01*
X104906250Y-36306250D02*
X108806250Y-36306250D01*
X104906250Y-38306250D02*
X108806250Y-38306250D01*
%TO.C,D18*%
X87518750Y-110200000D02*
X85518750Y-110200000D01*
X85518750Y-110200000D02*
X85518750Y-106300000D01*
X87518750Y-110200000D02*
X87518750Y-106300000D01*
%TO.C,D17*%
X97043750Y-91150000D02*
X95043750Y-91150000D01*
X95043750Y-91150000D02*
X95043750Y-87250000D01*
X97043750Y-91150000D02*
X97043750Y-87250000D01*
%TO.C,D16*%
X97043750Y-72100000D02*
X95043750Y-72100000D01*
X95043750Y-72100000D02*
X95043750Y-68200000D01*
X97043750Y-72100000D02*
X97043750Y-68200000D01*
%TO.C,D15*%
X97043750Y-53050000D02*
X95043750Y-53050000D01*
X95043750Y-53050000D02*
X95043750Y-49150000D01*
X97043750Y-53050000D02*
X97043750Y-49150000D01*
%TO.C,D14*%
X97043750Y-34000000D02*
X95043750Y-34000000D01*
X95043750Y-34000000D02*
X95043750Y-30100000D01*
X97043750Y-34000000D02*
X97043750Y-30100000D01*
%TO.C,D13*%
X68468750Y-110200000D02*
X66468750Y-110200000D01*
X66468750Y-110200000D02*
X66468750Y-106300000D01*
X68468750Y-110200000D02*
X68468750Y-106300000D01*
%TO.C,D12*%
X77993750Y-91150000D02*
X75993750Y-91150000D01*
X75993750Y-91150000D02*
X75993750Y-87250000D01*
X77993750Y-91150000D02*
X77993750Y-87250000D01*
%TO.C,D11*%
X77993750Y-72100000D02*
X75993750Y-72100000D01*
X75993750Y-72100000D02*
X75993750Y-68200000D01*
X77993750Y-72100000D02*
X77993750Y-68200000D01*
%TO.C,D10*%
X77993750Y-53050000D02*
X75993750Y-53050000D01*
X75993750Y-53050000D02*
X75993750Y-49150000D01*
X77993750Y-53050000D02*
X77993750Y-49150000D01*
%TO.C,D9*%
X77993750Y-34000000D02*
X75993750Y-34000000D01*
X75993750Y-34000000D02*
X75993750Y-30100000D01*
X77993750Y-34000000D02*
X77993750Y-30100000D01*
%TO.C,D8*%
X58943750Y-91150000D02*
X56943750Y-91150000D01*
X56943750Y-91150000D02*
X56943750Y-87250000D01*
X58943750Y-91150000D02*
X58943750Y-87250000D01*
%TO.C,D7*%
X58943750Y-72100000D02*
X56943750Y-72100000D01*
X56943750Y-72100000D02*
X56943750Y-68200000D01*
X58943750Y-72100000D02*
X58943750Y-68200000D01*
%TO.C,D6*%
X58943750Y-53050000D02*
X56943750Y-53050000D01*
X56943750Y-53050000D02*
X56943750Y-49150000D01*
X58943750Y-53050000D02*
X58943750Y-49150000D01*
%TO.C,D5*%
X58943750Y-34000000D02*
X56943750Y-34000000D01*
X56943750Y-34000000D02*
X56943750Y-30100000D01*
X58943750Y-34000000D02*
X58943750Y-30100000D01*
%TO.C,D4*%
X39893750Y-91150000D02*
X37893750Y-91150000D01*
X37893750Y-91150000D02*
X37893750Y-87250000D01*
X39893750Y-91150000D02*
X39893750Y-87250000D01*
%TO.C,D3*%
X39893750Y-72100000D02*
X37893750Y-72100000D01*
X37893750Y-72100000D02*
X37893750Y-68200000D01*
X39893750Y-72100000D02*
X39893750Y-68200000D01*
%TO.C,D2*%
X39893750Y-53050000D02*
X37893750Y-53050000D01*
X37893750Y-53050000D02*
X37893750Y-49150000D01*
X39893750Y-53050000D02*
X39893750Y-49150000D01*
%TO.C,D1*%
X39893750Y-34000000D02*
X37893750Y-34000000D01*
X37893750Y-34000000D02*
X37893750Y-30100000D01*
X39893750Y-34000000D02*
X39893750Y-30100000D01*
%TO.C,C8*%
X186443252Y-97890000D02*
X185920748Y-97890000D01*
X186443252Y-96420000D02*
X185920748Y-96420000D01*
%TO.C,C7*%
X184050000Y-109608252D02*
X184050000Y-109085748D01*
X185520000Y-109608252D02*
X185520000Y-109085748D01*
%TO.C,C6*%
X203681000Y-100068748D02*
X203681000Y-100591252D01*
X202211000Y-100068748D02*
X202211000Y-100591252D01*
%TO.C,C5*%
X195587252Y-97763000D02*
X195064748Y-97763000D01*
X195587252Y-96293000D02*
X195064748Y-96293000D01*
%TO.C,C4*%
X195064748Y-94134000D02*
X195587252Y-94134000D01*
X195064748Y-95604000D02*
X195587252Y-95604000D01*
%TO.C,C3*%
X197985748Y-112168000D02*
X198508252Y-112168000D01*
X197985748Y-113638000D02*
X198508252Y-113638000D01*
%TO.C,C2*%
X208272748Y-103024000D02*
X208795252Y-103024000D01*
X208272748Y-104494000D02*
X208795252Y-104494000D01*
%TO.C,C1*%
X208272748Y-105945000D02*
X208795252Y-105945000D01*
X208272748Y-107415000D02*
X208795252Y-107415000D01*
%TO.C,FB1*%
D13*
X125039333Y-21011571D02*
X125372666Y-21011571D01*
X125372666Y-21535380D02*
X125372666Y-20535380D01*
X124896476Y-20535380D01*
X124182190Y-21011571D02*
X124039333Y-21059190D01*
X123991714Y-21106809D01*
X123944095Y-21202047D01*
X123944095Y-21344904D01*
X123991714Y-21440142D01*
X124039333Y-21487761D01*
X124134571Y-21535380D01*
X124515523Y-21535380D01*
X124515523Y-20535380D01*
X124182190Y-20535380D01*
X124086952Y-20583000D01*
X124039333Y-20630619D01*
X123991714Y-20725857D01*
X123991714Y-20821095D01*
X124039333Y-20916333D01*
X124086952Y-20963952D01*
X124182190Y-21011571D01*
X124515523Y-21011571D01*
X122991714Y-21535380D02*
X123563142Y-21535380D01*
X123277428Y-21535380D02*
X123277428Y-20535380D01*
X123372666Y-20678238D01*
X123467904Y-20773476D01*
X123563142Y-20821095D01*
%TO.C,Y1*%
X207242190Y-104679809D02*
X207718380Y-104679809D01*
X206718380Y-104346476D02*
X207242190Y-104679809D01*
X206718380Y-105013142D01*
X207718380Y-105870285D02*
X207718380Y-105298857D01*
X207718380Y-105584571D02*
X206718380Y-105584571D01*
X206861238Y-105489333D01*
X206956476Y-105394095D01*
X207004095Y-105298857D01*
%TO.C,USB1*%
X118419345Y-25527380D02*
X118419345Y-26336904D01*
X118371726Y-26432142D01*
X118324107Y-26479761D01*
X118228869Y-26527380D01*
X118038392Y-26527380D01*
X117943154Y-26479761D01*
X117895535Y-26432142D01*
X117847916Y-26336904D01*
X117847916Y-25527380D01*
X117419345Y-26479761D02*
X117276488Y-26527380D01*
X117038392Y-26527380D01*
X116943154Y-26479761D01*
X116895535Y-26432142D01*
X116847916Y-26336904D01*
X116847916Y-26241666D01*
X116895535Y-26146428D01*
X116943154Y-26098809D01*
X117038392Y-26051190D01*
X117228869Y-26003571D01*
X117324107Y-25955952D01*
X117371726Y-25908333D01*
X117419345Y-25813095D01*
X117419345Y-25717857D01*
X117371726Y-25622619D01*
X117324107Y-25575000D01*
X117228869Y-25527380D01*
X116990773Y-25527380D01*
X116847916Y-25575000D01*
X116086011Y-26003571D02*
X115943154Y-26051190D01*
X115895535Y-26098809D01*
X115847916Y-26194047D01*
X115847916Y-26336904D01*
X115895535Y-26432142D01*
X115943154Y-26479761D01*
X116038392Y-26527380D01*
X116419345Y-26527380D01*
X116419345Y-25527380D01*
X116086011Y-25527380D01*
X115990773Y-25575000D01*
X115943154Y-25622619D01*
X115895535Y-25717857D01*
X115895535Y-25813095D01*
X115943154Y-25908333D01*
X115990773Y-25955952D01*
X116086011Y-26003571D01*
X116419345Y-26003571D01*
X114895535Y-26527380D02*
X115466964Y-26527380D01*
X115181250Y-26527380D02*
X115181250Y-25527380D01*
X115276488Y-25670238D01*
X115371726Y-25765476D01*
X115466964Y-25813095D01*
%TO.C,U2*%
X120268904Y-39843630D02*
X120268904Y-40653154D01*
X120221285Y-40748392D01*
X120173666Y-40796011D01*
X120078428Y-40843630D01*
X119887952Y-40843630D01*
X119792714Y-40796011D01*
X119745095Y-40748392D01*
X119697476Y-40653154D01*
X119697476Y-39843630D01*
X119268904Y-39938869D02*
X119221285Y-39891250D01*
X119126047Y-39843630D01*
X118887952Y-39843630D01*
X118792714Y-39891250D01*
X118745095Y-39938869D01*
X118697476Y-40034107D01*
X118697476Y-40129345D01*
X118745095Y-40272202D01*
X119316523Y-40843630D01*
X118697476Y-40843630D01*
%TO.C,U1*%
X184661380Y-104267095D02*
X185470904Y-104267095D01*
X185566142Y-104314714D01*
X185613761Y-104362333D01*
X185661380Y-104457571D01*
X185661380Y-104648047D01*
X185613761Y-104743285D01*
X185566142Y-104790904D01*
X185470904Y-104838523D01*
X184661380Y-104838523D01*
X185661380Y-105838523D02*
X185661380Y-105267095D01*
X185661380Y-105552809D02*
X184661380Y-105552809D01*
X184804238Y-105457571D01*
X184899476Y-105362333D01*
X184947095Y-105267095D01*
%TO.C,SW1*%
X208470333Y-98619761D02*
X208327476Y-98667380D01*
X208089380Y-98667380D01*
X207994142Y-98619761D01*
X207946523Y-98572142D01*
X207898904Y-98476904D01*
X207898904Y-98381666D01*
X207946523Y-98286428D01*
X207994142Y-98238809D01*
X208089380Y-98191190D01*
X208279857Y-98143571D01*
X208375095Y-98095952D01*
X208422714Y-98048333D01*
X208470333Y-97953095D01*
X208470333Y-97857857D01*
X208422714Y-97762619D01*
X208375095Y-97715000D01*
X208279857Y-97667380D01*
X208041761Y-97667380D01*
X207898904Y-97715000D01*
X207565571Y-97667380D02*
X207327476Y-98667380D01*
X207137000Y-97953095D01*
X206946523Y-98667380D01*
X206708428Y-97667380D01*
X205803666Y-98667380D02*
X206375095Y-98667380D01*
X206089380Y-98667380D02*
X206089380Y-97667380D01*
X206184619Y-97810238D01*
X206279857Y-97905476D01*
X206375095Y-97953095D01*
%TO.C,R6*%
X193809380Y-95591333D02*
X193333190Y-95258000D01*
X193809380Y-95019904D02*
X192809380Y-95019904D01*
X192809380Y-95400857D01*
X192857000Y-95496095D01*
X192904619Y-95543714D01*
X192999857Y-95591333D01*
X193142714Y-95591333D01*
X193237952Y-95543714D01*
X193285571Y-95496095D01*
X193333190Y-95400857D01*
X193333190Y-95019904D01*
X192809380Y-96448476D02*
X192809380Y-96258000D01*
X192857000Y-96162761D01*
X192904619Y-96115142D01*
X193047476Y-96019904D01*
X193237952Y-95972285D01*
X193618904Y-95972285D01*
X193714142Y-96019904D01*
X193761761Y-96067523D01*
X193809380Y-96162761D01*
X193809380Y-96353238D01*
X193761761Y-96448476D01*
X193714142Y-96496095D01*
X193618904Y-96543714D01*
X193380809Y-96543714D01*
X193285571Y-96496095D01*
X193237952Y-96448476D01*
X193190333Y-96353238D01*
X193190333Y-96162761D01*
X193237952Y-96067523D01*
X193285571Y-96019904D01*
X193380809Y-95972285D01*
%TO.C,R5*%
X191713380Y-95591333D02*
X191237190Y-95258000D01*
X191713380Y-95019904D02*
X190713380Y-95019904D01*
X190713380Y-95400857D01*
X190761000Y-95496095D01*
X190808619Y-95543714D01*
X190903857Y-95591333D01*
X191046714Y-95591333D01*
X191141952Y-95543714D01*
X191189571Y-95496095D01*
X191237190Y-95400857D01*
X191237190Y-95019904D01*
X190713380Y-96496095D02*
X190713380Y-96019904D01*
X191189571Y-95972285D01*
X191141952Y-96019904D01*
X191094333Y-96115142D01*
X191094333Y-96353238D01*
X191141952Y-96448476D01*
X191189571Y-96496095D01*
X191284809Y-96543714D01*
X191522904Y-96543714D01*
X191618142Y-96496095D01*
X191665761Y-96448476D01*
X191713380Y-96353238D01*
X191713380Y-96115142D01*
X191665761Y-96019904D01*
X191618142Y-95972285D01*
%TO.C,R4*%
X114466666Y-32933630D02*
X114800000Y-32457440D01*
X115038095Y-32933630D02*
X115038095Y-31933630D01*
X114657142Y-31933630D01*
X114561904Y-31981250D01*
X114514285Y-32028869D01*
X114466666Y-32124107D01*
X114466666Y-32266964D01*
X114514285Y-32362202D01*
X114561904Y-32409821D01*
X114657142Y-32457440D01*
X115038095Y-32457440D01*
X113609523Y-32266964D02*
X113609523Y-32933630D01*
X113847619Y-31886011D02*
X114085714Y-32600297D01*
X113466666Y-32600297D01*
%TO.C,R3*%
X122721666Y-36233630D02*
X123055000Y-35757440D01*
X123293095Y-36233630D02*
X123293095Y-35233630D01*
X122912142Y-35233630D01*
X122816904Y-35281250D01*
X122769285Y-35328869D01*
X122721666Y-35424107D01*
X122721666Y-35566964D01*
X122769285Y-35662202D01*
X122816904Y-35709821D01*
X122912142Y-35757440D01*
X123293095Y-35757440D01*
X122388333Y-35233630D02*
X121769285Y-35233630D01*
X122102619Y-35614583D01*
X121959761Y-35614583D01*
X121864523Y-35662202D01*
X121816904Y-35709821D01*
X121769285Y-35805059D01*
X121769285Y-36043154D01*
X121816904Y-36138392D01*
X121864523Y-36186011D01*
X121959761Y-36233630D01*
X122245476Y-36233630D01*
X122340714Y-36186011D01*
X122388333Y-36138392D01*
%TO.C,R2*%
X181014666Y-113100380D02*
X181348000Y-112624190D01*
X181586095Y-113100380D02*
X181586095Y-112100380D01*
X181205142Y-112100380D01*
X181109904Y-112148000D01*
X181062285Y-112195619D01*
X181014666Y-112290857D01*
X181014666Y-112433714D01*
X181062285Y-112528952D01*
X181109904Y-112576571D01*
X181205142Y-112624190D01*
X181586095Y-112624190D01*
X180633714Y-112195619D02*
X180586095Y-112148000D01*
X180490857Y-112100380D01*
X180252761Y-112100380D01*
X180157523Y-112148000D01*
X180109904Y-112195619D01*
X180062285Y-112290857D01*
X180062285Y-112386095D01*
X180109904Y-112528952D01*
X180681333Y-113100380D01*
X180062285Y-113100380D01*
%TO.C,R1*%
X200064666Y-96084380D02*
X200398000Y-95608190D01*
X200636095Y-96084380D02*
X200636095Y-95084380D01*
X200255142Y-95084380D01*
X200159904Y-95132000D01*
X200112285Y-95179619D01*
X200064666Y-95274857D01*
X200064666Y-95417714D01*
X200112285Y-95512952D01*
X200159904Y-95560571D01*
X200255142Y-95608190D01*
X200636095Y-95608190D01*
X199112285Y-96084380D02*
X199683714Y-96084380D01*
X199398000Y-96084380D02*
X199398000Y-95084380D01*
X199493238Y-95227238D01*
X199588476Y-95322476D01*
X199683714Y-95370095D01*
%TO.C,J1*%
X203533630Y-107684821D02*
X202533630Y-107684821D01*
X203247916Y-108018154D01*
X202533630Y-108351488D01*
X203533630Y-108351488D01*
X203533630Y-108827678D02*
X202533630Y-108827678D01*
X203486011Y-109256250D02*
X203533630Y-109399107D01*
X203533630Y-109637202D01*
X203486011Y-109732440D01*
X203438392Y-109780059D01*
X203343154Y-109827678D01*
X203247916Y-109827678D01*
X203152678Y-109780059D01*
X203105059Y-109732440D01*
X203057440Y-109637202D01*
X203009821Y-109446726D01*
X202962202Y-109351488D01*
X202914583Y-109303869D01*
X202819345Y-109256250D01*
X202724107Y-109256250D01*
X202628869Y-109303869D01*
X202581250Y-109351488D01*
X202533630Y-109446726D01*
X202533630Y-109684821D01*
X202581250Y-109827678D01*
X202533630Y-110446726D02*
X202533630Y-110637202D01*
X202581250Y-110732440D01*
X202676488Y-110827678D01*
X202866964Y-110875297D01*
X203200297Y-110875297D01*
X203390773Y-110827678D01*
X203486011Y-110732440D01*
X203533630Y-110637202D01*
X203533630Y-110446726D01*
X203486011Y-110351488D01*
X203390773Y-110256250D01*
X203200297Y-110208630D01*
X202866964Y-110208630D01*
X202676488Y-110256250D01*
X202581250Y-110351488D01*
X202533630Y-110446726D01*
X202533630Y-116172916D02*
X203533630Y-116506250D01*
X202533630Y-116839583D01*
X203438392Y-117744345D02*
X203486011Y-117696726D01*
X203533630Y-117553869D01*
X203533630Y-117458630D01*
X203486011Y-117315773D01*
X203390773Y-117220535D01*
X203295535Y-117172916D01*
X203105059Y-117125297D01*
X202962202Y-117125297D01*
X202771726Y-117172916D01*
X202676488Y-117220535D01*
X202581250Y-117315773D01*
X202533630Y-117458630D01*
X202533630Y-117553869D01*
X202581250Y-117696726D01*
X202628869Y-117744345D01*
X203438392Y-118744345D02*
X203486011Y-118696726D01*
X203533630Y-118553869D01*
X203533630Y-118458630D01*
X203486011Y-118315773D01*
X203390773Y-118220535D01*
X203295535Y-118172916D01*
X203105059Y-118125297D01*
X202962202Y-118125297D01*
X202771726Y-118172916D01*
X202676488Y-118220535D01*
X202581250Y-118315773D01*
X202533630Y-118458630D01*
X202533630Y-118553869D01*
X202581250Y-118696726D01*
X202628869Y-118744345D01*
X205986011Y-108220535D02*
X206033630Y-108363392D01*
X206033630Y-108601488D01*
X205986011Y-108696726D01*
X205938392Y-108744345D01*
X205843154Y-108791964D01*
X205747916Y-108791964D01*
X205652678Y-108744345D01*
X205605059Y-108696726D01*
X205557440Y-108601488D01*
X205509821Y-108411011D01*
X205462202Y-108315773D01*
X205414583Y-108268154D01*
X205319345Y-108220535D01*
X205224107Y-108220535D01*
X205128869Y-108268154D01*
X205081250Y-108315773D01*
X205033630Y-108411011D01*
X205033630Y-108649107D01*
X205081250Y-108791964D01*
X205938392Y-109791964D02*
X205986011Y-109744345D01*
X206033630Y-109601488D01*
X206033630Y-109506250D01*
X205986011Y-109363392D01*
X205890773Y-109268154D01*
X205795535Y-109220535D01*
X205605059Y-109172916D01*
X205462202Y-109172916D01*
X205271726Y-109220535D01*
X205176488Y-109268154D01*
X205081250Y-109363392D01*
X205033630Y-109506250D01*
X205033630Y-109601488D01*
X205081250Y-109744345D01*
X205128869Y-109791964D01*
X206033630Y-110220535D02*
X205033630Y-110220535D01*
X206033630Y-110791964D02*
X205462202Y-110363392D01*
X205033630Y-110791964D02*
X205605059Y-110220535D01*
X206033630Y-116184821D02*
X205033630Y-116184821D01*
X205747916Y-116518154D01*
X205033630Y-116851488D01*
X206033630Y-116851488D01*
X205033630Y-117518154D02*
X205033630Y-117708630D01*
X205081250Y-117803869D01*
X205176488Y-117899107D01*
X205366964Y-117946726D01*
X205700297Y-117946726D01*
X205890773Y-117899107D01*
X205986011Y-117803869D01*
X206033630Y-117708630D01*
X206033630Y-117518154D01*
X205986011Y-117422916D01*
X205890773Y-117327678D01*
X205700297Y-117280059D01*
X205366964Y-117280059D01*
X205176488Y-117327678D01*
X205081250Y-117422916D01*
X205033630Y-117518154D01*
X205986011Y-118327678D02*
X206033630Y-118470535D01*
X206033630Y-118708630D01*
X205986011Y-118803869D01*
X205938392Y-118851488D01*
X205843154Y-118899107D01*
X205747916Y-118899107D01*
X205652678Y-118851488D01*
X205605059Y-118803869D01*
X205557440Y-118708630D01*
X205509821Y-118518154D01*
X205462202Y-118422916D01*
X205414583Y-118375297D01*
X205319345Y-118327678D01*
X205224107Y-118327678D01*
X205128869Y-118375297D01*
X205081250Y-118422916D01*
X205033630Y-118518154D01*
X205033630Y-118756250D01*
X205081250Y-118899107D01*
X206033630Y-119327678D02*
X205033630Y-119327678D01*
X208533630Y-108708630D02*
X208057440Y-108375297D01*
X208533630Y-108137202D02*
X207533630Y-108137202D01*
X207533630Y-108518154D01*
X207581250Y-108613392D01*
X207628869Y-108661011D01*
X207724107Y-108708630D01*
X207866964Y-108708630D01*
X207962202Y-108661011D01*
X208009821Y-108613392D01*
X208057440Y-108518154D01*
X208057440Y-108137202D01*
X208486011Y-109089583D02*
X208533630Y-109232440D01*
X208533630Y-109470535D01*
X208486011Y-109565773D01*
X208438392Y-109613392D01*
X208343154Y-109661011D01*
X208247916Y-109661011D01*
X208152678Y-109613392D01*
X208105059Y-109565773D01*
X208057440Y-109470535D01*
X208009821Y-109280059D01*
X207962202Y-109184821D01*
X207914583Y-109137202D01*
X207819345Y-109089583D01*
X207724107Y-109089583D01*
X207628869Y-109137202D01*
X207581250Y-109184821D01*
X207533630Y-109280059D01*
X207533630Y-109518154D01*
X207581250Y-109661011D01*
X207533630Y-109946726D02*
X207533630Y-110518154D01*
X208533630Y-110232440D02*
X207533630Y-110232440D01*
X207581250Y-116994345D02*
X207533630Y-116899107D01*
X207533630Y-116756250D01*
X207581250Y-116613392D01*
X207676488Y-116518154D01*
X207771726Y-116470535D01*
X207962202Y-116422916D01*
X208105059Y-116422916D01*
X208295535Y-116470535D01*
X208390773Y-116518154D01*
X208486011Y-116613392D01*
X208533630Y-116756250D01*
X208533630Y-116851488D01*
X208486011Y-116994345D01*
X208438392Y-117041964D01*
X208105059Y-117041964D01*
X208105059Y-116851488D01*
X208533630Y-117470535D02*
X207533630Y-117470535D01*
X208533630Y-118041964D01*
X207533630Y-118041964D01*
X208533630Y-118518154D02*
X207533630Y-118518154D01*
X207533630Y-118756250D01*
X207581250Y-118899107D01*
X207676488Y-118994345D01*
X207771726Y-119041964D01*
X207962202Y-119089583D01*
X208105059Y-119089583D01*
X208295535Y-119041964D01*
X208390773Y-118994345D01*
X208486011Y-118899107D01*
X208533630Y-118756250D01*
X208533630Y-118518154D01*
%TO.C,F1*%
X116048571Y-40147916D02*
X116048571Y-39814583D01*
X116572380Y-39814583D02*
X115572380Y-39814583D01*
X115572380Y-40290773D01*
X116572380Y-41195535D02*
X116572380Y-40624107D01*
X116572380Y-40909821D02*
X115572380Y-40909821D01*
X115715238Y-40814583D01*
X115810476Y-40719345D01*
X115858095Y-40624107D01*
%TO.C,D46*%
X212796130Y-87685714D02*
X211796130Y-87685714D01*
X211796130Y-87923809D01*
X211843750Y-88066666D01*
X211938988Y-88161904D01*
X212034226Y-88209523D01*
X212224702Y-88257142D01*
X212367559Y-88257142D01*
X212558035Y-88209523D01*
X212653273Y-88161904D01*
X212748511Y-88066666D01*
X212796130Y-87923809D01*
X212796130Y-87685714D01*
X212129464Y-89114285D02*
X212796130Y-89114285D01*
X211748511Y-88876190D02*
X212462797Y-88638095D01*
X212462797Y-89257142D01*
X211796130Y-90066666D02*
X211796130Y-89876190D01*
X211843750Y-89780952D01*
X211891369Y-89733333D01*
X212034226Y-89638095D01*
X212224702Y-89590476D01*
X212605654Y-89590476D01*
X212700892Y-89638095D01*
X212748511Y-89685714D01*
X212796130Y-89780952D01*
X212796130Y-89971428D01*
X212748511Y-90066666D01*
X212700892Y-90114285D01*
X212605654Y-90161904D01*
X212367559Y-90161904D01*
X212272321Y-90114285D01*
X212224702Y-90066666D01*
X212177083Y-89971428D01*
X212177083Y-89780952D01*
X212224702Y-89685714D01*
X212272321Y-89638095D01*
X212367559Y-89590476D01*
%TO.C,D45*%
X212796130Y-68635714D02*
X211796130Y-68635714D01*
X211796130Y-68873809D01*
X211843750Y-69016666D01*
X211938988Y-69111904D01*
X212034226Y-69159523D01*
X212224702Y-69207142D01*
X212367559Y-69207142D01*
X212558035Y-69159523D01*
X212653273Y-69111904D01*
X212748511Y-69016666D01*
X212796130Y-68873809D01*
X212796130Y-68635714D01*
X212129464Y-70064285D02*
X212796130Y-70064285D01*
X211748511Y-69826190D02*
X212462797Y-69588095D01*
X212462797Y-70207142D01*
X211796130Y-71064285D02*
X211796130Y-70588095D01*
X212272321Y-70540476D01*
X212224702Y-70588095D01*
X212177083Y-70683333D01*
X212177083Y-70921428D01*
X212224702Y-71016666D01*
X212272321Y-71064285D01*
X212367559Y-71111904D01*
X212605654Y-71111904D01*
X212700892Y-71064285D01*
X212748511Y-71016666D01*
X212796130Y-70921428D01*
X212796130Y-70683333D01*
X212748511Y-70588095D01*
X212700892Y-70540476D01*
%TO.C,D44*%
X212796130Y-49585714D02*
X211796130Y-49585714D01*
X211796130Y-49823809D01*
X211843750Y-49966666D01*
X211938988Y-50061904D01*
X212034226Y-50109523D01*
X212224702Y-50157142D01*
X212367559Y-50157142D01*
X212558035Y-50109523D01*
X212653273Y-50061904D01*
X212748511Y-49966666D01*
X212796130Y-49823809D01*
X212796130Y-49585714D01*
X212129464Y-51014285D02*
X212796130Y-51014285D01*
X211748511Y-50776190D02*
X212462797Y-50538095D01*
X212462797Y-51157142D01*
X212129464Y-51966666D02*
X212796130Y-51966666D01*
X211748511Y-51728571D02*
X212462797Y-51490476D01*
X212462797Y-52109523D01*
%TO.C,D43*%
X212796130Y-30535714D02*
X211796130Y-30535714D01*
X211796130Y-30773809D01*
X211843750Y-30916666D01*
X211938988Y-31011904D01*
X212034226Y-31059523D01*
X212224702Y-31107142D01*
X212367559Y-31107142D01*
X212558035Y-31059523D01*
X212653273Y-31011904D01*
X212748511Y-30916666D01*
X212796130Y-30773809D01*
X212796130Y-30535714D01*
X212129464Y-31964285D02*
X212796130Y-31964285D01*
X211748511Y-31726190D02*
X212462797Y-31488095D01*
X212462797Y-32107142D01*
X211796130Y-32392857D02*
X211796130Y-33011904D01*
X212177083Y-32678571D01*
X212177083Y-32821428D01*
X212224702Y-32916666D01*
X212272321Y-32964285D01*
X212367559Y-33011904D01*
X212605654Y-33011904D01*
X212700892Y-32964285D01*
X212748511Y-32916666D01*
X212796130Y-32821428D01*
X212796130Y-32535714D01*
X212748511Y-32440476D01*
X212700892Y-32392857D01*
%TO.C,D42*%
X193746130Y-87685714D02*
X192746130Y-87685714D01*
X192746130Y-87923809D01*
X192793750Y-88066666D01*
X192888988Y-88161904D01*
X192984226Y-88209523D01*
X193174702Y-88257142D01*
X193317559Y-88257142D01*
X193508035Y-88209523D01*
X193603273Y-88161904D01*
X193698511Y-88066666D01*
X193746130Y-87923809D01*
X193746130Y-87685714D01*
X193079464Y-89114285D02*
X193746130Y-89114285D01*
X192698511Y-88876190D02*
X193412797Y-88638095D01*
X193412797Y-89257142D01*
X192841369Y-89590476D02*
X192793750Y-89638095D01*
X192746130Y-89733333D01*
X192746130Y-89971428D01*
X192793750Y-90066666D01*
X192841369Y-90114285D01*
X192936607Y-90161904D01*
X193031845Y-90161904D01*
X193174702Y-90114285D01*
X193746130Y-89542857D01*
X193746130Y-90161904D01*
%TO.C,D41*%
X193746130Y-68635714D02*
X192746130Y-68635714D01*
X192746130Y-68873809D01*
X192793750Y-69016666D01*
X192888988Y-69111904D01*
X192984226Y-69159523D01*
X193174702Y-69207142D01*
X193317559Y-69207142D01*
X193508035Y-69159523D01*
X193603273Y-69111904D01*
X193698511Y-69016666D01*
X193746130Y-68873809D01*
X193746130Y-68635714D01*
X193079464Y-70064285D02*
X193746130Y-70064285D01*
X192698511Y-69826190D02*
X193412797Y-69588095D01*
X193412797Y-70207142D01*
X193746130Y-71111904D02*
X193746130Y-70540476D01*
X193746130Y-70826190D02*
X192746130Y-70826190D01*
X192888988Y-70730952D01*
X192984226Y-70635714D01*
X193031845Y-70540476D01*
%TO.C,D40*%
X193746130Y-49585714D02*
X192746130Y-49585714D01*
X192746130Y-49823809D01*
X192793750Y-49966666D01*
X192888988Y-50061904D01*
X192984226Y-50109523D01*
X193174702Y-50157142D01*
X193317559Y-50157142D01*
X193508035Y-50109523D01*
X193603273Y-50061904D01*
X193698511Y-49966666D01*
X193746130Y-49823809D01*
X193746130Y-49585714D01*
X193079464Y-51014285D02*
X193746130Y-51014285D01*
X192698511Y-50776190D02*
X193412797Y-50538095D01*
X193412797Y-51157142D01*
X192746130Y-51728571D02*
X192746130Y-51823809D01*
X192793750Y-51919047D01*
X192841369Y-51966666D01*
X192936607Y-52014285D01*
X193127083Y-52061904D01*
X193365178Y-52061904D01*
X193555654Y-52014285D01*
X193650892Y-51966666D01*
X193698511Y-51919047D01*
X193746130Y-51823809D01*
X193746130Y-51728571D01*
X193698511Y-51633333D01*
X193650892Y-51585714D01*
X193555654Y-51538095D01*
X193365178Y-51490476D01*
X193127083Y-51490476D01*
X192936607Y-51538095D01*
X192841369Y-51585714D01*
X192793750Y-51633333D01*
X192746130Y-51728571D01*
%TO.C,D39*%
X193746130Y-30535714D02*
X192746130Y-30535714D01*
X192746130Y-30773809D01*
X192793750Y-30916666D01*
X192888988Y-31011904D01*
X192984226Y-31059523D01*
X193174702Y-31107142D01*
X193317559Y-31107142D01*
X193508035Y-31059523D01*
X193603273Y-31011904D01*
X193698511Y-30916666D01*
X193746130Y-30773809D01*
X193746130Y-30535714D01*
X192746130Y-31440476D02*
X192746130Y-32059523D01*
X193127083Y-31726190D01*
X193127083Y-31869047D01*
X193174702Y-31964285D01*
X193222321Y-32011904D01*
X193317559Y-32059523D01*
X193555654Y-32059523D01*
X193650892Y-32011904D01*
X193698511Y-31964285D01*
X193746130Y-31869047D01*
X193746130Y-31583333D01*
X193698511Y-31488095D01*
X193650892Y-31440476D01*
X193746130Y-32535714D02*
X193746130Y-32726190D01*
X193698511Y-32821428D01*
X193650892Y-32869047D01*
X193508035Y-32964285D01*
X193317559Y-33011904D01*
X192936607Y-33011904D01*
X192841369Y-32964285D01*
X192793750Y-32916666D01*
X192746130Y-32821428D01*
X192746130Y-32630952D01*
X192793750Y-32535714D01*
X192841369Y-32488095D01*
X192936607Y-32440476D01*
X193174702Y-32440476D01*
X193269940Y-32488095D01*
X193317559Y-32535714D01*
X193365178Y-32630952D01*
X193365178Y-32821428D01*
X193317559Y-32916666D01*
X193269940Y-32964285D01*
X193174702Y-33011904D01*
%TO.C,D38*%
X184221130Y-105148214D02*
X183221130Y-105148214D01*
X183221130Y-105386309D01*
X183268750Y-105529166D01*
X183363988Y-105624404D01*
X183459226Y-105672023D01*
X183649702Y-105719642D01*
X183792559Y-105719642D01*
X183983035Y-105672023D01*
X184078273Y-105624404D01*
X184173511Y-105529166D01*
X184221130Y-105386309D01*
X184221130Y-105148214D01*
X183221130Y-106052976D02*
X183221130Y-106672023D01*
X183602083Y-106338690D01*
X183602083Y-106481547D01*
X183649702Y-106576785D01*
X183697321Y-106624404D01*
X183792559Y-106672023D01*
X184030654Y-106672023D01*
X184125892Y-106624404D01*
X184173511Y-106576785D01*
X184221130Y-106481547D01*
X184221130Y-106195833D01*
X184173511Y-106100595D01*
X184125892Y-106052976D01*
X183649702Y-107243452D02*
X183602083Y-107148214D01*
X183554464Y-107100595D01*
X183459226Y-107052976D01*
X183411607Y-107052976D01*
X183316369Y-107100595D01*
X183268750Y-107148214D01*
X183221130Y-107243452D01*
X183221130Y-107433928D01*
X183268750Y-107529166D01*
X183316369Y-107576785D01*
X183411607Y-107624404D01*
X183459226Y-107624404D01*
X183554464Y-107576785D01*
X183602083Y-107529166D01*
X183649702Y-107433928D01*
X183649702Y-107243452D01*
X183697321Y-107148214D01*
X183744940Y-107100595D01*
X183840178Y-107052976D01*
X184030654Y-107052976D01*
X184125892Y-107100595D01*
X184173511Y-107148214D01*
X184221130Y-107243452D01*
X184221130Y-107433928D01*
X184173511Y-107529166D01*
X184125892Y-107576785D01*
X184030654Y-107624404D01*
X183840178Y-107624404D01*
X183744940Y-107576785D01*
X183697321Y-107529166D01*
X183649702Y-107433928D01*
%TO.C,D37*%
X174696130Y-87685714D02*
X173696130Y-87685714D01*
X173696130Y-87923809D01*
X173743750Y-88066666D01*
X173838988Y-88161904D01*
X173934226Y-88209523D01*
X174124702Y-88257142D01*
X174267559Y-88257142D01*
X174458035Y-88209523D01*
X174553273Y-88161904D01*
X174648511Y-88066666D01*
X174696130Y-87923809D01*
X174696130Y-87685714D01*
X173696130Y-88590476D02*
X173696130Y-89209523D01*
X174077083Y-88876190D01*
X174077083Y-89019047D01*
X174124702Y-89114285D01*
X174172321Y-89161904D01*
X174267559Y-89209523D01*
X174505654Y-89209523D01*
X174600892Y-89161904D01*
X174648511Y-89114285D01*
X174696130Y-89019047D01*
X174696130Y-88733333D01*
X174648511Y-88638095D01*
X174600892Y-88590476D01*
X173696130Y-89542857D02*
X173696130Y-90209523D01*
X174696130Y-89780952D01*
%TO.C,D36*%
X174696130Y-68635714D02*
X173696130Y-68635714D01*
X173696130Y-68873809D01*
X173743750Y-69016666D01*
X173838988Y-69111904D01*
X173934226Y-69159523D01*
X174124702Y-69207142D01*
X174267559Y-69207142D01*
X174458035Y-69159523D01*
X174553273Y-69111904D01*
X174648511Y-69016666D01*
X174696130Y-68873809D01*
X174696130Y-68635714D01*
X173696130Y-69540476D02*
X173696130Y-70159523D01*
X174077083Y-69826190D01*
X174077083Y-69969047D01*
X174124702Y-70064285D01*
X174172321Y-70111904D01*
X174267559Y-70159523D01*
X174505654Y-70159523D01*
X174600892Y-70111904D01*
X174648511Y-70064285D01*
X174696130Y-69969047D01*
X174696130Y-69683333D01*
X174648511Y-69588095D01*
X174600892Y-69540476D01*
X173696130Y-71016666D02*
X173696130Y-70826190D01*
X173743750Y-70730952D01*
X173791369Y-70683333D01*
X173934226Y-70588095D01*
X174124702Y-70540476D01*
X174505654Y-70540476D01*
X174600892Y-70588095D01*
X174648511Y-70635714D01*
X174696130Y-70730952D01*
X174696130Y-70921428D01*
X174648511Y-71016666D01*
X174600892Y-71064285D01*
X174505654Y-71111904D01*
X174267559Y-71111904D01*
X174172321Y-71064285D01*
X174124702Y-71016666D01*
X174077083Y-70921428D01*
X174077083Y-70730952D01*
X174124702Y-70635714D01*
X174172321Y-70588095D01*
X174267559Y-70540476D01*
%TO.C,D35*%
X174696130Y-49585714D02*
X173696130Y-49585714D01*
X173696130Y-49823809D01*
X173743750Y-49966666D01*
X173838988Y-50061904D01*
X173934226Y-50109523D01*
X174124702Y-50157142D01*
X174267559Y-50157142D01*
X174458035Y-50109523D01*
X174553273Y-50061904D01*
X174648511Y-49966666D01*
X174696130Y-49823809D01*
X174696130Y-49585714D01*
X173696130Y-50490476D02*
X173696130Y-51109523D01*
X174077083Y-50776190D01*
X174077083Y-50919047D01*
X174124702Y-51014285D01*
X174172321Y-51061904D01*
X174267559Y-51109523D01*
X174505654Y-51109523D01*
X174600892Y-51061904D01*
X174648511Y-51014285D01*
X174696130Y-50919047D01*
X174696130Y-50633333D01*
X174648511Y-50538095D01*
X174600892Y-50490476D01*
X173696130Y-52014285D02*
X173696130Y-51538095D01*
X174172321Y-51490476D01*
X174124702Y-51538095D01*
X174077083Y-51633333D01*
X174077083Y-51871428D01*
X174124702Y-51966666D01*
X174172321Y-52014285D01*
X174267559Y-52061904D01*
X174505654Y-52061904D01*
X174600892Y-52014285D01*
X174648511Y-51966666D01*
X174696130Y-51871428D01*
X174696130Y-51633333D01*
X174648511Y-51538095D01*
X174600892Y-51490476D01*
%TO.C,D34*%
X174696130Y-30535714D02*
X173696130Y-30535714D01*
X173696130Y-30773809D01*
X173743750Y-30916666D01*
X173838988Y-31011904D01*
X173934226Y-31059523D01*
X174124702Y-31107142D01*
X174267559Y-31107142D01*
X174458035Y-31059523D01*
X174553273Y-31011904D01*
X174648511Y-30916666D01*
X174696130Y-30773809D01*
X174696130Y-30535714D01*
X173696130Y-31440476D02*
X173696130Y-32059523D01*
X174077083Y-31726190D01*
X174077083Y-31869047D01*
X174124702Y-31964285D01*
X174172321Y-32011904D01*
X174267559Y-32059523D01*
X174505654Y-32059523D01*
X174600892Y-32011904D01*
X174648511Y-31964285D01*
X174696130Y-31869047D01*
X174696130Y-31583333D01*
X174648511Y-31488095D01*
X174600892Y-31440476D01*
X174029464Y-32916666D02*
X174696130Y-32916666D01*
X173648511Y-32678571D02*
X174362797Y-32440476D01*
X174362797Y-33059523D01*
%TO.C,D33*%
X165171130Y-106735714D02*
X164171130Y-106735714D01*
X164171130Y-106973809D01*
X164218750Y-107116666D01*
X164313988Y-107211904D01*
X164409226Y-107259523D01*
X164599702Y-107307142D01*
X164742559Y-107307142D01*
X164933035Y-107259523D01*
X165028273Y-107211904D01*
X165123511Y-107116666D01*
X165171130Y-106973809D01*
X165171130Y-106735714D01*
X164171130Y-107640476D02*
X164171130Y-108259523D01*
X164552083Y-107926190D01*
X164552083Y-108069047D01*
X164599702Y-108164285D01*
X164647321Y-108211904D01*
X164742559Y-108259523D01*
X164980654Y-108259523D01*
X165075892Y-108211904D01*
X165123511Y-108164285D01*
X165171130Y-108069047D01*
X165171130Y-107783333D01*
X165123511Y-107688095D01*
X165075892Y-107640476D01*
X164171130Y-108592857D02*
X164171130Y-109211904D01*
X164552083Y-108878571D01*
X164552083Y-109021428D01*
X164599702Y-109116666D01*
X164647321Y-109164285D01*
X164742559Y-109211904D01*
X164980654Y-109211904D01*
X165075892Y-109164285D01*
X165123511Y-109116666D01*
X165171130Y-109021428D01*
X165171130Y-108735714D01*
X165123511Y-108640476D01*
X165075892Y-108592857D01*
%TO.C,D32*%
X155646130Y-87685714D02*
X154646130Y-87685714D01*
X154646130Y-87923809D01*
X154693750Y-88066666D01*
X154788988Y-88161904D01*
X154884226Y-88209523D01*
X155074702Y-88257142D01*
X155217559Y-88257142D01*
X155408035Y-88209523D01*
X155503273Y-88161904D01*
X155598511Y-88066666D01*
X155646130Y-87923809D01*
X155646130Y-87685714D01*
X154646130Y-88590476D02*
X154646130Y-89209523D01*
X155027083Y-88876190D01*
X155027083Y-89019047D01*
X155074702Y-89114285D01*
X155122321Y-89161904D01*
X155217559Y-89209523D01*
X155455654Y-89209523D01*
X155550892Y-89161904D01*
X155598511Y-89114285D01*
X155646130Y-89019047D01*
X155646130Y-88733333D01*
X155598511Y-88638095D01*
X155550892Y-88590476D01*
X154741369Y-89590476D02*
X154693750Y-89638095D01*
X154646130Y-89733333D01*
X154646130Y-89971428D01*
X154693750Y-90066666D01*
X154741369Y-90114285D01*
X154836607Y-90161904D01*
X154931845Y-90161904D01*
X155074702Y-90114285D01*
X155646130Y-89542857D01*
X155646130Y-90161904D01*
%TO.C,D31*%
X155646130Y-68635714D02*
X154646130Y-68635714D01*
X154646130Y-68873809D01*
X154693750Y-69016666D01*
X154788988Y-69111904D01*
X154884226Y-69159523D01*
X155074702Y-69207142D01*
X155217559Y-69207142D01*
X155408035Y-69159523D01*
X155503273Y-69111904D01*
X155598511Y-69016666D01*
X155646130Y-68873809D01*
X155646130Y-68635714D01*
X154646130Y-69540476D02*
X154646130Y-70159523D01*
X155027083Y-69826190D01*
X155027083Y-69969047D01*
X155074702Y-70064285D01*
X155122321Y-70111904D01*
X155217559Y-70159523D01*
X155455654Y-70159523D01*
X155550892Y-70111904D01*
X155598511Y-70064285D01*
X155646130Y-69969047D01*
X155646130Y-69683333D01*
X155598511Y-69588095D01*
X155550892Y-69540476D01*
X155646130Y-71111904D02*
X155646130Y-70540476D01*
X155646130Y-70826190D02*
X154646130Y-70826190D01*
X154788988Y-70730952D01*
X154884226Y-70635714D01*
X154931845Y-70540476D01*
%TO.C,D30*%
X155646130Y-49585714D02*
X154646130Y-49585714D01*
X154646130Y-49823809D01*
X154693750Y-49966666D01*
X154788988Y-50061904D01*
X154884226Y-50109523D01*
X155074702Y-50157142D01*
X155217559Y-50157142D01*
X155408035Y-50109523D01*
X155503273Y-50061904D01*
X155598511Y-49966666D01*
X155646130Y-49823809D01*
X155646130Y-49585714D01*
X154646130Y-50490476D02*
X154646130Y-51109523D01*
X155027083Y-50776190D01*
X155027083Y-50919047D01*
X155074702Y-51014285D01*
X155122321Y-51061904D01*
X155217559Y-51109523D01*
X155455654Y-51109523D01*
X155550892Y-51061904D01*
X155598511Y-51014285D01*
X155646130Y-50919047D01*
X155646130Y-50633333D01*
X155598511Y-50538095D01*
X155550892Y-50490476D01*
X154646130Y-51728571D02*
X154646130Y-51823809D01*
X154693750Y-51919047D01*
X154741369Y-51966666D01*
X154836607Y-52014285D01*
X155027083Y-52061904D01*
X155265178Y-52061904D01*
X155455654Y-52014285D01*
X155550892Y-51966666D01*
X155598511Y-51919047D01*
X155646130Y-51823809D01*
X155646130Y-51728571D01*
X155598511Y-51633333D01*
X155550892Y-51585714D01*
X155455654Y-51538095D01*
X155265178Y-51490476D01*
X155027083Y-51490476D01*
X154836607Y-51538095D01*
X154741369Y-51585714D01*
X154693750Y-51633333D01*
X154646130Y-51728571D01*
%TO.C,D29*%
X155646130Y-30535714D02*
X154646130Y-30535714D01*
X154646130Y-30773809D01*
X154693750Y-30916666D01*
X154788988Y-31011904D01*
X154884226Y-31059523D01*
X155074702Y-31107142D01*
X155217559Y-31107142D01*
X155408035Y-31059523D01*
X155503273Y-31011904D01*
X155598511Y-30916666D01*
X155646130Y-30773809D01*
X155646130Y-30535714D01*
X154741369Y-31488095D02*
X154693750Y-31535714D01*
X154646130Y-31630952D01*
X154646130Y-31869047D01*
X154693750Y-31964285D01*
X154741369Y-32011904D01*
X154836607Y-32059523D01*
X154931845Y-32059523D01*
X155074702Y-32011904D01*
X155646130Y-31440476D01*
X155646130Y-32059523D01*
X155646130Y-32535714D02*
X155646130Y-32726190D01*
X155598511Y-32821428D01*
X155550892Y-32869047D01*
X155408035Y-32964285D01*
X155217559Y-33011904D01*
X154836607Y-33011904D01*
X154741369Y-32964285D01*
X154693750Y-32916666D01*
X154646130Y-32821428D01*
X154646130Y-32630952D01*
X154693750Y-32535714D01*
X154741369Y-32488095D01*
X154836607Y-32440476D01*
X155074702Y-32440476D01*
X155169940Y-32488095D01*
X155217559Y-32535714D01*
X155265178Y-32630952D01*
X155265178Y-32821428D01*
X155217559Y-32916666D01*
X155169940Y-32964285D01*
X155074702Y-33011904D01*
%TO.C,D28*%
X141358630Y-106735714D02*
X140358630Y-106735714D01*
X140358630Y-106973809D01*
X140406250Y-107116666D01*
X140501488Y-107211904D01*
X140596726Y-107259523D01*
X140787202Y-107307142D01*
X140930059Y-107307142D01*
X141120535Y-107259523D01*
X141215773Y-107211904D01*
X141311011Y-107116666D01*
X141358630Y-106973809D01*
X141358630Y-106735714D01*
X140453869Y-107688095D02*
X140406250Y-107735714D01*
X140358630Y-107830952D01*
X140358630Y-108069047D01*
X140406250Y-108164285D01*
X140453869Y-108211904D01*
X140549107Y-108259523D01*
X140644345Y-108259523D01*
X140787202Y-108211904D01*
X141358630Y-107640476D01*
X141358630Y-108259523D01*
X140787202Y-108830952D02*
X140739583Y-108735714D01*
X140691964Y-108688095D01*
X140596726Y-108640476D01*
X140549107Y-108640476D01*
X140453869Y-108688095D01*
X140406250Y-108735714D01*
X140358630Y-108830952D01*
X140358630Y-109021428D01*
X140406250Y-109116666D01*
X140453869Y-109164285D01*
X140549107Y-109211904D01*
X140596726Y-109211904D01*
X140691964Y-109164285D01*
X140739583Y-109116666D01*
X140787202Y-109021428D01*
X140787202Y-108830952D01*
X140834821Y-108735714D01*
X140882440Y-108688095D01*
X140977678Y-108640476D01*
X141168154Y-108640476D01*
X141263392Y-108688095D01*
X141311011Y-108735714D01*
X141358630Y-108830952D01*
X141358630Y-109021428D01*
X141311011Y-109116666D01*
X141263392Y-109164285D01*
X141168154Y-109211904D01*
X140977678Y-109211904D01*
X140882440Y-109164285D01*
X140834821Y-109116666D01*
X140787202Y-109021428D01*
%TO.C,D27*%
X136596130Y-87685714D02*
X135596130Y-87685714D01*
X135596130Y-87923809D01*
X135643750Y-88066666D01*
X135738988Y-88161904D01*
X135834226Y-88209523D01*
X136024702Y-88257142D01*
X136167559Y-88257142D01*
X136358035Y-88209523D01*
X136453273Y-88161904D01*
X136548511Y-88066666D01*
X136596130Y-87923809D01*
X136596130Y-87685714D01*
X135691369Y-88638095D02*
X135643750Y-88685714D01*
X135596130Y-88780952D01*
X135596130Y-89019047D01*
X135643750Y-89114285D01*
X135691369Y-89161904D01*
X135786607Y-89209523D01*
X135881845Y-89209523D01*
X136024702Y-89161904D01*
X136596130Y-88590476D01*
X136596130Y-89209523D01*
X135596130Y-89542857D02*
X135596130Y-90209523D01*
X136596130Y-89780952D01*
%TO.C,D26*%
X136596130Y-68635714D02*
X135596130Y-68635714D01*
X135596130Y-68873809D01*
X135643750Y-69016666D01*
X135738988Y-69111904D01*
X135834226Y-69159523D01*
X136024702Y-69207142D01*
X136167559Y-69207142D01*
X136358035Y-69159523D01*
X136453273Y-69111904D01*
X136548511Y-69016666D01*
X136596130Y-68873809D01*
X136596130Y-68635714D01*
X135691369Y-69588095D02*
X135643750Y-69635714D01*
X135596130Y-69730952D01*
X135596130Y-69969047D01*
X135643750Y-70064285D01*
X135691369Y-70111904D01*
X135786607Y-70159523D01*
X135881845Y-70159523D01*
X136024702Y-70111904D01*
X136596130Y-69540476D01*
X136596130Y-70159523D01*
X135596130Y-71016666D02*
X135596130Y-70826190D01*
X135643750Y-70730952D01*
X135691369Y-70683333D01*
X135834226Y-70588095D01*
X136024702Y-70540476D01*
X136405654Y-70540476D01*
X136500892Y-70588095D01*
X136548511Y-70635714D01*
X136596130Y-70730952D01*
X136596130Y-70921428D01*
X136548511Y-71016666D01*
X136500892Y-71064285D01*
X136405654Y-71111904D01*
X136167559Y-71111904D01*
X136072321Y-71064285D01*
X136024702Y-71016666D01*
X135977083Y-70921428D01*
X135977083Y-70730952D01*
X136024702Y-70635714D01*
X136072321Y-70588095D01*
X136167559Y-70540476D01*
%TO.C,D25*%
X136596130Y-49648214D02*
X135596130Y-49648214D01*
X135596130Y-49886309D01*
X135643750Y-50029166D01*
X135738988Y-50124404D01*
X135834226Y-50172023D01*
X136024702Y-50219642D01*
X136167559Y-50219642D01*
X136358035Y-50172023D01*
X136453273Y-50124404D01*
X136548511Y-50029166D01*
X136596130Y-49886309D01*
X136596130Y-49648214D01*
X135691369Y-50600595D02*
X135643750Y-50648214D01*
X135596130Y-50743452D01*
X135596130Y-50981547D01*
X135643750Y-51076785D01*
X135691369Y-51124404D01*
X135786607Y-51172023D01*
X135881845Y-51172023D01*
X136024702Y-51124404D01*
X136596130Y-50552976D01*
X136596130Y-51172023D01*
X135596130Y-52076785D02*
X135596130Y-51600595D01*
X136072321Y-51552976D01*
X136024702Y-51600595D01*
X135977083Y-51695833D01*
X135977083Y-51933928D01*
X136024702Y-52029166D01*
X136072321Y-52076785D01*
X136167559Y-52124404D01*
X136405654Y-52124404D01*
X136500892Y-52076785D01*
X136548511Y-52029166D01*
X136596130Y-51933928D01*
X136596130Y-51695833D01*
X136548511Y-51600595D01*
X136500892Y-51552976D01*
%TO.C,D24*%
X136596130Y-30535714D02*
X135596130Y-30535714D01*
X135596130Y-30773809D01*
X135643750Y-30916666D01*
X135738988Y-31011904D01*
X135834226Y-31059523D01*
X136024702Y-31107142D01*
X136167559Y-31107142D01*
X136358035Y-31059523D01*
X136453273Y-31011904D01*
X136548511Y-30916666D01*
X136596130Y-30773809D01*
X136596130Y-30535714D01*
X135691369Y-31488095D02*
X135643750Y-31535714D01*
X135596130Y-31630952D01*
X135596130Y-31869047D01*
X135643750Y-31964285D01*
X135691369Y-32011904D01*
X135786607Y-32059523D01*
X135881845Y-32059523D01*
X136024702Y-32011904D01*
X136596130Y-31440476D01*
X136596130Y-32059523D01*
X135929464Y-32916666D02*
X136596130Y-32916666D01*
X135548511Y-32678571D02*
X136262797Y-32440476D01*
X136262797Y-33059523D01*
%TO.C,D23*%
X112783630Y-106735714D02*
X111783630Y-106735714D01*
X111783630Y-106973809D01*
X111831250Y-107116666D01*
X111926488Y-107211904D01*
X112021726Y-107259523D01*
X112212202Y-107307142D01*
X112355059Y-107307142D01*
X112545535Y-107259523D01*
X112640773Y-107211904D01*
X112736011Y-107116666D01*
X112783630Y-106973809D01*
X112783630Y-106735714D01*
X111878869Y-107688095D02*
X111831250Y-107735714D01*
X111783630Y-107830952D01*
X111783630Y-108069047D01*
X111831250Y-108164285D01*
X111878869Y-108211904D01*
X111974107Y-108259523D01*
X112069345Y-108259523D01*
X112212202Y-108211904D01*
X112783630Y-107640476D01*
X112783630Y-108259523D01*
X111783630Y-108592857D02*
X111783630Y-109211904D01*
X112164583Y-108878571D01*
X112164583Y-109021428D01*
X112212202Y-109116666D01*
X112259821Y-109164285D01*
X112355059Y-109211904D01*
X112593154Y-109211904D01*
X112688392Y-109164285D01*
X112736011Y-109116666D01*
X112783630Y-109021428D01*
X112783630Y-108735714D01*
X112736011Y-108640476D01*
X112688392Y-108592857D01*
%TO.C,D22*%
X117546130Y-87685714D02*
X116546130Y-87685714D01*
X116546130Y-87923809D01*
X116593750Y-88066666D01*
X116688988Y-88161904D01*
X116784226Y-88209523D01*
X116974702Y-88257142D01*
X117117559Y-88257142D01*
X117308035Y-88209523D01*
X117403273Y-88161904D01*
X117498511Y-88066666D01*
X117546130Y-87923809D01*
X117546130Y-87685714D01*
X116641369Y-88638095D02*
X116593750Y-88685714D01*
X116546130Y-88780952D01*
X116546130Y-89019047D01*
X116593750Y-89114285D01*
X116641369Y-89161904D01*
X116736607Y-89209523D01*
X116831845Y-89209523D01*
X116974702Y-89161904D01*
X117546130Y-88590476D01*
X117546130Y-89209523D01*
X116641369Y-89590476D02*
X116593750Y-89638095D01*
X116546130Y-89733333D01*
X116546130Y-89971428D01*
X116593750Y-90066666D01*
X116641369Y-90114285D01*
X116736607Y-90161904D01*
X116831845Y-90161904D01*
X116974702Y-90114285D01*
X117546130Y-89542857D01*
X117546130Y-90161904D01*
%TO.C,D21*%
X117546130Y-68635714D02*
X116546130Y-68635714D01*
X116546130Y-68873809D01*
X116593750Y-69016666D01*
X116688988Y-69111904D01*
X116784226Y-69159523D01*
X116974702Y-69207142D01*
X117117559Y-69207142D01*
X117308035Y-69159523D01*
X117403273Y-69111904D01*
X117498511Y-69016666D01*
X117546130Y-68873809D01*
X117546130Y-68635714D01*
X116641369Y-69588095D02*
X116593750Y-69635714D01*
X116546130Y-69730952D01*
X116546130Y-69969047D01*
X116593750Y-70064285D01*
X116641369Y-70111904D01*
X116736607Y-70159523D01*
X116831845Y-70159523D01*
X116974702Y-70111904D01*
X117546130Y-69540476D01*
X117546130Y-70159523D01*
X117546130Y-71111904D02*
X117546130Y-70540476D01*
X117546130Y-70826190D02*
X116546130Y-70826190D01*
X116688988Y-70730952D01*
X116784226Y-70635714D01*
X116831845Y-70540476D01*
%TO.C,D20*%
X117546130Y-49585714D02*
X116546130Y-49585714D01*
X116546130Y-49823809D01*
X116593750Y-49966666D01*
X116688988Y-50061904D01*
X116784226Y-50109523D01*
X116974702Y-50157142D01*
X117117559Y-50157142D01*
X117308035Y-50109523D01*
X117403273Y-50061904D01*
X117498511Y-49966666D01*
X117546130Y-49823809D01*
X117546130Y-49585714D01*
X116641369Y-50538095D02*
X116593750Y-50585714D01*
X116546130Y-50680952D01*
X116546130Y-50919047D01*
X116593750Y-51014285D01*
X116641369Y-51061904D01*
X116736607Y-51109523D01*
X116831845Y-51109523D01*
X116974702Y-51061904D01*
X117546130Y-50490476D01*
X117546130Y-51109523D01*
X116546130Y-51728571D02*
X116546130Y-51823809D01*
X116593750Y-51919047D01*
X116641369Y-51966666D01*
X116736607Y-52014285D01*
X116927083Y-52061904D01*
X117165178Y-52061904D01*
X117355654Y-52014285D01*
X117450892Y-51966666D01*
X117498511Y-51919047D01*
X117546130Y-51823809D01*
X117546130Y-51728571D01*
X117498511Y-51633333D01*
X117450892Y-51585714D01*
X117355654Y-51538095D01*
X117165178Y-51490476D01*
X116927083Y-51490476D01*
X116736607Y-51538095D01*
X116641369Y-51585714D01*
X116593750Y-51633333D01*
X116546130Y-51728571D01*
%TO.C,D19*%
X108370535Y-39758630D02*
X108370535Y-38758630D01*
X108132440Y-38758630D01*
X107989583Y-38806250D01*
X107894345Y-38901488D01*
X107846726Y-38996726D01*
X107799107Y-39187202D01*
X107799107Y-39330059D01*
X107846726Y-39520535D01*
X107894345Y-39615773D01*
X107989583Y-39711011D01*
X108132440Y-39758630D01*
X108370535Y-39758630D01*
X106846726Y-39758630D02*
X107418154Y-39758630D01*
X107132440Y-39758630D02*
X107132440Y-38758630D01*
X107227678Y-38901488D01*
X107322916Y-38996726D01*
X107418154Y-39044345D01*
X106370535Y-39758630D02*
X106180059Y-39758630D01*
X106084821Y-39711011D01*
X106037202Y-39663392D01*
X105941964Y-39520535D01*
X105894345Y-39330059D01*
X105894345Y-38949107D01*
X105941964Y-38853869D01*
X105989583Y-38806250D01*
X106084821Y-38758630D01*
X106275297Y-38758630D01*
X106370535Y-38806250D01*
X106418154Y-38853869D01*
X106465773Y-38949107D01*
X106465773Y-39187202D01*
X106418154Y-39282440D01*
X106370535Y-39330059D01*
X106275297Y-39377678D01*
X106084821Y-39377678D01*
X105989583Y-39330059D01*
X105941964Y-39282440D01*
X105894345Y-39187202D01*
%TO.C,D18*%
X88971130Y-106735714D02*
X87971130Y-106735714D01*
X87971130Y-106973809D01*
X88018750Y-107116666D01*
X88113988Y-107211904D01*
X88209226Y-107259523D01*
X88399702Y-107307142D01*
X88542559Y-107307142D01*
X88733035Y-107259523D01*
X88828273Y-107211904D01*
X88923511Y-107116666D01*
X88971130Y-106973809D01*
X88971130Y-106735714D01*
X88971130Y-108259523D02*
X88971130Y-107688095D01*
X88971130Y-107973809D02*
X87971130Y-107973809D01*
X88113988Y-107878571D01*
X88209226Y-107783333D01*
X88256845Y-107688095D01*
X88399702Y-108830952D02*
X88352083Y-108735714D01*
X88304464Y-108688095D01*
X88209226Y-108640476D01*
X88161607Y-108640476D01*
X88066369Y-108688095D01*
X88018750Y-108735714D01*
X87971130Y-108830952D01*
X87971130Y-109021428D01*
X88018750Y-109116666D01*
X88066369Y-109164285D01*
X88161607Y-109211904D01*
X88209226Y-109211904D01*
X88304464Y-109164285D01*
X88352083Y-109116666D01*
X88399702Y-109021428D01*
X88399702Y-108830952D01*
X88447321Y-108735714D01*
X88494940Y-108688095D01*
X88590178Y-108640476D01*
X88780654Y-108640476D01*
X88875892Y-108688095D01*
X88923511Y-108735714D01*
X88971130Y-108830952D01*
X88971130Y-109021428D01*
X88923511Y-109116666D01*
X88875892Y-109164285D01*
X88780654Y-109211904D01*
X88590178Y-109211904D01*
X88494940Y-109164285D01*
X88447321Y-109116666D01*
X88399702Y-109021428D01*
%TO.C,D17*%
X98496130Y-87685714D02*
X97496130Y-87685714D01*
X97496130Y-87923809D01*
X97543750Y-88066666D01*
X97638988Y-88161904D01*
X97734226Y-88209523D01*
X97924702Y-88257142D01*
X98067559Y-88257142D01*
X98258035Y-88209523D01*
X98353273Y-88161904D01*
X98448511Y-88066666D01*
X98496130Y-87923809D01*
X98496130Y-87685714D01*
X98496130Y-89209523D02*
X98496130Y-88638095D01*
X98496130Y-88923809D02*
X97496130Y-88923809D01*
X97638988Y-88828571D01*
X97734226Y-88733333D01*
X97781845Y-88638095D01*
X97496130Y-89542857D02*
X97496130Y-90209523D01*
X98496130Y-89780952D01*
%TO.C,D16*%
X98496130Y-68635714D02*
X97496130Y-68635714D01*
X97496130Y-68873809D01*
X97543750Y-69016666D01*
X97638988Y-69111904D01*
X97734226Y-69159523D01*
X97924702Y-69207142D01*
X98067559Y-69207142D01*
X98258035Y-69159523D01*
X98353273Y-69111904D01*
X98448511Y-69016666D01*
X98496130Y-68873809D01*
X98496130Y-68635714D01*
X98496130Y-70159523D02*
X98496130Y-69588095D01*
X98496130Y-69873809D02*
X97496130Y-69873809D01*
X97638988Y-69778571D01*
X97734226Y-69683333D01*
X97781845Y-69588095D01*
X97496130Y-71016666D02*
X97496130Y-70826190D01*
X97543750Y-70730952D01*
X97591369Y-70683333D01*
X97734226Y-70588095D01*
X97924702Y-70540476D01*
X98305654Y-70540476D01*
X98400892Y-70588095D01*
X98448511Y-70635714D01*
X98496130Y-70730952D01*
X98496130Y-70921428D01*
X98448511Y-71016666D01*
X98400892Y-71064285D01*
X98305654Y-71111904D01*
X98067559Y-71111904D01*
X97972321Y-71064285D01*
X97924702Y-71016666D01*
X97877083Y-70921428D01*
X97877083Y-70730952D01*
X97924702Y-70635714D01*
X97972321Y-70588095D01*
X98067559Y-70540476D01*
%TO.C,D15*%
X98496130Y-49585714D02*
X97496130Y-49585714D01*
X97496130Y-49823809D01*
X97543750Y-49966666D01*
X97638988Y-50061904D01*
X97734226Y-50109523D01*
X97924702Y-50157142D01*
X98067559Y-50157142D01*
X98258035Y-50109523D01*
X98353273Y-50061904D01*
X98448511Y-49966666D01*
X98496130Y-49823809D01*
X98496130Y-49585714D01*
X98496130Y-51109523D02*
X98496130Y-50538095D01*
X98496130Y-50823809D02*
X97496130Y-50823809D01*
X97638988Y-50728571D01*
X97734226Y-50633333D01*
X97781845Y-50538095D01*
X97496130Y-52014285D02*
X97496130Y-51538095D01*
X97972321Y-51490476D01*
X97924702Y-51538095D01*
X97877083Y-51633333D01*
X97877083Y-51871428D01*
X97924702Y-51966666D01*
X97972321Y-52014285D01*
X98067559Y-52061904D01*
X98305654Y-52061904D01*
X98400892Y-52014285D01*
X98448511Y-51966666D01*
X98496130Y-51871428D01*
X98496130Y-51633333D01*
X98448511Y-51538095D01*
X98400892Y-51490476D01*
%TO.C,D14*%
X98496130Y-30535714D02*
X97496130Y-30535714D01*
X97496130Y-30773809D01*
X97543750Y-30916666D01*
X97638988Y-31011904D01*
X97734226Y-31059523D01*
X97924702Y-31107142D01*
X98067559Y-31107142D01*
X98258035Y-31059523D01*
X98353273Y-31011904D01*
X98448511Y-30916666D01*
X98496130Y-30773809D01*
X98496130Y-30535714D01*
X98496130Y-32059523D02*
X98496130Y-31488095D01*
X98496130Y-31773809D02*
X97496130Y-31773809D01*
X97638988Y-31678571D01*
X97734226Y-31583333D01*
X97781845Y-31488095D01*
X97829464Y-32916666D02*
X98496130Y-32916666D01*
X97448511Y-32678571D02*
X98162797Y-32440476D01*
X98162797Y-33059523D01*
%TO.C,D13*%
X69921130Y-106735714D02*
X68921130Y-106735714D01*
X68921130Y-106973809D01*
X68968750Y-107116666D01*
X69063988Y-107211904D01*
X69159226Y-107259523D01*
X69349702Y-107307142D01*
X69492559Y-107307142D01*
X69683035Y-107259523D01*
X69778273Y-107211904D01*
X69873511Y-107116666D01*
X69921130Y-106973809D01*
X69921130Y-106735714D01*
X69921130Y-108259523D02*
X69921130Y-107688095D01*
X69921130Y-107973809D02*
X68921130Y-107973809D01*
X69063988Y-107878571D01*
X69159226Y-107783333D01*
X69206845Y-107688095D01*
X68921130Y-108592857D02*
X68921130Y-109211904D01*
X69302083Y-108878571D01*
X69302083Y-109021428D01*
X69349702Y-109116666D01*
X69397321Y-109164285D01*
X69492559Y-109211904D01*
X69730654Y-109211904D01*
X69825892Y-109164285D01*
X69873511Y-109116666D01*
X69921130Y-109021428D01*
X69921130Y-108735714D01*
X69873511Y-108640476D01*
X69825892Y-108592857D01*
%TO.C,D12*%
X79446130Y-87685714D02*
X78446130Y-87685714D01*
X78446130Y-87923809D01*
X78493750Y-88066666D01*
X78588988Y-88161904D01*
X78684226Y-88209523D01*
X78874702Y-88257142D01*
X79017559Y-88257142D01*
X79208035Y-88209523D01*
X79303273Y-88161904D01*
X79398511Y-88066666D01*
X79446130Y-87923809D01*
X79446130Y-87685714D01*
X79446130Y-89209523D02*
X79446130Y-88638095D01*
X79446130Y-88923809D02*
X78446130Y-88923809D01*
X78588988Y-88828571D01*
X78684226Y-88733333D01*
X78731845Y-88638095D01*
X78541369Y-89590476D02*
X78493750Y-89638095D01*
X78446130Y-89733333D01*
X78446130Y-89971428D01*
X78493750Y-90066666D01*
X78541369Y-90114285D01*
X78636607Y-90161904D01*
X78731845Y-90161904D01*
X78874702Y-90114285D01*
X79446130Y-89542857D01*
X79446130Y-90161904D01*
%TO.C,D11*%
X79446130Y-68635714D02*
X78446130Y-68635714D01*
X78446130Y-68873809D01*
X78493750Y-69016666D01*
X78588988Y-69111904D01*
X78684226Y-69159523D01*
X78874702Y-69207142D01*
X79017559Y-69207142D01*
X79208035Y-69159523D01*
X79303273Y-69111904D01*
X79398511Y-69016666D01*
X79446130Y-68873809D01*
X79446130Y-68635714D01*
X79446130Y-70159523D02*
X79446130Y-69588095D01*
X79446130Y-69873809D02*
X78446130Y-69873809D01*
X78588988Y-69778571D01*
X78684226Y-69683333D01*
X78731845Y-69588095D01*
X79446130Y-71111904D02*
X79446130Y-70540476D01*
X79446130Y-70826190D02*
X78446130Y-70826190D01*
X78588988Y-70730952D01*
X78684226Y-70635714D01*
X78731845Y-70540476D01*
%TO.C,D10*%
X79446130Y-49585714D02*
X78446130Y-49585714D01*
X78446130Y-49823809D01*
X78493750Y-49966666D01*
X78588988Y-50061904D01*
X78684226Y-50109523D01*
X78874702Y-50157142D01*
X79017559Y-50157142D01*
X79208035Y-50109523D01*
X79303273Y-50061904D01*
X79398511Y-49966666D01*
X79446130Y-49823809D01*
X79446130Y-49585714D01*
X79446130Y-51109523D02*
X79446130Y-50538095D01*
X79446130Y-50823809D02*
X78446130Y-50823809D01*
X78588988Y-50728571D01*
X78684226Y-50633333D01*
X78731845Y-50538095D01*
X78446130Y-51728571D02*
X78446130Y-51823809D01*
X78493750Y-51919047D01*
X78541369Y-51966666D01*
X78636607Y-52014285D01*
X78827083Y-52061904D01*
X79065178Y-52061904D01*
X79255654Y-52014285D01*
X79350892Y-51966666D01*
X79398511Y-51919047D01*
X79446130Y-51823809D01*
X79446130Y-51728571D01*
X79398511Y-51633333D01*
X79350892Y-51585714D01*
X79255654Y-51538095D01*
X79065178Y-51490476D01*
X78827083Y-51490476D01*
X78636607Y-51538095D01*
X78541369Y-51585714D01*
X78493750Y-51633333D01*
X78446130Y-51728571D01*
%TO.C,D9*%
X79446130Y-31011904D02*
X78446130Y-31011904D01*
X78446130Y-31250000D01*
X78493750Y-31392857D01*
X78588988Y-31488095D01*
X78684226Y-31535714D01*
X78874702Y-31583333D01*
X79017559Y-31583333D01*
X79208035Y-31535714D01*
X79303273Y-31488095D01*
X79398511Y-31392857D01*
X79446130Y-31250000D01*
X79446130Y-31011904D01*
X79446130Y-32059523D02*
X79446130Y-32250000D01*
X79398511Y-32345238D01*
X79350892Y-32392857D01*
X79208035Y-32488095D01*
X79017559Y-32535714D01*
X78636607Y-32535714D01*
X78541369Y-32488095D01*
X78493750Y-32440476D01*
X78446130Y-32345238D01*
X78446130Y-32154761D01*
X78493750Y-32059523D01*
X78541369Y-32011904D01*
X78636607Y-31964285D01*
X78874702Y-31964285D01*
X78969940Y-32011904D01*
X79017559Y-32059523D01*
X79065178Y-32154761D01*
X79065178Y-32345238D01*
X79017559Y-32440476D01*
X78969940Y-32488095D01*
X78874702Y-32535714D01*
%TO.C,D8*%
X60396130Y-88161904D02*
X59396130Y-88161904D01*
X59396130Y-88400000D01*
X59443750Y-88542857D01*
X59538988Y-88638095D01*
X59634226Y-88685714D01*
X59824702Y-88733333D01*
X59967559Y-88733333D01*
X60158035Y-88685714D01*
X60253273Y-88638095D01*
X60348511Y-88542857D01*
X60396130Y-88400000D01*
X60396130Y-88161904D01*
X59824702Y-89304761D02*
X59777083Y-89209523D01*
X59729464Y-89161904D01*
X59634226Y-89114285D01*
X59586607Y-89114285D01*
X59491369Y-89161904D01*
X59443750Y-89209523D01*
X59396130Y-89304761D01*
X59396130Y-89495238D01*
X59443750Y-89590476D01*
X59491369Y-89638095D01*
X59586607Y-89685714D01*
X59634226Y-89685714D01*
X59729464Y-89638095D01*
X59777083Y-89590476D01*
X59824702Y-89495238D01*
X59824702Y-89304761D01*
X59872321Y-89209523D01*
X59919940Y-89161904D01*
X60015178Y-89114285D01*
X60205654Y-89114285D01*
X60300892Y-89161904D01*
X60348511Y-89209523D01*
X60396130Y-89304761D01*
X60396130Y-89495238D01*
X60348511Y-89590476D01*
X60300892Y-89638095D01*
X60205654Y-89685714D01*
X60015178Y-89685714D01*
X59919940Y-89638095D01*
X59872321Y-89590476D01*
X59824702Y-89495238D01*
%TO.C,D7*%
X60396130Y-69111904D02*
X59396130Y-69111904D01*
X59396130Y-69350000D01*
X59443750Y-69492857D01*
X59538988Y-69588095D01*
X59634226Y-69635714D01*
X59824702Y-69683333D01*
X59967559Y-69683333D01*
X60158035Y-69635714D01*
X60253273Y-69588095D01*
X60348511Y-69492857D01*
X60396130Y-69350000D01*
X60396130Y-69111904D01*
X59396130Y-70016666D02*
X59396130Y-70683333D01*
X60396130Y-70254761D01*
%TO.C,D6*%
X60396130Y-50061904D02*
X59396130Y-50061904D01*
X59396130Y-50300000D01*
X59443750Y-50442857D01*
X59538988Y-50538095D01*
X59634226Y-50585714D01*
X59824702Y-50633333D01*
X59967559Y-50633333D01*
X60158035Y-50585714D01*
X60253273Y-50538095D01*
X60348511Y-50442857D01*
X60396130Y-50300000D01*
X60396130Y-50061904D01*
X59396130Y-51490476D02*
X59396130Y-51300000D01*
X59443750Y-51204761D01*
X59491369Y-51157142D01*
X59634226Y-51061904D01*
X59824702Y-51014285D01*
X60205654Y-51014285D01*
X60300892Y-51061904D01*
X60348511Y-51109523D01*
X60396130Y-51204761D01*
X60396130Y-51395238D01*
X60348511Y-51490476D01*
X60300892Y-51538095D01*
X60205654Y-51585714D01*
X59967559Y-51585714D01*
X59872321Y-51538095D01*
X59824702Y-51490476D01*
X59777083Y-51395238D01*
X59777083Y-51204761D01*
X59824702Y-51109523D01*
X59872321Y-51061904D01*
X59967559Y-51014285D01*
%TO.C,D5*%
X60396130Y-31011904D02*
X59396130Y-31011904D01*
X59396130Y-31250000D01*
X59443750Y-31392857D01*
X59538988Y-31488095D01*
X59634226Y-31535714D01*
X59824702Y-31583333D01*
X59967559Y-31583333D01*
X60158035Y-31535714D01*
X60253273Y-31488095D01*
X60348511Y-31392857D01*
X60396130Y-31250000D01*
X60396130Y-31011904D01*
X59396130Y-32488095D02*
X59396130Y-32011904D01*
X59872321Y-31964285D01*
X59824702Y-32011904D01*
X59777083Y-32107142D01*
X59777083Y-32345238D01*
X59824702Y-32440476D01*
X59872321Y-32488095D01*
X59967559Y-32535714D01*
X60205654Y-32535714D01*
X60300892Y-32488095D01*
X60348511Y-32440476D01*
X60396130Y-32345238D01*
X60396130Y-32107142D01*
X60348511Y-32011904D01*
X60300892Y-31964285D01*
%TO.C,D4*%
X41346130Y-88161904D02*
X40346130Y-88161904D01*
X40346130Y-88400000D01*
X40393750Y-88542857D01*
X40488988Y-88638095D01*
X40584226Y-88685714D01*
X40774702Y-88733333D01*
X40917559Y-88733333D01*
X41108035Y-88685714D01*
X41203273Y-88638095D01*
X41298511Y-88542857D01*
X41346130Y-88400000D01*
X41346130Y-88161904D01*
X40679464Y-89590476D02*
X41346130Y-89590476D01*
X40298511Y-89352380D02*
X41012797Y-89114285D01*
X41012797Y-89733333D01*
%TO.C,D3*%
X41346130Y-69111904D02*
X40346130Y-69111904D01*
X40346130Y-69350000D01*
X40393750Y-69492857D01*
X40488988Y-69588095D01*
X40584226Y-69635714D01*
X40774702Y-69683333D01*
X40917559Y-69683333D01*
X41108035Y-69635714D01*
X41203273Y-69588095D01*
X41298511Y-69492857D01*
X41346130Y-69350000D01*
X41346130Y-69111904D01*
X40346130Y-70016666D02*
X40346130Y-70635714D01*
X40727083Y-70302380D01*
X40727083Y-70445238D01*
X40774702Y-70540476D01*
X40822321Y-70588095D01*
X40917559Y-70635714D01*
X41155654Y-70635714D01*
X41250892Y-70588095D01*
X41298511Y-70540476D01*
X41346130Y-70445238D01*
X41346130Y-70159523D01*
X41298511Y-70064285D01*
X41250892Y-70016666D01*
%TO.C,D2*%
X41346130Y-50061904D02*
X40346130Y-50061904D01*
X40346130Y-50300000D01*
X40393750Y-50442857D01*
X40488988Y-50538095D01*
X40584226Y-50585714D01*
X40774702Y-50633333D01*
X40917559Y-50633333D01*
X41108035Y-50585714D01*
X41203273Y-50538095D01*
X41298511Y-50442857D01*
X41346130Y-50300000D01*
X41346130Y-50061904D01*
X40441369Y-51014285D02*
X40393750Y-51061904D01*
X40346130Y-51157142D01*
X40346130Y-51395238D01*
X40393750Y-51490476D01*
X40441369Y-51538095D01*
X40536607Y-51585714D01*
X40631845Y-51585714D01*
X40774702Y-51538095D01*
X41346130Y-50966666D01*
X41346130Y-51585714D01*
%TO.C,D1*%
X41346130Y-31011904D02*
X40346130Y-31011904D01*
X40346130Y-31250000D01*
X40393750Y-31392857D01*
X40488988Y-31488095D01*
X40584226Y-31535714D01*
X40774702Y-31583333D01*
X40917559Y-31583333D01*
X41108035Y-31535714D01*
X41203273Y-31488095D01*
X41298511Y-31392857D01*
X41346130Y-31250000D01*
X41346130Y-31011904D01*
X41346130Y-32535714D02*
X41346130Y-31964285D01*
X41346130Y-32250000D02*
X40346130Y-32250000D01*
X40488988Y-32154761D01*
X40584226Y-32059523D01*
X40631845Y-31964285D01*
%TO.C,C8*%
X186348666Y-95832142D02*
X186396285Y-95879761D01*
X186539142Y-95927380D01*
X186634380Y-95927380D01*
X186777238Y-95879761D01*
X186872476Y-95784523D01*
X186920095Y-95689285D01*
X186967714Y-95498809D01*
X186967714Y-95355952D01*
X186920095Y-95165476D01*
X186872476Y-95070238D01*
X186777238Y-94975000D01*
X186634380Y-94927380D01*
X186539142Y-94927380D01*
X186396285Y-94975000D01*
X186348666Y-95022619D01*
X185777238Y-95355952D02*
X185872476Y-95308333D01*
X185920095Y-95260714D01*
X185967714Y-95165476D01*
X185967714Y-95117857D01*
X185920095Y-95022619D01*
X185872476Y-94975000D01*
X185777238Y-94927380D01*
X185586761Y-94927380D01*
X185491523Y-94975000D01*
X185443904Y-95022619D01*
X185396285Y-95117857D01*
X185396285Y-95165476D01*
X185443904Y-95260714D01*
X185491523Y-95308333D01*
X185586761Y-95355952D01*
X185777238Y-95355952D01*
X185872476Y-95403571D01*
X185920095Y-95451190D01*
X185967714Y-95546428D01*
X185967714Y-95736904D01*
X185920095Y-95832142D01*
X185872476Y-95879761D01*
X185777238Y-95927380D01*
X185586761Y-95927380D01*
X185491523Y-95879761D01*
X185443904Y-95832142D01*
X185396285Y-95736904D01*
X185396285Y-95546428D01*
X185443904Y-95451190D01*
X185491523Y-95403571D01*
X185586761Y-95355952D01*
%TO.C,C7*%
X186822142Y-109180333D02*
X186869761Y-109132714D01*
X186917380Y-108989857D01*
X186917380Y-108894619D01*
X186869761Y-108751761D01*
X186774523Y-108656523D01*
X186679285Y-108608904D01*
X186488809Y-108561285D01*
X186345952Y-108561285D01*
X186155476Y-108608904D01*
X186060238Y-108656523D01*
X185965000Y-108751761D01*
X185917380Y-108894619D01*
X185917380Y-108989857D01*
X185965000Y-109132714D01*
X186012619Y-109180333D01*
X185917380Y-109513666D02*
X185917380Y-110180333D01*
X186917380Y-109751761D01*
%TO.C,C6*%
X201623142Y-100163333D02*
X201670761Y-100115714D01*
X201718380Y-99972857D01*
X201718380Y-99877619D01*
X201670761Y-99734761D01*
X201575523Y-99639523D01*
X201480285Y-99591904D01*
X201289809Y-99544285D01*
X201146952Y-99544285D01*
X200956476Y-99591904D01*
X200861238Y-99639523D01*
X200766000Y-99734761D01*
X200718380Y-99877619D01*
X200718380Y-99972857D01*
X200766000Y-100115714D01*
X200813619Y-100163333D01*
X200718380Y-101020476D02*
X200718380Y-100830000D01*
X200766000Y-100734761D01*
X200813619Y-100687142D01*
X200956476Y-100591904D01*
X201146952Y-100544285D01*
X201527904Y-100544285D01*
X201623142Y-100591904D01*
X201670761Y-100639523D01*
X201718380Y-100734761D01*
X201718380Y-100925238D01*
X201670761Y-101020476D01*
X201623142Y-101068095D01*
X201527904Y-101115714D01*
X201289809Y-101115714D01*
X201194571Y-101068095D01*
X201146952Y-101020476D01*
X201099333Y-100925238D01*
X201099333Y-100734761D01*
X201146952Y-100639523D01*
X201194571Y-100591904D01*
X201289809Y-100544285D01*
%TO.C,C5*%
X195492666Y-95705142D02*
X195540285Y-95752761D01*
X195683142Y-95800380D01*
X195778380Y-95800380D01*
X195921238Y-95752761D01*
X196016476Y-95657523D01*
X196064095Y-95562285D01*
X196111714Y-95371809D01*
X196111714Y-95228952D01*
X196064095Y-95038476D01*
X196016476Y-94943238D01*
X195921238Y-94848000D01*
X195778380Y-94800380D01*
X195683142Y-94800380D01*
X195540285Y-94848000D01*
X195492666Y-94895619D01*
X194587904Y-94800380D02*
X195064095Y-94800380D01*
X195111714Y-95276571D01*
X195064095Y-95228952D01*
X194968857Y-95181333D01*
X194730761Y-95181333D01*
X194635523Y-95228952D01*
X194587904Y-95276571D01*
X194540285Y-95371809D01*
X194540285Y-95609904D01*
X194587904Y-95705142D01*
X194635523Y-95752761D01*
X194730761Y-95800380D01*
X194968857Y-95800380D01*
X195064095Y-95752761D01*
X195111714Y-95705142D01*
%TO.C,C4*%
X195492666Y-96906142D02*
X195540285Y-96953761D01*
X195683142Y-97001380D01*
X195778380Y-97001380D01*
X195921238Y-96953761D01*
X196016476Y-96858523D01*
X196064095Y-96763285D01*
X196111714Y-96572809D01*
X196111714Y-96429952D01*
X196064095Y-96239476D01*
X196016476Y-96144238D01*
X195921238Y-96049000D01*
X195778380Y-96001380D01*
X195683142Y-96001380D01*
X195540285Y-96049000D01*
X195492666Y-96096619D01*
X194635523Y-96334714D02*
X194635523Y-97001380D01*
X194873619Y-95953761D02*
X195111714Y-96668047D01*
X194492666Y-96668047D01*
%TO.C,C3*%
X198413666Y-114940142D02*
X198461285Y-114987761D01*
X198604142Y-115035380D01*
X198699380Y-115035380D01*
X198842238Y-114987761D01*
X198937476Y-114892523D01*
X198985095Y-114797285D01*
X199032714Y-114606809D01*
X199032714Y-114463952D01*
X198985095Y-114273476D01*
X198937476Y-114178238D01*
X198842238Y-114083000D01*
X198699380Y-114035380D01*
X198604142Y-114035380D01*
X198461285Y-114083000D01*
X198413666Y-114130619D01*
X198080333Y-114035380D02*
X197461285Y-114035380D01*
X197794619Y-114416333D01*
X197651761Y-114416333D01*
X197556523Y-114463952D01*
X197508904Y-114511571D01*
X197461285Y-114606809D01*
X197461285Y-114844904D01*
X197508904Y-114940142D01*
X197556523Y-114987761D01*
X197651761Y-115035380D01*
X197937476Y-115035380D01*
X198032714Y-114987761D01*
X198080333Y-114940142D01*
%TO.C,C2*%
X208700666Y-105796142D02*
X208748285Y-105843761D01*
X208891142Y-105891380D01*
X208986380Y-105891380D01*
X209129238Y-105843761D01*
X209224476Y-105748523D01*
X209272095Y-105653285D01*
X209319714Y-105462809D01*
X209319714Y-105319952D01*
X209272095Y-105129476D01*
X209224476Y-105034238D01*
X209129238Y-104939000D01*
X208986380Y-104891380D01*
X208891142Y-104891380D01*
X208748285Y-104939000D01*
X208700666Y-104986619D01*
X208319714Y-104986619D02*
X208272095Y-104939000D01*
X208176857Y-104891380D01*
X207938761Y-104891380D01*
X207843523Y-104939000D01*
X207795904Y-104986619D01*
X207748285Y-105081857D01*
X207748285Y-105177095D01*
X207795904Y-105319952D01*
X208367333Y-105891380D01*
X207748285Y-105891380D01*
%TO.C,C1*%
X208700666Y-108717142D02*
X208748285Y-108764761D01*
X208891142Y-108812380D01*
X208986380Y-108812380D01*
X209129238Y-108764761D01*
X209224476Y-108669523D01*
X209272095Y-108574285D01*
X209319714Y-108383809D01*
X209319714Y-108240952D01*
X209272095Y-108050476D01*
X209224476Y-107955238D01*
X209129238Y-107860000D01*
X208986380Y-107812380D01*
X208891142Y-107812380D01*
X208748285Y-107860000D01*
X208700666Y-107907619D01*
X207748285Y-108812380D02*
X208319714Y-108812380D01*
X208034000Y-108812380D02*
X208034000Y-107812380D01*
X208129238Y-107955238D01*
X208224476Y-108050476D01*
X208319714Y-108098095D01*
%TD*%
%LPC*%
%TO.C,FB1*%
G36*
G01*
X123756000Y-22282999D02*
X123756000Y-23183001D01*
G75*
G02*
X123506001Y-23433000I-249999J0D01*
G01*
X122855999Y-23433000D01*
G75*
G02*
X122606000Y-23183001I0J249999D01*
G01*
X122606000Y-22282999D01*
G75*
G02*
X122855999Y-22033000I249999J0D01*
G01*
X123506001Y-22033000D01*
G75*
G02*
X123756000Y-22282999I0J-249999D01*
G01*
G37*
G36*
G01*
X125806000Y-22282999D02*
X125806000Y-23183001D01*
G75*
G02*
X125556001Y-23433000I-249999J0D01*
G01*
X124905999Y-23433000D01*
G75*
G02*
X124656000Y-23183001I0J249999D01*
G01*
X124656000Y-22282999D01*
G75*
G02*
X124905999Y-22033000I249999J0D01*
G01*
X125556001Y-22033000D01*
G75*
G02*
X125806000Y-22282999I0J-249999D01*
G01*
G37*
%TD*%
D15*
%TO.C,MX46*%
X207486250Y-88106250D03*
X197326250Y-88106250D03*
D16*
X199906250Y-84106250D03*
D17*
X202406250Y-88106250D03*
G36*
G01*
X197844938Y-86403600D02*
X197844933Y-86403595D01*
G75*
G02*
X197758905Y-84814933I751317J837345D01*
G01*
X199068907Y-83354933D01*
G75*
G02*
X200657569Y-83268905I837345J-751317D01*
G01*
X200657569Y-83268905D01*
G75*
G02*
X200743597Y-84857567I-751317J-837345D01*
G01*
X199433595Y-86317567D01*
G75*
G02*
X197844933Y-86403595I-837345J751317D01*
G01*
G37*
D16*
X204946250Y-83026250D03*
G36*
G01*
X204829733Y-84728645D02*
X204828847Y-84728584D01*
G75*
G02*
X203783916Y-83528847I77403J1122334D01*
G01*
X203823916Y-82948847D01*
G75*
G02*
X205023653Y-81903916I1122334J-77403D01*
G01*
X205023653Y-81903916D01*
G75*
G02*
X206068584Y-83103653I-77403J-1122334D01*
G01*
X206028584Y-83683653D01*
G75*
G02*
X204828847Y-84728584I-1122334J77403D01*
G01*
G37*
%TD*%
D15*
%TO.C,MX18*%
X83661250Y-107156250D03*
X73501250Y-107156250D03*
D16*
X76081250Y-103156250D03*
D17*
X78581250Y-107156250D03*
G36*
G01*
X74019938Y-105453600D02*
X74019933Y-105453595D01*
G75*
G02*
X73933905Y-103864933I751317J837345D01*
G01*
X75243907Y-102404933D01*
G75*
G02*
X76832569Y-102318905I837345J-751317D01*
G01*
X76832569Y-102318905D01*
G75*
G02*
X76918597Y-103907567I-751317J-837345D01*
G01*
X75608595Y-105367567D01*
G75*
G02*
X74019933Y-105453595I-837345J751317D01*
G01*
G37*
D16*
X81121250Y-102076250D03*
G36*
G01*
X81004733Y-103778645D02*
X81003847Y-103778584D01*
G75*
G02*
X79958916Y-102578847I77403J1122334D01*
G01*
X79998916Y-101998847D01*
G75*
G02*
X81198653Y-100953916I1122334J-77403D01*
G01*
X81198653Y-100953916D01*
G75*
G02*
X82243584Y-102153653I-77403J-1122334D01*
G01*
X82203584Y-102733653D01*
G75*
G02*
X81003847Y-103778584I-1122334J77403D01*
G01*
G37*
%TD*%
D15*
%TO.C,MX19*%
X112236250Y-30956250D03*
X102076250Y-30956250D03*
D16*
X104656250Y-26956250D03*
D17*
X107156250Y-30956250D03*
G36*
G01*
X102594938Y-29253600D02*
X102594933Y-29253595D01*
G75*
G02*
X102508905Y-27664933I751317J837345D01*
G01*
X103818907Y-26204933D01*
G75*
G02*
X105407569Y-26118905I837345J-751317D01*
G01*
X105407569Y-26118905D01*
G75*
G02*
X105493597Y-27707567I-751317J-837345D01*
G01*
X104183595Y-29167567D01*
G75*
G02*
X102594933Y-29253595I-837345J751317D01*
G01*
G37*
D16*
X109696250Y-25876250D03*
G36*
G01*
X109579733Y-27578645D02*
X109578847Y-27578584D01*
G75*
G02*
X108533916Y-26378847I77403J1122334D01*
G01*
X108573916Y-25798847D01*
G75*
G02*
X109773653Y-24753916I1122334J-77403D01*
G01*
X109773653Y-24753916D01*
G75*
G02*
X110818584Y-25953653I-77403J-1122334D01*
G01*
X110778584Y-26533653D01*
G75*
G02*
X109578847Y-27578584I-1122334J77403D01*
G01*
G37*
%TD*%
D15*
%TO.C,MX24*%
X131286250Y-30956250D03*
X121126250Y-30956250D03*
D16*
X123706250Y-26956250D03*
D17*
X126206250Y-30956250D03*
G36*
G01*
X121644938Y-29253600D02*
X121644933Y-29253595D01*
G75*
G02*
X121558905Y-27664933I751317J837345D01*
G01*
X122868907Y-26204933D01*
G75*
G02*
X124457569Y-26118905I837345J-751317D01*
G01*
X124457569Y-26118905D01*
G75*
G02*
X124543597Y-27707567I-751317J-837345D01*
G01*
X123233595Y-29167567D01*
G75*
G02*
X121644933Y-29253595I-837345J751317D01*
G01*
G37*
D16*
X128746250Y-25876250D03*
G36*
G01*
X128629733Y-27578645D02*
X128628847Y-27578584D01*
G75*
G02*
X127583916Y-26378847I77403J1122334D01*
G01*
X127623916Y-25798847D01*
G75*
G02*
X128823653Y-24753916I1122334J-77403D01*
G01*
X128823653Y-24753916D01*
G75*
G02*
X129868584Y-25953653I-77403J-1122334D01*
G01*
X129828584Y-26533653D01*
G75*
G02*
X128628847Y-27578584I-1122334J77403D01*
G01*
G37*
%TD*%
D15*
%TO.C,MX42*%
X188436250Y-88106250D03*
X178276250Y-88106250D03*
D16*
X180856250Y-84106250D03*
D17*
X183356250Y-88106250D03*
G36*
G01*
X178794938Y-86403600D02*
X178794933Y-86403595D01*
G75*
G02*
X178708905Y-84814933I751317J837345D01*
G01*
X180018907Y-83354933D01*
G75*
G02*
X181607569Y-83268905I837345J-751317D01*
G01*
X181607569Y-83268905D01*
G75*
G02*
X181693597Y-84857567I-751317J-837345D01*
G01*
X180383595Y-86317567D01*
G75*
G02*
X178794933Y-86403595I-837345J751317D01*
G01*
G37*
D16*
X185896250Y-83026250D03*
G36*
G01*
X185779733Y-84728645D02*
X185778847Y-84728584D01*
G75*
G02*
X184733916Y-83528847I77403J1122334D01*
G01*
X184773916Y-82948847D01*
G75*
G02*
X185973653Y-81903916I1122334J-77403D01*
G01*
X185973653Y-81903916D01*
G75*
G02*
X187018584Y-83103653I-77403J-1122334D01*
G01*
X186978584Y-83683653D01*
G75*
G02*
X185778847Y-84728584I-1122334J77403D01*
G01*
G37*
%TD*%
D15*
%TO.C,MX39*%
X188436250Y-30956250D03*
X178276250Y-30956250D03*
D16*
X180856250Y-26956250D03*
D17*
X183356250Y-30956250D03*
G36*
G01*
X178794938Y-29253600D02*
X178794933Y-29253595D01*
G75*
G02*
X178708905Y-27664933I751317J837345D01*
G01*
X180018907Y-26204933D01*
G75*
G02*
X181607569Y-26118905I837345J-751317D01*
G01*
X181607569Y-26118905D01*
G75*
G02*
X181693597Y-27707567I-751317J-837345D01*
G01*
X180383595Y-29167567D01*
G75*
G02*
X178794933Y-29253595I-837345J751317D01*
G01*
G37*
D16*
X185896250Y-25876250D03*
G36*
G01*
X185779733Y-27578645D02*
X185778847Y-27578584D01*
G75*
G02*
X184733916Y-26378847I77403J1122334D01*
G01*
X184773916Y-25798847D01*
G75*
G02*
X185973653Y-24753916I1122334J-77403D01*
G01*
X185973653Y-24753916D01*
G75*
G02*
X187018584Y-25953653I-77403J-1122334D01*
G01*
X186978584Y-26533653D01*
G75*
G02*
X185778847Y-27578584I-1122334J77403D01*
G01*
G37*
%TD*%
D18*
%TO.C,Y1*%
X203066000Y-106606000D03*
X203066000Y-103706000D03*
X205366000Y-103706000D03*
X205366000Y-106606000D03*
%TD*%
D19*
%TO.C,USB1*%
X119906250Y-24070000D03*
X113456250Y-24070000D03*
X119131250Y-24070000D03*
X114231250Y-24070000D03*
D20*
X114931250Y-24070000D03*
X118431250Y-24070000D03*
X115431250Y-24070000D03*
X117931250Y-24070000D03*
X115931250Y-24070000D03*
X117431250Y-24070000D03*
X116931250Y-24070000D03*
X116431250Y-24070000D03*
D21*
X119571250Y-22125000D03*
X113791250Y-22125000D03*
%TD*%
D22*
%TO.C,U2*%
X118507000Y-38891250D03*
X120507000Y-38891250D03*
X118507000Y-36991250D03*
D23*
X120507000Y-37191250D03*
%TD*%
D24*
%TO.C,U1*%
X188659000Y-99329000D03*
X189459000Y-99329000D03*
X190259000Y-99329000D03*
X191059000Y-99329000D03*
X191859000Y-99329000D03*
X192659000Y-99329000D03*
X193459000Y-99329000D03*
X194259000Y-99329000D03*
X195059000Y-99329000D03*
X195859000Y-99329000D03*
X196659000Y-99329000D03*
D25*
X198359000Y-101029000D03*
X198359000Y-101829000D03*
X198359000Y-102629000D03*
X198359000Y-103429000D03*
X198359000Y-104229000D03*
X198359000Y-105029000D03*
X198359000Y-105829000D03*
X198359000Y-106629000D03*
X198359000Y-107429000D03*
X198359000Y-108229000D03*
X198359000Y-109029000D03*
D24*
X196659000Y-110729000D03*
X195859000Y-110729000D03*
X195059000Y-110729000D03*
X194259000Y-110729000D03*
X193459000Y-110729000D03*
X192659000Y-110729000D03*
X191859000Y-110729000D03*
X191059000Y-110729000D03*
X190259000Y-110729000D03*
X189459000Y-110729000D03*
X188659000Y-110729000D03*
D25*
X186959000Y-109029000D03*
X186959000Y-108229000D03*
X186959000Y-107429000D03*
X186959000Y-106629000D03*
X186959000Y-105829000D03*
X186959000Y-105029000D03*
X186959000Y-104229000D03*
X186959000Y-103429000D03*
X186959000Y-102629000D03*
X186959000Y-101829000D03*
X186959000Y-101029000D03*
%TD*%
D26*
%TO.C,SW1*%
X210237000Y-92765000D03*
X204037000Y-92765000D03*
X210237000Y-96465000D03*
X204037000Y-96465000D03*
%TD*%
%TO.C,R6*%
G36*
G01*
X192157001Y-97358000D02*
X191256999Y-97358000D01*
G75*
G02*
X191007000Y-97108001I0J249999D01*
G01*
X191007000Y-96407999D01*
G75*
G02*
X191256999Y-96158000I249999J0D01*
G01*
X192157001Y-96158000D01*
G75*
G02*
X192407000Y-96407999I0J-249999D01*
G01*
X192407000Y-97108001D01*
G75*
G02*
X192157001Y-97358000I-249999J0D01*
G01*
G37*
G36*
G01*
X192157001Y-95358000D02*
X191256999Y-95358000D01*
G75*
G02*
X191007000Y-95108001I0J249999D01*
G01*
X191007000Y-94407999D01*
G75*
G02*
X191256999Y-94158000I249999J0D01*
G01*
X192157001Y-94158000D01*
G75*
G02*
X192407000Y-94407999I0J-249999D01*
G01*
X192407000Y-95108001D01*
G75*
G02*
X192157001Y-95358000I-249999J0D01*
G01*
G37*
%TD*%
%TO.C,R5*%
G36*
G01*
X190061001Y-97358000D02*
X189160999Y-97358000D01*
G75*
G02*
X188911000Y-97108001I0J249999D01*
G01*
X188911000Y-96407999D01*
G75*
G02*
X189160999Y-96158000I249999J0D01*
G01*
X190061001Y-96158000D01*
G75*
G02*
X190311000Y-96407999I0J-249999D01*
G01*
X190311000Y-97108001D01*
G75*
G02*
X190061001Y-97358000I-249999J0D01*
G01*
G37*
G36*
G01*
X190061001Y-95358000D02*
X189160999Y-95358000D01*
G75*
G02*
X188911000Y-95108001I0J249999D01*
G01*
X188911000Y-94407999D01*
G75*
G02*
X189160999Y-94158000I249999J0D01*
G01*
X190061001Y-94158000D01*
G75*
G02*
X190311000Y-94407999I0J-249999D01*
G01*
X190311000Y-95108001D01*
G75*
G02*
X190061001Y-95358000I-249999J0D01*
G01*
G37*
%TD*%
%TO.C,R4*%
G36*
G01*
X113900000Y-33681249D02*
X113900000Y-34581251D01*
G75*
G02*
X113650001Y-34831250I-249999J0D01*
G01*
X112949999Y-34831250D01*
G75*
G02*
X112700000Y-34581251I0J249999D01*
G01*
X112700000Y-33681249D01*
G75*
G02*
X112949999Y-33431250I249999J0D01*
G01*
X113650001Y-33431250D01*
G75*
G02*
X113900000Y-33681249I0J-249999D01*
G01*
G37*
G36*
G01*
X115900000Y-33681249D02*
X115900000Y-34581251D01*
G75*
G02*
X115650001Y-34831250I-249999J0D01*
G01*
X114949999Y-34831250D01*
G75*
G02*
X114700000Y-34581251I0J249999D01*
G01*
X114700000Y-33681249D01*
G75*
G02*
X114949999Y-33431250I249999J0D01*
G01*
X115650001Y-33431250D01*
G75*
G02*
X115900000Y-33681249I0J-249999D01*
G01*
G37*
%TD*%
%TO.C,R3*%
G36*
G01*
X122955000Y-34581251D02*
X122955000Y-33681249D01*
G75*
G02*
X123204999Y-33431250I249999J0D01*
G01*
X123905001Y-33431250D01*
G75*
G02*
X124155000Y-33681249I0J-249999D01*
G01*
X124155000Y-34581251D01*
G75*
G02*
X123905001Y-34831250I-249999J0D01*
G01*
X123204999Y-34831250D01*
G75*
G02*
X122955000Y-34581251I0J249999D01*
G01*
G37*
G36*
G01*
X120955000Y-34581251D02*
X120955000Y-33681249D01*
G75*
G02*
X121204999Y-33431250I249999J0D01*
G01*
X121905001Y-33431250D01*
G75*
G02*
X122155000Y-33681249I0J-249999D01*
G01*
X122155000Y-34581251D01*
G75*
G02*
X121905001Y-34831250I-249999J0D01*
G01*
X121204999Y-34831250D01*
G75*
G02*
X120955000Y-34581251I0J249999D01*
G01*
G37*
%TD*%
%TO.C,R2*%
G36*
G01*
X179248000Y-111448001D02*
X179248000Y-110547999D01*
G75*
G02*
X179497999Y-110298000I249999J0D01*
G01*
X180198001Y-110298000D01*
G75*
G02*
X180448000Y-110547999I0J-249999D01*
G01*
X180448000Y-111448001D01*
G75*
G02*
X180198001Y-111698000I-249999J0D01*
G01*
X179497999Y-111698000D01*
G75*
G02*
X179248000Y-111448001I0J249999D01*
G01*
G37*
G36*
G01*
X181248000Y-111448001D02*
X181248000Y-110547999D01*
G75*
G02*
X181497999Y-110298000I249999J0D01*
G01*
X182198001Y-110298000D01*
G75*
G02*
X182448000Y-110547999I0J-249999D01*
G01*
X182448000Y-111448001D01*
G75*
G02*
X182198001Y-111698000I-249999J0D01*
G01*
X181497999Y-111698000D01*
G75*
G02*
X181248000Y-111448001I0J249999D01*
G01*
G37*
%TD*%
%TO.C,R1*%
G36*
G01*
X201498000Y-96831999D02*
X201498000Y-97732001D01*
G75*
G02*
X201248001Y-97982000I-249999J0D01*
G01*
X200547999Y-97982000D01*
G75*
G02*
X200298000Y-97732001I0J249999D01*
G01*
X200298000Y-96831999D01*
G75*
G02*
X200547999Y-96582000I249999J0D01*
G01*
X201248001Y-96582000D01*
G75*
G02*
X201498000Y-96831999I0J-249999D01*
G01*
G37*
G36*
G01*
X199498000Y-96831999D02*
X199498000Y-97732001D01*
G75*
G02*
X199248001Y-97982000I-249999J0D01*
G01*
X198547999Y-97982000D01*
G75*
G02*
X198298000Y-97732001I0J249999D01*
G01*
X198298000Y-96831999D01*
G75*
G02*
X198547999Y-96582000I249999J0D01*
G01*
X199248001Y-96582000D01*
G75*
G02*
X199498000Y-96831999I0J-249999D01*
G01*
G37*
%TD*%
D15*
%TO.C,MX45*%
X207486250Y-69056250D03*
X197326250Y-69056250D03*
D16*
X199906250Y-65056250D03*
D17*
X202406250Y-69056250D03*
G36*
G01*
X197844938Y-67353600D02*
X197844933Y-67353595D01*
G75*
G02*
X197758905Y-65764933I751317J837345D01*
G01*
X199068907Y-64304933D01*
G75*
G02*
X200657569Y-64218905I837345J-751317D01*
G01*
X200657569Y-64218905D01*
G75*
G02*
X200743597Y-65807567I-751317J-837345D01*
G01*
X199433595Y-67267567D01*
G75*
G02*
X197844933Y-67353595I-837345J751317D01*
G01*
G37*
D16*
X204946250Y-63976250D03*
G36*
G01*
X204829733Y-65678645D02*
X204828847Y-65678584D01*
G75*
G02*
X203783916Y-64478847I77403J1122334D01*
G01*
X203823916Y-63898847D01*
G75*
G02*
X205023653Y-62853916I1122334J-77403D01*
G01*
X205023653Y-62853916D01*
G75*
G02*
X206068584Y-64053653I-77403J-1122334D01*
G01*
X206028584Y-64633653D01*
G75*
G02*
X204828847Y-65678584I-1122334J77403D01*
G01*
G37*
%TD*%
D15*
%TO.C,MX44*%
X207486250Y-50006250D03*
X197326250Y-50006250D03*
D16*
X199906250Y-46006250D03*
D17*
X202406250Y-50006250D03*
G36*
G01*
X197844938Y-48303600D02*
X197844933Y-48303595D01*
G75*
G02*
X197758905Y-46714933I751317J837345D01*
G01*
X199068907Y-45254933D01*
G75*
G02*
X200657569Y-45168905I837345J-751317D01*
G01*
X200657569Y-45168905D01*
G75*
G02*
X200743597Y-46757567I-751317J-837345D01*
G01*
X199433595Y-48217567D01*
G75*
G02*
X197844933Y-48303595I-837345J751317D01*
G01*
G37*
D16*
X204946250Y-44926250D03*
G36*
G01*
X204829733Y-46628645D02*
X204828847Y-46628584D01*
G75*
G02*
X203783916Y-45428847I77403J1122334D01*
G01*
X203823916Y-44848847D01*
G75*
G02*
X205023653Y-43803916I1122334J-77403D01*
G01*
X205023653Y-43803916D01*
G75*
G02*
X206068584Y-45003653I-77403J-1122334D01*
G01*
X206028584Y-45583653D01*
G75*
G02*
X204828847Y-46628584I-1122334J77403D01*
G01*
G37*
%TD*%
D15*
%TO.C,MX43*%
X207486250Y-30956250D03*
X197326250Y-30956250D03*
D16*
X199906250Y-26956250D03*
D17*
X202406250Y-30956250D03*
G36*
G01*
X197844938Y-29253600D02*
X197844933Y-29253595D01*
G75*
G02*
X197758905Y-27664933I751317J837345D01*
G01*
X199068907Y-26204933D01*
G75*
G02*
X200657569Y-26118905I837345J-751317D01*
G01*
X200657569Y-26118905D01*
G75*
G02*
X200743597Y-27707567I-751317J-837345D01*
G01*
X199433595Y-29167567D01*
G75*
G02*
X197844933Y-29253595I-837345J751317D01*
G01*
G37*
D16*
X204946250Y-25876250D03*
G36*
G01*
X204829733Y-27578645D02*
X204828847Y-27578584D01*
G75*
G02*
X203783916Y-26378847I77403J1122334D01*
G01*
X203823916Y-25798847D01*
G75*
G02*
X205023653Y-24753916I1122334J-77403D01*
G01*
X205023653Y-24753916D01*
G75*
G02*
X206068584Y-25953653I-77403J-1122334D01*
G01*
X206028584Y-26533653D01*
G75*
G02*
X204828847Y-27578584I-1122334J77403D01*
G01*
G37*
%TD*%
D15*
%TO.C,MX41*%
X188436250Y-69056250D03*
X178276250Y-69056250D03*
D16*
X180856250Y-65056250D03*
D17*
X183356250Y-69056250D03*
G36*
G01*
X178794938Y-67353600D02*
X178794933Y-67353595D01*
G75*
G02*
X178708905Y-65764933I751317J837345D01*
G01*
X180018907Y-64304933D01*
G75*
G02*
X181607569Y-64218905I837345J-751317D01*
G01*
X181607569Y-64218905D01*
G75*
G02*
X181693597Y-65807567I-751317J-837345D01*
G01*
X180383595Y-67267567D01*
G75*
G02*
X178794933Y-67353595I-837345J751317D01*
G01*
G37*
D16*
X185896250Y-63976250D03*
G36*
G01*
X185779733Y-65678645D02*
X185778847Y-65678584D01*
G75*
G02*
X184733916Y-64478847I77403J1122334D01*
G01*
X184773916Y-63898847D01*
G75*
G02*
X185973653Y-62853916I1122334J-77403D01*
G01*
X185973653Y-62853916D01*
G75*
G02*
X187018584Y-64053653I-77403J-1122334D01*
G01*
X186978584Y-64633653D01*
G75*
G02*
X185778847Y-65678584I-1122334J77403D01*
G01*
G37*
%TD*%
D15*
%TO.C,MX40*%
X188436250Y-50006250D03*
X178276250Y-50006250D03*
D16*
X180856250Y-46006250D03*
D17*
X183356250Y-50006250D03*
G36*
G01*
X178794938Y-48303600D02*
X178794933Y-48303595D01*
G75*
G02*
X178708905Y-46714933I751317J837345D01*
G01*
X180018907Y-45254933D01*
G75*
G02*
X181607569Y-45168905I837345J-751317D01*
G01*
X181607569Y-45168905D01*
G75*
G02*
X181693597Y-46757567I-751317J-837345D01*
G01*
X180383595Y-48217567D01*
G75*
G02*
X178794933Y-48303595I-837345J751317D01*
G01*
G37*
D16*
X185896250Y-44926250D03*
G36*
G01*
X185779733Y-46628645D02*
X185778847Y-46628584D01*
G75*
G02*
X184733916Y-45428847I77403J1122334D01*
G01*
X184773916Y-44848847D01*
G75*
G02*
X185973653Y-43803916I1122334J-77403D01*
G01*
X185973653Y-43803916D01*
G75*
G02*
X187018584Y-45003653I-77403J-1122334D01*
G01*
X186978584Y-45583653D01*
G75*
G02*
X185778847Y-46628584I-1122334J77403D01*
G01*
G37*
%TD*%
D15*
%TO.C,MX38*%
X178911250Y-107156250D03*
X168751250Y-107156250D03*
D16*
X171331250Y-103156250D03*
D17*
X173831250Y-107156250D03*
G36*
G01*
X169269938Y-105453600D02*
X169269933Y-105453595D01*
G75*
G02*
X169183905Y-103864933I751317J837345D01*
G01*
X170493907Y-102404933D01*
G75*
G02*
X172082569Y-102318905I837345J-751317D01*
G01*
X172082569Y-102318905D01*
G75*
G02*
X172168597Y-103907567I-751317J-837345D01*
G01*
X170858595Y-105367567D01*
G75*
G02*
X169269933Y-105453595I-837345J751317D01*
G01*
G37*
D16*
X176371250Y-102076250D03*
G36*
G01*
X176254733Y-103778645D02*
X176253847Y-103778584D01*
G75*
G02*
X175208916Y-102578847I77403J1122334D01*
G01*
X175248916Y-101998847D01*
G75*
G02*
X176448653Y-100953916I1122334J-77403D01*
G01*
X176448653Y-100953916D01*
G75*
G02*
X177493584Y-102153653I-77403J-1122334D01*
G01*
X177453584Y-102733653D01*
G75*
G02*
X176253847Y-103778584I-1122334J77403D01*
G01*
G37*
%TD*%
D15*
%TO.C,MX37*%
X169386250Y-88106250D03*
X159226250Y-88106250D03*
D16*
X161806250Y-84106250D03*
D17*
X164306250Y-88106250D03*
G36*
G01*
X159744938Y-86403600D02*
X159744933Y-86403595D01*
G75*
G02*
X159658905Y-84814933I751317J837345D01*
G01*
X160968907Y-83354933D01*
G75*
G02*
X162557569Y-83268905I837345J-751317D01*
G01*
X162557569Y-83268905D01*
G75*
G02*
X162643597Y-84857567I-751317J-837345D01*
G01*
X161333595Y-86317567D01*
G75*
G02*
X159744933Y-86403595I-837345J751317D01*
G01*
G37*
D16*
X166846250Y-83026250D03*
G36*
G01*
X166729733Y-84728645D02*
X166728847Y-84728584D01*
G75*
G02*
X165683916Y-83528847I77403J1122334D01*
G01*
X165723916Y-82948847D01*
G75*
G02*
X166923653Y-81903916I1122334J-77403D01*
G01*
X166923653Y-81903916D01*
G75*
G02*
X167968584Y-83103653I-77403J-1122334D01*
G01*
X167928584Y-83683653D01*
G75*
G02*
X166728847Y-84728584I-1122334J77403D01*
G01*
G37*
%TD*%
D15*
%TO.C,MX36*%
X169386250Y-69056250D03*
X159226250Y-69056250D03*
D16*
X161806250Y-65056250D03*
D17*
X164306250Y-69056250D03*
G36*
G01*
X159744938Y-67353600D02*
X159744933Y-67353595D01*
G75*
G02*
X159658905Y-65764933I751317J837345D01*
G01*
X160968907Y-64304933D01*
G75*
G02*
X162557569Y-64218905I837345J-751317D01*
G01*
X162557569Y-64218905D01*
G75*
G02*
X162643597Y-65807567I-751317J-837345D01*
G01*
X161333595Y-67267567D01*
G75*
G02*
X159744933Y-67353595I-837345J751317D01*
G01*
G37*
D16*
X166846250Y-63976250D03*
G36*
G01*
X166729733Y-65678645D02*
X166728847Y-65678584D01*
G75*
G02*
X165683916Y-64478847I77403J1122334D01*
G01*
X165723916Y-63898847D01*
G75*
G02*
X166923653Y-62853916I1122334J-77403D01*
G01*
X166923653Y-62853916D01*
G75*
G02*
X167968584Y-64053653I-77403J-1122334D01*
G01*
X167928584Y-64633653D01*
G75*
G02*
X166728847Y-65678584I-1122334J77403D01*
G01*
G37*
%TD*%
D15*
%TO.C,MX35*%
X169386250Y-50006250D03*
X159226250Y-50006250D03*
D16*
X161806250Y-46006250D03*
D17*
X164306250Y-50006250D03*
G36*
G01*
X159744938Y-48303600D02*
X159744933Y-48303595D01*
G75*
G02*
X159658905Y-46714933I751317J837345D01*
G01*
X160968907Y-45254933D01*
G75*
G02*
X162557569Y-45168905I837345J-751317D01*
G01*
X162557569Y-45168905D01*
G75*
G02*
X162643597Y-46757567I-751317J-837345D01*
G01*
X161333595Y-48217567D01*
G75*
G02*
X159744933Y-48303595I-837345J751317D01*
G01*
G37*
D16*
X166846250Y-44926250D03*
G36*
G01*
X166729733Y-46628645D02*
X166728847Y-46628584D01*
G75*
G02*
X165683916Y-45428847I77403J1122334D01*
G01*
X165723916Y-44848847D01*
G75*
G02*
X166923653Y-43803916I1122334J-77403D01*
G01*
X166923653Y-43803916D01*
G75*
G02*
X167968584Y-45003653I-77403J-1122334D01*
G01*
X167928584Y-45583653D01*
G75*
G02*
X166728847Y-46628584I-1122334J77403D01*
G01*
G37*
%TD*%
D15*
%TO.C,MX34*%
X169386250Y-30956250D03*
X159226250Y-30956250D03*
D16*
X161806250Y-26956250D03*
D17*
X164306250Y-30956250D03*
G36*
G01*
X159744938Y-29253600D02*
X159744933Y-29253595D01*
G75*
G02*
X159658905Y-27664933I751317J837345D01*
G01*
X160968907Y-26204933D01*
G75*
G02*
X162557569Y-26118905I837345J-751317D01*
G01*
X162557569Y-26118905D01*
G75*
G02*
X162643597Y-27707567I-751317J-837345D01*
G01*
X161333595Y-29167567D01*
G75*
G02*
X159744933Y-29253595I-837345J751317D01*
G01*
G37*
D16*
X166846250Y-25876250D03*
G36*
G01*
X166729733Y-27578645D02*
X166728847Y-27578584D01*
G75*
G02*
X165683916Y-26378847I77403J1122334D01*
G01*
X165723916Y-25798847D01*
G75*
G02*
X166923653Y-24753916I1122334J-77403D01*
G01*
X166923653Y-24753916D01*
G75*
G02*
X167968584Y-25953653I-77403J-1122334D01*
G01*
X167928584Y-26533653D01*
G75*
G02*
X166728847Y-27578584I-1122334J77403D01*
G01*
G37*
%TD*%
D15*
%TO.C,MX33*%
X159861250Y-107156250D03*
X149701250Y-107156250D03*
D16*
X152281250Y-103156250D03*
D17*
X154781250Y-107156250D03*
G36*
G01*
X150219938Y-105453600D02*
X150219933Y-105453595D01*
G75*
G02*
X150133905Y-103864933I751317J837345D01*
G01*
X151443907Y-102404933D01*
G75*
G02*
X153032569Y-102318905I837345J-751317D01*
G01*
X153032569Y-102318905D01*
G75*
G02*
X153118597Y-103907567I-751317J-837345D01*
G01*
X151808595Y-105367567D01*
G75*
G02*
X150219933Y-105453595I-837345J751317D01*
G01*
G37*
D16*
X157321250Y-102076250D03*
G36*
G01*
X157204733Y-103778645D02*
X157203847Y-103778584D01*
G75*
G02*
X156158916Y-102578847I77403J1122334D01*
G01*
X156198916Y-101998847D01*
G75*
G02*
X157398653Y-100953916I1122334J-77403D01*
G01*
X157398653Y-100953916D01*
G75*
G02*
X158443584Y-102153653I-77403J-1122334D01*
G01*
X158403584Y-102733653D01*
G75*
G02*
X157203847Y-103778584I-1122334J77403D01*
G01*
G37*
%TD*%
D15*
%TO.C,MX32*%
X150336250Y-88106250D03*
X140176250Y-88106250D03*
D16*
X142756250Y-84106250D03*
D17*
X145256250Y-88106250D03*
G36*
G01*
X140694938Y-86403600D02*
X140694933Y-86403595D01*
G75*
G02*
X140608905Y-84814933I751317J837345D01*
G01*
X141918907Y-83354933D01*
G75*
G02*
X143507569Y-83268905I837345J-751317D01*
G01*
X143507569Y-83268905D01*
G75*
G02*
X143593597Y-84857567I-751317J-837345D01*
G01*
X142283595Y-86317567D01*
G75*
G02*
X140694933Y-86403595I-837345J751317D01*
G01*
G37*
D16*
X147796250Y-83026250D03*
G36*
G01*
X147679733Y-84728645D02*
X147678847Y-84728584D01*
G75*
G02*
X146633916Y-83528847I77403J1122334D01*
G01*
X146673916Y-82948847D01*
G75*
G02*
X147873653Y-81903916I1122334J-77403D01*
G01*
X147873653Y-81903916D01*
G75*
G02*
X148918584Y-83103653I-77403J-1122334D01*
G01*
X148878584Y-83683653D01*
G75*
G02*
X147678847Y-84728584I-1122334J77403D01*
G01*
G37*
%TD*%
D15*
%TO.C,MX31*%
X150336250Y-69056250D03*
X140176250Y-69056250D03*
D16*
X142756250Y-65056250D03*
D17*
X145256250Y-69056250D03*
G36*
G01*
X140694938Y-67353600D02*
X140694933Y-67353595D01*
G75*
G02*
X140608905Y-65764933I751317J837345D01*
G01*
X141918907Y-64304933D01*
G75*
G02*
X143507569Y-64218905I837345J-751317D01*
G01*
X143507569Y-64218905D01*
G75*
G02*
X143593597Y-65807567I-751317J-837345D01*
G01*
X142283595Y-67267567D01*
G75*
G02*
X140694933Y-67353595I-837345J751317D01*
G01*
G37*
D16*
X147796250Y-63976250D03*
G36*
G01*
X147679733Y-65678645D02*
X147678847Y-65678584D01*
G75*
G02*
X146633916Y-64478847I77403J1122334D01*
G01*
X146673916Y-63898847D01*
G75*
G02*
X147873653Y-62853916I1122334J-77403D01*
G01*
X147873653Y-62853916D01*
G75*
G02*
X148918584Y-64053653I-77403J-1122334D01*
G01*
X148878584Y-64633653D01*
G75*
G02*
X147678847Y-65678584I-1122334J77403D01*
G01*
G37*
%TD*%
D15*
%TO.C,MX30*%
X150336250Y-50006250D03*
X140176250Y-50006250D03*
D16*
X142756250Y-46006250D03*
D17*
X145256250Y-50006250D03*
G36*
G01*
X140694938Y-48303600D02*
X140694933Y-48303595D01*
G75*
G02*
X140608905Y-46714933I751317J837345D01*
G01*
X141918907Y-45254933D01*
G75*
G02*
X143507569Y-45168905I837345J-751317D01*
G01*
X143507569Y-45168905D01*
G75*
G02*
X143593597Y-46757567I-751317J-837345D01*
G01*
X142283595Y-48217567D01*
G75*
G02*
X140694933Y-48303595I-837345J751317D01*
G01*
G37*
D16*
X147796250Y-44926250D03*
G36*
G01*
X147679733Y-46628645D02*
X147678847Y-46628584D01*
G75*
G02*
X146633916Y-45428847I77403J1122334D01*
G01*
X146673916Y-44848847D01*
G75*
G02*
X147873653Y-43803916I1122334J-77403D01*
G01*
X147873653Y-43803916D01*
G75*
G02*
X148918584Y-45003653I-77403J-1122334D01*
G01*
X148878584Y-45583653D01*
G75*
G02*
X147678847Y-46628584I-1122334J77403D01*
G01*
G37*
%TD*%
D15*
%TO.C,MX29*%
X150336250Y-30956250D03*
X140176250Y-30956250D03*
D16*
X142756250Y-26956250D03*
D17*
X145256250Y-30956250D03*
G36*
G01*
X140694938Y-29253600D02*
X140694933Y-29253595D01*
G75*
G02*
X140608905Y-27664933I751317J837345D01*
G01*
X141918907Y-26204933D01*
G75*
G02*
X143507569Y-26118905I837345J-751317D01*
G01*
X143507569Y-26118905D01*
G75*
G02*
X143593597Y-27707567I-751317J-837345D01*
G01*
X142283595Y-29167567D01*
G75*
G02*
X140694933Y-29253595I-837345J751317D01*
G01*
G37*
D16*
X147796250Y-25876250D03*
G36*
G01*
X147679733Y-27578645D02*
X147678847Y-27578584D01*
G75*
G02*
X146633916Y-26378847I77403J1122334D01*
G01*
X146673916Y-25798847D01*
G75*
G02*
X147873653Y-24753916I1122334J-77403D01*
G01*
X147873653Y-24753916D01*
G75*
G02*
X148918584Y-25953653I-77403J-1122334D01*
G01*
X148878584Y-26533653D01*
G75*
G02*
X147678847Y-27578584I-1122334J77403D01*
G01*
G37*
%TD*%
D15*
%TO.C,MX28*%
X136048750Y-107156250D03*
X125888750Y-107156250D03*
D16*
X128468750Y-103156250D03*
D17*
X130968750Y-107156250D03*
G36*
G01*
X126407438Y-105453600D02*
X126407433Y-105453595D01*
G75*
G02*
X126321405Y-103864933I751317J837345D01*
G01*
X127631407Y-102404933D01*
G75*
G02*
X129220069Y-102318905I837345J-751317D01*
G01*
X129220069Y-102318905D01*
G75*
G02*
X129306097Y-103907567I-751317J-837345D01*
G01*
X127996095Y-105367567D01*
G75*
G02*
X126407433Y-105453595I-837345J751317D01*
G01*
G37*
D16*
X133508750Y-102076250D03*
G36*
G01*
X133392233Y-103778645D02*
X133391347Y-103778584D01*
G75*
G02*
X132346416Y-102578847I77403J1122334D01*
G01*
X132386416Y-101998847D01*
G75*
G02*
X133586153Y-100953916I1122334J-77403D01*
G01*
X133586153Y-100953916D01*
G75*
G02*
X134631084Y-102153653I-77403J-1122334D01*
G01*
X134591084Y-102733653D01*
G75*
G02*
X133391347Y-103778584I-1122334J77403D01*
G01*
G37*
%TD*%
D15*
%TO.C,MX27*%
X131286250Y-88106250D03*
X121126250Y-88106250D03*
D16*
X123706250Y-84106250D03*
D17*
X126206250Y-88106250D03*
G36*
G01*
X121644938Y-86403600D02*
X121644933Y-86403595D01*
G75*
G02*
X121558905Y-84814933I751317J837345D01*
G01*
X122868907Y-83354933D01*
G75*
G02*
X124457569Y-83268905I837345J-751317D01*
G01*
X124457569Y-83268905D01*
G75*
G02*
X124543597Y-84857567I-751317J-837345D01*
G01*
X123233595Y-86317567D01*
G75*
G02*
X121644933Y-86403595I-837345J751317D01*
G01*
G37*
D16*
X128746250Y-83026250D03*
G36*
G01*
X128629733Y-84728645D02*
X128628847Y-84728584D01*
G75*
G02*
X127583916Y-83528847I77403J1122334D01*
G01*
X127623916Y-82948847D01*
G75*
G02*
X128823653Y-81903916I1122334J-77403D01*
G01*
X128823653Y-81903916D01*
G75*
G02*
X129868584Y-83103653I-77403J-1122334D01*
G01*
X129828584Y-83683653D01*
G75*
G02*
X128628847Y-84728584I-1122334J77403D01*
G01*
G37*
%TD*%
D15*
%TO.C,MX26*%
X131286250Y-69056250D03*
X121126250Y-69056250D03*
D16*
X123706250Y-65056250D03*
D17*
X126206250Y-69056250D03*
G36*
G01*
X121644938Y-67353600D02*
X121644933Y-67353595D01*
G75*
G02*
X121558905Y-65764933I751317J837345D01*
G01*
X122868907Y-64304933D01*
G75*
G02*
X124457569Y-64218905I837345J-751317D01*
G01*
X124457569Y-64218905D01*
G75*
G02*
X124543597Y-65807567I-751317J-837345D01*
G01*
X123233595Y-67267567D01*
G75*
G02*
X121644933Y-67353595I-837345J751317D01*
G01*
G37*
D16*
X128746250Y-63976250D03*
G36*
G01*
X128629733Y-65678645D02*
X128628847Y-65678584D01*
G75*
G02*
X127583916Y-64478847I77403J1122334D01*
G01*
X127623916Y-63898847D01*
G75*
G02*
X128823653Y-62853916I1122334J-77403D01*
G01*
X128823653Y-62853916D01*
G75*
G02*
X129868584Y-64053653I-77403J-1122334D01*
G01*
X129828584Y-64633653D01*
G75*
G02*
X128628847Y-65678584I-1122334J77403D01*
G01*
G37*
%TD*%
D15*
%TO.C,MX25*%
X131286250Y-50006250D03*
X121126250Y-50006250D03*
D16*
X123706250Y-46006250D03*
D17*
X126206250Y-50006250D03*
G36*
G01*
X121644938Y-48303600D02*
X121644933Y-48303595D01*
G75*
G02*
X121558905Y-46714933I751317J837345D01*
G01*
X122868907Y-45254933D01*
G75*
G02*
X124457569Y-45168905I837345J-751317D01*
G01*
X124457569Y-45168905D01*
G75*
G02*
X124543597Y-46757567I-751317J-837345D01*
G01*
X123233595Y-48217567D01*
G75*
G02*
X121644933Y-48303595I-837345J751317D01*
G01*
G37*
D16*
X128746250Y-44926250D03*
G36*
G01*
X128629733Y-46628645D02*
X128628847Y-46628584D01*
G75*
G02*
X127583916Y-45428847I77403J1122334D01*
G01*
X127623916Y-44848847D01*
G75*
G02*
X128823653Y-43803916I1122334J-77403D01*
G01*
X128823653Y-43803916D01*
G75*
G02*
X129868584Y-45003653I-77403J-1122334D01*
G01*
X129828584Y-45583653D01*
G75*
G02*
X128628847Y-46628584I-1122334J77403D01*
G01*
G37*
%TD*%
D15*
%TO.C,MX23*%
X107473750Y-107156250D03*
X97313750Y-107156250D03*
D16*
X99893750Y-103156250D03*
D17*
X102393750Y-107156250D03*
G36*
G01*
X97832438Y-105453600D02*
X97832433Y-105453595D01*
G75*
G02*
X97746405Y-103864933I751317J837345D01*
G01*
X99056407Y-102404933D01*
G75*
G02*
X100645069Y-102318905I837345J-751317D01*
G01*
X100645069Y-102318905D01*
G75*
G02*
X100731097Y-103907567I-751317J-837345D01*
G01*
X99421095Y-105367567D01*
G75*
G02*
X97832433Y-105453595I-837345J751317D01*
G01*
G37*
D16*
X104933750Y-102076250D03*
G36*
G01*
X104817233Y-103778645D02*
X104816347Y-103778584D01*
G75*
G02*
X103771416Y-102578847I77403J1122334D01*
G01*
X103811416Y-101998847D01*
G75*
G02*
X105011153Y-100953916I1122334J-77403D01*
G01*
X105011153Y-100953916D01*
G75*
G02*
X106056084Y-102153653I-77403J-1122334D01*
G01*
X106016084Y-102733653D01*
G75*
G02*
X104816347Y-103778584I-1122334J77403D01*
G01*
G37*
%TD*%
D15*
%TO.C,MX22*%
X112236250Y-88106250D03*
X102076250Y-88106250D03*
D16*
X104656250Y-84106250D03*
D17*
X107156250Y-88106250D03*
G36*
G01*
X102594938Y-86403600D02*
X102594933Y-86403595D01*
G75*
G02*
X102508905Y-84814933I751317J837345D01*
G01*
X103818907Y-83354933D01*
G75*
G02*
X105407569Y-83268905I837345J-751317D01*
G01*
X105407569Y-83268905D01*
G75*
G02*
X105493597Y-84857567I-751317J-837345D01*
G01*
X104183595Y-86317567D01*
G75*
G02*
X102594933Y-86403595I-837345J751317D01*
G01*
G37*
D16*
X109696250Y-83026250D03*
G36*
G01*
X109579733Y-84728645D02*
X109578847Y-84728584D01*
G75*
G02*
X108533916Y-83528847I77403J1122334D01*
G01*
X108573916Y-82948847D01*
G75*
G02*
X109773653Y-81903916I1122334J-77403D01*
G01*
X109773653Y-81903916D01*
G75*
G02*
X110818584Y-83103653I-77403J-1122334D01*
G01*
X110778584Y-83683653D01*
G75*
G02*
X109578847Y-84728584I-1122334J77403D01*
G01*
G37*
%TD*%
D15*
%TO.C,MX21*%
X112236250Y-69056250D03*
X102076250Y-69056250D03*
D16*
X104656250Y-65056250D03*
D17*
X107156250Y-69056250D03*
G36*
G01*
X102594938Y-67353600D02*
X102594933Y-67353595D01*
G75*
G02*
X102508905Y-65764933I751317J837345D01*
G01*
X103818907Y-64304933D01*
G75*
G02*
X105407569Y-64218905I837345J-751317D01*
G01*
X105407569Y-64218905D01*
G75*
G02*
X105493597Y-65807567I-751317J-837345D01*
G01*
X104183595Y-67267567D01*
G75*
G02*
X102594933Y-67353595I-837345J751317D01*
G01*
G37*
D16*
X109696250Y-63976250D03*
G36*
G01*
X109579733Y-65678645D02*
X109578847Y-65678584D01*
G75*
G02*
X108533916Y-64478847I77403J1122334D01*
G01*
X108573916Y-63898847D01*
G75*
G02*
X109773653Y-62853916I1122334J-77403D01*
G01*
X109773653Y-62853916D01*
G75*
G02*
X110818584Y-64053653I-77403J-1122334D01*
G01*
X110778584Y-64633653D01*
G75*
G02*
X109578847Y-65678584I-1122334J77403D01*
G01*
G37*
%TD*%
D15*
%TO.C,MX20*%
X112236250Y-50006250D03*
X102076250Y-50006250D03*
D16*
X104656250Y-46006250D03*
D17*
X107156250Y-50006250D03*
G36*
G01*
X102594938Y-48303600D02*
X102594933Y-48303595D01*
G75*
G02*
X102508905Y-46714933I751317J837345D01*
G01*
X103818907Y-45254933D01*
G75*
G02*
X105407569Y-45168905I837345J-751317D01*
G01*
X105407569Y-45168905D01*
G75*
G02*
X105493597Y-46757567I-751317J-837345D01*
G01*
X104183595Y-48217567D01*
G75*
G02*
X102594933Y-48303595I-837345J751317D01*
G01*
G37*
D16*
X109696250Y-44926250D03*
G36*
G01*
X109579733Y-46628645D02*
X109578847Y-46628584D01*
G75*
G02*
X108533916Y-45428847I77403J1122334D01*
G01*
X108573916Y-44848847D01*
G75*
G02*
X109773653Y-43803916I1122334J-77403D01*
G01*
X109773653Y-43803916D01*
G75*
G02*
X110818584Y-45003653I-77403J-1122334D01*
G01*
X110778584Y-45583653D01*
G75*
G02*
X109578847Y-46628584I-1122334J77403D01*
G01*
G37*
%TD*%
D15*
%TO.C,MX17*%
X93186250Y-88106250D03*
X83026250Y-88106250D03*
D16*
X85606250Y-84106250D03*
D17*
X88106250Y-88106250D03*
G36*
G01*
X83544938Y-86403600D02*
X83544933Y-86403595D01*
G75*
G02*
X83458905Y-84814933I751317J837345D01*
G01*
X84768907Y-83354933D01*
G75*
G02*
X86357569Y-83268905I837345J-751317D01*
G01*
X86357569Y-83268905D01*
G75*
G02*
X86443597Y-84857567I-751317J-837345D01*
G01*
X85133595Y-86317567D01*
G75*
G02*
X83544933Y-86403595I-837345J751317D01*
G01*
G37*
D16*
X90646250Y-83026250D03*
G36*
G01*
X90529733Y-84728645D02*
X90528847Y-84728584D01*
G75*
G02*
X89483916Y-83528847I77403J1122334D01*
G01*
X89523916Y-82948847D01*
G75*
G02*
X90723653Y-81903916I1122334J-77403D01*
G01*
X90723653Y-81903916D01*
G75*
G02*
X91768584Y-83103653I-77403J-1122334D01*
G01*
X91728584Y-83683653D01*
G75*
G02*
X90528847Y-84728584I-1122334J77403D01*
G01*
G37*
%TD*%
D15*
%TO.C,MX16*%
X93186250Y-69056250D03*
X83026250Y-69056250D03*
D16*
X85606250Y-65056250D03*
D17*
X88106250Y-69056250D03*
G36*
G01*
X83544938Y-67353600D02*
X83544933Y-67353595D01*
G75*
G02*
X83458905Y-65764933I751317J837345D01*
G01*
X84768907Y-64304933D01*
G75*
G02*
X86357569Y-64218905I837345J-751317D01*
G01*
X86357569Y-64218905D01*
G75*
G02*
X86443597Y-65807567I-751317J-837345D01*
G01*
X85133595Y-67267567D01*
G75*
G02*
X83544933Y-67353595I-837345J751317D01*
G01*
G37*
D16*
X90646250Y-63976250D03*
G36*
G01*
X90529733Y-65678645D02*
X90528847Y-65678584D01*
G75*
G02*
X89483916Y-64478847I77403J1122334D01*
G01*
X89523916Y-63898847D01*
G75*
G02*
X90723653Y-62853916I1122334J-77403D01*
G01*
X90723653Y-62853916D01*
G75*
G02*
X91768584Y-64053653I-77403J-1122334D01*
G01*
X91728584Y-64633653D01*
G75*
G02*
X90528847Y-65678584I-1122334J77403D01*
G01*
G37*
%TD*%
D15*
%TO.C,MX15*%
X93186250Y-50006250D03*
X83026250Y-50006250D03*
D16*
X85606250Y-46006250D03*
D17*
X88106250Y-50006250D03*
G36*
G01*
X83544938Y-48303600D02*
X83544933Y-48303595D01*
G75*
G02*
X83458905Y-46714933I751317J837345D01*
G01*
X84768907Y-45254933D01*
G75*
G02*
X86357569Y-45168905I837345J-751317D01*
G01*
X86357569Y-45168905D01*
G75*
G02*
X86443597Y-46757567I-751317J-837345D01*
G01*
X85133595Y-48217567D01*
G75*
G02*
X83544933Y-48303595I-837345J751317D01*
G01*
G37*
D16*
X90646250Y-44926250D03*
G36*
G01*
X90529733Y-46628645D02*
X90528847Y-46628584D01*
G75*
G02*
X89483916Y-45428847I77403J1122334D01*
G01*
X89523916Y-44848847D01*
G75*
G02*
X90723653Y-43803916I1122334J-77403D01*
G01*
X90723653Y-43803916D01*
G75*
G02*
X91768584Y-45003653I-77403J-1122334D01*
G01*
X91728584Y-45583653D01*
G75*
G02*
X90528847Y-46628584I-1122334J77403D01*
G01*
G37*
%TD*%
D15*
%TO.C,MX14*%
X93186250Y-30956250D03*
X83026250Y-30956250D03*
D16*
X85606250Y-26956250D03*
D17*
X88106250Y-30956250D03*
G36*
G01*
X83544938Y-29253600D02*
X83544933Y-29253595D01*
G75*
G02*
X83458905Y-27664933I751317J837345D01*
G01*
X84768907Y-26204933D01*
G75*
G02*
X86357569Y-26118905I837345J-751317D01*
G01*
X86357569Y-26118905D01*
G75*
G02*
X86443597Y-27707567I-751317J-837345D01*
G01*
X85133595Y-29167567D01*
G75*
G02*
X83544933Y-29253595I-837345J751317D01*
G01*
G37*
D16*
X90646250Y-25876250D03*
G36*
G01*
X90529733Y-27578645D02*
X90528847Y-27578584D01*
G75*
G02*
X89483916Y-26378847I77403J1122334D01*
G01*
X89523916Y-25798847D01*
G75*
G02*
X90723653Y-24753916I1122334J-77403D01*
G01*
X90723653Y-24753916D01*
G75*
G02*
X91768584Y-25953653I-77403J-1122334D01*
G01*
X91728584Y-26533653D01*
G75*
G02*
X90528847Y-27578584I-1122334J77403D01*
G01*
G37*
%TD*%
D15*
%TO.C,MX13*%
X64611250Y-107156250D03*
X54451250Y-107156250D03*
D16*
X57031250Y-103156250D03*
D17*
X59531250Y-107156250D03*
G36*
G01*
X54969938Y-105453600D02*
X54969933Y-105453595D01*
G75*
G02*
X54883905Y-103864933I751317J837345D01*
G01*
X56193907Y-102404933D01*
G75*
G02*
X57782569Y-102318905I837345J-751317D01*
G01*
X57782569Y-102318905D01*
G75*
G02*
X57868597Y-103907567I-751317J-837345D01*
G01*
X56558595Y-105367567D01*
G75*
G02*
X54969933Y-105453595I-837345J751317D01*
G01*
G37*
D16*
X62071250Y-102076250D03*
G36*
G01*
X61954733Y-103778645D02*
X61953847Y-103778584D01*
G75*
G02*
X60908916Y-102578847I77403J1122334D01*
G01*
X60948916Y-101998847D01*
G75*
G02*
X62148653Y-100953916I1122334J-77403D01*
G01*
X62148653Y-100953916D01*
G75*
G02*
X63193584Y-102153653I-77403J-1122334D01*
G01*
X63153584Y-102733653D01*
G75*
G02*
X61953847Y-103778584I-1122334J77403D01*
G01*
G37*
%TD*%
D15*
%TO.C,MX12*%
X74136250Y-88106250D03*
X63976250Y-88106250D03*
D16*
X66556250Y-84106250D03*
D17*
X69056250Y-88106250D03*
G36*
G01*
X64494938Y-86403600D02*
X64494933Y-86403595D01*
G75*
G02*
X64408905Y-84814933I751317J837345D01*
G01*
X65718907Y-83354933D01*
G75*
G02*
X67307569Y-83268905I837345J-751317D01*
G01*
X67307569Y-83268905D01*
G75*
G02*
X67393597Y-84857567I-751317J-837345D01*
G01*
X66083595Y-86317567D01*
G75*
G02*
X64494933Y-86403595I-837345J751317D01*
G01*
G37*
D16*
X71596250Y-83026250D03*
G36*
G01*
X71479733Y-84728645D02*
X71478847Y-84728584D01*
G75*
G02*
X70433916Y-83528847I77403J1122334D01*
G01*
X70473916Y-82948847D01*
G75*
G02*
X71673653Y-81903916I1122334J-77403D01*
G01*
X71673653Y-81903916D01*
G75*
G02*
X72718584Y-83103653I-77403J-1122334D01*
G01*
X72678584Y-83683653D01*
G75*
G02*
X71478847Y-84728584I-1122334J77403D01*
G01*
G37*
%TD*%
D15*
%TO.C,MX11*%
X74136250Y-69056250D03*
X63976250Y-69056250D03*
D16*
X66556250Y-65056250D03*
D17*
X69056250Y-69056250D03*
G36*
G01*
X64494938Y-67353600D02*
X64494933Y-67353595D01*
G75*
G02*
X64408905Y-65764933I751317J837345D01*
G01*
X65718907Y-64304933D01*
G75*
G02*
X67307569Y-64218905I837345J-751317D01*
G01*
X67307569Y-64218905D01*
G75*
G02*
X67393597Y-65807567I-751317J-837345D01*
G01*
X66083595Y-67267567D01*
G75*
G02*
X64494933Y-67353595I-837345J751317D01*
G01*
G37*
D16*
X71596250Y-63976250D03*
G36*
G01*
X71479733Y-65678645D02*
X71478847Y-65678584D01*
G75*
G02*
X70433916Y-64478847I77403J1122334D01*
G01*
X70473916Y-63898847D01*
G75*
G02*
X71673653Y-62853916I1122334J-77403D01*
G01*
X71673653Y-62853916D01*
G75*
G02*
X72718584Y-64053653I-77403J-1122334D01*
G01*
X72678584Y-64633653D01*
G75*
G02*
X71478847Y-65678584I-1122334J77403D01*
G01*
G37*
%TD*%
D15*
%TO.C,MX10*%
X74136250Y-50006250D03*
X63976250Y-50006250D03*
D16*
X66556250Y-46006250D03*
D17*
X69056250Y-50006250D03*
G36*
G01*
X64494938Y-48303600D02*
X64494933Y-48303595D01*
G75*
G02*
X64408905Y-46714933I751317J837345D01*
G01*
X65718907Y-45254933D01*
G75*
G02*
X67307569Y-45168905I837345J-751317D01*
G01*
X67307569Y-45168905D01*
G75*
G02*
X67393597Y-46757567I-751317J-837345D01*
G01*
X66083595Y-48217567D01*
G75*
G02*
X64494933Y-48303595I-837345J751317D01*
G01*
G37*
D16*
X71596250Y-44926250D03*
G36*
G01*
X71479733Y-46628645D02*
X71478847Y-46628584D01*
G75*
G02*
X70433916Y-45428847I77403J1122334D01*
G01*
X70473916Y-44848847D01*
G75*
G02*
X71673653Y-43803916I1122334J-77403D01*
G01*
X71673653Y-43803916D01*
G75*
G02*
X72718584Y-45003653I-77403J-1122334D01*
G01*
X72678584Y-45583653D01*
G75*
G02*
X71478847Y-46628584I-1122334J77403D01*
G01*
G37*
%TD*%
D15*
%TO.C,MX9*%
X74136250Y-30956250D03*
X63976250Y-30956250D03*
D16*
X66556250Y-26956250D03*
D17*
X69056250Y-30956250D03*
G36*
G01*
X64494938Y-29253600D02*
X64494933Y-29253595D01*
G75*
G02*
X64408905Y-27664933I751317J837345D01*
G01*
X65718907Y-26204933D01*
G75*
G02*
X67307569Y-26118905I837345J-751317D01*
G01*
X67307569Y-26118905D01*
G75*
G02*
X67393597Y-27707567I-751317J-837345D01*
G01*
X66083595Y-29167567D01*
G75*
G02*
X64494933Y-29253595I-837345J751317D01*
G01*
G37*
D16*
X71596250Y-25876250D03*
G36*
G01*
X71479733Y-27578645D02*
X71478847Y-27578584D01*
G75*
G02*
X70433916Y-26378847I77403J1122334D01*
G01*
X70473916Y-25798847D01*
G75*
G02*
X71673653Y-24753916I1122334J-77403D01*
G01*
X71673653Y-24753916D01*
G75*
G02*
X72718584Y-25953653I-77403J-1122334D01*
G01*
X72678584Y-26533653D01*
G75*
G02*
X71478847Y-27578584I-1122334J77403D01*
G01*
G37*
%TD*%
D15*
%TO.C,MX8*%
X55086250Y-88106250D03*
X44926250Y-88106250D03*
D16*
X47506250Y-84106250D03*
D17*
X50006250Y-88106250D03*
G36*
G01*
X45444938Y-86403600D02*
X45444933Y-86403595D01*
G75*
G02*
X45358905Y-84814933I751317J837345D01*
G01*
X46668907Y-83354933D01*
G75*
G02*
X48257569Y-83268905I837345J-751317D01*
G01*
X48257569Y-83268905D01*
G75*
G02*
X48343597Y-84857567I-751317J-837345D01*
G01*
X47033595Y-86317567D01*
G75*
G02*
X45444933Y-86403595I-837345J751317D01*
G01*
G37*
D16*
X52546250Y-83026250D03*
G36*
G01*
X52429733Y-84728645D02*
X52428847Y-84728584D01*
G75*
G02*
X51383916Y-83528847I77403J1122334D01*
G01*
X51423916Y-82948847D01*
G75*
G02*
X52623653Y-81903916I1122334J-77403D01*
G01*
X52623653Y-81903916D01*
G75*
G02*
X53668584Y-83103653I-77403J-1122334D01*
G01*
X53628584Y-83683653D01*
G75*
G02*
X52428847Y-84728584I-1122334J77403D01*
G01*
G37*
%TD*%
D15*
%TO.C,MX7*%
X55086250Y-69056250D03*
X44926250Y-69056250D03*
D16*
X47506250Y-65056250D03*
D17*
X50006250Y-69056250D03*
G36*
G01*
X45444938Y-67353600D02*
X45444933Y-67353595D01*
G75*
G02*
X45358905Y-65764933I751317J837345D01*
G01*
X46668907Y-64304933D01*
G75*
G02*
X48257569Y-64218905I837345J-751317D01*
G01*
X48257569Y-64218905D01*
G75*
G02*
X48343597Y-65807567I-751317J-837345D01*
G01*
X47033595Y-67267567D01*
G75*
G02*
X45444933Y-67353595I-837345J751317D01*
G01*
G37*
D16*
X52546250Y-63976250D03*
G36*
G01*
X52429733Y-65678645D02*
X52428847Y-65678584D01*
G75*
G02*
X51383916Y-64478847I77403J1122334D01*
G01*
X51423916Y-63898847D01*
G75*
G02*
X52623653Y-62853916I1122334J-77403D01*
G01*
X52623653Y-62853916D01*
G75*
G02*
X53668584Y-64053653I-77403J-1122334D01*
G01*
X53628584Y-64633653D01*
G75*
G02*
X52428847Y-65678584I-1122334J77403D01*
G01*
G37*
%TD*%
D15*
%TO.C,MX6*%
X55086250Y-50006250D03*
X44926250Y-50006250D03*
D16*
X47506250Y-46006250D03*
D17*
X50006250Y-50006250D03*
G36*
G01*
X45444938Y-48303600D02*
X45444933Y-48303595D01*
G75*
G02*
X45358905Y-46714933I751317J837345D01*
G01*
X46668907Y-45254933D01*
G75*
G02*
X48257569Y-45168905I837345J-751317D01*
G01*
X48257569Y-45168905D01*
G75*
G02*
X48343597Y-46757567I-751317J-837345D01*
G01*
X47033595Y-48217567D01*
G75*
G02*
X45444933Y-48303595I-837345J751317D01*
G01*
G37*
D16*
X52546250Y-44926250D03*
G36*
G01*
X52429733Y-46628645D02*
X52428847Y-46628584D01*
G75*
G02*
X51383916Y-45428847I77403J1122334D01*
G01*
X51423916Y-44848847D01*
G75*
G02*
X52623653Y-43803916I1122334J-77403D01*
G01*
X52623653Y-43803916D01*
G75*
G02*
X53668584Y-45003653I-77403J-1122334D01*
G01*
X53628584Y-45583653D01*
G75*
G02*
X52428847Y-46628584I-1122334J77403D01*
G01*
G37*
%TD*%
D15*
%TO.C,MX5*%
X55086250Y-30956250D03*
X44926250Y-30956250D03*
D16*
X47506250Y-26956250D03*
D17*
X50006250Y-30956250D03*
G36*
G01*
X45444938Y-29253600D02*
X45444933Y-29253595D01*
G75*
G02*
X45358905Y-27664933I751317J837345D01*
G01*
X46668907Y-26204933D01*
G75*
G02*
X48257569Y-26118905I837345J-751317D01*
G01*
X48257569Y-26118905D01*
G75*
G02*
X48343597Y-27707567I-751317J-837345D01*
G01*
X47033595Y-29167567D01*
G75*
G02*
X45444933Y-29253595I-837345J751317D01*
G01*
G37*
D16*
X52546250Y-25876250D03*
G36*
G01*
X52429733Y-27578645D02*
X52428847Y-27578584D01*
G75*
G02*
X51383916Y-26378847I77403J1122334D01*
G01*
X51423916Y-25798847D01*
G75*
G02*
X52623653Y-24753916I1122334J-77403D01*
G01*
X52623653Y-24753916D01*
G75*
G02*
X53668584Y-25953653I-77403J-1122334D01*
G01*
X53628584Y-26533653D01*
G75*
G02*
X52428847Y-27578584I-1122334J77403D01*
G01*
G37*
%TD*%
D15*
%TO.C,MX4*%
X36036250Y-88106250D03*
X25876250Y-88106250D03*
D16*
X28456250Y-84106250D03*
D17*
X30956250Y-88106250D03*
G36*
G01*
X26394938Y-86403600D02*
X26394933Y-86403595D01*
G75*
G02*
X26308905Y-84814933I751317J837345D01*
G01*
X27618907Y-83354933D01*
G75*
G02*
X29207569Y-83268905I837345J-751317D01*
G01*
X29207569Y-83268905D01*
G75*
G02*
X29293597Y-84857567I-751317J-837345D01*
G01*
X27983595Y-86317567D01*
G75*
G02*
X26394933Y-86403595I-837345J751317D01*
G01*
G37*
D16*
X33496250Y-83026250D03*
G36*
G01*
X33379733Y-84728645D02*
X33378847Y-84728584D01*
G75*
G02*
X32333916Y-83528847I77403J1122334D01*
G01*
X32373916Y-82948847D01*
G75*
G02*
X33573653Y-81903916I1122334J-77403D01*
G01*
X33573653Y-81903916D01*
G75*
G02*
X34618584Y-83103653I-77403J-1122334D01*
G01*
X34578584Y-83683653D01*
G75*
G02*
X33378847Y-84728584I-1122334J77403D01*
G01*
G37*
%TD*%
D15*
%TO.C,MX3*%
X36036250Y-69056250D03*
X25876250Y-69056250D03*
D16*
X28456250Y-65056250D03*
D17*
X30956250Y-69056250D03*
G36*
G01*
X26394938Y-67353600D02*
X26394933Y-67353595D01*
G75*
G02*
X26308905Y-65764933I751317J837345D01*
G01*
X27618907Y-64304933D01*
G75*
G02*
X29207569Y-64218905I837345J-751317D01*
G01*
X29207569Y-64218905D01*
G75*
G02*
X29293597Y-65807567I-751317J-837345D01*
G01*
X27983595Y-67267567D01*
G75*
G02*
X26394933Y-67353595I-837345J751317D01*
G01*
G37*
D16*
X33496250Y-63976250D03*
G36*
G01*
X33379733Y-65678645D02*
X33378847Y-65678584D01*
G75*
G02*
X32333916Y-64478847I77403J1122334D01*
G01*
X32373916Y-63898847D01*
G75*
G02*
X33573653Y-62853916I1122334J-77403D01*
G01*
X33573653Y-62853916D01*
G75*
G02*
X34618584Y-64053653I-77403J-1122334D01*
G01*
X34578584Y-64633653D01*
G75*
G02*
X33378847Y-65678584I-1122334J77403D01*
G01*
G37*
%TD*%
D15*
%TO.C,MX2*%
X36036250Y-50006250D03*
X25876250Y-50006250D03*
D16*
X28456250Y-46006250D03*
D17*
X30956250Y-50006250D03*
G36*
G01*
X26394938Y-48303600D02*
X26394933Y-48303595D01*
G75*
G02*
X26308905Y-46714933I751317J837345D01*
G01*
X27618907Y-45254933D01*
G75*
G02*
X29207569Y-45168905I837345J-751317D01*
G01*
X29207569Y-45168905D01*
G75*
G02*
X29293597Y-46757567I-751317J-837345D01*
G01*
X27983595Y-48217567D01*
G75*
G02*
X26394933Y-48303595I-837345J751317D01*
G01*
G37*
D16*
X33496250Y-44926250D03*
G36*
G01*
X33379733Y-46628645D02*
X33378847Y-46628584D01*
G75*
G02*
X32333916Y-45428847I77403J1122334D01*
G01*
X32373916Y-44848847D01*
G75*
G02*
X33573653Y-43803916I1122334J-77403D01*
G01*
X33573653Y-43803916D01*
G75*
G02*
X34618584Y-45003653I-77403J-1122334D01*
G01*
X34578584Y-45583653D01*
G75*
G02*
X33378847Y-46628584I-1122334J77403D01*
G01*
G37*
%TD*%
D15*
%TO.C,MX1*%
X36036250Y-30956250D03*
X25876250Y-30956250D03*
D16*
X28456250Y-26956250D03*
D17*
X30956250Y-30956250D03*
G36*
G01*
X26394938Y-29253600D02*
X26394933Y-29253595D01*
G75*
G02*
X26308905Y-27664933I751317J837345D01*
G01*
X27618907Y-26204933D01*
G75*
G02*
X29207569Y-26118905I837345J-751317D01*
G01*
X29207569Y-26118905D01*
G75*
G02*
X29293597Y-27707567I-751317J-837345D01*
G01*
X27983595Y-29167567D01*
G75*
G02*
X26394933Y-29253595I-837345J751317D01*
G01*
G37*
D16*
X33496250Y-25876250D03*
G36*
G01*
X33379733Y-27578645D02*
X33378847Y-27578584D01*
G75*
G02*
X32333916Y-26378847I77403J1122334D01*
G01*
X32373916Y-25798847D01*
G75*
G02*
X33573653Y-24753916I1122334J-77403D01*
G01*
X33573653Y-24753916D01*
G75*
G02*
X34618584Y-25953653I-77403J-1122334D01*
G01*
X34578584Y-26533653D01*
G75*
G02*
X33378847Y-27578584I-1122334J77403D01*
G01*
G37*
%TD*%
D27*
%TO.C,J1*%
X208121250Y-114776250D03*
D28*
X208121250Y-112236250D03*
X205581250Y-114776250D03*
X205581250Y-112236250D03*
X203041250Y-114776250D03*
X203041250Y-112236250D03*
%TD*%
%TO.C,F1*%
G36*
G01*
X114925000Y-39706250D02*
X113675000Y-39706250D01*
G75*
G02*
X113425000Y-39456250I0J250000D01*
G01*
X113425000Y-38531250D01*
G75*
G02*
X113675000Y-38281250I250000J0D01*
G01*
X114925000Y-38281250D01*
G75*
G02*
X115175000Y-38531250I0J-250000D01*
G01*
X115175000Y-39456250D01*
G75*
G02*
X114925000Y-39706250I-250000J0D01*
G01*
G37*
G36*
G01*
X114925000Y-42681250D02*
X113675000Y-42681250D01*
G75*
G02*
X113425000Y-42431250I0J250000D01*
G01*
X113425000Y-41506250D01*
G75*
G02*
X113675000Y-41256250I250000J0D01*
G01*
X114925000Y-41256250D01*
G75*
G02*
X115175000Y-41506250I0J-250000D01*
G01*
X115175000Y-42431250D01*
G75*
G02*
X114925000Y-42681250I-250000J0D01*
G01*
G37*
%TD*%
D29*
%TO.C,D46*%
X210343750Y-87250000D03*
X210343750Y-90550000D03*
%TD*%
%TO.C,D45*%
X210343750Y-68200000D03*
X210343750Y-71500000D03*
%TD*%
%TO.C,D44*%
X210343750Y-49150000D03*
X210343750Y-52450000D03*
%TD*%
%TO.C,D43*%
X210343750Y-30100000D03*
X210343750Y-33400000D03*
%TD*%
%TO.C,D42*%
X191293750Y-87250000D03*
X191293750Y-90550000D03*
%TD*%
%TO.C,D41*%
X191293750Y-68200000D03*
X191293750Y-71500000D03*
%TD*%
%TO.C,D40*%
X191293750Y-49150000D03*
X191293750Y-52450000D03*
%TD*%
%TO.C,D39*%
X191293750Y-30100000D03*
X191293750Y-33400000D03*
%TD*%
%TO.C,D38*%
X181768750Y-104712500D03*
X181768750Y-108012500D03*
%TD*%
%TO.C,D37*%
X172243750Y-87250000D03*
X172243750Y-90550000D03*
%TD*%
%TO.C,D36*%
X172243750Y-68200000D03*
X172243750Y-71500000D03*
%TD*%
%TO.C,D35*%
X172243750Y-49150000D03*
X172243750Y-52450000D03*
%TD*%
%TO.C,D34*%
X172243750Y-30100000D03*
X172243750Y-33400000D03*
%TD*%
%TO.C,D33*%
X162718750Y-106300000D03*
X162718750Y-109600000D03*
%TD*%
%TO.C,D32*%
X153193750Y-87250000D03*
X153193750Y-90550000D03*
%TD*%
%TO.C,D31*%
X153193750Y-68200000D03*
X153193750Y-71500000D03*
%TD*%
%TO.C,D30*%
X153193750Y-49150000D03*
X153193750Y-52450000D03*
%TD*%
%TO.C,D29*%
X153193750Y-30100000D03*
X153193750Y-33400000D03*
%TD*%
%TO.C,D28*%
X138906250Y-106300000D03*
X138906250Y-109600000D03*
%TD*%
%TO.C,D27*%
X134143750Y-87250000D03*
X134143750Y-90550000D03*
%TD*%
%TO.C,D26*%
X134143750Y-68200000D03*
X134143750Y-71500000D03*
%TD*%
%TO.C,D25*%
X134143750Y-49212500D03*
X134143750Y-52512500D03*
%TD*%
%TO.C,D24*%
X134143750Y-30100000D03*
X134143750Y-33400000D03*
%TD*%
%TO.C,D23*%
X110331250Y-106300000D03*
X110331250Y-109600000D03*
%TD*%
%TO.C,D22*%
X115093750Y-87250000D03*
X115093750Y-90550000D03*
%TD*%
%TO.C,D21*%
X115093750Y-68200000D03*
X115093750Y-71500000D03*
%TD*%
%TO.C,D20*%
X115093750Y-49150000D03*
X115093750Y-52450000D03*
%TD*%
D30*
%TO.C,D19*%
X108806250Y-37306250D03*
X105506250Y-37306250D03*
%TD*%
D29*
%TO.C,D18*%
X86518750Y-106300000D03*
X86518750Y-109600000D03*
%TD*%
%TO.C,D17*%
X96043750Y-87250000D03*
X96043750Y-90550000D03*
%TD*%
%TO.C,D16*%
X96043750Y-68200000D03*
X96043750Y-71500000D03*
%TD*%
%TO.C,D15*%
X96043750Y-49150000D03*
X96043750Y-52450000D03*
%TD*%
%TO.C,D14*%
X96043750Y-30100000D03*
X96043750Y-33400000D03*
%TD*%
%TO.C,D13*%
X67468750Y-106300000D03*
X67468750Y-109600000D03*
%TD*%
%TO.C,D12*%
X76993750Y-87250000D03*
X76993750Y-90550000D03*
%TD*%
%TO.C,D11*%
X76993750Y-68200000D03*
X76993750Y-71500000D03*
%TD*%
%TO.C,D10*%
X76993750Y-49150000D03*
X76993750Y-52450000D03*
%TD*%
%TO.C,D9*%
X76993750Y-30100000D03*
X76993750Y-33400000D03*
%TD*%
%TO.C,D8*%
X57943750Y-87250000D03*
X57943750Y-90550000D03*
%TD*%
%TO.C,D7*%
X57943750Y-68200000D03*
X57943750Y-71500000D03*
%TD*%
%TO.C,D6*%
X57943750Y-49150000D03*
X57943750Y-52450000D03*
%TD*%
%TO.C,D5*%
X57943750Y-30100000D03*
X57943750Y-33400000D03*
%TD*%
%TO.C,D4*%
X38893750Y-87250000D03*
X38893750Y-90550000D03*
%TD*%
%TO.C,D3*%
X38893750Y-68200000D03*
X38893750Y-71500000D03*
%TD*%
%TO.C,D2*%
X38893750Y-49150000D03*
X38893750Y-52450000D03*
%TD*%
%TO.C,D1*%
X38893750Y-30100000D03*
X38893750Y-33400000D03*
%TD*%
%TO.C,C8*%
G36*
G01*
X187807000Y-96680000D02*
X187807000Y-97630000D01*
G75*
G02*
X187557000Y-97880000I-250000J0D01*
G01*
X186882000Y-97880000D01*
G75*
G02*
X186632000Y-97630000I0J250000D01*
G01*
X186632000Y-96680000D01*
G75*
G02*
X186882000Y-96430000I250000J0D01*
G01*
X187557000Y-96430000D01*
G75*
G02*
X187807000Y-96680000I0J-250000D01*
G01*
G37*
G36*
G01*
X185732000Y-96680000D02*
X185732000Y-97630000D01*
G75*
G02*
X185482000Y-97880000I-250000J0D01*
G01*
X184807000Y-97880000D01*
G75*
G02*
X184557000Y-97630000I0J250000D01*
G01*
X184557000Y-96680000D01*
G75*
G02*
X184807000Y-96430000I250000J0D01*
G01*
X185482000Y-96430000D01*
G75*
G02*
X185732000Y-96680000I0J-250000D01*
G01*
G37*
%TD*%
%TO.C,C7*%
G36*
G01*
X185260000Y-110972000D02*
X184310000Y-110972000D01*
G75*
G02*
X184060000Y-110722000I0J250000D01*
G01*
X184060000Y-110047000D01*
G75*
G02*
X184310000Y-109797000I250000J0D01*
G01*
X185260000Y-109797000D01*
G75*
G02*
X185510000Y-110047000I0J-250000D01*
G01*
X185510000Y-110722000D01*
G75*
G02*
X185260000Y-110972000I-250000J0D01*
G01*
G37*
G36*
G01*
X185260000Y-108897000D02*
X184310000Y-108897000D01*
G75*
G02*
X184060000Y-108647000I0J250000D01*
G01*
X184060000Y-107972000D01*
G75*
G02*
X184310000Y-107722000I250000J0D01*
G01*
X185260000Y-107722000D01*
G75*
G02*
X185510000Y-107972000I0J-250000D01*
G01*
X185510000Y-108647000D01*
G75*
G02*
X185260000Y-108897000I-250000J0D01*
G01*
G37*
%TD*%
%TO.C,C6*%
G36*
G01*
X202471000Y-98705000D02*
X203421000Y-98705000D01*
G75*
G02*
X203671000Y-98955000I0J-250000D01*
G01*
X203671000Y-99630000D01*
G75*
G02*
X203421000Y-99880000I-250000J0D01*
G01*
X202471000Y-99880000D01*
G75*
G02*
X202221000Y-99630000I0J250000D01*
G01*
X202221000Y-98955000D01*
G75*
G02*
X202471000Y-98705000I250000J0D01*
G01*
G37*
G36*
G01*
X202471000Y-100780000D02*
X203421000Y-100780000D01*
G75*
G02*
X203671000Y-101030000I0J-250000D01*
G01*
X203671000Y-101705000D01*
G75*
G02*
X203421000Y-101955000I-250000J0D01*
G01*
X202471000Y-101955000D01*
G75*
G02*
X202221000Y-101705000I0J250000D01*
G01*
X202221000Y-101030000D01*
G75*
G02*
X202471000Y-100780000I250000J0D01*
G01*
G37*
%TD*%
%TO.C,C5*%
G36*
G01*
X196951000Y-96553000D02*
X196951000Y-97503000D01*
G75*
G02*
X196701000Y-97753000I-250000J0D01*
G01*
X196026000Y-97753000D01*
G75*
G02*
X195776000Y-97503000I0J250000D01*
G01*
X195776000Y-96553000D01*
G75*
G02*
X196026000Y-96303000I250000J0D01*
G01*
X196701000Y-96303000D01*
G75*
G02*
X196951000Y-96553000I0J-250000D01*
G01*
G37*
G36*
G01*
X194876000Y-96553000D02*
X194876000Y-97503000D01*
G75*
G02*
X194626000Y-97753000I-250000J0D01*
G01*
X193951000Y-97753000D01*
G75*
G02*
X193701000Y-97503000I0J250000D01*
G01*
X193701000Y-96553000D01*
G75*
G02*
X193951000Y-96303000I250000J0D01*
G01*
X194626000Y-96303000D01*
G75*
G02*
X194876000Y-96553000I0J-250000D01*
G01*
G37*
%TD*%
%TO.C,C4*%
G36*
G01*
X193701000Y-95344000D02*
X193701000Y-94394000D01*
G75*
G02*
X193951000Y-94144000I250000J0D01*
G01*
X194626000Y-94144000D01*
G75*
G02*
X194876000Y-94394000I0J-250000D01*
G01*
X194876000Y-95344000D01*
G75*
G02*
X194626000Y-95594000I-250000J0D01*
G01*
X193951000Y-95594000D01*
G75*
G02*
X193701000Y-95344000I0J250000D01*
G01*
G37*
G36*
G01*
X195776000Y-95344000D02*
X195776000Y-94394000D01*
G75*
G02*
X196026000Y-94144000I250000J0D01*
G01*
X196701000Y-94144000D01*
G75*
G02*
X196951000Y-94394000I0J-250000D01*
G01*
X196951000Y-95344000D01*
G75*
G02*
X196701000Y-95594000I-250000J0D01*
G01*
X196026000Y-95594000D01*
G75*
G02*
X195776000Y-95344000I0J250000D01*
G01*
G37*
%TD*%
%TO.C,C3*%
G36*
G01*
X196622000Y-113378000D02*
X196622000Y-112428000D01*
G75*
G02*
X196872000Y-112178000I250000J0D01*
G01*
X197547000Y-112178000D01*
G75*
G02*
X197797000Y-112428000I0J-250000D01*
G01*
X197797000Y-113378000D01*
G75*
G02*
X197547000Y-113628000I-250000J0D01*
G01*
X196872000Y-113628000D01*
G75*
G02*
X196622000Y-113378000I0J250000D01*
G01*
G37*
G36*
G01*
X198697000Y-113378000D02*
X198697000Y-112428000D01*
G75*
G02*
X198947000Y-112178000I250000J0D01*
G01*
X199622000Y-112178000D01*
G75*
G02*
X199872000Y-112428000I0J-250000D01*
G01*
X199872000Y-113378000D01*
G75*
G02*
X199622000Y-113628000I-250000J0D01*
G01*
X198947000Y-113628000D01*
G75*
G02*
X198697000Y-113378000I0J250000D01*
G01*
G37*
%TD*%
%TO.C,C2*%
G36*
G01*
X206909000Y-104234000D02*
X206909000Y-103284000D01*
G75*
G02*
X207159000Y-103034000I250000J0D01*
G01*
X207834000Y-103034000D01*
G75*
G02*
X208084000Y-103284000I0J-250000D01*
G01*
X208084000Y-104234000D01*
G75*
G02*
X207834000Y-104484000I-250000J0D01*
G01*
X207159000Y-104484000D01*
G75*
G02*
X206909000Y-104234000I0J250000D01*
G01*
G37*
G36*
G01*
X208984000Y-104234000D02*
X208984000Y-103284000D01*
G75*
G02*
X209234000Y-103034000I250000J0D01*
G01*
X209909000Y-103034000D01*
G75*
G02*
X210159000Y-103284000I0J-250000D01*
G01*
X210159000Y-104234000D01*
G75*
G02*
X209909000Y-104484000I-250000J0D01*
G01*
X209234000Y-104484000D01*
G75*
G02*
X208984000Y-104234000I0J250000D01*
G01*
G37*
%TD*%
%TO.C,C1*%
G36*
G01*
X206909000Y-107155000D02*
X206909000Y-106205000D01*
G75*
G02*
X207159000Y-105955000I250000J0D01*
G01*
X207834000Y-105955000D01*
G75*
G02*
X208084000Y-106205000I0J-250000D01*
G01*
X208084000Y-107155000D01*
G75*
G02*
X207834000Y-107405000I-250000J0D01*
G01*
X207159000Y-107405000D01*
G75*
G02*
X206909000Y-107155000I0J250000D01*
G01*
G37*
G36*
G01*
X208984000Y-107155000D02*
X208984000Y-106205000D01*
G75*
G02*
X209234000Y-105955000I250000J0D01*
G01*
X209909000Y-105955000D01*
G75*
G02*
X210159000Y-106205000I0J-250000D01*
G01*
X210159000Y-107155000D01*
G75*
G02*
X209909000Y-107405000I-250000J0D01*
G01*
X209234000Y-107405000D01*
G75*
G02*
X208984000Y-107155000I0J250000D01*
G01*
G37*
%TD*%
M02*
