M48
; DRILL file {KiCad (5.1.12)-1} date 01/03/22 12:02:59
; FORMAT={-:-/ absolute / inch / decimal}
; #@! TF.CreationDate,2022-01-03T12:02:59-05:00
; #@! TF.GenerationSoftware,Kicad,Pcbnew,(5.1.12)-1
; #@! TF.FileFunction,NonPlated,1,2,NPTH
FMAT,2
INCH
T1C0.0256
T2C0.0689
T3C0.1570
%
G90
G05
T1
X4.48Y-0.8711
X4.7075Y-0.8711
T2
X1.0188Y-1.2188
X1.0188Y-1.9688
X1.0188Y-2.7188
X1.0188Y-3.4688
X1.4187Y-1.2188
X1.4187Y-1.9688
X1.4187Y-2.7188
X1.4187Y-3.4688
X1.7688Y-1.2188
X1.7688Y-1.9688
X1.7688Y-2.7188
X1.7688Y-3.4688
X2.1437Y-4.2188
X2.1687Y-1.2188
X2.1687Y-1.9688
X2.1687Y-2.7188
X2.1687Y-3.4688
X2.5187Y-1.2188
X2.5187Y-1.9688
X2.5187Y-2.7188
X2.5187Y-3.4688
X2.5437Y-4.2188
X2.8937Y-4.2188
X2.9187Y-1.2188
X2.9187Y-1.9688
X2.9187Y-2.7188
X2.9187Y-3.4688
X3.2687Y-1.2188
X3.2687Y-1.9688
X3.2687Y-2.7188
X3.2687Y-3.4688
X3.2937Y-4.2188
X3.6687Y-1.2188
X3.6687Y-1.9688
X3.6687Y-2.7188
X3.6687Y-3.4688
X3.8312Y-4.2188
X4.0187Y-1.2188
X4.0187Y-1.9688
X4.0187Y-2.7188
X4.0187Y-3.4688
X4.2313Y-4.2188
X4.4188Y-1.2188
X4.4188Y-1.9688
X4.4188Y-2.7188
X4.4188Y-3.4688
X4.7687Y-1.2188
X4.7687Y-1.9688
X4.7687Y-2.7188
X4.7687Y-3.4688
X4.9562Y-4.2188
X5.1688Y-1.2188
X5.1688Y-1.9688
X5.1688Y-2.7188
X5.1688Y-3.4688
X5.3563Y-4.2188
X5.5187Y-1.2188
X5.5187Y-1.9688
X5.5187Y-2.7188
X5.5187Y-3.4688
X5.8937Y-4.2188
X5.9188Y-1.2188
X5.9188Y-1.9688
X5.9188Y-2.7188
X5.9188Y-3.4688
X6.2687Y-1.2188
X6.2687Y-1.9688
X6.2687Y-2.7188
X6.2687Y-3.4688
X6.2938Y-4.2188
X6.6437Y-4.2188
X6.6688Y-1.2188
X6.6688Y-1.9688
X6.6688Y-2.7188
X6.6688Y-3.4688
X7.0187Y-1.2188
X7.0187Y-1.9688
X7.0187Y-2.7188
X7.0187Y-3.4688
X7.0438Y-4.2188
X7.4188Y-1.2188
X7.4188Y-1.9688
X7.4188Y-2.7188
X7.4188Y-3.4688
X7.7687Y-1.2188
X7.7687Y-1.9688
X7.7687Y-2.7188
X7.7687Y-3.4688
X8.1687Y-1.2188
X8.1687Y-1.9688
X8.1687Y-2.7188
X8.1687Y-3.4688
T3
X1.2188Y-1.2188
X1.2188Y-1.9688
X1.2188Y-2.7188
X1.2188Y-3.4688
X1.9688Y-1.2188
X1.9688Y-1.9688
X1.9688Y-2.7188
X1.9688Y-3.4688
X2.3438Y-4.2188
X2.7188Y-1.2188
X2.7188Y-1.9688
X2.7188Y-2.7188
X2.7188Y-3.4688
X3.0938Y-4.2188
X3.4688Y-1.2188
X3.4688Y-1.9688
X3.4688Y-2.7188
X3.4688Y-3.4688
X4.0312Y-4.2188
X4.2188Y-1.2188
X4.2188Y-1.9688
X4.2188Y-2.7188
X4.2188Y-3.4688
X4.9688Y-1.2188
X4.9688Y-1.9688
X4.9688Y-2.7188
X4.9688Y-3.4688
X5.1562Y-4.2188
X5.7188Y-1.2188
X5.7188Y-1.9688
X5.7188Y-2.7188
X5.7188Y-3.4688
X6.0938Y-4.2188
X6.4688Y-1.2188
X6.4688Y-1.9688
X6.4688Y-2.7188
X6.4688Y-3.4688
X6.8438Y-4.2188
X7.2188Y-1.2188
X7.2188Y-1.9688
X7.2188Y-2.7188
X7.2188Y-3.4688
X7.9688Y-1.2188
X7.9688Y-1.9688
X7.9688Y-2.7188
X7.9688Y-3.4688
T0
M30
