%TF.GenerationSoftware,KiCad,Pcbnew,(5.1.12)-1*%
%TF.CreationDate,2022-01-01T12:52:38-05:00*%
%TF.ProjectId,my-keeb-1,6d792d6b-6565-4622-9d31-2e6b69636164,rev?*%
%TF.SameCoordinates,Original*%
%TF.FileFunction,Copper,L1,Top*%
%TF.FilePolarity,Positive*%
%FSLAX46Y46*%
G04 Gerber Fmt 4.6, Leading zero omitted, Abs format (unit mm)*
G04 Created by KiCad (PCBNEW (5.1.12)-1) date 2022-01-01 12:52:38*
%MOMM*%
%LPD*%
G01*
G04 APERTURE LIST*
%TA.AperFunction,ComponentPad*%
%ADD10C,2.250000*%
%TD*%
%TA.AperFunction,ComponentPad*%
%ADD11C,1.752600*%
%TD*%
%TA.AperFunction,ComponentPad*%
%ADD12R,1.752600X1.752600*%
%TD*%
%TA.AperFunction,SMDPad,CuDef*%
%ADD13R,1.800000X1.100000*%
%TD*%
%TA.AperFunction,ComponentPad*%
%ADD14R,1.600000X1.600000*%
%TD*%
%TA.AperFunction,ComponentPad*%
%ADD15C,1.600000*%
%TD*%
%TA.AperFunction,Conductor*%
%ADD16C,0.254000*%
%TD*%
G04 APERTURE END LIST*
%TO.P,M3,5*%
%TO.N,COL9*%
%TA.AperFunction,ComponentPad*%
G36*
G01*
X107937300Y-36772850D02*
X107937300Y-37649150D01*
G75*
G02*
X107499150Y-38087300I-438150J0D01*
G01*
X106622850Y-38087300D01*
G75*
G02*
X106184700Y-37649150I0J438150D01*
G01*
X106184700Y-36772850D01*
G75*
G02*
X106622850Y-36334700I438150J0D01*
G01*
X107499150Y-36334700D01*
G75*
G02*
X107937300Y-36772850I0J-438150D01*
G01*
G37*
%TD.AperFunction*%
%TO.P,M3,4*%
%TO.N,COL8*%
%TA.AperFunction,ComponentPad*%
G36*
G01*
X107937300Y-38804850D02*
X107937300Y-39681150D01*
G75*
G02*
X107499150Y-40119300I-438150J0D01*
G01*
X106622850Y-40119300D01*
G75*
G02*
X106184700Y-39681150I0J438150D01*
G01*
X106184700Y-38804850D01*
G75*
G02*
X106622850Y-38366700I438150J0D01*
G01*
X107499150Y-38366700D01*
G75*
G02*
X107937300Y-38804850I0J-438150D01*
G01*
G37*
%TD.AperFunction*%
%TO.P,M3,3*%
%TO.N,COL7*%
%TA.AperFunction,ComponentPad*%
G36*
G01*
X107937300Y-40836850D02*
X107937300Y-41713150D01*
G75*
G02*
X107499150Y-42151300I-438150J0D01*
G01*
X106622850Y-42151300D01*
G75*
G02*
X106184700Y-41713150I0J438150D01*
G01*
X106184700Y-40836850D01*
G75*
G02*
X106622850Y-40398700I438150J0D01*
G01*
X107499150Y-40398700D01*
G75*
G02*
X107937300Y-40836850I0J-438150D01*
G01*
G37*
%TD.AperFunction*%
%TO.P,M3,2*%
%TO.N,COL6*%
%TA.AperFunction,ComponentPad*%
G36*
G01*
X107937300Y-42868850D02*
X107937300Y-43745150D01*
G75*
G02*
X107499150Y-44183300I-438150J0D01*
G01*
X106622850Y-44183300D01*
G75*
G02*
X106184700Y-43745150I0J438150D01*
G01*
X106184700Y-42868850D01*
G75*
G02*
X106622850Y-42430700I438150J0D01*
G01*
X107499150Y-42430700D01*
G75*
G02*
X107937300Y-42868850I0J-438150D01*
G01*
G37*
%TD.AperFunction*%
%TO.P,M3,1*%
%TO.N,COL5*%
%TA.AperFunction,ComponentPad*%
G36*
G01*
X107937300Y-44900850D02*
X107937300Y-45777150D01*
G75*
G02*
X107499150Y-46215300I-438150J0D01*
G01*
X106622850Y-46215300D01*
G75*
G02*
X106184700Y-45777150I0J438150D01*
G01*
X106184700Y-44900850D01*
G75*
G02*
X106622850Y-44462700I438150J0D01*
G01*
X107499150Y-44462700D01*
G75*
G02*
X107937300Y-44900850I0J-438150D01*
G01*
G37*
%TD.AperFunction*%
%TD*%
%TO.P,M2,5*%
%TO.N,COL4*%
%TA.AperFunction,ComponentPad*%
G36*
G01*
X106184700Y-83877150D02*
X106184700Y-83000850D01*
G75*
G02*
X106622850Y-82562700I438150J0D01*
G01*
X107499150Y-82562700D01*
G75*
G02*
X107937300Y-83000850I0J-438150D01*
G01*
X107937300Y-83877150D01*
G75*
G02*
X107499150Y-84315300I-438150J0D01*
G01*
X106622850Y-84315300D01*
G75*
G02*
X106184700Y-83877150I0J438150D01*
G01*
G37*
%TD.AperFunction*%
%TO.P,M2,4*%
%TO.N,COL3*%
%TA.AperFunction,ComponentPad*%
G36*
G01*
X106184700Y-81845150D02*
X106184700Y-80968850D01*
G75*
G02*
X106622850Y-80530700I438150J0D01*
G01*
X107499150Y-80530700D01*
G75*
G02*
X107937300Y-80968850I0J-438150D01*
G01*
X107937300Y-81845150D01*
G75*
G02*
X107499150Y-82283300I-438150J0D01*
G01*
X106622850Y-82283300D01*
G75*
G02*
X106184700Y-81845150I0J438150D01*
G01*
G37*
%TD.AperFunction*%
%TO.P,M2,3*%
%TO.N,COL2*%
%TA.AperFunction,ComponentPad*%
G36*
G01*
X106184700Y-79813150D02*
X106184700Y-78936850D01*
G75*
G02*
X106622850Y-78498700I438150J0D01*
G01*
X107499150Y-78498700D01*
G75*
G02*
X107937300Y-78936850I0J-438150D01*
G01*
X107937300Y-79813150D01*
G75*
G02*
X107499150Y-80251300I-438150J0D01*
G01*
X106622850Y-80251300D01*
G75*
G02*
X106184700Y-79813150I0J438150D01*
G01*
G37*
%TD.AperFunction*%
%TO.P,M2,2*%
%TO.N,COL1*%
%TA.AperFunction,ComponentPad*%
G36*
G01*
X106184700Y-77781150D02*
X106184700Y-76904850D01*
G75*
G02*
X106622850Y-76466700I438150J0D01*
G01*
X107499150Y-76466700D01*
G75*
G02*
X107937300Y-76904850I0J-438150D01*
G01*
X107937300Y-77781150D01*
G75*
G02*
X107499150Y-78219300I-438150J0D01*
G01*
X106622850Y-78219300D01*
G75*
G02*
X106184700Y-77781150I0J438150D01*
G01*
G37*
%TD.AperFunction*%
%TO.P,M2,1*%
%TO.N,COL0*%
%TA.AperFunction,ComponentPad*%
G36*
G01*
X106184700Y-75749150D02*
X106184700Y-74872850D01*
G75*
G02*
X106622850Y-74434700I438150J0D01*
G01*
X107499150Y-74434700D01*
G75*
G02*
X107937300Y-74872850I0J-438150D01*
G01*
X107937300Y-75749150D01*
G75*
G02*
X107499150Y-76187300I-438150J0D01*
G01*
X106622850Y-76187300D01*
G75*
G02*
X106184700Y-75749150I0J438150D01*
G01*
G37*
%TD.AperFunction*%
%TD*%
%TO.P,M1,5*%
%TO.N,ROW4*%
%TA.AperFunction,ComponentPad*%
G36*
G01*
X106184700Y-64827150D02*
X106184700Y-63950850D01*
G75*
G02*
X106622850Y-63512700I438150J0D01*
G01*
X107499150Y-63512700D01*
G75*
G02*
X107937300Y-63950850I0J-438150D01*
G01*
X107937300Y-64827150D01*
G75*
G02*
X107499150Y-65265300I-438150J0D01*
G01*
X106622850Y-65265300D01*
G75*
G02*
X106184700Y-64827150I0J438150D01*
G01*
G37*
%TD.AperFunction*%
%TO.P,M1,4*%
%TO.N,ROW3*%
%TA.AperFunction,ComponentPad*%
G36*
G01*
X106184700Y-62795150D02*
X106184700Y-61918850D01*
G75*
G02*
X106622850Y-61480700I438150J0D01*
G01*
X107499150Y-61480700D01*
G75*
G02*
X107937300Y-61918850I0J-438150D01*
G01*
X107937300Y-62795150D01*
G75*
G02*
X107499150Y-63233300I-438150J0D01*
G01*
X106622850Y-63233300D01*
G75*
G02*
X106184700Y-62795150I0J438150D01*
G01*
G37*
%TD.AperFunction*%
%TO.P,M1,3*%
%TO.N,ROW2*%
%TA.AperFunction,ComponentPad*%
G36*
G01*
X106184700Y-60763150D02*
X106184700Y-59886850D01*
G75*
G02*
X106622850Y-59448700I438150J0D01*
G01*
X107499150Y-59448700D01*
G75*
G02*
X107937300Y-59886850I0J-438150D01*
G01*
X107937300Y-60763150D01*
G75*
G02*
X107499150Y-61201300I-438150J0D01*
G01*
X106622850Y-61201300D01*
G75*
G02*
X106184700Y-60763150I0J438150D01*
G01*
G37*
%TD.AperFunction*%
%TO.P,M1,2*%
%TO.N,ROW1*%
%TA.AperFunction,ComponentPad*%
G36*
G01*
X106184700Y-58731150D02*
X106184700Y-57854850D01*
G75*
G02*
X106622850Y-57416700I438150J0D01*
G01*
X107499150Y-57416700D01*
G75*
G02*
X107937300Y-57854850I0J-438150D01*
G01*
X107937300Y-58731150D01*
G75*
G02*
X107499150Y-59169300I-438150J0D01*
G01*
X106622850Y-59169300D01*
G75*
G02*
X106184700Y-58731150I0J438150D01*
G01*
G37*
%TD.AperFunction*%
%TO.P,M1,1*%
%TO.N,ROW0*%
%TA.AperFunction,ComponentPad*%
G36*
G01*
X106184700Y-56699150D02*
X106184700Y-55822850D01*
G75*
G02*
X106622850Y-55384700I438150J0D01*
G01*
X107499150Y-55384700D01*
G75*
G02*
X107937300Y-55822850I0J-438150D01*
G01*
X107937300Y-56699150D01*
G75*
G02*
X107499150Y-57137300I-438150J0D01*
G01*
X106622850Y-57137300D01*
G75*
G02*
X106184700Y-56699150I0J438150D01*
G01*
G37*
%TD.AperFunction*%
%TD*%
D10*
%TO.P,MX19,1*%
%TO.N,COL4*%
X95925000Y-18225000D03*
%TA.AperFunction,ComponentPad*%
G36*
G01*
X93863688Y-20522350D02*
X93863683Y-20522345D01*
G75*
G02*
X93777655Y-18933683I751317J837345D01*
G01*
X95087657Y-17473683D01*
G75*
G02*
X96676319Y-17387655I837345J-751317D01*
G01*
X96676319Y-17387655D01*
G75*
G02*
X96762347Y-18976317I-751317J-837345D01*
G01*
X95452345Y-20436317D01*
G75*
G02*
X93863683Y-20522345I-837345J751317D01*
G01*
G37*
%TD.AperFunction*%
%TO.P,MX19,2*%
%TO.N,Net-(D19-Pad2)*%
X100965000Y-17145000D03*
%TA.AperFunction,ComponentPad*%
G36*
G01*
X100848483Y-18847395D02*
X100847597Y-18847334D01*
G75*
G02*
X99802666Y-17647597I77403J1122334D01*
G01*
X99842666Y-17067597D01*
G75*
G02*
X101042403Y-16022666I1122334J-77403D01*
G01*
X101042403Y-16022666D01*
G75*
G02*
X102087334Y-17222403I-77403J-1122334D01*
G01*
X102047334Y-17802403D01*
G75*
G02*
X100847597Y-18847334I-1122334J77403D01*
G01*
G37*
%TD.AperFunction*%
%TD*%
D11*
%TO.P,U1,24*%
%TO.N,Net-(U1-Pad24)*%
X33426400Y-16986250D03*
%TO.P,U1,12*%
%TO.N,ROW2*%
X48666400Y-44926250D03*
%TO.P,U1,23*%
%TO.N,GND*%
X33883600Y-19526250D03*
%TO.P,U1,22*%
%TO.N,Net-(SW1-Pad1)*%
X33426400Y-22066250D03*
%TO.P,U1,21*%
%TO.N,VCC*%
X33883600Y-24606250D03*
%TO.P,U1,20*%
%TO.N,ROW0*%
X33426400Y-27146250D03*
%TO.P,U1,19*%
%TO.N,COL0*%
X33883600Y-29686250D03*
%TO.P,U1,18*%
%TO.N,COL1*%
X33426400Y-32226250D03*
%TO.P,U1,17*%
%TO.N,COL2*%
X33883600Y-34766250D03*
%TO.P,U1,16*%
%TO.N,COL3*%
X33426400Y-37306250D03*
%TO.P,U1,15*%
%TO.N,COL4*%
X33883600Y-39846250D03*
%TO.P,U1,14*%
%TO.N,Net-(U1-Pad14)*%
X33426400Y-42386250D03*
%TO.P,U1,13*%
%TO.N,ROW1*%
X33883600Y-44926250D03*
%TO.P,U1,11*%
%TO.N,ROW3*%
X49123600Y-42386250D03*
%TO.P,U1,10*%
%TO.N,ROW4*%
X48666400Y-39846250D03*
%TO.P,U1,9*%
%TO.N,COL5*%
X49123600Y-37306250D03*
%TO.P,U1,8*%
%TO.N,COL6*%
X48666400Y-34766250D03*
%TO.P,U1,7*%
%TO.N,COL7*%
X49123600Y-32226250D03*
%TO.P,U1,6*%
%TO.N,COL8*%
X48666400Y-29686250D03*
%TO.P,U1,5*%
%TO.N,COL9*%
X49123600Y-27146250D03*
%TO.P,U1,4*%
%TO.N,GND*%
X48666400Y-24606250D03*
%TO.P,U1,3*%
X49123600Y-22066250D03*
%TO.P,U1,2*%
%TO.N,Net-(U1-Pad2)*%
X48666400Y-19526250D03*
D12*
%TO.P,U1,1*%
%TO.N,Net-(U1-Pad1)*%
X49123600Y-16986250D03*
%TD*%
D13*
%TO.P,SW1,1*%
%TO.N,Net-(SW1-Pad1)*%
X28500000Y-33600000D03*
%TO.P,SW1,2*%
%TO.N,GND*%
X22300000Y-29900000D03*
%TO.P,SW1,3*%
%TO.N,N/C*%
X28500000Y-29900000D03*
%TO.P,SW1,4*%
X22300000Y-33600000D03*
%TD*%
%TO.P,MX23,2*%
%TO.N,Net-(D23-Pad2)*%
%TA.AperFunction,ComponentPad*%
G36*
G01*
X96085983Y-95047395D02*
X96085097Y-95047334D01*
G75*
G02*
X95040166Y-93847597I77403J1122334D01*
G01*
X95080166Y-93267597D01*
G75*
G02*
X96279903Y-92222666I1122334J-77403D01*
G01*
X96279903Y-92222666D01*
G75*
G02*
X97324834Y-93422403I-77403J-1122334D01*
G01*
X97284834Y-94002403D01*
G75*
G02*
X96085097Y-95047334I-1122334J77403D01*
G01*
G37*
%TD.AperFunction*%
D10*
X96202500Y-93345000D03*
%TO.P,MX23,1*%
%TO.N,COL4*%
%TA.AperFunction,ComponentPad*%
G36*
G01*
X89101188Y-96722350D02*
X89101183Y-96722345D01*
G75*
G02*
X89015155Y-95133683I751317J837345D01*
G01*
X90325157Y-93673683D01*
G75*
G02*
X91913819Y-93587655I837345J-751317D01*
G01*
X91913819Y-93587655D01*
G75*
G02*
X91999847Y-95176317I-751317J-837345D01*
G01*
X90689845Y-96636317D01*
G75*
G02*
X89101183Y-96722345I-837345J751317D01*
G01*
G37*
%TD.AperFunction*%
X91162500Y-94425000D03*
%TD*%
%TO.P,MX22,2*%
%TO.N,Net-(D22-Pad2)*%
%TA.AperFunction,ComponentPad*%
G36*
G01*
X100848483Y-75997395D02*
X100847597Y-75997334D01*
G75*
G02*
X99802666Y-74797597I77403J1122334D01*
G01*
X99842666Y-74217597D01*
G75*
G02*
X101042403Y-73172666I1122334J-77403D01*
G01*
X101042403Y-73172666D01*
G75*
G02*
X102087334Y-74372403I-77403J-1122334D01*
G01*
X102047334Y-74952403D01*
G75*
G02*
X100847597Y-75997334I-1122334J77403D01*
G01*
G37*
%TD.AperFunction*%
X100965000Y-74295000D03*
%TO.P,MX22,1*%
%TO.N,COL4*%
%TA.AperFunction,ComponentPad*%
G36*
G01*
X93863688Y-77672350D02*
X93863683Y-77672345D01*
G75*
G02*
X93777655Y-76083683I751317J837345D01*
G01*
X95087657Y-74623683D01*
G75*
G02*
X96676319Y-74537655I837345J-751317D01*
G01*
X96676319Y-74537655D01*
G75*
G02*
X96762347Y-76126317I-751317J-837345D01*
G01*
X95452345Y-77586317D01*
G75*
G02*
X93863683Y-77672345I-837345J751317D01*
G01*
G37*
%TD.AperFunction*%
X95925000Y-75375000D03*
%TD*%
%TO.P,MX21,2*%
%TO.N,Net-(D21-Pad2)*%
%TA.AperFunction,ComponentPad*%
G36*
G01*
X100848483Y-56947395D02*
X100847597Y-56947334D01*
G75*
G02*
X99802666Y-55747597I77403J1122334D01*
G01*
X99842666Y-55167597D01*
G75*
G02*
X101042403Y-54122666I1122334J-77403D01*
G01*
X101042403Y-54122666D01*
G75*
G02*
X102087334Y-55322403I-77403J-1122334D01*
G01*
X102047334Y-55902403D01*
G75*
G02*
X100847597Y-56947334I-1122334J77403D01*
G01*
G37*
%TD.AperFunction*%
X100965000Y-55245000D03*
%TO.P,MX21,1*%
%TO.N,COL4*%
%TA.AperFunction,ComponentPad*%
G36*
G01*
X93863688Y-58622350D02*
X93863683Y-58622345D01*
G75*
G02*
X93777655Y-57033683I751317J837345D01*
G01*
X95087657Y-55573683D01*
G75*
G02*
X96676319Y-55487655I837345J-751317D01*
G01*
X96676319Y-55487655D01*
G75*
G02*
X96762347Y-57076317I-751317J-837345D01*
G01*
X95452345Y-58536317D01*
G75*
G02*
X93863683Y-58622345I-837345J751317D01*
G01*
G37*
%TD.AperFunction*%
X95925000Y-56325000D03*
%TD*%
%TO.P,MX20,2*%
%TO.N,Net-(D20-Pad2)*%
%TA.AperFunction,ComponentPad*%
G36*
G01*
X100848483Y-37897395D02*
X100847597Y-37897334D01*
G75*
G02*
X99802666Y-36697597I77403J1122334D01*
G01*
X99842666Y-36117597D01*
G75*
G02*
X101042403Y-35072666I1122334J-77403D01*
G01*
X101042403Y-35072666D01*
G75*
G02*
X102087334Y-36272403I-77403J-1122334D01*
G01*
X102047334Y-36852403D01*
G75*
G02*
X100847597Y-37897334I-1122334J77403D01*
G01*
G37*
%TD.AperFunction*%
X100965000Y-36195000D03*
%TO.P,MX20,1*%
%TO.N,COL4*%
%TA.AperFunction,ComponentPad*%
G36*
G01*
X93863688Y-39572350D02*
X93863683Y-39572345D01*
G75*
G02*
X93777655Y-37983683I751317J837345D01*
G01*
X95087657Y-36523683D01*
G75*
G02*
X96676319Y-36437655I837345J-751317D01*
G01*
X96676319Y-36437655D01*
G75*
G02*
X96762347Y-38026317I-751317J-837345D01*
G01*
X95452345Y-39486317D01*
G75*
G02*
X93863683Y-39572345I-837345J751317D01*
G01*
G37*
%TD.AperFunction*%
X95925000Y-37275000D03*
%TD*%
%TO.P,MX18,2*%
%TO.N,Net-(D18-Pad2)*%
%TA.AperFunction,ComponentPad*%
G36*
G01*
X72273483Y-95047395D02*
X72272597Y-95047334D01*
G75*
G02*
X71227666Y-93847597I77403J1122334D01*
G01*
X71267666Y-93267597D01*
G75*
G02*
X72467403Y-92222666I1122334J-77403D01*
G01*
X72467403Y-92222666D01*
G75*
G02*
X73512334Y-93422403I-77403J-1122334D01*
G01*
X73472334Y-94002403D01*
G75*
G02*
X72272597Y-95047334I-1122334J77403D01*
G01*
G37*
%TD.AperFunction*%
X72390000Y-93345000D03*
%TO.P,MX18,1*%
%TO.N,COL3*%
%TA.AperFunction,ComponentPad*%
G36*
G01*
X65288688Y-96722350D02*
X65288683Y-96722345D01*
G75*
G02*
X65202655Y-95133683I751317J837345D01*
G01*
X66512657Y-93673683D01*
G75*
G02*
X68101319Y-93587655I837345J-751317D01*
G01*
X68101319Y-93587655D01*
G75*
G02*
X68187347Y-95176317I-751317J-837345D01*
G01*
X66877345Y-96636317D01*
G75*
G02*
X65288683Y-96722345I-837345J751317D01*
G01*
G37*
%TD.AperFunction*%
X67350000Y-94425000D03*
%TD*%
%TO.P,MX17,2*%
%TO.N,Net-(D17-Pad2)*%
%TA.AperFunction,ComponentPad*%
G36*
G01*
X81798483Y-75997395D02*
X81797597Y-75997334D01*
G75*
G02*
X80752666Y-74797597I77403J1122334D01*
G01*
X80792666Y-74217597D01*
G75*
G02*
X81992403Y-73172666I1122334J-77403D01*
G01*
X81992403Y-73172666D01*
G75*
G02*
X83037334Y-74372403I-77403J-1122334D01*
G01*
X82997334Y-74952403D01*
G75*
G02*
X81797597Y-75997334I-1122334J77403D01*
G01*
G37*
%TD.AperFunction*%
X81915000Y-74295000D03*
%TO.P,MX17,1*%
%TO.N,COL3*%
%TA.AperFunction,ComponentPad*%
G36*
G01*
X74813688Y-77672350D02*
X74813683Y-77672345D01*
G75*
G02*
X74727655Y-76083683I751317J837345D01*
G01*
X76037657Y-74623683D01*
G75*
G02*
X77626319Y-74537655I837345J-751317D01*
G01*
X77626319Y-74537655D01*
G75*
G02*
X77712347Y-76126317I-751317J-837345D01*
G01*
X76402345Y-77586317D01*
G75*
G02*
X74813683Y-77672345I-837345J751317D01*
G01*
G37*
%TD.AperFunction*%
X76875000Y-75375000D03*
%TD*%
%TO.P,MX16,2*%
%TO.N,Net-(D16-Pad2)*%
%TA.AperFunction,ComponentPad*%
G36*
G01*
X81798483Y-56947395D02*
X81797597Y-56947334D01*
G75*
G02*
X80752666Y-55747597I77403J1122334D01*
G01*
X80792666Y-55167597D01*
G75*
G02*
X81992403Y-54122666I1122334J-77403D01*
G01*
X81992403Y-54122666D01*
G75*
G02*
X83037334Y-55322403I-77403J-1122334D01*
G01*
X82997334Y-55902403D01*
G75*
G02*
X81797597Y-56947334I-1122334J77403D01*
G01*
G37*
%TD.AperFunction*%
X81915000Y-55245000D03*
%TO.P,MX16,1*%
%TO.N,COL3*%
%TA.AperFunction,ComponentPad*%
G36*
G01*
X74813688Y-58622350D02*
X74813683Y-58622345D01*
G75*
G02*
X74727655Y-57033683I751317J837345D01*
G01*
X76037657Y-55573683D01*
G75*
G02*
X77626319Y-55487655I837345J-751317D01*
G01*
X77626319Y-55487655D01*
G75*
G02*
X77712347Y-57076317I-751317J-837345D01*
G01*
X76402345Y-58536317D01*
G75*
G02*
X74813683Y-58622345I-837345J751317D01*
G01*
G37*
%TD.AperFunction*%
X76875000Y-56325000D03*
%TD*%
%TO.P,MX15,2*%
%TO.N,Net-(D15-Pad2)*%
%TA.AperFunction,ComponentPad*%
G36*
G01*
X81798483Y-37897395D02*
X81797597Y-37897334D01*
G75*
G02*
X80752666Y-36697597I77403J1122334D01*
G01*
X80792666Y-36117597D01*
G75*
G02*
X81992403Y-35072666I1122334J-77403D01*
G01*
X81992403Y-35072666D01*
G75*
G02*
X83037334Y-36272403I-77403J-1122334D01*
G01*
X82997334Y-36852403D01*
G75*
G02*
X81797597Y-37897334I-1122334J77403D01*
G01*
G37*
%TD.AperFunction*%
X81915000Y-36195000D03*
%TO.P,MX15,1*%
%TO.N,COL3*%
%TA.AperFunction,ComponentPad*%
G36*
G01*
X74813688Y-39572350D02*
X74813683Y-39572345D01*
G75*
G02*
X74727655Y-37983683I751317J837345D01*
G01*
X76037657Y-36523683D01*
G75*
G02*
X77626319Y-36437655I837345J-751317D01*
G01*
X77626319Y-36437655D01*
G75*
G02*
X77712347Y-38026317I-751317J-837345D01*
G01*
X76402345Y-39486317D01*
G75*
G02*
X74813683Y-39572345I-837345J751317D01*
G01*
G37*
%TD.AperFunction*%
X76875000Y-37275000D03*
%TD*%
%TO.P,MX14,2*%
%TO.N,Net-(D14-Pad2)*%
%TA.AperFunction,ComponentPad*%
G36*
G01*
X81798483Y-18847395D02*
X81797597Y-18847334D01*
G75*
G02*
X80752666Y-17647597I77403J1122334D01*
G01*
X80792666Y-17067597D01*
G75*
G02*
X81992403Y-16022666I1122334J-77403D01*
G01*
X81992403Y-16022666D01*
G75*
G02*
X83037334Y-17222403I-77403J-1122334D01*
G01*
X82997334Y-17802403D01*
G75*
G02*
X81797597Y-18847334I-1122334J77403D01*
G01*
G37*
%TD.AperFunction*%
X81915000Y-17145000D03*
%TO.P,MX14,1*%
%TO.N,COL3*%
%TA.AperFunction,ComponentPad*%
G36*
G01*
X74813688Y-20522350D02*
X74813683Y-20522345D01*
G75*
G02*
X74727655Y-18933683I751317J837345D01*
G01*
X76037657Y-17473683D01*
G75*
G02*
X77626319Y-17387655I837345J-751317D01*
G01*
X77626319Y-17387655D01*
G75*
G02*
X77712347Y-18976317I-751317J-837345D01*
G01*
X76402345Y-20436317D01*
G75*
G02*
X74813683Y-20522345I-837345J751317D01*
G01*
G37*
%TD.AperFunction*%
X76875000Y-18225000D03*
%TD*%
%TO.P,MX13,2*%
%TO.N,Net-(D13-Pad2)*%
%TA.AperFunction,ComponentPad*%
G36*
G01*
X53223483Y-95047395D02*
X53222597Y-95047334D01*
G75*
G02*
X52177666Y-93847597I77403J1122334D01*
G01*
X52217666Y-93267597D01*
G75*
G02*
X53417403Y-92222666I1122334J-77403D01*
G01*
X53417403Y-92222666D01*
G75*
G02*
X54462334Y-93422403I-77403J-1122334D01*
G01*
X54422334Y-94002403D01*
G75*
G02*
X53222597Y-95047334I-1122334J77403D01*
G01*
G37*
%TD.AperFunction*%
X53340000Y-93345000D03*
%TO.P,MX13,1*%
%TO.N,COL2*%
%TA.AperFunction,ComponentPad*%
G36*
G01*
X46238688Y-96722350D02*
X46238683Y-96722345D01*
G75*
G02*
X46152655Y-95133683I751317J837345D01*
G01*
X47462657Y-93673683D01*
G75*
G02*
X49051319Y-93587655I837345J-751317D01*
G01*
X49051319Y-93587655D01*
G75*
G02*
X49137347Y-95176317I-751317J-837345D01*
G01*
X47827345Y-96636317D01*
G75*
G02*
X46238683Y-96722345I-837345J751317D01*
G01*
G37*
%TD.AperFunction*%
X48300000Y-94425000D03*
%TD*%
%TO.P,MX12,2*%
%TO.N,Net-(D12-Pad2)*%
%TA.AperFunction,ComponentPad*%
G36*
G01*
X62748483Y-75997395D02*
X62747597Y-75997334D01*
G75*
G02*
X61702666Y-74797597I77403J1122334D01*
G01*
X61742666Y-74217597D01*
G75*
G02*
X62942403Y-73172666I1122334J-77403D01*
G01*
X62942403Y-73172666D01*
G75*
G02*
X63987334Y-74372403I-77403J-1122334D01*
G01*
X63947334Y-74952403D01*
G75*
G02*
X62747597Y-75997334I-1122334J77403D01*
G01*
G37*
%TD.AperFunction*%
X62865000Y-74295000D03*
%TO.P,MX12,1*%
%TO.N,COL2*%
%TA.AperFunction,ComponentPad*%
G36*
G01*
X55763688Y-77672350D02*
X55763683Y-77672345D01*
G75*
G02*
X55677655Y-76083683I751317J837345D01*
G01*
X56987657Y-74623683D01*
G75*
G02*
X58576319Y-74537655I837345J-751317D01*
G01*
X58576319Y-74537655D01*
G75*
G02*
X58662347Y-76126317I-751317J-837345D01*
G01*
X57352345Y-77586317D01*
G75*
G02*
X55763683Y-77672345I-837345J751317D01*
G01*
G37*
%TD.AperFunction*%
X57825000Y-75375000D03*
%TD*%
%TO.P,MX11,2*%
%TO.N,Net-(D11-Pad2)*%
%TA.AperFunction,ComponentPad*%
G36*
G01*
X62748483Y-56947395D02*
X62747597Y-56947334D01*
G75*
G02*
X61702666Y-55747597I77403J1122334D01*
G01*
X61742666Y-55167597D01*
G75*
G02*
X62942403Y-54122666I1122334J-77403D01*
G01*
X62942403Y-54122666D01*
G75*
G02*
X63987334Y-55322403I-77403J-1122334D01*
G01*
X63947334Y-55902403D01*
G75*
G02*
X62747597Y-56947334I-1122334J77403D01*
G01*
G37*
%TD.AperFunction*%
X62865000Y-55245000D03*
%TO.P,MX11,1*%
%TO.N,COL2*%
%TA.AperFunction,ComponentPad*%
G36*
G01*
X55763688Y-58622350D02*
X55763683Y-58622345D01*
G75*
G02*
X55677655Y-57033683I751317J837345D01*
G01*
X56987657Y-55573683D01*
G75*
G02*
X58576319Y-55487655I837345J-751317D01*
G01*
X58576319Y-55487655D01*
G75*
G02*
X58662347Y-57076317I-751317J-837345D01*
G01*
X57352345Y-58536317D01*
G75*
G02*
X55763683Y-58622345I-837345J751317D01*
G01*
G37*
%TD.AperFunction*%
X57825000Y-56325000D03*
%TD*%
%TO.P,MX10,2*%
%TO.N,Net-(D10-Pad2)*%
%TA.AperFunction,ComponentPad*%
G36*
G01*
X62748483Y-37897395D02*
X62747597Y-37897334D01*
G75*
G02*
X61702666Y-36697597I77403J1122334D01*
G01*
X61742666Y-36117597D01*
G75*
G02*
X62942403Y-35072666I1122334J-77403D01*
G01*
X62942403Y-35072666D01*
G75*
G02*
X63987334Y-36272403I-77403J-1122334D01*
G01*
X63947334Y-36852403D01*
G75*
G02*
X62747597Y-37897334I-1122334J77403D01*
G01*
G37*
%TD.AperFunction*%
X62865000Y-36195000D03*
%TO.P,MX10,1*%
%TO.N,COL2*%
%TA.AperFunction,ComponentPad*%
G36*
G01*
X55763688Y-39572350D02*
X55763683Y-39572345D01*
G75*
G02*
X55677655Y-37983683I751317J837345D01*
G01*
X56987657Y-36523683D01*
G75*
G02*
X58576319Y-36437655I837345J-751317D01*
G01*
X58576319Y-36437655D01*
G75*
G02*
X58662347Y-38026317I-751317J-837345D01*
G01*
X57352345Y-39486317D01*
G75*
G02*
X55763683Y-39572345I-837345J751317D01*
G01*
G37*
%TD.AperFunction*%
X57825000Y-37275000D03*
%TD*%
%TO.P,MX9,2*%
%TO.N,Net-(D9-Pad2)*%
%TA.AperFunction,ComponentPad*%
G36*
G01*
X62748483Y-18847395D02*
X62747597Y-18847334D01*
G75*
G02*
X61702666Y-17647597I77403J1122334D01*
G01*
X61742666Y-17067597D01*
G75*
G02*
X62942403Y-16022666I1122334J-77403D01*
G01*
X62942403Y-16022666D01*
G75*
G02*
X63987334Y-17222403I-77403J-1122334D01*
G01*
X63947334Y-17802403D01*
G75*
G02*
X62747597Y-18847334I-1122334J77403D01*
G01*
G37*
%TD.AperFunction*%
X62865000Y-17145000D03*
%TO.P,MX9,1*%
%TO.N,COL2*%
%TA.AperFunction,ComponentPad*%
G36*
G01*
X55763688Y-20522350D02*
X55763683Y-20522345D01*
G75*
G02*
X55677655Y-18933683I751317J837345D01*
G01*
X56987657Y-17473683D01*
G75*
G02*
X58576319Y-17387655I837345J-751317D01*
G01*
X58576319Y-17387655D01*
G75*
G02*
X58662347Y-18976317I-751317J-837345D01*
G01*
X57352345Y-20436317D01*
G75*
G02*
X55763683Y-20522345I-837345J751317D01*
G01*
G37*
%TD.AperFunction*%
X57825000Y-18225000D03*
%TD*%
%TO.P,MX8,2*%
%TO.N,Net-(D8-Pad2)*%
%TA.AperFunction,ComponentPad*%
G36*
G01*
X43698483Y-75997395D02*
X43697597Y-75997334D01*
G75*
G02*
X42652666Y-74797597I77403J1122334D01*
G01*
X42692666Y-74217597D01*
G75*
G02*
X43892403Y-73172666I1122334J-77403D01*
G01*
X43892403Y-73172666D01*
G75*
G02*
X44937334Y-74372403I-77403J-1122334D01*
G01*
X44897334Y-74952403D01*
G75*
G02*
X43697597Y-75997334I-1122334J77403D01*
G01*
G37*
%TD.AperFunction*%
X43815000Y-74295000D03*
%TO.P,MX8,1*%
%TO.N,COL1*%
%TA.AperFunction,ComponentPad*%
G36*
G01*
X36713688Y-77672350D02*
X36713683Y-77672345D01*
G75*
G02*
X36627655Y-76083683I751317J837345D01*
G01*
X37937657Y-74623683D01*
G75*
G02*
X39526319Y-74537655I837345J-751317D01*
G01*
X39526319Y-74537655D01*
G75*
G02*
X39612347Y-76126317I-751317J-837345D01*
G01*
X38302345Y-77586317D01*
G75*
G02*
X36713683Y-77672345I-837345J751317D01*
G01*
G37*
%TD.AperFunction*%
X38775000Y-75375000D03*
%TD*%
%TO.P,MX7,2*%
%TO.N,Net-(D7-Pad2)*%
%TA.AperFunction,ComponentPad*%
G36*
G01*
X43698483Y-56947395D02*
X43697597Y-56947334D01*
G75*
G02*
X42652666Y-55747597I77403J1122334D01*
G01*
X42692666Y-55167597D01*
G75*
G02*
X43892403Y-54122666I1122334J-77403D01*
G01*
X43892403Y-54122666D01*
G75*
G02*
X44937334Y-55322403I-77403J-1122334D01*
G01*
X44897334Y-55902403D01*
G75*
G02*
X43697597Y-56947334I-1122334J77403D01*
G01*
G37*
%TD.AperFunction*%
X43815000Y-55245000D03*
%TO.P,MX7,1*%
%TO.N,COL1*%
%TA.AperFunction,ComponentPad*%
G36*
G01*
X36713688Y-58622350D02*
X36713683Y-58622345D01*
G75*
G02*
X36627655Y-57033683I751317J837345D01*
G01*
X37937657Y-55573683D01*
G75*
G02*
X39526319Y-55487655I837345J-751317D01*
G01*
X39526319Y-55487655D01*
G75*
G02*
X39612347Y-57076317I-751317J-837345D01*
G01*
X38302345Y-58536317D01*
G75*
G02*
X36713683Y-58622345I-837345J751317D01*
G01*
G37*
%TD.AperFunction*%
X38775000Y-56325000D03*
%TD*%
%TO.P,MX6,2*%
%TO.N,Net-(D6-Pad2)*%
%TA.AperFunction,ComponentPad*%
G36*
G01*
X43698483Y-37897395D02*
X43697597Y-37897334D01*
G75*
G02*
X42652666Y-36697597I77403J1122334D01*
G01*
X42692666Y-36117597D01*
G75*
G02*
X43892403Y-35072666I1122334J-77403D01*
G01*
X43892403Y-35072666D01*
G75*
G02*
X44937334Y-36272403I-77403J-1122334D01*
G01*
X44897334Y-36852403D01*
G75*
G02*
X43697597Y-37897334I-1122334J77403D01*
G01*
G37*
%TD.AperFunction*%
X43815000Y-36195000D03*
%TO.P,MX6,1*%
%TO.N,COL1*%
%TA.AperFunction,ComponentPad*%
G36*
G01*
X36713688Y-39572350D02*
X36713683Y-39572345D01*
G75*
G02*
X36627655Y-37983683I751317J837345D01*
G01*
X37937657Y-36523683D01*
G75*
G02*
X39526319Y-36437655I837345J-751317D01*
G01*
X39526319Y-36437655D01*
G75*
G02*
X39612347Y-38026317I-751317J-837345D01*
G01*
X38302345Y-39486317D01*
G75*
G02*
X36713683Y-39572345I-837345J751317D01*
G01*
G37*
%TD.AperFunction*%
X38775000Y-37275000D03*
%TD*%
%TO.P,MX5,2*%
%TO.N,Net-(D5-Pad2)*%
%TA.AperFunction,ComponentPad*%
G36*
G01*
X43698483Y-18847395D02*
X43697597Y-18847334D01*
G75*
G02*
X42652666Y-17647597I77403J1122334D01*
G01*
X42692666Y-17067597D01*
G75*
G02*
X43892403Y-16022666I1122334J-77403D01*
G01*
X43892403Y-16022666D01*
G75*
G02*
X44937334Y-17222403I-77403J-1122334D01*
G01*
X44897334Y-17802403D01*
G75*
G02*
X43697597Y-18847334I-1122334J77403D01*
G01*
G37*
%TD.AperFunction*%
X43815000Y-17145000D03*
%TO.P,MX5,1*%
%TO.N,COL1*%
%TA.AperFunction,ComponentPad*%
G36*
G01*
X36713688Y-20522350D02*
X36713683Y-20522345D01*
G75*
G02*
X36627655Y-18933683I751317J837345D01*
G01*
X37937657Y-17473683D01*
G75*
G02*
X39526319Y-17387655I837345J-751317D01*
G01*
X39526319Y-17387655D01*
G75*
G02*
X39612347Y-18976317I-751317J-837345D01*
G01*
X38302345Y-20436317D01*
G75*
G02*
X36713683Y-20522345I-837345J751317D01*
G01*
G37*
%TD.AperFunction*%
X38775000Y-18225000D03*
%TD*%
%TO.P,MX4,2*%
%TO.N,Net-(D4-Pad2)*%
%TA.AperFunction,ComponentPad*%
G36*
G01*
X24648483Y-75997395D02*
X24647597Y-75997334D01*
G75*
G02*
X23602666Y-74797597I77403J1122334D01*
G01*
X23642666Y-74217597D01*
G75*
G02*
X24842403Y-73172666I1122334J-77403D01*
G01*
X24842403Y-73172666D01*
G75*
G02*
X25887334Y-74372403I-77403J-1122334D01*
G01*
X25847334Y-74952403D01*
G75*
G02*
X24647597Y-75997334I-1122334J77403D01*
G01*
G37*
%TD.AperFunction*%
X24765000Y-74295000D03*
%TO.P,MX4,1*%
%TO.N,COL0*%
%TA.AperFunction,ComponentPad*%
G36*
G01*
X17663688Y-77672350D02*
X17663683Y-77672345D01*
G75*
G02*
X17577655Y-76083683I751317J837345D01*
G01*
X18887657Y-74623683D01*
G75*
G02*
X20476319Y-74537655I837345J-751317D01*
G01*
X20476319Y-74537655D01*
G75*
G02*
X20562347Y-76126317I-751317J-837345D01*
G01*
X19252345Y-77586317D01*
G75*
G02*
X17663683Y-77672345I-837345J751317D01*
G01*
G37*
%TD.AperFunction*%
X19725000Y-75375000D03*
%TD*%
%TO.P,MX3,2*%
%TO.N,Net-(D3-Pad2)*%
%TA.AperFunction,ComponentPad*%
G36*
G01*
X24648483Y-56947395D02*
X24647597Y-56947334D01*
G75*
G02*
X23602666Y-55747597I77403J1122334D01*
G01*
X23642666Y-55167597D01*
G75*
G02*
X24842403Y-54122666I1122334J-77403D01*
G01*
X24842403Y-54122666D01*
G75*
G02*
X25887334Y-55322403I-77403J-1122334D01*
G01*
X25847334Y-55902403D01*
G75*
G02*
X24647597Y-56947334I-1122334J77403D01*
G01*
G37*
%TD.AperFunction*%
X24765000Y-55245000D03*
%TO.P,MX3,1*%
%TO.N,COL0*%
%TA.AperFunction,ComponentPad*%
G36*
G01*
X17663688Y-58622350D02*
X17663683Y-58622345D01*
G75*
G02*
X17577655Y-57033683I751317J837345D01*
G01*
X18887657Y-55573683D01*
G75*
G02*
X20476319Y-55487655I837345J-751317D01*
G01*
X20476319Y-55487655D01*
G75*
G02*
X20562347Y-57076317I-751317J-837345D01*
G01*
X19252345Y-58536317D01*
G75*
G02*
X17663683Y-58622345I-837345J751317D01*
G01*
G37*
%TD.AperFunction*%
X19725000Y-56325000D03*
%TD*%
%TO.P,MX2,2*%
%TO.N,Net-(D2-Pad2)*%
%TA.AperFunction,ComponentPad*%
G36*
G01*
X24648483Y-37897395D02*
X24647597Y-37897334D01*
G75*
G02*
X23602666Y-36697597I77403J1122334D01*
G01*
X23642666Y-36117597D01*
G75*
G02*
X24842403Y-35072666I1122334J-77403D01*
G01*
X24842403Y-35072666D01*
G75*
G02*
X25887334Y-36272403I-77403J-1122334D01*
G01*
X25847334Y-36852403D01*
G75*
G02*
X24647597Y-37897334I-1122334J77403D01*
G01*
G37*
%TD.AperFunction*%
X24765000Y-36195000D03*
%TO.P,MX2,1*%
%TO.N,COL0*%
%TA.AperFunction,ComponentPad*%
G36*
G01*
X17663688Y-39572350D02*
X17663683Y-39572345D01*
G75*
G02*
X17577655Y-37983683I751317J837345D01*
G01*
X18887657Y-36523683D01*
G75*
G02*
X20476319Y-36437655I837345J-751317D01*
G01*
X20476319Y-36437655D01*
G75*
G02*
X20562347Y-38026317I-751317J-837345D01*
G01*
X19252345Y-39486317D01*
G75*
G02*
X17663683Y-39572345I-837345J751317D01*
G01*
G37*
%TD.AperFunction*%
X19725000Y-37275000D03*
%TD*%
%TO.P,MX1,2*%
%TO.N,Net-(D1-Pad2)*%
%TA.AperFunction,ComponentPad*%
G36*
G01*
X24648483Y-18847395D02*
X24647597Y-18847334D01*
G75*
G02*
X23602666Y-17647597I77403J1122334D01*
G01*
X23642666Y-17067597D01*
G75*
G02*
X24842403Y-16022666I1122334J-77403D01*
G01*
X24842403Y-16022666D01*
G75*
G02*
X25887334Y-17222403I-77403J-1122334D01*
G01*
X25847334Y-17802403D01*
G75*
G02*
X24647597Y-18847334I-1122334J77403D01*
G01*
G37*
%TD.AperFunction*%
X24765000Y-17145000D03*
%TO.P,MX1,1*%
%TO.N,COL0*%
%TA.AperFunction,ComponentPad*%
G36*
G01*
X17663688Y-20522350D02*
X17663683Y-20522345D01*
G75*
G02*
X17577655Y-18933683I751317J837345D01*
G01*
X18887657Y-17473683D01*
G75*
G02*
X20476319Y-17387655I837345J-751317D01*
G01*
X20476319Y-17387655D01*
G75*
G02*
X20562347Y-18976317I-751317J-837345D01*
G01*
X19252345Y-20436317D01*
G75*
G02*
X17663683Y-20522345I-837345J751317D01*
G01*
G37*
%TD.AperFunction*%
X19725000Y-18225000D03*
%TD*%
D14*
%TO.P,D23,1*%
%TO.N,ROW4*%
X101600000Y-102325000D03*
D15*
%TO.P,D23,2*%
%TO.N,Net-(D23-Pad2)*%
X101600000Y-94525000D03*
%TD*%
D14*
%TO.P,D22,1*%
%TO.N,ROW3*%
X94525000Y-87312500D03*
D15*
%TO.P,D22,2*%
%TO.N,Net-(D22-Pad2)*%
X102325000Y-87312500D03*
%TD*%
D14*
%TO.P,D21,1*%
%TO.N,ROW2*%
X94525000Y-68262500D03*
D15*
%TO.P,D21,2*%
%TO.N,Net-(D21-Pad2)*%
X102325000Y-68262500D03*
%TD*%
%TO.P,D20,2*%
%TO.N,Net-(D20-Pad2)*%
X102325000Y-49212500D03*
D14*
%TO.P,D20,1*%
%TO.N,ROW1*%
X94525000Y-49212500D03*
%TD*%
%TO.P,D19,1*%
%TO.N,ROW0*%
X94525000Y-30162500D03*
D15*
%TO.P,D19,2*%
%TO.N,Net-(D19-Pad2)*%
X102325000Y-30162500D03*
%TD*%
D14*
%TO.P,D18,1*%
%TO.N,ROW4*%
X77787500Y-102325000D03*
D15*
%TO.P,D18,2*%
%TO.N,Net-(D18-Pad2)*%
X77787500Y-94525000D03*
%TD*%
D14*
%TO.P,D17,1*%
%TO.N,ROW3*%
X87312500Y-83275000D03*
D15*
%TO.P,D17,2*%
%TO.N,Net-(D17-Pad2)*%
X87312500Y-75475000D03*
%TD*%
D14*
%TO.P,D16,1*%
%TO.N,ROW2*%
X87312500Y-64225000D03*
D15*
%TO.P,D16,2*%
%TO.N,Net-(D16-Pad2)*%
X87312500Y-56425000D03*
%TD*%
D14*
%TO.P,D15,1*%
%TO.N,ROW1*%
X87312500Y-45175000D03*
D15*
%TO.P,D15,2*%
%TO.N,Net-(D15-Pad2)*%
X87312500Y-37375000D03*
%TD*%
D14*
%TO.P,D14,1*%
%TO.N,ROW0*%
X87312500Y-26125000D03*
D15*
%TO.P,D14,2*%
%TO.N,Net-(D14-Pad2)*%
X87312500Y-18325000D03*
%TD*%
D14*
%TO.P,D13,1*%
%TO.N,ROW4*%
X58737500Y-102325000D03*
D15*
%TO.P,D13,2*%
%TO.N,Net-(D13-Pad2)*%
X58737500Y-94525000D03*
%TD*%
D14*
%TO.P,D12,1*%
%TO.N,ROW3*%
X68262500Y-83275000D03*
D15*
%TO.P,D12,2*%
%TO.N,Net-(D12-Pad2)*%
X68262500Y-75475000D03*
%TD*%
D14*
%TO.P,D11,1*%
%TO.N,ROW2*%
X68262500Y-64225000D03*
D15*
%TO.P,D11,2*%
%TO.N,Net-(D11-Pad2)*%
X68262500Y-56425000D03*
%TD*%
D14*
%TO.P,D10,1*%
%TO.N,ROW1*%
X68262500Y-45175000D03*
D15*
%TO.P,D10,2*%
%TO.N,Net-(D10-Pad2)*%
X68262500Y-37375000D03*
%TD*%
D14*
%TO.P,D9,1*%
%TO.N,ROW0*%
X68262500Y-26125000D03*
D15*
%TO.P,D9,2*%
%TO.N,Net-(D9-Pad2)*%
X68262500Y-18325000D03*
%TD*%
D14*
%TO.P,D8,1*%
%TO.N,ROW3*%
X49212500Y-83275000D03*
D15*
%TO.P,D8,2*%
%TO.N,Net-(D8-Pad2)*%
X49212500Y-75475000D03*
%TD*%
D14*
%TO.P,D7,1*%
%TO.N,ROW2*%
X49212500Y-64225000D03*
D15*
%TO.P,D7,2*%
%TO.N,Net-(D7-Pad2)*%
X49212500Y-56425000D03*
%TD*%
D14*
%TO.P,D6,1*%
%TO.N,ROW1*%
X37375000Y-49212500D03*
D15*
%TO.P,D6,2*%
%TO.N,Net-(D6-Pad2)*%
X45175000Y-49212500D03*
%TD*%
D14*
%TO.P,D5,1*%
%TO.N,ROW0*%
X37375000Y-30162500D03*
D15*
%TO.P,D5,2*%
%TO.N,Net-(D5-Pad2)*%
X45175000Y-30162500D03*
%TD*%
D14*
%TO.P,D4,1*%
%TO.N,ROW3*%
X30162500Y-83275000D03*
D15*
%TO.P,D4,2*%
%TO.N,Net-(D4-Pad2)*%
X30162500Y-75475000D03*
%TD*%
D14*
%TO.P,D3,1*%
%TO.N,ROW2*%
X30162500Y-64225000D03*
D15*
%TO.P,D3,2*%
%TO.N,Net-(D3-Pad2)*%
X30162500Y-56425000D03*
%TD*%
D14*
%TO.P,D2,1*%
%TO.N,ROW1*%
X18325000Y-49212500D03*
D15*
%TO.P,D2,2*%
%TO.N,Net-(D2-Pad2)*%
X26125000Y-49212500D03*
%TD*%
D14*
%TO.P,D1,1*%
%TO.N,ROW0*%
X30162500Y-26125000D03*
D15*
%TO.P,D1,2*%
%TO.N,Net-(D1-Pad2)*%
X30162500Y-18325000D03*
%TD*%
D16*
%TO.N,ROW0*%
X101930750Y-33096750D02*
X97459250Y-33096750D01*
X105029000Y-36195000D02*
X101930750Y-33096750D01*
X105029000Y-54133700D02*
X105029000Y-36195000D01*
X107029300Y-56134000D02*
X105029000Y-54133700D01*
X97459250Y-33096750D02*
X94525000Y-30162500D01*
%TO.N,Net-(D2-Pad2)*%
X24725000Y-47812500D02*
X26125000Y-49212500D01*
X24725000Y-36775000D02*
X24725000Y-47812500D01*
%TO.N,ROW1*%
X97890500Y-52578000D02*
X94525000Y-49212500D01*
X97890500Y-52578000D02*
X100711000Y-52578000D01*
X106426000Y-58293000D02*
X107061000Y-58293000D01*
X100711000Y-52578000D02*
X106426000Y-58293000D01*
%TO.N,ROW2*%
X48085499Y-45507151D02*
X48666400Y-44926250D01*
X48085499Y-63071499D02*
X48085499Y-45507151D01*
X49212500Y-64198500D02*
X48085499Y-63071499D01*
X49212500Y-64225000D02*
X49212500Y-64198500D01*
%TO.N,ROW3*%
X49212500Y-83275000D02*
X49212500Y-83248500D01*
X47244000Y-44265850D02*
X49123600Y-42386250D01*
X47244000Y-45593000D02*
X47244000Y-44265850D01*
X47631489Y-45980489D02*
X47244000Y-45593000D01*
X47631489Y-81693989D02*
X47631489Y-45980489D01*
X49212500Y-83275000D02*
X47631489Y-81693989D01*
X103187500Y-88900000D02*
X96112500Y-88900000D01*
X104707001Y-87380499D02*
X103187500Y-88900000D01*
X96112500Y-88900000D02*
X94525000Y-87312500D01*
X104707001Y-64583999D02*
X104707001Y-87380499D01*
X107061000Y-62230000D02*
X104707001Y-64583999D01*
%TO.N,Net-(D5-Pad2)*%
X43775000Y-28762500D02*
X45175000Y-30162500D01*
X43775000Y-17725000D02*
X43775000Y-28762500D01*
%TO.N,Net-(D6-Pad2)*%
X43775000Y-47812500D02*
X45175000Y-49212500D01*
X43775000Y-36775000D02*
X43775000Y-47812500D01*
%TO.N,ROW4*%
X101600000Y-102325000D02*
X101637000Y-102325000D01*
X101600000Y-102325000D02*
X101563000Y-102325000D01*
X47841038Y-102325000D02*
X47804038Y-102362000D01*
X58737500Y-102325000D02*
X47841038Y-102325000D01*
X47804038Y-102362000D02*
X47117000Y-102362000D01*
X47117000Y-102362000D02*
X44069000Y-99314000D01*
X44069000Y-99314000D02*
X44069000Y-96012000D01*
X44069000Y-96012000D02*
X50546000Y-89535000D01*
X50546000Y-41725850D02*
X48666400Y-39846250D01*
X50546000Y-89535000D02*
X50546000Y-41725850D01*
X107061000Y-64262000D02*
X105671066Y-64262000D01*
X105671066Y-64262000D02*
X105161011Y-64772055D01*
X105161011Y-98763989D02*
X101600000Y-102325000D01*
X105161011Y-64772055D02*
X105161011Y-98763989D01*
%TO.N,Net-(D19-Pad2)*%
X100925000Y-28762500D02*
X102325000Y-30162500D01*
X100925000Y-17725000D02*
X100925000Y-28762500D01*
%TO.N,Net-(D20-Pad2)*%
X100925000Y-47812500D02*
X102325000Y-49212500D01*
X100925000Y-36775000D02*
X100925000Y-47812500D01*
%TO.N,Net-(D21-Pad2)*%
X100925000Y-66862500D02*
X102325000Y-68262500D01*
X100925000Y-55825000D02*
X100925000Y-66862500D01*
%TO.N,Net-(D22-Pad2)*%
X100925000Y-85912500D02*
X102325000Y-87312500D01*
X100925000Y-74875000D02*
X100925000Y-85912500D01*
%TO.N,COL0*%
X18415000Y-19685000D02*
X18415000Y-38735000D01*
X18415000Y-60166250D02*
X18415000Y-76835000D01*
X18415000Y-57785000D02*
X18415000Y-60166250D01*
X15942999Y-55312999D02*
X18415000Y-57785000D01*
X15942999Y-40698039D02*
X15942999Y-55312999D01*
X17906038Y-38735000D02*
X15942999Y-40698039D01*
X18415000Y-38735000D02*
X17906038Y-38735000D01*
%TO.N,COL1*%
X37465000Y-60166250D02*
X37465000Y-76835000D01*
X37465000Y-57785000D02*
X37465000Y-60166250D01*
X37465000Y-19685000D02*
X36956038Y-19685000D01*
X37465000Y-38735000D02*
X36956038Y-38735000D01*
X36068000Y-37338000D02*
X37465000Y-38735000D01*
X37465000Y-27686000D02*
X36068000Y-29083000D01*
X36068000Y-29083000D02*
X36068000Y-37338000D01*
X37465000Y-19685000D02*
X37465000Y-27686000D01*
X36068000Y-29584650D02*
X33426400Y-32226250D01*
X36068000Y-29083000D02*
X36068000Y-29584650D01*
X38100000Y-39370000D02*
X37465000Y-38735000D01*
X38100000Y-43434000D02*
X38100000Y-39370000D01*
X34992999Y-46541001D02*
X38100000Y-43434000D01*
X34992999Y-55312999D02*
X34992999Y-46541001D01*
X37465000Y-57785000D02*
X34992999Y-55312999D01*
%TO.N,COL2*%
X56515000Y-22066250D02*
X56515000Y-38735000D01*
X56515000Y-19685000D02*
X56515000Y-22066250D01*
X56515000Y-38735000D02*
X56515000Y-57785000D01*
X56515000Y-57785000D02*
X56515000Y-76835000D01*
X56515000Y-76835000D02*
X56515000Y-86210000D01*
X56515000Y-86210000D02*
X48300000Y-94425000D01*
%TO.N,COL3*%
X75565000Y-76835000D02*
X75565000Y-86210000D01*
X75565000Y-22066250D02*
X75565000Y-38735000D01*
X75565000Y-19685000D02*
X75565000Y-22066250D01*
X75565000Y-38735000D02*
X75565000Y-57785000D01*
X75565000Y-60166250D02*
X75565000Y-76835000D01*
X75565000Y-57785000D02*
X75565000Y-60166250D01*
X75565000Y-86210000D02*
X67350000Y-94425000D01*
%TO.N,COL4*%
X92868750Y-56038750D02*
X94615000Y-57785000D01*
X92868750Y-48418750D02*
X92868750Y-56038750D01*
X94615000Y-46672500D02*
X92868750Y-48418750D01*
X94615000Y-38735000D02*
X94615000Y-46672500D01*
X92868750Y-36988750D02*
X94615000Y-38735000D01*
X92868750Y-29368750D02*
X92868750Y-36988750D01*
X94615000Y-27622500D02*
X92868750Y-29368750D01*
X94615000Y-19685000D02*
X94615000Y-27622500D01*
X92868750Y-75088750D02*
X94615000Y-76835000D01*
X92868750Y-66675000D02*
X92868750Y-75088750D01*
X94615000Y-64928750D02*
X92868750Y-66675000D01*
X94615000Y-57785000D02*
X94615000Y-64928750D01*
X89852500Y-89796398D02*
X89852500Y-95885000D01*
X94615000Y-85033898D02*
X89852500Y-89796398D01*
X94615000Y-76835000D02*
X94615000Y-85033898D01*
%TO.N,GND*%
X22300000Y-29900000D02*
X24260000Y-27940000D01*
X30536102Y-27940000D02*
X31369000Y-27107102D01*
X24260000Y-27940000D02*
X30536102Y-27940000D01*
X31369000Y-22040850D02*
X33883600Y-19526250D01*
X31369000Y-27107102D02*
X31369000Y-22040850D01*
X49123600Y-24149050D02*
X48666400Y-24606250D01*
X49123600Y-22066250D02*
X49123600Y-24149050D01*
%TO.N,Net-(SW1-Pad1)*%
X31823009Y-23669641D02*
X33426400Y-22066250D01*
X31823009Y-30276991D02*
X31823009Y-23669641D01*
X28500000Y-33600000D02*
X31823009Y-30276991D01*
%TD*%
M02*
