%TF.GenerationSoftware,KiCad,Pcbnew,(5.1.12)-1*%
%TF.CreationDate,2022-01-01T12:52:38-05:00*%
%TF.ProjectId,my-keeb-1,6d792d6b-6565-4622-9d31-2e6b69636164,rev?*%
%TF.SameCoordinates,Original*%
%TF.FileFunction,Legend,Top*%
%TF.FilePolarity,Positive*%
%FSLAX46Y46*%
G04 Gerber Fmt 4.6, Leading zero omitted, Abs format (unit mm)*
G04 Created by KiCad (PCBNEW (5.1.12)-1) date 2022-01-01 12:52:38*
%MOMM*%
%LPD*%
G01*
G04 APERTURE LIST*
%ADD10C,0.381000*%
%ADD11C,0.150000*%
%ADD12C,1.750000*%
%ADD13C,3.987800*%
%ADD14C,1.752600*%
%ADD15R,1.752600X1.752600*%
%ADD16R,1.800000X1.100000*%
%ADD17R,1.600000X1.600000*%
%ADD18C,1.600000*%
G04 APERTURE END LIST*
D10*
%TO.C,U1*%
X47625000Y-18256250D02*
X50165000Y-18256250D01*
X47625000Y-15716250D02*
X47625000Y-18256250D01*
D11*
G36*
X35230365Y-22005280D02*
G01*
X35230365Y-22105280D01*
X35130365Y-22105280D01*
X35130365Y-22005280D01*
X35230365Y-22005280D01*
G37*
X35230365Y-22005280D02*
X35230365Y-22105280D01*
X35130365Y-22105280D01*
X35130365Y-22005280D01*
X35230365Y-22005280D01*
G36*
X35030365Y-21605280D02*
G01*
X35030365Y-22405280D01*
X34930365Y-22405280D01*
X34930365Y-21605280D01*
X35030365Y-21605280D01*
G37*
X35030365Y-21605280D02*
X35030365Y-22405280D01*
X34930365Y-22405280D01*
X34930365Y-21605280D01*
X35030365Y-21605280D01*
G36*
X35430365Y-22205280D02*
G01*
X35430365Y-22405280D01*
X35330365Y-22405280D01*
X35330365Y-22205280D01*
X35430365Y-22205280D01*
G37*
X35430365Y-22205280D02*
X35430365Y-22405280D01*
X35330365Y-22405280D01*
X35330365Y-22205280D01*
X35430365Y-22205280D01*
G36*
X35430365Y-21605280D02*
G01*
X35430365Y-21905280D01*
X35330365Y-21905280D01*
X35330365Y-21605280D01*
X35430365Y-21605280D01*
G37*
X35430365Y-21605280D02*
X35430365Y-21905280D01*
X35330365Y-21905280D01*
X35330365Y-21605280D01*
X35430365Y-21605280D01*
G36*
X35430365Y-21605280D02*
G01*
X35430365Y-21705280D01*
X34930365Y-21705280D01*
X34930365Y-21605280D01*
X35430365Y-21605280D01*
G37*
X35430365Y-21605280D02*
X35430365Y-21705280D01*
X34930365Y-21705280D01*
X34930365Y-21605280D01*
X35430365Y-21605280D01*
D10*
X32385000Y-46196250D02*
X32385000Y-13176250D01*
X50165000Y-46196250D02*
X32385000Y-46196250D01*
X50165000Y-13176250D02*
X50165000Y-46196250D01*
X32385000Y-13176250D02*
X50165000Y-13176250D01*
X47625000Y-15716250D02*
X50165000Y-15716250D01*
D11*
%TO.C,SW1*%
X22800000Y-29150000D02*
X28000000Y-29150000D01*
X28000000Y-29150000D02*
X28000000Y-34350000D01*
X28000000Y-34350000D02*
X22800000Y-34350000D01*
X22800000Y-34350000D02*
X22800000Y-29150000D01*
X26400000Y-31750000D02*
G75*
G03*
X26400000Y-31750000I-1000000J0D01*
G01*
%TO.C,M3*%
X105862380Y-42084523D02*
X104862380Y-42084523D01*
X105576666Y-41751190D01*
X104862380Y-41417857D01*
X105862380Y-41417857D01*
X104862380Y-41036904D02*
X104862380Y-40417857D01*
X105243333Y-40751190D01*
X105243333Y-40608333D01*
X105290952Y-40513095D01*
X105338571Y-40465476D01*
X105433809Y-40417857D01*
X105671904Y-40417857D01*
X105767142Y-40465476D01*
X105814761Y-40513095D01*
X105862380Y-40608333D01*
X105862380Y-40894047D01*
X105814761Y-40989285D01*
X105767142Y-41036904D01*
%TO.C,M2*%
X109164380Y-80184523D02*
X108164380Y-80184523D01*
X108878666Y-79851190D01*
X108164380Y-79517857D01*
X109164380Y-79517857D01*
X108259619Y-79089285D02*
X108212000Y-79041666D01*
X108164380Y-78946428D01*
X108164380Y-78708333D01*
X108212000Y-78613095D01*
X108259619Y-78565476D01*
X108354857Y-78517857D01*
X108450095Y-78517857D01*
X108592952Y-78565476D01*
X109164380Y-79136904D01*
X109164380Y-78517857D01*
%TO.C,M1*%
X109164380Y-61134523D02*
X108164380Y-61134523D01*
X108878666Y-60801190D01*
X108164380Y-60467857D01*
X109164380Y-60467857D01*
X109164380Y-59467857D02*
X109164380Y-60039285D01*
X109164380Y-59753571D02*
X108164380Y-59753571D01*
X108307238Y-59848809D01*
X108402476Y-59944047D01*
X108450095Y-60039285D01*
%TO.C,U1*%
X35701666Y-22370059D02*
X35815952Y-22408154D01*
X36006428Y-22408154D01*
X36082619Y-22370059D01*
X36120714Y-22331964D01*
X36158809Y-22255773D01*
X36158809Y-22179583D01*
X36120714Y-22103392D01*
X36082619Y-22065297D01*
X36006428Y-22027202D01*
X35854047Y-21989107D01*
X35777857Y-21951011D01*
X35739761Y-21912916D01*
X35701666Y-21836726D01*
X35701666Y-21760535D01*
X35739761Y-21684345D01*
X35777857Y-21646250D01*
X35854047Y-21608154D01*
X36044523Y-21608154D01*
X36158809Y-21646250D01*
X36387380Y-21608154D02*
X36844523Y-21608154D01*
X36615952Y-22408154D02*
X36615952Y-21608154D01*
X42656395Y-16548154D02*
X43113538Y-16548154D01*
X42884967Y-17348154D02*
X42884967Y-16548154D01*
X43304014Y-16548154D02*
X43837348Y-17348154D01*
X43837348Y-16548154D02*
X43304014Y-17348154D01*
X44294491Y-16548154D02*
X44370681Y-16548154D01*
X44446872Y-16586250D01*
X44484967Y-16624345D01*
X44523062Y-16700535D01*
X44561157Y-16852916D01*
X44561157Y-17043392D01*
X44523062Y-17195773D01*
X44484967Y-17271964D01*
X44446872Y-17310059D01*
X44370681Y-17348154D01*
X44294491Y-17348154D01*
X44218300Y-17310059D01*
X44180205Y-17271964D01*
X44142110Y-17195773D01*
X44104014Y-17043392D01*
X44104014Y-16852916D01*
X44142110Y-16700535D01*
X44180205Y-16624345D01*
X44218300Y-16586250D01*
X44294491Y-16548154D01*
X45475443Y-16510059D02*
X44789729Y-17538630D01*
X45742110Y-17348154D02*
X45742110Y-16548154D01*
X45932586Y-16548154D01*
X46046872Y-16586250D01*
X46123062Y-16662440D01*
X46161157Y-16738630D01*
X46199252Y-16891011D01*
X46199252Y-17005297D01*
X46161157Y-17157678D01*
X46123062Y-17233869D01*
X46046872Y-17310059D01*
X45932586Y-17348154D01*
X45742110Y-17348154D01*
X46465919Y-16548154D02*
X46961157Y-16548154D01*
X46694491Y-16852916D01*
X46808776Y-16852916D01*
X46884967Y-16891011D01*
X46923062Y-16929107D01*
X46961157Y-17005297D01*
X46961157Y-17195773D01*
X46923062Y-17271964D01*
X46884967Y-17310059D01*
X46808776Y-17348154D01*
X46580205Y-17348154D01*
X46504014Y-17310059D01*
X46465919Y-17271964D01*
X35490190Y-42329107D02*
X35604476Y-42367202D01*
X35642571Y-42405297D01*
X35680666Y-42481488D01*
X35680666Y-42595773D01*
X35642571Y-42671964D01*
X35604476Y-42710059D01*
X35528285Y-42748154D01*
X35223523Y-42748154D01*
X35223523Y-41948154D01*
X35490190Y-41948154D01*
X35566380Y-41986250D01*
X35604476Y-42024345D01*
X35642571Y-42100535D01*
X35642571Y-42176726D01*
X35604476Y-42252916D01*
X35566380Y-42291011D01*
X35490190Y-42329107D01*
X35223523Y-42329107D01*
X35985428Y-42024345D02*
X36023523Y-41986250D01*
X36099714Y-41948154D01*
X36290190Y-41948154D01*
X36366380Y-41986250D01*
X36404476Y-42024345D01*
X36442571Y-42100535D01*
X36442571Y-42176726D01*
X36404476Y-42291011D01*
X35947333Y-42748154D01*
X36442571Y-42748154D01*
X35547333Y-34709107D02*
X35280666Y-34709107D01*
X35280666Y-35128154D02*
X35280666Y-34328154D01*
X35661619Y-34328154D01*
X35890190Y-34328154D02*
X36423523Y-34328154D01*
X36080666Y-35128154D01*
X35547333Y-32169107D02*
X35280666Y-32169107D01*
X35280666Y-32588154D02*
X35280666Y-31788154D01*
X35661619Y-31788154D01*
X36309238Y-31788154D02*
X36156857Y-31788154D01*
X36080666Y-31826250D01*
X36042571Y-31864345D01*
X35966380Y-31978630D01*
X35928285Y-32131011D01*
X35928285Y-32435773D01*
X35966380Y-32511964D01*
X36004476Y-32550059D01*
X36080666Y-32588154D01*
X36233047Y-32588154D01*
X36309238Y-32550059D01*
X36347333Y-32511964D01*
X36385428Y-32435773D01*
X36385428Y-32245297D01*
X36347333Y-32169107D01*
X36309238Y-32131011D01*
X36233047Y-32092916D01*
X36080666Y-32092916D01*
X36004476Y-32131011D01*
X35966380Y-32169107D01*
X35928285Y-32245297D01*
X35547333Y-29629107D02*
X35280666Y-29629107D01*
X35280666Y-30048154D02*
X35280666Y-29248154D01*
X35661619Y-29248154D01*
X36347333Y-29248154D02*
X35966380Y-29248154D01*
X35928285Y-29629107D01*
X35966380Y-29591011D01*
X36042571Y-29552916D01*
X36233047Y-29552916D01*
X36309238Y-29591011D01*
X36347333Y-29629107D01*
X36385428Y-29705297D01*
X36385428Y-29895773D01*
X36347333Y-29971964D01*
X36309238Y-30010059D01*
X36233047Y-30048154D01*
X36042571Y-30048154D01*
X35966380Y-30010059D01*
X35928285Y-29971964D01*
X35261619Y-17348154D02*
X34994952Y-16967202D01*
X34804476Y-17348154D02*
X34804476Y-16548154D01*
X35109238Y-16548154D01*
X35185428Y-16586250D01*
X35223523Y-16624345D01*
X35261619Y-16700535D01*
X35261619Y-16814821D01*
X35223523Y-16891011D01*
X35185428Y-16929107D01*
X35109238Y-16967202D01*
X34804476Y-16967202D01*
X35566380Y-17119583D02*
X35947333Y-17119583D01*
X35490190Y-17348154D02*
X35756857Y-16548154D01*
X36023523Y-17348154D01*
X36214000Y-16548154D02*
X36404476Y-17348154D01*
X36556857Y-16776726D01*
X36709238Y-17348154D01*
X36899714Y-16548154D01*
X35204476Y-19126250D02*
X35128285Y-19088154D01*
X35014000Y-19088154D01*
X34899714Y-19126250D01*
X34823523Y-19202440D01*
X34785428Y-19278630D01*
X34747333Y-19431011D01*
X34747333Y-19545297D01*
X34785428Y-19697678D01*
X34823523Y-19773869D01*
X34899714Y-19850059D01*
X35014000Y-19888154D01*
X35090190Y-19888154D01*
X35204476Y-19850059D01*
X35242571Y-19811964D01*
X35242571Y-19545297D01*
X35090190Y-19545297D01*
X35585428Y-19888154D02*
X35585428Y-19088154D01*
X36042571Y-19888154D01*
X36042571Y-19088154D01*
X36423523Y-19888154D02*
X36423523Y-19088154D01*
X36614000Y-19088154D01*
X36728285Y-19126250D01*
X36804476Y-19202440D01*
X36842571Y-19278630D01*
X36880666Y-19431011D01*
X36880666Y-19545297D01*
X36842571Y-19697678D01*
X36804476Y-19773869D01*
X36728285Y-19850059D01*
X36614000Y-19888154D01*
X36423523Y-19888154D01*
X34747333Y-24168154D02*
X35014000Y-24968154D01*
X35280666Y-24168154D01*
X36004476Y-24891964D02*
X35966380Y-24930059D01*
X35852095Y-24968154D01*
X35775904Y-24968154D01*
X35661619Y-24930059D01*
X35585428Y-24853869D01*
X35547333Y-24777678D01*
X35509238Y-24625297D01*
X35509238Y-24511011D01*
X35547333Y-24358630D01*
X35585428Y-24282440D01*
X35661619Y-24206250D01*
X35775904Y-24168154D01*
X35852095Y-24168154D01*
X35966380Y-24206250D01*
X36004476Y-24244345D01*
X36804476Y-24891964D02*
X36766380Y-24930059D01*
X36652095Y-24968154D01*
X36575904Y-24968154D01*
X36461619Y-24930059D01*
X36385428Y-24853869D01*
X36347333Y-24777678D01*
X36309238Y-24625297D01*
X36309238Y-24511011D01*
X36347333Y-24358630D01*
X36385428Y-24282440D01*
X36461619Y-24206250D01*
X36575904Y-24168154D01*
X36652095Y-24168154D01*
X36766380Y-24206250D01*
X36804476Y-24244345D01*
X35547333Y-27089107D02*
X35280666Y-27089107D01*
X35280666Y-27508154D02*
X35280666Y-26708154D01*
X35661619Y-26708154D01*
X36309238Y-26974821D02*
X36309238Y-27508154D01*
X36118761Y-26670059D02*
X35928285Y-27241488D01*
X36423523Y-27241488D01*
X35490190Y-37249107D02*
X35604476Y-37287202D01*
X35642571Y-37325297D01*
X35680666Y-37401488D01*
X35680666Y-37515773D01*
X35642571Y-37591964D01*
X35604476Y-37630059D01*
X35528285Y-37668154D01*
X35223523Y-37668154D01*
X35223523Y-36868154D01*
X35490190Y-36868154D01*
X35566380Y-36906250D01*
X35604476Y-36944345D01*
X35642571Y-37020535D01*
X35642571Y-37096726D01*
X35604476Y-37172916D01*
X35566380Y-37211011D01*
X35490190Y-37249107D01*
X35223523Y-37249107D01*
X36442571Y-37668154D02*
X35985428Y-37668154D01*
X36214000Y-37668154D02*
X36214000Y-36868154D01*
X36137809Y-36982440D01*
X36061619Y-37058630D01*
X35985428Y-37096726D01*
X35490190Y-39789107D02*
X35604476Y-39827202D01*
X35642571Y-39865297D01*
X35680666Y-39941488D01*
X35680666Y-40055773D01*
X35642571Y-40131964D01*
X35604476Y-40170059D01*
X35528285Y-40208154D01*
X35223523Y-40208154D01*
X35223523Y-39408154D01*
X35490190Y-39408154D01*
X35566380Y-39446250D01*
X35604476Y-39484345D01*
X35642571Y-39560535D01*
X35642571Y-39636726D01*
X35604476Y-39712916D01*
X35566380Y-39751011D01*
X35490190Y-39789107D01*
X35223523Y-39789107D01*
X35947333Y-39408154D02*
X36442571Y-39408154D01*
X36175904Y-39712916D01*
X36290190Y-39712916D01*
X36366380Y-39751011D01*
X36404476Y-39789107D01*
X36442571Y-39865297D01*
X36442571Y-40055773D01*
X36404476Y-40131964D01*
X36366380Y-40170059D01*
X36290190Y-40208154D01*
X36061619Y-40208154D01*
X35985428Y-40170059D01*
X35947333Y-40131964D01*
X35490190Y-44869107D02*
X35604476Y-44907202D01*
X35642571Y-44945297D01*
X35680666Y-45021488D01*
X35680666Y-45135773D01*
X35642571Y-45211964D01*
X35604476Y-45250059D01*
X35528285Y-45288154D01*
X35223523Y-45288154D01*
X35223523Y-44488154D01*
X35490190Y-44488154D01*
X35566380Y-44526250D01*
X35604476Y-44564345D01*
X35642571Y-44640535D01*
X35642571Y-44716726D01*
X35604476Y-44792916D01*
X35566380Y-44831011D01*
X35490190Y-44869107D01*
X35223523Y-44869107D01*
X36366380Y-44488154D02*
X36214000Y-44488154D01*
X36137809Y-44526250D01*
X36099714Y-44564345D01*
X36023523Y-44678630D01*
X35985428Y-44831011D01*
X35985428Y-45135773D01*
X36023523Y-45211964D01*
X36061619Y-45250059D01*
X36137809Y-45288154D01*
X36290190Y-45288154D01*
X36366380Y-45250059D01*
X36404476Y-45211964D01*
X36442571Y-45135773D01*
X36442571Y-44945297D01*
X36404476Y-44869107D01*
X36366380Y-44831011D01*
X36290190Y-44792916D01*
X36137809Y-44792916D01*
X36061619Y-44831011D01*
X36023523Y-44869107D01*
X35985428Y-44945297D01*
X46412190Y-44869107D02*
X46526476Y-44907202D01*
X46564571Y-44945297D01*
X46602666Y-45021488D01*
X46602666Y-45135773D01*
X46564571Y-45211964D01*
X46526476Y-45250059D01*
X46450285Y-45288154D01*
X46145523Y-45288154D01*
X46145523Y-44488154D01*
X46412190Y-44488154D01*
X46488380Y-44526250D01*
X46526476Y-44564345D01*
X46564571Y-44640535D01*
X46564571Y-44716726D01*
X46526476Y-44792916D01*
X46488380Y-44831011D01*
X46412190Y-44869107D01*
X46145523Y-44869107D01*
X47326476Y-44488154D02*
X46945523Y-44488154D01*
X46907428Y-44869107D01*
X46945523Y-44831011D01*
X47021714Y-44792916D01*
X47212190Y-44792916D01*
X47288380Y-44831011D01*
X47326476Y-44869107D01*
X47364571Y-44945297D01*
X47364571Y-45135773D01*
X47326476Y-45211964D01*
X47288380Y-45250059D01*
X47212190Y-45288154D01*
X47021714Y-45288154D01*
X46945523Y-45250059D01*
X46907428Y-45211964D01*
X46412190Y-42329107D02*
X46526476Y-42367202D01*
X46564571Y-42405297D01*
X46602666Y-42481488D01*
X46602666Y-42595773D01*
X46564571Y-42671964D01*
X46526476Y-42710059D01*
X46450285Y-42748154D01*
X46145523Y-42748154D01*
X46145523Y-41948154D01*
X46412190Y-41948154D01*
X46488380Y-41986250D01*
X46526476Y-42024345D01*
X46564571Y-42100535D01*
X46564571Y-42176726D01*
X46526476Y-42252916D01*
X46488380Y-42291011D01*
X46412190Y-42329107D01*
X46145523Y-42329107D01*
X47288380Y-42214821D02*
X47288380Y-42748154D01*
X47097904Y-41910059D02*
X46907428Y-42481488D01*
X47402666Y-42481488D01*
X46183619Y-39789107D02*
X46450285Y-39789107D01*
X46564571Y-40208154D02*
X46183619Y-40208154D01*
X46183619Y-39408154D01*
X46564571Y-39408154D01*
X47250285Y-39408154D02*
X47097904Y-39408154D01*
X47021714Y-39446250D01*
X46983619Y-39484345D01*
X46907428Y-39598630D01*
X46869333Y-39751011D01*
X46869333Y-40055773D01*
X46907428Y-40131964D01*
X46945523Y-40170059D01*
X47021714Y-40208154D01*
X47174095Y-40208154D01*
X47250285Y-40170059D01*
X47288380Y-40131964D01*
X47326476Y-40055773D01*
X47326476Y-39865297D01*
X47288380Y-39789107D01*
X47250285Y-39751011D01*
X47174095Y-39712916D01*
X47021714Y-39712916D01*
X46945523Y-39751011D01*
X46907428Y-39789107D01*
X46869333Y-39865297D01*
X46145523Y-37668154D02*
X46145523Y-36868154D01*
X46336000Y-36868154D01*
X46450285Y-36906250D01*
X46526476Y-36982440D01*
X46564571Y-37058630D01*
X46602666Y-37211011D01*
X46602666Y-37325297D01*
X46564571Y-37477678D01*
X46526476Y-37553869D01*
X46450285Y-37630059D01*
X46336000Y-37668154D01*
X46145523Y-37668154D01*
X46869333Y-36868154D02*
X47402666Y-36868154D01*
X47059809Y-37668154D01*
X46602666Y-35051964D02*
X46564571Y-35090059D01*
X46450285Y-35128154D01*
X46374095Y-35128154D01*
X46259809Y-35090059D01*
X46183619Y-35013869D01*
X46145523Y-34937678D01*
X46107428Y-34785297D01*
X46107428Y-34671011D01*
X46145523Y-34518630D01*
X46183619Y-34442440D01*
X46259809Y-34366250D01*
X46374095Y-34328154D01*
X46450285Y-34328154D01*
X46564571Y-34366250D01*
X46602666Y-34404345D01*
X47288380Y-34328154D02*
X47136000Y-34328154D01*
X47059809Y-34366250D01*
X47021714Y-34404345D01*
X46945523Y-34518630D01*
X46907428Y-34671011D01*
X46907428Y-34975773D01*
X46945523Y-35051964D01*
X46983619Y-35090059D01*
X47059809Y-35128154D01*
X47212190Y-35128154D01*
X47288380Y-35090059D01*
X47326476Y-35051964D01*
X47364571Y-34975773D01*
X47364571Y-34785297D01*
X47326476Y-34709107D01*
X47288380Y-34671011D01*
X47212190Y-34632916D01*
X47059809Y-34632916D01*
X46983619Y-34671011D01*
X46945523Y-34709107D01*
X46907428Y-34785297D01*
X46145523Y-32588154D02*
X46145523Y-31788154D01*
X46336000Y-31788154D01*
X46450285Y-31826250D01*
X46526476Y-31902440D01*
X46564571Y-31978630D01*
X46602666Y-32131011D01*
X46602666Y-32245297D01*
X46564571Y-32397678D01*
X46526476Y-32473869D01*
X46450285Y-32550059D01*
X46336000Y-32588154D01*
X46145523Y-32588154D01*
X47288380Y-32054821D02*
X47288380Y-32588154D01*
X47097904Y-31750059D02*
X46907428Y-32321488D01*
X47402666Y-32321488D01*
X46126476Y-21666250D02*
X46050285Y-21628154D01*
X45936000Y-21628154D01*
X45821714Y-21666250D01*
X45745523Y-21742440D01*
X45707428Y-21818630D01*
X45669333Y-21971011D01*
X45669333Y-22085297D01*
X45707428Y-22237678D01*
X45745523Y-22313869D01*
X45821714Y-22390059D01*
X45936000Y-22428154D01*
X46012190Y-22428154D01*
X46126476Y-22390059D01*
X46164571Y-22351964D01*
X46164571Y-22085297D01*
X46012190Y-22085297D01*
X46507428Y-22428154D02*
X46507428Y-21628154D01*
X46964571Y-22428154D01*
X46964571Y-21628154D01*
X47345523Y-22428154D02*
X47345523Y-21628154D01*
X47536000Y-21628154D01*
X47650285Y-21666250D01*
X47726476Y-21742440D01*
X47764571Y-21818630D01*
X47802666Y-21971011D01*
X47802666Y-22085297D01*
X47764571Y-22237678D01*
X47726476Y-22313869D01*
X47650285Y-22390059D01*
X47536000Y-22428154D01*
X47345523Y-22428154D01*
X46126476Y-24206250D02*
X46050285Y-24168154D01*
X45936000Y-24168154D01*
X45821714Y-24206250D01*
X45745523Y-24282440D01*
X45707428Y-24358630D01*
X45669333Y-24511011D01*
X45669333Y-24625297D01*
X45707428Y-24777678D01*
X45745523Y-24853869D01*
X45821714Y-24930059D01*
X45936000Y-24968154D01*
X46012190Y-24968154D01*
X46126476Y-24930059D01*
X46164571Y-24891964D01*
X46164571Y-24625297D01*
X46012190Y-24625297D01*
X46507428Y-24968154D02*
X46507428Y-24168154D01*
X46964571Y-24968154D01*
X46964571Y-24168154D01*
X47345523Y-24968154D02*
X47345523Y-24168154D01*
X47536000Y-24168154D01*
X47650285Y-24206250D01*
X47726476Y-24282440D01*
X47764571Y-24358630D01*
X47802666Y-24511011D01*
X47802666Y-24625297D01*
X47764571Y-24777678D01*
X47726476Y-24853869D01*
X47650285Y-24930059D01*
X47536000Y-24968154D01*
X47345523Y-24968154D01*
X46145523Y-27508154D02*
X46145523Y-26708154D01*
X46336000Y-26708154D01*
X46450285Y-26746250D01*
X46526476Y-26822440D01*
X46564571Y-26898630D01*
X46602666Y-27051011D01*
X46602666Y-27165297D01*
X46564571Y-27317678D01*
X46526476Y-27393869D01*
X46450285Y-27470059D01*
X46336000Y-27508154D01*
X46145523Y-27508154D01*
X47364571Y-27508154D02*
X46907428Y-27508154D01*
X47136000Y-27508154D02*
X47136000Y-26708154D01*
X47059809Y-26822440D01*
X46983619Y-26898630D01*
X46907428Y-26936726D01*
X46145523Y-30048154D02*
X46145523Y-29248154D01*
X46336000Y-29248154D01*
X46450285Y-29286250D01*
X46526476Y-29362440D01*
X46564571Y-29438630D01*
X46602666Y-29591011D01*
X46602666Y-29705297D01*
X46564571Y-29857678D01*
X46526476Y-29933869D01*
X46450285Y-30010059D01*
X46336000Y-30048154D01*
X46145523Y-30048154D01*
X47097904Y-29248154D02*
X47174095Y-29248154D01*
X47250285Y-29286250D01*
X47288380Y-29324345D01*
X47326476Y-29400535D01*
X47364571Y-29552916D01*
X47364571Y-29743392D01*
X47326476Y-29895773D01*
X47288380Y-29971964D01*
X47250285Y-30010059D01*
X47174095Y-30048154D01*
X47097904Y-30048154D01*
X47021714Y-30010059D01*
X46983619Y-29971964D01*
X46945523Y-29895773D01*
X46907428Y-29743392D01*
X46907428Y-29552916D01*
X46945523Y-29400535D01*
X46983619Y-29324345D01*
X47021714Y-29286250D01*
X47097904Y-29248154D01*
X46145523Y-19888154D02*
X46145523Y-19088154D01*
X46336000Y-19088154D01*
X46450285Y-19126250D01*
X46526476Y-19202440D01*
X46564571Y-19278630D01*
X46602666Y-19431011D01*
X46602666Y-19545297D01*
X46564571Y-19697678D01*
X46526476Y-19773869D01*
X46450285Y-19850059D01*
X46336000Y-19888154D01*
X46145523Y-19888154D01*
X46907428Y-19164345D02*
X46945523Y-19126250D01*
X47021714Y-19088154D01*
X47212190Y-19088154D01*
X47288380Y-19126250D01*
X47326476Y-19164345D01*
X47364571Y-19240535D01*
X47364571Y-19316726D01*
X47326476Y-19431011D01*
X46869333Y-19888154D01*
X47364571Y-19888154D01*
%TO.C,SW1*%
X24066666Y-36218761D02*
X24209523Y-36266380D01*
X24447619Y-36266380D01*
X24542857Y-36218761D01*
X24590476Y-36171142D01*
X24638095Y-36075904D01*
X24638095Y-35980666D01*
X24590476Y-35885428D01*
X24542857Y-35837809D01*
X24447619Y-35790190D01*
X24257142Y-35742571D01*
X24161904Y-35694952D01*
X24114285Y-35647333D01*
X24066666Y-35552095D01*
X24066666Y-35456857D01*
X24114285Y-35361619D01*
X24161904Y-35314000D01*
X24257142Y-35266380D01*
X24495238Y-35266380D01*
X24638095Y-35314000D01*
X24971428Y-35266380D02*
X25209523Y-36266380D01*
X25400000Y-35552095D01*
X25590476Y-36266380D01*
X25828571Y-35266380D01*
X26733333Y-36266380D02*
X26161904Y-36266380D01*
X26447619Y-36266380D02*
X26447619Y-35266380D01*
X26352380Y-35409238D01*
X26257142Y-35504476D01*
X26161904Y-35552095D01*
%TD*%
%LPC*%
%TO.C,M3*%
G36*
G01*
X107937300Y-36772850D02*
X107937300Y-37649150D01*
G75*
G02*
X107499150Y-38087300I-438150J0D01*
G01*
X106622850Y-38087300D01*
G75*
G02*
X106184700Y-37649150I0J438150D01*
G01*
X106184700Y-36772850D01*
G75*
G02*
X106622850Y-36334700I438150J0D01*
G01*
X107499150Y-36334700D01*
G75*
G02*
X107937300Y-36772850I0J-438150D01*
G01*
G37*
G36*
G01*
X107937300Y-38804850D02*
X107937300Y-39681150D01*
G75*
G02*
X107499150Y-40119300I-438150J0D01*
G01*
X106622850Y-40119300D01*
G75*
G02*
X106184700Y-39681150I0J438150D01*
G01*
X106184700Y-38804850D01*
G75*
G02*
X106622850Y-38366700I438150J0D01*
G01*
X107499150Y-38366700D01*
G75*
G02*
X107937300Y-38804850I0J-438150D01*
G01*
G37*
G36*
G01*
X107937300Y-40836850D02*
X107937300Y-41713150D01*
G75*
G02*
X107499150Y-42151300I-438150J0D01*
G01*
X106622850Y-42151300D01*
G75*
G02*
X106184700Y-41713150I0J438150D01*
G01*
X106184700Y-40836850D01*
G75*
G02*
X106622850Y-40398700I438150J0D01*
G01*
X107499150Y-40398700D01*
G75*
G02*
X107937300Y-40836850I0J-438150D01*
G01*
G37*
G36*
G01*
X107937300Y-42868850D02*
X107937300Y-43745150D01*
G75*
G02*
X107499150Y-44183300I-438150J0D01*
G01*
X106622850Y-44183300D01*
G75*
G02*
X106184700Y-43745150I0J438150D01*
G01*
X106184700Y-42868850D01*
G75*
G02*
X106622850Y-42430700I438150J0D01*
G01*
X107499150Y-42430700D01*
G75*
G02*
X107937300Y-42868850I0J-438150D01*
G01*
G37*
G36*
G01*
X107937300Y-44900850D02*
X107937300Y-45777150D01*
G75*
G02*
X107499150Y-46215300I-438150J0D01*
G01*
X106622850Y-46215300D01*
G75*
G02*
X106184700Y-45777150I0J438150D01*
G01*
X106184700Y-44900850D01*
G75*
G02*
X106622850Y-44462700I438150J0D01*
G01*
X107499150Y-44462700D01*
G75*
G02*
X107937300Y-44900850I0J-438150D01*
G01*
G37*
%TD*%
%TO.C,M2*%
G36*
G01*
X106184700Y-83877150D02*
X106184700Y-83000850D01*
G75*
G02*
X106622850Y-82562700I438150J0D01*
G01*
X107499150Y-82562700D01*
G75*
G02*
X107937300Y-83000850I0J-438150D01*
G01*
X107937300Y-83877150D01*
G75*
G02*
X107499150Y-84315300I-438150J0D01*
G01*
X106622850Y-84315300D01*
G75*
G02*
X106184700Y-83877150I0J438150D01*
G01*
G37*
G36*
G01*
X106184700Y-81845150D02*
X106184700Y-80968850D01*
G75*
G02*
X106622850Y-80530700I438150J0D01*
G01*
X107499150Y-80530700D01*
G75*
G02*
X107937300Y-80968850I0J-438150D01*
G01*
X107937300Y-81845150D01*
G75*
G02*
X107499150Y-82283300I-438150J0D01*
G01*
X106622850Y-82283300D01*
G75*
G02*
X106184700Y-81845150I0J438150D01*
G01*
G37*
G36*
G01*
X106184700Y-79813150D02*
X106184700Y-78936850D01*
G75*
G02*
X106622850Y-78498700I438150J0D01*
G01*
X107499150Y-78498700D01*
G75*
G02*
X107937300Y-78936850I0J-438150D01*
G01*
X107937300Y-79813150D01*
G75*
G02*
X107499150Y-80251300I-438150J0D01*
G01*
X106622850Y-80251300D01*
G75*
G02*
X106184700Y-79813150I0J438150D01*
G01*
G37*
G36*
G01*
X106184700Y-77781150D02*
X106184700Y-76904850D01*
G75*
G02*
X106622850Y-76466700I438150J0D01*
G01*
X107499150Y-76466700D01*
G75*
G02*
X107937300Y-76904850I0J-438150D01*
G01*
X107937300Y-77781150D01*
G75*
G02*
X107499150Y-78219300I-438150J0D01*
G01*
X106622850Y-78219300D01*
G75*
G02*
X106184700Y-77781150I0J438150D01*
G01*
G37*
G36*
G01*
X106184700Y-75749150D02*
X106184700Y-74872850D01*
G75*
G02*
X106622850Y-74434700I438150J0D01*
G01*
X107499150Y-74434700D01*
G75*
G02*
X107937300Y-74872850I0J-438150D01*
G01*
X107937300Y-75749150D01*
G75*
G02*
X107499150Y-76187300I-438150J0D01*
G01*
X106622850Y-76187300D01*
G75*
G02*
X106184700Y-75749150I0J438150D01*
G01*
G37*
%TD*%
%TO.C,M1*%
G36*
G01*
X106184700Y-64827150D02*
X106184700Y-63950850D01*
G75*
G02*
X106622850Y-63512700I438150J0D01*
G01*
X107499150Y-63512700D01*
G75*
G02*
X107937300Y-63950850I0J-438150D01*
G01*
X107937300Y-64827150D01*
G75*
G02*
X107499150Y-65265300I-438150J0D01*
G01*
X106622850Y-65265300D01*
G75*
G02*
X106184700Y-64827150I0J438150D01*
G01*
G37*
G36*
G01*
X106184700Y-62795150D02*
X106184700Y-61918850D01*
G75*
G02*
X106622850Y-61480700I438150J0D01*
G01*
X107499150Y-61480700D01*
G75*
G02*
X107937300Y-61918850I0J-438150D01*
G01*
X107937300Y-62795150D01*
G75*
G02*
X107499150Y-63233300I-438150J0D01*
G01*
X106622850Y-63233300D01*
G75*
G02*
X106184700Y-62795150I0J438150D01*
G01*
G37*
G36*
G01*
X106184700Y-60763150D02*
X106184700Y-59886850D01*
G75*
G02*
X106622850Y-59448700I438150J0D01*
G01*
X107499150Y-59448700D01*
G75*
G02*
X107937300Y-59886850I0J-438150D01*
G01*
X107937300Y-60763150D01*
G75*
G02*
X107499150Y-61201300I-438150J0D01*
G01*
X106622850Y-61201300D01*
G75*
G02*
X106184700Y-60763150I0J438150D01*
G01*
G37*
G36*
G01*
X106184700Y-58731150D02*
X106184700Y-57854850D01*
G75*
G02*
X106622850Y-57416700I438150J0D01*
G01*
X107499150Y-57416700D01*
G75*
G02*
X107937300Y-57854850I0J-438150D01*
G01*
X107937300Y-58731150D01*
G75*
G02*
X107499150Y-59169300I-438150J0D01*
G01*
X106622850Y-59169300D01*
G75*
G02*
X106184700Y-58731150I0J438150D01*
G01*
G37*
G36*
G01*
X106184700Y-56699150D02*
X106184700Y-55822850D01*
G75*
G02*
X106622850Y-55384700I438150J0D01*
G01*
X107499150Y-55384700D01*
G75*
G02*
X107937300Y-55822850I0J-438150D01*
G01*
X107937300Y-56699150D01*
G75*
G02*
X107499150Y-57137300I-438150J0D01*
G01*
X106622850Y-57137300D01*
G75*
G02*
X106184700Y-56699150I0J438150D01*
G01*
G37*
%TD*%
D12*
%TO.C,MX19*%
X103505000Y-22225000D03*
X93345000Y-22225000D03*
D13*
X98425000Y-22225000D03*
%TD*%
D14*
%TO.C,U1*%
X33426400Y-16986250D03*
X48666400Y-44926250D03*
X33883600Y-19526250D03*
X33426400Y-22066250D03*
X33883600Y-24606250D03*
X33426400Y-27146250D03*
X33883600Y-29686250D03*
X33426400Y-32226250D03*
X33883600Y-34766250D03*
X33426400Y-37306250D03*
X33883600Y-39846250D03*
X33426400Y-42386250D03*
X33883600Y-44926250D03*
X49123600Y-42386250D03*
X48666400Y-39846250D03*
X49123600Y-37306250D03*
X48666400Y-34766250D03*
X49123600Y-32226250D03*
X48666400Y-29686250D03*
X49123600Y-27146250D03*
X48666400Y-24606250D03*
X49123600Y-22066250D03*
X48666400Y-19526250D03*
D15*
X49123600Y-16986250D03*
%TD*%
D16*
%TO.C,SW1*%
X28500000Y-33600000D03*
X22300000Y-29900000D03*
X28500000Y-29900000D03*
X22300000Y-33600000D03*
%TD*%
D13*
%TO.C,MX23*%
X93662500Y-98425000D03*
D12*
X88582500Y-98425000D03*
X98742500Y-98425000D03*
%TD*%
D13*
%TO.C,MX22*%
X98425000Y-79375000D03*
D12*
X93345000Y-79375000D03*
X103505000Y-79375000D03*
%TD*%
D13*
%TO.C,MX21*%
X98425000Y-60325000D03*
D12*
X93345000Y-60325000D03*
X103505000Y-60325000D03*
%TD*%
D13*
%TO.C,MX20*%
X98425000Y-41275000D03*
D12*
X93345000Y-41275000D03*
X103505000Y-41275000D03*
%TD*%
D13*
%TO.C,MX18*%
X69850000Y-98425000D03*
D12*
X64770000Y-98425000D03*
X74930000Y-98425000D03*
%TD*%
D13*
%TO.C,MX17*%
X79375000Y-79375000D03*
D12*
X74295000Y-79375000D03*
X84455000Y-79375000D03*
%TD*%
D13*
%TO.C,MX16*%
X79375000Y-60325000D03*
D12*
X74295000Y-60325000D03*
X84455000Y-60325000D03*
%TD*%
D13*
%TO.C,MX15*%
X79375000Y-41275000D03*
D12*
X74295000Y-41275000D03*
X84455000Y-41275000D03*
%TD*%
D13*
%TO.C,MX14*%
X79375000Y-22225000D03*
D12*
X74295000Y-22225000D03*
X84455000Y-22225000D03*
%TD*%
D13*
%TO.C,MX13*%
X50800000Y-98425000D03*
D12*
X45720000Y-98425000D03*
X55880000Y-98425000D03*
%TD*%
D13*
%TO.C,MX12*%
X60325000Y-79375000D03*
D12*
X55245000Y-79375000D03*
X65405000Y-79375000D03*
%TD*%
D13*
%TO.C,MX11*%
X60325000Y-60325000D03*
D12*
X55245000Y-60325000D03*
X65405000Y-60325000D03*
%TD*%
D13*
%TO.C,MX10*%
X60325000Y-41275000D03*
D12*
X55245000Y-41275000D03*
X65405000Y-41275000D03*
%TD*%
D13*
%TO.C,MX9*%
X60325000Y-22225000D03*
D12*
X55245000Y-22225000D03*
X65405000Y-22225000D03*
%TD*%
D13*
%TO.C,MX8*%
X41275000Y-79375000D03*
D12*
X36195000Y-79375000D03*
X46355000Y-79375000D03*
%TD*%
D13*
%TO.C,MX7*%
X41275000Y-60325000D03*
D12*
X36195000Y-60325000D03*
X46355000Y-60325000D03*
%TD*%
D13*
%TO.C,MX6*%
X41275000Y-41275000D03*
D12*
X36195000Y-41275000D03*
X46355000Y-41275000D03*
%TD*%
D13*
%TO.C,MX5*%
X41275000Y-22225000D03*
D12*
X36195000Y-22225000D03*
X46355000Y-22225000D03*
%TD*%
D13*
%TO.C,MX4*%
X22225000Y-79375000D03*
D12*
X17145000Y-79375000D03*
X27305000Y-79375000D03*
%TD*%
D13*
%TO.C,MX3*%
X22225000Y-60325000D03*
D12*
X17145000Y-60325000D03*
X27305000Y-60325000D03*
%TD*%
D13*
%TO.C,MX2*%
X22225000Y-41275000D03*
D12*
X17145000Y-41275000D03*
X27305000Y-41275000D03*
%TD*%
D13*
%TO.C,MX1*%
X22225000Y-22225000D03*
D12*
X17145000Y-22225000D03*
X27305000Y-22225000D03*
%TD*%
D17*
%TO.C,D23*%
X101600000Y-102325000D03*
D18*
X101600000Y-94525000D03*
%TD*%
D17*
%TO.C,D22*%
X94525000Y-87312500D03*
D18*
X102325000Y-87312500D03*
%TD*%
D17*
%TO.C,D21*%
X94525000Y-68262500D03*
D18*
X102325000Y-68262500D03*
%TD*%
%TO.C,D20*%
X102325000Y-49212500D03*
D17*
X94525000Y-49212500D03*
%TD*%
%TO.C,D19*%
X94525000Y-30162500D03*
D18*
X102325000Y-30162500D03*
%TD*%
D17*
%TO.C,D18*%
X77787500Y-102325000D03*
D18*
X77787500Y-94525000D03*
%TD*%
D17*
%TO.C,D17*%
X87312500Y-83275000D03*
D18*
X87312500Y-75475000D03*
%TD*%
D17*
%TO.C,D16*%
X87312500Y-64225000D03*
D18*
X87312500Y-56425000D03*
%TD*%
D17*
%TO.C,D15*%
X87312500Y-45175000D03*
D18*
X87312500Y-37375000D03*
%TD*%
D17*
%TO.C,D14*%
X87312500Y-26125000D03*
D18*
X87312500Y-18325000D03*
%TD*%
D17*
%TO.C,D13*%
X58737500Y-102325000D03*
D18*
X58737500Y-94525000D03*
%TD*%
D17*
%TO.C,D12*%
X68262500Y-83275000D03*
D18*
X68262500Y-75475000D03*
%TD*%
D17*
%TO.C,D11*%
X68262500Y-64225000D03*
D18*
X68262500Y-56425000D03*
%TD*%
D17*
%TO.C,D10*%
X68262500Y-45175000D03*
D18*
X68262500Y-37375000D03*
%TD*%
D17*
%TO.C,D9*%
X68262500Y-26125000D03*
D18*
X68262500Y-18325000D03*
%TD*%
D17*
%TO.C,D8*%
X49212500Y-83275000D03*
D18*
X49212500Y-75475000D03*
%TD*%
D17*
%TO.C,D7*%
X49212500Y-64225000D03*
D18*
X49212500Y-56425000D03*
%TD*%
D17*
%TO.C,D6*%
X37375000Y-49212500D03*
D18*
X45175000Y-49212500D03*
%TD*%
D17*
%TO.C,D5*%
X37375000Y-30162500D03*
D18*
X45175000Y-30162500D03*
%TD*%
D17*
%TO.C,D4*%
X30162500Y-83275000D03*
D18*
X30162500Y-75475000D03*
%TD*%
D17*
%TO.C,D3*%
X30162500Y-64225000D03*
D18*
X30162500Y-56425000D03*
%TD*%
D17*
%TO.C,D2*%
X18325000Y-49212500D03*
D18*
X26125000Y-49212500D03*
%TD*%
D17*
%TO.C,D1*%
X30162500Y-26125000D03*
D18*
X30162500Y-18325000D03*
%TD*%
M02*
