%TF.GenerationSoftware,KiCad,Pcbnew,(5.1.12)-1*%
%TF.CreationDate,2022-01-06T16:35:48-05:00*%
%TF.ProjectId,gasket-2,6761736b-6574-42d3-922e-6b696361645f,rev?*%
%TF.SameCoordinates,Original*%
%TF.FileFunction,Legend,Bot*%
%TF.FilePolarity,Positive*%
%FSLAX46Y46*%
G04 Gerber Fmt 4.6, Leading zero omitted, Abs format (unit mm)*
G04 Created by KiCad (PCBNEW (5.1.12)-1) date 2022-01-06 16:35:48*
%MOMM*%
%LPD*%
G01*
G04 APERTURE LIST*
%ADD10C,0.120000*%
%ADD11C,0.150000*%
%ADD12C,0.250000*%
%ADD13C,1.750000*%
%ADD14C,2.250000*%
%ADD15C,3.987800*%
%ADD16R,1.800000X2.100000*%
%ADD17R,0.600000X2.450000*%
%ADD18R,0.300000X2.450000*%
%ADD19C,0.650000*%
%ADD20R,0.700000X0.600000*%
%ADD21R,0.700000X1.000000*%
%ADD22R,0.550000X1.500000*%
%ADD23R,1.500000X0.550000*%
%ADD24R,1.800000X1.100000*%
%ADD25R,1.700000X1.700000*%
%ADD26C,1.700000*%
%ADD27R,1.200000X0.900000*%
%ADD28R,0.900000X1.200000*%
G04 APERTURE END LIST*
D10*
%TO.C,FB1*%
X143381252Y-23443000D02*
X142858748Y-23443000D01*
X143381252Y-22023000D02*
X142858748Y-22023000D01*
%TO.C,Y1*%
X206466000Y-107856000D02*
X201966000Y-107856000D01*
X201966000Y-107856000D02*
X201966000Y-102456000D01*
D11*
%TO.C,U2*%
X138413250Y-42725000D02*
X137113250Y-42725000D01*
X138413250Y-39825000D02*
X138413250Y-42725000D01*
X137113250Y-39825000D02*
X138413250Y-39825000D01*
X137113250Y-39825000D02*
X137113250Y-42725000D01*
%TO.C,U1*%
X187484000Y-99854000D02*
X188059000Y-99854000D01*
X187484000Y-110204000D02*
X188159000Y-110204000D01*
X197834000Y-110204000D02*
X197159000Y-110204000D01*
X197834000Y-99854000D02*
X197159000Y-99854000D01*
X187484000Y-99854000D02*
X187484000Y-100529000D01*
X197834000Y-99854000D02*
X197834000Y-100529000D01*
X197834000Y-110204000D02*
X197834000Y-109529000D01*
X187484000Y-110204000D02*
X187484000Y-109529000D01*
X188059000Y-99854000D02*
X188059000Y-98579000D01*
D10*
%TO.C,SW1*%
X208587000Y-91895000D02*
X209077000Y-92385000D01*
X205687000Y-91895000D02*
X208587000Y-91895000D01*
X205687000Y-91895000D02*
X205197000Y-92385000D01*
X205687000Y-97335000D02*
X208587000Y-97335000D01*
X205687000Y-97335000D02*
X205197000Y-96845000D01*
X209857000Y-93575000D02*
X209857000Y-95655000D01*
X208587000Y-97335000D02*
X209077000Y-96845000D01*
X204417000Y-93575000D02*
X204417000Y-95655000D01*
%TO.C,R6*%
X192442000Y-95985064D02*
X192442000Y-95530936D01*
X190972000Y-95985064D02*
X190972000Y-95530936D01*
%TO.C,R5*%
X190346000Y-95985064D02*
X190346000Y-95530936D01*
X188876000Y-95985064D02*
X188876000Y-95530936D01*
%TO.C,R4*%
X133577064Y-38581000D02*
X133122936Y-38581000D01*
X133577064Y-37111000D02*
X133122936Y-37111000D01*
%TO.C,R3*%
X141266936Y-38254000D02*
X141721064Y-38254000D01*
X141266936Y-39724000D02*
X141721064Y-39724000D01*
%TO.C,R2*%
X180620936Y-111733000D02*
X181075064Y-111733000D01*
X180620936Y-110263000D02*
X181075064Y-110263000D01*
%TO.C,R1*%
X200125064Y-96547000D02*
X199670936Y-96547000D01*
X200125064Y-98017000D02*
X199670936Y-98017000D01*
D12*
%TO.C,J1*%
X206831250Y-111006250D02*
X206831250Y-116006250D01*
X206831250Y-116006250D02*
X209331250Y-116006250D01*
X209331250Y-116006250D02*
X209331250Y-111006250D01*
X209331250Y-111006250D02*
X206831250Y-111006250D01*
D10*
%TO.C,F1*%
X131646250Y-43464564D02*
X131646250Y-42260436D01*
X133466250Y-43464564D02*
X133466250Y-42260436D01*
%TO.C,D46*%
X211343750Y-91150000D02*
X211343750Y-87250000D01*
X209343750Y-91150000D02*
X209343750Y-87250000D01*
X211343750Y-91150000D02*
X209343750Y-91150000D01*
%TO.C,D45*%
X211343750Y-72100000D02*
X211343750Y-68200000D01*
X209343750Y-72100000D02*
X209343750Y-68200000D01*
X211343750Y-72100000D02*
X209343750Y-72100000D01*
%TO.C,D44*%
X211343750Y-53050000D02*
X211343750Y-49150000D01*
X209343750Y-53050000D02*
X209343750Y-49150000D01*
X211343750Y-53050000D02*
X209343750Y-53050000D01*
%TO.C,D43*%
X211343750Y-34000000D02*
X211343750Y-30100000D01*
X209343750Y-34000000D02*
X209343750Y-30100000D01*
X211343750Y-34000000D02*
X209343750Y-34000000D01*
%TO.C,D42*%
X192293750Y-91150000D02*
X192293750Y-87250000D01*
X190293750Y-91150000D02*
X190293750Y-87250000D01*
X192293750Y-91150000D02*
X190293750Y-91150000D01*
%TO.C,D41*%
X192293750Y-72100000D02*
X192293750Y-68200000D01*
X190293750Y-72100000D02*
X190293750Y-68200000D01*
X192293750Y-72100000D02*
X190293750Y-72100000D01*
%TO.C,D40*%
X192293750Y-53050000D02*
X192293750Y-49150000D01*
X190293750Y-53050000D02*
X190293750Y-49150000D01*
X192293750Y-53050000D02*
X190293750Y-53050000D01*
%TO.C,D39*%
X192293750Y-34000000D02*
X192293750Y-30100000D01*
X190293750Y-34000000D02*
X190293750Y-30100000D01*
X192293750Y-34000000D02*
X190293750Y-34000000D01*
%TO.C,D38*%
X182768750Y-108612500D02*
X182768750Y-104712500D01*
X180768750Y-108612500D02*
X180768750Y-104712500D01*
X182768750Y-108612500D02*
X180768750Y-108612500D01*
%TO.C,D37*%
X173243750Y-91150000D02*
X173243750Y-87250000D01*
X171243750Y-91150000D02*
X171243750Y-87250000D01*
X173243750Y-91150000D02*
X171243750Y-91150000D01*
%TO.C,D36*%
X173243750Y-72100000D02*
X173243750Y-68200000D01*
X171243750Y-72100000D02*
X171243750Y-68200000D01*
X173243750Y-72100000D02*
X171243750Y-72100000D01*
%TO.C,D35*%
X173243750Y-53050000D02*
X173243750Y-49150000D01*
X171243750Y-53050000D02*
X171243750Y-49150000D01*
X173243750Y-53050000D02*
X171243750Y-53050000D01*
%TO.C,D34*%
X173243750Y-34000000D02*
X173243750Y-30100000D01*
X171243750Y-34000000D02*
X171243750Y-30100000D01*
X173243750Y-34000000D02*
X171243750Y-34000000D01*
%TO.C,D33*%
X163718750Y-110200000D02*
X163718750Y-106300000D01*
X161718750Y-110200000D02*
X161718750Y-106300000D01*
X163718750Y-110200000D02*
X161718750Y-110200000D01*
%TO.C,D32*%
X154193750Y-91150000D02*
X154193750Y-87250000D01*
X152193750Y-91150000D02*
X152193750Y-87250000D01*
X154193750Y-91150000D02*
X152193750Y-91150000D01*
%TO.C,D31*%
X154193750Y-72100000D02*
X154193750Y-68200000D01*
X152193750Y-72100000D02*
X152193750Y-68200000D01*
X154193750Y-72100000D02*
X152193750Y-72100000D01*
%TO.C,D30*%
X154193750Y-53050000D02*
X154193750Y-49150000D01*
X152193750Y-53050000D02*
X152193750Y-49150000D01*
X154193750Y-53050000D02*
X152193750Y-53050000D01*
%TO.C,D29*%
X154193750Y-34000000D02*
X154193750Y-30100000D01*
X152193750Y-34000000D02*
X152193750Y-30100000D01*
X154193750Y-34000000D02*
X152193750Y-34000000D01*
%TO.C,D28*%
X139906250Y-110200000D02*
X139906250Y-106300000D01*
X137906250Y-110200000D02*
X137906250Y-106300000D01*
X139906250Y-110200000D02*
X137906250Y-110200000D01*
%TO.C,D27*%
X123956250Y-97043750D02*
X127856250Y-97043750D01*
X123956250Y-95043750D02*
X127856250Y-95043750D01*
X123956250Y-97043750D02*
X123956250Y-95043750D01*
%TO.C,D26*%
X123956250Y-77993750D02*
X127856250Y-77993750D01*
X123956250Y-75993750D02*
X127856250Y-75993750D01*
X123956250Y-77993750D02*
X123956250Y-75993750D01*
%TO.C,D25*%
X123956250Y-58943750D02*
X127856250Y-58943750D01*
X123956250Y-56943750D02*
X127856250Y-56943750D01*
X123956250Y-58943750D02*
X123956250Y-56943750D01*
%TO.C,D24*%
X123956250Y-39893750D02*
X127856250Y-39893750D01*
X123956250Y-37893750D02*
X127856250Y-37893750D01*
X123956250Y-39893750D02*
X123956250Y-37893750D01*
%TO.C,C8*%
X186443252Y-96420000D02*
X185920748Y-96420000D01*
X186443252Y-97890000D02*
X185920748Y-97890000D01*
%TO.C,C7*%
X185520000Y-109608252D02*
X185520000Y-109085748D01*
X184050000Y-109608252D02*
X184050000Y-109085748D01*
%TO.C,C6*%
X202211000Y-100068748D02*
X202211000Y-100591252D01*
X203681000Y-100068748D02*
X203681000Y-100591252D01*
%TO.C,C5*%
X195587252Y-96293000D02*
X195064748Y-96293000D01*
X195587252Y-97763000D02*
X195064748Y-97763000D01*
%TO.C,C4*%
X195064748Y-95604000D02*
X195587252Y-95604000D01*
X195064748Y-94134000D02*
X195587252Y-94134000D01*
%TO.C,C3*%
X197985748Y-113638000D02*
X198508252Y-113638000D01*
X197985748Y-112168000D02*
X198508252Y-112168000D01*
%TO.C,C2*%
X208272748Y-104494000D02*
X208795252Y-104494000D01*
X208272748Y-103024000D02*
X208795252Y-103024000D01*
%TO.C,C1*%
X208272748Y-107415000D02*
X208795252Y-107415000D01*
X208272748Y-105945000D02*
X208795252Y-105945000D01*
%TO.C,FB1*%
D11*
X143953333Y-21011571D02*
X144286666Y-21011571D01*
X144286666Y-21535380D02*
X144286666Y-20535380D01*
X143810476Y-20535380D01*
X143096190Y-21011571D02*
X142953333Y-21059190D01*
X142905714Y-21106809D01*
X142858095Y-21202047D01*
X142858095Y-21344904D01*
X142905714Y-21440142D01*
X142953333Y-21487761D01*
X143048571Y-21535380D01*
X143429523Y-21535380D01*
X143429523Y-20535380D01*
X143096190Y-20535380D01*
X143000952Y-20583000D01*
X142953333Y-20630619D01*
X142905714Y-20725857D01*
X142905714Y-20821095D01*
X142953333Y-20916333D01*
X143000952Y-20963952D01*
X143096190Y-21011571D01*
X143429523Y-21011571D01*
X141905714Y-21535380D02*
X142477142Y-21535380D01*
X142191428Y-21535380D02*
X142191428Y-20535380D01*
X142286666Y-20678238D01*
X142381904Y-20773476D01*
X142477142Y-20821095D01*
%TO.C,Y1*%
X207242190Y-104679809D02*
X207718380Y-104679809D01*
X206718380Y-104346476D02*
X207242190Y-104679809D01*
X206718380Y-105013142D01*
X207718380Y-105870285D02*
X207718380Y-105298857D01*
X207718380Y-105584571D02*
X206718380Y-105584571D01*
X206861238Y-105489333D01*
X206956476Y-105394095D01*
X207004095Y-105298857D01*
%TO.C,USB1*%
X137469345Y-27478630D02*
X137469345Y-28288154D01*
X137421726Y-28383392D01*
X137374107Y-28431011D01*
X137278869Y-28478630D01*
X137088392Y-28478630D01*
X136993154Y-28431011D01*
X136945535Y-28383392D01*
X136897916Y-28288154D01*
X136897916Y-27478630D01*
X136469345Y-28431011D02*
X136326488Y-28478630D01*
X136088392Y-28478630D01*
X135993154Y-28431011D01*
X135945535Y-28383392D01*
X135897916Y-28288154D01*
X135897916Y-28192916D01*
X135945535Y-28097678D01*
X135993154Y-28050059D01*
X136088392Y-28002440D01*
X136278869Y-27954821D01*
X136374107Y-27907202D01*
X136421726Y-27859583D01*
X136469345Y-27764345D01*
X136469345Y-27669107D01*
X136421726Y-27573869D01*
X136374107Y-27526250D01*
X136278869Y-27478630D01*
X136040773Y-27478630D01*
X135897916Y-27526250D01*
X135136011Y-27954821D02*
X134993154Y-28002440D01*
X134945535Y-28050059D01*
X134897916Y-28145297D01*
X134897916Y-28288154D01*
X134945535Y-28383392D01*
X134993154Y-28431011D01*
X135088392Y-28478630D01*
X135469345Y-28478630D01*
X135469345Y-27478630D01*
X135136011Y-27478630D01*
X135040773Y-27526250D01*
X134993154Y-27573869D01*
X134945535Y-27669107D01*
X134945535Y-27764345D01*
X134993154Y-27859583D01*
X135040773Y-27907202D01*
X135136011Y-27954821D01*
X135469345Y-27954821D01*
X133945535Y-28478630D02*
X134516964Y-28478630D01*
X134231250Y-28478630D02*
X134231250Y-27478630D01*
X134326488Y-27621488D01*
X134421726Y-27716726D01*
X134516964Y-27764345D01*
%TO.C,U2*%
X138525154Y-43177380D02*
X138525154Y-43986904D01*
X138477535Y-44082142D01*
X138429916Y-44129761D01*
X138334678Y-44177380D01*
X138144202Y-44177380D01*
X138048964Y-44129761D01*
X138001345Y-44082142D01*
X137953726Y-43986904D01*
X137953726Y-43177380D01*
X137525154Y-43272619D02*
X137477535Y-43225000D01*
X137382297Y-43177380D01*
X137144202Y-43177380D01*
X137048964Y-43225000D01*
X137001345Y-43272619D01*
X136953726Y-43367857D01*
X136953726Y-43463095D01*
X137001345Y-43605952D01*
X137572773Y-44177380D01*
X136953726Y-44177380D01*
%TO.C,U1*%
X184661380Y-104267095D02*
X185470904Y-104267095D01*
X185566142Y-104314714D01*
X185613761Y-104362333D01*
X185661380Y-104457571D01*
X185661380Y-104648047D01*
X185613761Y-104743285D01*
X185566142Y-104790904D01*
X185470904Y-104838523D01*
X184661380Y-104838523D01*
X185661380Y-105838523D02*
X185661380Y-105267095D01*
X185661380Y-105552809D02*
X184661380Y-105552809D01*
X184804238Y-105457571D01*
X184899476Y-105362333D01*
X184947095Y-105267095D01*
%TO.C,SW1*%
X208470333Y-98619761D02*
X208327476Y-98667380D01*
X208089380Y-98667380D01*
X207994142Y-98619761D01*
X207946523Y-98572142D01*
X207898904Y-98476904D01*
X207898904Y-98381666D01*
X207946523Y-98286428D01*
X207994142Y-98238809D01*
X208089380Y-98191190D01*
X208279857Y-98143571D01*
X208375095Y-98095952D01*
X208422714Y-98048333D01*
X208470333Y-97953095D01*
X208470333Y-97857857D01*
X208422714Y-97762619D01*
X208375095Y-97715000D01*
X208279857Y-97667380D01*
X208041761Y-97667380D01*
X207898904Y-97715000D01*
X207565571Y-97667380D02*
X207327476Y-98667380D01*
X207137000Y-97953095D01*
X206946523Y-98667380D01*
X206708428Y-97667380D01*
X205803666Y-98667380D02*
X206375095Y-98667380D01*
X206089380Y-98667380D02*
X206089380Y-97667380D01*
X206184619Y-97810238D01*
X206279857Y-97905476D01*
X206375095Y-97953095D01*
%TO.C,R6*%
X193809380Y-95591333D02*
X193333190Y-95258000D01*
X193809380Y-95019904D02*
X192809380Y-95019904D01*
X192809380Y-95400857D01*
X192857000Y-95496095D01*
X192904619Y-95543714D01*
X192999857Y-95591333D01*
X193142714Y-95591333D01*
X193237952Y-95543714D01*
X193285571Y-95496095D01*
X193333190Y-95400857D01*
X193333190Y-95019904D01*
X192809380Y-96448476D02*
X192809380Y-96258000D01*
X192857000Y-96162761D01*
X192904619Y-96115142D01*
X193047476Y-96019904D01*
X193237952Y-95972285D01*
X193618904Y-95972285D01*
X193714142Y-96019904D01*
X193761761Y-96067523D01*
X193809380Y-96162761D01*
X193809380Y-96353238D01*
X193761761Y-96448476D01*
X193714142Y-96496095D01*
X193618904Y-96543714D01*
X193380809Y-96543714D01*
X193285571Y-96496095D01*
X193237952Y-96448476D01*
X193190333Y-96353238D01*
X193190333Y-96162761D01*
X193237952Y-96067523D01*
X193285571Y-96019904D01*
X193380809Y-95972285D01*
%TO.C,R5*%
X191713380Y-95591333D02*
X191237190Y-95258000D01*
X191713380Y-95019904D02*
X190713380Y-95019904D01*
X190713380Y-95400857D01*
X190761000Y-95496095D01*
X190808619Y-95543714D01*
X190903857Y-95591333D01*
X191046714Y-95591333D01*
X191141952Y-95543714D01*
X191189571Y-95496095D01*
X191237190Y-95400857D01*
X191237190Y-95019904D01*
X190713380Y-96496095D02*
X190713380Y-96019904D01*
X191189571Y-95972285D01*
X191141952Y-96019904D01*
X191094333Y-96115142D01*
X191094333Y-96353238D01*
X191141952Y-96448476D01*
X191189571Y-96496095D01*
X191284809Y-96543714D01*
X191522904Y-96543714D01*
X191618142Y-96496095D01*
X191665761Y-96448476D01*
X191713380Y-96353238D01*
X191713380Y-96115142D01*
X191665761Y-96019904D01*
X191618142Y-95972285D01*
%TO.C,R4*%
X133516666Y-36648380D02*
X133850000Y-36172190D01*
X134088095Y-36648380D02*
X134088095Y-35648380D01*
X133707142Y-35648380D01*
X133611904Y-35696000D01*
X133564285Y-35743619D01*
X133516666Y-35838857D01*
X133516666Y-35981714D01*
X133564285Y-36076952D01*
X133611904Y-36124571D01*
X133707142Y-36172190D01*
X134088095Y-36172190D01*
X132659523Y-35981714D02*
X132659523Y-36648380D01*
X132897619Y-35600761D02*
X133135714Y-36315047D01*
X132516666Y-36315047D01*
%TO.C,R3*%
X141660666Y-41091380D02*
X141994000Y-40615190D01*
X142232095Y-41091380D02*
X142232095Y-40091380D01*
X141851142Y-40091380D01*
X141755904Y-40139000D01*
X141708285Y-40186619D01*
X141660666Y-40281857D01*
X141660666Y-40424714D01*
X141708285Y-40519952D01*
X141755904Y-40567571D01*
X141851142Y-40615190D01*
X142232095Y-40615190D01*
X141327333Y-40091380D02*
X140708285Y-40091380D01*
X141041619Y-40472333D01*
X140898761Y-40472333D01*
X140803523Y-40519952D01*
X140755904Y-40567571D01*
X140708285Y-40662809D01*
X140708285Y-40900904D01*
X140755904Y-40996142D01*
X140803523Y-41043761D01*
X140898761Y-41091380D01*
X141184476Y-41091380D01*
X141279714Y-41043761D01*
X141327333Y-40996142D01*
%TO.C,R2*%
X181014666Y-113100380D02*
X181348000Y-112624190D01*
X181586095Y-113100380D02*
X181586095Y-112100380D01*
X181205142Y-112100380D01*
X181109904Y-112148000D01*
X181062285Y-112195619D01*
X181014666Y-112290857D01*
X181014666Y-112433714D01*
X181062285Y-112528952D01*
X181109904Y-112576571D01*
X181205142Y-112624190D01*
X181586095Y-112624190D01*
X180633714Y-112195619D02*
X180586095Y-112148000D01*
X180490857Y-112100380D01*
X180252761Y-112100380D01*
X180157523Y-112148000D01*
X180109904Y-112195619D01*
X180062285Y-112290857D01*
X180062285Y-112386095D01*
X180109904Y-112528952D01*
X180681333Y-113100380D01*
X180062285Y-113100380D01*
%TO.C,R1*%
X200064666Y-96084380D02*
X200398000Y-95608190D01*
X200636095Y-96084380D02*
X200636095Y-95084380D01*
X200255142Y-95084380D01*
X200159904Y-95132000D01*
X200112285Y-95179619D01*
X200064666Y-95274857D01*
X200064666Y-95417714D01*
X200112285Y-95512952D01*
X200159904Y-95560571D01*
X200255142Y-95608190D01*
X200636095Y-95608190D01*
X199112285Y-96084380D02*
X199683714Y-96084380D01*
X199398000Y-96084380D02*
X199398000Y-95084380D01*
X199493238Y-95227238D01*
X199588476Y-95322476D01*
X199683714Y-95370095D01*
%TO.C,J1*%
X203533630Y-107684821D02*
X202533630Y-107684821D01*
X203247916Y-108018154D01*
X202533630Y-108351488D01*
X203533630Y-108351488D01*
X203533630Y-108827678D02*
X202533630Y-108827678D01*
X203486011Y-109256250D02*
X203533630Y-109399107D01*
X203533630Y-109637202D01*
X203486011Y-109732440D01*
X203438392Y-109780059D01*
X203343154Y-109827678D01*
X203247916Y-109827678D01*
X203152678Y-109780059D01*
X203105059Y-109732440D01*
X203057440Y-109637202D01*
X203009821Y-109446726D01*
X202962202Y-109351488D01*
X202914583Y-109303869D01*
X202819345Y-109256250D01*
X202724107Y-109256250D01*
X202628869Y-109303869D01*
X202581250Y-109351488D01*
X202533630Y-109446726D01*
X202533630Y-109684821D01*
X202581250Y-109827678D01*
X202533630Y-110446726D02*
X202533630Y-110637202D01*
X202581250Y-110732440D01*
X202676488Y-110827678D01*
X202866964Y-110875297D01*
X203200297Y-110875297D01*
X203390773Y-110827678D01*
X203486011Y-110732440D01*
X203533630Y-110637202D01*
X203533630Y-110446726D01*
X203486011Y-110351488D01*
X203390773Y-110256250D01*
X203200297Y-110208630D01*
X202866964Y-110208630D01*
X202676488Y-110256250D01*
X202581250Y-110351488D01*
X202533630Y-110446726D01*
X202533630Y-116172916D02*
X203533630Y-116506250D01*
X202533630Y-116839583D01*
X203438392Y-117744345D02*
X203486011Y-117696726D01*
X203533630Y-117553869D01*
X203533630Y-117458630D01*
X203486011Y-117315773D01*
X203390773Y-117220535D01*
X203295535Y-117172916D01*
X203105059Y-117125297D01*
X202962202Y-117125297D01*
X202771726Y-117172916D01*
X202676488Y-117220535D01*
X202581250Y-117315773D01*
X202533630Y-117458630D01*
X202533630Y-117553869D01*
X202581250Y-117696726D01*
X202628869Y-117744345D01*
X203438392Y-118744345D02*
X203486011Y-118696726D01*
X203533630Y-118553869D01*
X203533630Y-118458630D01*
X203486011Y-118315773D01*
X203390773Y-118220535D01*
X203295535Y-118172916D01*
X203105059Y-118125297D01*
X202962202Y-118125297D01*
X202771726Y-118172916D01*
X202676488Y-118220535D01*
X202581250Y-118315773D01*
X202533630Y-118458630D01*
X202533630Y-118553869D01*
X202581250Y-118696726D01*
X202628869Y-118744345D01*
X205986011Y-108220535D02*
X206033630Y-108363392D01*
X206033630Y-108601488D01*
X205986011Y-108696726D01*
X205938392Y-108744345D01*
X205843154Y-108791964D01*
X205747916Y-108791964D01*
X205652678Y-108744345D01*
X205605059Y-108696726D01*
X205557440Y-108601488D01*
X205509821Y-108411011D01*
X205462202Y-108315773D01*
X205414583Y-108268154D01*
X205319345Y-108220535D01*
X205224107Y-108220535D01*
X205128869Y-108268154D01*
X205081250Y-108315773D01*
X205033630Y-108411011D01*
X205033630Y-108649107D01*
X205081250Y-108791964D01*
X205938392Y-109791964D02*
X205986011Y-109744345D01*
X206033630Y-109601488D01*
X206033630Y-109506250D01*
X205986011Y-109363392D01*
X205890773Y-109268154D01*
X205795535Y-109220535D01*
X205605059Y-109172916D01*
X205462202Y-109172916D01*
X205271726Y-109220535D01*
X205176488Y-109268154D01*
X205081250Y-109363392D01*
X205033630Y-109506250D01*
X205033630Y-109601488D01*
X205081250Y-109744345D01*
X205128869Y-109791964D01*
X206033630Y-110220535D02*
X205033630Y-110220535D01*
X206033630Y-110791964D02*
X205462202Y-110363392D01*
X205033630Y-110791964D02*
X205605059Y-110220535D01*
X206033630Y-116184821D02*
X205033630Y-116184821D01*
X205747916Y-116518154D01*
X205033630Y-116851488D01*
X206033630Y-116851488D01*
X205033630Y-117518154D02*
X205033630Y-117708630D01*
X205081250Y-117803869D01*
X205176488Y-117899107D01*
X205366964Y-117946726D01*
X205700297Y-117946726D01*
X205890773Y-117899107D01*
X205986011Y-117803869D01*
X206033630Y-117708630D01*
X206033630Y-117518154D01*
X205986011Y-117422916D01*
X205890773Y-117327678D01*
X205700297Y-117280059D01*
X205366964Y-117280059D01*
X205176488Y-117327678D01*
X205081250Y-117422916D01*
X205033630Y-117518154D01*
X205986011Y-118327678D02*
X206033630Y-118470535D01*
X206033630Y-118708630D01*
X205986011Y-118803869D01*
X205938392Y-118851488D01*
X205843154Y-118899107D01*
X205747916Y-118899107D01*
X205652678Y-118851488D01*
X205605059Y-118803869D01*
X205557440Y-118708630D01*
X205509821Y-118518154D01*
X205462202Y-118422916D01*
X205414583Y-118375297D01*
X205319345Y-118327678D01*
X205224107Y-118327678D01*
X205128869Y-118375297D01*
X205081250Y-118422916D01*
X205033630Y-118518154D01*
X205033630Y-118756250D01*
X205081250Y-118899107D01*
X206033630Y-119327678D02*
X205033630Y-119327678D01*
X208533630Y-108708630D02*
X208057440Y-108375297D01*
X208533630Y-108137202D02*
X207533630Y-108137202D01*
X207533630Y-108518154D01*
X207581250Y-108613392D01*
X207628869Y-108661011D01*
X207724107Y-108708630D01*
X207866964Y-108708630D01*
X207962202Y-108661011D01*
X208009821Y-108613392D01*
X208057440Y-108518154D01*
X208057440Y-108137202D01*
X208486011Y-109089583D02*
X208533630Y-109232440D01*
X208533630Y-109470535D01*
X208486011Y-109565773D01*
X208438392Y-109613392D01*
X208343154Y-109661011D01*
X208247916Y-109661011D01*
X208152678Y-109613392D01*
X208105059Y-109565773D01*
X208057440Y-109470535D01*
X208009821Y-109280059D01*
X207962202Y-109184821D01*
X207914583Y-109137202D01*
X207819345Y-109089583D01*
X207724107Y-109089583D01*
X207628869Y-109137202D01*
X207581250Y-109184821D01*
X207533630Y-109280059D01*
X207533630Y-109518154D01*
X207581250Y-109661011D01*
X207533630Y-109946726D02*
X207533630Y-110518154D01*
X208533630Y-110232440D02*
X207533630Y-110232440D01*
X207581250Y-116994345D02*
X207533630Y-116899107D01*
X207533630Y-116756250D01*
X207581250Y-116613392D01*
X207676488Y-116518154D01*
X207771726Y-116470535D01*
X207962202Y-116422916D01*
X208105059Y-116422916D01*
X208295535Y-116470535D01*
X208390773Y-116518154D01*
X208486011Y-116613392D01*
X208533630Y-116756250D01*
X208533630Y-116851488D01*
X208486011Y-116994345D01*
X208438392Y-117041964D01*
X208105059Y-117041964D01*
X208105059Y-116851488D01*
X208533630Y-117470535D02*
X207533630Y-117470535D01*
X208533630Y-118041964D01*
X207533630Y-118041964D01*
X208533630Y-118518154D02*
X207533630Y-118518154D01*
X207533630Y-118756250D01*
X207581250Y-118899107D01*
X207676488Y-118994345D01*
X207771726Y-119041964D01*
X207962202Y-119089583D01*
X208105059Y-119089583D01*
X208295535Y-119041964D01*
X208390773Y-118994345D01*
X208486011Y-118899107D01*
X208533630Y-118756250D01*
X208533630Y-118518154D01*
%TO.C,F1*%
X134304821Y-42529166D02*
X134304821Y-42195833D01*
X134828630Y-42195833D02*
X133828630Y-42195833D01*
X133828630Y-42672023D01*
X134828630Y-43576785D02*
X134828630Y-43005357D01*
X134828630Y-43291071D02*
X133828630Y-43291071D01*
X133971488Y-43195833D01*
X134066726Y-43100595D01*
X134114345Y-43005357D01*
%TO.C,D46*%
X212796130Y-87685714D02*
X211796130Y-87685714D01*
X211796130Y-87923809D01*
X211843750Y-88066666D01*
X211938988Y-88161904D01*
X212034226Y-88209523D01*
X212224702Y-88257142D01*
X212367559Y-88257142D01*
X212558035Y-88209523D01*
X212653273Y-88161904D01*
X212748511Y-88066666D01*
X212796130Y-87923809D01*
X212796130Y-87685714D01*
X212129464Y-89114285D02*
X212796130Y-89114285D01*
X211748511Y-88876190D02*
X212462797Y-88638095D01*
X212462797Y-89257142D01*
X211796130Y-90066666D02*
X211796130Y-89876190D01*
X211843750Y-89780952D01*
X211891369Y-89733333D01*
X212034226Y-89638095D01*
X212224702Y-89590476D01*
X212605654Y-89590476D01*
X212700892Y-89638095D01*
X212748511Y-89685714D01*
X212796130Y-89780952D01*
X212796130Y-89971428D01*
X212748511Y-90066666D01*
X212700892Y-90114285D01*
X212605654Y-90161904D01*
X212367559Y-90161904D01*
X212272321Y-90114285D01*
X212224702Y-90066666D01*
X212177083Y-89971428D01*
X212177083Y-89780952D01*
X212224702Y-89685714D01*
X212272321Y-89638095D01*
X212367559Y-89590476D01*
%TO.C,D45*%
X212796130Y-68635714D02*
X211796130Y-68635714D01*
X211796130Y-68873809D01*
X211843750Y-69016666D01*
X211938988Y-69111904D01*
X212034226Y-69159523D01*
X212224702Y-69207142D01*
X212367559Y-69207142D01*
X212558035Y-69159523D01*
X212653273Y-69111904D01*
X212748511Y-69016666D01*
X212796130Y-68873809D01*
X212796130Y-68635714D01*
X212129464Y-70064285D02*
X212796130Y-70064285D01*
X211748511Y-69826190D02*
X212462797Y-69588095D01*
X212462797Y-70207142D01*
X211796130Y-71064285D02*
X211796130Y-70588095D01*
X212272321Y-70540476D01*
X212224702Y-70588095D01*
X212177083Y-70683333D01*
X212177083Y-70921428D01*
X212224702Y-71016666D01*
X212272321Y-71064285D01*
X212367559Y-71111904D01*
X212605654Y-71111904D01*
X212700892Y-71064285D01*
X212748511Y-71016666D01*
X212796130Y-70921428D01*
X212796130Y-70683333D01*
X212748511Y-70588095D01*
X212700892Y-70540476D01*
%TO.C,D44*%
X212796130Y-49585714D02*
X211796130Y-49585714D01*
X211796130Y-49823809D01*
X211843750Y-49966666D01*
X211938988Y-50061904D01*
X212034226Y-50109523D01*
X212224702Y-50157142D01*
X212367559Y-50157142D01*
X212558035Y-50109523D01*
X212653273Y-50061904D01*
X212748511Y-49966666D01*
X212796130Y-49823809D01*
X212796130Y-49585714D01*
X212129464Y-51014285D02*
X212796130Y-51014285D01*
X211748511Y-50776190D02*
X212462797Y-50538095D01*
X212462797Y-51157142D01*
X212129464Y-51966666D02*
X212796130Y-51966666D01*
X211748511Y-51728571D02*
X212462797Y-51490476D01*
X212462797Y-52109523D01*
%TO.C,D43*%
X212796130Y-30535714D02*
X211796130Y-30535714D01*
X211796130Y-30773809D01*
X211843750Y-30916666D01*
X211938988Y-31011904D01*
X212034226Y-31059523D01*
X212224702Y-31107142D01*
X212367559Y-31107142D01*
X212558035Y-31059523D01*
X212653273Y-31011904D01*
X212748511Y-30916666D01*
X212796130Y-30773809D01*
X212796130Y-30535714D01*
X212129464Y-31964285D02*
X212796130Y-31964285D01*
X211748511Y-31726190D02*
X212462797Y-31488095D01*
X212462797Y-32107142D01*
X211796130Y-32392857D02*
X211796130Y-33011904D01*
X212177083Y-32678571D01*
X212177083Y-32821428D01*
X212224702Y-32916666D01*
X212272321Y-32964285D01*
X212367559Y-33011904D01*
X212605654Y-33011904D01*
X212700892Y-32964285D01*
X212748511Y-32916666D01*
X212796130Y-32821428D01*
X212796130Y-32535714D01*
X212748511Y-32440476D01*
X212700892Y-32392857D01*
%TO.C,D42*%
X193746130Y-87685714D02*
X192746130Y-87685714D01*
X192746130Y-87923809D01*
X192793750Y-88066666D01*
X192888988Y-88161904D01*
X192984226Y-88209523D01*
X193174702Y-88257142D01*
X193317559Y-88257142D01*
X193508035Y-88209523D01*
X193603273Y-88161904D01*
X193698511Y-88066666D01*
X193746130Y-87923809D01*
X193746130Y-87685714D01*
X193079464Y-89114285D02*
X193746130Y-89114285D01*
X192698511Y-88876190D02*
X193412797Y-88638095D01*
X193412797Y-89257142D01*
X192841369Y-89590476D02*
X192793750Y-89638095D01*
X192746130Y-89733333D01*
X192746130Y-89971428D01*
X192793750Y-90066666D01*
X192841369Y-90114285D01*
X192936607Y-90161904D01*
X193031845Y-90161904D01*
X193174702Y-90114285D01*
X193746130Y-89542857D01*
X193746130Y-90161904D01*
%TO.C,D41*%
X193746130Y-68635714D02*
X192746130Y-68635714D01*
X192746130Y-68873809D01*
X192793750Y-69016666D01*
X192888988Y-69111904D01*
X192984226Y-69159523D01*
X193174702Y-69207142D01*
X193317559Y-69207142D01*
X193508035Y-69159523D01*
X193603273Y-69111904D01*
X193698511Y-69016666D01*
X193746130Y-68873809D01*
X193746130Y-68635714D01*
X193079464Y-70064285D02*
X193746130Y-70064285D01*
X192698511Y-69826190D02*
X193412797Y-69588095D01*
X193412797Y-70207142D01*
X193746130Y-71111904D02*
X193746130Y-70540476D01*
X193746130Y-70826190D02*
X192746130Y-70826190D01*
X192888988Y-70730952D01*
X192984226Y-70635714D01*
X193031845Y-70540476D01*
%TO.C,D40*%
X193746130Y-49585714D02*
X192746130Y-49585714D01*
X192746130Y-49823809D01*
X192793750Y-49966666D01*
X192888988Y-50061904D01*
X192984226Y-50109523D01*
X193174702Y-50157142D01*
X193317559Y-50157142D01*
X193508035Y-50109523D01*
X193603273Y-50061904D01*
X193698511Y-49966666D01*
X193746130Y-49823809D01*
X193746130Y-49585714D01*
X193079464Y-51014285D02*
X193746130Y-51014285D01*
X192698511Y-50776190D02*
X193412797Y-50538095D01*
X193412797Y-51157142D01*
X192746130Y-51728571D02*
X192746130Y-51823809D01*
X192793750Y-51919047D01*
X192841369Y-51966666D01*
X192936607Y-52014285D01*
X193127083Y-52061904D01*
X193365178Y-52061904D01*
X193555654Y-52014285D01*
X193650892Y-51966666D01*
X193698511Y-51919047D01*
X193746130Y-51823809D01*
X193746130Y-51728571D01*
X193698511Y-51633333D01*
X193650892Y-51585714D01*
X193555654Y-51538095D01*
X193365178Y-51490476D01*
X193127083Y-51490476D01*
X192936607Y-51538095D01*
X192841369Y-51585714D01*
X192793750Y-51633333D01*
X192746130Y-51728571D01*
%TO.C,D39*%
X193746130Y-30535714D02*
X192746130Y-30535714D01*
X192746130Y-30773809D01*
X192793750Y-30916666D01*
X192888988Y-31011904D01*
X192984226Y-31059523D01*
X193174702Y-31107142D01*
X193317559Y-31107142D01*
X193508035Y-31059523D01*
X193603273Y-31011904D01*
X193698511Y-30916666D01*
X193746130Y-30773809D01*
X193746130Y-30535714D01*
X192746130Y-31440476D02*
X192746130Y-32059523D01*
X193127083Y-31726190D01*
X193127083Y-31869047D01*
X193174702Y-31964285D01*
X193222321Y-32011904D01*
X193317559Y-32059523D01*
X193555654Y-32059523D01*
X193650892Y-32011904D01*
X193698511Y-31964285D01*
X193746130Y-31869047D01*
X193746130Y-31583333D01*
X193698511Y-31488095D01*
X193650892Y-31440476D01*
X193746130Y-32535714D02*
X193746130Y-32726190D01*
X193698511Y-32821428D01*
X193650892Y-32869047D01*
X193508035Y-32964285D01*
X193317559Y-33011904D01*
X192936607Y-33011904D01*
X192841369Y-32964285D01*
X192793750Y-32916666D01*
X192746130Y-32821428D01*
X192746130Y-32630952D01*
X192793750Y-32535714D01*
X192841369Y-32488095D01*
X192936607Y-32440476D01*
X193174702Y-32440476D01*
X193269940Y-32488095D01*
X193317559Y-32535714D01*
X193365178Y-32630952D01*
X193365178Y-32821428D01*
X193317559Y-32916666D01*
X193269940Y-32964285D01*
X193174702Y-33011904D01*
%TO.C,D38*%
X184221130Y-105148214D02*
X183221130Y-105148214D01*
X183221130Y-105386309D01*
X183268750Y-105529166D01*
X183363988Y-105624404D01*
X183459226Y-105672023D01*
X183649702Y-105719642D01*
X183792559Y-105719642D01*
X183983035Y-105672023D01*
X184078273Y-105624404D01*
X184173511Y-105529166D01*
X184221130Y-105386309D01*
X184221130Y-105148214D01*
X183221130Y-106052976D02*
X183221130Y-106672023D01*
X183602083Y-106338690D01*
X183602083Y-106481547D01*
X183649702Y-106576785D01*
X183697321Y-106624404D01*
X183792559Y-106672023D01*
X184030654Y-106672023D01*
X184125892Y-106624404D01*
X184173511Y-106576785D01*
X184221130Y-106481547D01*
X184221130Y-106195833D01*
X184173511Y-106100595D01*
X184125892Y-106052976D01*
X183649702Y-107243452D02*
X183602083Y-107148214D01*
X183554464Y-107100595D01*
X183459226Y-107052976D01*
X183411607Y-107052976D01*
X183316369Y-107100595D01*
X183268750Y-107148214D01*
X183221130Y-107243452D01*
X183221130Y-107433928D01*
X183268750Y-107529166D01*
X183316369Y-107576785D01*
X183411607Y-107624404D01*
X183459226Y-107624404D01*
X183554464Y-107576785D01*
X183602083Y-107529166D01*
X183649702Y-107433928D01*
X183649702Y-107243452D01*
X183697321Y-107148214D01*
X183744940Y-107100595D01*
X183840178Y-107052976D01*
X184030654Y-107052976D01*
X184125892Y-107100595D01*
X184173511Y-107148214D01*
X184221130Y-107243452D01*
X184221130Y-107433928D01*
X184173511Y-107529166D01*
X184125892Y-107576785D01*
X184030654Y-107624404D01*
X183840178Y-107624404D01*
X183744940Y-107576785D01*
X183697321Y-107529166D01*
X183649702Y-107433928D01*
%TO.C,D37*%
X174696130Y-87685714D02*
X173696130Y-87685714D01*
X173696130Y-87923809D01*
X173743750Y-88066666D01*
X173838988Y-88161904D01*
X173934226Y-88209523D01*
X174124702Y-88257142D01*
X174267559Y-88257142D01*
X174458035Y-88209523D01*
X174553273Y-88161904D01*
X174648511Y-88066666D01*
X174696130Y-87923809D01*
X174696130Y-87685714D01*
X173696130Y-88590476D02*
X173696130Y-89209523D01*
X174077083Y-88876190D01*
X174077083Y-89019047D01*
X174124702Y-89114285D01*
X174172321Y-89161904D01*
X174267559Y-89209523D01*
X174505654Y-89209523D01*
X174600892Y-89161904D01*
X174648511Y-89114285D01*
X174696130Y-89019047D01*
X174696130Y-88733333D01*
X174648511Y-88638095D01*
X174600892Y-88590476D01*
X173696130Y-89542857D02*
X173696130Y-90209523D01*
X174696130Y-89780952D01*
%TO.C,D36*%
X174696130Y-68635714D02*
X173696130Y-68635714D01*
X173696130Y-68873809D01*
X173743750Y-69016666D01*
X173838988Y-69111904D01*
X173934226Y-69159523D01*
X174124702Y-69207142D01*
X174267559Y-69207142D01*
X174458035Y-69159523D01*
X174553273Y-69111904D01*
X174648511Y-69016666D01*
X174696130Y-68873809D01*
X174696130Y-68635714D01*
X173696130Y-69540476D02*
X173696130Y-70159523D01*
X174077083Y-69826190D01*
X174077083Y-69969047D01*
X174124702Y-70064285D01*
X174172321Y-70111904D01*
X174267559Y-70159523D01*
X174505654Y-70159523D01*
X174600892Y-70111904D01*
X174648511Y-70064285D01*
X174696130Y-69969047D01*
X174696130Y-69683333D01*
X174648511Y-69588095D01*
X174600892Y-69540476D01*
X173696130Y-71016666D02*
X173696130Y-70826190D01*
X173743750Y-70730952D01*
X173791369Y-70683333D01*
X173934226Y-70588095D01*
X174124702Y-70540476D01*
X174505654Y-70540476D01*
X174600892Y-70588095D01*
X174648511Y-70635714D01*
X174696130Y-70730952D01*
X174696130Y-70921428D01*
X174648511Y-71016666D01*
X174600892Y-71064285D01*
X174505654Y-71111904D01*
X174267559Y-71111904D01*
X174172321Y-71064285D01*
X174124702Y-71016666D01*
X174077083Y-70921428D01*
X174077083Y-70730952D01*
X174124702Y-70635714D01*
X174172321Y-70588095D01*
X174267559Y-70540476D01*
%TO.C,D35*%
X174696130Y-49585714D02*
X173696130Y-49585714D01*
X173696130Y-49823809D01*
X173743750Y-49966666D01*
X173838988Y-50061904D01*
X173934226Y-50109523D01*
X174124702Y-50157142D01*
X174267559Y-50157142D01*
X174458035Y-50109523D01*
X174553273Y-50061904D01*
X174648511Y-49966666D01*
X174696130Y-49823809D01*
X174696130Y-49585714D01*
X173696130Y-50490476D02*
X173696130Y-51109523D01*
X174077083Y-50776190D01*
X174077083Y-50919047D01*
X174124702Y-51014285D01*
X174172321Y-51061904D01*
X174267559Y-51109523D01*
X174505654Y-51109523D01*
X174600892Y-51061904D01*
X174648511Y-51014285D01*
X174696130Y-50919047D01*
X174696130Y-50633333D01*
X174648511Y-50538095D01*
X174600892Y-50490476D01*
X173696130Y-52014285D02*
X173696130Y-51538095D01*
X174172321Y-51490476D01*
X174124702Y-51538095D01*
X174077083Y-51633333D01*
X174077083Y-51871428D01*
X174124702Y-51966666D01*
X174172321Y-52014285D01*
X174267559Y-52061904D01*
X174505654Y-52061904D01*
X174600892Y-52014285D01*
X174648511Y-51966666D01*
X174696130Y-51871428D01*
X174696130Y-51633333D01*
X174648511Y-51538095D01*
X174600892Y-51490476D01*
%TO.C,D34*%
X174696130Y-30535714D02*
X173696130Y-30535714D01*
X173696130Y-30773809D01*
X173743750Y-30916666D01*
X173838988Y-31011904D01*
X173934226Y-31059523D01*
X174124702Y-31107142D01*
X174267559Y-31107142D01*
X174458035Y-31059523D01*
X174553273Y-31011904D01*
X174648511Y-30916666D01*
X174696130Y-30773809D01*
X174696130Y-30535714D01*
X173696130Y-31440476D02*
X173696130Y-32059523D01*
X174077083Y-31726190D01*
X174077083Y-31869047D01*
X174124702Y-31964285D01*
X174172321Y-32011904D01*
X174267559Y-32059523D01*
X174505654Y-32059523D01*
X174600892Y-32011904D01*
X174648511Y-31964285D01*
X174696130Y-31869047D01*
X174696130Y-31583333D01*
X174648511Y-31488095D01*
X174600892Y-31440476D01*
X174029464Y-32916666D02*
X174696130Y-32916666D01*
X173648511Y-32678571D02*
X174362797Y-32440476D01*
X174362797Y-33059523D01*
%TO.C,D33*%
X165171130Y-106735714D02*
X164171130Y-106735714D01*
X164171130Y-106973809D01*
X164218750Y-107116666D01*
X164313988Y-107211904D01*
X164409226Y-107259523D01*
X164599702Y-107307142D01*
X164742559Y-107307142D01*
X164933035Y-107259523D01*
X165028273Y-107211904D01*
X165123511Y-107116666D01*
X165171130Y-106973809D01*
X165171130Y-106735714D01*
X164171130Y-107640476D02*
X164171130Y-108259523D01*
X164552083Y-107926190D01*
X164552083Y-108069047D01*
X164599702Y-108164285D01*
X164647321Y-108211904D01*
X164742559Y-108259523D01*
X164980654Y-108259523D01*
X165075892Y-108211904D01*
X165123511Y-108164285D01*
X165171130Y-108069047D01*
X165171130Y-107783333D01*
X165123511Y-107688095D01*
X165075892Y-107640476D01*
X164171130Y-108592857D02*
X164171130Y-109211904D01*
X164552083Y-108878571D01*
X164552083Y-109021428D01*
X164599702Y-109116666D01*
X164647321Y-109164285D01*
X164742559Y-109211904D01*
X164980654Y-109211904D01*
X165075892Y-109164285D01*
X165123511Y-109116666D01*
X165171130Y-109021428D01*
X165171130Y-108735714D01*
X165123511Y-108640476D01*
X165075892Y-108592857D01*
%TO.C,D32*%
X155646130Y-87685714D02*
X154646130Y-87685714D01*
X154646130Y-87923809D01*
X154693750Y-88066666D01*
X154788988Y-88161904D01*
X154884226Y-88209523D01*
X155074702Y-88257142D01*
X155217559Y-88257142D01*
X155408035Y-88209523D01*
X155503273Y-88161904D01*
X155598511Y-88066666D01*
X155646130Y-87923809D01*
X155646130Y-87685714D01*
X154646130Y-88590476D02*
X154646130Y-89209523D01*
X155027083Y-88876190D01*
X155027083Y-89019047D01*
X155074702Y-89114285D01*
X155122321Y-89161904D01*
X155217559Y-89209523D01*
X155455654Y-89209523D01*
X155550892Y-89161904D01*
X155598511Y-89114285D01*
X155646130Y-89019047D01*
X155646130Y-88733333D01*
X155598511Y-88638095D01*
X155550892Y-88590476D01*
X154741369Y-89590476D02*
X154693750Y-89638095D01*
X154646130Y-89733333D01*
X154646130Y-89971428D01*
X154693750Y-90066666D01*
X154741369Y-90114285D01*
X154836607Y-90161904D01*
X154931845Y-90161904D01*
X155074702Y-90114285D01*
X155646130Y-89542857D01*
X155646130Y-90161904D01*
%TO.C,D31*%
X155646130Y-68635714D02*
X154646130Y-68635714D01*
X154646130Y-68873809D01*
X154693750Y-69016666D01*
X154788988Y-69111904D01*
X154884226Y-69159523D01*
X155074702Y-69207142D01*
X155217559Y-69207142D01*
X155408035Y-69159523D01*
X155503273Y-69111904D01*
X155598511Y-69016666D01*
X155646130Y-68873809D01*
X155646130Y-68635714D01*
X154646130Y-69540476D02*
X154646130Y-70159523D01*
X155027083Y-69826190D01*
X155027083Y-69969047D01*
X155074702Y-70064285D01*
X155122321Y-70111904D01*
X155217559Y-70159523D01*
X155455654Y-70159523D01*
X155550892Y-70111904D01*
X155598511Y-70064285D01*
X155646130Y-69969047D01*
X155646130Y-69683333D01*
X155598511Y-69588095D01*
X155550892Y-69540476D01*
X155646130Y-71111904D02*
X155646130Y-70540476D01*
X155646130Y-70826190D02*
X154646130Y-70826190D01*
X154788988Y-70730952D01*
X154884226Y-70635714D01*
X154931845Y-70540476D01*
%TO.C,D30*%
X155646130Y-49585714D02*
X154646130Y-49585714D01*
X154646130Y-49823809D01*
X154693750Y-49966666D01*
X154788988Y-50061904D01*
X154884226Y-50109523D01*
X155074702Y-50157142D01*
X155217559Y-50157142D01*
X155408035Y-50109523D01*
X155503273Y-50061904D01*
X155598511Y-49966666D01*
X155646130Y-49823809D01*
X155646130Y-49585714D01*
X154646130Y-50490476D02*
X154646130Y-51109523D01*
X155027083Y-50776190D01*
X155027083Y-50919047D01*
X155074702Y-51014285D01*
X155122321Y-51061904D01*
X155217559Y-51109523D01*
X155455654Y-51109523D01*
X155550892Y-51061904D01*
X155598511Y-51014285D01*
X155646130Y-50919047D01*
X155646130Y-50633333D01*
X155598511Y-50538095D01*
X155550892Y-50490476D01*
X154646130Y-51728571D02*
X154646130Y-51823809D01*
X154693750Y-51919047D01*
X154741369Y-51966666D01*
X154836607Y-52014285D01*
X155027083Y-52061904D01*
X155265178Y-52061904D01*
X155455654Y-52014285D01*
X155550892Y-51966666D01*
X155598511Y-51919047D01*
X155646130Y-51823809D01*
X155646130Y-51728571D01*
X155598511Y-51633333D01*
X155550892Y-51585714D01*
X155455654Y-51538095D01*
X155265178Y-51490476D01*
X155027083Y-51490476D01*
X154836607Y-51538095D01*
X154741369Y-51585714D01*
X154693750Y-51633333D01*
X154646130Y-51728571D01*
%TO.C,D29*%
X155646130Y-30535714D02*
X154646130Y-30535714D01*
X154646130Y-30773809D01*
X154693750Y-30916666D01*
X154788988Y-31011904D01*
X154884226Y-31059523D01*
X155074702Y-31107142D01*
X155217559Y-31107142D01*
X155408035Y-31059523D01*
X155503273Y-31011904D01*
X155598511Y-30916666D01*
X155646130Y-30773809D01*
X155646130Y-30535714D01*
X154741369Y-31488095D02*
X154693750Y-31535714D01*
X154646130Y-31630952D01*
X154646130Y-31869047D01*
X154693750Y-31964285D01*
X154741369Y-32011904D01*
X154836607Y-32059523D01*
X154931845Y-32059523D01*
X155074702Y-32011904D01*
X155646130Y-31440476D01*
X155646130Y-32059523D01*
X155646130Y-32535714D02*
X155646130Y-32726190D01*
X155598511Y-32821428D01*
X155550892Y-32869047D01*
X155408035Y-32964285D01*
X155217559Y-33011904D01*
X154836607Y-33011904D01*
X154741369Y-32964285D01*
X154693750Y-32916666D01*
X154646130Y-32821428D01*
X154646130Y-32630952D01*
X154693750Y-32535714D01*
X154741369Y-32488095D01*
X154836607Y-32440476D01*
X155074702Y-32440476D01*
X155169940Y-32488095D01*
X155217559Y-32535714D01*
X155265178Y-32630952D01*
X155265178Y-32821428D01*
X155217559Y-32916666D01*
X155169940Y-32964285D01*
X155074702Y-33011904D01*
%TO.C,D28*%
X141358630Y-106735714D02*
X140358630Y-106735714D01*
X140358630Y-106973809D01*
X140406250Y-107116666D01*
X140501488Y-107211904D01*
X140596726Y-107259523D01*
X140787202Y-107307142D01*
X140930059Y-107307142D01*
X141120535Y-107259523D01*
X141215773Y-107211904D01*
X141311011Y-107116666D01*
X141358630Y-106973809D01*
X141358630Y-106735714D01*
X140453869Y-107688095D02*
X140406250Y-107735714D01*
X140358630Y-107830952D01*
X140358630Y-108069047D01*
X140406250Y-108164285D01*
X140453869Y-108211904D01*
X140549107Y-108259523D01*
X140644345Y-108259523D01*
X140787202Y-108211904D01*
X141358630Y-107640476D01*
X141358630Y-108259523D01*
X140787202Y-108830952D02*
X140739583Y-108735714D01*
X140691964Y-108688095D01*
X140596726Y-108640476D01*
X140549107Y-108640476D01*
X140453869Y-108688095D01*
X140406250Y-108735714D01*
X140358630Y-108830952D01*
X140358630Y-109021428D01*
X140406250Y-109116666D01*
X140453869Y-109164285D01*
X140549107Y-109211904D01*
X140596726Y-109211904D01*
X140691964Y-109164285D01*
X140739583Y-109116666D01*
X140787202Y-109021428D01*
X140787202Y-108830952D01*
X140834821Y-108735714D01*
X140882440Y-108688095D01*
X140977678Y-108640476D01*
X141168154Y-108640476D01*
X141263392Y-108688095D01*
X141311011Y-108735714D01*
X141358630Y-108830952D01*
X141358630Y-109021428D01*
X141311011Y-109116666D01*
X141263392Y-109164285D01*
X141168154Y-109211904D01*
X140977678Y-109211904D01*
X140882440Y-109164285D01*
X140834821Y-109116666D01*
X140787202Y-109021428D01*
%TO.C,D27*%
X127420535Y-98496130D02*
X127420535Y-97496130D01*
X127182440Y-97496130D01*
X127039583Y-97543750D01*
X126944345Y-97638988D01*
X126896726Y-97734226D01*
X126849107Y-97924702D01*
X126849107Y-98067559D01*
X126896726Y-98258035D01*
X126944345Y-98353273D01*
X127039583Y-98448511D01*
X127182440Y-98496130D01*
X127420535Y-98496130D01*
X126468154Y-97591369D02*
X126420535Y-97543750D01*
X126325297Y-97496130D01*
X126087202Y-97496130D01*
X125991964Y-97543750D01*
X125944345Y-97591369D01*
X125896726Y-97686607D01*
X125896726Y-97781845D01*
X125944345Y-97924702D01*
X126515773Y-98496130D01*
X125896726Y-98496130D01*
X125563392Y-97496130D02*
X124896726Y-97496130D01*
X125325297Y-98496130D01*
%TO.C,D26*%
X127420535Y-79446130D02*
X127420535Y-78446130D01*
X127182440Y-78446130D01*
X127039583Y-78493750D01*
X126944345Y-78588988D01*
X126896726Y-78684226D01*
X126849107Y-78874702D01*
X126849107Y-79017559D01*
X126896726Y-79208035D01*
X126944345Y-79303273D01*
X127039583Y-79398511D01*
X127182440Y-79446130D01*
X127420535Y-79446130D01*
X126468154Y-78541369D02*
X126420535Y-78493750D01*
X126325297Y-78446130D01*
X126087202Y-78446130D01*
X125991964Y-78493750D01*
X125944345Y-78541369D01*
X125896726Y-78636607D01*
X125896726Y-78731845D01*
X125944345Y-78874702D01*
X126515773Y-79446130D01*
X125896726Y-79446130D01*
X125039583Y-78446130D02*
X125230059Y-78446130D01*
X125325297Y-78493750D01*
X125372916Y-78541369D01*
X125468154Y-78684226D01*
X125515773Y-78874702D01*
X125515773Y-79255654D01*
X125468154Y-79350892D01*
X125420535Y-79398511D01*
X125325297Y-79446130D01*
X125134821Y-79446130D01*
X125039583Y-79398511D01*
X124991964Y-79350892D01*
X124944345Y-79255654D01*
X124944345Y-79017559D01*
X124991964Y-78922321D01*
X125039583Y-78874702D01*
X125134821Y-78827083D01*
X125325297Y-78827083D01*
X125420535Y-78874702D01*
X125468154Y-78922321D01*
X125515773Y-79017559D01*
%TO.C,D25*%
X127420535Y-60396130D02*
X127420535Y-59396130D01*
X127182440Y-59396130D01*
X127039583Y-59443750D01*
X126944345Y-59538988D01*
X126896726Y-59634226D01*
X126849107Y-59824702D01*
X126849107Y-59967559D01*
X126896726Y-60158035D01*
X126944345Y-60253273D01*
X127039583Y-60348511D01*
X127182440Y-60396130D01*
X127420535Y-60396130D01*
X126468154Y-59491369D02*
X126420535Y-59443750D01*
X126325297Y-59396130D01*
X126087202Y-59396130D01*
X125991964Y-59443750D01*
X125944345Y-59491369D01*
X125896726Y-59586607D01*
X125896726Y-59681845D01*
X125944345Y-59824702D01*
X126515773Y-60396130D01*
X125896726Y-60396130D01*
X124991964Y-59396130D02*
X125468154Y-59396130D01*
X125515773Y-59872321D01*
X125468154Y-59824702D01*
X125372916Y-59777083D01*
X125134821Y-59777083D01*
X125039583Y-59824702D01*
X124991964Y-59872321D01*
X124944345Y-59967559D01*
X124944345Y-60205654D01*
X124991964Y-60300892D01*
X125039583Y-60348511D01*
X125134821Y-60396130D01*
X125372916Y-60396130D01*
X125468154Y-60348511D01*
X125515773Y-60300892D01*
%TO.C,D24*%
X127420535Y-41346130D02*
X127420535Y-40346130D01*
X127182440Y-40346130D01*
X127039583Y-40393750D01*
X126944345Y-40488988D01*
X126896726Y-40584226D01*
X126849107Y-40774702D01*
X126849107Y-40917559D01*
X126896726Y-41108035D01*
X126944345Y-41203273D01*
X127039583Y-41298511D01*
X127182440Y-41346130D01*
X127420535Y-41346130D01*
X126468154Y-40441369D02*
X126420535Y-40393750D01*
X126325297Y-40346130D01*
X126087202Y-40346130D01*
X125991964Y-40393750D01*
X125944345Y-40441369D01*
X125896726Y-40536607D01*
X125896726Y-40631845D01*
X125944345Y-40774702D01*
X126515773Y-41346130D01*
X125896726Y-41346130D01*
X125039583Y-40679464D02*
X125039583Y-41346130D01*
X125277678Y-40298511D02*
X125515773Y-41012797D01*
X124896726Y-41012797D01*
%TO.C,C8*%
X186348666Y-95832142D02*
X186396285Y-95879761D01*
X186539142Y-95927380D01*
X186634380Y-95927380D01*
X186777238Y-95879761D01*
X186872476Y-95784523D01*
X186920095Y-95689285D01*
X186967714Y-95498809D01*
X186967714Y-95355952D01*
X186920095Y-95165476D01*
X186872476Y-95070238D01*
X186777238Y-94975000D01*
X186634380Y-94927380D01*
X186539142Y-94927380D01*
X186396285Y-94975000D01*
X186348666Y-95022619D01*
X185777238Y-95355952D02*
X185872476Y-95308333D01*
X185920095Y-95260714D01*
X185967714Y-95165476D01*
X185967714Y-95117857D01*
X185920095Y-95022619D01*
X185872476Y-94975000D01*
X185777238Y-94927380D01*
X185586761Y-94927380D01*
X185491523Y-94975000D01*
X185443904Y-95022619D01*
X185396285Y-95117857D01*
X185396285Y-95165476D01*
X185443904Y-95260714D01*
X185491523Y-95308333D01*
X185586761Y-95355952D01*
X185777238Y-95355952D01*
X185872476Y-95403571D01*
X185920095Y-95451190D01*
X185967714Y-95546428D01*
X185967714Y-95736904D01*
X185920095Y-95832142D01*
X185872476Y-95879761D01*
X185777238Y-95927380D01*
X185586761Y-95927380D01*
X185491523Y-95879761D01*
X185443904Y-95832142D01*
X185396285Y-95736904D01*
X185396285Y-95546428D01*
X185443904Y-95451190D01*
X185491523Y-95403571D01*
X185586761Y-95355952D01*
%TO.C,C7*%
X186822142Y-109180333D02*
X186869761Y-109132714D01*
X186917380Y-108989857D01*
X186917380Y-108894619D01*
X186869761Y-108751761D01*
X186774523Y-108656523D01*
X186679285Y-108608904D01*
X186488809Y-108561285D01*
X186345952Y-108561285D01*
X186155476Y-108608904D01*
X186060238Y-108656523D01*
X185965000Y-108751761D01*
X185917380Y-108894619D01*
X185917380Y-108989857D01*
X185965000Y-109132714D01*
X186012619Y-109180333D01*
X185917380Y-109513666D02*
X185917380Y-110180333D01*
X186917380Y-109751761D01*
%TO.C,C6*%
X201623142Y-100163333D02*
X201670761Y-100115714D01*
X201718380Y-99972857D01*
X201718380Y-99877619D01*
X201670761Y-99734761D01*
X201575523Y-99639523D01*
X201480285Y-99591904D01*
X201289809Y-99544285D01*
X201146952Y-99544285D01*
X200956476Y-99591904D01*
X200861238Y-99639523D01*
X200766000Y-99734761D01*
X200718380Y-99877619D01*
X200718380Y-99972857D01*
X200766000Y-100115714D01*
X200813619Y-100163333D01*
X200718380Y-101020476D02*
X200718380Y-100830000D01*
X200766000Y-100734761D01*
X200813619Y-100687142D01*
X200956476Y-100591904D01*
X201146952Y-100544285D01*
X201527904Y-100544285D01*
X201623142Y-100591904D01*
X201670761Y-100639523D01*
X201718380Y-100734761D01*
X201718380Y-100925238D01*
X201670761Y-101020476D01*
X201623142Y-101068095D01*
X201527904Y-101115714D01*
X201289809Y-101115714D01*
X201194571Y-101068095D01*
X201146952Y-101020476D01*
X201099333Y-100925238D01*
X201099333Y-100734761D01*
X201146952Y-100639523D01*
X201194571Y-100591904D01*
X201289809Y-100544285D01*
%TO.C,C5*%
X195492666Y-95705142D02*
X195540285Y-95752761D01*
X195683142Y-95800380D01*
X195778380Y-95800380D01*
X195921238Y-95752761D01*
X196016476Y-95657523D01*
X196064095Y-95562285D01*
X196111714Y-95371809D01*
X196111714Y-95228952D01*
X196064095Y-95038476D01*
X196016476Y-94943238D01*
X195921238Y-94848000D01*
X195778380Y-94800380D01*
X195683142Y-94800380D01*
X195540285Y-94848000D01*
X195492666Y-94895619D01*
X194587904Y-94800380D02*
X195064095Y-94800380D01*
X195111714Y-95276571D01*
X195064095Y-95228952D01*
X194968857Y-95181333D01*
X194730761Y-95181333D01*
X194635523Y-95228952D01*
X194587904Y-95276571D01*
X194540285Y-95371809D01*
X194540285Y-95609904D01*
X194587904Y-95705142D01*
X194635523Y-95752761D01*
X194730761Y-95800380D01*
X194968857Y-95800380D01*
X195064095Y-95752761D01*
X195111714Y-95705142D01*
%TO.C,C4*%
X195492666Y-96906142D02*
X195540285Y-96953761D01*
X195683142Y-97001380D01*
X195778380Y-97001380D01*
X195921238Y-96953761D01*
X196016476Y-96858523D01*
X196064095Y-96763285D01*
X196111714Y-96572809D01*
X196111714Y-96429952D01*
X196064095Y-96239476D01*
X196016476Y-96144238D01*
X195921238Y-96049000D01*
X195778380Y-96001380D01*
X195683142Y-96001380D01*
X195540285Y-96049000D01*
X195492666Y-96096619D01*
X194635523Y-96334714D02*
X194635523Y-97001380D01*
X194873619Y-95953761D02*
X195111714Y-96668047D01*
X194492666Y-96668047D01*
%TO.C,C3*%
X198413666Y-114940142D02*
X198461285Y-114987761D01*
X198604142Y-115035380D01*
X198699380Y-115035380D01*
X198842238Y-114987761D01*
X198937476Y-114892523D01*
X198985095Y-114797285D01*
X199032714Y-114606809D01*
X199032714Y-114463952D01*
X198985095Y-114273476D01*
X198937476Y-114178238D01*
X198842238Y-114083000D01*
X198699380Y-114035380D01*
X198604142Y-114035380D01*
X198461285Y-114083000D01*
X198413666Y-114130619D01*
X198080333Y-114035380D02*
X197461285Y-114035380D01*
X197794619Y-114416333D01*
X197651761Y-114416333D01*
X197556523Y-114463952D01*
X197508904Y-114511571D01*
X197461285Y-114606809D01*
X197461285Y-114844904D01*
X197508904Y-114940142D01*
X197556523Y-114987761D01*
X197651761Y-115035380D01*
X197937476Y-115035380D01*
X198032714Y-114987761D01*
X198080333Y-114940142D01*
%TO.C,C2*%
X208700666Y-105796142D02*
X208748285Y-105843761D01*
X208891142Y-105891380D01*
X208986380Y-105891380D01*
X209129238Y-105843761D01*
X209224476Y-105748523D01*
X209272095Y-105653285D01*
X209319714Y-105462809D01*
X209319714Y-105319952D01*
X209272095Y-105129476D01*
X209224476Y-105034238D01*
X209129238Y-104939000D01*
X208986380Y-104891380D01*
X208891142Y-104891380D01*
X208748285Y-104939000D01*
X208700666Y-104986619D01*
X208319714Y-104986619D02*
X208272095Y-104939000D01*
X208176857Y-104891380D01*
X207938761Y-104891380D01*
X207843523Y-104939000D01*
X207795904Y-104986619D01*
X207748285Y-105081857D01*
X207748285Y-105177095D01*
X207795904Y-105319952D01*
X208367333Y-105891380D01*
X207748285Y-105891380D01*
%TO.C,C1*%
X208700666Y-108717142D02*
X208748285Y-108764761D01*
X208891142Y-108812380D01*
X208986380Y-108812380D01*
X209129238Y-108764761D01*
X209224476Y-108669523D01*
X209272095Y-108574285D01*
X209319714Y-108383809D01*
X209319714Y-108240952D01*
X209272095Y-108050476D01*
X209224476Y-107955238D01*
X209129238Y-107860000D01*
X208986380Y-107812380D01*
X208891142Y-107812380D01*
X208748285Y-107860000D01*
X208700666Y-107907619D01*
X207748285Y-108812380D02*
X208319714Y-108812380D01*
X208034000Y-108812380D02*
X208034000Y-107812380D01*
X208129238Y-107955238D01*
X208224476Y-108050476D01*
X208319714Y-108098095D01*
%TD*%
%LPC*%
D13*
%TO.C,MX25*%
X131286250Y-50006250D03*
X121126250Y-50006250D03*
D14*
X123706250Y-46006250D03*
D15*
X126206250Y-50006250D03*
G36*
G01*
X121644938Y-48303600D02*
X121644933Y-48303595D01*
G75*
G02*
X121558905Y-46714933I751317J837345D01*
G01*
X122868907Y-45254933D01*
G75*
G02*
X124457569Y-45168905I837345J-751317D01*
G01*
X124457569Y-45168905D01*
G75*
G02*
X124543597Y-46757567I-751317J-837345D01*
G01*
X123233595Y-48217567D01*
G75*
G02*
X121644933Y-48303595I-837345J751317D01*
G01*
G37*
D14*
X128746250Y-44926250D03*
G36*
G01*
X128629733Y-46628645D02*
X128628847Y-46628584D01*
G75*
G02*
X127583916Y-45428847I77403J1122334D01*
G01*
X127623916Y-44848847D01*
G75*
G02*
X128823653Y-43803916I1122334J-77403D01*
G01*
X128823653Y-43803916D01*
G75*
G02*
X129868584Y-45003653I-77403J-1122334D01*
G01*
X129828584Y-45583653D01*
G75*
G02*
X128628847Y-46628584I-1122334J77403D01*
G01*
G37*
%TD*%
D13*
%TO.C,MX26*%
X131286250Y-69056250D03*
X121126250Y-69056250D03*
D14*
X123706250Y-65056250D03*
D15*
X126206250Y-69056250D03*
G36*
G01*
X121644938Y-67353600D02*
X121644933Y-67353595D01*
G75*
G02*
X121558905Y-65764933I751317J837345D01*
G01*
X122868907Y-64304933D01*
G75*
G02*
X124457569Y-64218905I837345J-751317D01*
G01*
X124457569Y-64218905D01*
G75*
G02*
X124543597Y-65807567I-751317J-837345D01*
G01*
X123233595Y-67267567D01*
G75*
G02*
X121644933Y-67353595I-837345J751317D01*
G01*
G37*
D14*
X128746250Y-63976250D03*
G36*
G01*
X128629733Y-65678645D02*
X128628847Y-65678584D01*
G75*
G02*
X127583916Y-64478847I77403J1122334D01*
G01*
X127623916Y-63898847D01*
G75*
G02*
X128823653Y-62853916I1122334J-77403D01*
G01*
X128823653Y-62853916D01*
G75*
G02*
X129868584Y-64053653I-77403J-1122334D01*
G01*
X129828584Y-64633653D01*
G75*
G02*
X128628847Y-65678584I-1122334J77403D01*
G01*
G37*
%TD*%
%TO.C,M2*%
G36*
G01*
X118418300Y-102685850D02*
X118418300Y-103562150D01*
G75*
G02*
X117980150Y-104000300I-438150J0D01*
G01*
X117103850Y-104000300D01*
G75*
G02*
X116665700Y-103562150I0J438150D01*
G01*
X116665700Y-102685850D01*
G75*
G02*
X117103850Y-102247700I438150J0D01*
G01*
X117980150Y-102247700D01*
G75*
G02*
X118418300Y-102685850I0J-438150D01*
G01*
G37*
G36*
G01*
X118418300Y-104717850D02*
X118418300Y-105594150D01*
G75*
G02*
X117980150Y-106032300I-438150J0D01*
G01*
X117103850Y-106032300D01*
G75*
G02*
X116665700Y-105594150I0J438150D01*
G01*
X116665700Y-104717850D01*
G75*
G02*
X117103850Y-104279700I438150J0D01*
G01*
X117980150Y-104279700D01*
G75*
G02*
X118418300Y-104717850I0J-438150D01*
G01*
G37*
G36*
G01*
X118418300Y-106749850D02*
X118418300Y-107626150D01*
G75*
G02*
X117980150Y-108064300I-438150J0D01*
G01*
X117103850Y-108064300D01*
G75*
G02*
X116665700Y-107626150I0J438150D01*
G01*
X116665700Y-106749850D01*
G75*
G02*
X117103850Y-106311700I438150J0D01*
G01*
X117980150Y-106311700D01*
G75*
G02*
X118418300Y-106749850I0J-438150D01*
G01*
G37*
G36*
G01*
X118418300Y-108781850D02*
X118418300Y-109658150D01*
G75*
G02*
X117980150Y-110096300I-438150J0D01*
G01*
X117103850Y-110096300D01*
G75*
G02*
X116665700Y-109658150I0J438150D01*
G01*
X116665700Y-108781850D01*
G75*
G02*
X117103850Y-108343700I438150J0D01*
G01*
X117980150Y-108343700D01*
G75*
G02*
X118418300Y-108781850I0J-438150D01*
G01*
G37*
G36*
G01*
X118418300Y-110813850D02*
X118418300Y-111690150D01*
G75*
G02*
X117980150Y-112128300I-438150J0D01*
G01*
X117103850Y-112128300D01*
G75*
G02*
X116665700Y-111690150I0J438150D01*
G01*
X116665700Y-110813850D01*
G75*
G02*
X117103850Y-110375700I438150J0D01*
G01*
X117980150Y-110375700D01*
G75*
G02*
X118418300Y-110813850I0J-438150D01*
G01*
G37*
%TD*%
%TO.C,M1*%
G36*
G01*
X116663700Y-35490150D02*
X116663700Y-34613850D01*
G75*
G02*
X117101850Y-34175700I438150J0D01*
G01*
X117978150Y-34175700D01*
G75*
G02*
X118416300Y-34613850I0J-438150D01*
G01*
X118416300Y-35490150D01*
G75*
G02*
X117978150Y-35928300I-438150J0D01*
G01*
X117101850Y-35928300D01*
G75*
G02*
X116663700Y-35490150I0J438150D01*
G01*
G37*
G36*
G01*
X116663700Y-33458150D02*
X116663700Y-32581850D01*
G75*
G02*
X117101850Y-32143700I438150J0D01*
G01*
X117978150Y-32143700D01*
G75*
G02*
X118416300Y-32581850I0J-438150D01*
G01*
X118416300Y-33458150D01*
G75*
G02*
X117978150Y-33896300I-438150J0D01*
G01*
X117101850Y-33896300D01*
G75*
G02*
X116663700Y-33458150I0J438150D01*
G01*
G37*
G36*
G01*
X116663700Y-31426150D02*
X116663700Y-30549850D01*
G75*
G02*
X117101850Y-30111700I438150J0D01*
G01*
X117978150Y-30111700D01*
G75*
G02*
X118416300Y-30549850I0J-438150D01*
G01*
X118416300Y-31426150D01*
G75*
G02*
X117978150Y-31864300I-438150J0D01*
G01*
X117101850Y-31864300D01*
G75*
G02*
X116663700Y-31426150I0J438150D01*
G01*
G37*
G36*
G01*
X116663700Y-29394150D02*
X116663700Y-28517850D01*
G75*
G02*
X117101850Y-28079700I438150J0D01*
G01*
X117978150Y-28079700D01*
G75*
G02*
X118416300Y-28517850I0J-438150D01*
G01*
X118416300Y-29394150D01*
G75*
G02*
X117978150Y-29832300I-438150J0D01*
G01*
X117101850Y-29832300D01*
G75*
G02*
X116663700Y-29394150I0J438150D01*
G01*
G37*
G36*
G01*
X116663700Y-27362150D02*
X116663700Y-26485850D01*
G75*
G02*
X117101850Y-26047700I438150J0D01*
G01*
X117978150Y-26047700D01*
G75*
G02*
X118416300Y-26485850I0J-438150D01*
G01*
X118416300Y-27362150D01*
G75*
G02*
X117978150Y-27800300I-438150J0D01*
G01*
X117101850Y-27800300D01*
G75*
G02*
X116663700Y-27362150I0J438150D01*
G01*
G37*
%TD*%
D13*
%TO.C,MX24*%
X131286250Y-30956250D03*
X121126250Y-30956250D03*
D14*
X123706250Y-26956250D03*
D15*
X126206250Y-30956250D03*
G36*
G01*
X121644938Y-29253600D02*
X121644933Y-29253595D01*
G75*
G02*
X121558905Y-27664933I751317J837345D01*
G01*
X122868907Y-26204933D01*
G75*
G02*
X124457569Y-26118905I837345J-751317D01*
G01*
X124457569Y-26118905D01*
G75*
G02*
X124543597Y-27707567I-751317J-837345D01*
G01*
X123233595Y-29167567D01*
G75*
G02*
X121644933Y-29253595I-837345J751317D01*
G01*
G37*
D14*
X128746250Y-25876250D03*
G36*
G01*
X128629733Y-27578645D02*
X128628847Y-27578584D01*
G75*
G02*
X127583916Y-26378847I77403J1122334D01*
G01*
X127623916Y-25798847D01*
G75*
G02*
X128823653Y-24753916I1122334J-77403D01*
G01*
X128823653Y-24753916D01*
G75*
G02*
X129868584Y-25953653I-77403J-1122334D01*
G01*
X129828584Y-26533653D01*
G75*
G02*
X128628847Y-27578584I-1122334J77403D01*
G01*
G37*
%TD*%
%TO.C,FB1*%
G36*
G01*
X142670000Y-22282999D02*
X142670000Y-23183001D01*
G75*
G02*
X142420001Y-23433000I-249999J0D01*
G01*
X141769999Y-23433000D01*
G75*
G02*
X141520000Y-23183001I0J249999D01*
G01*
X141520000Y-22282999D01*
G75*
G02*
X141769999Y-22033000I249999J0D01*
G01*
X142420001Y-22033000D01*
G75*
G02*
X142670000Y-22282999I0J-249999D01*
G01*
G37*
G36*
G01*
X144720000Y-22282999D02*
X144720000Y-23183001D01*
G75*
G02*
X144470001Y-23433000I-249999J0D01*
G01*
X143819999Y-23433000D01*
G75*
G02*
X143570000Y-23183001I0J249999D01*
G01*
X143570000Y-22282999D01*
G75*
G02*
X143819999Y-22033000I249999J0D01*
G01*
X144470001Y-22033000D01*
G75*
G02*
X144720000Y-22282999I0J-249999D01*
G01*
G37*
%TD*%
D13*
%TO.C,MX46*%
X207486250Y-88106250D03*
X197326250Y-88106250D03*
D14*
X199906250Y-84106250D03*
D15*
X202406250Y-88106250D03*
G36*
G01*
X197844938Y-86403600D02*
X197844933Y-86403595D01*
G75*
G02*
X197758905Y-84814933I751317J837345D01*
G01*
X199068907Y-83354933D01*
G75*
G02*
X200657569Y-83268905I837345J-751317D01*
G01*
X200657569Y-83268905D01*
G75*
G02*
X200743597Y-84857567I-751317J-837345D01*
G01*
X199433595Y-86317567D01*
G75*
G02*
X197844933Y-86403595I-837345J751317D01*
G01*
G37*
D14*
X204946250Y-83026250D03*
G36*
G01*
X204829733Y-84728645D02*
X204828847Y-84728584D01*
G75*
G02*
X203783916Y-83528847I77403J1122334D01*
G01*
X203823916Y-82948847D01*
G75*
G02*
X205023653Y-81903916I1122334J-77403D01*
G01*
X205023653Y-81903916D01*
G75*
G02*
X206068584Y-83103653I-77403J-1122334D01*
G01*
X206028584Y-83683653D01*
G75*
G02*
X204828847Y-84728584I-1122334J77403D01*
G01*
G37*
%TD*%
D13*
%TO.C,MX42*%
X188436250Y-88106250D03*
X178276250Y-88106250D03*
D14*
X180856250Y-84106250D03*
D15*
X183356250Y-88106250D03*
G36*
G01*
X178794938Y-86403600D02*
X178794933Y-86403595D01*
G75*
G02*
X178708905Y-84814933I751317J837345D01*
G01*
X180018907Y-83354933D01*
G75*
G02*
X181607569Y-83268905I837345J-751317D01*
G01*
X181607569Y-83268905D01*
G75*
G02*
X181693597Y-84857567I-751317J-837345D01*
G01*
X180383595Y-86317567D01*
G75*
G02*
X178794933Y-86403595I-837345J751317D01*
G01*
G37*
D14*
X185896250Y-83026250D03*
G36*
G01*
X185779733Y-84728645D02*
X185778847Y-84728584D01*
G75*
G02*
X184733916Y-83528847I77403J1122334D01*
G01*
X184773916Y-82948847D01*
G75*
G02*
X185973653Y-81903916I1122334J-77403D01*
G01*
X185973653Y-81903916D01*
G75*
G02*
X187018584Y-83103653I-77403J-1122334D01*
G01*
X186978584Y-83683653D01*
G75*
G02*
X185778847Y-84728584I-1122334J77403D01*
G01*
G37*
%TD*%
D13*
%TO.C,MX39*%
X188436250Y-30956250D03*
X178276250Y-30956250D03*
D14*
X180856250Y-26956250D03*
D15*
X183356250Y-30956250D03*
G36*
G01*
X178794938Y-29253600D02*
X178794933Y-29253595D01*
G75*
G02*
X178708905Y-27664933I751317J837345D01*
G01*
X180018907Y-26204933D01*
G75*
G02*
X181607569Y-26118905I837345J-751317D01*
G01*
X181607569Y-26118905D01*
G75*
G02*
X181693597Y-27707567I-751317J-837345D01*
G01*
X180383595Y-29167567D01*
G75*
G02*
X178794933Y-29253595I-837345J751317D01*
G01*
G37*
D14*
X185896250Y-25876250D03*
G36*
G01*
X185779733Y-27578645D02*
X185778847Y-27578584D01*
G75*
G02*
X184733916Y-26378847I77403J1122334D01*
G01*
X184773916Y-25798847D01*
G75*
G02*
X185973653Y-24753916I1122334J-77403D01*
G01*
X185973653Y-24753916D01*
G75*
G02*
X187018584Y-25953653I-77403J-1122334D01*
G01*
X186978584Y-26533653D01*
G75*
G02*
X185778847Y-27578584I-1122334J77403D01*
G01*
G37*
%TD*%
D16*
%TO.C,Y1*%
X203066000Y-106606000D03*
X203066000Y-103706000D03*
X205366000Y-103706000D03*
X205366000Y-106606000D03*
%TD*%
D17*
%TO.C,USB1*%
X138956250Y-26021250D03*
X132506250Y-26021250D03*
X138181250Y-26021250D03*
X133281250Y-26021250D03*
D18*
X133981250Y-26021250D03*
X137481250Y-26021250D03*
X134481250Y-26021250D03*
X136981250Y-26021250D03*
X134981250Y-26021250D03*
X136481250Y-26021250D03*
X135981250Y-26021250D03*
X135481250Y-26021250D03*
D19*
X138621250Y-24076250D03*
X132841250Y-24076250D03*
%TD*%
D20*
%TO.C,U2*%
X136763250Y-42225000D03*
X138763250Y-42225000D03*
X136763250Y-40325000D03*
D21*
X138763250Y-40525000D03*
%TD*%
D22*
%TO.C,U1*%
X188659000Y-99329000D03*
X189459000Y-99329000D03*
X190259000Y-99329000D03*
X191059000Y-99329000D03*
X191859000Y-99329000D03*
X192659000Y-99329000D03*
X193459000Y-99329000D03*
X194259000Y-99329000D03*
X195059000Y-99329000D03*
X195859000Y-99329000D03*
X196659000Y-99329000D03*
D23*
X198359000Y-101029000D03*
X198359000Y-101829000D03*
X198359000Y-102629000D03*
X198359000Y-103429000D03*
X198359000Y-104229000D03*
X198359000Y-105029000D03*
X198359000Y-105829000D03*
X198359000Y-106629000D03*
X198359000Y-107429000D03*
X198359000Y-108229000D03*
X198359000Y-109029000D03*
D22*
X196659000Y-110729000D03*
X195859000Y-110729000D03*
X195059000Y-110729000D03*
X194259000Y-110729000D03*
X193459000Y-110729000D03*
X192659000Y-110729000D03*
X191859000Y-110729000D03*
X191059000Y-110729000D03*
X190259000Y-110729000D03*
X189459000Y-110729000D03*
X188659000Y-110729000D03*
D23*
X186959000Y-109029000D03*
X186959000Y-108229000D03*
X186959000Y-107429000D03*
X186959000Y-106629000D03*
X186959000Y-105829000D03*
X186959000Y-105029000D03*
X186959000Y-104229000D03*
X186959000Y-103429000D03*
X186959000Y-102629000D03*
X186959000Y-101829000D03*
X186959000Y-101029000D03*
%TD*%
D24*
%TO.C,SW1*%
X210237000Y-92765000D03*
X204037000Y-92765000D03*
X210237000Y-96465000D03*
X204037000Y-96465000D03*
%TD*%
%TO.C,R6*%
G36*
G01*
X192157001Y-97358000D02*
X191256999Y-97358000D01*
G75*
G02*
X191007000Y-97108001I0J249999D01*
G01*
X191007000Y-96407999D01*
G75*
G02*
X191256999Y-96158000I249999J0D01*
G01*
X192157001Y-96158000D01*
G75*
G02*
X192407000Y-96407999I0J-249999D01*
G01*
X192407000Y-97108001D01*
G75*
G02*
X192157001Y-97358000I-249999J0D01*
G01*
G37*
G36*
G01*
X192157001Y-95358000D02*
X191256999Y-95358000D01*
G75*
G02*
X191007000Y-95108001I0J249999D01*
G01*
X191007000Y-94407999D01*
G75*
G02*
X191256999Y-94158000I249999J0D01*
G01*
X192157001Y-94158000D01*
G75*
G02*
X192407000Y-94407999I0J-249999D01*
G01*
X192407000Y-95108001D01*
G75*
G02*
X192157001Y-95358000I-249999J0D01*
G01*
G37*
%TD*%
%TO.C,R5*%
G36*
G01*
X190061001Y-97358000D02*
X189160999Y-97358000D01*
G75*
G02*
X188911000Y-97108001I0J249999D01*
G01*
X188911000Y-96407999D01*
G75*
G02*
X189160999Y-96158000I249999J0D01*
G01*
X190061001Y-96158000D01*
G75*
G02*
X190311000Y-96407999I0J-249999D01*
G01*
X190311000Y-97108001D01*
G75*
G02*
X190061001Y-97358000I-249999J0D01*
G01*
G37*
G36*
G01*
X190061001Y-95358000D02*
X189160999Y-95358000D01*
G75*
G02*
X188911000Y-95108001I0J249999D01*
G01*
X188911000Y-94407999D01*
G75*
G02*
X189160999Y-94158000I249999J0D01*
G01*
X190061001Y-94158000D01*
G75*
G02*
X190311000Y-94407999I0J-249999D01*
G01*
X190311000Y-95108001D01*
G75*
G02*
X190061001Y-95358000I-249999J0D01*
G01*
G37*
%TD*%
%TO.C,R4*%
G36*
G01*
X132950000Y-37395999D02*
X132950000Y-38296001D01*
G75*
G02*
X132700001Y-38546000I-249999J0D01*
G01*
X131999999Y-38546000D01*
G75*
G02*
X131750000Y-38296001I0J249999D01*
G01*
X131750000Y-37395999D01*
G75*
G02*
X131999999Y-37146000I249999J0D01*
G01*
X132700001Y-37146000D01*
G75*
G02*
X132950000Y-37395999I0J-249999D01*
G01*
G37*
G36*
G01*
X134950000Y-37395999D02*
X134950000Y-38296001D01*
G75*
G02*
X134700001Y-38546000I-249999J0D01*
G01*
X133999999Y-38546000D01*
G75*
G02*
X133750000Y-38296001I0J249999D01*
G01*
X133750000Y-37395999D01*
G75*
G02*
X133999999Y-37146000I249999J0D01*
G01*
X134700001Y-37146000D01*
G75*
G02*
X134950000Y-37395999I0J-249999D01*
G01*
G37*
%TD*%
%TO.C,R3*%
G36*
G01*
X141894000Y-39439001D02*
X141894000Y-38538999D01*
G75*
G02*
X142143999Y-38289000I249999J0D01*
G01*
X142844001Y-38289000D01*
G75*
G02*
X143094000Y-38538999I0J-249999D01*
G01*
X143094000Y-39439001D01*
G75*
G02*
X142844001Y-39689000I-249999J0D01*
G01*
X142143999Y-39689000D01*
G75*
G02*
X141894000Y-39439001I0J249999D01*
G01*
G37*
G36*
G01*
X139894000Y-39439001D02*
X139894000Y-38538999D01*
G75*
G02*
X140143999Y-38289000I249999J0D01*
G01*
X140844001Y-38289000D01*
G75*
G02*
X141094000Y-38538999I0J-249999D01*
G01*
X141094000Y-39439001D01*
G75*
G02*
X140844001Y-39689000I-249999J0D01*
G01*
X140143999Y-39689000D01*
G75*
G02*
X139894000Y-39439001I0J249999D01*
G01*
G37*
%TD*%
%TO.C,R2*%
G36*
G01*
X179248000Y-111448001D02*
X179248000Y-110547999D01*
G75*
G02*
X179497999Y-110298000I249999J0D01*
G01*
X180198001Y-110298000D01*
G75*
G02*
X180448000Y-110547999I0J-249999D01*
G01*
X180448000Y-111448001D01*
G75*
G02*
X180198001Y-111698000I-249999J0D01*
G01*
X179497999Y-111698000D01*
G75*
G02*
X179248000Y-111448001I0J249999D01*
G01*
G37*
G36*
G01*
X181248000Y-111448001D02*
X181248000Y-110547999D01*
G75*
G02*
X181497999Y-110298000I249999J0D01*
G01*
X182198001Y-110298000D01*
G75*
G02*
X182448000Y-110547999I0J-249999D01*
G01*
X182448000Y-111448001D01*
G75*
G02*
X182198001Y-111698000I-249999J0D01*
G01*
X181497999Y-111698000D01*
G75*
G02*
X181248000Y-111448001I0J249999D01*
G01*
G37*
%TD*%
%TO.C,R1*%
G36*
G01*
X201498000Y-96831999D02*
X201498000Y-97732001D01*
G75*
G02*
X201248001Y-97982000I-249999J0D01*
G01*
X200547999Y-97982000D01*
G75*
G02*
X200298000Y-97732001I0J249999D01*
G01*
X200298000Y-96831999D01*
G75*
G02*
X200547999Y-96582000I249999J0D01*
G01*
X201248001Y-96582000D01*
G75*
G02*
X201498000Y-96831999I0J-249999D01*
G01*
G37*
G36*
G01*
X199498000Y-96831999D02*
X199498000Y-97732001D01*
G75*
G02*
X199248001Y-97982000I-249999J0D01*
G01*
X198547999Y-97982000D01*
G75*
G02*
X198298000Y-97732001I0J249999D01*
G01*
X198298000Y-96831999D01*
G75*
G02*
X198547999Y-96582000I249999J0D01*
G01*
X199248001Y-96582000D01*
G75*
G02*
X199498000Y-96831999I0J-249999D01*
G01*
G37*
%TD*%
D13*
%TO.C,MX45*%
X207486250Y-69056250D03*
X197326250Y-69056250D03*
D14*
X199906250Y-65056250D03*
D15*
X202406250Y-69056250D03*
G36*
G01*
X197844938Y-67353600D02*
X197844933Y-67353595D01*
G75*
G02*
X197758905Y-65764933I751317J837345D01*
G01*
X199068907Y-64304933D01*
G75*
G02*
X200657569Y-64218905I837345J-751317D01*
G01*
X200657569Y-64218905D01*
G75*
G02*
X200743597Y-65807567I-751317J-837345D01*
G01*
X199433595Y-67267567D01*
G75*
G02*
X197844933Y-67353595I-837345J751317D01*
G01*
G37*
D14*
X204946250Y-63976250D03*
G36*
G01*
X204829733Y-65678645D02*
X204828847Y-65678584D01*
G75*
G02*
X203783916Y-64478847I77403J1122334D01*
G01*
X203823916Y-63898847D01*
G75*
G02*
X205023653Y-62853916I1122334J-77403D01*
G01*
X205023653Y-62853916D01*
G75*
G02*
X206068584Y-64053653I-77403J-1122334D01*
G01*
X206028584Y-64633653D01*
G75*
G02*
X204828847Y-65678584I-1122334J77403D01*
G01*
G37*
%TD*%
D13*
%TO.C,MX44*%
X207486250Y-50006250D03*
X197326250Y-50006250D03*
D14*
X199906250Y-46006250D03*
D15*
X202406250Y-50006250D03*
G36*
G01*
X197844938Y-48303600D02*
X197844933Y-48303595D01*
G75*
G02*
X197758905Y-46714933I751317J837345D01*
G01*
X199068907Y-45254933D01*
G75*
G02*
X200657569Y-45168905I837345J-751317D01*
G01*
X200657569Y-45168905D01*
G75*
G02*
X200743597Y-46757567I-751317J-837345D01*
G01*
X199433595Y-48217567D01*
G75*
G02*
X197844933Y-48303595I-837345J751317D01*
G01*
G37*
D14*
X204946250Y-44926250D03*
G36*
G01*
X204829733Y-46628645D02*
X204828847Y-46628584D01*
G75*
G02*
X203783916Y-45428847I77403J1122334D01*
G01*
X203823916Y-44848847D01*
G75*
G02*
X205023653Y-43803916I1122334J-77403D01*
G01*
X205023653Y-43803916D01*
G75*
G02*
X206068584Y-45003653I-77403J-1122334D01*
G01*
X206028584Y-45583653D01*
G75*
G02*
X204828847Y-46628584I-1122334J77403D01*
G01*
G37*
%TD*%
D13*
%TO.C,MX43*%
X207486250Y-30956250D03*
X197326250Y-30956250D03*
D14*
X199906250Y-26956250D03*
D15*
X202406250Y-30956250D03*
G36*
G01*
X197844938Y-29253600D02*
X197844933Y-29253595D01*
G75*
G02*
X197758905Y-27664933I751317J837345D01*
G01*
X199068907Y-26204933D01*
G75*
G02*
X200657569Y-26118905I837345J-751317D01*
G01*
X200657569Y-26118905D01*
G75*
G02*
X200743597Y-27707567I-751317J-837345D01*
G01*
X199433595Y-29167567D01*
G75*
G02*
X197844933Y-29253595I-837345J751317D01*
G01*
G37*
D14*
X204946250Y-25876250D03*
G36*
G01*
X204829733Y-27578645D02*
X204828847Y-27578584D01*
G75*
G02*
X203783916Y-26378847I77403J1122334D01*
G01*
X203823916Y-25798847D01*
G75*
G02*
X205023653Y-24753916I1122334J-77403D01*
G01*
X205023653Y-24753916D01*
G75*
G02*
X206068584Y-25953653I-77403J-1122334D01*
G01*
X206028584Y-26533653D01*
G75*
G02*
X204828847Y-27578584I-1122334J77403D01*
G01*
G37*
%TD*%
D13*
%TO.C,MX41*%
X188436250Y-69056250D03*
X178276250Y-69056250D03*
D14*
X180856250Y-65056250D03*
D15*
X183356250Y-69056250D03*
G36*
G01*
X178794938Y-67353600D02*
X178794933Y-67353595D01*
G75*
G02*
X178708905Y-65764933I751317J837345D01*
G01*
X180018907Y-64304933D01*
G75*
G02*
X181607569Y-64218905I837345J-751317D01*
G01*
X181607569Y-64218905D01*
G75*
G02*
X181693597Y-65807567I-751317J-837345D01*
G01*
X180383595Y-67267567D01*
G75*
G02*
X178794933Y-67353595I-837345J751317D01*
G01*
G37*
D14*
X185896250Y-63976250D03*
G36*
G01*
X185779733Y-65678645D02*
X185778847Y-65678584D01*
G75*
G02*
X184733916Y-64478847I77403J1122334D01*
G01*
X184773916Y-63898847D01*
G75*
G02*
X185973653Y-62853916I1122334J-77403D01*
G01*
X185973653Y-62853916D01*
G75*
G02*
X187018584Y-64053653I-77403J-1122334D01*
G01*
X186978584Y-64633653D01*
G75*
G02*
X185778847Y-65678584I-1122334J77403D01*
G01*
G37*
%TD*%
D13*
%TO.C,MX40*%
X188436250Y-50006250D03*
X178276250Y-50006250D03*
D14*
X180856250Y-46006250D03*
D15*
X183356250Y-50006250D03*
G36*
G01*
X178794938Y-48303600D02*
X178794933Y-48303595D01*
G75*
G02*
X178708905Y-46714933I751317J837345D01*
G01*
X180018907Y-45254933D01*
G75*
G02*
X181607569Y-45168905I837345J-751317D01*
G01*
X181607569Y-45168905D01*
G75*
G02*
X181693597Y-46757567I-751317J-837345D01*
G01*
X180383595Y-48217567D01*
G75*
G02*
X178794933Y-48303595I-837345J751317D01*
G01*
G37*
D14*
X185896250Y-44926250D03*
G36*
G01*
X185779733Y-46628645D02*
X185778847Y-46628584D01*
G75*
G02*
X184733916Y-45428847I77403J1122334D01*
G01*
X184773916Y-44848847D01*
G75*
G02*
X185973653Y-43803916I1122334J-77403D01*
G01*
X185973653Y-43803916D01*
G75*
G02*
X187018584Y-45003653I-77403J-1122334D01*
G01*
X186978584Y-45583653D01*
G75*
G02*
X185778847Y-46628584I-1122334J77403D01*
G01*
G37*
%TD*%
D13*
%TO.C,MX38*%
X178911250Y-107156250D03*
X168751250Y-107156250D03*
D14*
X171331250Y-103156250D03*
D15*
X173831250Y-107156250D03*
G36*
G01*
X169269938Y-105453600D02*
X169269933Y-105453595D01*
G75*
G02*
X169183905Y-103864933I751317J837345D01*
G01*
X170493907Y-102404933D01*
G75*
G02*
X172082569Y-102318905I837345J-751317D01*
G01*
X172082569Y-102318905D01*
G75*
G02*
X172168597Y-103907567I-751317J-837345D01*
G01*
X170858595Y-105367567D01*
G75*
G02*
X169269933Y-105453595I-837345J751317D01*
G01*
G37*
D14*
X176371250Y-102076250D03*
G36*
G01*
X176254733Y-103778645D02*
X176253847Y-103778584D01*
G75*
G02*
X175208916Y-102578847I77403J1122334D01*
G01*
X175248916Y-101998847D01*
G75*
G02*
X176448653Y-100953916I1122334J-77403D01*
G01*
X176448653Y-100953916D01*
G75*
G02*
X177493584Y-102153653I-77403J-1122334D01*
G01*
X177453584Y-102733653D01*
G75*
G02*
X176253847Y-103778584I-1122334J77403D01*
G01*
G37*
%TD*%
D13*
%TO.C,MX37*%
X169386250Y-88106250D03*
X159226250Y-88106250D03*
D14*
X161806250Y-84106250D03*
D15*
X164306250Y-88106250D03*
G36*
G01*
X159744938Y-86403600D02*
X159744933Y-86403595D01*
G75*
G02*
X159658905Y-84814933I751317J837345D01*
G01*
X160968907Y-83354933D01*
G75*
G02*
X162557569Y-83268905I837345J-751317D01*
G01*
X162557569Y-83268905D01*
G75*
G02*
X162643597Y-84857567I-751317J-837345D01*
G01*
X161333595Y-86317567D01*
G75*
G02*
X159744933Y-86403595I-837345J751317D01*
G01*
G37*
D14*
X166846250Y-83026250D03*
G36*
G01*
X166729733Y-84728645D02*
X166728847Y-84728584D01*
G75*
G02*
X165683916Y-83528847I77403J1122334D01*
G01*
X165723916Y-82948847D01*
G75*
G02*
X166923653Y-81903916I1122334J-77403D01*
G01*
X166923653Y-81903916D01*
G75*
G02*
X167968584Y-83103653I-77403J-1122334D01*
G01*
X167928584Y-83683653D01*
G75*
G02*
X166728847Y-84728584I-1122334J77403D01*
G01*
G37*
%TD*%
D13*
%TO.C,MX36*%
X169386250Y-69056250D03*
X159226250Y-69056250D03*
D14*
X161806250Y-65056250D03*
D15*
X164306250Y-69056250D03*
G36*
G01*
X159744938Y-67353600D02*
X159744933Y-67353595D01*
G75*
G02*
X159658905Y-65764933I751317J837345D01*
G01*
X160968907Y-64304933D01*
G75*
G02*
X162557569Y-64218905I837345J-751317D01*
G01*
X162557569Y-64218905D01*
G75*
G02*
X162643597Y-65807567I-751317J-837345D01*
G01*
X161333595Y-67267567D01*
G75*
G02*
X159744933Y-67353595I-837345J751317D01*
G01*
G37*
D14*
X166846250Y-63976250D03*
G36*
G01*
X166729733Y-65678645D02*
X166728847Y-65678584D01*
G75*
G02*
X165683916Y-64478847I77403J1122334D01*
G01*
X165723916Y-63898847D01*
G75*
G02*
X166923653Y-62853916I1122334J-77403D01*
G01*
X166923653Y-62853916D01*
G75*
G02*
X167968584Y-64053653I-77403J-1122334D01*
G01*
X167928584Y-64633653D01*
G75*
G02*
X166728847Y-65678584I-1122334J77403D01*
G01*
G37*
%TD*%
D13*
%TO.C,MX35*%
X169386250Y-50006250D03*
X159226250Y-50006250D03*
D14*
X161806250Y-46006250D03*
D15*
X164306250Y-50006250D03*
G36*
G01*
X159744938Y-48303600D02*
X159744933Y-48303595D01*
G75*
G02*
X159658905Y-46714933I751317J837345D01*
G01*
X160968907Y-45254933D01*
G75*
G02*
X162557569Y-45168905I837345J-751317D01*
G01*
X162557569Y-45168905D01*
G75*
G02*
X162643597Y-46757567I-751317J-837345D01*
G01*
X161333595Y-48217567D01*
G75*
G02*
X159744933Y-48303595I-837345J751317D01*
G01*
G37*
D14*
X166846250Y-44926250D03*
G36*
G01*
X166729733Y-46628645D02*
X166728847Y-46628584D01*
G75*
G02*
X165683916Y-45428847I77403J1122334D01*
G01*
X165723916Y-44848847D01*
G75*
G02*
X166923653Y-43803916I1122334J-77403D01*
G01*
X166923653Y-43803916D01*
G75*
G02*
X167968584Y-45003653I-77403J-1122334D01*
G01*
X167928584Y-45583653D01*
G75*
G02*
X166728847Y-46628584I-1122334J77403D01*
G01*
G37*
%TD*%
D13*
%TO.C,MX34*%
X169386250Y-30956250D03*
X159226250Y-30956250D03*
D14*
X161806250Y-26956250D03*
D15*
X164306250Y-30956250D03*
G36*
G01*
X159744938Y-29253600D02*
X159744933Y-29253595D01*
G75*
G02*
X159658905Y-27664933I751317J837345D01*
G01*
X160968907Y-26204933D01*
G75*
G02*
X162557569Y-26118905I837345J-751317D01*
G01*
X162557569Y-26118905D01*
G75*
G02*
X162643597Y-27707567I-751317J-837345D01*
G01*
X161333595Y-29167567D01*
G75*
G02*
X159744933Y-29253595I-837345J751317D01*
G01*
G37*
D14*
X166846250Y-25876250D03*
G36*
G01*
X166729733Y-27578645D02*
X166728847Y-27578584D01*
G75*
G02*
X165683916Y-26378847I77403J1122334D01*
G01*
X165723916Y-25798847D01*
G75*
G02*
X166923653Y-24753916I1122334J-77403D01*
G01*
X166923653Y-24753916D01*
G75*
G02*
X167968584Y-25953653I-77403J-1122334D01*
G01*
X167928584Y-26533653D01*
G75*
G02*
X166728847Y-27578584I-1122334J77403D01*
G01*
G37*
%TD*%
D13*
%TO.C,MX33*%
X159861250Y-107156250D03*
X149701250Y-107156250D03*
D14*
X152281250Y-103156250D03*
D15*
X154781250Y-107156250D03*
G36*
G01*
X150219938Y-105453600D02*
X150219933Y-105453595D01*
G75*
G02*
X150133905Y-103864933I751317J837345D01*
G01*
X151443907Y-102404933D01*
G75*
G02*
X153032569Y-102318905I837345J-751317D01*
G01*
X153032569Y-102318905D01*
G75*
G02*
X153118597Y-103907567I-751317J-837345D01*
G01*
X151808595Y-105367567D01*
G75*
G02*
X150219933Y-105453595I-837345J751317D01*
G01*
G37*
D14*
X157321250Y-102076250D03*
G36*
G01*
X157204733Y-103778645D02*
X157203847Y-103778584D01*
G75*
G02*
X156158916Y-102578847I77403J1122334D01*
G01*
X156198916Y-101998847D01*
G75*
G02*
X157398653Y-100953916I1122334J-77403D01*
G01*
X157398653Y-100953916D01*
G75*
G02*
X158443584Y-102153653I-77403J-1122334D01*
G01*
X158403584Y-102733653D01*
G75*
G02*
X157203847Y-103778584I-1122334J77403D01*
G01*
G37*
%TD*%
D13*
%TO.C,MX32*%
X150336250Y-88106250D03*
X140176250Y-88106250D03*
D14*
X142756250Y-84106250D03*
D15*
X145256250Y-88106250D03*
G36*
G01*
X140694938Y-86403600D02*
X140694933Y-86403595D01*
G75*
G02*
X140608905Y-84814933I751317J837345D01*
G01*
X141918907Y-83354933D01*
G75*
G02*
X143507569Y-83268905I837345J-751317D01*
G01*
X143507569Y-83268905D01*
G75*
G02*
X143593597Y-84857567I-751317J-837345D01*
G01*
X142283595Y-86317567D01*
G75*
G02*
X140694933Y-86403595I-837345J751317D01*
G01*
G37*
D14*
X147796250Y-83026250D03*
G36*
G01*
X147679733Y-84728645D02*
X147678847Y-84728584D01*
G75*
G02*
X146633916Y-83528847I77403J1122334D01*
G01*
X146673916Y-82948847D01*
G75*
G02*
X147873653Y-81903916I1122334J-77403D01*
G01*
X147873653Y-81903916D01*
G75*
G02*
X148918584Y-83103653I-77403J-1122334D01*
G01*
X148878584Y-83683653D01*
G75*
G02*
X147678847Y-84728584I-1122334J77403D01*
G01*
G37*
%TD*%
D13*
%TO.C,MX31*%
X150336250Y-69056250D03*
X140176250Y-69056250D03*
D14*
X142756250Y-65056250D03*
D15*
X145256250Y-69056250D03*
G36*
G01*
X140694938Y-67353600D02*
X140694933Y-67353595D01*
G75*
G02*
X140608905Y-65764933I751317J837345D01*
G01*
X141918907Y-64304933D01*
G75*
G02*
X143507569Y-64218905I837345J-751317D01*
G01*
X143507569Y-64218905D01*
G75*
G02*
X143593597Y-65807567I-751317J-837345D01*
G01*
X142283595Y-67267567D01*
G75*
G02*
X140694933Y-67353595I-837345J751317D01*
G01*
G37*
D14*
X147796250Y-63976250D03*
G36*
G01*
X147679733Y-65678645D02*
X147678847Y-65678584D01*
G75*
G02*
X146633916Y-64478847I77403J1122334D01*
G01*
X146673916Y-63898847D01*
G75*
G02*
X147873653Y-62853916I1122334J-77403D01*
G01*
X147873653Y-62853916D01*
G75*
G02*
X148918584Y-64053653I-77403J-1122334D01*
G01*
X148878584Y-64633653D01*
G75*
G02*
X147678847Y-65678584I-1122334J77403D01*
G01*
G37*
%TD*%
D13*
%TO.C,MX30*%
X150336250Y-50006250D03*
X140176250Y-50006250D03*
D14*
X142756250Y-46006250D03*
D15*
X145256250Y-50006250D03*
G36*
G01*
X140694938Y-48303600D02*
X140694933Y-48303595D01*
G75*
G02*
X140608905Y-46714933I751317J837345D01*
G01*
X141918907Y-45254933D01*
G75*
G02*
X143507569Y-45168905I837345J-751317D01*
G01*
X143507569Y-45168905D01*
G75*
G02*
X143593597Y-46757567I-751317J-837345D01*
G01*
X142283595Y-48217567D01*
G75*
G02*
X140694933Y-48303595I-837345J751317D01*
G01*
G37*
D14*
X147796250Y-44926250D03*
G36*
G01*
X147679733Y-46628645D02*
X147678847Y-46628584D01*
G75*
G02*
X146633916Y-45428847I77403J1122334D01*
G01*
X146673916Y-44848847D01*
G75*
G02*
X147873653Y-43803916I1122334J-77403D01*
G01*
X147873653Y-43803916D01*
G75*
G02*
X148918584Y-45003653I-77403J-1122334D01*
G01*
X148878584Y-45583653D01*
G75*
G02*
X147678847Y-46628584I-1122334J77403D01*
G01*
G37*
%TD*%
D13*
%TO.C,MX29*%
X150336250Y-30956250D03*
X140176250Y-30956250D03*
D14*
X142756250Y-26956250D03*
D15*
X145256250Y-30956250D03*
G36*
G01*
X140694938Y-29253600D02*
X140694933Y-29253595D01*
G75*
G02*
X140608905Y-27664933I751317J837345D01*
G01*
X141918907Y-26204933D01*
G75*
G02*
X143507569Y-26118905I837345J-751317D01*
G01*
X143507569Y-26118905D01*
G75*
G02*
X143593597Y-27707567I-751317J-837345D01*
G01*
X142283595Y-29167567D01*
G75*
G02*
X140694933Y-29253595I-837345J751317D01*
G01*
G37*
D14*
X147796250Y-25876250D03*
G36*
G01*
X147679733Y-27578645D02*
X147678847Y-27578584D01*
G75*
G02*
X146633916Y-26378847I77403J1122334D01*
G01*
X146673916Y-25798847D01*
G75*
G02*
X147873653Y-24753916I1122334J-77403D01*
G01*
X147873653Y-24753916D01*
G75*
G02*
X148918584Y-25953653I-77403J-1122334D01*
G01*
X148878584Y-26533653D01*
G75*
G02*
X147678847Y-27578584I-1122334J77403D01*
G01*
G37*
%TD*%
D13*
%TO.C,MX28*%
X136048750Y-107156250D03*
X125888750Y-107156250D03*
D14*
X128468750Y-103156250D03*
D15*
X130968750Y-107156250D03*
G36*
G01*
X126407438Y-105453600D02*
X126407433Y-105453595D01*
G75*
G02*
X126321405Y-103864933I751317J837345D01*
G01*
X127631407Y-102404933D01*
G75*
G02*
X129220069Y-102318905I837345J-751317D01*
G01*
X129220069Y-102318905D01*
G75*
G02*
X129306097Y-103907567I-751317J-837345D01*
G01*
X127996095Y-105367567D01*
G75*
G02*
X126407433Y-105453595I-837345J751317D01*
G01*
G37*
D14*
X133508750Y-102076250D03*
G36*
G01*
X133392233Y-103778645D02*
X133391347Y-103778584D01*
G75*
G02*
X132346416Y-102578847I77403J1122334D01*
G01*
X132386416Y-101998847D01*
G75*
G02*
X133586153Y-100953916I1122334J-77403D01*
G01*
X133586153Y-100953916D01*
G75*
G02*
X134631084Y-102153653I-77403J-1122334D01*
G01*
X134591084Y-102733653D01*
G75*
G02*
X133391347Y-103778584I-1122334J77403D01*
G01*
G37*
%TD*%
D13*
%TO.C,MX27*%
X131286250Y-88106250D03*
X121126250Y-88106250D03*
D14*
X123706250Y-84106250D03*
D15*
X126206250Y-88106250D03*
G36*
G01*
X121644938Y-86403600D02*
X121644933Y-86403595D01*
G75*
G02*
X121558905Y-84814933I751317J837345D01*
G01*
X122868907Y-83354933D01*
G75*
G02*
X124457569Y-83268905I837345J-751317D01*
G01*
X124457569Y-83268905D01*
G75*
G02*
X124543597Y-84857567I-751317J-837345D01*
G01*
X123233595Y-86317567D01*
G75*
G02*
X121644933Y-86403595I-837345J751317D01*
G01*
G37*
D14*
X128746250Y-83026250D03*
G36*
G01*
X128629733Y-84728645D02*
X128628847Y-84728584D01*
G75*
G02*
X127583916Y-83528847I77403J1122334D01*
G01*
X127623916Y-82948847D01*
G75*
G02*
X128823653Y-81903916I1122334J-77403D01*
G01*
X128823653Y-81903916D01*
G75*
G02*
X129868584Y-83103653I-77403J-1122334D01*
G01*
X129828584Y-83683653D01*
G75*
G02*
X128628847Y-84728584I-1122334J77403D01*
G01*
G37*
%TD*%
D25*
%TO.C,J1*%
X208121250Y-114776250D03*
D26*
X208121250Y-112236250D03*
X205581250Y-114776250D03*
X205581250Y-112236250D03*
X203041250Y-114776250D03*
X203041250Y-112236250D03*
%TD*%
%TO.C,F1*%
G36*
G01*
X133181250Y-42087500D02*
X131931250Y-42087500D01*
G75*
G02*
X131681250Y-41837500I0J250000D01*
G01*
X131681250Y-40912500D01*
G75*
G02*
X131931250Y-40662500I250000J0D01*
G01*
X133181250Y-40662500D01*
G75*
G02*
X133431250Y-40912500I0J-250000D01*
G01*
X133431250Y-41837500D01*
G75*
G02*
X133181250Y-42087500I-250000J0D01*
G01*
G37*
G36*
G01*
X133181250Y-45062500D02*
X131931250Y-45062500D01*
G75*
G02*
X131681250Y-44812500I0J250000D01*
G01*
X131681250Y-43887500D01*
G75*
G02*
X131931250Y-43637500I250000J0D01*
G01*
X133181250Y-43637500D01*
G75*
G02*
X133431250Y-43887500I0J-250000D01*
G01*
X133431250Y-44812500D01*
G75*
G02*
X133181250Y-45062500I-250000J0D01*
G01*
G37*
%TD*%
D27*
%TO.C,D46*%
X210343750Y-87250000D03*
X210343750Y-90550000D03*
%TD*%
%TO.C,D45*%
X210343750Y-68200000D03*
X210343750Y-71500000D03*
%TD*%
%TO.C,D44*%
X210343750Y-49150000D03*
X210343750Y-52450000D03*
%TD*%
%TO.C,D43*%
X210343750Y-30100000D03*
X210343750Y-33400000D03*
%TD*%
%TO.C,D42*%
X191293750Y-87250000D03*
X191293750Y-90550000D03*
%TD*%
%TO.C,D41*%
X191293750Y-68200000D03*
X191293750Y-71500000D03*
%TD*%
%TO.C,D40*%
X191293750Y-49150000D03*
X191293750Y-52450000D03*
%TD*%
%TO.C,D39*%
X191293750Y-30100000D03*
X191293750Y-33400000D03*
%TD*%
%TO.C,D38*%
X181768750Y-104712500D03*
X181768750Y-108012500D03*
%TD*%
%TO.C,D37*%
X172243750Y-87250000D03*
X172243750Y-90550000D03*
%TD*%
%TO.C,D36*%
X172243750Y-68200000D03*
X172243750Y-71500000D03*
%TD*%
%TO.C,D35*%
X172243750Y-49150000D03*
X172243750Y-52450000D03*
%TD*%
%TO.C,D34*%
X172243750Y-30100000D03*
X172243750Y-33400000D03*
%TD*%
%TO.C,D33*%
X162718750Y-106300000D03*
X162718750Y-109600000D03*
%TD*%
%TO.C,D32*%
X153193750Y-87250000D03*
X153193750Y-90550000D03*
%TD*%
%TO.C,D31*%
X153193750Y-68200000D03*
X153193750Y-71500000D03*
%TD*%
%TO.C,D30*%
X153193750Y-49150000D03*
X153193750Y-52450000D03*
%TD*%
%TO.C,D29*%
X153193750Y-30100000D03*
X153193750Y-33400000D03*
%TD*%
%TO.C,D28*%
X138906250Y-106300000D03*
X138906250Y-109600000D03*
%TD*%
D28*
%TO.C,D27*%
X127856250Y-96043750D03*
X124556250Y-96043750D03*
%TD*%
%TO.C,D26*%
X127856250Y-76993750D03*
X124556250Y-76993750D03*
%TD*%
%TO.C,D25*%
X127856250Y-57943750D03*
X124556250Y-57943750D03*
%TD*%
%TO.C,D24*%
X127856250Y-38893750D03*
X124556250Y-38893750D03*
%TD*%
%TO.C,C8*%
G36*
G01*
X187807000Y-96680000D02*
X187807000Y-97630000D01*
G75*
G02*
X187557000Y-97880000I-250000J0D01*
G01*
X186882000Y-97880000D01*
G75*
G02*
X186632000Y-97630000I0J250000D01*
G01*
X186632000Y-96680000D01*
G75*
G02*
X186882000Y-96430000I250000J0D01*
G01*
X187557000Y-96430000D01*
G75*
G02*
X187807000Y-96680000I0J-250000D01*
G01*
G37*
G36*
G01*
X185732000Y-96680000D02*
X185732000Y-97630000D01*
G75*
G02*
X185482000Y-97880000I-250000J0D01*
G01*
X184807000Y-97880000D01*
G75*
G02*
X184557000Y-97630000I0J250000D01*
G01*
X184557000Y-96680000D01*
G75*
G02*
X184807000Y-96430000I250000J0D01*
G01*
X185482000Y-96430000D01*
G75*
G02*
X185732000Y-96680000I0J-250000D01*
G01*
G37*
%TD*%
%TO.C,C7*%
G36*
G01*
X185260000Y-110972000D02*
X184310000Y-110972000D01*
G75*
G02*
X184060000Y-110722000I0J250000D01*
G01*
X184060000Y-110047000D01*
G75*
G02*
X184310000Y-109797000I250000J0D01*
G01*
X185260000Y-109797000D01*
G75*
G02*
X185510000Y-110047000I0J-250000D01*
G01*
X185510000Y-110722000D01*
G75*
G02*
X185260000Y-110972000I-250000J0D01*
G01*
G37*
G36*
G01*
X185260000Y-108897000D02*
X184310000Y-108897000D01*
G75*
G02*
X184060000Y-108647000I0J250000D01*
G01*
X184060000Y-107972000D01*
G75*
G02*
X184310000Y-107722000I250000J0D01*
G01*
X185260000Y-107722000D01*
G75*
G02*
X185510000Y-107972000I0J-250000D01*
G01*
X185510000Y-108647000D01*
G75*
G02*
X185260000Y-108897000I-250000J0D01*
G01*
G37*
%TD*%
%TO.C,C6*%
G36*
G01*
X202471000Y-98705000D02*
X203421000Y-98705000D01*
G75*
G02*
X203671000Y-98955000I0J-250000D01*
G01*
X203671000Y-99630000D01*
G75*
G02*
X203421000Y-99880000I-250000J0D01*
G01*
X202471000Y-99880000D01*
G75*
G02*
X202221000Y-99630000I0J250000D01*
G01*
X202221000Y-98955000D01*
G75*
G02*
X202471000Y-98705000I250000J0D01*
G01*
G37*
G36*
G01*
X202471000Y-100780000D02*
X203421000Y-100780000D01*
G75*
G02*
X203671000Y-101030000I0J-250000D01*
G01*
X203671000Y-101705000D01*
G75*
G02*
X203421000Y-101955000I-250000J0D01*
G01*
X202471000Y-101955000D01*
G75*
G02*
X202221000Y-101705000I0J250000D01*
G01*
X202221000Y-101030000D01*
G75*
G02*
X202471000Y-100780000I250000J0D01*
G01*
G37*
%TD*%
%TO.C,C5*%
G36*
G01*
X196951000Y-96553000D02*
X196951000Y-97503000D01*
G75*
G02*
X196701000Y-97753000I-250000J0D01*
G01*
X196026000Y-97753000D01*
G75*
G02*
X195776000Y-97503000I0J250000D01*
G01*
X195776000Y-96553000D01*
G75*
G02*
X196026000Y-96303000I250000J0D01*
G01*
X196701000Y-96303000D01*
G75*
G02*
X196951000Y-96553000I0J-250000D01*
G01*
G37*
G36*
G01*
X194876000Y-96553000D02*
X194876000Y-97503000D01*
G75*
G02*
X194626000Y-97753000I-250000J0D01*
G01*
X193951000Y-97753000D01*
G75*
G02*
X193701000Y-97503000I0J250000D01*
G01*
X193701000Y-96553000D01*
G75*
G02*
X193951000Y-96303000I250000J0D01*
G01*
X194626000Y-96303000D01*
G75*
G02*
X194876000Y-96553000I0J-250000D01*
G01*
G37*
%TD*%
%TO.C,C4*%
G36*
G01*
X193701000Y-95344000D02*
X193701000Y-94394000D01*
G75*
G02*
X193951000Y-94144000I250000J0D01*
G01*
X194626000Y-94144000D01*
G75*
G02*
X194876000Y-94394000I0J-250000D01*
G01*
X194876000Y-95344000D01*
G75*
G02*
X194626000Y-95594000I-250000J0D01*
G01*
X193951000Y-95594000D01*
G75*
G02*
X193701000Y-95344000I0J250000D01*
G01*
G37*
G36*
G01*
X195776000Y-95344000D02*
X195776000Y-94394000D01*
G75*
G02*
X196026000Y-94144000I250000J0D01*
G01*
X196701000Y-94144000D01*
G75*
G02*
X196951000Y-94394000I0J-250000D01*
G01*
X196951000Y-95344000D01*
G75*
G02*
X196701000Y-95594000I-250000J0D01*
G01*
X196026000Y-95594000D01*
G75*
G02*
X195776000Y-95344000I0J250000D01*
G01*
G37*
%TD*%
%TO.C,C3*%
G36*
G01*
X196622000Y-113378000D02*
X196622000Y-112428000D01*
G75*
G02*
X196872000Y-112178000I250000J0D01*
G01*
X197547000Y-112178000D01*
G75*
G02*
X197797000Y-112428000I0J-250000D01*
G01*
X197797000Y-113378000D01*
G75*
G02*
X197547000Y-113628000I-250000J0D01*
G01*
X196872000Y-113628000D01*
G75*
G02*
X196622000Y-113378000I0J250000D01*
G01*
G37*
G36*
G01*
X198697000Y-113378000D02*
X198697000Y-112428000D01*
G75*
G02*
X198947000Y-112178000I250000J0D01*
G01*
X199622000Y-112178000D01*
G75*
G02*
X199872000Y-112428000I0J-250000D01*
G01*
X199872000Y-113378000D01*
G75*
G02*
X199622000Y-113628000I-250000J0D01*
G01*
X198947000Y-113628000D01*
G75*
G02*
X198697000Y-113378000I0J250000D01*
G01*
G37*
%TD*%
%TO.C,C2*%
G36*
G01*
X206909000Y-104234000D02*
X206909000Y-103284000D01*
G75*
G02*
X207159000Y-103034000I250000J0D01*
G01*
X207834000Y-103034000D01*
G75*
G02*
X208084000Y-103284000I0J-250000D01*
G01*
X208084000Y-104234000D01*
G75*
G02*
X207834000Y-104484000I-250000J0D01*
G01*
X207159000Y-104484000D01*
G75*
G02*
X206909000Y-104234000I0J250000D01*
G01*
G37*
G36*
G01*
X208984000Y-104234000D02*
X208984000Y-103284000D01*
G75*
G02*
X209234000Y-103034000I250000J0D01*
G01*
X209909000Y-103034000D01*
G75*
G02*
X210159000Y-103284000I0J-250000D01*
G01*
X210159000Y-104234000D01*
G75*
G02*
X209909000Y-104484000I-250000J0D01*
G01*
X209234000Y-104484000D01*
G75*
G02*
X208984000Y-104234000I0J250000D01*
G01*
G37*
%TD*%
%TO.C,C1*%
G36*
G01*
X206909000Y-107155000D02*
X206909000Y-106205000D01*
G75*
G02*
X207159000Y-105955000I250000J0D01*
G01*
X207834000Y-105955000D01*
G75*
G02*
X208084000Y-106205000I0J-250000D01*
G01*
X208084000Y-107155000D01*
G75*
G02*
X207834000Y-107405000I-250000J0D01*
G01*
X207159000Y-107405000D01*
G75*
G02*
X206909000Y-107155000I0J250000D01*
G01*
G37*
G36*
G01*
X208984000Y-107155000D02*
X208984000Y-106205000D01*
G75*
G02*
X209234000Y-105955000I250000J0D01*
G01*
X209909000Y-105955000D01*
G75*
G02*
X210159000Y-106205000I0J-250000D01*
G01*
X210159000Y-107155000D01*
G75*
G02*
X209909000Y-107405000I-250000J0D01*
G01*
X209234000Y-107405000D01*
G75*
G02*
X208984000Y-107155000I0J250000D01*
G01*
G37*
%TD*%
M02*
