%TF.GenerationSoftware,KiCad,Pcbnew,(5.1.12)-1*%
%TF.CreationDate,2022-01-06T16:35:48-05:00*%
%TF.ProjectId,gasket-2,6761736b-6574-42d3-922e-6b696361645f,rev?*%
%TF.SameCoordinates,Original*%
%TF.FileFunction,Profile,NP*%
%FSLAX46Y46*%
G04 Gerber Fmt 4.6, Leading zero omitted, Abs format (unit mm)*
G04 Created by KiCad (PCBNEW (5.1.12)-1) date 2022-01-06 16:35:48*
%MOMM*%
%LPD*%
G01*
G04 APERTURE LIST*
%TA.AperFunction,Profile*%
%ADD10C,0.050000*%
%TD*%
G04 APERTURE END LIST*
D10*
X125412500Y-116681250D02*
G75*
G02*
X126206250Y-117475000I0J-793750D01*
G01*
X126206250Y-117475000D02*
X126206250Y-118268750D01*
X127000000Y-119062500D02*
G75*
G02*
X126206250Y-118268750I0J793750D01*
G01*
X116681250Y-116713000D02*
X125412500Y-116681250D01*
X201612500Y-119062500D02*
X127000000Y-119062500D01*
X202406250Y-117475000D02*
X202406250Y-118268750D01*
X202406250Y-118268750D02*
G75*
G02*
X201612500Y-119062500I-793750J0D01*
G01*
X202406250Y-117475000D02*
G75*
G02*
X203200000Y-116681250I793750J0D01*
G01*
X203200000Y-21431250D02*
G75*
G02*
X202406250Y-20637500I0J793750D01*
G01*
X142081250Y-21431250D02*
X144462500Y-21431250D01*
X145256250Y-20637500D02*
G75*
G02*
X144462500Y-21431250I-793750J0D01*
G01*
X145256250Y-19843750D02*
G75*
G02*
X146050000Y-19050000I793750J0D01*
G01*
X145256250Y-20637500D02*
X145256250Y-19843750D01*
X201612500Y-19050000D02*
X146050000Y-19050000D01*
X201612500Y-19050000D02*
G75*
G02*
X202406250Y-19843750I0J-793750D01*
G01*
X202406250Y-20637500D02*
X202406250Y-19843750D01*
X129381250Y-21431250D02*
X116681250Y-21431250D01*
X116681250Y-116713000D02*
X116681250Y-21431250D01*
X142081250Y-21431250D02*
G75*
G02*
X141287500Y-20637500I0J793750D01*
G01*
X130175000Y-19050000D02*
X130175000Y-20637500D01*
X130175000Y-20637500D02*
G75*
G02*
X129381250Y-21431250I-793750J0D01*
G01*
X141287500Y-19050000D02*
X130175000Y-19050000D01*
X141287500Y-20637500D02*
X141287500Y-19050000D01*
X211931250Y-114300000D02*
X211931250Y-23812500D01*
X209550000Y-116681250D02*
X203200000Y-116681250D01*
X211931250Y-114300000D02*
G75*
G02*
X209550000Y-116681250I-2381250J0D01*
G01*
X203200000Y-21431250D02*
X209550000Y-21431250D01*
X209550000Y-21431250D02*
G75*
G02*
X211931250Y-23812500I0J-2381250D01*
G01*
M02*
