%TF.GenerationSoftware,KiCad,Pcbnew,(5.1.12)-1*%
%TF.CreationDate,2022-01-04T22:26:51-05:00*%
%TF.ProjectId,my-keeb-type-c-modular-1,6d792d6b-6565-4622-9d74-7970652d632d,rev?*%
%TF.SameCoordinates,Original*%
%TF.FileFunction,Soldermask,Top*%
%TF.FilePolarity,Negative*%
%FSLAX46Y46*%
G04 Gerber Fmt 4.6, Leading zero omitted, Abs format (unit mm)*
G04 Created by KiCad (PCBNEW (5.1.12)-1) date 2022-01-04 22:26:51*
%MOMM*%
%LPD*%
G01*
G04 APERTURE LIST*
%ADD10C,1.750000*%
%ADD11C,3.987800*%
G04 APERTURE END LIST*
D10*
%TO.C,MX21*%
X112236250Y-69056250D03*
X102076250Y-69056250D03*
D11*
X107156250Y-69056250D03*
%TD*%
%TO.C,M2*%
G36*
G01*
X114947700Y-103562150D02*
X114947700Y-102685850D01*
G75*
G02*
X115385850Y-102247700I438150J0D01*
G01*
X116262150Y-102247700D01*
G75*
G02*
X116700300Y-102685850I0J-438150D01*
G01*
X116700300Y-103562150D01*
G75*
G02*
X116262150Y-104000300I-438150J0D01*
G01*
X115385850Y-104000300D01*
G75*
G02*
X114947700Y-103562150I0J438150D01*
G01*
G37*
G36*
G01*
X114947700Y-105594150D02*
X114947700Y-104717850D01*
G75*
G02*
X115385850Y-104279700I438150J0D01*
G01*
X116262150Y-104279700D01*
G75*
G02*
X116700300Y-104717850I0J-438150D01*
G01*
X116700300Y-105594150D01*
G75*
G02*
X116262150Y-106032300I-438150J0D01*
G01*
X115385850Y-106032300D01*
G75*
G02*
X114947700Y-105594150I0J438150D01*
G01*
G37*
G36*
G01*
X114947700Y-107626150D02*
X114947700Y-106749850D01*
G75*
G02*
X115385850Y-106311700I438150J0D01*
G01*
X116262150Y-106311700D01*
G75*
G02*
X116700300Y-106749850I0J-438150D01*
G01*
X116700300Y-107626150D01*
G75*
G02*
X116262150Y-108064300I-438150J0D01*
G01*
X115385850Y-108064300D01*
G75*
G02*
X114947700Y-107626150I0J438150D01*
G01*
G37*
G36*
G01*
X114947700Y-109658150D02*
X114947700Y-108781850D01*
G75*
G02*
X115385850Y-108343700I438150J0D01*
G01*
X116262150Y-108343700D01*
G75*
G02*
X116700300Y-108781850I0J-438150D01*
G01*
X116700300Y-109658150D01*
G75*
G02*
X116262150Y-110096300I-438150J0D01*
G01*
X115385850Y-110096300D01*
G75*
G02*
X114947700Y-109658150I0J438150D01*
G01*
G37*
G36*
G01*
X114947700Y-111690150D02*
X114947700Y-110813850D01*
G75*
G02*
X115385850Y-110375700I438150J0D01*
G01*
X116262150Y-110375700D01*
G75*
G02*
X116700300Y-110813850I0J-438150D01*
G01*
X116700300Y-111690150D01*
G75*
G02*
X116262150Y-112128300I-438150J0D01*
G01*
X115385850Y-112128300D01*
G75*
G02*
X114947700Y-111690150I0J438150D01*
G01*
G37*
%TD*%
%TO.C,M1*%
G36*
G01*
X114947700Y-35490150D02*
X114947700Y-34613850D01*
G75*
G02*
X115385850Y-34175700I438150J0D01*
G01*
X116262150Y-34175700D01*
G75*
G02*
X116700300Y-34613850I0J-438150D01*
G01*
X116700300Y-35490150D01*
G75*
G02*
X116262150Y-35928300I-438150J0D01*
G01*
X115385850Y-35928300D01*
G75*
G02*
X114947700Y-35490150I0J438150D01*
G01*
G37*
G36*
G01*
X114947700Y-33458150D02*
X114947700Y-32581850D01*
G75*
G02*
X115385850Y-32143700I438150J0D01*
G01*
X116262150Y-32143700D01*
G75*
G02*
X116700300Y-32581850I0J-438150D01*
G01*
X116700300Y-33458150D01*
G75*
G02*
X116262150Y-33896300I-438150J0D01*
G01*
X115385850Y-33896300D01*
G75*
G02*
X114947700Y-33458150I0J438150D01*
G01*
G37*
G36*
G01*
X114947700Y-31426150D02*
X114947700Y-30549850D01*
G75*
G02*
X115385850Y-30111700I438150J0D01*
G01*
X116262150Y-30111700D01*
G75*
G02*
X116700300Y-30549850I0J-438150D01*
G01*
X116700300Y-31426150D01*
G75*
G02*
X116262150Y-31864300I-438150J0D01*
G01*
X115385850Y-31864300D01*
G75*
G02*
X114947700Y-31426150I0J438150D01*
G01*
G37*
G36*
G01*
X114947700Y-29394150D02*
X114947700Y-28517850D01*
G75*
G02*
X115385850Y-28079700I438150J0D01*
G01*
X116262150Y-28079700D01*
G75*
G02*
X116700300Y-28517850I0J-438150D01*
G01*
X116700300Y-29394150D01*
G75*
G02*
X116262150Y-29832300I-438150J0D01*
G01*
X115385850Y-29832300D01*
G75*
G02*
X114947700Y-29394150I0J438150D01*
G01*
G37*
G36*
G01*
X114947700Y-27362150D02*
X114947700Y-26485850D01*
G75*
G02*
X115385850Y-26047700I438150J0D01*
G01*
X116262150Y-26047700D01*
G75*
G02*
X116700300Y-26485850I0J-438150D01*
G01*
X116700300Y-27362150D01*
G75*
G02*
X116262150Y-27800300I-438150J0D01*
G01*
X115385850Y-27800300D01*
G75*
G02*
X114947700Y-27362150I0J438150D01*
G01*
G37*
%TD*%
D10*
%TO.C,MX19*%
X112236250Y-30956250D03*
X102076250Y-30956250D03*
D11*
X107156250Y-30956250D03*
%TD*%
D10*
%TO.C,MX18*%
X83661250Y-107156250D03*
X73501250Y-107156250D03*
D11*
X78581250Y-107156250D03*
%TD*%
D10*
%TO.C,MX23*%
X107473750Y-107156250D03*
X97313750Y-107156250D03*
D11*
X102393750Y-107156250D03*
%TD*%
D10*
%TO.C,MX22*%
X112236250Y-88106250D03*
X102076250Y-88106250D03*
D11*
X107156250Y-88106250D03*
%TD*%
D10*
%TO.C,MX20*%
X112236250Y-50006250D03*
X102076250Y-50006250D03*
D11*
X107156250Y-50006250D03*
%TD*%
D10*
%TO.C,MX17*%
X93186250Y-88106250D03*
X83026250Y-88106250D03*
D11*
X88106250Y-88106250D03*
%TD*%
D10*
%TO.C,MX16*%
X93186250Y-69056250D03*
X83026250Y-69056250D03*
D11*
X88106250Y-69056250D03*
%TD*%
D10*
%TO.C,MX15*%
X93186250Y-50006250D03*
X83026250Y-50006250D03*
D11*
X88106250Y-50006250D03*
%TD*%
D10*
%TO.C,MX14*%
X93186250Y-30956250D03*
X83026250Y-30956250D03*
D11*
X88106250Y-30956250D03*
%TD*%
D10*
%TO.C,MX13*%
X64611250Y-107156250D03*
X54451250Y-107156250D03*
D11*
X59531250Y-107156250D03*
%TD*%
D10*
%TO.C,MX12*%
X74136250Y-88106250D03*
X63976250Y-88106250D03*
D11*
X69056250Y-88106250D03*
%TD*%
D10*
%TO.C,MX11*%
X74136250Y-69056250D03*
X63976250Y-69056250D03*
D11*
X69056250Y-69056250D03*
%TD*%
D10*
%TO.C,MX10*%
X74136250Y-50006250D03*
X63976250Y-50006250D03*
D11*
X69056250Y-50006250D03*
%TD*%
D10*
%TO.C,MX9*%
X74136250Y-30956250D03*
X63976250Y-30956250D03*
D11*
X69056250Y-30956250D03*
%TD*%
D10*
%TO.C,MX8*%
X55086250Y-88106250D03*
X44926250Y-88106250D03*
D11*
X50006250Y-88106250D03*
%TD*%
D10*
%TO.C,MX7*%
X55086250Y-69056250D03*
X44926250Y-69056250D03*
D11*
X50006250Y-69056250D03*
%TD*%
D10*
%TO.C,MX6*%
X55086250Y-50006250D03*
X44926250Y-50006250D03*
D11*
X50006250Y-50006250D03*
%TD*%
D10*
%TO.C,MX5*%
X55086250Y-30956250D03*
X44926250Y-30956250D03*
D11*
X50006250Y-30956250D03*
%TD*%
D10*
%TO.C,MX4*%
X36036250Y-88106250D03*
X25876250Y-88106250D03*
D11*
X30956250Y-88106250D03*
%TD*%
D10*
%TO.C,MX3*%
X36036250Y-69056250D03*
X25876250Y-69056250D03*
D11*
X30956250Y-69056250D03*
%TD*%
D10*
%TO.C,MX2*%
X36036250Y-50006250D03*
X25876250Y-50006250D03*
D11*
X30956250Y-50006250D03*
%TD*%
D10*
%TO.C,MX1*%
X36036250Y-30956250D03*
X25876250Y-30956250D03*
D11*
X30956250Y-30956250D03*
%TD*%
M02*
