%TF.GenerationSoftware,KiCad,Pcbnew,(5.1.12)-1*%
%TF.CreationDate,2022-01-01T22:18:57-05:00*%
%TF.ProjectId,my-keeb-2,6d792d6b-6565-4622-9d32-2e6b69636164,rev?*%
%TF.SameCoordinates,Original*%
%TF.FileFunction,Copper,L1,Top*%
%TF.FilePolarity,Positive*%
%FSLAX46Y46*%
G04 Gerber Fmt 4.6, Leading zero omitted, Abs format (unit mm)*
G04 Created by KiCad (PCBNEW (5.1.12)-1) date 2022-01-01 22:18:57*
%MOMM*%
%LPD*%
G01*
G04 APERTURE LIST*
%TA.AperFunction,ComponentPad*%
%ADD10C,2.250000*%
%TD*%
%TA.AperFunction,ComponentPad*%
%ADD11C,1.752600*%
%TD*%
%TA.AperFunction,ComponentPad*%
%ADD12R,1.752600X1.752600*%
%TD*%
%TA.AperFunction,ComponentPad*%
%ADD13R,1.600000X1.600000*%
%TD*%
%TA.AperFunction,ComponentPad*%
%ADD14C,1.600000*%
%TD*%
%TA.AperFunction,Conductor*%
%ADD15C,0.254000*%
%TD*%
G04 APERTURE END LIST*
%TO.P,MX38,2*%
%TO.N,Net-(D38-Pad2)*%
%TA.AperFunction,ComponentPad*%
G36*
G01*
X167523483Y-95047395D02*
X167522597Y-95047334D01*
G75*
G02*
X166477666Y-93847597I77403J1122334D01*
G01*
X166517666Y-93267597D01*
G75*
G02*
X167717403Y-92222666I1122334J-77403D01*
G01*
X167717403Y-92222666D01*
G75*
G02*
X168762334Y-93422403I-77403J-1122334D01*
G01*
X168722334Y-94002403D01*
G75*
G02*
X167522597Y-95047334I-1122334J77403D01*
G01*
G37*
%TD.AperFunction*%
D10*
X167640000Y-93345000D03*
%TO.P,MX38,1*%
%TO.N,COL7*%
%TA.AperFunction,ComponentPad*%
G36*
G01*
X160538688Y-96722350D02*
X160538683Y-96722345D01*
G75*
G02*
X160452655Y-95133683I751317J837345D01*
G01*
X161762657Y-93673683D01*
G75*
G02*
X163351319Y-93587655I837345J-751317D01*
G01*
X163351319Y-93587655D01*
G75*
G02*
X163437347Y-95176317I-751317J-837345D01*
G01*
X162127345Y-96636317D01*
G75*
G02*
X160538683Y-96722345I-837345J751317D01*
G01*
G37*
%TD.AperFunction*%
X162600000Y-94425000D03*
%TD*%
%TO.P,M3,5*%
%TO.N,COL9*%
%TA.AperFunction,ComponentPad*%
G36*
G01*
X109715300Y-36772850D02*
X109715300Y-37649150D01*
G75*
G02*
X109277150Y-38087300I-438150J0D01*
G01*
X108400850Y-38087300D01*
G75*
G02*
X107962700Y-37649150I0J438150D01*
G01*
X107962700Y-36772850D01*
G75*
G02*
X108400850Y-36334700I438150J0D01*
G01*
X109277150Y-36334700D01*
G75*
G02*
X109715300Y-36772850I0J-438150D01*
G01*
G37*
%TD.AperFunction*%
%TO.P,M3,4*%
%TO.N,COL8*%
%TA.AperFunction,ComponentPad*%
G36*
G01*
X109715300Y-38804850D02*
X109715300Y-39681150D01*
G75*
G02*
X109277150Y-40119300I-438150J0D01*
G01*
X108400850Y-40119300D01*
G75*
G02*
X107962700Y-39681150I0J438150D01*
G01*
X107962700Y-38804850D01*
G75*
G02*
X108400850Y-38366700I438150J0D01*
G01*
X109277150Y-38366700D01*
G75*
G02*
X109715300Y-38804850I0J-438150D01*
G01*
G37*
%TD.AperFunction*%
%TO.P,M3,3*%
%TO.N,COL7*%
%TA.AperFunction,ComponentPad*%
G36*
G01*
X109715300Y-40836850D02*
X109715300Y-41713150D01*
G75*
G02*
X109277150Y-42151300I-438150J0D01*
G01*
X108400850Y-42151300D01*
G75*
G02*
X107962700Y-41713150I0J438150D01*
G01*
X107962700Y-40836850D01*
G75*
G02*
X108400850Y-40398700I438150J0D01*
G01*
X109277150Y-40398700D01*
G75*
G02*
X109715300Y-40836850I0J-438150D01*
G01*
G37*
%TD.AperFunction*%
%TO.P,M3,2*%
%TO.N,COL6*%
%TA.AperFunction,ComponentPad*%
G36*
G01*
X109715300Y-42868850D02*
X109715300Y-43745150D01*
G75*
G02*
X109277150Y-44183300I-438150J0D01*
G01*
X108400850Y-44183300D01*
G75*
G02*
X107962700Y-43745150I0J438150D01*
G01*
X107962700Y-42868850D01*
G75*
G02*
X108400850Y-42430700I438150J0D01*
G01*
X109277150Y-42430700D01*
G75*
G02*
X109715300Y-42868850I0J-438150D01*
G01*
G37*
%TD.AperFunction*%
%TO.P,M3,1*%
%TO.N,COL5*%
%TA.AperFunction,ComponentPad*%
G36*
G01*
X109715300Y-44900850D02*
X109715300Y-45777150D01*
G75*
G02*
X109277150Y-46215300I-438150J0D01*
G01*
X108400850Y-46215300D01*
G75*
G02*
X107962700Y-45777150I0J438150D01*
G01*
X107962700Y-44900850D01*
G75*
G02*
X108400850Y-44462700I438150J0D01*
G01*
X109277150Y-44462700D01*
G75*
G02*
X109715300Y-44900850I0J-438150D01*
G01*
G37*
%TD.AperFunction*%
%TD*%
%TO.P,M2,5*%
%TO.N,COL4*%
%TA.AperFunction,ComponentPad*%
G36*
G01*
X107962700Y-83877150D02*
X107962700Y-83000850D01*
G75*
G02*
X108400850Y-82562700I438150J0D01*
G01*
X109277150Y-82562700D01*
G75*
G02*
X109715300Y-83000850I0J-438150D01*
G01*
X109715300Y-83877150D01*
G75*
G02*
X109277150Y-84315300I-438150J0D01*
G01*
X108400850Y-84315300D01*
G75*
G02*
X107962700Y-83877150I0J438150D01*
G01*
G37*
%TD.AperFunction*%
%TO.P,M2,4*%
%TO.N,COL3*%
%TA.AperFunction,ComponentPad*%
G36*
G01*
X107962700Y-81845150D02*
X107962700Y-80968850D01*
G75*
G02*
X108400850Y-80530700I438150J0D01*
G01*
X109277150Y-80530700D01*
G75*
G02*
X109715300Y-80968850I0J-438150D01*
G01*
X109715300Y-81845150D01*
G75*
G02*
X109277150Y-82283300I-438150J0D01*
G01*
X108400850Y-82283300D01*
G75*
G02*
X107962700Y-81845150I0J438150D01*
G01*
G37*
%TD.AperFunction*%
%TO.P,M2,3*%
%TO.N,COL2*%
%TA.AperFunction,ComponentPad*%
G36*
G01*
X107962700Y-79813150D02*
X107962700Y-78936850D01*
G75*
G02*
X108400850Y-78498700I438150J0D01*
G01*
X109277150Y-78498700D01*
G75*
G02*
X109715300Y-78936850I0J-438150D01*
G01*
X109715300Y-79813150D01*
G75*
G02*
X109277150Y-80251300I-438150J0D01*
G01*
X108400850Y-80251300D01*
G75*
G02*
X107962700Y-79813150I0J438150D01*
G01*
G37*
%TD.AperFunction*%
%TO.P,M2,2*%
%TO.N,COL1*%
%TA.AperFunction,ComponentPad*%
G36*
G01*
X107962700Y-77781150D02*
X107962700Y-76904850D01*
G75*
G02*
X108400850Y-76466700I438150J0D01*
G01*
X109277150Y-76466700D01*
G75*
G02*
X109715300Y-76904850I0J-438150D01*
G01*
X109715300Y-77781150D01*
G75*
G02*
X109277150Y-78219300I-438150J0D01*
G01*
X108400850Y-78219300D01*
G75*
G02*
X107962700Y-77781150I0J438150D01*
G01*
G37*
%TD.AperFunction*%
%TO.P,M2,1*%
%TO.N,COL0*%
%TA.AperFunction,ComponentPad*%
G36*
G01*
X107962700Y-75749150D02*
X107962700Y-74872850D01*
G75*
G02*
X108400850Y-74434700I438150J0D01*
G01*
X109277150Y-74434700D01*
G75*
G02*
X109715300Y-74872850I0J-438150D01*
G01*
X109715300Y-75749150D01*
G75*
G02*
X109277150Y-76187300I-438150J0D01*
G01*
X108400850Y-76187300D01*
G75*
G02*
X107962700Y-75749150I0J438150D01*
G01*
G37*
%TD.AperFunction*%
%TD*%
%TO.P,M1,5*%
%TO.N,ROW4*%
%TA.AperFunction,ComponentPad*%
G36*
G01*
X107962700Y-64827150D02*
X107962700Y-63950850D01*
G75*
G02*
X108400850Y-63512700I438150J0D01*
G01*
X109277150Y-63512700D01*
G75*
G02*
X109715300Y-63950850I0J-438150D01*
G01*
X109715300Y-64827150D01*
G75*
G02*
X109277150Y-65265300I-438150J0D01*
G01*
X108400850Y-65265300D01*
G75*
G02*
X107962700Y-64827150I0J438150D01*
G01*
G37*
%TD.AperFunction*%
%TO.P,M1,4*%
%TO.N,ROW3*%
%TA.AperFunction,ComponentPad*%
G36*
G01*
X107962700Y-62795150D02*
X107962700Y-61918850D01*
G75*
G02*
X108400850Y-61480700I438150J0D01*
G01*
X109277150Y-61480700D01*
G75*
G02*
X109715300Y-61918850I0J-438150D01*
G01*
X109715300Y-62795150D01*
G75*
G02*
X109277150Y-63233300I-438150J0D01*
G01*
X108400850Y-63233300D01*
G75*
G02*
X107962700Y-62795150I0J438150D01*
G01*
G37*
%TD.AperFunction*%
%TO.P,M1,3*%
%TO.N,ROW2*%
%TA.AperFunction,ComponentPad*%
G36*
G01*
X107962700Y-60763150D02*
X107962700Y-59886850D01*
G75*
G02*
X108400850Y-59448700I438150J0D01*
G01*
X109277150Y-59448700D01*
G75*
G02*
X109715300Y-59886850I0J-438150D01*
G01*
X109715300Y-60763150D01*
G75*
G02*
X109277150Y-61201300I-438150J0D01*
G01*
X108400850Y-61201300D01*
G75*
G02*
X107962700Y-60763150I0J438150D01*
G01*
G37*
%TD.AperFunction*%
%TO.P,M1,2*%
%TO.N,ROW1*%
%TA.AperFunction,ComponentPad*%
G36*
G01*
X107962700Y-58731150D02*
X107962700Y-57854850D01*
G75*
G02*
X108400850Y-57416700I438150J0D01*
G01*
X109277150Y-57416700D01*
G75*
G02*
X109715300Y-57854850I0J-438150D01*
G01*
X109715300Y-58731150D01*
G75*
G02*
X109277150Y-59169300I-438150J0D01*
G01*
X108400850Y-59169300D01*
G75*
G02*
X107962700Y-58731150I0J438150D01*
G01*
G37*
%TD.AperFunction*%
%TO.P,M1,1*%
%TO.N,ROW0*%
%TA.AperFunction,ComponentPad*%
G36*
G01*
X107962700Y-56699150D02*
X107962700Y-55822850D01*
G75*
G02*
X108400850Y-55384700I438150J0D01*
G01*
X109277150Y-55384700D01*
G75*
G02*
X109715300Y-55822850I0J-438150D01*
G01*
X109715300Y-56699150D01*
G75*
G02*
X109277150Y-57137300I-438150J0D01*
G01*
X108400850Y-57137300D01*
G75*
G02*
X107962700Y-56699150I0J438150D01*
G01*
G37*
%TD.AperFunction*%
%TD*%
D11*
%TO.P,U1,24*%
%TO.N,Net-(U1-Pad24)*%
X182473600Y-16986250D03*
%TO.P,U1,12*%
%TO.N,ROW2*%
X167233600Y-44926250D03*
%TO.P,U1,23*%
%TO.N,GND*%
X182016400Y-19526250D03*
%TO.P,U1,22*%
%TO.N,Net-(SW1-Pad1)*%
X182473600Y-22066250D03*
%TO.P,U1,21*%
%TO.N,VCC*%
X182016400Y-24606250D03*
%TO.P,U1,20*%
%TO.N,ROW0*%
X182473600Y-27146250D03*
%TO.P,U1,19*%
%TO.N,COL0*%
X182016400Y-29686250D03*
%TO.P,U1,18*%
%TO.N,COL1*%
X182473600Y-32226250D03*
%TO.P,U1,17*%
%TO.N,COL2*%
X182016400Y-34766250D03*
%TO.P,U1,16*%
%TO.N,COL3*%
X182473600Y-37306250D03*
%TO.P,U1,15*%
%TO.N,COL4*%
X182016400Y-39846250D03*
%TO.P,U1,14*%
%TO.N,Net-(U1-Pad14)*%
X182473600Y-42386250D03*
%TO.P,U1,13*%
%TO.N,ROW1*%
X182016400Y-44926250D03*
%TO.P,U1,11*%
%TO.N,ROW3*%
X166776400Y-42386250D03*
%TO.P,U1,10*%
%TO.N,ROW4*%
X167233600Y-39846250D03*
%TO.P,U1,9*%
%TO.N,COL5*%
X166776400Y-37306250D03*
%TO.P,U1,8*%
%TO.N,COL6*%
X167233600Y-34766250D03*
%TO.P,U1,7*%
%TO.N,COL7*%
X166776400Y-32226250D03*
%TO.P,U1,6*%
%TO.N,COL8*%
X167233600Y-29686250D03*
%TO.P,U1,5*%
%TO.N,COL9*%
X166776400Y-27146250D03*
%TO.P,U1,4*%
%TO.N,GND*%
X167233600Y-24606250D03*
%TO.P,U1,3*%
X166776400Y-22066250D03*
%TO.P,U1,2*%
%TO.N,Net-(U1-Pad2)*%
X167233600Y-19526250D03*
D12*
%TO.P,U1,1*%
%TO.N,Net-(U1-Pad1)*%
X166776400Y-16986250D03*
%TD*%
%TO.P,MX25,2*%
%TO.N,Net-(D25-Pad2)*%
%TA.AperFunction,ComponentPad*%
G36*
G01*
X119898483Y-37897395D02*
X119897597Y-37897334D01*
G75*
G02*
X118852666Y-36697597I77403J1122334D01*
G01*
X118892666Y-36117597D01*
G75*
G02*
X120092403Y-35072666I1122334J-77403D01*
G01*
X120092403Y-35072666D01*
G75*
G02*
X121137334Y-36272403I-77403J-1122334D01*
G01*
X121097334Y-36852403D01*
G75*
G02*
X119897597Y-37897334I-1122334J77403D01*
G01*
G37*
%TD.AperFunction*%
D10*
X120015000Y-36195000D03*
%TO.P,MX25,1*%
%TO.N,COL5*%
%TA.AperFunction,ComponentPad*%
G36*
G01*
X112913688Y-39572350D02*
X112913683Y-39572345D01*
G75*
G02*
X112827655Y-37983683I751317J837345D01*
G01*
X114137657Y-36523683D01*
G75*
G02*
X115726319Y-36437655I837345J-751317D01*
G01*
X115726319Y-36437655D01*
G75*
G02*
X115812347Y-38026317I-751317J-837345D01*
G01*
X114502345Y-39486317D01*
G75*
G02*
X112913683Y-39572345I-837345J751317D01*
G01*
G37*
%TD.AperFunction*%
X114975000Y-37275000D03*
%TD*%
%TO.P,MX28,2*%
%TO.N,Net-(D28-Pad2)*%
%TA.AperFunction,ComponentPad*%
G36*
G01*
X124660983Y-95047395D02*
X124660097Y-95047334D01*
G75*
G02*
X123615166Y-93847597I77403J1122334D01*
G01*
X123655166Y-93267597D01*
G75*
G02*
X124854903Y-92222666I1122334J-77403D01*
G01*
X124854903Y-92222666D01*
G75*
G02*
X125899834Y-93422403I-77403J-1122334D01*
G01*
X125859834Y-94002403D01*
G75*
G02*
X124660097Y-95047334I-1122334J77403D01*
G01*
G37*
%TD.AperFunction*%
X124777500Y-93345000D03*
%TO.P,MX28,1*%
%TO.N,COL5*%
%TA.AperFunction,ComponentPad*%
G36*
G01*
X117676188Y-96722350D02*
X117676183Y-96722345D01*
G75*
G02*
X117590155Y-95133683I751317J837345D01*
G01*
X118900157Y-93673683D01*
G75*
G02*
X120488819Y-93587655I837345J-751317D01*
G01*
X120488819Y-93587655D01*
G75*
G02*
X120574847Y-95176317I-751317J-837345D01*
G01*
X119264845Y-96636317D01*
G75*
G02*
X117676183Y-96722345I-837345J751317D01*
G01*
G37*
%TD.AperFunction*%
X119737500Y-94425000D03*
%TD*%
%TO.P,MX46,2*%
%TO.N,Net-(D46-Pad2)*%
%TA.AperFunction,ComponentPad*%
G36*
G01*
X196098483Y-75997395D02*
X196097597Y-75997334D01*
G75*
G02*
X195052666Y-74797597I77403J1122334D01*
G01*
X195092666Y-74217597D01*
G75*
G02*
X196292403Y-73172666I1122334J-77403D01*
G01*
X196292403Y-73172666D01*
G75*
G02*
X197337334Y-74372403I-77403J-1122334D01*
G01*
X197297334Y-74952403D01*
G75*
G02*
X196097597Y-75997334I-1122334J77403D01*
G01*
G37*
%TD.AperFunction*%
X196215000Y-74295000D03*
%TO.P,MX46,1*%
%TO.N,COL9*%
%TA.AperFunction,ComponentPad*%
G36*
G01*
X189113688Y-77672350D02*
X189113683Y-77672345D01*
G75*
G02*
X189027655Y-76083683I751317J837345D01*
G01*
X190337657Y-74623683D01*
G75*
G02*
X191926319Y-74537655I837345J-751317D01*
G01*
X191926319Y-74537655D01*
G75*
G02*
X192012347Y-76126317I-751317J-837345D01*
G01*
X190702345Y-77586317D01*
G75*
G02*
X189113683Y-77672345I-837345J751317D01*
G01*
G37*
%TD.AperFunction*%
X191175000Y-75375000D03*
%TD*%
%TO.P,MX45,2*%
%TO.N,Net-(D45-Pad2)*%
%TA.AperFunction,ComponentPad*%
G36*
G01*
X196098483Y-56947395D02*
X196097597Y-56947334D01*
G75*
G02*
X195052666Y-55747597I77403J1122334D01*
G01*
X195092666Y-55167597D01*
G75*
G02*
X196292403Y-54122666I1122334J-77403D01*
G01*
X196292403Y-54122666D01*
G75*
G02*
X197337334Y-55322403I-77403J-1122334D01*
G01*
X197297334Y-55902403D01*
G75*
G02*
X196097597Y-56947334I-1122334J77403D01*
G01*
G37*
%TD.AperFunction*%
X196215000Y-55245000D03*
%TO.P,MX45,1*%
%TO.N,COL9*%
%TA.AperFunction,ComponentPad*%
G36*
G01*
X189113688Y-58622350D02*
X189113683Y-58622345D01*
G75*
G02*
X189027655Y-57033683I751317J837345D01*
G01*
X190337657Y-55573683D01*
G75*
G02*
X191926319Y-55487655I837345J-751317D01*
G01*
X191926319Y-55487655D01*
G75*
G02*
X192012347Y-57076317I-751317J-837345D01*
G01*
X190702345Y-58536317D01*
G75*
G02*
X189113683Y-58622345I-837345J751317D01*
G01*
G37*
%TD.AperFunction*%
X191175000Y-56325000D03*
%TD*%
%TO.P,MX44,2*%
%TO.N,Net-(D44-Pad2)*%
%TA.AperFunction,ComponentPad*%
G36*
G01*
X196098483Y-37897395D02*
X196097597Y-37897334D01*
G75*
G02*
X195052666Y-36697597I77403J1122334D01*
G01*
X195092666Y-36117597D01*
G75*
G02*
X196292403Y-35072666I1122334J-77403D01*
G01*
X196292403Y-35072666D01*
G75*
G02*
X197337334Y-36272403I-77403J-1122334D01*
G01*
X197297334Y-36852403D01*
G75*
G02*
X196097597Y-37897334I-1122334J77403D01*
G01*
G37*
%TD.AperFunction*%
X196215000Y-36195000D03*
%TO.P,MX44,1*%
%TO.N,COL9*%
%TA.AperFunction,ComponentPad*%
G36*
G01*
X189113688Y-39572350D02*
X189113683Y-39572345D01*
G75*
G02*
X189027655Y-37983683I751317J837345D01*
G01*
X190337657Y-36523683D01*
G75*
G02*
X191926319Y-36437655I837345J-751317D01*
G01*
X191926319Y-36437655D01*
G75*
G02*
X192012347Y-38026317I-751317J-837345D01*
G01*
X190702345Y-39486317D01*
G75*
G02*
X189113683Y-39572345I-837345J751317D01*
G01*
G37*
%TD.AperFunction*%
X191175000Y-37275000D03*
%TD*%
%TO.P,MX43,2*%
%TO.N,Net-(D43-Pad2)*%
%TA.AperFunction,ComponentPad*%
G36*
G01*
X196098483Y-18847395D02*
X196097597Y-18847334D01*
G75*
G02*
X195052666Y-17647597I77403J1122334D01*
G01*
X195092666Y-17067597D01*
G75*
G02*
X196292403Y-16022666I1122334J-77403D01*
G01*
X196292403Y-16022666D01*
G75*
G02*
X197337334Y-17222403I-77403J-1122334D01*
G01*
X197297334Y-17802403D01*
G75*
G02*
X196097597Y-18847334I-1122334J77403D01*
G01*
G37*
%TD.AperFunction*%
X196215000Y-17145000D03*
%TO.P,MX43,1*%
%TO.N,COL9*%
%TA.AperFunction,ComponentPad*%
G36*
G01*
X189113688Y-20522350D02*
X189113683Y-20522345D01*
G75*
G02*
X189027655Y-18933683I751317J837345D01*
G01*
X190337657Y-17473683D01*
G75*
G02*
X191926319Y-17387655I837345J-751317D01*
G01*
X191926319Y-17387655D01*
G75*
G02*
X192012347Y-18976317I-751317J-837345D01*
G01*
X190702345Y-20436317D01*
G75*
G02*
X189113683Y-20522345I-837345J751317D01*
G01*
G37*
%TD.AperFunction*%
X191175000Y-18225000D03*
%TD*%
%TO.P,MX42,2*%
%TO.N,Net-(D42-Pad2)*%
%TA.AperFunction,ComponentPad*%
G36*
G01*
X177048483Y-75997395D02*
X177047597Y-75997334D01*
G75*
G02*
X176002666Y-74797597I77403J1122334D01*
G01*
X176042666Y-74217597D01*
G75*
G02*
X177242403Y-73172666I1122334J-77403D01*
G01*
X177242403Y-73172666D01*
G75*
G02*
X178287334Y-74372403I-77403J-1122334D01*
G01*
X178247334Y-74952403D01*
G75*
G02*
X177047597Y-75997334I-1122334J77403D01*
G01*
G37*
%TD.AperFunction*%
X177165000Y-74295000D03*
%TO.P,MX42,1*%
%TO.N,COL8*%
%TA.AperFunction,ComponentPad*%
G36*
G01*
X170063688Y-77672350D02*
X170063683Y-77672345D01*
G75*
G02*
X169977655Y-76083683I751317J837345D01*
G01*
X171287657Y-74623683D01*
G75*
G02*
X172876319Y-74537655I837345J-751317D01*
G01*
X172876319Y-74537655D01*
G75*
G02*
X172962347Y-76126317I-751317J-837345D01*
G01*
X171652345Y-77586317D01*
G75*
G02*
X170063683Y-77672345I-837345J751317D01*
G01*
G37*
%TD.AperFunction*%
X172125000Y-75375000D03*
%TD*%
%TO.P,MX41,2*%
%TO.N,Net-(D41-Pad2)*%
%TA.AperFunction,ComponentPad*%
G36*
G01*
X177048483Y-56947395D02*
X177047597Y-56947334D01*
G75*
G02*
X176002666Y-55747597I77403J1122334D01*
G01*
X176042666Y-55167597D01*
G75*
G02*
X177242403Y-54122666I1122334J-77403D01*
G01*
X177242403Y-54122666D01*
G75*
G02*
X178287334Y-55322403I-77403J-1122334D01*
G01*
X178247334Y-55902403D01*
G75*
G02*
X177047597Y-56947334I-1122334J77403D01*
G01*
G37*
%TD.AperFunction*%
X177165000Y-55245000D03*
%TO.P,MX41,1*%
%TO.N,COL8*%
%TA.AperFunction,ComponentPad*%
G36*
G01*
X170063688Y-58622350D02*
X170063683Y-58622345D01*
G75*
G02*
X169977655Y-57033683I751317J837345D01*
G01*
X171287657Y-55573683D01*
G75*
G02*
X172876319Y-55487655I837345J-751317D01*
G01*
X172876319Y-55487655D01*
G75*
G02*
X172962347Y-57076317I-751317J-837345D01*
G01*
X171652345Y-58536317D01*
G75*
G02*
X170063683Y-58622345I-837345J751317D01*
G01*
G37*
%TD.AperFunction*%
X172125000Y-56325000D03*
%TD*%
%TO.P,MX40,2*%
%TO.N,Net-(D40-Pad2)*%
%TA.AperFunction,ComponentPad*%
G36*
G01*
X177048483Y-37897395D02*
X177047597Y-37897334D01*
G75*
G02*
X176002666Y-36697597I77403J1122334D01*
G01*
X176042666Y-36117597D01*
G75*
G02*
X177242403Y-35072666I1122334J-77403D01*
G01*
X177242403Y-35072666D01*
G75*
G02*
X178287334Y-36272403I-77403J-1122334D01*
G01*
X178247334Y-36852403D01*
G75*
G02*
X177047597Y-37897334I-1122334J77403D01*
G01*
G37*
%TD.AperFunction*%
X177165000Y-36195000D03*
%TO.P,MX40,1*%
%TO.N,COL8*%
%TA.AperFunction,ComponentPad*%
G36*
G01*
X170063688Y-39572350D02*
X170063683Y-39572345D01*
G75*
G02*
X169977655Y-37983683I751317J837345D01*
G01*
X171287657Y-36523683D01*
G75*
G02*
X172876319Y-36437655I837345J-751317D01*
G01*
X172876319Y-36437655D01*
G75*
G02*
X172962347Y-38026317I-751317J-837345D01*
G01*
X171652345Y-39486317D01*
G75*
G02*
X170063683Y-39572345I-837345J751317D01*
G01*
G37*
%TD.AperFunction*%
X172125000Y-37275000D03*
%TD*%
%TO.P,MX39,2*%
%TO.N,Net-(D39-Pad2)*%
%TA.AperFunction,ComponentPad*%
G36*
G01*
X177048483Y-18847395D02*
X177047597Y-18847334D01*
G75*
G02*
X176002666Y-17647597I77403J1122334D01*
G01*
X176042666Y-17067597D01*
G75*
G02*
X177242403Y-16022666I1122334J-77403D01*
G01*
X177242403Y-16022666D01*
G75*
G02*
X178287334Y-17222403I-77403J-1122334D01*
G01*
X178247334Y-17802403D01*
G75*
G02*
X177047597Y-18847334I-1122334J77403D01*
G01*
G37*
%TD.AperFunction*%
X177165000Y-17145000D03*
%TO.P,MX39,1*%
%TO.N,COL8*%
%TA.AperFunction,ComponentPad*%
G36*
G01*
X170063688Y-20522350D02*
X170063683Y-20522345D01*
G75*
G02*
X169977655Y-18933683I751317J837345D01*
G01*
X171287657Y-17473683D01*
G75*
G02*
X172876319Y-17387655I837345J-751317D01*
G01*
X172876319Y-17387655D01*
G75*
G02*
X172962347Y-18976317I-751317J-837345D01*
G01*
X171652345Y-20436317D01*
G75*
G02*
X170063683Y-20522345I-837345J751317D01*
G01*
G37*
%TD.AperFunction*%
X172125000Y-18225000D03*
%TD*%
%TO.P,MX37,2*%
%TO.N,Net-(D37-Pad2)*%
%TA.AperFunction,ComponentPad*%
G36*
G01*
X157998483Y-75997395D02*
X157997597Y-75997334D01*
G75*
G02*
X156952666Y-74797597I77403J1122334D01*
G01*
X156992666Y-74217597D01*
G75*
G02*
X158192403Y-73172666I1122334J-77403D01*
G01*
X158192403Y-73172666D01*
G75*
G02*
X159237334Y-74372403I-77403J-1122334D01*
G01*
X159197334Y-74952403D01*
G75*
G02*
X157997597Y-75997334I-1122334J77403D01*
G01*
G37*
%TD.AperFunction*%
X158115000Y-74295000D03*
%TO.P,MX37,1*%
%TO.N,COL7*%
%TA.AperFunction,ComponentPad*%
G36*
G01*
X151013688Y-77672350D02*
X151013683Y-77672345D01*
G75*
G02*
X150927655Y-76083683I751317J837345D01*
G01*
X152237657Y-74623683D01*
G75*
G02*
X153826319Y-74537655I837345J-751317D01*
G01*
X153826319Y-74537655D01*
G75*
G02*
X153912347Y-76126317I-751317J-837345D01*
G01*
X152602345Y-77586317D01*
G75*
G02*
X151013683Y-77672345I-837345J751317D01*
G01*
G37*
%TD.AperFunction*%
X153075000Y-75375000D03*
%TD*%
%TO.P,MX36,2*%
%TO.N,Net-(D36-Pad2)*%
%TA.AperFunction,ComponentPad*%
G36*
G01*
X157998483Y-56947395D02*
X157997597Y-56947334D01*
G75*
G02*
X156952666Y-55747597I77403J1122334D01*
G01*
X156992666Y-55167597D01*
G75*
G02*
X158192403Y-54122666I1122334J-77403D01*
G01*
X158192403Y-54122666D01*
G75*
G02*
X159237334Y-55322403I-77403J-1122334D01*
G01*
X159197334Y-55902403D01*
G75*
G02*
X157997597Y-56947334I-1122334J77403D01*
G01*
G37*
%TD.AperFunction*%
X158115000Y-55245000D03*
%TO.P,MX36,1*%
%TO.N,COL7*%
%TA.AperFunction,ComponentPad*%
G36*
G01*
X151013688Y-58622350D02*
X151013683Y-58622345D01*
G75*
G02*
X150927655Y-57033683I751317J837345D01*
G01*
X152237657Y-55573683D01*
G75*
G02*
X153826319Y-55487655I837345J-751317D01*
G01*
X153826319Y-55487655D01*
G75*
G02*
X153912347Y-57076317I-751317J-837345D01*
G01*
X152602345Y-58536317D01*
G75*
G02*
X151013683Y-58622345I-837345J751317D01*
G01*
G37*
%TD.AperFunction*%
X153075000Y-56325000D03*
%TD*%
%TO.P,MX35,2*%
%TO.N,Net-(D35-Pad2)*%
%TA.AperFunction,ComponentPad*%
G36*
G01*
X157998483Y-37897395D02*
X157997597Y-37897334D01*
G75*
G02*
X156952666Y-36697597I77403J1122334D01*
G01*
X156992666Y-36117597D01*
G75*
G02*
X158192403Y-35072666I1122334J-77403D01*
G01*
X158192403Y-35072666D01*
G75*
G02*
X159237334Y-36272403I-77403J-1122334D01*
G01*
X159197334Y-36852403D01*
G75*
G02*
X157997597Y-37897334I-1122334J77403D01*
G01*
G37*
%TD.AperFunction*%
X158115000Y-36195000D03*
%TO.P,MX35,1*%
%TO.N,COL7*%
%TA.AperFunction,ComponentPad*%
G36*
G01*
X151013688Y-39572350D02*
X151013683Y-39572345D01*
G75*
G02*
X150927655Y-37983683I751317J837345D01*
G01*
X152237657Y-36523683D01*
G75*
G02*
X153826319Y-36437655I837345J-751317D01*
G01*
X153826319Y-36437655D01*
G75*
G02*
X153912347Y-38026317I-751317J-837345D01*
G01*
X152602345Y-39486317D01*
G75*
G02*
X151013683Y-39572345I-837345J751317D01*
G01*
G37*
%TD.AperFunction*%
X153075000Y-37275000D03*
%TD*%
%TO.P,MX34,2*%
%TO.N,Net-(D34-Pad2)*%
%TA.AperFunction,ComponentPad*%
G36*
G01*
X157998483Y-18847395D02*
X157997597Y-18847334D01*
G75*
G02*
X156952666Y-17647597I77403J1122334D01*
G01*
X156992666Y-17067597D01*
G75*
G02*
X158192403Y-16022666I1122334J-77403D01*
G01*
X158192403Y-16022666D01*
G75*
G02*
X159237334Y-17222403I-77403J-1122334D01*
G01*
X159197334Y-17802403D01*
G75*
G02*
X157997597Y-18847334I-1122334J77403D01*
G01*
G37*
%TD.AperFunction*%
X158115000Y-17145000D03*
%TO.P,MX34,1*%
%TO.N,COL7*%
%TA.AperFunction,ComponentPad*%
G36*
G01*
X151013688Y-20522350D02*
X151013683Y-20522345D01*
G75*
G02*
X150927655Y-18933683I751317J837345D01*
G01*
X152237657Y-17473683D01*
G75*
G02*
X153826319Y-17387655I837345J-751317D01*
G01*
X153826319Y-17387655D01*
G75*
G02*
X153912347Y-18976317I-751317J-837345D01*
G01*
X152602345Y-20436317D01*
G75*
G02*
X151013683Y-20522345I-837345J751317D01*
G01*
G37*
%TD.AperFunction*%
X153075000Y-18225000D03*
%TD*%
%TO.P,MX33,2*%
%TO.N,Net-(D33-Pad2)*%
%TA.AperFunction,ComponentPad*%
G36*
G01*
X148473483Y-95047395D02*
X148472597Y-95047334D01*
G75*
G02*
X147427666Y-93847597I77403J1122334D01*
G01*
X147467666Y-93267597D01*
G75*
G02*
X148667403Y-92222666I1122334J-77403D01*
G01*
X148667403Y-92222666D01*
G75*
G02*
X149712334Y-93422403I-77403J-1122334D01*
G01*
X149672334Y-94002403D01*
G75*
G02*
X148472597Y-95047334I-1122334J77403D01*
G01*
G37*
%TD.AperFunction*%
X148590000Y-93345000D03*
%TO.P,MX33,1*%
%TO.N,COL6*%
%TA.AperFunction,ComponentPad*%
G36*
G01*
X141488688Y-96722350D02*
X141488683Y-96722345D01*
G75*
G02*
X141402655Y-95133683I751317J837345D01*
G01*
X142712657Y-93673683D01*
G75*
G02*
X144301319Y-93587655I837345J-751317D01*
G01*
X144301319Y-93587655D01*
G75*
G02*
X144387347Y-95176317I-751317J-837345D01*
G01*
X143077345Y-96636317D01*
G75*
G02*
X141488683Y-96722345I-837345J751317D01*
G01*
G37*
%TD.AperFunction*%
X143550000Y-94425000D03*
%TD*%
%TO.P,MX32,2*%
%TO.N,Net-(D32-Pad2)*%
%TA.AperFunction,ComponentPad*%
G36*
G01*
X138948483Y-75997395D02*
X138947597Y-75997334D01*
G75*
G02*
X137902666Y-74797597I77403J1122334D01*
G01*
X137942666Y-74217597D01*
G75*
G02*
X139142403Y-73172666I1122334J-77403D01*
G01*
X139142403Y-73172666D01*
G75*
G02*
X140187334Y-74372403I-77403J-1122334D01*
G01*
X140147334Y-74952403D01*
G75*
G02*
X138947597Y-75997334I-1122334J77403D01*
G01*
G37*
%TD.AperFunction*%
X139065000Y-74295000D03*
%TO.P,MX32,1*%
%TO.N,COL6*%
%TA.AperFunction,ComponentPad*%
G36*
G01*
X131963688Y-77672350D02*
X131963683Y-77672345D01*
G75*
G02*
X131877655Y-76083683I751317J837345D01*
G01*
X133187657Y-74623683D01*
G75*
G02*
X134776319Y-74537655I837345J-751317D01*
G01*
X134776319Y-74537655D01*
G75*
G02*
X134862347Y-76126317I-751317J-837345D01*
G01*
X133552345Y-77586317D01*
G75*
G02*
X131963683Y-77672345I-837345J751317D01*
G01*
G37*
%TD.AperFunction*%
X134025000Y-75375000D03*
%TD*%
%TO.P,MX31,2*%
%TO.N,Net-(D31-Pad2)*%
%TA.AperFunction,ComponentPad*%
G36*
G01*
X138948483Y-56947395D02*
X138947597Y-56947334D01*
G75*
G02*
X137902666Y-55747597I77403J1122334D01*
G01*
X137942666Y-55167597D01*
G75*
G02*
X139142403Y-54122666I1122334J-77403D01*
G01*
X139142403Y-54122666D01*
G75*
G02*
X140187334Y-55322403I-77403J-1122334D01*
G01*
X140147334Y-55902403D01*
G75*
G02*
X138947597Y-56947334I-1122334J77403D01*
G01*
G37*
%TD.AperFunction*%
X139065000Y-55245000D03*
%TO.P,MX31,1*%
%TO.N,COL6*%
%TA.AperFunction,ComponentPad*%
G36*
G01*
X131963688Y-58622350D02*
X131963683Y-58622345D01*
G75*
G02*
X131877655Y-57033683I751317J837345D01*
G01*
X133187657Y-55573683D01*
G75*
G02*
X134776319Y-55487655I837345J-751317D01*
G01*
X134776319Y-55487655D01*
G75*
G02*
X134862347Y-57076317I-751317J-837345D01*
G01*
X133552345Y-58536317D01*
G75*
G02*
X131963683Y-58622345I-837345J751317D01*
G01*
G37*
%TD.AperFunction*%
X134025000Y-56325000D03*
%TD*%
%TO.P,MX30,2*%
%TO.N,Net-(D30-Pad2)*%
%TA.AperFunction,ComponentPad*%
G36*
G01*
X138948483Y-37897395D02*
X138947597Y-37897334D01*
G75*
G02*
X137902666Y-36697597I77403J1122334D01*
G01*
X137942666Y-36117597D01*
G75*
G02*
X139142403Y-35072666I1122334J-77403D01*
G01*
X139142403Y-35072666D01*
G75*
G02*
X140187334Y-36272403I-77403J-1122334D01*
G01*
X140147334Y-36852403D01*
G75*
G02*
X138947597Y-37897334I-1122334J77403D01*
G01*
G37*
%TD.AperFunction*%
X139065000Y-36195000D03*
%TO.P,MX30,1*%
%TO.N,COL6*%
%TA.AperFunction,ComponentPad*%
G36*
G01*
X131963688Y-39572350D02*
X131963683Y-39572345D01*
G75*
G02*
X131877655Y-37983683I751317J837345D01*
G01*
X133187657Y-36523683D01*
G75*
G02*
X134776319Y-36437655I837345J-751317D01*
G01*
X134776319Y-36437655D01*
G75*
G02*
X134862347Y-38026317I-751317J-837345D01*
G01*
X133552345Y-39486317D01*
G75*
G02*
X131963683Y-39572345I-837345J751317D01*
G01*
G37*
%TD.AperFunction*%
X134025000Y-37275000D03*
%TD*%
%TO.P,MX29,2*%
%TO.N,Net-(D29-Pad2)*%
%TA.AperFunction,ComponentPad*%
G36*
G01*
X138948483Y-18847395D02*
X138947597Y-18847334D01*
G75*
G02*
X137902666Y-17647597I77403J1122334D01*
G01*
X137942666Y-17067597D01*
G75*
G02*
X139142403Y-16022666I1122334J-77403D01*
G01*
X139142403Y-16022666D01*
G75*
G02*
X140187334Y-17222403I-77403J-1122334D01*
G01*
X140147334Y-17802403D01*
G75*
G02*
X138947597Y-18847334I-1122334J77403D01*
G01*
G37*
%TD.AperFunction*%
X139065000Y-17145000D03*
%TO.P,MX29,1*%
%TO.N,COL6*%
%TA.AperFunction,ComponentPad*%
G36*
G01*
X131963688Y-20522350D02*
X131963683Y-20522345D01*
G75*
G02*
X131877655Y-18933683I751317J837345D01*
G01*
X133187657Y-17473683D01*
G75*
G02*
X134776319Y-17387655I837345J-751317D01*
G01*
X134776319Y-17387655D01*
G75*
G02*
X134862347Y-18976317I-751317J-837345D01*
G01*
X133552345Y-20436317D01*
G75*
G02*
X131963683Y-20522345I-837345J751317D01*
G01*
G37*
%TD.AperFunction*%
X134025000Y-18225000D03*
%TD*%
%TO.P,MX27,2*%
%TO.N,Net-(D27-Pad2)*%
%TA.AperFunction,ComponentPad*%
G36*
G01*
X119898483Y-75997395D02*
X119897597Y-75997334D01*
G75*
G02*
X118852666Y-74797597I77403J1122334D01*
G01*
X118892666Y-74217597D01*
G75*
G02*
X120092403Y-73172666I1122334J-77403D01*
G01*
X120092403Y-73172666D01*
G75*
G02*
X121137334Y-74372403I-77403J-1122334D01*
G01*
X121097334Y-74952403D01*
G75*
G02*
X119897597Y-75997334I-1122334J77403D01*
G01*
G37*
%TD.AperFunction*%
X120015000Y-74295000D03*
%TO.P,MX27,1*%
%TO.N,COL5*%
%TA.AperFunction,ComponentPad*%
G36*
G01*
X112913688Y-77672350D02*
X112913683Y-77672345D01*
G75*
G02*
X112827655Y-76083683I751317J837345D01*
G01*
X114137657Y-74623683D01*
G75*
G02*
X115726319Y-74537655I837345J-751317D01*
G01*
X115726319Y-74537655D01*
G75*
G02*
X115812347Y-76126317I-751317J-837345D01*
G01*
X114502345Y-77586317D01*
G75*
G02*
X112913683Y-77672345I-837345J751317D01*
G01*
G37*
%TD.AperFunction*%
X114975000Y-75375000D03*
%TD*%
%TO.P,MX26,2*%
%TO.N,Net-(D26-Pad2)*%
%TA.AperFunction,ComponentPad*%
G36*
G01*
X119898483Y-56947395D02*
X119897597Y-56947334D01*
G75*
G02*
X118852666Y-55747597I77403J1122334D01*
G01*
X118892666Y-55167597D01*
G75*
G02*
X120092403Y-54122666I1122334J-77403D01*
G01*
X120092403Y-54122666D01*
G75*
G02*
X121137334Y-55322403I-77403J-1122334D01*
G01*
X121097334Y-55902403D01*
G75*
G02*
X119897597Y-56947334I-1122334J77403D01*
G01*
G37*
%TD.AperFunction*%
X120015000Y-55245000D03*
%TO.P,MX26,1*%
%TO.N,COL5*%
%TA.AperFunction,ComponentPad*%
G36*
G01*
X112913688Y-58622350D02*
X112913683Y-58622345D01*
G75*
G02*
X112827655Y-57033683I751317J837345D01*
G01*
X114137657Y-55573683D01*
G75*
G02*
X115726319Y-55487655I837345J-751317D01*
G01*
X115726319Y-55487655D01*
G75*
G02*
X115812347Y-57076317I-751317J-837345D01*
G01*
X114502345Y-58536317D01*
G75*
G02*
X112913683Y-58622345I-837345J751317D01*
G01*
G37*
%TD.AperFunction*%
X114975000Y-56325000D03*
%TD*%
%TO.P,MX24,2*%
%TO.N,Net-(D24-Pad2)*%
%TA.AperFunction,ComponentPad*%
G36*
G01*
X119898483Y-18847395D02*
X119897597Y-18847334D01*
G75*
G02*
X118852666Y-17647597I77403J1122334D01*
G01*
X118892666Y-17067597D01*
G75*
G02*
X120092403Y-16022666I1122334J-77403D01*
G01*
X120092403Y-16022666D01*
G75*
G02*
X121137334Y-17222403I-77403J-1122334D01*
G01*
X121097334Y-17802403D01*
G75*
G02*
X119897597Y-18847334I-1122334J77403D01*
G01*
G37*
%TD.AperFunction*%
X120015000Y-17145000D03*
%TO.P,MX24,1*%
%TO.N,COL5*%
%TA.AperFunction,ComponentPad*%
G36*
G01*
X112913688Y-20522350D02*
X112913683Y-20522345D01*
G75*
G02*
X112827655Y-18933683I751317J837345D01*
G01*
X114137657Y-17473683D01*
G75*
G02*
X115726319Y-17387655I837345J-751317D01*
G01*
X115726319Y-17387655D01*
G75*
G02*
X115812347Y-18976317I-751317J-837345D01*
G01*
X114502345Y-20436317D01*
G75*
G02*
X112913683Y-20522345I-837345J751317D01*
G01*
G37*
%TD.AperFunction*%
X114975000Y-18225000D03*
%TD*%
D13*
%TO.P,D46,1*%
%TO.N,ROW3*%
X201612500Y-83275000D03*
D14*
%TO.P,D46,2*%
%TO.N,Net-(D46-Pad2)*%
X201612500Y-75475000D03*
%TD*%
D13*
%TO.P,D45,1*%
%TO.N,ROW2*%
X201612500Y-64225000D03*
D14*
%TO.P,D45,2*%
%TO.N,Net-(D45-Pad2)*%
X201612500Y-56425000D03*
%TD*%
D13*
%TO.P,D44,1*%
%TO.N,ROW1*%
X201612500Y-45175000D03*
D14*
%TO.P,D44,2*%
%TO.N,Net-(D44-Pad2)*%
X201612500Y-37375000D03*
%TD*%
D13*
%TO.P,D43,1*%
%TO.N,ROW0*%
X201612500Y-26125000D03*
D14*
%TO.P,D43,2*%
%TO.N,Net-(D43-Pad2)*%
X201612500Y-18325000D03*
%TD*%
D13*
%TO.P,D42,1*%
%TO.N,ROW3*%
X182562500Y-83272000D03*
D14*
%TO.P,D42,2*%
%TO.N,Net-(D42-Pad2)*%
X182562500Y-75472000D03*
%TD*%
D13*
%TO.P,D41,1*%
%TO.N,ROW2*%
X182562500Y-64225000D03*
D14*
%TO.P,D41,2*%
%TO.N,Net-(D41-Pad2)*%
X182562500Y-56425000D03*
%TD*%
D13*
%TO.P,D40,1*%
%TO.N,ROW1*%
X170725000Y-49212500D03*
D14*
%TO.P,D40,2*%
%TO.N,Net-(D40-Pad2)*%
X178525000Y-49212500D03*
%TD*%
D13*
%TO.P,D39,1*%
%TO.N,ROW0*%
X170725000Y-30162500D03*
D14*
%TO.P,D39,2*%
%TO.N,Net-(D39-Pad2)*%
X178525000Y-30162500D03*
%TD*%
D13*
%TO.P,D38,1*%
%TO.N,ROW4*%
X157162500Y-102325000D03*
D14*
%TO.P,D38,2*%
%TO.N,Net-(D38-Pad2)*%
X157162500Y-94525000D03*
%TD*%
D13*
%TO.P,D37,1*%
%TO.N,ROW3*%
X163512500Y-83275000D03*
D14*
%TO.P,D37,2*%
%TO.N,Net-(D37-Pad2)*%
X163512500Y-75475000D03*
%TD*%
D13*
%TO.P,D36,1*%
%TO.N,ROW2*%
X163512500Y-64225000D03*
D14*
%TO.P,D36,2*%
%TO.N,Net-(D36-Pad2)*%
X163512500Y-56425000D03*
%TD*%
D13*
%TO.P,D35,1*%
%TO.N,ROW1*%
X163512500Y-45175000D03*
D14*
%TO.P,D35,2*%
%TO.N,Net-(D35-Pad2)*%
X163512500Y-37375000D03*
%TD*%
D13*
%TO.P,D34,1*%
%TO.N,ROW0*%
X163512500Y-26125000D03*
D14*
%TO.P,D34,2*%
%TO.N,Net-(D34-Pad2)*%
X163512500Y-18325000D03*
%TD*%
D13*
%TO.P,D33,1*%
%TO.N,ROW4*%
X153987500Y-102325000D03*
D14*
%TO.P,D33,2*%
%TO.N,Net-(D33-Pad2)*%
X153987500Y-94525000D03*
%TD*%
D13*
%TO.P,D32,1*%
%TO.N,ROW3*%
X144462500Y-83275000D03*
D14*
%TO.P,D32,2*%
%TO.N,Net-(D32-Pad2)*%
X144462500Y-75475000D03*
%TD*%
D13*
%TO.P,D31,1*%
%TO.N,ROW2*%
X144462500Y-64225000D03*
D14*
%TO.P,D31,2*%
%TO.N,Net-(D31-Pad2)*%
X144462500Y-56425000D03*
%TD*%
D13*
%TO.P,D30,1*%
%TO.N,ROW1*%
X144462500Y-45175000D03*
D14*
%TO.P,D30,2*%
%TO.N,Net-(D30-Pad2)*%
X144462500Y-37375000D03*
%TD*%
D13*
%TO.P,D29,1*%
%TO.N,ROW0*%
X144462500Y-26125000D03*
D14*
%TO.P,D29,2*%
%TO.N,Net-(D29-Pad2)*%
X144462500Y-18325000D03*
%TD*%
D13*
%TO.P,D28,1*%
%TO.N,ROW4*%
X130175000Y-102325000D03*
D14*
%TO.P,D28,2*%
%TO.N,Net-(D28-Pad2)*%
X130175000Y-94525000D03*
%TD*%
D13*
%TO.P,D27,1*%
%TO.N,ROW3*%
X125412500Y-83275000D03*
D14*
%TO.P,D27,2*%
%TO.N,Net-(D27-Pad2)*%
X125412500Y-75475000D03*
%TD*%
D13*
%TO.P,D26,1*%
%TO.N,ROW2*%
X125412500Y-64225000D03*
D14*
%TO.P,D26,2*%
%TO.N,Net-(D26-Pad2)*%
X125412500Y-56425000D03*
%TD*%
D13*
%TO.P,D25,1*%
%TO.N,ROW1*%
X114368750Y-49212500D03*
D14*
%TO.P,D25,2*%
%TO.N,Net-(D25-Pad2)*%
X122168750Y-49212500D03*
%TD*%
D13*
%TO.P,D24,1*%
%TO.N,ROW0*%
X125412500Y-26125000D03*
D14*
%TO.P,D24,2*%
%TO.N,Net-(D24-Pad2)*%
X125412500Y-18325000D03*
%TD*%
D15*
%TO.N,ROW0*%
X110363000Y-54483000D02*
X110363000Y-20320000D01*
X110363000Y-20320000D02*
X115189000Y-15494000D01*
X120512962Y-15494000D02*
X123952000Y-18933038D01*
X115189000Y-15494000D02*
X120512962Y-15494000D01*
X123952000Y-24664500D02*
X125412500Y-26125000D01*
X123952000Y-18933038D02*
X123952000Y-24664500D01*
X108839000Y-56007000D02*
X110363000Y-54483000D01*
X108839000Y-56261000D02*
X108839000Y-56007000D01*
%TO.N,ROW2*%
X125412500Y-64225000D02*
X125412500Y-64198500D01*
X163512500Y-64225000D02*
X166455979Y-64225000D01*
X166455979Y-64225000D02*
X167434979Y-63246000D01*
X167434979Y-45127629D02*
X167233600Y-44926250D01*
X167434979Y-63246000D02*
X167434979Y-45127629D01*
%TO.N,ROW3*%
X125412500Y-83275000D02*
X125412500Y-83248500D01*
X163512500Y-83275000D02*
X167888989Y-78898511D01*
X167888989Y-48314378D02*
X168154943Y-48048425D01*
X167888989Y-78898511D02*
X167888989Y-48314378D01*
X168154943Y-48048425D02*
X169906980Y-46296388D01*
X169906980Y-45516830D02*
X166776400Y-42386250D01*
X169906980Y-46296388D02*
X169906980Y-45516830D01*
%TO.N,ROW4*%
X130175000Y-102325000D02*
X130138000Y-102325000D01*
X157898962Y-102325000D02*
X157162500Y-102325000D01*
X168342999Y-90419501D02*
X165100000Y-93662500D01*
X165100000Y-93662500D02*
X165100000Y-95123962D01*
X168342999Y-48502435D02*
X168342999Y-90419501D01*
X170360990Y-46484444D02*
X168342999Y-48502435D01*
X170360990Y-43868990D02*
X170360990Y-46484444D01*
X165100000Y-95123962D02*
X157898962Y-102325000D01*
X167233600Y-40741600D02*
X170360990Y-43868990D01*
X167233600Y-39846250D02*
X167233600Y-40741600D01*
%TO.N,Net-(D25-Pad2)*%
X119975000Y-47018750D02*
X122168750Y-49212500D01*
X119975000Y-36775000D02*
X119975000Y-47018750D01*
%TO.N,Net-(D39-Pad2)*%
X177125000Y-28762500D02*
X178525000Y-30162500D01*
X177125000Y-17725000D02*
X177125000Y-28762500D01*
%TO.N,Net-(D40-Pad2)*%
X175690066Y-36775000D02*
X172212000Y-40253066D01*
X177125000Y-36775000D02*
X175690066Y-36775000D01*
X172212000Y-42899500D02*
X178525000Y-49212500D01*
X172212000Y-40253066D02*
X172212000Y-42899500D01*
%TO.N,COL5*%
X113665000Y-88352500D02*
X119737500Y-94425000D01*
X113665000Y-76835000D02*
X113665000Y-88352500D01*
X113665000Y-57785000D02*
X113665000Y-76835000D01*
X112712500Y-37782500D02*
X113665000Y-38735000D01*
X112712500Y-25400000D02*
X112712500Y-37782500D01*
X113665000Y-24447500D02*
X112712500Y-25400000D01*
X113665000Y-19685000D02*
X113665000Y-24447500D01*
X113665000Y-38735000D02*
X113665000Y-43497500D01*
X113665000Y-43497500D02*
X112712500Y-44450000D01*
X112712500Y-56832500D02*
X113665000Y-57785000D01*
X112712500Y-44450000D02*
X112712500Y-56832500D01*
%TO.N,COL6*%
X132715000Y-76835000D02*
X132715000Y-83590000D01*
X132715000Y-83590000D02*
X143550000Y-94425000D01*
X132715000Y-19685000D02*
X132715000Y-22066250D01*
X132715000Y-38735000D02*
X132715000Y-57785000D01*
X132715000Y-57785000D02*
X132715000Y-76835000D01*
X132715000Y-23241000D02*
X132715000Y-38735000D01*
X132715000Y-22066250D02*
X132715000Y-23241000D01*
%TO.N,COL7*%
X151765000Y-83590000D02*
X162600000Y-94425000D01*
X151765000Y-76835000D02*
X151765000Y-83590000D01*
X151765000Y-19685000D02*
X151765000Y-38735000D01*
X151765000Y-38735000D02*
X151765000Y-57785000D01*
X151765000Y-57785000D02*
X151765000Y-76835000D01*
%TO.N,COL8*%
X170815000Y-57785000D02*
X170815000Y-76835000D01*
X170815000Y-19685000D02*
X170815000Y-27622500D01*
X170815000Y-27622500D02*
X169068750Y-29368750D01*
X169068750Y-36988750D02*
X170815000Y-38735000D01*
X169068750Y-29368750D02*
X169068750Y-36988750D01*
X170815000Y-38735000D02*
X170815000Y-46672500D01*
X170815000Y-46672500D02*
X169068750Y-48418750D01*
X169068750Y-56038750D02*
X170815000Y-57785000D01*
X169068750Y-48418750D02*
X169068750Y-56038750D01*
X168751250Y-29686250D02*
X169068750Y-29368750D01*
X167233600Y-29686250D02*
X168751250Y-29686250D01*
%TO.N,COL9*%
X189865000Y-57785000D02*
X189865000Y-76835000D01*
X189865000Y-38735000D02*
X189865000Y-57785000D01*
X189865000Y-19685000D02*
X189865000Y-38735000D01*
%TO.N,COL4*%
X182016400Y-40742562D02*
X182016400Y-39846250D01*
X180813099Y-41945863D02*
X182016400Y-40742562D01*
X108839000Y-83439000D02*
X108966000Y-83439000D01*
X108966000Y-83439000D02*
X109588300Y-84061300D01*
X109588300Y-84061300D02*
X109588300Y-100857051D01*
X115093750Y-106362500D02*
X170656250Y-106362500D01*
X170656250Y-106362500D02*
X173831250Y-103187500D01*
X173831250Y-103187500D02*
X173831250Y-89058750D01*
X173831250Y-89058750D02*
X174783750Y-88106250D01*
X174783750Y-88106250D02*
X184943750Y-88106250D01*
X184943750Y-88106250D02*
X187325000Y-85725000D01*
X180813099Y-45812099D02*
X180813099Y-41945863D01*
X187325000Y-85725000D02*
X187325000Y-52324000D01*
X109588300Y-100857051D02*
X115093750Y-106362500D01*
X187325000Y-52324000D02*
X180813099Y-45812099D01*
%TO.N,COL3*%
X110042310Y-82610310D02*
X110042310Y-100668994D01*
X108839000Y-81407000D02*
X110042310Y-82610310D01*
X110042310Y-100668994D02*
X115281806Y-105908490D01*
X115281806Y-105908490D02*
X170468194Y-105908490D01*
X173377240Y-102999444D02*
X173377240Y-88870693D01*
X173377240Y-88870693D02*
X174595693Y-87652240D01*
X170468194Y-105908490D02*
X173377240Y-102999444D01*
X174595693Y-87652240D02*
X184755694Y-87652240D01*
X184755694Y-87652240D02*
X186870990Y-85536944D01*
X186870990Y-85536944D02*
X186870990Y-52512056D01*
X181894788Y-37306250D02*
X182473600Y-37306250D01*
X178502999Y-44144065D02*
X178502999Y-40698039D01*
X178502999Y-40698039D02*
X181894788Y-37306250D01*
X186870990Y-52512056D02*
X178502999Y-44144065D01*
%TO.N,COL2*%
X108839000Y-79375000D02*
X110496320Y-81032320D01*
X170280138Y-105454480D02*
X172923230Y-102811388D01*
X186416980Y-52700112D02*
X178048989Y-44332122D01*
X180843986Y-35938664D02*
X182016400Y-34766250D01*
X110496320Y-81032320D02*
X110496320Y-100480938D01*
X186416980Y-85348888D02*
X186416980Y-52700112D01*
X110496320Y-100480938D02*
X115469862Y-105454480D01*
X115469862Y-105454480D02*
X170280138Y-105454480D01*
X178314943Y-40244029D02*
X180843986Y-37714986D01*
X172923230Y-102811388D02*
X172923230Y-88682636D01*
X174407636Y-87198230D02*
X184567638Y-87198230D01*
X172923230Y-88682636D02*
X174407636Y-87198230D01*
X184567638Y-87198230D02*
X186416980Y-85348888D01*
X178048989Y-44332122D02*
X178048989Y-40509982D01*
X180843986Y-37714986D02*
X180843986Y-35938664D01*
X178048989Y-40509982D02*
X178314943Y-40244029D01*
%TO.N,COL1*%
X180389976Y-34309874D02*
X182473600Y-32226250D01*
X177594979Y-40321927D02*
X180389976Y-37526930D01*
X108839000Y-77343000D02*
X110331250Y-78835250D01*
X115657918Y-105000470D02*
X170092082Y-105000470D01*
X180389976Y-37526930D02*
X180389976Y-34309874D01*
X170092082Y-105000470D02*
X172469220Y-102623332D01*
X110331250Y-78835250D02*
X110331250Y-80225184D01*
X110331250Y-80225184D02*
X111125000Y-81018934D01*
X172469220Y-102623332D02*
X172469220Y-88494579D01*
X172469220Y-88494579D02*
X174219579Y-86744220D01*
X111125000Y-100467552D02*
X115657918Y-105000470D01*
X174219579Y-86744220D02*
X184379582Y-86744220D01*
X184379582Y-86744220D02*
X185962970Y-85160832D01*
X177594979Y-44520179D02*
X177594979Y-40321927D01*
X185962970Y-85160832D02*
X185962970Y-52888169D01*
X111125000Y-81018934D02*
X111125000Y-100467552D01*
X185962970Y-52888169D02*
X177594979Y-44520179D01*
%TO.N,COL0*%
X108839000Y-75311000D02*
X110785260Y-77257260D01*
X110785260Y-80037128D02*
X111579010Y-80830877D01*
X110785260Y-77257260D02*
X110785260Y-80037128D01*
X111579010Y-100276010D02*
X115849460Y-104546460D01*
X111579010Y-80830877D02*
X111579010Y-100276010D01*
X115849460Y-104546460D02*
X169904026Y-104546460D01*
X172015210Y-88306522D02*
X172281164Y-88040569D01*
X172015210Y-102435276D02*
X172015210Y-88306522D01*
X169904026Y-104546460D02*
X172015210Y-102435276D01*
X172281164Y-88040569D02*
X174031522Y-86290210D01*
X174031522Y-86290210D02*
X184191526Y-86290210D01*
X184191526Y-86290210D02*
X185508960Y-84972776D01*
X185508960Y-84972776D02*
X185508960Y-53076226D01*
X177140969Y-40133870D02*
X177406923Y-39867917D01*
X177140969Y-44708236D02*
X177140969Y-40133870D01*
X185508960Y-53076226D02*
X177140969Y-44708236D01*
X179935966Y-31766684D02*
X182016400Y-29686250D01*
X179935966Y-37338874D02*
X179935966Y-31766684D01*
X177406923Y-39867917D02*
X179935966Y-37338874D01*
%TO.N,GND*%
X166776400Y-24149050D02*
X167233600Y-24606250D01*
X166776400Y-22066250D02*
X166776400Y-24149050D01*
%TD*%
M02*
