%TF.GenerationSoftware,KiCad,Pcbnew,(5.1.12)-1*%
%TF.CreationDate,2022-01-01T22:18:58-05:00*%
%TF.ProjectId,my-keeb-2,6d792d6b-6565-4622-9d32-2e6b69636164,rev?*%
%TF.SameCoordinates,Original*%
%TF.FileFunction,Soldermask,Top*%
%TF.FilePolarity,Negative*%
%FSLAX46Y46*%
G04 Gerber Fmt 4.6, Leading zero omitted, Abs format (unit mm)*
G04 Created by KiCad (PCBNEW (5.1.12)-1) date 2022-01-01 22:18:58*
%MOMM*%
%LPD*%
G01*
G04 APERTURE LIST*
%ADD10C,3.987800*%
%ADD11C,1.750000*%
%ADD12C,1.752600*%
%ADD13R,1.752600X1.752600*%
%ADD14R,1.600000X1.600000*%
%ADD15C,1.600000*%
G04 APERTURE END LIST*
D10*
%TO.C,MX38*%
X165100000Y-98425000D03*
D11*
X160020000Y-98425000D03*
X170180000Y-98425000D03*
%TD*%
%TO.C,M3*%
G36*
G01*
X109715300Y-36772850D02*
X109715300Y-37649150D01*
G75*
G02*
X109277150Y-38087300I-438150J0D01*
G01*
X108400850Y-38087300D01*
G75*
G02*
X107962700Y-37649150I0J438150D01*
G01*
X107962700Y-36772850D01*
G75*
G02*
X108400850Y-36334700I438150J0D01*
G01*
X109277150Y-36334700D01*
G75*
G02*
X109715300Y-36772850I0J-438150D01*
G01*
G37*
G36*
G01*
X109715300Y-38804850D02*
X109715300Y-39681150D01*
G75*
G02*
X109277150Y-40119300I-438150J0D01*
G01*
X108400850Y-40119300D01*
G75*
G02*
X107962700Y-39681150I0J438150D01*
G01*
X107962700Y-38804850D01*
G75*
G02*
X108400850Y-38366700I438150J0D01*
G01*
X109277150Y-38366700D01*
G75*
G02*
X109715300Y-38804850I0J-438150D01*
G01*
G37*
G36*
G01*
X109715300Y-40836850D02*
X109715300Y-41713150D01*
G75*
G02*
X109277150Y-42151300I-438150J0D01*
G01*
X108400850Y-42151300D01*
G75*
G02*
X107962700Y-41713150I0J438150D01*
G01*
X107962700Y-40836850D01*
G75*
G02*
X108400850Y-40398700I438150J0D01*
G01*
X109277150Y-40398700D01*
G75*
G02*
X109715300Y-40836850I0J-438150D01*
G01*
G37*
G36*
G01*
X109715300Y-42868850D02*
X109715300Y-43745150D01*
G75*
G02*
X109277150Y-44183300I-438150J0D01*
G01*
X108400850Y-44183300D01*
G75*
G02*
X107962700Y-43745150I0J438150D01*
G01*
X107962700Y-42868850D01*
G75*
G02*
X108400850Y-42430700I438150J0D01*
G01*
X109277150Y-42430700D01*
G75*
G02*
X109715300Y-42868850I0J-438150D01*
G01*
G37*
G36*
G01*
X109715300Y-44900850D02*
X109715300Y-45777150D01*
G75*
G02*
X109277150Y-46215300I-438150J0D01*
G01*
X108400850Y-46215300D01*
G75*
G02*
X107962700Y-45777150I0J438150D01*
G01*
X107962700Y-44900850D01*
G75*
G02*
X108400850Y-44462700I438150J0D01*
G01*
X109277150Y-44462700D01*
G75*
G02*
X109715300Y-44900850I0J-438150D01*
G01*
G37*
%TD*%
%TO.C,M2*%
G36*
G01*
X107962700Y-83877150D02*
X107962700Y-83000850D01*
G75*
G02*
X108400850Y-82562700I438150J0D01*
G01*
X109277150Y-82562700D01*
G75*
G02*
X109715300Y-83000850I0J-438150D01*
G01*
X109715300Y-83877150D01*
G75*
G02*
X109277150Y-84315300I-438150J0D01*
G01*
X108400850Y-84315300D01*
G75*
G02*
X107962700Y-83877150I0J438150D01*
G01*
G37*
G36*
G01*
X107962700Y-81845150D02*
X107962700Y-80968850D01*
G75*
G02*
X108400850Y-80530700I438150J0D01*
G01*
X109277150Y-80530700D01*
G75*
G02*
X109715300Y-80968850I0J-438150D01*
G01*
X109715300Y-81845150D01*
G75*
G02*
X109277150Y-82283300I-438150J0D01*
G01*
X108400850Y-82283300D01*
G75*
G02*
X107962700Y-81845150I0J438150D01*
G01*
G37*
G36*
G01*
X107962700Y-79813150D02*
X107962700Y-78936850D01*
G75*
G02*
X108400850Y-78498700I438150J0D01*
G01*
X109277150Y-78498700D01*
G75*
G02*
X109715300Y-78936850I0J-438150D01*
G01*
X109715300Y-79813150D01*
G75*
G02*
X109277150Y-80251300I-438150J0D01*
G01*
X108400850Y-80251300D01*
G75*
G02*
X107962700Y-79813150I0J438150D01*
G01*
G37*
G36*
G01*
X107962700Y-77781150D02*
X107962700Y-76904850D01*
G75*
G02*
X108400850Y-76466700I438150J0D01*
G01*
X109277150Y-76466700D01*
G75*
G02*
X109715300Y-76904850I0J-438150D01*
G01*
X109715300Y-77781150D01*
G75*
G02*
X109277150Y-78219300I-438150J0D01*
G01*
X108400850Y-78219300D01*
G75*
G02*
X107962700Y-77781150I0J438150D01*
G01*
G37*
G36*
G01*
X107962700Y-75749150D02*
X107962700Y-74872850D01*
G75*
G02*
X108400850Y-74434700I438150J0D01*
G01*
X109277150Y-74434700D01*
G75*
G02*
X109715300Y-74872850I0J-438150D01*
G01*
X109715300Y-75749150D01*
G75*
G02*
X109277150Y-76187300I-438150J0D01*
G01*
X108400850Y-76187300D01*
G75*
G02*
X107962700Y-75749150I0J438150D01*
G01*
G37*
%TD*%
%TO.C,M1*%
G36*
G01*
X107962700Y-64827150D02*
X107962700Y-63950850D01*
G75*
G02*
X108400850Y-63512700I438150J0D01*
G01*
X109277150Y-63512700D01*
G75*
G02*
X109715300Y-63950850I0J-438150D01*
G01*
X109715300Y-64827150D01*
G75*
G02*
X109277150Y-65265300I-438150J0D01*
G01*
X108400850Y-65265300D01*
G75*
G02*
X107962700Y-64827150I0J438150D01*
G01*
G37*
G36*
G01*
X107962700Y-62795150D02*
X107962700Y-61918850D01*
G75*
G02*
X108400850Y-61480700I438150J0D01*
G01*
X109277150Y-61480700D01*
G75*
G02*
X109715300Y-61918850I0J-438150D01*
G01*
X109715300Y-62795150D01*
G75*
G02*
X109277150Y-63233300I-438150J0D01*
G01*
X108400850Y-63233300D01*
G75*
G02*
X107962700Y-62795150I0J438150D01*
G01*
G37*
G36*
G01*
X107962700Y-60763150D02*
X107962700Y-59886850D01*
G75*
G02*
X108400850Y-59448700I438150J0D01*
G01*
X109277150Y-59448700D01*
G75*
G02*
X109715300Y-59886850I0J-438150D01*
G01*
X109715300Y-60763150D01*
G75*
G02*
X109277150Y-61201300I-438150J0D01*
G01*
X108400850Y-61201300D01*
G75*
G02*
X107962700Y-60763150I0J438150D01*
G01*
G37*
G36*
G01*
X107962700Y-58731150D02*
X107962700Y-57854850D01*
G75*
G02*
X108400850Y-57416700I438150J0D01*
G01*
X109277150Y-57416700D01*
G75*
G02*
X109715300Y-57854850I0J-438150D01*
G01*
X109715300Y-58731150D01*
G75*
G02*
X109277150Y-59169300I-438150J0D01*
G01*
X108400850Y-59169300D01*
G75*
G02*
X107962700Y-58731150I0J438150D01*
G01*
G37*
G36*
G01*
X107962700Y-56699150D02*
X107962700Y-55822850D01*
G75*
G02*
X108400850Y-55384700I438150J0D01*
G01*
X109277150Y-55384700D01*
G75*
G02*
X109715300Y-55822850I0J-438150D01*
G01*
X109715300Y-56699150D01*
G75*
G02*
X109277150Y-57137300I-438150J0D01*
G01*
X108400850Y-57137300D01*
G75*
G02*
X107962700Y-56699150I0J438150D01*
G01*
G37*
%TD*%
D12*
%TO.C,U1*%
X182473600Y-16986250D03*
X167233600Y-44926250D03*
X182016400Y-19526250D03*
X182473600Y-22066250D03*
X182016400Y-24606250D03*
X182473600Y-27146250D03*
X182016400Y-29686250D03*
X182473600Y-32226250D03*
X182016400Y-34766250D03*
X182473600Y-37306250D03*
X182016400Y-39846250D03*
X182473600Y-42386250D03*
X182016400Y-44926250D03*
X166776400Y-42386250D03*
X167233600Y-39846250D03*
X166776400Y-37306250D03*
X167233600Y-34766250D03*
X166776400Y-32226250D03*
X167233600Y-29686250D03*
X166776400Y-27146250D03*
X167233600Y-24606250D03*
X166776400Y-22066250D03*
X167233600Y-19526250D03*
D13*
X166776400Y-16986250D03*
%TD*%
D10*
%TO.C,MX25*%
X117475000Y-41275000D03*
D11*
X112395000Y-41275000D03*
X122555000Y-41275000D03*
%TD*%
D10*
%TO.C,MX28*%
X122237500Y-98425000D03*
D11*
X117157500Y-98425000D03*
X127317500Y-98425000D03*
%TD*%
D10*
%TO.C,MX46*%
X193675000Y-79375000D03*
D11*
X188595000Y-79375000D03*
X198755000Y-79375000D03*
%TD*%
D10*
%TO.C,MX45*%
X193675000Y-60325000D03*
D11*
X188595000Y-60325000D03*
X198755000Y-60325000D03*
%TD*%
D10*
%TO.C,MX44*%
X193675000Y-41275000D03*
D11*
X188595000Y-41275000D03*
X198755000Y-41275000D03*
%TD*%
D10*
%TO.C,MX43*%
X193675000Y-22225000D03*
D11*
X188595000Y-22225000D03*
X198755000Y-22225000D03*
%TD*%
D10*
%TO.C,MX42*%
X174625000Y-79375000D03*
D11*
X169545000Y-79375000D03*
X179705000Y-79375000D03*
%TD*%
D10*
%TO.C,MX41*%
X174625000Y-60325000D03*
D11*
X169545000Y-60325000D03*
X179705000Y-60325000D03*
%TD*%
D10*
%TO.C,MX40*%
X174625000Y-41275000D03*
D11*
X169545000Y-41275000D03*
X179705000Y-41275000D03*
%TD*%
D10*
%TO.C,MX39*%
X174625000Y-22225000D03*
D11*
X169545000Y-22225000D03*
X179705000Y-22225000D03*
%TD*%
D10*
%TO.C,MX37*%
X155575000Y-79375000D03*
D11*
X150495000Y-79375000D03*
X160655000Y-79375000D03*
%TD*%
D10*
%TO.C,MX36*%
X155575000Y-60325000D03*
D11*
X150495000Y-60325000D03*
X160655000Y-60325000D03*
%TD*%
D10*
%TO.C,MX35*%
X155575000Y-41275000D03*
D11*
X150495000Y-41275000D03*
X160655000Y-41275000D03*
%TD*%
D10*
%TO.C,MX34*%
X155575000Y-22225000D03*
D11*
X150495000Y-22225000D03*
X160655000Y-22225000D03*
%TD*%
D10*
%TO.C,MX33*%
X146050000Y-98425000D03*
D11*
X140970000Y-98425000D03*
X151130000Y-98425000D03*
%TD*%
D10*
%TO.C,MX32*%
X136525000Y-79375000D03*
D11*
X131445000Y-79375000D03*
X141605000Y-79375000D03*
%TD*%
D10*
%TO.C,MX31*%
X136525000Y-60325000D03*
D11*
X131445000Y-60325000D03*
X141605000Y-60325000D03*
%TD*%
D10*
%TO.C,MX30*%
X136525000Y-41275000D03*
D11*
X131445000Y-41275000D03*
X141605000Y-41275000D03*
%TD*%
D10*
%TO.C,MX29*%
X136525000Y-22225000D03*
D11*
X131445000Y-22225000D03*
X141605000Y-22225000D03*
%TD*%
D10*
%TO.C,MX27*%
X117475000Y-79375000D03*
D11*
X112395000Y-79375000D03*
X122555000Y-79375000D03*
%TD*%
D10*
%TO.C,MX26*%
X117475000Y-60325000D03*
D11*
X112395000Y-60325000D03*
X122555000Y-60325000D03*
%TD*%
D10*
%TO.C,MX24*%
X117475000Y-22225000D03*
D11*
X112395000Y-22225000D03*
X122555000Y-22225000D03*
%TD*%
D14*
%TO.C,D46*%
X201612500Y-83275000D03*
D15*
X201612500Y-75475000D03*
%TD*%
D14*
%TO.C,D45*%
X201612500Y-64225000D03*
D15*
X201612500Y-56425000D03*
%TD*%
D14*
%TO.C,D44*%
X201612500Y-45175000D03*
D15*
X201612500Y-37375000D03*
%TD*%
D14*
%TO.C,D43*%
X201612500Y-26125000D03*
D15*
X201612500Y-18325000D03*
%TD*%
D14*
%TO.C,D42*%
X182562500Y-83272000D03*
D15*
X182562500Y-75472000D03*
%TD*%
D14*
%TO.C,D41*%
X182562500Y-64225000D03*
D15*
X182562500Y-56425000D03*
%TD*%
D14*
%TO.C,D40*%
X170725000Y-49212500D03*
D15*
X178525000Y-49212500D03*
%TD*%
D14*
%TO.C,D39*%
X170725000Y-30162500D03*
D15*
X178525000Y-30162500D03*
%TD*%
D14*
%TO.C,D38*%
X157162500Y-102325000D03*
D15*
X157162500Y-94525000D03*
%TD*%
D14*
%TO.C,D37*%
X163512500Y-83275000D03*
D15*
X163512500Y-75475000D03*
%TD*%
D14*
%TO.C,D36*%
X163512500Y-64225000D03*
D15*
X163512500Y-56425000D03*
%TD*%
D14*
%TO.C,D35*%
X163512500Y-45175000D03*
D15*
X163512500Y-37375000D03*
%TD*%
D14*
%TO.C,D34*%
X163512500Y-26125000D03*
D15*
X163512500Y-18325000D03*
%TD*%
D14*
%TO.C,D33*%
X153987500Y-102325000D03*
D15*
X153987500Y-94525000D03*
%TD*%
D14*
%TO.C,D32*%
X144462500Y-83275000D03*
D15*
X144462500Y-75475000D03*
%TD*%
D14*
%TO.C,D31*%
X144462500Y-64225000D03*
D15*
X144462500Y-56425000D03*
%TD*%
D14*
%TO.C,D30*%
X144462500Y-45175000D03*
D15*
X144462500Y-37375000D03*
%TD*%
D14*
%TO.C,D29*%
X144462500Y-26125000D03*
D15*
X144462500Y-18325000D03*
%TD*%
D14*
%TO.C,D28*%
X130175000Y-102325000D03*
D15*
X130175000Y-94525000D03*
%TD*%
D14*
%TO.C,D27*%
X125412500Y-83275000D03*
D15*
X125412500Y-75475000D03*
%TD*%
D14*
%TO.C,D26*%
X125412500Y-64225000D03*
D15*
X125412500Y-56425000D03*
%TD*%
D14*
%TO.C,D25*%
X114368750Y-49212500D03*
D15*
X122168750Y-49212500D03*
%TD*%
D14*
%TO.C,D24*%
X125412500Y-26125000D03*
D15*
X125412500Y-18325000D03*
%TD*%
M02*
