M48
; DRILL file {KiCad (5.1.12)-1} date 01/07/22 15:12:51
; FORMAT={-:-/ absolute / inch / decimal}
; #@! TF.CreationDate,2022-01-07T15:12:51-05:00
; #@! TF.GenerationSoftware,Kicad,Pcbnew,(5.1.12)-1
; #@! TF.FileFunction,Plated,1,2,PTH
FMAT,2
INCH
T1C0.0394
T2C0.0430
T3C0.0579
%
G90
G05
T1
X1.5312Y-1.0652
X1.5312Y-1.3723
X1.5312Y-1.8152
X1.5312Y-2.1223
X1.5312Y-2.5652
X1.5312Y-2.8723
X1.5312Y-3.3152
X1.5312Y-3.6223
X2.2812Y-1.0652
X2.2812Y-1.3723
X2.2812Y-1.8152
X2.2812Y-2.1223
X2.2812Y-2.5677
X2.2812Y-2.8748
X2.2812Y-3.3152
X2.2812Y-3.6223
X2.6562Y-4.0652
X2.6562Y-4.3723
X3.0312Y-1.0652
X3.0312Y-1.3723
X3.0312Y-1.8152
X3.0312Y-2.1223
X3.0312Y-2.5652
X3.0312Y-2.8723
X3.0312Y-3.3152
X3.0312Y-3.6223
X3.4062Y-4.0652
X3.4062Y-4.3723
X3.7812Y-1.0652
X3.7812Y-1.3723
X3.7812Y-1.8152
X3.7812Y-2.1223
X3.7812Y-2.5652
X3.7812Y-2.8723
X3.7812Y-3.3152
X3.7812Y-3.6223
X3.8777Y-4.5312
X4.0652Y-2.2812
X4.0652Y-3.0312
X4.0652Y-3.7812
X4.1848Y-4.5312
X4.3723Y-2.2812
X4.3723Y-3.0312
X4.3723Y-3.7812
X4.5312Y-1.0652
X4.5312Y-1.3723
T2
X4.56Y-2.56
X4.56Y-2.64
X4.56Y-2.72
X4.56Y-2.8
X4.56Y-2.88
X4.56Y-4.06
X4.56Y-4.14
X4.56Y-4.22
X4.56Y-4.3
X4.56Y-4.38
T3
X1.0687Y-1.1187
X1.0687Y-1.8687
X1.0687Y-2.6187
X1.0687Y-3.3687
X1.1203Y-1.0613
X1.1203Y-1.8113
X1.1203Y-2.5613
X1.1203Y-3.3113
X1.3172Y-1.0416
X1.3172Y-1.7916
X1.3172Y-2.5416
X1.3172Y-3.2916
X1.3187Y-1.0188
X1.3187Y-1.7688
X1.3187Y-2.5187
X1.3187Y-3.2687
X1.8187Y-1.1187
X1.8187Y-1.8687
X1.8187Y-2.6187
X1.8187Y-3.3687
X1.8703Y-1.0613
X1.8703Y-1.8113
X1.8703Y-2.5613
X1.8703Y-3.3113
X2.0672Y-1.0416
X2.0672Y-1.7916
X2.0672Y-2.5416
X2.0672Y-3.2916
X2.0688Y-1.0188
X2.0688Y-1.7688
X2.0688Y-2.5187
X2.0688Y-3.2687
X2.1938Y-4.1187
X2.2453Y-4.0613
X2.4422Y-4.0416
X2.4438Y-4.0187
X2.5688Y-1.1187
X2.5688Y-1.8687
X2.5688Y-2.6187
X2.5688Y-3.3687
X2.6203Y-1.0613
X2.6203Y-1.8113
X2.6203Y-2.5613
X2.6203Y-3.3113
X2.8172Y-1.0416
X2.8172Y-1.7916
X2.8172Y-2.5416
X2.8172Y-3.2916
X2.8188Y-1.0188
X2.8188Y-1.7688
X2.8188Y-2.5187
X2.8188Y-3.2687
X2.9438Y-4.1187
X2.9953Y-4.0613
X3.1922Y-4.0416
X3.1938Y-4.0187
X3.3188Y-1.1187
X3.3188Y-1.8687
X3.3188Y-2.6187
X3.3188Y-3.3687
X3.3703Y-1.0613
X3.3703Y-1.8113
X3.3703Y-2.5613
X3.3703Y-3.3113
X3.5672Y-1.0416
X3.5672Y-1.7916
X3.5672Y-2.5416
X3.5672Y-3.2916
X3.5688Y-1.0188
X3.5688Y-1.7688
X3.5688Y-2.5187
X3.5688Y-3.2687
X3.8813Y-4.1187
X3.9328Y-4.0613
X4.0687Y-1.1187
X4.0687Y-1.8687
X4.0687Y-2.6187
X4.0687Y-3.3687
X4.1203Y-1.0613
X4.1203Y-1.8113
X4.1203Y-2.5613
X4.1203Y-3.3113
X4.1297Y-4.0416
X4.1312Y-4.0187
X4.3172Y-1.0416
X4.3172Y-1.7916
X4.3172Y-2.5416
X4.3172Y-3.2916
X4.3187Y-1.0188
X4.3187Y-1.7688
X4.3187Y-2.5187
X4.3187Y-3.2687
T0
M30
