%TF.GenerationSoftware,KiCad,Pcbnew,(5.1.12)-1*%
%TF.CreationDate,2022-01-07T15:12:48-05:00*%
%TF.ProjectId,center-gasket-1,63656e74-6572-42d6-9761-736b65742d31,rev?*%
%TF.SameCoordinates,Original*%
%TF.FileFunction,Legend,Bot*%
%TF.FilePolarity,Positive*%
%FSLAX46Y46*%
G04 Gerber Fmt 4.6, Leading zero omitted, Abs format (unit mm)*
G04 Created by KiCad (PCBNEW (5.1.12)-1) date 2022-01-07 15:12:48*
%MOMM*%
%LPD*%
G01*
G04 APERTURE LIST*
%ADD10C,1.270000*%
%ADD11C,0.010000*%
%ADD12C,0.150000*%
%ADD13C,1.750000*%
%ADD14C,2.250000*%
%ADD15C,3.987800*%
%ADD16R,1.600000X1.600000*%
%ADD17C,1.600000*%
%ADD18R,1.600000X1.200000*%
%ADD19R,1.200000X1.600000*%
G04 APERTURE END LIST*
D10*
X41329428Y-115086190D02*
X40845619Y-115328095D01*
X39878000Y-115328095D01*
X39394190Y-115086190D01*
X39152285Y-114602380D01*
X39152285Y-114360476D01*
X39394190Y-113876666D01*
X39878000Y-113634761D01*
X40603714Y-113634761D01*
X41087523Y-113392857D01*
X41329428Y-112909047D01*
X41329428Y-112667142D01*
X41087523Y-112183333D01*
X40603714Y-111941428D01*
X39878000Y-111941428D01*
X39394190Y-112183333D01*
X34798000Y-115328095D02*
X34798000Y-112667142D01*
X35039904Y-112183333D01*
X35523714Y-111941428D01*
X36491333Y-111941428D01*
X36975142Y-112183333D01*
X34798000Y-115086190D02*
X35281809Y-115328095D01*
X36491333Y-115328095D01*
X36975142Y-115086190D01*
X37217047Y-114602380D01*
X37217047Y-114118571D01*
X36975142Y-113634761D01*
X36491333Y-113392857D01*
X35281809Y-113392857D01*
X34798000Y-113150952D01*
X31653238Y-115328095D02*
X32137047Y-115086190D01*
X32378952Y-114602380D01*
X32378952Y-110248095D01*
X29959904Y-115086190D02*
X29476095Y-115328095D01*
X28508476Y-115328095D01*
X28024666Y-115086190D01*
X27782761Y-114602380D01*
X27782761Y-114360476D01*
X28024666Y-113876666D01*
X28508476Y-113634761D01*
X29234190Y-113634761D01*
X29718000Y-113392857D01*
X29959904Y-112909047D01*
X29959904Y-112667142D01*
X29718000Y-112183333D01*
X29234190Y-111941428D01*
X28508476Y-111941428D01*
X28024666Y-112183333D01*
X23428476Y-115328095D02*
X23428476Y-112667142D01*
X23670380Y-112183333D01*
X24154190Y-111941428D01*
X25121809Y-111941428D01*
X25605619Y-112183333D01*
X23428476Y-115086190D02*
X23912285Y-115328095D01*
X25121809Y-115328095D01*
X25605619Y-115086190D01*
X25847523Y-114602380D01*
X25847523Y-114118571D01*
X25605619Y-113634761D01*
X25121809Y-113392857D01*
X23912285Y-113392857D01*
X23428476Y-113150952D01*
D11*
%TO.C,G\u002A\u002A\u002A*%
G36*
X42968460Y-99183026D02*
G01*
X43073882Y-99191707D01*
X43166789Y-99206462D01*
X43254624Y-99228322D01*
X43344830Y-99258322D01*
X43444850Y-99297494D01*
X43503591Y-99321992D01*
X43592879Y-99358927D01*
X43672736Y-99390603D01*
X43731696Y-99412538D01*
X43751500Y-99418948D01*
X43875122Y-99455406D01*
X44010428Y-99499050D01*
X44147243Y-99546243D01*
X44275394Y-99593346D01*
X44384704Y-99636720D01*
X44465001Y-99672728D01*
X44473974Y-99677300D01*
X44563450Y-99729226D01*
X44655385Y-99790831D01*
X44719816Y-99840561D01*
X44810917Y-99905638D01*
X44925485Y-99962956D01*
X45023926Y-100001013D01*
X45183842Y-100061021D01*
X45304530Y-100113974D01*
X45388288Y-100161048D01*
X45437414Y-100203420D01*
X45447128Y-100217870D01*
X45477954Y-100293957D01*
X45504996Y-100392560D01*
X45523585Y-100493871D01*
X45529249Y-100566224D01*
X45523581Y-100625173D01*
X45501842Y-100679805D01*
X45457490Y-100745101D01*
X45443094Y-100763594D01*
X45378250Y-100854559D01*
X45329219Y-100941092D01*
X45301288Y-101013065D01*
X45296835Y-101043695D01*
X45312669Y-101068027D01*
X45354871Y-101110103D01*
X45415737Y-101162546D01*
X45446762Y-101187250D01*
X45563664Y-101285184D01*
X45685668Y-101399601D01*
X45804055Y-101521328D01*
X45910106Y-101641190D01*
X45995103Y-101750015D01*
X46027621Y-101798446D01*
X46079500Y-101874051D01*
X46149496Y-101965676D01*
X46226334Y-102058878D01*
X46267184Y-102105311D01*
X46379480Y-102237361D01*
X46484997Y-102376355D01*
X46577354Y-102512961D01*
X46650169Y-102637847D01*
X46690724Y-102724717D01*
X46712888Y-102792342D01*
X46738202Y-102887079D01*
X46762939Y-102994267D01*
X46776887Y-103063383D01*
X46801396Y-103178020D01*
X46834978Y-103314639D01*
X46872990Y-103455172D01*
X46906660Y-103568500D01*
X46950173Y-103721483D01*
X46983465Y-103873966D01*
X47006848Y-104031975D01*
X47020636Y-104201538D01*
X47025141Y-104388683D01*
X47020676Y-104599437D01*
X47007554Y-104839827D01*
X46986625Y-105109623D01*
X46974422Y-105236287D01*
X46961327Y-105326052D01*
X46944720Y-105384317D01*
X46921981Y-105416482D01*
X46890488Y-105427945D01*
X46847620Y-105424106D01*
X46835242Y-105421484D01*
X46791834Y-105417461D01*
X46733888Y-105423839D01*
X46653693Y-105442094D01*
X46543538Y-105473703D01*
X46511865Y-105483415D01*
X46375138Y-105527089D01*
X46272827Y-105563633D01*
X46198299Y-105596262D01*
X46144921Y-105628195D01*
X46106061Y-105662647D01*
X46082910Y-105691430D01*
X46033966Y-105779967D01*
X46021738Y-105852035D01*
X46043050Y-105905333D01*
X46094724Y-105937558D01*
X46173583Y-105946408D01*
X46276451Y-105929579D01*
X46368402Y-105898335D01*
X46466758Y-105863106D01*
X46590926Y-105825476D01*
X46724934Y-105789853D01*
X46852813Y-105760646D01*
X46900847Y-105751354D01*
X46952388Y-105747655D01*
X46977541Y-105763908D01*
X46982629Y-105775493D01*
X46996091Y-105808669D01*
X47023394Y-105870916D01*
X47060417Y-105952976D01*
X47098240Y-106035249D01*
X47139141Y-106125424D01*
X47172405Y-106202482D01*
X47194428Y-106257822D01*
X47201667Y-106282175D01*
X47216290Y-106303617D01*
X47257012Y-106349164D01*
X47319110Y-106413902D01*
X47397862Y-106492917D01*
X47488544Y-106581294D01*
X47495795Y-106588259D01*
X47603304Y-106692439D01*
X47687325Y-106777444D01*
X47755591Y-106852692D01*
X47815832Y-106927603D01*
X47875780Y-107011592D01*
X47943166Y-107114079D01*
X47996831Y-107198584D01*
X48137298Y-107424039D01*
X48268538Y-107640049D01*
X48387701Y-107841699D01*
X48491938Y-108024078D01*
X48578401Y-108182273D01*
X48644241Y-108311373D01*
X48653615Y-108331000D01*
X48684727Y-108403799D01*
X48722251Y-108502197D01*
X48763715Y-108618501D01*
X48806645Y-108745019D01*
X48848571Y-108874059D01*
X48887018Y-108997929D01*
X48919515Y-109108936D01*
X48943589Y-109199389D01*
X48956769Y-109261596D01*
X48958500Y-109279547D01*
X48946808Y-109327068D01*
X48915755Y-109397498D01*
X48871374Y-109479875D01*
X48819698Y-109563236D01*
X48766760Y-109636619D01*
X48752378Y-109654066D01*
X48690615Y-109714102D01*
X48620032Y-109765904D01*
X48590771Y-109782053D01*
X48536131Y-109813610D01*
X48461426Y-109864350D01*
X48378697Y-109925865D01*
X48334084Y-109961289D01*
X48241458Y-110032607D01*
X48154211Y-110088725D01*
X48062141Y-110134240D01*
X47955046Y-110173745D01*
X47822727Y-110211834D01*
X47721151Y-110237333D01*
X47418108Y-110302332D01*
X47086931Y-110357145D01*
X46724983Y-110402048D01*
X46329622Y-110437321D01*
X45898209Y-110463242D01*
X45428106Y-110480087D01*
X45413084Y-110480463D01*
X45217795Y-110485652D01*
X45020978Y-110491560D01*
X44830284Y-110497909D01*
X44653366Y-110504420D01*
X44497873Y-110510816D01*
X44371458Y-110516820D01*
X44301834Y-110520801D01*
X44123435Y-110529954D01*
X43930648Y-110535903D01*
X43733158Y-110538657D01*
X43540652Y-110538226D01*
X43362816Y-110534618D01*
X43209336Y-110527844D01*
X43105917Y-110519671D01*
X42967162Y-110501978D01*
X42827913Y-110476893D01*
X42678649Y-110442192D01*
X42509853Y-110395651D01*
X42312004Y-110335046D01*
X42301584Y-110331735D01*
X42176971Y-110293001D01*
X42051917Y-110255710D01*
X41938547Y-110223378D01*
X41848987Y-110199516D01*
X41825334Y-110193774D01*
X41666290Y-110146199D01*
X41508962Y-110076219D01*
X41343120Y-109978890D01*
X41250611Y-109916177D01*
X41161690Y-109858110D01*
X41087753Y-109818762D01*
X41036813Y-109802320D01*
X41032256Y-109802084D01*
X40986666Y-109806907D01*
X40913026Y-109819793D01*
X40824311Y-109838364D01*
X40786110Y-109847184D01*
X40596346Y-109892284D01*
X40412947Y-109767809D01*
X40312949Y-109695728D01*
X40205408Y-109611515D01*
X40108756Y-109529793D01*
X40080232Y-109503851D01*
X40004181Y-109436149D01*
X39900998Y-109349161D01*
X39777748Y-109248557D01*
X39641493Y-109140006D01*
X39499300Y-109029179D01*
X39433956Y-108979414D01*
X46063308Y-108979414D01*
X46087390Y-109091410D01*
X46139223Y-109231088D01*
X46174963Y-109310583D01*
X46220574Y-109405122D01*
X46256323Y-109470067D01*
X46289217Y-109514653D01*
X46326261Y-109548112D01*
X46374462Y-109579680D01*
X46382983Y-109584761D01*
X46454110Y-109623159D01*
X46550250Y-109669800D01*
X46663632Y-109721450D01*
X46786487Y-109774879D01*
X46911043Y-109826852D01*
X47029531Y-109874137D01*
X47134179Y-109913503D01*
X47217218Y-109941715D01*
X47270877Y-109955543D01*
X47275750Y-109956161D01*
X47334942Y-109960153D01*
X47421626Y-109963944D01*
X47520962Y-109966934D01*
X47565783Y-109967859D01*
X47652172Y-109968449D01*
X47721302Y-109965294D01*
X47784864Y-109956142D01*
X47854547Y-109938744D01*
X47942041Y-109910850D01*
X48042033Y-109876192D01*
X48216784Y-109812523D01*
X48354988Y-109756670D01*
X48461174Y-109706208D01*
X48539872Y-109658716D01*
X48595610Y-109611768D01*
X48632917Y-109562940D01*
X48635360Y-109558667D01*
X48668328Y-109466921D01*
X48681662Y-109353840D01*
X48677143Y-109229609D01*
X48656553Y-109104411D01*
X48621672Y-108988431D01*
X48574281Y-108891854D01*
X48516161Y-108824863D01*
X48505742Y-108817410D01*
X48392959Y-108764893D01*
X48279593Y-108754679D01*
X48165781Y-108786746D01*
X48051659Y-108861071D01*
X48006000Y-108902583D01*
X47880760Y-109004165D01*
X47739633Y-109082519D01*
X47596113Y-109130624D01*
X47552923Y-109138341D01*
X47481387Y-109137642D01*
X47378958Y-109122439D01*
X47253590Y-109095039D01*
X47113241Y-109057753D01*
X46965867Y-109012889D01*
X46819423Y-108962758D01*
X46681867Y-108909668D01*
X46561155Y-108855929D01*
X46534917Y-108842856D01*
X46443957Y-108802255D01*
X46362039Y-108782207D01*
X46273799Y-108776708D01*
X46197298Y-108778054D01*
X46149692Y-108786403D01*
X46117659Y-108805647D01*
X46096770Y-108828417D01*
X46066571Y-108892588D01*
X46063308Y-108979414D01*
X39433956Y-108979414D01*
X39358231Y-108921743D01*
X39309417Y-108885238D01*
X39212401Y-108829123D01*
X39106980Y-108802881D01*
X38982101Y-108804334D01*
X38932314Y-108810895D01*
X38819860Y-108820396D01*
X38735499Y-108806431D01*
X38670153Y-108765797D01*
X38617547Y-108699776D01*
X38580808Y-108648450D01*
X38536160Y-108602083D01*
X38477261Y-108556237D01*
X38397766Y-108506475D01*
X38291331Y-108448357D01*
X38169690Y-108386449D01*
X38072924Y-108336082D01*
X37989353Y-108288692D01*
X37926736Y-108248967D01*
X37892832Y-108221589D01*
X37889906Y-108217522D01*
X37872773Y-108170991D01*
X37857325Y-108106180D01*
X37854623Y-108090677D01*
X37834367Y-108008237D01*
X37800228Y-107958592D01*
X37743255Y-107932492D01*
X37693514Y-107924187D01*
X37628233Y-107912029D01*
X37590779Y-107889268D01*
X37570879Y-107857544D01*
X37560179Y-107818647D01*
X37546593Y-107745763D01*
X37531395Y-107647033D01*
X37515860Y-107530598D01*
X37504182Y-107431417D01*
X37477417Y-107213739D01*
X37449131Y-107034564D01*
X37418131Y-106890063D01*
X37383224Y-106776408D01*
X37343218Y-106689770D01*
X37296921Y-106626321D01*
X37243138Y-106582230D01*
X37238850Y-106579644D01*
X37206729Y-106558896D01*
X37179448Y-106534799D01*
X37153996Y-106501656D01*
X37127362Y-106453773D01*
X37096536Y-106385456D01*
X37058508Y-106291010D01*
X37010267Y-106164740D01*
X36987416Y-106103989D01*
X36970907Y-106061046D01*
X41169879Y-106061046D01*
X41182555Y-106101967D01*
X41191960Y-106109506D01*
X41222466Y-106112955D01*
X41282801Y-106109420D01*
X41361183Y-106099699D01*
X41380058Y-106096748D01*
X41545362Y-106069903D01*
X41891723Y-106179406D01*
X42112236Y-106245986D01*
X42307689Y-106297274D01*
X42491400Y-106335836D01*
X42676692Y-106364241D01*
X42876883Y-106385053D01*
X43010667Y-106395029D01*
X43189818Y-106409091D01*
X43334578Y-106426048D01*
X43452872Y-106447513D01*
X43552622Y-106475099D01*
X43641753Y-106510419D01*
X43687292Y-106532772D01*
X43799944Y-106575340D01*
X43906826Y-106579730D01*
X43981175Y-106561513D01*
X44031632Y-106528281D01*
X44049018Y-106480148D01*
X44037092Y-106423089D01*
X43999611Y-106363076D01*
X43940334Y-106306083D01*
X43863019Y-106258083D01*
X43771425Y-106225051D01*
X43769151Y-106224508D01*
X43694135Y-106202351D01*
X43628397Y-106175489D01*
X43603334Y-106161315D01*
X43540152Y-106119387D01*
X43484492Y-106088701D01*
X43427585Y-106067166D01*
X43360664Y-106052692D01*
X43274962Y-106043188D01*
X43161712Y-106036564D01*
X43063584Y-106032603D01*
X42915451Y-106025598D01*
X42789026Y-106015459D01*
X42669209Y-106000213D01*
X42540901Y-105977887D01*
X42389003Y-105946506D01*
X42365084Y-105941297D01*
X42170470Y-105902905D01*
X41977637Y-105872623D01*
X41794667Y-105851256D01*
X41629644Y-105839605D01*
X41490652Y-105838475D01*
X41403342Y-105845727D01*
X41325334Y-105867638D01*
X41260708Y-105914050D01*
X41239300Y-105936100D01*
X41189376Y-106003624D01*
X41169879Y-106061046D01*
X36970907Y-106061046D01*
X36888435Y-105846529D01*
X36798763Y-105627165D01*
X36716907Y-105443060D01*
X36641373Y-105291379D01*
X36570668Y-105169285D01*
X36503299Y-105073941D01*
X36437772Y-105002513D01*
X36385259Y-104960401D01*
X36318054Y-104912400D01*
X36240846Y-104853919D01*
X36199497Y-104821157D01*
X36125156Y-104765927D01*
X36044971Y-104713767D01*
X36004500Y-104690832D01*
X35872866Y-104613956D01*
X35774952Y-104535541D01*
X35702549Y-104448217D01*
X35668125Y-104388847D01*
X35609581Y-104291238D01*
X35549074Y-104220228D01*
X36500823Y-104220228D01*
X36505749Y-104259704D01*
X36535516Y-104316771D01*
X36597713Y-104377442D01*
X36683598Y-104435484D01*
X36784427Y-104484661D01*
X36856146Y-104509591D01*
X36978999Y-104539537D01*
X37073948Y-104548724D01*
X37149815Y-104537452D01*
X37189887Y-104520973D01*
X37242047Y-104477237D01*
X37300490Y-104400213D01*
X37360596Y-104297518D01*
X37417746Y-104176768D01*
X37452906Y-104087281D01*
X37489086Y-104000094D01*
X37531275Y-103917482D01*
X37569633Y-103858317D01*
X37618796Y-103787066D01*
X37671904Y-103695185D01*
X37721154Y-103597753D01*
X37758745Y-103509850D01*
X37773298Y-103464700D01*
X37809794Y-103404767D01*
X37887777Y-103348891D01*
X38006568Y-103297365D01*
X38165488Y-103250484D01*
X38363858Y-103208542D01*
X38364584Y-103208411D01*
X38515006Y-103174030D01*
X38649363Y-103129346D01*
X38759263Y-103077742D01*
X38836314Y-103022601D01*
X38843481Y-103015348D01*
X38874032Y-102970921D01*
X38891807Y-102910196D01*
X38900322Y-102830530D01*
X38896541Y-102714959D01*
X38866120Y-102612908D01*
X38804520Y-102513347D01*
X38738330Y-102437030D01*
X38656888Y-102351417D01*
X38493096Y-102351417D01*
X38423152Y-102353283D01*
X38351243Y-102359756D01*
X38271296Y-102372143D01*
X38177237Y-102391753D01*
X38062991Y-102419897D01*
X37922487Y-102457882D01*
X37749649Y-102507019D01*
X37687250Y-102525099D01*
X37552805Y-102564814D01*
X37451682Y-102596747D01*
X37376316Y-102624073D01*
X37319136Y-102649964D01*
X37272574Y-102677593D01*
X37229064Y-102710133D01*
X37211742Y-102724458D01*
X37169958Y-102766440D01*
X37110521Y-102835036D01*
X37039834Y-102922028D01*
X36964300Y-103019195D01*
X36890325Y-103118320D01*
X36824311Y-103211182D01*
X36777553Y-103281730D01*
X36714075Y-103397796D01*
X36654404Y-103534887D01*
X36601044Y-103683989D01*
X36556500Y-103836088D01*
X36523279Y-103982171D01*
X36503885Y-104113222D01*
X36500823Y-104220228D01*
X35549074Y-104220228D01*
X35535927Y-104204799D01*
X35437122Y-104118538D01*
X35385605Y-104079644D01*
X35270695Y-103983006D01*
X35181725Y-103875933D01*
X35105734Y-103742730D01*
X35103359Y-103737834D01*
X35077425Y-103680992D01*
X35056607Y-103625625D01*
X35039146Y-103563857D01*
X35023281Y-103487813D01*
X35007254Y-103389617D01*
X34989306Y-103261394D01*
X34978398Y-103178456D01*
X34961236Y-103036966D01*
X34946364Y-102896539D01*
X34934736Y-102767654D01*
X34927308Y-102660788D01*
X34925000Y-102592220D01*
X34926549Y-102502564D01*
X34933993Y-102436052D01*
X34951526Y-102375891D01*
X34983346Y-102305289D01*
X35009546Y-102253815D01*
X35052228Y-102174484D01*
X35091809Y-102106385D01*
X35121516Y-102061001D01*
X35127887Y-102053091D01*
X35185482Y-102005486D01*
X35263990Y-101970302D01*
X35369819Y-101945633D01*
X35509382Y-101929571D01*
X35553804Y-101926456D01*
X35660256Y-101918321D01*
X35747476Y-101906339D01*
X35823229Y-101886803D01*
X35895282Y-101856009D01*
X35971400Y-101810250D01*
X36059351Y-101745821D01*
X36166899Y-101659016D01*
X36237334Y-101600296D01*
X36358637Y-101499599D01*
X36457021Y-101422726D01*
X36541688Y-101365926D01*
X36621839Y-101325449D01*
X36706676Y-101297545D01*
X36805401Y-101278463D01*
X36927216Y-101264453D01*
X37081322Y-101251764D01*
X37095070Y-101250713D01*
X37247956Y-101237561D01*
X37367738Y-101222073D01*
X37463629Y-101200697D01*
X37544839Y-101169881D01*
X37620582Y-101126073D01*
X37700070Y-101065721D01*
X37792513Y-100985273D01*
X37799252Y-100979208D01*
X37913373Y-100877264D01*
X38009681Y-100794639D01*
X38095590Y-100726871D01*
X38178511Y-100669494D01*
X38265859Y-100618046D01*
X38365046Y-100568063D01*
X38483484Y-100515082D01*
X38628588Y-100454638D01*
X38756167Y-100403013D01*
X38894634Y-100345565D01*
X39054624Y-100276430D01*
X39219783Y-100202835D01*
X39373759Y-100132003D01*
X39432188Y-100104325D01*
X39604276Y-100023713D01*
X41327528Y-100023713D01*
X41339411Y-100036966D01*
X41381119Y-100050313D01*
X41396894Y-100053428D01*
X41500703Y-100073616D01*
X41622509Y-100100573D01*
X41753346Y-100131961D01*
X41884246Y-100165442D01*
X42006241Y-100198677D01*
X42110364Y-100229329D01*
X42187648Y-100255059D01*
X42218393Y-100267628D01*
X42259447Y-100285575D01*
X42302093Y-100299437D01*
X42353378Y-100310162D01*
X42420350Y-100318700D01*
X42510056Y-100325998D01*
X42629545Y-100333006D01*
X42747559Y-100338863D01*
X42882059Y-100346274D01*
X43006592Y-100355007D01*
X43113246Y-100364359D01*
X43194108Y-100373630D01*
X43241262Y-100382118D01*
X43243500Y-100382793D01*
X43298243Y-100395507D01*
X43380646Y-100408943D01*
X43476142Y-100420849D01*
X43513802Y-100424592D01*
X43615280Y-100435801D01*
X43688292Y-100450018D01*
X43746697Y-100471165D01*
X43804352Y-100503164D01*
X43814818Y-100509800D01*
X43884778Y-100549915D01*
X43936911Y-100566095D01*
X43982411Y-100563256D01*
X44041163Y-100561740D01*
X44125003Y-100574239D01*
X44225138Y-100597803D01*
X44332775Y-100629484D01*
X44439122Y-100666335D01*
X44535385Y-100705407D01*
X44612773Y-100743752D01*
X44662491Y-100778422D01*
X44675122Y-100795519D01*
X44697566Y-100817193D01*
X44747426Y-100851235D01*
X44814003Y-100891587D01*
X44886599Y-100932193D01*
X44954517Y-100966997D01*
X45007058Y-100989943D01*
X45028712Y-100995692D01*
X45027022Y-100978943D01*
X45008255Y-100932932D01*
X44975827Y-100865443D01*
X44947871Y-100811542D01*
X44899911Y-100726386D01*
X44852896Y-100651252D01*
X44813923Y-100597134D01*
X44798887Y-100580672D01*
X44725475Y-100531511D01*
X44613592Y-100480623D01*
X44467014Y-100428936D01*
X44289519Y-100377373D01*
X44084886Y-100326861D01*
X43856893Y-100278325D01*
X43609317Y-100232690D01*
X43345937Y-100190882D01*
X43070530Y-100153826D01*
X43042417Y-100150411D01*
X42902273Y-100131845D01*
X42753425Y-100109257D01*
X42611377Y-100085173D01*
X42491635Y-100062119D01*
X42464408Y-100056235D01*
X42234798Y-100007426D01*
X42037964Y-99970760D01*
X41876120Y-99946598D01*
X41751480Y-99935300D01*
X41717849Y-99934453D01*
X41647364Y-99939102D01*
X41563604Y-99951567D01*
X41478099Y-99969210D01*
X41402375Y-99989395D01*
X41347962Y-100009487D01*
X41327528Y-100023713D01*
X39604276Y-100023713D01*
X39606343Y-100022745D01*
X39750847Y-99959682D01*
X39872817Y-99912674D01*
X39979372Y-99879255D01*
X40077628Y-99856963D01*
X40174703Y-99843334D01*
X40190689Y-99841785D01*
X40273399Y-99830181D01*
X40380028Y-99809583D01*
X40494012Y-99783382D01*
X40559239Y-99766328D01*
X40665116Y-99738804D01*
X40769023Y-99714696D01*
X40856428Y-99697239D01*
X40897906Y-99690944D01*
X41022607Y-99657182D01*
X41151339Y-99586226D01*
X41277587Y-99481877D01*
X41306750Y-99452332D01*
X41373857Y-99389591D01*
X41448235Y-99337377D01*
X41534352Y-99294684D01*
X41636673Y-99260508D01*
X41759665Y-99233841D01*
X41907794Y-99213680D01*
X42085525Y-99199018D01*
X42297326Y-99188850D01*
X42502667Y-99183093D01*
X42690295Y-99179752D01*
X42843079Y-99179385D01*
X42968460Y-99183026D01*
G37*
X42968460Y-99183026D02*
X43073882Y-99191707D01*
X43166789Y-99206462D01*
X43254624Y-99228322D01*
X43344830Y-99258322D01*
X43444850Y-99297494D01*
X43503591Y-99321992D01*
X43592879Y-99358927D01*
X43672736Y-99390603D01*
X43731696Y-99412538D01*
X43751500Y-99418948D01*
X43875122Y-99455406D01*
X44010428Y-99499050D01*
X44147243Y-99546243D01*
X44275394Y-99593346D01*
X44384704Y-99636720D01*
X44465001Y-99672728D01*
X44473974Y-99677300D01*
X44563450Y-99729226D01*
X44655385Y-99790831D01*
X44719816Y-99840561D01*
X44810917Y-99905638D01*
X44925485Y-99962956D01*
X45023926Y-100001013D01*
X45183842Y-100061021D01*
X45304530Y-100113974D01*
X45388288Y-100161048D01*
X45437414Y-100203420D01*
X45447128Y-100217870D01*
X45477954Y-100293957D01*
X45504996Y-100392560D01*
X45523585Y-100493871D01*
X45529249Y-100566224D01*
X45523581Y-100625173D01*
X45501842Y-100679805D01*
X45457490Y-100745101D01*
X45443094Y-100763594D01*
X45378250Y-100854559D01*
X45329219Y-100941092D01*
X45301288Y-101013065D01*
X45296835Y-101043695D01*
X45312669Y-101068027D01*
X45354871Y-101110103D01*
X45415737Y-101162546D01*
X45446762Y-101187250D01*
X45563664Y-101285184D01*
X45685668Y-101399601D01*
X45804055Y-101521328D01*
X45910106Y-101641190D01*
X45995103Y-101750015D01*
X46027621Y-101798446D01*
X46079500Y-101874051D01*
X46149496Y-101965676D01*
X46226334Y-102058878D01*
X46267184Y-102105311D01*
X46379480Y-102237361D01*
X46484997Y-102376355D01*
X46577354Y-102512961D01*
X46650169Y-102637847D01*
X46690724Y-102724717D01*
X46712888Y-102792342D01*
X46738202Y-102887079D01*
X46762939Y-102994267D01*
X46776887Y-103063383D01*
X46801396Y-103178020D01*
X46834978Y-103314639D01*
X46872990Y-103455172D01*
X46906660Y-103568500D01*
X46950173Y-103721483D01*
X46983465Y-103873966D01*
X47006848Y-104031975D01*
X47020636Y-104201538D01*
X47025141Y-104388683D01*
X47020676Y-104599437D01*
X47007554Y-104839827D01*
X46986625Y-105109623D01*
X46974422Y-105236287D01*
X46961327Y-105326052D01*
X46944720Y-105384317D01*
X46921981Y-105416482D01*
X46890488Y-105427945D01*
X46847620Y-105424106D01*
X46835242Y-105421484D01*
X46791834Y-105417461D01*
X46733888Y-105423839D01*
X46653693Y-105442094D01*
X46543538Y-105473703D01*
X46511865Y-105483415D01*
X46375138Y-105527089D01*
X46272827Y-105563633D01*
X46198299Y-105596262D01*
X46144921Y-105628195D01*
X46106061Y-105662647D01*
X46082910Y-105691430D01*
X46033966Y-105779967D01*
X46021738Y-105852035D01*
X46043050Y-105905333D01*
X46094724Y-105937558D01*
X46173583Y-105946408D01*
X46276451Y-105929579D01*
X46368402Y-105898335D01*
X46466758Y-105863106D01*
X46590926Y-105825476D01*
X46724934Y-105789853D01*
X46852813Y-105760646D01*
X46900847Y-105751354D01*
X46952388Y-105747655D01*
X46977541Y-105763908D01*
X46982629Y-105775493D01*
X46996091Y-105808669D01*
X47023394Y-105870916D01*
X47060417Y-105952976D01*
X47098240Y-106035249D01*
X47139141Y-106125424D01*
X47172405Y-106202482D01*
X47194428Y-106257822D01*
X47201667Y-106282175D01*
X47216290Y-106303617D01*
X47257012Y-106349164D01*
X47319110Y-106413902D01*
X47397862Y-106492917D01*
X47488544Y-106581294D01*
X47495795Y-106588259D01*
X47603304Y-106692439D01*
X47687325Y-106777444D01*
X47755591Y-106852692D01*
X47815832Y-106927603D01*
X47875780Y-107011592D01*
X47943166Y-107114079D01*
X47996831Y-107198584D01*
X48137298Y-107424039D01*
X48268538Y-107640049D01*
X48387701Y-107841699D01*
X48491938Y-108024078D01*
X48578401Y-108182273D01*
X48644241Y-108311373D01*
X48653615Y-108331000D01*
X48684727Y-108403799D01*
X48722251Y-108502197D01*
X48763715Y-108618501D01*
X48806645Y-108745019D01*
X48848571Y-108874059D01*
X48887018Y-108997929D01*
X48919515Y-109108936D01*
X48943589Y-109199389D01*
X48956769Y-109261596D01*
X48958500Y-109279547D01*
X48946808Y-109327068D01*
X48915755Y-109397498D01*
X48871374Y-109479875D01*
X48819698Y-109563236D01*
X48766760Y-109636619D01*
X48752378Y-109654066D01*
X48690615Y-109714102D01*
X48620032Y-109765904D01*
X48590771Y-109782053D01*
X48536131Y-109813610D01*
X48461426Y-109864350D01*
X48378697Y-109925865D01*
X48334084Y-109961289D01*
X48241458Y-110032607D01*
X48154211Y-110088725D01*
X48062141Y-110134240D01*
X47955046Y-110173745D01*
X47822727Y-110211834D01*
X47721151Y-110237333D01*
X47418108Y-110302332D01*
X47086931Y-110357145D01*
X46724983Y-110402048D01*
X46329622Y-110437321D01*
X45898209Y-110463242D01*
X45428106Y-110480087D01*
X45413084Y-110480463D01*
X45217795Y-110485652D01*
X45020978Y-110491560D01*
X44830284Y-110497909D01*
X44653366Y-110504420D01*
X44497873Y-110510816D01*
X44371458Y-110516820D01*
X44301834Y-110520801D01*
X44123435Y-110529954D01*
X43930648Y-110535903D01*
X43733158Y-110538657D01*
X43540652Y-110538226D01*
X43362816Y-110534618D01*
X43209336Y-110527844D01*
X43105917Y-110519671D01*
X42967162Y-110501978D01*
X42827913Y-110476893D01*
X42678649Y-110442192D01*
X42509853Y-110395651D01*
X42312004Y-110335046D01*
X42301584Y-110331735D01*
X42176971Y-110293001D01*
X42051917Y-110255710D01*
X41938547Y-110223378D01*
X41848987Y-110199516D01*
X41825334Y-110193774D01*
X41666290Y-110146199D01*
X41508962Y-110076219D01*
X41343120Y-109978890D01*
X41250611Y-109916177D01*
X41161690Y-109858110D01*
X41087753Y-109818762D01*
X41036813Y-109802320D01*
X41032256Y-109802084D01*
X40986666Y-109806907D01*
X40913026Y-109819793D01*
X40824311Y-109838364D01*
X40786110Y-109847184D01*
X40596346Y-109892284D01*
X40412947Y-109767809D01*
X40312949Y-109695728D01*
X40205408Y-109611515D01*
X40108756Y-109529793D01*
X40080232Y-109503851D01*
X40004181Y-109436149D01*
X39900998Y-109349161D01*
X39777748Y-109248557D01*
X39641493Y-109140006D01*
X39499300Y-109029179D01*
X39433956Y-108979414D01*
X46063308Y-108979414D01*
X46087390Y-109091410D01*
X46139223Y-109231088D01*
X46174963Y-109310583D01*
X46220574Y-109405122D01*
X46256323Y-109470067D01*
X46289217Y-109514653D01*
X46326261Y-109548112D01*
X46374462Y-109579680D01*
X46382983Y-109584761D01*
X46454110Y-109623159D01*
X46550250Y-109669800D01*
X46663632Y-109721450D01*
X46786487Y-109774879D01*
X46911043Y-109826852D01*
X47029531Y-109874137D01*
X47134179Y-109913503D01*
X47217218Y-109941715D01*
X47270877Y-109955543D01*
X47275750Y-109956161D01*
X47334942Y-109960153D01*
X47421626Y-109963944D01*
X47520962Y-109966934D01*
X47565783Y-109967859D01*
X47652172Y-109968449D01*
X47721302Y-109965294D01*
X47784864Y-109956142D01*
X47854547Y-109938744D01*
X47942041Y-109910850D01*
X48042033Y-109876192D01*
X48216784Y-109812523D01*
X48354988Y-109756670D01*
X48461174Y-109706208D01*
X48539872Y-109658716D01*
X48595610Y-109611768D01*
X48632917Y-109562940D01*
X48635360Y-109558667D01*
X48668328Y-109466921D01*
X48681662Y-109353840D01*
X48677143Y-109229609D01*
X48656553Y-109104411D01*
X48621672Y-108988431D01*
X48574281Y-108891854D01*
X48516161Y-108824863D01*
X48505742Y-108817410D01*
X48392959Y-108764893D01*
X48279593Y-108754679D01*
X48165781Y-108786746D01*
X48051659Y-108861071D01*
X48006000Y-108902583D01*
X47880760Y-109004165D01*
X47739633Y-109082519D01*
X47596113Y-109130624D01*
X47552923Y-109138341D01*
X47481387Y-109137642D01*
X47378958Y-109122439D01*
X47253590Y-109095039D01*
X47113241Y-109057753D01*
X46965867Y-109012889D01*
X46819423Y-108962758D01*
X46681867Y-108909668D01*
X46561155Y-108855929D01*
X46534917Y-108842856D01*
X46443957Y-108802255D01*
X46362039Y-108782207D01*
X46273799Y-108776708D01*
X46197298Y-108778054D01*
X46149692Y-108786403D01*
X46117659Y-108805647D01*
X46096770Y-108828417D01*
X46066571Y-108892588D01*
X46063308Y-108979414D01*
X39433956Y-108979414D01*
X39358231Y-108921743D01*
X39309417Y-108885238D01*
X39212401Y-108829123D01*
X39106980Y-108802881D01*
X38982101Y-108804334D01*
X38932314Y-108810895D01*
X38819860Y-108820396D01*
X38735499Y-108806431D01*
X38670153Y-108765797D01*
X38617547Y-108699776D01*
X38580808Y-108648450D01*
X38536160Y-108602083D01*
X38477261Y-108556237D01*
X38397766Y-108506475D01*
X38291331Y-108448357D01*
X38169690Y-108386449D01*
X38072924Y-108336082D01*
X37989353Y-108288692D01*
X37926736Y-108248967D01*
X37892832Y-108221589D01*
X37889906Y-108217522D01*
X37872773Y-108170991D01*
X37857325Y-108106180D01*
X37854623Y-108090677D01*
X37834367Y-108008237D01*
X37800228Y-107958592D01*
X37743255Y-107932492D01*
X37693514Y-107924187D01*
X37628233Y-107912029D01*
X37590779Y-107889268D01*
X37570879Y-107857544D01*
X37560179Y-107818647D01*
X37546593Y-107745763D01*
X37531395Y-107647033D01*
X37515860Y-107530598D01*
X37504182Y-107431417D01*
X37477417Y-107213739D01*
X37449131Y-107034564D01*
X37418131Y-106890063D01*
X37383224Y-106776408D01*
X37343218Y-106689770D01*
X37296921Y-106626321D01*
X37243138Y-106582230D01*
X37238850Y-106579644D01*
X37206729Y-106558896D01*
X37179448Y-106534799D01*
X37153996Y-106501656D01*
X37127362Y-106453773D01*
X37096536Y-106385456D01*
X37058508Y-106291010D01*
X37010267Y-106164740D01*
X36987416Y-106103989D01*
X36970907Y-106061046D01*
X41169879Y-106061046D01*
X41182555Y-106101967D01*
X41191960Y-106109506D01*
X41222466Y-106112955D01*
X41282801Y-106109420D01*
X41361183Y-106099699D01*
X41380058Y-106096748D01*
X41545362Y-106069903D01*
X41891723Y-106179406D01*
X42112236Y-106245986D01*
X42307689Y-106297274D01*
X42491400Y-106335836D01*
X42676692Y-106364241D01*
X42876883Y-106385053D01*
X43010667Y-106395029D01*
X43189818Y-106409091D01*
X43334578Y-106426048D01*
X43452872Y-106447513D01*
X43552622Y-106475099D01*
X43641753Y-106510419D01*
X43687292Y-106532772D01*
X43799944Y-106575340D01*
X43906826Y-106579730D01*
X43981175Y-106561513D01*
X44031632Y-106528281D01*
X44049018Y-106480148D01*
X44037092Y-106423089D01*
X43999611Y-106363076D01*
X43940334Y-106306083D01*
X43863019Y-106258083D01*
X43771425Y-106225051D01*
X43769151Y-106224508D01*
X43694135Y-106202351D01*
X43628397Y-106175489D01*
X43603334Y-106161315D01*
X43540152Y-106119387D01*
X43484492Y-106088701D01*
X43427585Y-106067166D01*
X43360664Y-106052692D01*
X43274962Y-106043188D01*
X43161712Y-106036564D01*
X43063584Y-106032603D01*
X42915451Y-106025598D01*
X42789026Y-106015459D01*
X42669209Y-106000213D01*
X42540901Y-105977887D01*
X42389003Y-105946506D01*
X42365084Y-105941297D01*
X42170470Y-105902905D01*
X41977637Y-105872623D01*
X41794667Y-105851256D01*
X41629644Y-105839605D01*
X41490652Y-105838475D01*
X41403342Y-105845727D01*
X41325334Y-105867638D01*
X41260708Y-105914050D01*
X41239300Y-105936100D01*
X41189376Y-106003624D01*
X41169879Y-106061046D01*
X36970907Y-106061046D01*
X36888435Y-105846529D01*
X36798763Y-105627165D01*
X36716907Y-105443060D01*
X36641373Y-105291379D01*
X36570668Y-105169285D01*
X36503299Y-105073941D01*
X36437772Y-105002513D01*
X36385259Y-104960401D01*
X36318054Y-104912400D01*
X36240846Y-104853919D01*
X36199497Y-104821157D01*
X36125156Y-104765927D01*
X36044971Y-104713767D01*
X36004500Y-104690832D01*
X35872866Y-104613956D01*
X35774952Y-104535541D01*
X35702549Y-104448217D01*
X35668125Y-104388847D01*
X35609581Y-104291238D01*
X35549074Y-104220228D01*
X36500823Y-104220228D01*
X36505749Y-104259704D01*
X36535516Y-104316771D01*
X36597713Y-104377442D01*
X36683598Y-104435484D01*
X36784427Y-104484661D01*
X36856146Y-104509591D01*
X36978999Y-104539537D01*
X37073948Y-104548724D01*
X37149815Y-104537452D01*
X37189887Y-104520973D01*
X37242047Y-104477237D01*
X37300490Y-104400213D01*
X37360596Y-104297518D01*
X37417746Y-104176768D01*
X37452906Y-104087281D01*
X37489086Y-104000094D01*
X37531275Y-103917482D01*
X37569633Y-103858317D01*
X37618796Y-103787066D01*
X37671904Y-103695185D01*
X37721154Y-103597753D01*
X37758745Y-103509850D01*
X37773298Y-103464700D01*
X37809794Y-103404767D01*
X37887777Y-103348891D01*
X38006568Y-103297365D01*
X38165488Y-103250484D01*
X38363858Y-103208542D01*
X38364584Y-103208411D01*
X38515006Y-103174030D01*
X38649363Y-103129346D01*
X38759263Y-103077742D01*
X38836314Y-103022601D01*
X38843481Y-103015348D01*
X38874032Y-102970921D01*
X38891807Y-102910196D01*
X38900322Y-102830530D01*
X38896541Y-102714959D01*
X38866120Y-102612908D01*
X38804520Y-102513347D01*
X38738330Y-102437030D01*
X38656888Y-102351417D01*
X38493096Y-102351417D01*
X38423152Y-102353283D01*
X38351243Y-102359756D01*
X38271296Y-102372143D01*
X38177237Y-102391753D01*
X38062991Y-102419897D01*
X37922487Y-102457882D01*
X37749649Y-102507019D01*
X37687250Y-102525099D01*
X37552805Y-102564814D01*
X37451682Y-102596747D01*
X37376316Y-102624073D01*
X37319136Y-102649964D01*
X37272574Y-102677593D01*
X37229064Y-102710133D01*
X37211742Y-102724458D01*
X37169958Y-102766440D01*
X37110521Y-102835036D01*
X37039834Y-102922028D01*
X36964300Y-103019195D01*
X36890325Y-103118320D01*
X36824311Y-103211182D01*
X36777553Y-103281730D01*
X36714075Y-103397796D01*
X36654404Y-103534887D01*
X36601044Y-103683989D01*
X36556500Y-103836088D01*
X36523279Y-103982171D01*
X36503885Y-104113222D01*
X36500823Y-104220228D01*
X35549074Y-104220228D01*
X35535927Y-104204799D01*
X35437122Y-104118538D01*
X35385605Y-104079644D01*
X35270695Y-103983006D01*
X35181725Y-103875933D01*
X35105734Y-103742730D01*
X35103359Y-103737834D01*
X35077425Y-103680992D01*
X35056607Y-103625625D01*
X35039146Y-103563857D01*
X35023281Y-103487813D01*
X35007254Y-103389617D01*
X34989306Y-103261394D01*
X34978398Y-103178456D01*
X34961236Y-103036966D01*
X34946364Y-102896539D01*
X34934736Y-102767654D01*
X34927308Y-102660788D01*
X34925000Y-102592220D01*
X34926549Y-102502564D01*
X34933993Y-102436052D01*
X34951526Y-102375891D01*
X34983346Y-102305289D01*
X35009546Y-102253815D01*
X35052228Y-102174484D01*
X35091809Y-102106385D01*
X35121516Y-102061001D01*
X35127887Y-102053091D01*
X35185482Y-102005486D01*
X35263990Y-101970302D01*
X35369819Y-101945633D01*
X35509382Y-101929571D01*
X35553804Y-101926456D01*
X35660256Y-101918321D01*
X35747476Y-101906339D01*
X35823229Y-101886803D01*
X35895282Y-101856009D01*
X35971400Y-101810250D01*
X36059351Y-101745821D01*
X36166899Y-101659016D01*
X36237334Y-101600296D01*
X36358637Y-101499599D01*
X36457021Y-101422726D01*
X36541688Y-101365926D01*
X36621839Y-101325449D01*
X36706676Y-101297545D01*
X36805401Y-101278463D01*
X36927216Y-101264453D01*
X37081322Y-101251764D01*
X37095070Y-101250713D01*
X37247956Y-101237561D01*
X37367738Y-101222073D01*
X37463629Y-101200697D01*
X37544839Y-101169881D01*
X37620582Y-101126073D01*
X37700070Y-101065721D01*
X37792513Y-100985273D01*
X37799252Y-100979208D01*
X37913373Y-100877264D01*
X38009681Y-100794639D01*
X38095590Y-100726871D01*
X38178511Y-100669494D01*
X38265859Y-100618046D01*
X38365046Y-100568063D01*
X38483484Y-100515082D01*
X38628588Y-100454638D01*
X38756167Y-100403013D01*
X38894634Y-100345565D01*
X39054624Y-100276430D01*
X39219783Y-100202835D01*
X39373759Y-100132003D01*
X39432188Y-100104325D01*
X39604276Y-100023713D01*
X41327528Y-100023713D01*
X41339411Y-100036966D01*
X41381119Y-100050313D01*
X41396894Y-100053428D01*
X41500703Y-100073616D01*
X41622509Y-100100573D01*
X41753346Y-100131961D01*
X41884246Y-100165442D01*
X42006241Y-100198677D01*
X42110364Y-100229329D01*
X42187648Y-100255059D01*
X42218393Y-100267628D01*
X42259447Y-100285575D01*
X42302093Y-100299437D01*
X42353378Y-100310162D01*
X42420350Y-100318700D01*
X42510056Y-100325998D01*
X42629545Y-100333006D01*
X42747559Y-100338863D01*
X42882059Y-100346274D01*
X43006592Y-100355007D01*
X43113246Y-100364359D01*
X43194108Y-100373630D01*
X43241262Y-100382118D01*
X43243500Y-100382793D01*
X43298243Y-100395507D01*
X43380646Y-100408943D01*
X43476142Y-100420849D01*
X43513802Y-100424592D01*
X43615280Y-100435801D01*
X43688292Y-100450018D01*
X43746697Y-100471165D01*
X43804352Y-100503164D01*
X43814818Y-100509800D01*
X43884778Y-100549915D01*
X43936911Y-100566095D01*
X43982411Y-100563256D01*
X44041163Y-100561740D01*
X44125003Y-100574239D01*
X44225138Y-100597803D01*
X44332775Y-100629484D01*
X44439122Y-100666335D01*
X44535385Y-100705407D01*
X44612773Y-100743752D01*
X44662491Y-100778422D01*
X44675122Y-100795519D01*
X44697566Y-100817193D01*
X44747426Y-100851235D01*
X44814003Y-100891587D01*
X44886599Y-100932193D01*
X44954517Y-100966997D01*
X45007058Y-100989943D01*
X45028712Y-100995692D01*
X45027022Y-100978943D01*
X45008255Y-100932932D01*
X44975827Y-100865443D01*
X44947871Y-100811542D01*
X44899911Y-100726386D01*
X44852896Y-100651252D01*
X44813923Y-100597134D01*
X44798887Y-100580672D01*
X44725475Y-100531511D01*
X44613592Y-100480623D01*
X44467014Y-100428936D01*
X44289519Y-100377373D01*
X44084886Y-100326861D01*
X43856893Y-100278325D01*
X43609317Y-100232690D01*
X43345937Y-100190882D01*
X43070530Y-100153826D01*
X43042417Y-100150411D01*
X42902273Y-100131845D01*
X42753425Y-100109257D01*
X42611377Y-100085173D01*
X42491635Y-100062119D01*
X42464408Y-100056235D01*
X42234798Y-100007426D01*
X42037964Y-99970760D01*
X41876120Y-99946598D01*
X41751480Y-99935300D01*
X41717849Y-99934453D01*
X41647364Y-99939102D01*
X41563604Y-99951567D01*
X41478099Y-99969210D01*
X41402375Y-99989395D01*
X41347962Y-100009487D01*
X41327528Y-100023713D01*
X39604276Y-100023713D01*
X39606343Y-100022745D01*
X39750847Y-99959682D01*
X39872817Y-99912674D01*
X39979372Y-99879255D01*
X40077628Y-99856963D01*
X40174703Y-99843334D01*
X40190689Y-99841785D01*
X40273399Y-99830181D01*
X40380028Y-99809583D01*
X40494012Y-99783382D01*
X40559239Y-99766328D01*
X40665116Y-99738804D01*
X40769023Y-99714696D01*
X40856428Y-99697239D01*
X40897906Y-99690944D01*
X41022607Y-99657182D01*
X41151339Y-99586226D01*
X41277587Y-99481877D01*
X41306750Y-99452332D01*
X41373857Y-99389591D01*
X41448235Y-99337377D01*
X41534352Y-99294684D01*
X41636673Y-99260508D01*
X41759665Y-99233841D01*
X41907794Y-99213680D01*
X42085525Y-99199018D01*
X42297326Y-99188850D01*
X42502667Y-99183093D01*
X42690295Y-99179752D01*
X42843079Y-99179385D01*
X42968460Y-99183026D01*
D12*
%TO.C,D23*%
X100615750Y-114331750D02*
X100615750Y-115855750D01*
X100488750Y-114331750D02*
X100488750Y-115855750D01*
X100361750Y-115855750D02*
X100361750Y-114331750D01*
X99980750Y-114331750D02*
X99980750Y-115855750D01*
X100107750Y-115855750D02*
X100107750Y-114331750D01*
X100234750Y-114331750D02*
X100234750Y-115855750D01*
X104933750Y-115855750D02*
X104933750Y-114331750D01*
X99853750Y-115855750D02*
X104933750Y-115855750D01*
X99853750Y-114331750D02*
X99853750Y-115855750D01*
X104933750Y-114331750D02*
X99853750Y-114331750D01*
%TO.C,D22*%
X105378250Y-95281750D02*
X105378250Y-96805750D01*
X105251250Y-95281750D02*
X105251250Y-96805750D01*
X105124250Y-96805750D02*
X105124250Y-95281750D01*
X104743250Y-95281750D02*
X104743250Y-96805750D01*
X104870250Y-96805750D02*
X104870250Y-95281750D01*
X104997250Y-95281750D02*
X104997250Y-96805750D01*
X109696250Y-96805750D02*
X109696250Y-95281750D01*
X104616250Y-96805750D02*
X109696250Y-96805750D01*
X104616250Y-95281750D02*
X104616250Y-96805750D01*
X109696250Y-95281750D02*
X104616250Y-95281750D01*
%TO.C,D21*%
X105378250Y-76231750D02*
X105378250Y-77755750D01*
X105251250Y-76231750D02*
X105251250Y-77755750D01*
X105124250Y-77755750D02*
X105124250Y-76231750D01*
X104743250Y-76231750D02*
X104743250Y-77755750D01*
X104870250Y-77755750D02*
X104870250Y-76231750D01*
X104997250Y-76231750D02*
X104997250Y-77755750D01*
X109696250Y-77755750D02*
X109696250Y-76231750D01*
X104616250Y-77755750D02*
X109696250Y-77755750D01*
X104616250Y-76231750D02*
X104616250Y-77755750D01*
X109696250Y-76231750D02*
X104616250Y-76231750D01*
%TO.C,D20*%
X105378250Y-57181750D02*
X105378250Y-58705750D01*
X105251250Y-57181750D02*
X105251250Y-58705750D01*
X105124250Y-58705750D02*
X105124250Y-57181750D01*
X104743250Y-57181750D02*
X104743250Y-58705750D01*
X104870250Y-58705750D02*
X104870250Y-57181750D01*
X104997250Y-57181750D02*
X104997250Y-58705750D01*
X109696250Y-58705750D02*
X109696250Y-57181750D01*
X104616250Y-58705750D02*
X109696250Y-58705750D01*
X104616250Y-57181750D02*
X104616250Y-58705750D01*
X109696250Y-57181750D02*
X104616250Y-57181750D01*
%TO.C,D19*%
X114331750Y-32734250D02*
X115855750Y-32734250D01*
X114331750Y-32861250D02*
X115855750Y-32861250D01*
X115855750Y-32988250D02*
X114331750Y-32988250D01*
X114331750Y-33369250D02*
X115855750Y-33369250D01*
X115855750Y-33242250D02*
X114331750Y-33242250D01*
X114331750Y-33115250D02*
X115855750Y-33115250D01*
X115855750Y-28416250D02*
X114331750Y-28416250D01*
X115855750Y-33496250D02*
X115855750Y-28416250D01*
X114331750Y-33496250D02*
X115855750Y-33496250D01*
X114331750Y-28416250D02*
X114331750Y-33496250D01*
%TO.C,D18*%
X85756750Y-108934250D02*
X87280750Y-108934250D01*
X85756750Y-109061250D02*
X87280750Y-109061250D01*
X87280750Y-109188250D02*
X85756750Y-109188250D01*
X85756750Y-109569250D02*
X87280750Y-109569250D01*
X87280750Y-109442250D02*
X85756750Y-109442250D01*
X85756750Y-109315250D02*
X87280750Y-109315250D01*
X87280750Y-104616250D02*
X85756750Y-104616250D01*
X87280750Y-109696250D02*
X87280750Y-104616250D01*
X85756750Y-109696250D02*
X87280750Y-109696250D01*
X85756750Y-104616250D02*
X85756750Y-109696250D01*
%TO.C,D17*%
X95281750Y-89884250D02*
X96805750Y-89884250D01*
X95281750Y-90011250D02*
X96805750Y-90011250D01*
X96805750Y-90138250D02*
X95281750Y-90138250D01*
X95281750Y-90519250D02*
X96805750Y-90519250D01*
X96805750Y-90392250D02*
X95281750Y-90392250D01*
X95281750Y-90265250D02*
X96805750Y-90265250D01*
X96805750Y-85566250D02*
X95281750Y-85566250D01*
X96805750Y-90646250D02*
X96805750Y-85566250D01*
X95281750Y-90646250D02*
X96805750Y-90646250D01*
X95281750Y-85566250D02*
X95281750Y-90646250D01*
%TO.C,D16*%
X95281750Y-70834250D02*
X96805750Y-70834250D01*
X95281750Y-70961250D02*
X96805750Y-70961250D01*
X96805750Y-71088250D02*
X95281750Y-71088250D01*
X95281750Y-71469250D02*
X96805750Y-71469250D01*
X96805750Y-71342250D02*
X95281750Y-71342250D01*
X95281750Y-71215250D02*
X96805750Y-71215250D01*
X96805750Y-66516250D02*
X95281750Y-66516250D01*
X96805750Y-71596250D02*
X96805750Y-66516250D01*
X95281750Y-71596250D02*
X96805750Y-71596250D01*
X95281750Y-66516250D02*
X95281750Y-71596250D01*
%TO.C,D15*%
X95281750Y-51784250D02*
X96805750Y-51784250D01*
X95281750Y-51911250D02*
X96805750Y-51911250D01*
X96805750Y-52038250D02*
X95281750Y-52038250D01*
X95281750Y-52419250D02*
X96805750Y-52419250D01*
X96805750Y-52292250D02*
X95281750Y-52292250D01*
X95281750Y-52165250D02*
X96805750Y-52165250D01*
X96805750Y-47466250D02*
X95281750Y-47466250D01*
X96805750Y-52546250D02*
X96805750Y-47466250D01*
X95281750Y-52546250D02*
X96805750Y-52546250D01*
X95281750Y-47466250D02*
X95281750Y-52546250D01*
%TO.C,D14*%
X95281750Y-32734250D02*
X96805750Y-32734250D01*
X95281750Y-32861250D02*
X96805750Y-32861250D01*
X96805750Y-32988250D02*
X95281750Y-32988250D01*
X95281750Y-33369250D02*
X96805750Y-33369250D01*
X96805750Y-33242250D02*
X95281750Y-33242250D01*
X95281750Y-33115250D02*
X96805750Y-33115250D01*
X96805750Y-28416250D02*
X95281750Y-28416250D01*
X96805750Y-33496250D02*
X96805750Y-28416250D01*
X95281750Y-33496250D02*
X96805750Y-33496250D01*
X95281750Y-28416250D02*
X95281750Y-33496250D01*
%TO.C,D13*%
X66706750Y-108934250D02*
X68230750Y-108934250D01*
X66706750Y-109061250D02*
X68230750Y-109061250D01*
X68230750Y-109188250D02*
X66706750Y-109188250D01*
X66706750Y-109569250D02*
X68230750Y-109569250D01*
X68230750Y-109442250D02*
X66706750Y-109442250D01*
X66706750Y-109315250D02*
X68230750Y-109315250D01*
X68230750Y-104616250D02*
X66706750Y-104616250D01*
X68230750Y-109696250D02*
X68230750Y-104616250D01*
X66706750Y-109696250D02*
X68230750Y-109696250D01*
X66706750Y-104616250D02*
X66706750Y-109696250D01*
%TO.C,D12*%
X76231750Y-89884250D02*
X77755750Y-89884250D01*
X76231750Y-90011250D02*
X77755750Y-90011250D01*
X77755750Y-90138250D02*
X76231750Y-90138250D01*
X76231750Y-90519250D02*
X77755750Y-90519250D01*
X77755750Y-90392250D02*
X76231750Y-90392250D01*
X76231750Y-90265250D02*
X77755750Y-90265250D01*
X77755750Y-85566250D02*
X76231750Y-85566250D01*
X77755750Y-90646250D02*
X77755750Y-85566250D01*
X76231750Y-90646250D02*
X77755750Y-90646250D01*
X76231750Y-85566250D02*
X76231750Y-90646250D01*
%TO.C,D11*%
X76231750Y-70834250D02*
X77755750Y-70834250D01*
X76231750Y-70961250D02*
X77755750Y-70961250D01*
X77755750Y-71088250D02*
X76231750Y-71088250D01*
X76231750Y-71469250D02*
X77755750Y-71469250D01*
X77755750Y-71342250D02*
X76231750Y-71342250D01*
X76231750Y-71215250D02*
X77755750Y-71215250D01*
X77755750Y-66516250D02*
X76231750Y-66516250D01*
X77755750Y-71596250D02*
X77755750Y-66516250D01*
X76231750Y-71596250D02*
X77755750Y-71596250D01*
X76231750Y-66516250D02*
X76231750Y-71596250D01*
%TO.C,D10*%
X76231750Y-51784250D02*
X77755750Y-51784250D01*
X76231750Y-51911250D02*
X77755750Y-51911250D01*
X77755750Y-52038250D02*
X76231750Y-52038250D01*
X76231750Y-52419250D02*
X77755750Y-52419250D01*
X77755750Y-52292250D02*
X76231750Y-52292250D01*
X76231750Y-52165250D02*
X77755750Y-52165250D01*
X77755750Y-47466250D02*
X76231750Y-47466250D01*
X77755750Y-52546250D02*
X77755750Y-47466250D01*
X76231750Y-52546250D02*
X77755750Y-52546250D01*
X76231750Y-47466250D02*
X76231750Y-52546250D01*
%TO.C,D9*%
X76231750Y-32734250D02*
X77755750Y-32734250D01*
X76231750Y-32861250D02*
X77755750Y-32861250D01*
X77755750Y-32988250D02*
X76231750Y-32988250D01*
X76231750Y-33369250D02*
X77755750Y-33369250D01*
X77755750Y-33242250D02*
X76231750Y-33242250D01*
X76231750Y-33115250D02*
X77755750Y-33115250D01*
X77755750Y-28416250D02*
X76231750Y-28416250D01*
X77755750Y-33496250D02*
X77755750Y-28416250D01*
X76231750Y-33496250D02*
X77755750Y-33496250D01*
X76231750Y-28416250D02*
X76231750Y-33496250D01*
%TO.C,D8*%
X57181750Y-89884250D02*
X58705750Y-89884250D01*
X57181750Y-90011250D02*
X58705750Y-90011250D01*
X58705750Y-90138250D02*
X57181750Y-90138250D01*
X57181750Y-90519250D02*
X58705750Y-90519250D01*
X58705750Y-90392250D02*
X57181750Y-90392250D01*
X57181750Y-90265250D02*
X58705750Y-90265250D01*
X58705750Y-85566250D02*
X57181750Y-85566250D01*
X58705750Y-90646250D02*
X58705750Y-85566250D01*
X57181750Y-90646250D02*
X58705750Y-90646250D01*
X57181750Y-85566250D02*
X57181750Y-90646250D01*
%TO.C,D7*%
X57181750Y-70896750D02*
X58705750Y-70896750D01*
X57181750Y-71023750D02*
X58705750Y-71023750D01*
X58705750Y-71150750D02*
X57181750Y-71150750D01*
X57181750Y-71531750D02*
X58705750Y-71531750D01*
X58705750Y-71404750D02*
X57181750Y-71404750D01*
X57181750Y-71277750D02*
X58705750Y-71277750D01*
X58705750Y-66578750D02*
X57181750Y-66578750D01*
X58705750Y-71658750D02*
X58705750Y-66578750D01*
X57181750Y-71658750D02*
X58705750Y-71658750D01*
X57181750Y-66578750D02*
X57181750Y-71658750D01*
%TO.C,D6*%
X57181750Y-51784250D02*
X58705750Y-51784250D01*
X57181750Y-51911250D02*
X58705750Y-51911250D01*
X58705750Y-52038250D02*
X57181750Y-52038250D01*
X57181750Y-52419250D02*
X58705750Y-52419250D01*
X58705750Y-52292250D02*
X57181750Y-52292250D01*
X57181750Y-52165250D02*
X58705750Y-52165250D01*
X58705750Y-47466250D02*
X57181750Y-47466250D01*
X58705750Y-52546250D02*
X58705750Y-47466250D01*
X57181750Y-52546250D02*
X58705750Y-52546250D01*
X57181750Y-47466250D02*
X57181750Y-52546250D01*
%TO.C,D5*%
X57181750Y-32734250D02*
X58705750Y-32734250D01*
X57181750Y-32861250D02*
X58705750Y-32861250D01*
X58705750Y-32988250D02*
X57181750Y-32988250D01*
X57181750Y-33369250D02*
X58705750Y-33369250D01*
X58705750Y-33242250D02*
X57181750Y-33242250D01*
X57181750Y-33115250D02*
X58705750Y-33115250D01*
X58705750Y-28416250D02*
X57181750Y-28416250D01*
X58705750Y-33496250D02*
X58705750Y-28416250D01*
X57181750Y-33496250D02*
X58705750Y-33496250D01*
X57181750Y-28416250D02*
X57181750Y-33496250D01*
%TO.C,D4*%
X38131750Y-89884250D02*
X39655750Y-89884250D01*
X38131750Y-90011250D02*
X39655750Y-90011250D01*
X39655750Y-90138250D02*
X38131750Y-90138250D01*
X38131750Y-90519250D02*
X39655750Y-90519250D01*
X39655750Y-90392250D02*
X38131750Y-90392250D01*
X38131750Y-90265250D02*
X39655750Y-90265250D01*
X39655750Y-85566250D02*
X38131750Y-85566250D01*
X39655750Y-90646250D02*
X39655750Y-85566250D01*
X38131750Y-90646250D02*
X39655750Y-90646250D01*
X38131750Y-85566250D02*
X38131750Y-90646250D01*
%TO.C,D3*%
X38131750Y-70834250D02*
X39655750Y-70834250D01*
X38131750Y-70961250D02*
X39655750Y-70961250D01*
X39655750Y-71088250D02*
X38131750Y-71088250D01*
X38131750Y-71469250D02*
X39655750Y-71469250D01*
X39655750Y-71342250D02*
X38131750Y-71342250D01*
X38131750Y-71215250D02*
X39655750Y-71215250D01*
X39655750Y-66516250D02*
X38131750Y-66516250D01*
X39655750Y-71596250D02*
X39655750Y-66516250D01*
X38131750Y-71596250D02*
X39655750Y-71596250D01*
X38131750Y-66516250D02*
X38131750Y-71596250D01*
%TO.C,D2*%
X38131750Y-51784250D02*
X39655750Y-51784250D01*
X38131750Y-51911250D02*
X39655750Y-51911250D01*
X39655750Y-52038250D02*
X38131750Y-52038250D01*
X38131750Y-52419250D02*
X39655750Y-52419250D01*
X39655750Y-52292250D02*
X38131750Y-52292250D01*
X38131750Y-52165250D02*
X39655750Y-52165250D01*
X39655750Y-47466250D02*
X38131750Y-47466250D01*
X39655750Y-52546250D02*
X39655750Y-47466250D01*
X38131750Y-52546250D02*
X39655750Y-52546250D01*
X38131750Y-47466250D02*
X38131750Y-52546250D01*
%TO.C,D1*%
X38131750Y-32734250D02*
X39655750Y-32734250D01*
X38131750Y-32861250D02*
X39655750Y-32861250D01*
X39655750Y-32988250D02*
X38131750Y-32988250D01*
X38131750Y-33369250D02*
X39655750Y-33369250D01*
X39655750Y-33242250D02*
X38131750Y-33242250D01*
X38131750Y-33115250D02*
X39655750Y-33115250D01*
X39655750Y-28416250D02*
X38131750Y-28416250D01*
X39655750Y-33496250D02*
X39655750Y-28416250D01*
X38131750Y-33496250D02*
X39655750Y-33496250D01*
X38131750Y-28416250D02*
X38131750Y-33496250D01*
%TO.C,D23*%
X103390578Y-114055654D02*
X103390578Y-113255654D01*
X103200102Y-113255654D01*
X103085816Y-113293750D01*
X103009626Y-113369940D01*
X102971530Y-113446130D01*
X102933435Y-113598511D01*
X102933435Y-113712797D01*
X102971530Y-113865178D01*
X103009626Y-113941369D01*
X103085816Y-114017559D01*
X103200102Y-114055654D01*
X103390578Y-114055654D01*
X102628673Y-113331845D02*
X102590578Y-113293750D01*
X102514388Y-113255654D01*
X102323911Y-113255654D01*
X102247721Y-113293750D01*
X102209626Y-113331845D01*
X102171530Y-113408035D01*
X102171530Y-113484226D01*
X102209626Y-113598511D01*
X102666769Y-114055654D01*
X102171530Y-114055654D01*
X101904864Y-113255654D02*
X101409626Y-113255654D01*
X101676292Y-113560416D01*
X101562007Y-113560416D01*
X101485816Y-113598511D01*
X101447721Y-113636607D01*
X101409626Y-113712797D01*
X101409626Y-113903273D01*
X101447721Y-113979464D01*
X101485816Y-114017559D01*
X101562007Y-114055654D01*
X101790578Y-114055654D01*
X101866769Y-114017559D01*
X101904864Y-113979464D01*
%TO.C,D22*%
X108153078Y-95005654D02*
X108153078Y-94205654D01*
X107962602Y-94205654D01*
X107848316Y-94243750D01*
X107772126Y-94319940D01*
X107734030Y-94396130D01*
X107695935Y-94548511D01*
X107695935Y-94662797D01*
X107734030Y-94815178D01*
X107772126Y-94891369D01*
X107848316Y-94967559D01*
X107962602Y-95005654D01*
X108153078Y-95005654D01*
X107391173Y-94281845D02*
X107353078Y-94243750D01*
X107276888Y-94205654D01*
X107086411Y-94205654D01*
X107010221Y-94243750D01*
X106972126Y-94281845D01*
X106934030Y-94358035D01*
X106934030Y-94434226D01*
X106972126Y-94548511D01*
X107429269Y-95005654D01*
X106934030Y-95005654D01*
X106629269Y-94281845D02*
X106591173Y-94243750D01*
X106514983Y-94205654D01*
X106324507Y-94205654D01*
X106248316Y-94243750D01*
X106210221Y-94281845D01*
X106172126Y-94358035D01*
X106172126Y-94434226D01*
X106210221Y-94548511D01*
X106667364Y-95005654D01*
X106172126Y-95005654D01*
%TO.C,D21*%
X108153078Y-75955654D02*
X108153078Y-75155654D01*
X107962602Y-75155654D01*
X107848316Y-75193750D01*
X107772126Y-75269940D01*
X107734030Y-75346130D01*
X107695935Y-75498511D01*
X107695935Y-75612797D01*
X107734030Y-75765178D01*
X107772126Y-75841369D01*
X107848316Y-75917559D01*
X107962602Y-75955654D01*
X108153078Y-75955654D01*
X107391173Y-75231845D02*
X107353078Y-75193750D01*
X107276888Y-75155654D01*
X107086411Y-75155654D01*
X107010221Y-75193750D01*
X106972126Y-75231845D01*
X106934030Y-75308035D01*
X106934030Y-75384226D01*
X106972126Y-75498511D01*
X107429269Y-75955654D01*
X106934030Y-75955654D01*
X106172126Y-75955654D02*
X106629269Y-75955654D01*
X106400697Y-75955654D02*
X106400697Y-75155654D01*
X106476888Y-75269940D01*
X106553078Y-75346130D01*
X106629269Y-75384226D01*
%TO.C,D20*%
X108153078Y-56905654D02*
X108153078Y-56105654D01*
X107962602Y-56105654D01*
X107848316Y-56143750D01*
X107772126Y-56219940D01*
X107734030Y-56296130D01*
X107695935Y-56448511D01*
X107695935Y-56562797D01*
X107734030Y-56715178D01*
X107772126Y-56791369D01*
X107848316Y-56867559D01*
X107962602Y-56905654D01*
X108153078Y-56905654D01*
X107391173Y-56181845D02*
X107353078Y-56143750D01*
X107276888Y-56105654D01*
X107086411Y-56105654D01*
X107010221Y-56143750D01*
X106972126Y-56181845D01*
X106934030Y-56258035D01*
X106934030Y-56334226D01*
X106972126Y-56448511D01*
X107429269Y-56905654D01*
X106934030Y-56905654D01*
X106438792Y-56105654D02*
X106362602Y-56105654D01*
X106286411Y-56143750D01*
X106248316Y-56181845D01*
X106210221Y-56258035D01*
X106172126Y-56410416D01*
X106172126Y-56600892D01*
X106210221Y-56753273D01*
X106248316Y-56829464D01*
X106286411Y-56867559D01*
X106362602Y-56905654D01*
X106438792Y-56905654D01*
X106514983Y-56867559D01*
X106553078Y-56829464D01*
X106591173Y-56753273D01*
X106629269Y-56600892D01*
X106629269Y-56410416D01*
X106591173Y-56258035D01*
X106553078Y-56181845D01*
X106514983Y-56143750D01*
X106438792Y-56105654D01*
%TO.C,D19*%
X114055654Y-29959421D02*
X113255654Y-29959421D01*
X113255654Y-30149897D01*
X113293750Y-30264183D01*
X113369940Y-30340373D01*
X113446130Y-30378469D01*
X113598511Y-30416564D01*
X113712797Y-30416564D01*
X113865178Y-30378469D01*
X113941369Y-30340373D01*
X114017559Y-30264183D01*
X114055654Y-30149897D01*
X114055654Y-29959421D01*
X114055654Y-31178469D02*
X114055654Y-30721326D01*
X114055654Y-30949897D02*
X113255654Y-30949897D01*
X113369940Y-30873707D01*
X113446130Y-30797516D01*
X113484226Y-30721326D01*
X114055654Y-31559421D02*
X114055654Y-31711802D01*
X114017559Y-31787992D01*
X113979464Y-31826088D01*
X113865178Y-31902278D01*
X113712797Y-31940373D01*
X113408035Y-31940373D01*
X113331845Y-31902278D01*
X113293750Y-31864183D01*
X113255654Y-31787992D01*
X113255654Y-31635611D01*
X113293750Y-31559421D01*
X113331845Y-31521326D01*
X113408035Y-31483230D01*
X113598511Y-31483230D01*
X113674702Y-31521326D01*
X113712797Y-31559421D01*
X113750892Y-31635611D01*
X113750892Y-31787992D01*
X113712797Y-31864183D01*
X113674702Y-31902278D01*
X113598511Y-31940373D01*
%TO.C,D18*%
X85480654Y-106159421D02*
X84680654Y-106159421D01*
X84680654Y-106349897D01*
X84718750Y-106464183D01*
X84794940Y-106540373D01*
X84871130Y-106578469D01*
X85023511Y-106616564D01*
X85137797Y-106616564D01*
X85290178Y-106578469D01*
X85366369Y-106540373D01*
X85442559Y-106464183D01*
X85480654Y-106349897D01*
X85480654Y-106159421D01*
X85480654Y-107378469D02*
X85480654Y-106921326D01*
X85480654Y-107149897D02*
X84680654Y-107149897D01*
X84794940Y-107073707D01*
X84871130Y-106997516D01*
X84909226Y-106921326D01*
X85023511Y-107835611D02*
X84985416Y-107759421D01*
X84947321Y-107721326D01*
X84871130Y-107683230D01*
X84833035Y-107683230D01*
X84756845Y-107721326D01*
X84718750Y-107759421D01*
X84680654Y-107835611D01*
X84680654Y-107987992D01*
X84718750Y-108064183D01*
X84756845Y-108102278D01*
X84833035Y-108140373D01*
X84871130Y-108140373D01*
X84947321Y-108102278D01*
X84985416Y-108064183D01*
X85023511Y-107987992D01*
X85023511Y-107835611D01*
X85061607Y-107759421D01*
X85099702Y-107721326D01*
X85175892Y-107683230D01*
X85328273Y-107683230D01*
X85404464Y-107721326D01*
X85442559Y-107759421D01*
X85480654Y-107835611D01*
X85480654Y-107987992D01*
X85442559Y-108064183D01*
X85404464Y-108102278D01*
X85328273Y-108140373D01*
X85175892Y-108140373D01*
X85099702Y-108102278D01*
X85061607Y-108064183D01*
X85023511Y-107987992D01*
%TO.C,D17*%
X95005654Y-87109421D02*
X94205654Y-87109421D01*
X94205654Y-87299897D01*
X94243750Y-87414183D01*
X94319940Y-87490373D01*
X94396130Y-87528469D01*
X94548511Y-87566564D01*
X94662797Y-87566564D01*
X94815178Y-87528469D01*
X94891369Y-87490373D01*
X94967559Y-87414183D01*
X95005654Y-87299897D01*
X95005654Y-87109421D01*
X95005654Y-88328469D02*
X95005654Y-87871326D01*
X95005654Y-88099897D02*
X94205654Y-88099897D01*
X94319940Y-88023707D01*
X94396130Y-87947516D01*
X94434226Y-87871326D01*
X94205654Y-88595135D02*
X94205654Y-89128469D01*
X95005654Y-88785611D01*
%TO.C,D16*%
X95005654Y-68059421D02*
X94205654Y-68059421D01*
X94205654Y-68249897D01*
X94243750Y-68364183D01*
X94319940Y-68440373D01*
X94396130Y-68478469D01*
X94548511Y-68516564D01*
X94662797Y-68516564D01*
X94815178Y-68478469D01*
X94891369Y-68440373D01*
X94967559Y-68364183D01*
X95005654Y-68249897D01*
X95005654Y-68059421D01*
X95005654Y-69278469D02*
X95005654Y-68821326D01*
X95005654Y-69049897D02*
X94205654Y-69049897D01*
X94319940Y-68973707D01*
X94396130Y-68897516D01*
X94434226Y-68821326D01*
X94205654Y-69964183D02*
X94205654Y-69811802D01*
X94243750Y-69735611D01*
X94281845Y-69697516D01*
X94396130Y-69621326D01*
X94548511Y-69583230D01*
X94853273Y-69583230D01*
X94929464Y-69621326D01*
X94967559Y-69659421D01*
X95005654Y-69735611D01*
X95005654Y-69887992D01*
X94967559Y-69964183D01*
X94929464Y-70002278D01*
X94853273Y-70040373D01*
X94662797Y-70040373D01*
X94586607Y-70002278D01*
X94548511Y-69964183D01*
X94510416Y-69887992D01*
X94510416Y-69735611D01*
X94548511Y-69659421D01*
X94586607Y-69621326D01*
X94662797Y-69583230D01*
%TO.C,D15*%
X95005654Y-49009421D02*
X94205654Y-49009421D01*
X94205654Y-49199897D01*
X94243750Y-49314183D01*
X94319940Y-49390373D01*
X94396130Y-49428469D01*
X94548511Y-49466564D01*
X94662797Y-49466564D01*
X94815178Y-49428469D01*
X94891369Y-49390373D01*
X94967559Y-49314183D01*
X95005654Y-49199897D01*
X95005654Y-49009421D01*
X95005654Y-50228469D02*
X95005654Y-49771326D01*
X95005654Y-49999897D02*
X94205654Y-49999897D01*
X94319940Y-49923707D01*
X94396130Y-49847516D01*
X94434226Y-49771326D01*
X94205654Y-50952278D02*
X94205654Y-50571326D01*
X94586607Y-50533230D01*
X94548511Y-50571326D01*
X94510416Y-50647516D01*
X94510416Y-50837992D01*
X94548511Y-50914183D01*
X94586607Y-50952278D01*
X94662797Y-50990373D01*
X94853273Y-50990373D01*
X94929464Y-50952278D01*
X94967559Y-50914183D01*
X95005654Y-50837992D01*
X95005654Y-50647516D01*
X94967559Y-50571326D01*
X94929464Y-50533230D01*
%TO.C,D14*%
X95005654Y-29959421D02*
X94205654Y-29959421D01*
X94205654Y-30149897D01*
X94243750Y-30264183D01*
X94319940Y-30340373D01*
X94396130Y-30378469D01*
X94548511Y-30416564D01*
X94662797Y-30416564D01*
X94815178Y-30378469D01*
X94891369Y-30340373D01*
X94967559Y-30264183D01*
X95005654Y-30149897D01*
X95005654Y-29959421D01*
X95005654Y-31178469D02*
X95005654Y-30721326D01*
X95005654Y-30949897D02*
X94205654Y-30949897D01*
X94319940Y-30873707D01*
X94396130Y-30797516D01*
X94434226Y-30721326D01*
X94472321Y-31864183D02*
X95005654Y-31864183D01*
X94167559Y-31673707D02*
X94738988Y-31483230D01*
X94738988Y-31978469D01*
%TO.C,D13*%
X66430654Y-106159421D02*
X65630654Y-106159421D01*
X65630654Y-106349897D01*
X65668750Y-106464183D01*
X65744940Y-106540373D01*
X65821130Y-106578469D01*
X65973511Y-106616564D01*
X66087797Y-106616564D01*
X66240178Y-106578469D01*
X66316369Y-106540373D01*
X66392559Y-106464183D01*
X66430654Y-106349897D01*
X66430654Y-106159421D01*
X66430654Y-107378469D02*
X66430654Y-106921326D01*
X66430654Y-107149897D02*
X65630654Y-107149897D01*
X65744940Y-107073707D01*
X65821130Y-106997516D01*
X65859226Y-106921326D01*
X65630654Y-107645135D02*
X65630654Y-108140373D01*
X65935416Y-107873707D01*
X65935416Y-107987992D01*
X65973511Y-108064183D01*
X66011607Y-108102278D01*
X66087797Y-108140373D01*
X66278273Y-108140373D01*
X66354464Y-108102278D01*
X66392559Y-108064183D01*
X66430654Y-107987992D01*
X66430654Y-107759421D01*
X66392559Y-107683230D01*
X66354464Y-107645135D01*
%TO.C,D12*%
X75955654Y-87109421D02*
X75155654Y-87109421D01*
X75155654Y-87299897D01*
X75193750Y-87414183D01*
X75269940Y-87490373D01*
X75346130Y-87528469D01*
X75498511Y-87566564D01*
X75612797Y-87566564D01*
X75765178Y-87528469D01*
X75841369Y-87490373D01*
X75917559Y-87414183D01*
X75955654Y-87299897D01*
X75955654Y-87109421D01*
X75955654Y-88328469D02*
X75955654Y-87871326D01*
X75955654Y-88099897D02*
X75155654Y-88099897D01*
X75269940Y-88023707D01*
X75346130Y-87947516D01*
X75384226Y-87871326D01*
X75231845Y-88633230D02*
X75193750Y-88671326D01*
X75155654Y-88747516D01*
X75155654Y-88937992D01*
X75193750Y-89014183D01*
X75231845Y-89052278D01*
X75308035Y-89090373D01*
X75384226Y-89090373D01*
X75498511Y-89052278D01*
X75955654Y-88595135D01*
X75955654Y-89090373D01*
%TO.C,D11*%
X75955654Y-68059421D02*
X75155654Y-68059421D01*
X75155654Y-68249897D01*
X75193750Y-68364183D01*
X75269940Y-68440373D01*
X75346130Y-68478469D01*
X75498511Y-68516564D01*
X75612797Y-68516564D01*
X75765178Y-68478469D01*
X75841369Y-68440373D01*
X75917559Y-68364183D01*
X75955654Y-68249897D01*
X75955654Y-68059421D01*
X75955654Y-69278469D02*
X75955654Y-68821326D01*
X75955654Y-69049897D02*
X75155654Y-69049897D01*
X75269940Y-68973707D01*
X75346130Y-68897516D01*
X75384226Y-68821326D01*
X75955654Y-70040373D02*
X75955654Y-69583230D01*
X75955654Y-69811802D02*
X75155654Y-69811802D01*
X75269940Y-69735611D01*
X75346130Y-69659421D01*
X75384226Y-69583230D01*
%TO.C,D10*%
X75955654Y-49009421D02*
X75155654Y-49009421D01*
X75155654Y-49199897D01*
X75193750Y-49314183D01*
X75269940Y-49390373D01*
X75346130Y-49428469D01*
X75498511Y-49466564D01*
X75612797Y-49466564D01*
X75765178Y-49428469D01*
X75841369Y-49390373D01*
X75917559Y-49314183D01*
X75955654Y-49199897D01*
X75955654Y-49009421D01*
X75955654Y-50228469D02*
X75955654Y-49771326D01*
X75955654Y-49999897D02*
X75155654Y-49999897D01*
X75269940Y-49923707D01*
X75346130Y-49847516D01*
X75384226Y-49771326D01*
X75155654Y-50723707D02*
X75155654Y-50799897D01*
X75193750Y-50876088D01*
X75231845Y-50914183D01*
X75308035Y-50952278D01*
X75460416Y-50990373D01*
X75650892Y-50990373D01*
X75803273Y-50952278D01*
X75879464Y-50914183D01*
X75917559Y-50876088D01*
X75955654Y-50799897D01*
X75955654Y-50723707D01*
X75917559Y-50647516D01*
X75879464Y-50609421D01*
X75803273Y-50571326D01*
X75650892Y-50533230D01*
X75460416Y-50533230D01*
X75308035Y-50571326D01*
X75231845Y-50609421D01*
X75193750Y-50647516D01*
X75155654Y-50723707D01*
%TO.C,D9*%
X75955654Y-30340373D02*
X75155654Y-30340373D01*
X75155654Y-30530850D01*
X75193750Y-30645135D01*
X75269940Y-30721326D01*
X75346130Y-30759421D01*
X75498511Y-30797516D01*
X75612797Y-30797516D01*
X75765178Y-30759421D01*
X75841369Y-30721326D01*
X75917559Y-30645135D01*
X75955654Y-30530850D01*
X75955654Y-30340373D01*
X75955654Y-31178469D02*
X75955654Y-31330850D01*
X75917559Y-31407040D01*
X75879464Y-31445135D01*
X75765178Y-31521326D01*
X75612797Y-31559421D01*
X75308035Y-31559421D01*
X75231845Y-31521326D01*
X75193750Y-31483230D01*
X75155654Y-31407040D01*
X75155654Y-31254659D01*
X75193750Y-31178469D01*
X75231845Y-31140373D01*
X75308035Y-31102278D01*
X75498511Y-31102278D01*
X75574702Y-31140373D01*
X75612797Y-31178469D01*
X75650892Y-31254659D01*
X75650892Y-31407040D01*
X75612797Y-31483230D01*
X75574702Y-31521326D01*
X75498511Y-31559421D01*
%TO.C,D8*%
X56905654Y-87490373D02*
X56105654Y-87490373D01*
X56105654Y-87680850D01*
X56143750Y-87795135D01*
X56219940Y-87871326D01*
X56296130Y-87909421D01*
X56448511Y-87947516D01*
X56562797Y-87947516D01*
X56715178Y-87909421D01*
X56791369Y-87871326D01*
X56867559Y-87795135D01*
X56905654Y-87680850D01*
X56905654Y-87490373D01*
X56448511Y-88404659D02*
X56410416Y-88328469D01*
X56372321Y-88290373D01*
X56296130Y-88252278D01*
X56258035Y-88252278D01*
X56181845Y-88290373D01*
X56143750Y-88328469D01*
X56105654Y-88404659D01*
X56105654Y-88557040D01*
X56143750Y-88633230D01*
X56181845Y-88671326D01*
X56258035Y-88709421D01*
X56296130Y-88709421D01*
X56372321Y-88671326D01*
X56410416Y-88633230D01*
X56448511Y-88557040D01*
X56448511Y-88404659D01*
X56486607Y-88328469D01*
X56524702Y-88290373D01*
X56600892Y-88252278D01*
X56753273Y-88252278D01*
X56829464Y-88290373D01*
X56867559Y-88328469D01*
X56905654Y-88404659D01*
X56905654Y-88557040D01*
X56867559Y-88633230D01*
X56829464Y-88671326D01*
X56753273Y-88709421D01*
X56600892Y-88709421D01*
X56524702Y-88671326D01*
X56486607Y-88633230D01*
X56448511Y-88557040D01*
%TO.C,D7*%
X56905654Y-68502873D02*
X56105654Y-68502873D01*
X56105654Y-68693350D01*
X56143750Y-68807635D01*
X56219940Y-68883826D01*
X56296130Y-68921921D01*
X56448511Y-68960016D01*
X56562797Y-68960016D01*
X56715178Y-68921921D01*
X56791369Y-68883826D01*
X56867559Y-68807635D01*
X56905654Y-68693350D01*
X56905654Y-68502873D01*
X56105654Y-69226683D02*
X56105654Y-69760016D01*
X56905654Y-69417159D01*
%TO.C,D6*%
X56905654Y-49390373D02*
X56105654Y-49390373D01*
X56105654Y-49580850D01*
X56143750Y-49695135D01*
X56219940Y-49771326D01*
X56296130Y-49809421D01*
X56448511Y-49847516D01*
X56562797Y-49847516D01*
X56715178Y-49809421D01*
X56791369Y-49771326D01*
X56867559Y-49695135D01*
X56905654Y-49580850D01*
X56905654Y-49390373D01*
X56105654Y-50533230D02*
X56105654Y-50380850D01*
X56143750Y-50304659D01*
X56181845Y-50266564D01*
X56296130Y-50190373D01*
X56448511Y-50152278D01*
X56753273Y-50152278D01*
X56829464Y-50190373D01*
X56867559Y-50228469D01*
X56905654Y-50304659D01*
X56905654Y-50457040D01*
X56867559Y-50533230D01*
X56829464Y-50571326D01*
X56753273Y-50609421D01*
X56562797Y-50609421D01*
X56486607Y-50571326D01*
X56448511Y-50533230D01*
X56410416Y-50457040D01*
X56410416Y-50304659D01*
X56448511Y-50228469D01*
X56486607Y-50190373D01*
X56562797Y-50152278D01*
%TO.C,D5*%
X56905654Y-30340373D02*
X56105654Y-30340373D01*
X56105654Y-30530850D01*
X56143750Y-30645135D01*
X56219940Y-30721326D01*
X56296130Y-30759421D01*
X56448511Y-30797516D01*
X56562797Y-30797516D01*
X56715178Y-30759421D01*
X56791369Y-30721326D01*
X56867559Y-30645135D01*
X56905654Y-30530850D01*
X56905654Y-30340373D01*
X56105654Y-31521326D02*
X56105654Y-31140373D01*
X56486607Y-31102278D01*
X56448511Y-31140373D01*
X56410416Y-31216564D01*
X56410416Y-31407040D01*
X56448511Y-31483230D01*
X56486607Y-31521326D01*
X56562797Y-31559421D01*
X56753273Y-31559421D01*
X56829464Y-31521326D01*
X56867559Y-31483230D01*
X56905654Y-31407040D01*
X56905654Y-31216564D01*
X56867559Y-31140373D01*
X56829464Y-31102278D01*
%TO.C,D4*%
X37855654Y-87490373D02*
X37055654Y-87490373D01*
X37055654Y-87680850D01*
X37093750Y-87795135D01*
X37169940Y-87871326D01*
X37246130Y-87909421D01*
X37398511Y-87947516D01*
X37512797Y-87947516D01*
X37665178Y-87909421D01*
X37741369Y-87871326D01*
X37817559Y-87795135D01*
X37855654Y-87680850D01*
X37855654Y-87490373D01*
X37322321Y-88633230D02*
X37855654Y-88633230D01*
X37017559Y-88442754D02*
X37588988Y-88252278D01*
X37588988Y-88747516D01*
%TO.C,D3*%
X37855654Y-68440373D02*
X37055654Y-68440373D01*
X37055654Y-68630850D01*
X37093750Y-68745135D01*
X37169940Y-68821326D01*
X37246130Y-68859421D01*
X37398511Y-68897516D01*
X37512797Y-68897516D01*
X37665178Y-68859421D01*
X37741369Y-68821326D01*
X37817559Y-68745135D01*
X37855654Y-68630850D01*
X37855654Y-68440373D01*
X37055654Y-69164183D02*
X37055654Y-69659421D01*
X37360416Y-69392754D01*
X37360416Y-69507040D01*
X37398511Y-69583230D01*
X37436607Y-69621326D01*
X37512797Y-69659421D01*
X37703273Y-69659421D01*
X37779464Y-69621326D01*
X37817559Y-69583230D01*
X37855654Y-69507040D01*
X37855654Y-69278469D01*
X37817559Y-69202278D01*
X37779464Y-69164183D01*
%TO.C,D2*%
X37855654Y-49390373D02*
X37055654Y-49390373D01*
X37055654Y-49580850D01*
X37093750Y-49695135D01*
X37169940Y-49771326D01*
X37246130Y-49809421D01*
X37398511Y-49847516D01*
X37512797Y-49847516D01*
X37665178Y-49809421D01*
X37741369Y-49771326D01*
X37817559Y-49695135D01*
X37855654Y-49580850D01*
X37855654Y-49390373D01*
X37131845Y-50152278D02*
X37093750Y-50190373D01*
X37055654Y-50266564D01*
X37055654Y-50457040D01*
X37093750Y-50533230D01*
X37131845Y-50571326D01*
X37208035Y-50609421D01*
X37284226Y-50609421D01*
X37398511Y-50571326D01*
X37855654Y-50114183D01*
X37855654Y-50609421D01*
%TO.C,D1*%
X37855654Y-30340373D02*
X37055654Y-30340373D01*
X37055654Y-30530850D01*
X37093750Y-30645135D01*
X37169940Y-30721326D01*
X37246130Y-30759421D01*
X37398511Y-30797516D01*
X37512797Y-30797516D01*
X37665178Y-30759421D01*
X37741369Y-30721326D01*
X37817559Y-30645135D01*
X37855654Y-30530850D01*
X37855654Y-30340373D01*
X37855654Y-31559421D02*
X37855654Y-31102278D01*
X37855654Y-31330850D02*
X37055654Y-31330850D01*
X37169940Y-31254659D01*
X37246130Y-31178469D01*
X37284226Y-31102278D01*
%TD*%
%LPC*%
D13*
%TO.C,MX7*%
X55086250Y-69056250D03*
X44926250Y-69056250D03*
D14*
X47506250Y-65056250D03*
D15*
X50006250Y-69056250D03*
G36*
G01*
X45444938Y-67353600D02*
X45444933Y-67353595D01*
G75*
G02*
X45358905Y-65764933I751317J837345D01*
G01*
X46668907Y-64304933D01*
G75*
G02*
X48257569Y-64218905I837345J-751317D01*
G01*
X48257569Y-64218905D01*
G75*
G02*
X48343597Y-65807567I-751317J-837345D01*
G01*
X47033595Y-67267567D01*
G75*
G02*
X45444933Y-67353595I-837345J751317D01*
G01*
G37*
D14*
X52546250Y-63976250D03*
G36*
G01*
X52429733Y-65678645D02*
X52428847Y-65678584D01*
G75*
G02*
X51383916Y-64478847I77403J1122334D01*
G01*
X51423916Y-63898847D01*
G75*
G02*
X52623653Y-62853916I1122334J-77403D01*
G01*
X52623653Y-62853916D01*
G75*
G02*
X53668584Y-64053653I-77403J-1122334D01*
G01*
X53628584Y-64633653D01*
G75*
G02*
X52428847Y-65678584I-1122334J77403D01*
G01*
G37*
%TD*%
D16*
%TO.C,D23*%
X98493750Y-115093750D03*
D17*
X106293750Y-115093750D03*
D18*
X100993750Y-115093750D03*
X103793750Y-115093750D03*
%TD*%
D16*
%TO.C,D22*%
X103256250Y-96043750D03*
D17*
X111056250Y-96043750D03*
D18*
X105756250Y-96043750D03*
X108556250Y-96043750D03*
%TD*%
D16*
%TO.C,D21*%
X103256250Y-76993750D03*
D17*
X111056250Y-76993750D03*
D18*
X105756250Y-76993750D03*
X108556250Y-76993750D03*
%TD*%
D16*
%TO.C,D20*%
X103256250Y-57943750D03*
D17*
X111056250Y-57943750D03*
D18*
X105756250Y-57943750D03*
X108556250Y-57943750D03*
%TD*%
D16*
%TO.C,D19*%
X115093750Y-34856250D03*
D17*
X115093750Y-27056250D03*
D19*
X115093750Y-32356250D03*
X115093750Y-29556250D03*
%TD*%
D16*
%TO.C,D18*%
X86518750Y-111056250D03*
D17*
X86518750Y-103256250D03*
D19*
X86518750Y-108556250D03*
X86518750Y-105756250D03*
%TD*%
D16*
%TO.C,D17*%
X96043750Y-92006250D03*
D17*
X96043750Y-84206250D03*
D19*
X96043750Y-89506250D03*
X96043750Y-86706250D03*
%TD*%
D16*
%TO.C,D16*%
X96043750Y-72956250D03*
D17*
X96043750Y-65156250D03*
D19*
X96043750Y-70456250D03*
X96043750Y-67656250D03*
%TD*%
D16*
%TO.C,D15*%
X96043750Y-53906250D03*
D17*
X96043750Y-46106250D03*
D19*
X96043750Y-51406250D03*
X96043750Y-48606250D03*
%TD*%
D16*
%TO.C,D14*%
X96043750Y-34856250D03*
D17*
X96043750Y-27056250D03*
D19*
X96043750Y-32356250D03*
X96043750Y-29556250D03*
%TD*%
D16*
%TO.C,D13*%
X67468750Y-111056250D03*
D17*
X67468750Y-103256250D03*
D19*
X67468750Y-108556250D03*
X67468750Y-105756250D03*
%TD*%
D16*
%TO.C,D12*%
X76993750Y-92006250D03*
D17*
X76993750Y-84206250D03*
D19*
X76993750Y-89506250D03*
X76993750Y-86706250D03*
%TD*%
D16*
%TO.C,D11*%
X76993750Y-72956250D03*
D17*
X76993750Y-65156250D03*
D19*
X76993750Y-70456250D03*
X76993750Y-67656250D03*
%TD*%
D16*
%TO.C,D10*%
X76993750Y-53906250D03*
D17*
X76993750Y-46106250D03*
D19*
X76993750Y-51406250D03*
X76993750Y-48606250D03*
%TD*%
D16*
%TO.C,D9*%
X76993750Y-34856250D03*
D17*
X76993750Y-27056250D03*
D19*
X76993750Y-32356250D03*
X76993750Y-29556250D03*
%TD*%
D16*
%TO.C,D8*%
X57943750Y-92006250D03*
D17*
X57943750Y-84206250D03*
D19*
X57943750Y-89506250D03*
X57943750Y-86706250D03*
%TD*%
D16*
%TO.C,D7*%
X57943750Y-73018750D03*
D17*
X57943750Y-65218750D03*
D19*
X57943750Y-70518750D03*
X57943750Y-67718750D03*
%TD*%
D16*
%TO.C,D6*%
X57943750Y-53906250D03*
D17*
X57943750Y-46106250D03*
D19*
X57943750Y-51406250D03*
X57943750Y-48606250D03*
%TD*%
D16*
%TO.C,D5*%
X57943750Y-34856250D03*
D17*
X57943750Y-27056250D03*
D19*
X57943750Y-32356250D03*
X57943750Y-29556250D03*
%TD*%
D16*
%TO.C,D4*%
X38893750Y-92006250D03*
D17*
X38893750Y-84206250D03*
D19*
X38893750Y-89506250D03*
X38893750Y-86706250D03*
%TD*%
D16*
%TO.C,D3*%
X38893750Y-72956250D03*
D17*
X38893750Y-65156250D03*
D19*
X38893750Y-70456250D03*
X38893750Y-67656250D03*
%TD*%
D16*
%TO.C,D2*%
X38893750Y-53906250D03*
D17*
X38893750Y-46106250D03*
D19*
X38893750Y-51406250D03*
X38893750Y-48606250D03*
%TD*%
D16*
%TO.C,D1*%
X38893750Y-34856250D03*
D17*
X38893750Y-27056250D03*
D19*
X38893750Y-32356250D03*
X38893750Y-29556250D03*
%TD*%
D13*
%TO.C,MX21*%
X112236250Y-69056250D03*
X102076250Y-69056250D03*
D14*
X104656250Y-65056250D03*
D15*
X107156250Y-69056250D03*
G36*
G01*
X102594938Y-67353600D02*
X102594933Y-67353595D01*
G75*
G02*
X102508905Y-65764933I751317J837345D01*
G01*
X103818907Y-64304933D01*
G75*
G02*
X105407569Y-64218905I837345J-751317D01*
G01*
X105407569Y-64218905D01*
G75*
G02*
X105493597Y-65807567I-751317J-837345D01*
G01*
X104183595Y-67267567D01*
G75*
G02*
X102594933Y-67353595I-837345J751317D01*
G01*
G37*
D14*
X109696250Y-63976250D03*
G36*
G01*
X109579733Y-65678645D02*
X109578847Y-65678584D01*
G75*
G02*
X108533916Y-64478847I77403J1122334D01*
G01*
X108573916Y-63898847D01*
G75*
G02*
X109773653Y-62853916I1122334J-77403D01*
G01*
X109773653Y-62853916D01*
G75*
G02*
X110818584Y-64053653I-77403J-1122334D01*
G01*
X110778584Y-64633653D01*
G75*
G02*
X109578847Y-65678584I-1122334J77403D01*
G01*
G37*
%TD*%
%TO.C,M2*%
G36*
G01*
X114947700Y-103562150D02*
X114947700Y-102685850D01*
G75*
G02*
X115385850Y-102247700I438150J0D01*
G01*
X116262150Y-102247700D01*
G75*
G02*
X116700300Y-102685850I0J-438150D01*
G01*
X116700300Y-103562150D01*
G75*
G02*
X116262150Y-104000300I-438150J0D01*
G01*
X115385850Y-104000300D01*
G75*
G02*
X114947700Y-103562150I0J438150D01*
G01*
G37*
G36*
G01*
X114947700Y-105594150D02*
X114947700Y-104717850D01*
G75*
G02*
X115385850Y-104279700I438150J0D01*
G01*
X116262150Y-104279700D01*
G75*
G02*
X116700300Y-104717850I0J-438150D01*
G01*
X116700300Y-105594150D01*
G75*
G02*
X116262150Y-106032300I-438150J0D01*
G01*
X115385850Y-106032300D01*
G75*
G02*
X114947700Y-105594150I0J438150D01*
G01*
G37*
G36*
G01*
X114947700Y-107626150D02*
X114947700Y-106749850D01*
G75*
G02*
X115385850Y-106311700I438150J0D01*
G01*
X116262150Y-106311700D01*
G75*
G02*
X116700300Y-106749850I0J-438150D01*
G01*
X116700300Y-107626150D01*
G75*
G02*
X116262150Y-108064300I-438150J0D01*
G01*
X115385850Y-108064300D01*
G75*
G02*
X114947700Y-107626150I0J438150D01*
G01*
G37*
G36*
G01*
X114947700Y-109658150D02*
X114947700Y-108781850D01*
G75*
G02*
X115385850Y-108343700I438150J0D01*
G01*
X116262150Y-108343700D01*
G75*
G02*
X116700300Y-108781850I0J-438150D01*
G01*
X116700300Y-109658150D01*
G75*
G02*
X116262150Y-110096300I-438150J0D01*
G01*
X115385850Y-110096300D01*
G75*
G02*
X114947700Y-109658150I0J438150D01*
G01*
G37*
G36*
G01*
X114947700Y-111690150D02*
X114947700Y-110813850D01*
G75*
G02*
X115385850Y-110375700I438150J0D01*
G01*
X116262150Y-110375700D01*
G75*
G02*
X116700300Y-110813850I0J-438150D01*
G01*
X116700300Y-111690150D01*
G75*
G02*
X116262150Y-112128300I-438150J0D01*
G01*
X115385850Y-112128300D01*
G75*
G02*
X114947700Y-111690150I0J438150D01*
G01*
G37*
%TD*%
%TO.C,M1*%
G36*
G01*
X114947700Y-73590150D02*
X114947700Y-72713850D01*
G75*
G02*
X115385850Y-72275700I438150J0D01*
G01*
X116262150Y-72275700D01*
G75*
G02*
X116700300Y-72713850I0J-438150D01*
G01*
X116700300Y-73590150D01*
G75*
G02*
X116262150Y-74028300I-438150J0D01*
G01*
X115385850Y-74028300D01*
G75*
G02*
X114947700Y-73590150I0J438150D01*
G01*
G37*
G36*
G01*
X114947700Y-71558150D02*
X114947700Y-70681850D01*
G75*
G02*
X115385850Y-70243700I438150J0D01*
G01*
X116262150Y-70243700D01*
G75*
G02*
X116700300Y-70681850I0J-438150D01*
G01*
X116700300Y-71558150D01*
G75*
G02*
X116262150Y-71996300I-438150J0D01*
G01*
X115385850Y-71996300D01*
G75*
G02*
X114947700Y-71558150I0J438150D01*
G01*
G37*
G36*
G01*
X114947700Y-69526150D02*
X114947700Y-68649850D01*
G75*
G02*
X115385850Y-68211700I438150J0D01*
G01*
X116262150Y-68211700D01*
G75*
G02*
X116700300Y-68649850I0J-438150D01*
G01*
X116700300Y-69526150D01*
G75*
G02*
X116262150Y-69964300I-438150J0D01*
G01*
X115385850Y-69964300D01*
G75*
G02*
X114947700Y-69526150I0J438150D01*
G01*
G37*
G36*
G01*
X114947700Y-67494150D02*
X114947700Y-66617850D01*
G75*
G02*
X115385850Y-66179700I438150J0D01*
G01*
X116262150Y-66179700D01*
G75*
G02*
X116700300Y-66617850I0J-438150D01*
G01*
X116700300Y-67494150D01*
G75*
G02*
X116262150Y-67932300I-438150J0D01*
G01*
X115385850Y-67932300D01*
G75*
G02*
X114947700Y-67494150I0J438150D01*
G01*
G37*
G36*
G01*
X114947700Y-65462150D02*
X114947700Y-64585850D01*
G75*
G02*
X115385850Y-64147700I438150J0D01*
G01*
X116262150Y-64147700D01*
G75*
G02*
X116700300Y-64585850I0J-438150D01*
G01*
X116700300Y-65462150D01*
G75*
G02*
X116262150Y-65900300I-438150J0D01*
G01*
X115385850Y-65900300D01*
G75*
G02*
X114947700Y-65462150I0J438150D01*
G01*
G37*
%TD*%
D13*
%TO.C,MX19*%
X112236250Y-30956250D03*
X102076250Y-30956250D03*
D14*
X104656250Y-26956250D03*
D15*
X107156250Y-30956250D03*
G36*
G01*
X102594938Y-29253600D02*
X102594933Y-29253595D01*
G75*
G02*
X102508905Y-27664933I751317J837345D01*
G01*
X103818907Y-26204933D01*
G75*
G02*
X105407569Y-26118905I837345J-751317D01*
G01*
X105407569Y-26118905D01*
G75*
G02*
X105493597Y-27707567I-751317J-837345D01*
G01*
X104183595Y-29167567D01*
G75*
G02*
X102594933Y-29253595I-837345J751317D01*
G01*
G37*
D14*
X109696250Y-25876250D03*
G36*
G01*
X109579733Y-27578645D02*
X109578847Y-27578584D01*
G75*
G02*
X108533916Y-26378847I77403J1122334D01*
G01*
X108573916Y-25798847D01*
G75*
G02*
X109773653Y-24753916I1122334J-77403D01*
G01*
X109773653Y-24753916D01*
G75*
G02*
X110818584Y-25953653I-77403J-1122334D01*
G01*
X110778584Y-26533653D01*
G75*
G02*
X109578847Y-27578584I-1122334J77403D01*
G01*
G37*
%TD*%
D13*
%TO.C,MX18*%
X83661250Y-107156250D03*
X73501250Y-107156250D03*
D14*
X76081250Y-103156250D03*
D15*
X78581250Y-107156250D03*
G36*
G01*
X74019938Y-105453600D02*
X74019933Y-105453595D01*
G75*
G02*
X73933905Y-103864933I751317J837345D01*
G01*
X75243907Y-102404933D01*
G75*
G02*
X76832569Y-102318905I837345J-751317D01*
G01*
X76832569Y-102318905D01*
G75*
G02*
X76918597Y-103907567I-751317J-837345D01*
G01*
X75608595Y-105367567D01*
G75*
G02*
X74019933Y-105453595I-837345J751317D01*
G01*
G37*
D14*
X81121250Y-102076250D03*
G36*
G01*
X81004733Y-103778645D02*
X81003847Y-103778584D01*
G75*
G02*
X79958916Y-102578847I77403J1122334D01*
G01*
X79998916Y-101998847D01*
G75*
G02*
X81198653Y-100953916I1122334J-77403D01*
G01*
X81198653Y-100953916D01*
G75*
G02*
X82243584Y-102153653I-77403J-1122334D01*
G01*
X82203584Y-102733653D01*
G75*
G02*
X81003847Y-103778584I-1122334J77403D01*
G01*
G37*
%TD*%
D13*
%TO.C,MX23*%
X107473750Y-107156250D03*
X97313750Y-107156250D03*
D14*
X99893750Y-103156250D03*
D15*
X102393750Y-107156250D03*
G36*
G01*
X97832438Y-105453600D02*
X97832433Y-105453595D01*
G75*
G02*
X97746405Y-103864933I751317J837345D01*
G01*
X99056407Y-102404933D01*
G75*
G02*
X100645069Y-102318905I837345J-751317D01*
G01*
X100645069Y-102318905D01*
G75*
G02*
X100731097Y-103907567I-751317J-837345D01*
G01*
X99421095Y-105367567D01*
G75*
G02*
X97832433Y-105453595I-837345J751317D01*
G01*
G37*
D14*
X104933750Y-102076250D03*
G36*
G01*
X104817233Y-103778645D02*
X104816347Y-103778584D01*
G75*
G02*
X103771416Y-102578847I77403J1122334D01*
G01*
X103811416Y-101998847D01*
G75*
G02*
X105011153Y-100953916I1122334J-77403D01*
G01*
X105011153Y-100953916D01*
G75*
G02*
X106056084Y-102153653I-77403J-1122334D01*
G01*
X106016084Y-102733653D01*
G75*
G02*
X104816347Y-103778584I-1122334J77403D01*
G01*
G37*
%TD*%
D13*
%TO.C,MX22*%
X112236250Y-88106250D03*
X102076250Y-88106250D03*
D14*
X104656250Y-84106250D03*
D15*
X107156250Y-88106250D03*
G36*
G01*
X102594938Y-86403600D02*
X102594933Y-86403595D01*
G75*
G02*
X102508905Y-84814933I751317J837345D01*
G01*
X103818907Y-83354933D01*
G75*
G02*
X105407569Y-83268905I837345J-751317D01*
G01*
X105407569Y-83268905D01*
G75*
G02*
X105493597Y-84857567I-751317J-837345D01*
G01*
X104183595Y-86317567D01*
G75*
G02*
X102594933Y-86403595I-837345J751317D01*
G01*
G37*
D14*
X109696250Y-83026250D03*
G36*
G01*
X109579733Y-84728645D02*
X109578847Y-84728584D01*
G75*
G02*
X108533916Y-83528847I77403J1122334D01*
G01*
X108573916Y-82948847D01*
G75*
G02*
X109773653Y-81903916I1122334J-77403D01*
G01*
X109773653Y-81903916D01*
G75*
G02*
X110818584Y-83103653I-77403J-1122334D01*
G01*
X110778584Y-83683653D01*
G75*
G02*
X109578847Y-84728584I-1122334J77403D01*
G01*
G37*
%TD*%
D13*
%TO.C,MX20*%
X112236250Y-50006250D03*
X102076250Y-50006250D03*
D14*
X104656250Y-46006250D03*
D15*
X107156250Y-50006250D03*
G36*
G01*
X102594938Y-48303600D02*
X102594933Y-48303595D01*
G75*
G02*
X102508905Y-46714933I751317J837345D01*
G01*
X103818907Y-45254933D01*
G75*
G02*
X105407569Y-45168905I837345J-751317D01*
G01*
X105407569Y-45168905D01*
G75*
G02*
X105493597Y-46757567I-751317J-837345D01*
G01*
X104183595Y-48217567D01*
G75*
G02*
X102594933Y-48303595I-837345J751317D01*
G01*
G37*
D14*
X109696250Y-44926250D03*
G36*
G01*
X109579733Y-46628645D02*
X109578847Y-46628584D01*
G75*
G02*
X108533916Y-45428847I77403J1122334D01*
G01*
X108573916Y-44848847D01*
G75*
G02*
X109773653Y-43803916I1122334J-77403D01*
G01*
X109773653Y-43803916D01*
G75*
G02*
X110818584Y-45003653I-77403J-1122334D01*
G01*
X110778584Y-45583653D01*
G75*
G02*
X109578847Y-46628584I-1122334J77403D01*
G01*
G37*
%TD*%
D13*
%TO.C,MX17*%
X93186250Y-88106250D03*
X83026250Y-88106250D03*
D14*
X85606250Y-84106250D03*
D15*
X88106250Y-88106250D03*
G36*
G01*
X83544938Y-86403600D02*
X83544933Y-86403595D01*
G75*
G02*
X83458905Y-84814933I751317J837345D01*
G01*
X84768907Y-83354933D01*
G75*
G02*
X86357569Y-83268905I837345J-751317D01*
G01*
X86357569Y-83268905D01*
G75*
G02*
X86443597Y-84857567I-751317J-837345D01*
G01*
X85133595Y-86317567D01*
G75*
G02*
X83544933Y-86403595I-837345J751317D01*
G01*
G37*
D14*
X90646250Y-83026250D03*
G36*
G01*
X90529733Y-84728645D02*
X90528847Y-84728584D01*
G75*
G02*
X89483916Y-83528847I77403J1122334D01*
G01*
X89523916Y-82948847D01*
G75*
G02*
X90723653Y-81903916I1122334J-77403D01*
G01*
X90723653Y-81903916D01*
G75*
G02*
X91768584Y-83103653I-77403J-1122334D01*
G01*
X91728584Y-83683653D01*
G75*
G02*
X90528847Y-84728584I-1122334J77403D01*
G01*
G37*
%TD*%
D13*
%TO.C,MX16*%
X93186250Y-69056250D03*
X83026250Y-69056250D03*
D14*
X85606250Y-65056250D03*
D15*
X88106250Y-69056250D03*
G36*
G01*
X83544938Y-67353600D02*
X83544933Y-67353595D01*
G75*
G02*
X83458905Y-65764933I751317J837345D01*
G01*
X84768907Y-64304933D01*
G75*
G02*
X86357569Y-64218905I837345J-751317D01*
G01*
X86357569Y-64218905D01*
G75*
G02*
X86443597Y-65807567I-751317J-837345D01*
G01*
X85133595Y-67267567D01*
G75*
G02*
X83544933Y-67353595I-837345J751317D01*
G01*
G37*
D14*
X90646250Y-63976250D03*
G36*
G01*
X90529733Y-65678645D02*
X90528847Y-65678584D01*
G75*
G02*
X89483916Y-64478847I77403J1122334D01*
G01*
X89523916Y-63898847D01*
G75*
G02*
X90723653Y-62853916I1122334J-77403D01*
G01*
X90723653Y-62853916D01*
G75*
G02*
X91768584Y-64053653I-77403J-1122334D01*
G01*
X91728584Y-64633653D01*
G75*
G02*
X90528847Y-65678584I-1122334J77403D01*
G01*
G37*
%TD*%
D13*
%TO.C,MX15*%
X93186250Y-50006250D03*
X83026250Y-50006250D03*
D14*
X85606250Y-46006250D03*
D15*
X88106250Y-50006250D03*
G36*
G01*
X83544938Y-48303600D02*
X83544933Y-48303595D01*
G75*
G02*
X83458905Y-46714933I751317J837345D01*
G01*
X84768907Y-45254933D01*
G75*
G02*
X86357569Y-45168905I837345J-751317D01*
G01*
X86357569Y-45168905D01*
G75*
G02*
X86443597Y-46757567I-751317J-837345D01*
G01*
X85133595Y-48217567D01*
G75*
G02*
X83544933Y-48303595I-837345J751317D01*
G01*
G37*
D14*
X90646250Y-44926250D03*
G36*
G01*
X90529733Y-46628645D02*
X90528847Y-46628584D01*
G75*
G02*
X89483916Y-45428847I77403J1122334D01*
G01*
X89523916Y-44848847D01*
G75*
G02*
X90723653Y-43803916I1122334J-77403D01*
G01*
X90723653Y-43803916D01*
G75*
G02*
X91768584Y-45003653I-77403J-1122334D01*
G01*
X91728584Y-45583653D01*
G75*
G02*
X90528847Y-46628584I-1122334J77403D01*
G01*
G37*
%TD*%
D13*
%TO.C,MX14*%
X93186250Y-30956250D03*
X83026250Y-30956250D03*
D14*
X85606250Y-26956250D03*
D15*
X88106250Y-30956250D03*
G36*
G01*
X83544938Y-29253600D02*
X83544933Y-29253595D01*
G75*
G02*
X83458905Y-27664933I751317J837345D01*
G01*
X84768907Y-26204933D01*
G75*
G02*
X86357569Y-26118905I837345J-751317D01*
G01*
X86357569Y-26118905D01*
G75*
G02*
X86443597Y-27707567I-751317J-837345D01*
G01*
X85133595Y-29167567D01*
G75*
G02*
X83544933Y-29253595I-837345J751317D01*
G01*
G37*
D14*
X90646250Y-25876250D03*
G36*
G01*
X90529733Y-27578645D02*
X90528847Y-27578584D01*
G75*
G02*
X89483916Y-26378847I77403J1122334D01*
G01*
X89523916Y-25798847D01*
G75*
G02*
X90723653Y-24753916I1122334J-77403D01*
G01*
X90723653Y-24753916D01*
G75*
G02*
X91768584Y-25953653I-77403J-1122334D01*
G01*
X91728584Y-26533653D01*
G75*
G02*
X90528847Y-27578584I-1122334J77403D01*
G01*
G37*
%TD*%
D13*
%TO.C,MX13*%
X64611250Y-107156250D03*
X54451250Y-107156250D03*
D14*
X57031250Y-103156250D03*
D15*
X59531250Y-107156250D03*
G36*
G01*
X54969938Y-105453600D02*
X54969933Y-105453595D01*
G75*
G02*
X54883905Y-103864933I751317J837345D01*
G01*
X56193907Y-102404933D01*
G75*
G02*
X57782569Y-102318905I837345J-751317D01*
G01*
X57782569Y-102318905D01*
G75*
G02*
X57868597Y-103907567I-751317J-837345D01*
G01*
X56558595Y-105367567D01*
G75*
G02*
X54969933Y-105453595I-837345J751317D01*
G01*
G37*
D14*
X62071250Y-102076250D03*
G36*
G01*
X61954733Y-103778645D02*
X61953847Y-103778584D01*
G75*
G02*
X60908916Y-102578847I77403J1122334D01*
G01*
X60948916Y-101998847D01*
G75*
G02*
X62148653Y-100953916I1122334J-77403D01*
G01*
X62148653Y-100953916D01*
G75*
G02*
X63193584Y-102153653I-77403J-1122334D01*
G01*
X63153584Y-102733653D01*
G75*
G02*
X61953847Y-103778584I-1122334J77403D01*
G01*
G37*
%TD*%
D13*
%TO.C,MX12*%
X74136250Y-88106250D03*
X63976250Y-88106250D03*
D14*
X66556250Y-84106250D03*
D15*
X69056250Y-88106250D03*
G36*
G01*
X64494938Y-86403600D02*
X64494933Y-86403595D01*
G75*
G02*
X64408905Y-84814933I751317J837345D01*
G01*
X65718907Y-83354933D01*
G75*
G02*
X67307569Y-83268905I837345J-751317D01*
G01*
X67307569Y-83268905D01*
G75*
G02*
X67393597Y-84857567I-751317J-837345D01*
G01*
X66083595Y-86317567D01*
G75*
G02*
X64494933Y-86403595I-837345J751317D01*
G01*
G37*
D14*
X71596250Y-83026250D03*
G36*
G01*
X71479733Y-84728645D02*
X71478847Y-84728584D01*
G75*
G02*
X70433916Y-83528847I77403J1122334D01*
G01*
X70473916Y-82948847D01*
G75*
G02*
X71673653Y-81903916I1122334J-77403D01*
G01*
X71673653Y-81903916D01*
G75*
G02*
X72718584Y-83103653I-77403J-1122334D01*
G01*
X72678584Y-83683653D01*
G75*
G02*
X71478847Y-84728584I-1122334J77403D01*
G01*
G37*
%TD*%
D13*
%TO.C,MX11*%
X74136250Y-69056250D03*
X63976250Y-69056250D03*
D14*
X66556250Y-65056250D03*
D15*
X69056250Y-69056250D03*
G36*
G01*
X64494938Y-67353600D02*
X64494933Y-67353595D01*
G75*
G02*
X64408905Y-65764933I751317J837345D01*
G01*
X65718907Y-64304933D01*
G75*
G02*
X67307569Y-64218905I837345J-751317D01*
G01*
X67307569Y-64218905D01*
G75*
G02*
X67393597Y-65807567I-751317J-837345D01*
G01*
X66083595Y-67267567D01*
G75*
G02*
X64494933Y-67353595I-837345J751317D01*
G01*
G37*
D14*
X71596250Y-63976250D03*
G36*
G01*
X71479733Y-65678645D02*
X71478847Y-65678584D01*
G75*
G02*
X70433916Y-64478847I77403J1122334D01*
G01*
X70473916Y-63898847D01*
G75*
G02*
X71673653Y-62853916I1122334J-77403D01*
G01*
X71673653Y-62853916D01*
G75*
G02*
X72718584Y-64053653I-77403J-1122334D01*
G01*
X72678584Y-64633653D01*
G75*
G02*
X71478847Y-65678584I-1122334J77403D01*
G01*
G37*
%TD*%
D13*
%TO.C,MX10*%
X74136250Y-50006250D03*
X63976250Y-50006250D03*
D14*
X66556250Y-46006250D03*
D15*
X69056250Y-50006250D03*
G36*
G01*
X64494938Y-48303600D02*
X64494933Y-48303595D01*
G75*
G02*
X64408905Y-46714933I751317J837345D01*
G01*
X65718907Y-45254933D01*
G75*
G02*
X67307569Y-45168905I837345J-751317D01*
G01*
X67307569Y-45168905D01*
G75*
G02*
X67393597Y-46757567I-751317J-837345D01*
G01*
X66083595Y-48217567D01*
G75*
G02*
X64494933Y-48303595I-837345J751317D01*
G01*
G37*
D14*
X71596250Y-44926250D03*
G36*
G01*
X71479733Y-46628645D02*
X71478847Y-46628584D01*
G75*
G02*
X70433916Y-45428847I77403J1122334D01*
G01*
X70473916Y-44848847D01*
G75*
G02*
X71673653Y-43803916I1122334J-77403D01*
G01*
X71673653Y-43803916D01*
G75*
G02*
X72718584Y-45003653I-77403J-1122334D01*
G01*
X72678584Y-45583653D01*
G75*
G02*
X71478847Y-46628584I-1122334J77403D01*
G01*
G37*
%TD*%
D13*
%TO.C,MX9*%
X74136250Y-30956250D03*
X63976250Y-30956250D03*
D14*
X66556250Y-26956250D03*
D15*
X69056250Y-30956250D03*
G36*
G01*
X64494938Y-29253600D02*
X64494933Y-29253595D01*
G75*
G02*
X64408905Y-27664933I751317J837345D01*
G01*
X65718907Y-26204933D01*
G75*
G02*
X67307569Y-26118905I837345J-751317D01*
G01*
X67307569Y-26118905D01*
G75*
G02*
X67393597Y-27707567I-751317J-837345D01*
G01*
X66083595Y-29167567D01*
G75*
G02*
X64494933Y-29253595I-837345J751317D01*
G01*
G37*
D14*
X71596250Y-25876250D03*
G36*
G01*
X71479733Y-27578645D02*
X71478847Y-27578584D01*
G75*
G02*
X70433916Y-26378847I77403J1122334D01*
G01*
X70473916Y-25798847D01*
G75*
G02*
X71673653Y-24753916I1122334J-77403D01*
G01*
X71673653Y-24753916D01*
G75*
G02*
X72718584Y-25953653I-77403J-1122334D01*
G01*
X72678584Y-26533653D01*
G75*
G02*
X71478847Y-27578584I-1122334J77403D01*
G01*
G37*
%TD*%
D13*
%TO.C,MX8*%
X55086250Y-88106250D03*
X44926250Y-88106250D03*
D14*
X47506250Y-84106250D03*
D15*
X50006250Y-88106250D03*
G36*
G01*
X45444938Y-86403600D02*
X45444933Y-86403595D01*
G75*
G02*
X45358905Y-84814933I751317J837345D01*
G01*
X46668907Y-83354933D01*
G75*
G02*
X48257569Y-83268905I837345J-751317D01*
G01*
X48257569Y-83268905D01*
G75*
G02*
X48343597Y-84857567I-751317J-837345D01*
G01*
X47033595Y-86317567D01*
G75*
G02*
X45444933Y-86403595I-837345J751317D01*
G01*
G37*
D14*
X52546250Y-83026250D03*
G36*
G01*
X52429733Y-84728645D02*
X52428847Y-84728584D01*
G75*
G02*
X51383916Y-83528847I77403J1122334D01*
G01*
X51423916Y-82948847D01*
G75*
G02*
X52623653Y-81903916I1122334J-77403D01*
G01*
X52623653Y-81903916D01*
G75*
G02*
X53668584Y-83103653I-77403J-1122334D01*
G01*
X53628584Y-83683653D01*
G75*
G02*
X52428847Y-84728584I-1122334J77403D01*
G01*
G37*
%TD*%
D13*
%TO.C,MX6*%
X55086250Y-50006250D03*
X44926250Y-50006250D03*
D14*
X47506250Y-46006250D03*
D15*
X50006250Y-50006250D03*
G36*
G01*
X45444938Y-48303600D02*
X45444933Y-48303595D01*
G75*
G02*
X45358905Y-46714933I751317J837345D01*
G01*
X46668907Y-45254933D01*
G75*
G02*
X48257569Y-45168905I837345J-751317D01*
G01*
X48257569Y-45168905D01*
G75*
G02*
X48343597Y-46757567I-751317J-837345D01*
G01*
X47033595Y-48217567D01*
G75*
G02*
X45444933Y-48303595I-837345J751317D01*
G01*
G37*
D14*
X52546250Y-44926250D03*
G36*
G01*
X52429733Y-46628645D02*
X52428847Y-46628584D01*
G75*
G02*
X51383916Y-45428847I77403J1122334D01*
G01*
X51423916Y-44848847D01*
G75*
G02*
X52623653Y-43803916I1122334J-77403D01*
G01*
X52623653Y-43803916D01*
G75*
G02*
X53668584Y-45003653I-77403J-1122334D01*
G01*
X53628584Y-45583653D01*
G75*
G02*
X52428847Y-46628584I-1122334J77403D01*
G01*
G37*
%TD*%
D13*
%TO.C,MX5*%
X55086250Y-30956250D03*
X44926250Y-30956250D03*
D14*
X47506250Y-26956250D03*
D15*
X50006250Y-30956250D03*
G36*
G01*
X45444938Y-29253600D02*
X45444933Y-29253595D01*
G75*
G02*
X45358905Y-27664933I751317J837345D01*
G01*
X46668907Y-26204933D01*
G75*
G02*
X48257569Y-26118905I837345J-751317D01*
G01*
X48257569Y-26118905D01*
G75*
G02*
X48343597Y-27707567I-751317J-837345D01*
G01*
X47033595Y-29167567D01*
G75*
G02*
X45444933Y-29253595I-837345J751317D01*
G01*
G37*
D14*
X52546250Y-25876250D03*
G36*
G01*
X52429733Y-27578645D02*
X52428847Y-27578584D01*
G75*
G02*
X51383916Y-26378847I77403J1122334D01*
G01*
X51423916Y-25798847D01*
G75*
G02*
X52623653Y-24753916I1122334J-77403D01*
G01*
X52623653Y-24753916D01*
G75*
G02*
X53668584Y-25953653I-77403J-1122334D01*
G01*
X53628584Y-26533653D01*
G75*
G02*
X52428847Y-27578584I-1122334J77403D01*
G01*
G37*
%TD*%
D13*
%TO.C,MX4*%
X36036250Y-88106250D03*
X25876250Y-88106250D03*
D14*
X28456250Y-84106250D03*
D15*
X30956250Y-88106250D03*
G36*
G01*
X26394938Y-86403600D02*
X26394933Y-86403595D01*
G75*
G02*
X26308905Y-84814933I751317J837345D01*
G01*
X27618907Y-83354933D01*
G75*
G02*
X29207569Y-83268905I837345J-751317D01*
G01*
X29207569Y-83268905D01*
G75*
G02*
X29293597Y-84857567I-751317J-837345D01*
G01*
X27983595Y-86317567D01*
G75*
G02*
X26394933Y-86403595I-837345J751317D01*
G01*
G37*
D14*
X33496250Y-83026250D03*
G36*
G01*
X33379733Y-84728645D02*
X33378847Y-84728584D01*
G75*
G02*
X32333916Y-83528847I77403J1122334D01*
G01*
X32373916Y-82948847D01*
G75*
G02*
X33573653Y-81903916I1122334J-77403D01*
G01*
X33573653Y-81903916D01*
G75*
G02*
X34618584Y-83103653I-77403J-1122334D01*
G01*
X34578584Y-83683653D01*
G75*
G02*
X33378847Y-84728584I-1122334J77403D01*
G01*
G37*
%TD*%
D13*
%TO.C,MX3*%
X36036250Y-69056250D03*
X25876250Y-69056250D03*
D14*
X28456250Y-65056250D03*
D15*
X30956250Y-69056250D03*
G36*
G01*
X26394938Y-67353600D02*
X26394933Y-67353595D01*
G75*
G02*
X26308905Y-65764933I751317J837345D01*
G01*
X27618907Y-64304933D01*
G75*
G02*
X29207569Y-64218905I837345J-751317D01*
G01*
X29207569Y-64218905D01*
G75*
G02*
X29293597Y-65807567I-751317J-837345D01*
G01*
X27983595Y-67267567D01*
G75*
G02*
X26394933Y-67353595I-837345J751317D01*
G01*
G37*
D14*
X33496250Y-63976250D03*
G36*
G01*
X33379733Y-65678645D02*
X33378847Y-65678584D01*
G75*
G02*
X32333916Y-64478847I77403J1122334D01*
G01*
X32373916Y-63898847D01*
G75*
G02*
X33573653Y-62853916I1122334J-77403D01*
G01*
X33573653Y-62853916D01*
G75*
G02*
X34618584Y-64053653I-77403J-1122334D01*
G01*
X34578584Y-64633653D01*
G75*
G02*
X33378847Y-65678584I-1122334J77403D01*
G01*
G37*
%TD*%
D13*
%TO.C,MX2*%
X36036250Y-50006250D03*
X25876250Y-50006250D03*
D14*
X28456250Y-46006250D03*
D15*
X30956250Y-50006250D03*
G36*
G01*
X26394938Y-48303600D02*
X26394933Y-48303595D01*
G75*
G02*
X26308905Y-46714933I751317J837345D01*
G01*
X27618907Y-45254933D01*
G75*
G02*
X29207569Y-45168905I837345J-751317D01*
G01*
X29207569Y-45168905D01*
G75*
G02*
X29293597Y-46757567I-751317J-837345D01*
G01*
X27983595Y-48217567D01*
G75*
G02*
X26394933Y-48303595I-837345J751317D01*
G01*
G37*
D14*
X33496250Y-44926250D03*
G36*
G01*
X33379733Y-46628645D02*
X33378847Y-46628584D01*
G75*
G02*
X32333916Y-45428847I77403J1122334D01*
G01*
X32373916Y-44848847D01*
G75*
G02*
X33573653Y-43803916I1122334J-77403D01*
G01*
X33573653Y-43803916D01*
G75*
G02*
X34618584Y-45003653I-77403J-1122334D01*
G01*
X34578584Y-45583653D01*
G75*
G02*
X33378847Y-46628584I-1122334J77403D01*
G01*
G37*
%TD*%
D13*
%TO.C,MX1*%
X36036250Y-30956250D03*
X25876250Y-30956250D03*
D14*
X28456250Y-26956250D03*
D15*
X30956250Y-30956250D03*
G36*
G01*
X26394938Y-29253600D02*
X26394933Y-29253595D01*
G75*
G02*
X26308905Y-27664933I751317J837345D01*
G01*
X27618907Y-26204933D01*
G75*
G02*
X29207569Y-26118905I837345J-751317D01*
G01*
X29207569Y-26118905D01*
G75*
G02*
X29293597Y-27707567I-751317J-837345D01*
G01*
X27983595Y-29167567D01*
G75*
G02*
X26394933Y-29253595I-837345J751317D01*
G01*
G37*
D14*
X33496250Y-25876250D03*
G36*
G01*
X33379733Y-27578645D02*
X33378847Y-27578584D01*
G75*
G02*
X32333916Y-26378847I77403J1122334D01*
G01*
X32373916Y-25798847D01*
G75*
G02*
X33573653Y-24753916I1122334J-77403D01*
G01*
X33573653Y-24753916D01*
G75*
G02*
X34618584Y-25953653I-77403J-1122334D01*
G01*
X34578584Y-26533653D01*
G75*
G02*
X33378847Y-27578584I-1122334J77403D01*
G01*
G37*
%TD*%
M02*
