%TF.GenerationSoftware,KiCad,Pcbnew,(5.1.12)-1*%
%TF.CreationDate,2022-01-04T22:53:54-05:00*%
%TF.ProjectId,my-keeb-type-c-2,6d792d6b-6565-4622-9d74-7970652d632d,rev?*%
%TF.SameCoordinates,Original*%
%TF.FileFunction,Copper,L2,Bot*%
%TF.FilePolarity,Positive*%
%FSLAX46Y46*%
G04 Gerber Fmt 4.6, Leading zero omitted, Abs format (unit mm)*
G04 Created by KiCad (PCBNEW (5.1.12)-1) date 2022-01-04 22:53:54*
%MOMM*%
%LPD*%
G01*
G04 APERTURE LIST*
%TA.AperFunction,ComponentPad*%
%ADD10C,2.250000*%
%TD*%
%TA.AperFunction,SMDPad,CuDef*%
%ADD11R,1.800000X2.100000*%
%TD*%
%TA.AperFunction,SMDPad,CuDef*%
%ADD12R,0.600000X2.450000*%
%TD*%
%TA.AperFunction,SMDPad,CuDef*%
%ADD13R,0.300000X2.450000*%
%TD*%
%TA.AperFunction,ComponentPad*%
%ADD14O,1.000000X2.100000*%
%TD*%
%TA.AperFunction,ComponentPad*%
%ADD15O,1.000000X1.600000*%
%TD*%
%TA.AperFunction,SMDPad,CuDef*%
%ADD16R,0.700000X0.600000*%
%TD*%
%TA.AperFunction,SMDPad,CuDef*%
%ADD17R,0.700000X1.000000*%
%TD*%
%TA.AperFunction,SMDPad,CuDef*%
%ADD18R,0.550000X1.500000*%
%TD*%
%TA.AperFunction,SMDPad,CuDef*%
%ADD19R,1.500000X0.550000*%
%TD*%
%TA.AperFunction,SMDPad,CuDef*%
%ADD20R,1.800000X1.100000*%
%TD*%
%TA.AperFunction,ComponentPad*%
%ADD21R,1.700000X1.700000*%
%TD*%
%TA.AperFunction,ComponentPad*%
%ADD22C,1.700000*%
%TD*%
%TA.AperFunction,SMDPad,CuDef*%
%ADD23R,1.200000X0.900000*%
%TD*%
%TA.AperFunction,SMDPad,CuDef*%
%ADD24R,0.900000X1.200000*%
%TD*%
%TA.AperFunction,ViaPad*%
%ADD25C,0.800000*%
%TD*%
%TA.AperFunction,Conductor*%
%ADD26C,0.381000*%
%TD*%
%TA.AperFunction,Conductor*%
%ADD27C,0.254000*%
%TD*%
%TA.AperFunction,Conductor*%
%ADD28C,0.200000*%
%TD*%
%TA.AperFunction,Conductor*%
%ADD29C,0.100000*%
%TD*%
G04 APERTURE END LIST*
D10*
%TO.P,MX25,1*%
%TO.N,COL5*%
X123706250Y-46006250D03*
%TA.AperFunction,ComponentPad*%
G36*
G01*
X121644938Y-48303600D02*
X121644933Y-48303595D01*
G75*
G02*
X121558905Y-46714933I751317J837345D01*
G01*
X122868907Y-45254933D01*
G75*
G02*
X124457569Y-45168905I837345J-751317D01*
G01*
X124457569Y-45168905D01*
G75*
G02*
X124543597Y-46757567I-751317J-837345D01*
G01*
X123233595Y-48217567D01*
G75*
G02*
X121644933Y-48303595I-837345J751317D01*
G01*
G37*
%TD.AperFunction*%
%TO.P,MX25,2*%
%TO.N,Net-(D25-Pad2)*%
X128746250Y-44926250D03*
%TA.AperFunction,ComponentPad*%
G36*
G01*
X128629733Y-46628645D02*
X128628847Y-46628584D01*
G75*
G02*
X127583916Y-45428847I77403J1122334D01*
G01*
X127623916Y-44848847D01*
G75*
G02*
X128823653Y-43803916I1122334J-77403D01*
G01*
X128823653Y-43803916D01*
G75*
G02*
X129868584Y-45003653I-77403J-1122334D01*
G01*
X129828584Y-45583653D01*
G75*
G02*
X128628847Y-46628584I-1122334J77403D01*
G01*
G37*
%TD.AperFunction*%
%TD*%
%TO.P,MX26,1*%
%TO.N,COL5*%
X123706250Y-65056250D03*
%TA.AperFunction,ComponentPad*%
G36*
G01*
X121644938Y-67353600D02*
X121644933Y-67353595D01*
G75*
G02*
X121558905Y-65764933I751317J837345D01*
G01*
X122868907Y-64304933D01*
G75*
G02*
X124457569Y-64218905I837345J-751317D01*
G01*
X124457569Y-64218905D01*
G75*
G02*
X124543597Y-65807567I-751317J-837345D01*
G01*
X123233595Y-67267567D01*
G75*
G02*
X121644933Y-67353595I-837345J751317D01*
G01*
G37*
%TD.AperFunction*%
%TO.P,MX26,2*%
%TO.N,Net-(D26-Pad2)*%
X128746250Y-63976250D03*
%TA.AperFunction,ComponentPad*%
G36*
G01*
X128629733Y-65678645D02*
X128628847Y-65678584D01*
G75*
G02*
X127583916Y-64478847I77403J1122334D01*
G01*
X127623916Y-63898847D01*
G75*
G02*
X128823653Y-62853916I1122334J-77403D01*
G01*
X128823653Y-62853916D01*
G75*
G02*
X129868584Y-64053653I-77403J-1122334D01*
G01*
X129828584Y-64633653D01*
G75*
G02*
X128628847Y-65678584I-1122334J77403D01*
G01*
G37*
%TD.AperFunction*%
%TD*%
%TO.P,M2,5*%
%TO.N,COL4*%
%TA.AperFunction,ComponentPad*%
G36*
G01*
X118418300Y-102685850D02*
X118418300Y-103562150D01*
G75*
G02*
X117980150Y-104000300I-438150J0D01*
G01*
X117103850Y-104000300D01*
G75*
G02*
X116665700Y-103562150I0J438150D01*
G01*
X116665700Y-102685850D01*
G75*
G02*
X117103850Y-102247700I438150J0D01*
G01*
X117980150Y-102247700D01*
G75*
G02*
X118418300Y-102685850I0J-438150D01*
G01*
G37*
%TD.AperFunction*%
%TO.P,M2,4*%
%TO.N,COL3*%
%TA.AperFunction,ComponentPad*%
G36*
G01*
X118418300Y-104717850D02*
X118418300Y-105594150D01*
G75*
G02*
X117980150Y-106032300I-438150J0D01*
G01*
X117103850Y-106032300D01*
G75*
G02*
X116665700Y-105594150I0J438150D01*
G01*
X116665700Y-104717850D01*
G75*
G02*
X117103850Y-104279700I438150J0D01*
G01*
X117980150Y-104279700D01*
G75*
G02*
X118418300Y-104717850I0J-438150D01*
G01*
G37*
%TD.AperFunction*%
%TO.P,M2,3*%
%TO.N,COL2*%
%TA.AperFunction,ComponentPad*%
G36*
G01*
X118418300Y-106749850D02*
X118418300Y-107626150D01*
G75*
G02*
X117980150Y-108064300I-438150J0D01*
G01*
X117103850Y-108064300D01*
G75*
G02*
X116665700Y-107626150I0J438150D01*
G01*
X116665700Y-106749850D01*
G75*
G02*
X117103850Y-106311700I438150J0D01*
G01*
X117980150Y-106311700D01*
G75*
G02*
X118418300Y-106749850I0J-438150D01*
G01*
G37*
%TD.AperFunction*%
%TO.P,M2,2*%
%TO.N,COL1*%
%TA.AperFunction,ComponentPad*%
G36*
G01*
X118418300Y-108781850D02*
X118418300Y-109658150D01*
G75*
G02*
X117980150Y-110096300I-438150J0D01*
G01*
X117103850Y-110096300D01*
G75*
G02*
X116665700Y-109658150I0J438150D01*
G01*
X116665700Y-108781850D01*
G75*
G02*
X117103850Y-108343700I438150J0D01*
G01*
X117980150Y-108343700D01*
G75*
G02*
X118418300Y-108781850I0J-438150D01*
G01*
G37*
%TD.AperFunction*%
%TO.P,M2,1*%
%TO.N,COL0*%
%TA.AperFunction,ComponentPad*%
G36*
G01*
X118418300Y-110813850D02*
X118418300Y-111690150D01*
G75*
G02*
X117980150Y-112128300I-438150J0D01*
G01*
X117103850Y-112128300D01*
G75*
G02*
X116665700Y-111690150I0J438150D01*
G01*
X116665700Y-110813850D01*
G75*
G02*
X117103850Y-110375700I438150J0D01*
G01*
X117980150Y-110375700D01*
G75*
G02*
X118418300Y-110813850I0J-438150D01*
G01*
G37*
%TD.AperFunction*%
%TD*%
%TO.P,M1,5*%
%TO.N,ROW4*%
%TA.AperFunction,ComponentPad*%
G36*
G01*
X116663700Y-35490150D02*
X116663700Y-34613850D01*
G75*
G02*
X117101850Y-34175700I438150J0D01*
G01*
X117978150Y-34175700D01*
G75*
G02*
X118416300Y-34613850I0J-438150D01*
G01*
X118416300Y-35490150D01*
G75*
G02*
X117978150Y-35928300I-438150J0D01*
G01*
X117101850Y-35928300D01*
G75*
G02*
X116663700Y-35490150I0J438150D01*
G01*
G37*
%TD.AperFunction*%
%TO.P,M1,4*%
%TO.N,ROW3*%
%TA.AperFunction,ComponentPad*%
G36*
G01*
X116663700Y-33458150D02*
X116663700Y-32581850D01*
G75*
G02*
X117101850Y-32143700I438150J0D01*
G01*
X117978150Y-32143700D01*
G75*
G02*
X118416300Y-32581850I0J-438150D01*
G01*
X118416300Y-33458150D01*
G75*
G02*
X117978150Y-33896300I-438150J0D01*
G01*
X117101850Y-33896300D01*
G75*
G02*
X116663700Y-33458150I0J438150D01*
G01*
G37*
%TD.AperFunction*%
%TO.P,M1,3*%
%TO.N,ROW2*%
%TA.AperFunction,ComponentPad*%
G36*
G01*
X116663700Y-31426150D02*
X116663700Y-30549850D01*
G75*
G02*
X117101850Y-30111700I438150J0D01*
G01*
X117978150Y-30111700D01*
G75*
G02*
X118416300Y-30549850I0J-438150D01*
G01*
X118416300Y-31426150D01*
G75*
G02*
X117978150Y-31864300I-438150J0D01*
G01*
X117101850Y-31864300D01*
G75*
G02*
X116663700Y-31426150I0J438150D01*
G01*
G37*
%TD.AperFunction*%
%TO.P,M1,2*%
%TO.N,ROW1*%
%TA.AperFunction,ComponentPad*%
G36*
G01*
X116663700Y-29394150D02*
X116663700Y-28517850D01*
G75*
G02*
X117101850Y-28079700I438150J0D01*
G01*
X117978150Y-28079700D01*
G75*
G02*
X118416300Y-28517850I0J-438150D01*
G01*
X118416300Y-29394150D01*
G75*
G02*
X117978150Y-29832300I-438150J0D01*
G01*
X117101850Y-29832300D01*
G75*
G02*
X116663700Y-29394150I0J438150D01*
G01*
G37*
%TD.AperFunction*%
%TO.P,M1,1*%
%TO.N,ROW0*%
%TA.AperFunction,ComponentPad*%
G36*
G01*
X116663700Y-27362150D02*
X116663700Y-26485850D01*
G75*
G02*
X117101850Y-26047700I438150J0D01*
G01*
X117978150Y-26047700D01*
G75*
G02*
X118416300Y-26485850I0J-438150D01*
G01*
X118416300Y-27362150D01*
G75*
G02*
X117978150Y-27800300I-438150J0D01*
G01*
X117101850Y-27800300D01*
G75*
G02*
X116663700Y-27362150I0J438150D01*
G01*
G37*
%TD.AperFunction*%
%TD*%
%TO.P,MX24,1*%
%TO.N,COL5*%
X123706250Y-26956250D03*
%TA.AperFunction,ComponentPad*%
G36*
G01*
X121644938Y-29253600D02*
X121644933Y-29253595D01*
G75*
G02*
X121558905Y-27664933I751317J837345D01*
G01*
X122868907Y-26204933D01*
G75*
G02*
X124457569Y-26118905I837345J-751317D01*
G01*
X124457569Y-26118905D01*
G75*
G02*
X124543597Y-27707567I-751317J-837345D01*
G01*
X123233595Y-29167567D01*
G75*
G02*
X121644933Y-29253595I-837345J751317D01*
G01*
G37*
%TD.AperFunction*%
%TO.P,MX24,2*%
%TO.N,Net-(D24-Pad2)*%
X128746250Y-25876250D03*
%TA.AperFunction,ComponentPad*%
G36*
G01*
X128629733Y-27578645D02*
X128628847Y-27578584D01*
G75*
G02*
X127583916Y-26378847I77403J1122334D01*
G01*
X127623916Y-25798847D01*
G75*
G02*
X128823653Y-24753916I1122334J-77403D01*
G01*
X128823653Y-24753916D01*
G75*
G02*
X129868584Y-25953653I-77403J-1122334D01*
G01*
X129828584Y-26533653D01*
G75*
G02*
X128628847Y-27578584I-1122334J77403D01*
G01*
G37*
%TD.AperFunction*%
%TD*%
%TO.P,FB1,2*%
%TO.N,Earth*%
%TA.AperFunction,SMDPad,CuDef*%
G36*
G01*
X142670000Y-22282999D02*
X142670000Y-23183001D01*
G75*
G02*
X142420001Y-23433000I-249999J0D01*
G01*
X141769999Y-23433000D01*
G75*
G02*
X141520000Y-23183001I0J249999D01*
G01*
X141520000Y-22282999D01*
G75*
G02*
X141769999Y-22033000I249999J0D01*
G01*
X142420001Y-22033000D01*
G75*
G02*
X142670000Y-22282999I0J-249999D01*
G01*
G37*
%TD.AperFunction*%
%TO.P,FB1,1*%
%TO.N,GND*%
%TA.AperFunction,SMDPad,CuDef*%
G36*
G01*
X144720000Y-22282999D02*
X144720000Y-23183001D01*
G75*
G02*
X144470001Y-23433000I-249999J0D01*
G01*
X143819999Y-23433000D01*
G75*
G02*
X143570000Y-23183001I0J249999D01*
G01*
X143570000Y-22282999D01*
G75*
G02*
X143819999Y-22033000I249999J0D01*
G01*
X144470001Y-22033000D01*
G75*
G02*
X144720000Y-22282999I0J-249999D01*
G01*
G37*
%TD.AperFunction*%
%TD*%
%TO.P,MX46,1*%
%TO.N,COL9*%
X199906250Y-84106250D03*
%TA.AperFunction,ComponentPad*%
G36*
G01*
X197844938Y-86403600D02*
X197844933Y-86403595D01*
G75*
G02*
X197758905Y-84814933I751317J837345D01*
G01*
X199068907Y-83354933D01*
G75*
G02*
X200657569Y-83268905I837345J-751317D01*
G01*
X200657569Y-83268905D01*
G75*
G02*
X200743597Y-84857567I-751317J-837345D01*
G01*
X199433595Y-86317567D01*
G75*
G02*
X197844933Y-86403595I-837345J751317D01*
G01*
G37*
%TD.AperFunction*%
%TO.P,MX46,2*%
%TO.N,Net-(D46-Pad2)*%
X204946250Y-83026250D03*
%TA.AperFunction,ComponentPad*%
G36*
G01*
X204829733Y-84728645D02*
X204828847Y-84728584D01*
G75*
G02*
X203783916Y-83528847I77403J1122334D01*
G01*
X203823916Y-82948847D01*
G75*
G02*
X205023653Y-81903916I1122334J-77403D01*
G01*
X205023653Y-81903916D01*
G75*
G02*
X206068584Y-83103653I-77403J-1122334D01*
G01*
X206028584Y-83683653D01*
G75*
G02*
X204828847Y-84728584I-1122334J77403D01*
G01*
G37*
%TD.AperFunction*%
%TD*%
%TO.P,MX42,1*%
%TO.N,COL8*%
X180856250Y-84106250D03*
%TA.AperFunction,ComponentPad*%
G36*
G01*
X178794938Y-86403600D02*
X178794933Y-86403595D01*
G75*
G02*
X178708905Y-84814933I751317J837345D01*
G01*
X180018907Y-83354933D01*
G75*
G02*
X181607569Y-83268905I837345J-751317D01*
G01*
X181607569Y-83268905D01*
G75*
G02*
X181693597Y-84857567I-751317J-837345D01*
G01*
X180383595Y-86317567D01*
G75*
G02*
X178794933Y-86403595I-837345J751317D01*
G01*
G37*
%TD.AperFunction*%
%TO.P,MX42,2*%
%TO.N,Net-(D42-Pad2)*%
X185896250Y-83026250D03*
%TA.AperFunction,ComponentPad*%
G36*
G01*
X185779733Y-84728645D02*
X185778847Y-84728584D01*
G75*
G02*
X184733916Y-83528847I77403J1122334D01*
G01*
X184773916Y-82948847D01*
G75*
G02*
X185973653Y-81903916I1122334J-77403D01*
G01*
X185973653Y-81903916D01*
G75*
G02*
X187018584Y-83103653I-77403J-1122334D01*
G01*
X186978584Y-83683653D01*
G75*
G02*
X185778847Y-84728584I-1122334J77403D01*
G01*
G37*
%TD.AperFunction*%
%TD*%
%TO.P,MX39,1*%
%TO.N,COL8*%
X180856250Y-26956250D03*
%TA.AperFunction,ComponentPad*%
G36*
G01*
X178794938Y-29253600D02*
X178794933Y-29253595D01*
G75*
G02*
X178708905Y-27664933I751317J837345D01*
G01*
X180018907Y-26204933D01*
G75*
G02*
X181607569Y-26118905I837345J-751317D01*
G01*
X181607569Y-26118905D01*
G75*
G02*
X181693597Y-27707567I-751317J-837345D01*
G01*
X180383595Y-29167567D01*
G75*
G02*
X178794933Y-29253595I-837345J751317D01*
G01*
G37*
%TD.AperFunction*%
%TO.P,MX39,2*%
%TO.N,Net-(D39-Pad2)*%
X185896250Y-25876250D03*
%TA.AperFunction,ComponentPad*%
G36*
G01*
X185779733Y-27578645D02*
X185778847Y-27578584D01*
G75*
G02*
X184733916Y-26378847I77403J1122334D01*
G01*
X184773916Y-25798847D01*
G75*
G02*
X185973653Y-24753916I1122334J-77403D01*
G01*
X185973653Y-24753916D01*
G75*
G02*
X187018584Y-25953653I-77403J-1122334D01*
G01*
X186978584Y-26533653D01*
G75*
G02*
X185778847Y-27578584I-1122334J77403D01*
G01*
G37*
%TD.AperFunction*%
%TD*%
D11*
%TO.P,Y1,1*%
%TO.N,Net-(C1-Pad1)*%
X203066000Y-106606000D03*
%TO.P,Y1,2*%
%TO.N,GND*%
X203066000Y-103706000D03*
%TO.P,Y1,3*%
%TO.N,Net-(C2-Pad1)*%
X205366000Y-103706000D03*
%TO.P,Y1,4*%
%TO.N,GND*%
X205366000Y-106606000D03*
%TD*%
D12*
%TO.P,USB1,12*%
%TO.N,GND*%
X138956250Y-24070000D03*
%TO.P,USB1,1*%
X132506250Y-24070000D03*
%TO.P,USB1,11*%
%TO.N,VCC*%
X138181250Y-24070000D03*
%TO.P,USB1,2*%
X133281250Y-24070000D03*
D13*
%TO.P,USB1,3*%
%TO.N,Net-(USB1-Pad3)*%
X133981250Y-24070000D03*
%TO.P,USB1,10*%
%TO.N,Net-(R3-Pad1)*%
X137481250Y-24070000D03*
%TO.P,USB1,4*%
%TO.N,Net-(R4-Pad1)*%
X134481250Y-24070000D03*
%TO.P,USB1,9*%
%TO.N,Net-(USB1-Pad9)*%
X136981250Y-24070000D03*
%TO.P,USB1,5*%
%TO.N,DN*%
X134981250Y-24070000D03*
%TO.P,USB1,8*%
%TO.N,DP*%
X136481250Y-24070000D03*
%TO.P,USB1,7*%
%TO.N,DN*%
X135981250Y-24070000D03*
%TO.P,USB1,6*%
%TO.N,DP*%
X135481250Y-24070000D03*
D14*
%TO.P,USB1,13*%
%TO.N,Earth*%
X131411250Y-22655000D03*
X140051250Y-22655000D03*
D15*
X131411250Y-18475000D03*
X140051250Y-18475000D03*
%TD*%
D16*
%TO.P,U2,3*%
%TO.N,DN*%
X136763250Y-42225000D03*
%TO.P,U2,2*%
%TO.N,DP*%
X138763250Y-42225000D03*
%TO.P,U2,4*%
%TO.N,VCC*%
X136763250Y-40325000D03*
D17*
%TO.P,U2,1*%
%TO.N,GND*%
X138763250Y-40525000D03*
%TD*%
D18*
%TO.P,U1,1*%
%TO.N,Net-(U1-Pad1)*%
X188659000Y-99329000D03*
%TO.P,U1,2*%
%TO.N,+5V*%
X189459000Y-99329000D03*
%TO.P,U1,3*%
%TO.N,D-*%
X190259000Y-99329000D03*
%TO.P,U1,4*%
%TO.N,D+*%
X191059000Y-99329000D03*
%TO.P,U1,5*%
%TO.N,GND*%
X191859000Y-99329000D03*
%TO.P,U1,6*%
%TO.N,Net-(C4-Pad1)*%
X192659000Y-99329000D03*
%TO.P,U1,7*%
%TO.N,+5V*%
X193459000Y-99329000D03*
%TO.P,U1,8*%
%TO.N,Net-(U1-Pad8)*%
X194259000Y-99329000D03*
%TO.P,U1,9*%
%TO.N,Net-(U1-Pad9)*%
X195059000Y-99329000D03*
%TO.P,U1,10*%
%TO.N,Net-(U1-Pad10)*%
X195859000Y-99329000D03*
%TO.P,U1,11*%
%TO.N,COL9*%
X196659000Y-99329000D03*
D19*
%TO.P,U1,12*%
%TO.N,Net-(U1-Pad12)*%
X198359000Y-101029000D03*
%TO.P,U1,13*%
%TO.N,Net-(R1-Pad2)*%
X198359000Y-101829000D03*
%TO.P,U1,14*%
%TO.N,+5V*%
X198359000Y-102629000D03*
%TO.P,U1,15*%
%TO.N,GND*%
X198359000Y-103429000D03*
%TO.P,U1,16*%
%TO.N,Net-(C2-Pad1)*%
X198359000Y-104229000D03*
%TO.P,U1,17*%
%TO.N,Net-(C1-Pad1)*%
X198359000Y-105029000D03*
%TO.P,U1,18*%
%TO.N,RST*%
X198359000Y-105829000D03*
%TO.P,U1,19*%
%TO.N,SCK*%
X198359000Y-106629000D03*
%TO.P,U1,20*%
%TO.N,MISO*%
X198359000Y-107429000D03*
%TO.P,U1,21*%
%TO.N,MOSI*%
X198359000Y-108229000D03*
%TO.P,U1,22*%
%TO.N,COL0*%
X198359000Y-109029000D03*
D18*
%TO.P,U1,23*%
%TO.N,GND*%
X196659000Y-110729000D03*
%TO.P,U1,24*%
%TO.N,+5V*%
X195859000Y-110729000D03*
%TO.P,U1,25*%
%TO.N,COL1*%
X195059000Y-110729000D03*
%TO.P,U1,26*%
%TO.N,COL2*%
X194259000Y-110729000D03*
%TO.P,U1,27*%
%TO.N,COL3*%
X193459000Y-110729000D03*
%TO.P,U1,28*%
%TO.N,COL4*%
X192659000Y-110729000D03*
%TO.P,U1,29*%
%TO.N,COL5*%
X191859000Y-110729000D03*
%TO.P,U1,30*%
%TO.N,COL6*%
X191059000Y-110729000D03*
%TO.P,U1,31*%
%TO.N,COL7*%
X190259000Y-110729000D03*
%TO.P,U1,32*%
%TO.N,COL8*%
X189459000Y-110729000D03*
%TO.P,U1,33*%
%TO.N,Net-(R2-Pad2)*%
X188659000Y-110729000D03*
D19*
%TO.P,U1,34*%
%TO.N,+5V*%
X186959000Y-109029000D03*
%TO.P,U1,35*%
%TO.N,GND*%
X186959000Y-108229000D03*
%TO.P,U1,36*%
%TO.N,ROW4*%
X186959000Y-107429000D03*
%TO.P,U1,37*%
%TO.N,ROW3*%
X186959000Y-106629000D03*
%TO.P,U1,38*%
%TO.N,ROW2*%
X186959000Y-105829000D03*
%TO.P,U1,39*%
%TO.N,ROW1*%
X186959000Y-105029000D03*
%TO.P,U1,40*%
%TO.N,ROW0*%
X186959000Y-104229000D03*
%TO.P,U1,41*%
%TO.N,Net-(U1-Pad41)*%
X186959000Y-103429000D03*
%TO.P,U1,42*%
%TO.N,Net-(U1-Pad42)*%
X186959000Y-102629000D03*
%TO.P,U1,43*%
%TO.N,GND*%
X186959000Y-101829000D03*
%TO.P,U1,44*%
%TO.N,+5V*%
X186959000Y-101029000D03*
%TD*%
D20*
%TO.P,SW1,2*%
%TO.N,Net-(R1-Pad2)*%
X210237000Y-92765000D03*
X204037000Y-92765000D03*
%TO.P,SW1,1*%
%TO.N,GND*%
X210237000Y-96465000D03*
X204037000Y-96465000D03*
%TD*%
%TO.P,R6,1*%
%TO.N,D+*%
%TA.AperFunction,SMDPad,CuDef*%
G36*
G01*
X192157001Y-97358000D02*
X191256999Y-97358000D01*
G75*
G02*
X191007000Y-97108001I0J249999D01*
G01*
X191007000Y-96407999D01*
G75*
G02*
X191256999Y-96158000I249999J0D01*
G01*
X192157001Y-96158000D01*
G75*
G02*
X192407000Y-96407999I0J-249999D01*
G01*
X192407000Y-97108001D01*
G75*
G02*
X192157001Y-97358000I-249999J0D01*
G01*
G37*
%TD.AperFunction*%
%TO.P,R6,2*%
%TO.N,DP*%
%TA.AperFunction,SMDPad,CuDef*%
G36*
G01*
X192157001Y-95358000D02*
X191256999Y-95358000D01*
G75*
G02*
X191007000Y-95108001I0J249999D01*
G01*
X191007000Y-94407999D01*
G75*
G02*
X191256999Y-94158000I249999J0D01*
G01*
X192157001Y-94158000D01*
G75*
G02*
X192407000Y-94407999I0J-249999D01*
G01*
X192407000Y-95108001D01*
G75*
G02*
X192157001Y-95358000I-249999J0D01*
G01*
G37*
%TD.AperFunction*%
%TD*%
%TO.P,R5,1*%
%TO.N,D-*%
%TA.AperFunction,SMDPad,CuDef*%
G36*
G01*
X190061001Y-97358000D02*
X189160999Y-97358000D01*
G75*
G02*
X188911000Y-97108001I0J249999D01*
G01*
X188911000Y-96407999D01*
G75*
G02*
X189160999Y-96158000I249999J0D01*
G01*
X190061001Y-96158000D01*
G75*
G02*
X190311000Y-96407999I0J-249999D01*
G01*
X190311000Y-97108001D01*
G75*
G02*
X190061001Y-97358000I-249999J0D01*
G01*
G37*
%TD.AperFunction*%
%TO.P,R5,2*%
%TO.N,DN*%
%TA.AperFunction,SMDPad,CuDef*%
G36*
G01*
X190061001Y-95358000D02*
X189160999Y-95358000D01*
G75*
G02*
X188911000Y-95108001I0J249999D01*
G01*
X188911000Y-94407999D01*
G75*
G02*
X189160999Y-94158000I249999J0D01*
G01*
X190061001Y-94158000D01*
G75*
G02*
X190311000Y-94407999I0J-249999D01*
G01*
X190311000Y-95108001D01*
G75*
G02*
X190061001Y-95358000I-249999J0D01*
G01*
G37*
%TD.AperFunction*%
%TD*%
%TO.P,R4,2*%
%TO.N,GND*%
%TA.AperFunction,SMDPad,CuDef*%
G36*
G01*
X132950000Y-37395999D02*
X132950000Y-38296001D01*
G75*
G02*
X132700001Y-38546000I-249999J0D01*
G01*
X131999999Y-38546000D01*
G75*
G02*
X131750000Y-38296001I0J249999D01*
G01*
X131750000Y-37395999D01*
G75*
G02*
X131999999Y-37146000I249999J0D01*
G01*
X132700001Y-37146000D01*
G75*
G02*
X132950000Y-37395999I0J-249999D01*
G01*
G37*
%TD.AperFunction*%
%TO.P,R4,1*%
%TO.N,Net-(R4-Pad1)*%
%TA.AperFunction,SMDPad,CuDef*%
G36*
G01*
X134950000Y-37395999D02*
X134950000Y-38296001D01*
G75*
G02*
X134700001Y-38546000I-249999J0D01*
G01*
X133999999Y-38546000D01*
G75*
G02*
X133750000Y-38296001I0J249999D01*
G01*
X133750000Y-37395999D01*
G75*
G02*
X133999999Y-37146000I249999J0D01*
G01*
X134700001Y-37146000D01*
G75*
G02*
X134950000Y-37395999I0J-249999D01*
G01*
G37*
%TD.AperFunction*%
%TD*%
%TO.P,R3,2*%
%TO.N,GND*%
%TA.AperFunction,SMDPad,CuDef*%
G36*
G01*
X141894000Y-39439001D02*
X141894000Y-38538999D01*
G75*
G02*
X142143999Y-38289000I249999J0D01*
G01*
X142844001Y-38289000D01*
G75*
G02*
X143094000Y-38538999I0J-249999D01*
G01*
X143094000Y-39439001D01*
G75*
G02*
X142844001Y-39689000I-249999J0D01*
G01*
X142143999Y-39689000D01*
G75*
G02*
X141894000Y-39439001I0J249999D01*
G01*
G37*
%TD.AperFunction*%
%TO.P,R3,1*%
%TO.N,Net-(R3-Pad1)*%
%TA.AperFunction,SMDPad,CuDef*%
G36*
G01*
X139894000Y-39439001D02*
X139894000Y-38538999D01*
G75*
G02*
X140143999Y-38289000I249999J0D01*
G01*
X140844001Y-38289000D01*
G75*
G02*
X141094000Y-38538999I0J-249999D01*
G01*
X141094000Y-39439001D01*
G75*
G02*
X140844001Y-39689000I-249999J0D01*
G01*
X140143999Y-39689000D01*
G75*
G02*
X139894000Y-39439001I0J249999D01*
G01*
G37*
%TD.AperFunction*%
%TD*%
%TO.P,R2,1*%
%TO.N,GND*%
%TA.AperFunction,SMDPad,CuDef*%
G36*
G01*
X179248000Y-111448001D02*
X179248000Y-110547999D01*
G75*
G02*
X179497999Y-110298000I249999J0D01*
G01*
X180198001Y-110298000D01*
G75*
G02*
X180448000Y-110547999I0J-249999D01*
G01*
X180448000Y-111448001D01*
G75*
G02*
X180198001Y-111698000I-249999J0D01*
G01*
X179497999Y-111698000D01*
G75*
G02*
X179248000Y-111448001I0J249999D01*
G01*
G37*
%TD.AperFunction*%
%TO.P,R2,2*%
%TO.N,Net-(R2-Pad2)*%
%TA.AperFunction,SMDPad,CuDef*%
G36*
G01*
X181248000Y-111448001D02*
X181248000Y-110547999D01*
G75*
G02*
X181497999Y-110298000I249999J0D01*
G01*
X182198001Y-110298000D01*
G75*
G02*
X182448000Y-110547999I0J-249999D01*
G01*
X182448000Y-111448001D01*
G75*
G02*
X182198001Y-111698000I-249999J0D01*
G01*
X181497999Y-111698000D01*
G75*
G02*
X181248000Y-111448001I0J249999D01*
G01*
G37*
%TD.AperFunction*%
%TD*%
%TO.P,R1,1*%
%TO.N,+5V*%
%TA.AperFunction,SMDPad,CuDef*%
G36*
G01*
X201498000Y-96831999D02*
X201498000Y-97732001D01*
G75*
G02*
X201248001Y-97982000I-249999J0D01*
G01*
X200547999Y-97982000D01*
G75*
G02*
X200298000Y-97732001I0J249999D01*
G01*
X200298000Y-96831999D01*
G75*
G02*
X200547999Y-96582000I249999J0D01*
G01*
X201248001Y-96582000D01*
G75*
G02*
X201498000Y-96831999I0J-249999D01*
G01*
G37*
%TD.AperFunction*%
%TO.P,R1,2*%
%TO.N,Net-(R1-Pad2)*%
%TA.AperFunction,SMDPad,CuDef*%
G36*
G01*
X199498000Y-96831999D02*
X199498000Y-97732001D01*
G75*
G02*
X199248001Y-97982000I-249999J0D01*
G01*
X198547999Y-97982000D01*
G75*
G02*
X198298000Y-97732001I0J249999D01*
G01*
X198298000Y-96831999D01*
G75*
G02*
X198547999Y-96582000I249999J0D01*
G01*
X199248001Y-96582000D01*
G75*
G02*
X199498000Y-96831999I0J-249999D01*
G01*
G37*
%TD.AperFunction*%
%TD*%
D10*
%TO.P,MX45,1*%
%TO.N,COL9*%
X199906250Y-65056250D03*
%TA.AperFunction,ComponentPad*%
G36*
G01*
X197844938Y-67353600D02*
X197844933Y-67353595D01*
G75*
G02*
X197758905Y-65764933I751317J837345D01*
G01*
X199068907Y-64304933D01*
G75*
G02*
X200657569Y-64218905I837345J-751317D01*
G01*
X200657569Y-64218905D01*
G75*
G02*
X200743597Y-65807567I-751317J-837345D01*
G01*
X199433595Y-67267567D01*
G75*
G02*
X197844933Y-67353595I-837345J751317D01*
G01*
G37*
%TD.AperFunction*%
%TO.P,MX45,2*%
%TO.N,Net-(D45-Pad2)*%
X204946250Y-63976250D03*
%TA.AperFunction,ComponentPad*%
G36*
G01*
X204829733Y-65678645D02*
X204828847Y-65678584D01*
G75*
G02*
X203783916Y-64478847I77403J1122334D01*
G01*
X203823916Y-63898847D01*
G75*
G02*
X205023653Y-62853916I1122334J-77403D01*
G01*
X205023653Y-62853916D01*
G75*
G02*
X206068584Y-64053653I-77403J-1122334D01*
G01*
X206028584Y-64633653D01*
G75*
G02*
X204828847Y-65678584I-1122334J77403D01*
G01*
G37*
%TD.AperFunction*%
%TD*%
%TO.P,MX44,1*%
%TO.N,COL9*%
X199906250Y-46006250D03*
%TA.AperFunction,ComponentPad*%
G36*
G01*
X197844938Y-48303600D02*
X197844933Y-48303595D01*
G75*
G02*
X197758905Y-46714933I751317J837345D01*
G01*
X199068907Y-45254933D01*
G75*
G02*
X200657569Y-45168905I837345J-751317D01*
G01*
X200657569Y-45168905D01*
G75*
G02*
X200743597Y-46757567I-751317J-837345D01*
G01*
X199433595Y-48217567D01*
G75*
G02*
X197844933Y-48303595I-837345J751317D01*
G01*
G37*
%TD.AperFunction*%
%TO.P,MX44,2*%
%TO.N,Net-(D44-Pad2)*%
X204946250Y-44926250D03*
%TA.AperFunction,ComponentPad*%
G36*
G01*
X204829733Y-46628645D02*
X204828847Y-46628584D01*
G75*
G02*
X203783916Y-45428847I77403J1122334D01*
G01*
X203823916Y-44848847D01*
G75*
G02*
X205023653Y-43803916I1122334J-77403D01*
G01*
X205023653Y-43803916D01*
G75*
G02*
X206068584Y-45003653I-77403J-1122334D01*
G01*
X206028584Y-45583653D01*
G75*
G02*
X204828847Y-46628584I-1122334J77403D01*
G01*
G37*
%TD.AperFunction*%
%TD*%
%TO.P,MX43,1*%
%TO.N,COL9*%
X199906250Y-26956250D03*
%TA.AperFunction,ComponentPad*%
G36*
G01*
X197844938Y-29253600D02*
X197844933Y-29253595D01*
G75*
G02*
X197758905Y-27664933I751317J837345D01*
G01*
X199068907Y-26204933D01*
G75*
G02*
X200657569Y-26118905I837345J-751317D01*
G01*
X200657569Y-26118905D01*
G75*
G02*
X200743597Y-27707567I-751317J-837345D01*
G01*
X199433595Y-29167567D01*
G75*
G02*
X197844933Y-29253595I-837345J751317D01*
G01*
G37*
%TD.AperFunction*%
%TO.P,MX43,2*%
%TO.N,Net-(D43-Pad2)*%
X204946250Y-25876250D03*
%TA.AperFunction,ComponentPad*%
G36*
G01*
X204829733Y-27578645D02*
X204828847Y-27578584D01*
G75*
G02*
X203783916Y-26378847I77403J1122334D01*
G01*
X203823916Y-25798847D01*
G75*
G02*
X205023653Y-24753916I1122334J-77403D01*
G01*
X205023653Y-24753916D01*
G75*
G02*
X206068584Y-25953653I-77403J-1122334D01*
G01*
X206028584Y-26533653D01*
G75*
G02*
X204828847Y-27578584I-1122334J77403D01*
G01*
G37*
%TD.AperFunction*%
%TD*%
%TO.P,MX41,1*%
%TO.N,COL8*%
X180856250Y-65056250D03*
%TA.AperFunction,ComponentPad*%
G36*
G01*
X178794938Y-67353600D02*
X178794933Y-67353595D01*
G75*
G02*
X178708905Y-65764933I751317J837345D01*
G01*
X180018907Y-64304933D01*
G75*
G02*
X181607569Y-64218905I837345J-751317D01*
G01*
X181607569Y-64218905D01*
G75*
G02*
X181693597Y-65807567I-751317J-837345D01*
G01*
X180383595Y-67267567D01*
G75*
G02*
X178794933Y-67353595I-837345J751317D01*
G01*
G37*
%TD.AperFunction*%
%TO.P,MX41,2*%
%TO.N,Net-(D41-Pad2)*%
X185896250Y-63976250D03*
%TA.AperFunction,ComponentPad*%
G36*
G01*
X185779733Y-65678645D02*
X185778847Y-65678584D01*
G75*
G02*
X184733916Y-64478847I77403J1122334D01*
G01*
X184773916Y-63898847D01*
G75*
G02*
X185973653Y-62853916I1122334J-77403D01*
G01*
X185973653Y-62853916D01*
G75*
G02*
X187018584Y-64053653I-77403J-1122334D01*
G01*
X186978584Y-64633653D01*
G75*
G02*
X185778847Y-65678584I-1122334J77403D01*
G01*
G37*
%TD.AperFunction*%
%TD*%
%TO.P,MX40,1*%
%TO.N,COL8*%
X180856250Y-46006250D03*
%TA.AperFunction,ComponentPad*%
G36*
G01*
X178794938Y-48303600D02*
X178794933Y-48303595D01*
G75*
G02*
X178708905Y-46714933I751317J837345D01*
G01*
X180018907Y-45254933D01*
G75*
G02*
X181607569Y-45168905I837345J-751317D01*
G01*
X181607569Y-45168905D01*
G75*
G02*
X181693597Y-46757567I-751317J-837345D01*
G01*
X180383595Y-48217567D01*
G75*
G02*
X178794933Y-48303595I-837345J751317D01*
G01*
G37*
%TD.AperFunction*%
%TO.P,MX40,2*%
%TO.N,Net-(D40-Pad2)*%
X185896250Y-44926250D03*
%TA.AperFunction,ComponentPad*%
G36*
G01*
X185779733Y-46628645D02*
X185778847Y-46628584D01*
G75*
G02*
X184733916Y-45428847I77403J1122334D01*
G01*
X184773916Y-44848847D01*
G75*
G02*
X185973653Y-43803916I1122334J-77403D01*
G01*
X185973653Y-43803916D01*
G75*
G02*
X187018584Y-45003653I-77403J-1122334D01*
G01*
X186978584Y-45583653D01*
G75*
G02*
X185778847Y-46628584I-1122334J77403D01*
G01*
G37*
%TD.AperFunction*%
%TD*%
%TO.P,MX38,1*%
%TO.N,COL7*%
X171331250Y-103156250D03*
%TA.AperFunction,ComponentPad*%
G36*
G01*
X169269938Y-105453600D02*
X169269933Y-105453595D01*
G75*
G02*
X169183905Y-103864933I751317J837345D01*
G01*
X170493907Y-102404933D01*
G75*
G02*
X172082569Y-102318905I837345J-751317D01*
G01*
X172082569Y-102318905D01*
G75*
G02*
X172168597Y-103907567I-751317J-837345D01*
G01*
X170858595Y-105367567D01*
G75*
G02*
X169269933Y-105453595I-837345J751317D01*
G01*
G37*
%TD.AperFunction*%
%TO.P,MX38,2*%
%TO.N,Net-(D38-Pad2)*%
X176371250Y-102076250D03*
%TA.AperFunction,ComponentPad*%
G36*
G01*
X176254733Y-103778645D02*
X176253847Y-103778584D01*
G75*
G02*
X175208916Y-102578847I77403J1122334D01*
G01*
X175248916Y-101998847D01*
G75*
G02*
X176448653Y-100953916I1122334J-77403D01*
G01*
X176448653Y-100953916D01*
G75*
G02*
X177493584Y-102153653I-77403J-1122334D01*
G01*
X177453584Y-102733653D01*
G75*
G02*
X176253847Y-103778584I-1122334J77403D01*
G01*
G37*
%TD.AperFunction*%
%TD*%
%TO.P,MX37,1*%
%TO.N,COL7*%
X161806250Y-84106250D03*
%TA.AperFunction,ComponentPad*%
G36*
G01*
X159744938Y-86403600D02*
X159744933Y-86403595D01*
G75*
G02*
X159658905Y-84814933I751317J837345D01*
G01*
X160968907Y-83354933D01*
G75*
G02*
X162557569Y-83268905I837345J-751317D01*
G01*
X162557569Y-83268905D01*
G75*
G02*
X162643597Y-84857567I-751317J-837345D01*
G01*
X161333595Y-86317567D01*
G75*
G02*
X159744933Y-86403595I-837345J751317D01*
G01*
G37*
%TD.AperFunction*%
%TO.P,MX37,2*%
%TO.N,Net-(D37-Pad2)*%
X166846250Y-83026250D03*
%TA.AperFunction,ComponentPad*%
G36*
G01*
X166729733Y-84728645D02*
X166728847Y-84728584D01*
G75*
G02*
X165683916Y-83528847I77403J1122334D01*
G01*
X165723916Y-82948847D01*
G75*
G02*
X166923653Y-81903916I1122334J-77403D01*
G01*
X166923653Y-81903916D01*
G75*
G02*
X167968584Y-83103653I-77403J-1122334D01*
G01*
X167928584Y-83683653D01*
G75*
G02*
X166728847Y-84728584I-1122334J77403D01*
G01*
G37*
%TD.AperFunction*%
%TD*%
%TO.P,MX36,1*%
%TO.N,COL7*%
X161806250Y-65056250D03*
%TA.AperFunction,ComponentPad*%
G36*
G01*
X159744938Y-67353600D02*
X159744933Y-67353595D01*
G75*
G02*
X159658905Y-65764933I751317J837345D01*
G01*
X160968907Y-64304933D01*
G75*
G02*
X162557569Y-64218905I837345J-751317D01*
G01*
X162557569Y-64218905D01*
G75*
G02*
X162643597Y-65807567I-751317J-837345D01*
G01*
X161333595Y-67267567D01*
G75*
G02*
X159744933Y-67353595I-837345J751317D01*
G01*
G37*
%TD.AperFunction*%
%TO.P,MX36,2*%
%TO.N,Net-(D36-Pad2)*%
X166846250Y-63976250D03*
%TA.AperFunction,ComponentPad*%
G36*
G01*
X166729733Y-65678645D02*
X166728847Y-65678584D01*
G75*
G02*
X165683916Y-64478847I77403J1122334D01*
G01*
X165723916Y-63898847D01*
G75*
G02*
X166923653Y-62853916I1122334J-77403D01*
G01*
X166923653Y-62853916D01*
G75*
G02*
X167968584Y-64053653I-77403J-1122334D01*
G01*
X167928584Y-64633653D01*
G75*
G02*
X166728847Y-65678584I-1122334J77403D01*
G01*
G37*
%TD.AperFunction*%
%TD*%
%TO.P,MX35,1*%
%TO.N,COL7*%
X161806250Y-46006250D03*
%TA.AperFunction,ComponentPad*%
G36*
G01*
X159744938Y-48303600D02*
X159744933Y-48303595D01*
G75*
G02*
X159658905Y-46714933I751317J837345D01*
G01*
X160968907Y-45254933D01*
G75*
G02*
X162557569Y-45168905I837345J-751317D01*
G01*
X162557569Y-45168905D01*
G75*
G02*
X162643597Y-46757567I-751317J-837345D01*
G01*
X161333595Y-48217567D01*
G75*
G02*
X159744933Y-48303595I-837345J751317D01*
G01*
G37*
%TD.AperFunction*%
%TO.P,MX35,2*%
%TO.N,Net-(D35-Pad2)*%
X166846250Y-44926250D03*
%TA.AperFunction,ComponentPad*%
G36*
G01*
X166729733Y-46628645D02*
X166728847Y-46628584D01*
G75*
G02*
X165683916Y-45428847I77403J1122334D01*
G01*
X165723916Y-44848847D01*
G75*
G02*
X166923653Y-43803916I1122334J-77403D01*
G01*
X166923653Y-43803916D01*
G75*
G02*
X167968584Y-45003653I-77403J-1122334D01*
G01*
X167928584Y-45583653D01*
G75*
G02*
X166728847Y-46628584I-1122334J77403D01*
G01*
G37*
%TD.AperFunction*%
%TD*%
%TO.P,MX34,1*%
%TO.N,COL7*%
X161806250Y-26956250D03*
%TA.AperFunction,ComponentPad*%
G36*
G01*
X159744938Y-29253600D02*
X159744933Y-29253595D01*
G75*
G02*
X159658905Y-27664933I751317J837345D01*
G01*
X160968907Y-26204933D01*
G75*
G02*
X162557569Y-26118905I837345J-751317D01*
G01*
X162557569Y-26118905D01*
G75*
G02*
X162643597Y-27707567I-751317J-837345D01*
G01*
X161333595Y-29167567D01*
G75*
G02*
X159744933Y-29253595I-837345J751317D01*
G01*
G37*
%TD.AperFunction*%
%TO.P,MX34,2*%
%TO.N,Net-(D34-Pad2)*%
X166846250Y-25876250D03*
%TA.AperFunction,ComponentPad*%
G36*
G01*
X166729733Y-27578645D02*
X166728847Y-27578584D01*
G75*
G02*
X165683916Y-26378847I77403J1122334D01*
G01*
X165723916Y-25798847D01*
G75*
G02*
X166923653Y-24753916I1122334J-77403D01*
G01*
X166923653Y-24753916D01*
G75*
G02*
X167968584Y-25953653I-77403J-1122334D01*
G01*
X167928584Y-26533653D01*
G75*
G02*
X166728847Y-27578584I-1122334J77403D01*
G01*
G37*
%TD.AperFunction*%
%TD*%
%TO.P,MX33,1*%
%TO.N,COL6*%
X152281250Y-103156250D03*
%TA.AperFunction,ComponentPad*%
G36*
G01*
X150219938Y-105453600D02*
X150219933Y-105453595D01*
G75*
G02*
X150133905Y-103864933I751317J837345D01*
G01*
X151443907Y-102404933D01*
G75*
G02*
X153032569Y-102318905I837345J-751317D01*
G01*
X153032569Y-102318905D01*
G75*
G02*
X153118597Y-103907567I-751317J-837345D01*
G01*
X151808595Y-105367567D01*
G75*
G02*
X150219933Y-105453595I-837345J751317D01*
G01*
G37*
%TD.AperFunction*%
%TO.P,MX33,2*%
%TO.N,Net-(D33-Pad2)*%
X157321250Y-102076250D03*
%TA.AperFunction,ComponentPad*%
G36*
G01*
X157204733Y-103778645D02*
X157203847Y-103778584D01*
G75*
G02*
X156158916Y-102578847I77403J1122334D01*
G01*
X156198916Y-101998847D01*
G75*
G02*
X157398653Y-100953916I1122334J-77403D01*
G01*
X157398653Y-100953916D01*
G75*
G02*
X158443584Y-102153653I-77403J-1122334D01*
G01*
X158403584Y-102733653D01*
G75*
G02*
X157203847Y-103778584I-1122334J77403D01*
G01*
G37*
%TD.AperFunction*%
%TD*%
%TO.P,MX32,1*%
%TO.N,COL6*%
X142756250Y-84106250D03*
%TA.AperFunction,ComponentPad*%
G36*
G01*
X140694938Y-86403600D02*
X140694933Y-86403595D01*
G75*
G02*
X140608905Y-84814933I751317J837345D01*
G01*
X141918907Y-83354933D01*
G75*
G02*
X143507569Y-83268905I837345J-751317D01*
G01*
X143507569Y-83268905D01*
G75*
G02*
X143593597Y-84857567I-751317J-837345D01*
G01*
X142283595Y-86317567D01*
G75*
G02*
X140694933Y-86403595I-837345J751317D01*
G01*
G37*
%TD.AperFunction*%
%TO.P,MX32,2*%
%TO.N,Net-(D32-Pad2)*%
X147796250Y-83026250D03*
%TA.AperFunction,ComponentPad*%
G36*
G01*
X147679733Y-84728645D02*
X147678847Y-84728584D01*
G75*
G02*
X146633916Y-83528847I77403J1122334D01*
G01*
X146673916Y-82948847D01*
G75*
G02*
X147873653Y-81903916I1122334J-77403D01*
G01*
X147873653Y-81903916D01*
G75*
G02*
X148918584Y-83103653I-77403J-1122334D01*
G01*
X148878584Y-83683653D01*
G75*
G02*
X147678847Y-84728584I-1122334J77403D01*
G01*
G37*
%TD.AperFunction*%
%TD*%
%TO.P,MX31,1*%
%TO.N,COL6*%
X142756250Y-65056250D03*
%TA.AperFunction,ComponentPad*%
G36*
G01*
X140694938Y-67353600D02*
X140694933Y-67353595D01*
G75*
G02*
X140608905Y-65764933I751317J837345D01*
G01*
X141918907Y-64304933D01*
G75*
G02*
X143507569Y-64218905I837345J-751317D01*
G01*
X143507569Y-64218905D01*
G75*
G02*
X143593597Y-65807567I-751317J-837345D01*
G01*
X142283595Y-67267567D01*
G75*
G02*
X140694933Y-67353595I-837345J751317D01*
G01*
G37*
%TD.AperFunction*%
%TO.P,MX31,2*%
%TO.N,Net-(D31-Pad2)*%
X147796250Y-63976250D03*
%TA.AperFunction,ComponentPad*%
G36*
G01*
X147679733Y-65678645D02*
X147678847Y-65678584D01*
G75*
G02*
X146633916Y-64478847I77403J1122334D01*
G01*
X146673916Y-63898847D01*
G75*
G02*
X147873653Y-62853916I1122334J-77403D01*
G01*
X147873653Y-62853916D01*
G75*
G02*
X148918584Y-64053653I-77403J-1122334D01*
G01*
X148878584Y-64633653D01*
G75*
G02*
X147678847Y-65678584I-1122334J77403D01*
G01*
G37*
%TD.AperFunction*%
%TD*%
%TO.P,MX30,1*%
%TO.N,COL6*%
X142756250Y-46006250D03*
%TA.AperFunction,ComponentPad*%
G36*
G01*
X140694938Y-48303600D02*
X140694933Y-48303595D01*
G75*
G02*
X140608905Y-46714933I751317J837345D01*
G01*
X141918907Y-45254933D01*
G75*
G02*
X143507569Y-45168905I837345J-751317D01*
G01*
X143507569Y-45168905D01*
G75*
G02*
X143593597Y-46757567I-751317J-837345D01*
G01*
X142283595Y-48217567D01*
G75*
G02*
X140694933Y-48303595I-837345J751317D01*
G01*
G37*
%TD.AperFunction*%
%TO.P,MX30,2*%
%TO.N,Net-(D30-Pad2)*%
X147796250Y-44926250D03*
%TA.AperFunction,ComponentPad*%
G36*
G01*
X147679733Y-46628645D02*
X147678847Y-46628584D01*
G75*
G02*
X146633916Y-45428847I77403J1122334D01*
G01*
X146673916Y-44848847D01*
G75*
G02*
X147873653Y-43803916I1122334J-77403D01*
G01*
X147873653Y-43803916D01*
G75*
G02*
X148918584Y-45003653I-77403J-1122334D01*
G01*
X148878584Y-45583653D01*
G75*
G02*
X147678847Y-46628584I-1122334J77403D01*
G01*
G37*
%TD.AperFunction*%
%TD*%
%TO.P,MX29,1*%
%TO.N,COL6*%
X142756250Y-26956250D03*
%TA.AperFunction,ComponentPad*%
G36*
G01*
X140694938Y-29253600D02*
X140694933Y-29253595D01*
G75*
G02*
X140608905Y-27664933I751317J837345D01*
G01*
X141918907Y-26204933D01*
G75*
G02*
X143507569Y-26118905I837345J-751317D01*
G01*
X143507569Y-26118905D01*
G75*
G02*
X143593597Y-27707567I-751317J-837345D01*
G01*
X142283595Y-29167567D01*
G75*
G02*
X140694933Y-29253595I-837345J751317D01*
G01*
G37*
%TD.AperFunction*%
%TO.P,MX29,2*%
%TO.N,Net-(D29-Pad2)*%
X147796250Y-25876250D03*
%TA.AperFunction,ComponentPad*%
G36*
G01*
X147679733Y-27578645D02*
X147678847Y-27578584D01*
G75*
G02*
X146633916Y-26378847I77403J1122334D01*
G01*
X146673916Y-25798847D01*
G75*
G02*
X147873653Y-24753916I1122334J-77403D01*
G01*
X147873653Y-24753916D01*
G75*
G02*
X148918584Y-25953653I-77403J-1122334D01*
G01*
X148878584Y-26533653D01*
G75*
G02*
X147678847Y-27578584I-1122334J77403D01*
G01*
G37*
%TD.AperFunction*%
%TD*%
%TO.P,MX28,1*%
%TO.N,COL5*%
X128468750Y-103156250D03*
%TA.AperFunction,ComponentPad*%
G36*
G01*
X126407438Y-105453600D02*
X126407433Y-105453595D01*
G75*
G02*
X126321405Y-103864933I751317J837345D01*
G01*
X127631407Y-102404933D01*
G75*
G02*
X129220069Y-102318905I837345J-751317D01*
G01*
X129220069Y-102318905D01*
G75*
G02*
X129306097Y-103907567I-751317J-837345D01*
G01*
X127996095Y-105367567D01*
G75*
G02*
X126407433Y-105453595I-837345J751317D01*
G01*
G37*
%TD.AperFunction*%
%TO.P,MX28,2*%
%TO.N,Net-(D28-Pad2)*%
X133508750Y-102076250D03*
%TA.AperFunction,ComponentPad*%
G36*
G01*
X133392233Y-103778645D02*
X133391347Y-103778584D01*
G75*
G02*
X132346416Y-102578847I77403J1122334D01*
G01*
X132386416Y-101998847D01*
G75*
G02*
X133586153Y-100953916I1122334J-77403D01*
G01*
X133586153Y-100953916D01*
G75*
G02*
X134631084Y-102153653I-77403J-1122334D01*
G01*
X134591084Y-102733653D01*
G75*
G02*
X133391347Y-103778584I-1122334J77403D01*
G01*
G37*
%TD.AperFunction*%
%TD*%
%TO.P,MX27,1*%
%TO.N,COL5*%
X123706250Y-84106250D03*
%TA.AperFunction,ComponentPad*%
G36*
G01*
X121644938Y-86403600D02*
X121644933Y-86403595D01*
G75*
G02*
X121558905Y-84814933I751317J837345D01*
G01*
X122868907Y-83354933D01*
G75*
G02*
X124457569Y-83268905I837345J-751317D01*
G01*
X124457569Y-83268905D01*
G75*
G02*
X124543597Y-84857567I-751317J-837345D01*
G01*
X123233595Y-86317567D01*
G75*
G02*
X121644933Y-86403595I-837345J751317D01*
G01*
G37*
%TD.AperFunction*%
%TO.P,MX27,2*%
%TO.N,Net-(D27-Pad2)*%
X128746250Y-83026250D03*
%TA.AperFunction,ComponentPad*%
G36*
G01*
X128629733Y-84728645D02*
X128628847Y-84728584D01*
G75*
G02*
X127583916Y-83528847I77403J1122334D01*
G01*
X127623916Y-82948847D01*
G75*
G02*
X128823653Y-81903916I1122334J-77403D01*
G01*
X128823653Y-81903916D01*
G75*
G02*
X129868584Y-83103653I-77403J-1122334D01*
G01*
X129828584Y-83683653D01*
G75*
G02*
X128628847Y-84728584I-1122334J77403D01*
G01*
G37*
%TD.AperFunction*%
%TD*%
D21*
%TO.P,J1,6*%
%TO.N,GND*%
X208121250Y-114776250D03*
D22*
%TO.P,J1,5*%
%TO.N,RST*%
X208121250Y-112236250D03*
%TO.P,J1,4*%
%TO.N,MOSI*%
X205581250Y-114776250D03*
%TO.P,J1,3*%
%TO.N,SCK*%
X205581250Y-112236250D03*
%TO.P,J1,2*%
%TO.N,+5V*%
X203041250Y-114776250D03*
%TO.P,J1,1*%
%TO.N,MISO*%
X203041250Y-112236250D03*
%TD*%
%TO.P,F1,2*%
%TO.N,VCC*%
%TA.AperFunction,SMDPad,CuDef*%
G36*
G01*
X133181250Y-42087500D02*
X131931250Y-42087500D01*
G75*
G02*
X131681250Y-41837500I0J250000D01*
G01*
X131681250Y-40912500D01*
G75*
G02*
X131931250Y-40662500I250000J0D01*
G01*
X133181250Y-40662500D01*
G75*
G02*
X133431250Y-40912500I0J-250000D01*
G01*
X133431250Y-41837500D01*
G75*
G02*
X133181250Y-42087500I-250000J0D01*
G01*
G37*
%TD.AperFunction*%
%TO.P,F1,1*%
%TO.N,+5V*%
%TA.AperFunction,SMDPad,CuDef*%
G36*
G01*
X133181250Y-45062500D02*
X131931250Y-45062500D01*
G75*
G02*
X131681250Y-44812500I0J250000D01*
G01*
X131681250Y-43887500D01*
G75*
G02*
X131931250Y-43637500I250000J0D01*
G01*
X133181250Y-43637500D01*
G75*
G02*
X133431250Y-43887500I0J-250000D01*
G01*
X133431250Y-44812500D01*
G75*
G02*
X133181250Y-45062500I-250000J0D01*
G01*
G37*
%TD.AperFunction*%
%TD*%
D23*
%TO.P,D46,2*%
%TO.N,Net-(D46-Pad2)*%
X210343750Y-87250000D03*
%TO.P,D46,1*%
%TO.N,ROW3*%
X210343750Y-90550000D03*
%TD*%
%TO.P,D45,2*%
%TO.N,Net-(D45-Pad2)*%
X210343750Y-68200000D03*
%TO.P,D45,1*%
%TO.N,ROW2*%
X210343750Y-71500000D03*
%TD*%
%TO.P,D44,2*%
%TO.N,Net-(D44-Pad2)*%
X210343750Y-49150000D03*
%TO.P,D44,1*%
%TO.N,ROW1*%
X210343750Y-52450000D03*
%TD*%
%TO.P,D43,2*%
%TO.N,Net-(D43-Pad2)*%
X210343750Y-30100000D03*
%TO.P,D43,1*%
%TO.N,ROW0*%
X210343750Y-33400000D03*
%TD*%
%TO.P,D42,2*%
%TO.N,Net-(D42-Pad2)*%
X191293750Y-87250000D03*
%TO.P,D42,1*%
%TO.N,ROW3*%
X191293750Y-90550000D03*
%TD*%
%TO.P,D41,2*%
%TO.N,Net-(D41-Pad2)*%
X191293750Y-68200000D03*
%TO.P,D41,1*%
%TO.N,ROW2*%
X191293750Y-71500000D03*
%TD*%
%TO.P,D40,2*%
%TO.N,Net-(D40-Pad2)*%
X191293750Y-49150000D03*
%TO.P,D40,1*%
%TO.N,ROW1*%
X191293750Y-52450000D03*
%TD*%
%TO.P,D39,2*%
%TO.N,Net-(D39-Pad2)*%
X191293750Y-30100000D03*
%TO.P,D39,1*%
%TO.N,ROW0*%
X191293750Y-33400000D03*
%TD*%
%TO.P,D38,2*%
%TO.N,Net-(D38-Pad2)*%
X181768750Y-104712500D03*
%TO.P,D38,1*%
%TO.N,ROW4*%
X181768750Y-108012500D03*
%TD*%
%TO.P,D37,2*%
%TO.N,Net-(D37-Pad2)*%
X172243750Y-87250000D03*
%TO.P,D37,1*%
%TO.N,ROW3*%
X172243750Y-90550000D03*
%TD*%
%TO.P,D36,2*%
%TO.N,Net-(D36-Pad2)*%
X172243750Y-68200000D03*
%TO.P,D36,1*%
%TO.N,ROW2*%
X172243750Y-71500000D03*
%TD*%
%TO.P,D35,2*%
%TO.N,Net-(D35-Pad2)*%
X172243750Y-49150000D03*
%TO.P,D35,1*%
%TO.N,ROW1*%
X172243750Y-52450000D03*
%TD*%
%TO.P,D34,2*%
%TO.N,Net-(D34-Pad2)*%
X172243750Y-30100000D03*
%TO.P,D34,1*%
%TO.N,ROW0*%
X172243750Y-33400000D03*
%TD*%
%TO.P,D33,2*%
%TO.N,Net-(D33-Pad2)*%
X162718750Y-106300000D03*
%TO.P,D33,1*%
%TO.N,ROW4*%
X162718750Y-109600000D03*
%TD*%
%TO.P,D32,2*%
%TO.N,Net-(D32-Pad2)*%
X153193750Y-87250000D03*
%TO.P,D32,1*%
%TO.N,ROW3*%
X153193750Y-90550000D03*
%TD*%
%TO.P,D31,2*%
%TO.N,Net-(D31-Pad2)*%
X153193750Y-68200000D03*
%TO.P,D31,1*%
%TO.N,ROW2*%
X153193750Y-71500000D03*
%TD*%
%TO.P,D30,2*%
%TO.N,Net-(D30-Pad2)*%
X153193750Y-49150000D03*
%TO.P,D30,1*%
%TO.N,ROW1*%
X153193750Y-52450000D03*
%TD*%
%TO.P,D29,2*%
%TO.N,Net-(D29-Pad2)*%
X153193750Y-30100000D03*
%TO.P,D29,1*%
%TO.N,ROW0*%
X153193750Y-33400000D03*
%TD*%
%TO.P,D28,2*%
%TO.N,Net-(D28-Pad2)*%
X138906250Y-106300000D03*
%TO.P,D28,1*%
%TO.N,ROW4*%
X138906250Y-109600000D03*
%TD*%
D24*
%TO.P,D27,2*%
%TO.N,Net-(D27-Pad2)*%
X127856250Y-96043750D03*
%TO.P,D27,1*%
%TO.N,ROW3*%
X124556250Y-96043750D03*
%TD*%
%TO.P,D26,2*%
%TO.N,Net-(D26-Pad2)*%
X127856250Y-76993750D03*
%TO.P,D26,1*%
%TO.N,ROW2*%
X124556250Y-76993750D03*
%TD*%
%TO.P,D25,2*%
%TO.N,Net-(D25-Pad2)*%
X127856250Y-57943750D03*
%TO.P,D25,1*%
%TO.N,ROW1*%
X124556250Y-57943750D03*
%TD*%
%TO.P,D24,2*%
%TO.N,Net-(D24-Pad2)*%
X127856250Y-38893750D03*
%TO.P,D24,1*%
%TO.N,ROW0*%
X124556250Y-38893750D03*
%TD*%
%TO.P,C8,1*%
%TO.N,+5V*%
%TA.AperFunction,SMDPad,CuDef*%
G36*
G01*
X187807000Y-96680000D02*
X187807000Y-97630000D01*
G75*
G02*
X187557000Y-97880000I-250000J0D01*
G01*
X186882000Y-97880000D01*
G75*
G02*
X186632000Y-97630000I0J250000D01*
G01*
X186632000Y-96680000D01*
G75*
G02*
X186882000Y-96430000I250000J0D01*
G01*
X187557000Y-96430000D01*
G75*
G02*
X187807000Y-96680000I0J-250000D01*
G01*
G37*
%TD.AperFunction*%
%TO.P,C8,2*%
%TO.N,GND*%
%TA.AperFunction,SMDPad,CuDef*%
G36*
G01*
X185732000Y-96680000D02*
X185732000Y-97630000D01*
G75*
G02*
X185482000Y-97880000I-250000J0D01*
G01*
X184807000Y-97880000D01*
G75*
G02*
X184557000Y-97630000I0J250000D01*
G01*
X184557000Y-96680000D01*
G75*
G02*
X184807000Y-96430000I250000J0D01*
G01*
X185482000Y-96430000D01*
G75*
G02*
X185732000Y-96680000I0J-250000D01*
G01*
G37*
%TD.AperFunction*%
%TD*%
%TO.P,C7,1*%
%TO.N,+5V*%
%TA.AperFunction,SMDPad,CuDef*%
G36*
G01*
X185260000Y-110972000D02*
X184310000Y-110972000D01*
G75*
G02*
X184060000Y-110722000I0J250000D01*
G01*
X184060000Y-110047000D01*
G75*
G02*
X184310000Y-109797000I250000J0D01*
G01*
X185260000Y-109797000D01*
G75*
G02*
X185510000Y-110047000I0J-250000D01*
G01*
X185510000Y-110722000D01*
G75*
G02*
X185260000Y-110972000I-250000J0D01*
G01*
G37*
%TD.AperFunction*%
%TO.P,C7,2*%
%TO.N,GND*%
%TA.AperFunction,SMDPad,CuDef*%
G36*
G01*
X185260000Y-108897000D02*
X184310000Y-108897000D01*
G75*
G02*
X184060000Y-108647000I0J250000D01*
G01*
X184060000Y-107972000D01*
G75*
G02*
X184310000Y-107722000I250000J0D01*
G01*
X185260000Y-107722000D01*
G75*
G02*
X185510000Y-107972000I0J-250000D01*
G01*
X185510000Y-108647000D01*
G75*
G02*
X185260000Y-108897000I-250000J0D01*
G01*
G37*
%TD.AperFunction*%
%TD*%
%TO.P,C6,1*%
%TO.N,+5V*%
%TA.AperFunction,SMDPad,CuDef*%
G36*
G01*
X202471000Y-98705000D02*
X203421000Y-98705000D01*
G75*
G02*
X203671000Y-98955000I0J-250000D01*
G01*
X203671000Y-99630000D01*
G75*
G02*
X203421000Y-99880000I-250000J0D01*
G01*
X202471000Y-99880000D01*
G75*
G02*
X202221000Y-99630000I0J250000D01*
G01*
X202221000Y-98955000D01*
G75*
G02*
X202471000Y-98705000I250000J0D01*
G01*
G37*
%TD.AperFunction*%
%TO.P,C6,2*%
%TO.N,GND*%
%TA.AperFunction,SMDPad,CuDef*%
G36*
G01*
X202471000Y-100780000D02*
X203421000Y-100780000D01*
G75*
G02*
X203671000Y-101030000I0J-250000D01*
G01*
X203671000Y-101705000D01*
G75*
G02*
X203421000Y-101955000I-250000J0D01*
G01*
X202471000Y-101955000D01*
G75*
G02*
X202221000Y-101705000I0J250000D01*
G01*
X202221000Y-101030000D01*
G75*
G02*
X202471000Y-100780000I250000J0D01*
G01*
G37*
%TD.AperFunction*%
%TD*%
%TO.P,C5,1*%
%TO.N,+5V*%
%TA.AperFunction,SMDPad,CuDef*%
G36*
G01*
X196951000Y-96553000D02*
X196951000Y-97503000D01*
G75*
G02*
X196701000Y-97753000I-250000J0D01*
G01*
X196026000Y-97753000D01*
G75*
G02*
X195776000Y-97503000I0J250000D01*
G01*
X195776000Y-96553000D01*
G75*
G02*
X196026000Y-96303000I250000J0D01*
G01*
X196701000Y-96303000D01*
G75*
G02*
X196951000Y-96553000I0J-250000D01*
G01*
G37*
%TD.AperFunction*%
%TO.P,C5,2*%
%TO.N,GND*%
%TA.AperFunction,SMDPad,CuDef*%
G36*
G01*
X194876000Y-96553000D02*
X194876000Y-97503000D01*
G75*
G02*
X194626000Y-97753000I-250000J0D01*
G01*
X193951000Y-97753000D01*
G75*
G02*
X193701000Y-97503000I0J250000D01*
G01*
X193701000Y-96553000D01*
G75*
G02*
X193951000Y-96303000I250000J0D01*
G01*
X194626000Y-96303000D01*
G75*
G02*
X194876000Y-96553000I0J-250000D01*
G01*
G37*
%TD.AperFunction*%
%TD*%
%TO.P,C4,1*%
%TO.N,Net-(C4-Pad1)*%
%TA.AperFunction,SMDPad,CuDef*%
G36*
G01*
X193701000Y-95344000D02*
X193701000Y-94394000D01*
G75*
G02*
X193951000Y-94144000I250000J0D01*
G01*
X194626000Y-94144000D01*
G75*
G02*
X194876000Y-94394000I0J-250000D01*
G01*
X194876000Y-95344000D01*
G75*
G02*
X194626000Y-95594000I-250000J0D01*
G01*
X193951000Y-95594000D01*
G75*
G02*
X193701000Y-95344000I0J250000D01*
G01*
G37*
%TD.AperFunction*%
%TO.P,C4,2*%
%TO.N,GND*%
%TA.AperFunction,SMDPad,CuDef*%
G36*
G01*
X195776000Y-95344000D02*
X195776000Y-94394000D01*
G75*
G02*
X196026000Y-94144000I250000J0D01*
G01*
X196701000Y-94144000D01*
G75*
G02*
X196951000Y-94394000I0J-250000D01*
G01*
X196951000Y-95344000D01*
G75*
G02*
X196701000Y-95594000I-250000J0D01*
G01*
X196026000Y-95594000D01*
G75*
G02*
X195776000Y-95344000I0J250000D01*
G01*
G37*
%TD.AperFunction*%
%TD*%
%TO.P,C3,1*%
%TO.N,+5V*%
%TA.AperFunction,SMDPad,CuDef*%
G36*
G01*
X196622000Y-113378000D02*
X196622000Y-112428000D01*
G75*
G02*
X196872000Y-112178000I250000J0D01*
G01*
X197547000Y-112178000D01*
G75*
G02*
X197797000Y-112428000I0J-250000D01*
G01*
X197797000Y-113378000D01*
G75*
G02*
X197547000Y-113628000I-250000J0D01*
G01*
X196872000Y-113628000D01*
G75*
G02*
X196622000Y-113378000I0J250000D01*
G01*
G37*
%TD.AperFunction*%
%TO.P,C3,2*%
%TO.N,GND*%
%TA.AperFunction,SMDPad,CuDef*%
G36*
G01*
X198697000Y-113378000D02*
X198697000Y-112428000D01*
G75*
G02*
X198947000Y-112178000I250000J0D01*
G01*
X199622000Y-112178000D01*
G75*
G02*
X199872000Y-112428000I0J-250000D01*
G01*
X199872000Y-113378000D01*
G75*
G02*
X199622000Y-113628000I-250000J0D01*
G01*
X198947000Y-113628000D01*
G75*
G02*
X198697000Y-113378000I0J250000D01*
G01*
G37*
%TD.AperFunction*%
%TD*%
%TO.P,C2,1*%
%TO.N,Net-(C2-Pad1)*%
%TA.AperFunction,SMDPad,CuDef*%
G36*
G01*
X206909000Y-104234000D02*
X206909000Y-103284000D01*
G75*
G02*
X207159000Y-103034000I250000J0D01*
G01*
X207834000Y-103034000D01*
G75*
G02*
X208084000Y-103284000I0J-250000D01*
G01*
X208084000Y-104234000D01*
G75*
G02*
X207834000Y-104484000I-250000J0D01*
G01*
X207159000Y-104484000D01*
G75*
G02*
X206909000Y-104234000I0J250000D01*
G01*
G37*
%TD.AperFunction*%
%TO.P,C2,2*%
%TO.N,GND*%
%TA.AperFunction,SMDPad,CuDef*%
G36*
G01*
X208984000Y-104234000D02*
X208984000Y-103284000D01*
G75*
G02*
X209234000Y-103034000I250000J0D01*
G01*
X209909000Y-103034000D01*
G75*
G02*
X210159000Y-103284000I0J-250000D01*
G01*
X210159000Y-104234000D01*
G75*
G02*
X209909000Y-104484000I-250000J0D01*
G01*
X209234000Y-104484000D01*
G75*
G02*
X208984000Y-104234000I0J250000D01*
G01*
G37*
%TD.AperFunction*%
%TD*%
%TO.P,C1,1*%
%TO.N,Net-(C1-Pad1)*%
%TA.AperFunction,SMDPad,CuDef*%
G36*
G01*
X206909000Y-107155000D02*
X206909000Y-106205000D01*
G75*
G02*
X207159000Y-105955000I250000J0D01*
G01*
X207834000Y-105955000D01*
G75*
G02*
X208084000Y-106205000I0J-250000D01*
G01*
X208084000Y-107155000D01*
G75*
G02*
X207834000Y-107405000I-250000J0D01*
G01*
X207159000Y-107405000D01*
G75*
G02*
X206909000Y-107155000I0J250000D01*
G01*
G37*
%TD.AperFunction*%
%TO.P,C1,2*%
%TO.N,GND*%
%TA.AperFunction,SMDPad,CuDef*%
G36*
G01*
X208984000Y-107155000D02*
X208984000Y-106205000D01*
G75*
G02*
X209234000Y-105955000I250000J0D01*
G01*
X209909000Y-105955000D01*
G75*
G02*
X210159000Y-106205000I0J-250000D01*
G01*
X210159000Y-107155000D01*
G75*
G02*
X209909000Y-107405000I-250000J0D01*
G01*
X209234000Y-107405000D01*
G75*
G02*
X208984000Y-107155000I0J250000D01*
G01*
G37*
%TD.AperFunction*%
%TD*%
D25*
%TO.N,GND*%
X185166000Y-94234000D03*
X192913000Y-92837000D03*
X133985000Y-42799000D03*
X140462000Y-42799000D03*
%TO.N,+5V*%
X181483000Y-95250000D03*
X187198000Y-95250000D03*
X200787000Y-95377000D03*
X196723000Y-114681000D03*
X183388000Y-110490000D03*
X197739000Y-95377000D03*
%TO.N,ROW0*%
X172243750Y-34925000D03*
X178593750Y-96837500D03*
X140493750Y-34925000D03*
X130175000Y-39687500D03*
%TO.N,ROW1*%
X172243750Y-53975000D03*
X178560436Y-97836946D03*
X140493750Y-53975000D03*
X129247999Y-58870751D03*
%TO.N,ROW2*%
X172243750Y-73025000D03*
X178547176Y-98851820D03*
X140493750Y-73025000D03*
X129381250Y-78581250D03*
%TO.N,ROW3*%
X178541821Y-99874600D03*
X172243750Y-91785000D03*
X151003000Y-90551000D03*
X151003000Y-99695000D03*
%TO.N,VCC*%
X139319000Y-26924000D03*
X132080000Y-26924000D03*
%TO.N,COL5*%
X127793750Y-111125000D03*
%TO.N,COL6*%
X151606250Y-111125000D03*
%TO.N,COL7*%
X170656250Y-111125000D03*
%TO.N,COL8*%
X176403000Y-110998000D03*
%TO.N,COL9*%
X199009000Y-93726000D03*
%TD*%
D26*
%TO.N,GND*%
X205366000Y-106606000D02*
X206689000Y-105283000D01*
X206689000Y-105283000D02*
X208407000Y-105283000D01*
X209571500Y-106447500D02*
X208407000Y-105283000D01*
X209571500Y-106680000D02*
X209571500Y-106447500D01*
X209571500Y-104118500D02*
X208407000Y-105283000D01*
X209571500Y-103759000D02*
X209571500Y-104118500D01*
X202946000Y-101367500D02*
X201492632Y-101367500D01*
X199431132Y-103429000D02*
X198359000Y-103429000D01*
X201492632Y-101367500D02*
X199431132Y-103429000D01*
X203066000Y-104058902D02*
X203066000Y-103706000D01*
X205366000Y-106358902D02*
X203066000Y-104058902D01*
X205366000Y-106606000D02*
X205366000Y-106358902D01*
X185828000Y-101829000D02*
X186959000Y-101829000D01*
X185144500Y-101145500D02*
X185828000Y-101829000D01*
X185144500Y-97155000D02*
X185144500Y-101145500D01*
X191859000Y-100460000D02*
X191859000Y-99329000D01*
X190490000Y-101829000D02*
X191859000Y-100460000D01*
X186959000Y-101829000D02*
X190490000Y-101829000D01*
X197282000Y-103429000D02*
X198359000Y-103429000D01*
X195682000Y-101829000D02*
X197282000Y-103429000D01*
X190490000Y-101829000D02*
X195682000Y-101829000D01*
X196659000Y-107998000D02*
X196659000Y-110729000D01*
X190490000Y-101829000D02*
X196659000Y-107998000D01*
X187886902Y-108229000D02*
X186959000Y-108229000D01*
X190490000Y-105625902D02*
X187886902Y-108229000D01*
X190490000Y-101829000D02*
X190490000Y-105625902D01*
X197110500Y-110729000D02*
X196659000Y-110729000D01*
X199284500Y-112903000D02*
X197110500Y-110729000D01*
X185144500Y-94255500D02*
X185166000Y-94234000D01*
X185144500Y-97155000D02*
X185144500Y-94255500D01*
X194331500Y-92837000D02*
X196363500Y-94869000D01*
X192913000Y-92837000D02*
X194331500Y-92837000D01*
X196363500Y-94953000D02*
X194288500Y-97028000D01*
X196363500Y-94869000D02*
X196363500Y-94953000D01*
X210237000Y-96465000D02*
X204037000Y-96465000D01*
X204037000Y-96465000D02*
X204037000Y-96468000D01*
X204470000Y-99843500D02*
X202946000Y-101367500D01*
X204470000Y-96901000D02*
X204470000Y-99843500D01*
X204037000Y-96468000D02*
X204470000Y-96901000D01*
X207180000Y-101367500D02*
X202946000Y-101367500D01*
X209571500Y-103759000D02*
X207180000Y-101367500D01*
X179848000Y-111252000D02*
X179848000Y-111236000D01*
X184865500Y-108229000D02*
X184785000Y-108309500D01*
X186959000Y-108229000D02*
X184865500Y-108229000D01*
X179848000Y-110998000D02*
X181372000Y-109474000D01*
X183620500Y-109474000D02*
X184785000Y-108309500D01*
X181372000Y-109474000D02*
X183620500Y-109474000D01*
X209571500Y-113326000D02*
X209571500Y-106680000D01*
X208121250Y-114776250D02*
X209571500Y-113326000D01*
X140958000Y-40525000D02*
X138763250Y-40525000D01*
X142494000Y-38989000D02*
X140958000Y-40525000D01*
X144145000Y-22733000D02*
X144145000Y-24384000D01*
X144145000Y-24384000D02*
X143383000Y-25146000D01*
X140032250Y-25146000D02*
X138956250Y-24070000D01*
X143383000Y-25146000D02*
X140032250Y-25146000D01*
X142494000Y-38989000D02*
X142494000Y-38227000D01*
X139703249Y-35436249D02*
X139703249Y-34540751D01*
X142494000Y-38227000D02*
X139703249Y-35436249D01*
X142871849Y-31372151D02*
X142871849Y-29848151D01*
X139703249Y-34540751D02*
X142871849Y-31372151D01*
X142871849Y-29848151D02*
X145542000Y-27178000D01*
X145542000Y-24130000D02*
X144145000Y-22733000D01*
X145542000Y-27178000D02*
X145542000Y-24130000D01*
X131750000Y-37846000D02*
X131064000Y-38532000D01*
X132350000Y-37846000D02*
X131750000Y-37846000D01*
X131986930Y-42799000D02*
X133985000Y-42799000D01*
X131064000Y-41876070D02*
X131986930Y-42799000D01*
X131064000Y-38532000D02*
X131064000Y-41876070D01*
X140462000Y-41021000D02*
X140958000Y-40525000D01*
X140462000Y-42799000D02*
X140462000Y-41021000D01*
X132506250Y-24070000D02*
X132506250Y-25327808D01*
X131289499Y-26544559D02*
X131289499Y-27276499D01*
X132506250Y-25327808D02*
X131289499Y-26544559D01*
X132551751Y-37644249D02*
X132350000Y-37846000D01*
X132551751Y-28538751D02*
X132551751Y-37644249D01*
X131289499Y-27276499D02*
X132551751Y-28538751D01*
X133985000Y-44957078D02*
X133985000Y-42799000D01*
X133137260Y-45804818D02*
X133985000Y-44957078D01*
X133137260Y-88500588D02*
X133137260Y-45804818D01*
X141210662Y-96573990D02*
X133137260Y-88500588D01*
X176289338Y-96573990D02*
X141210662Y-96573990D01*
X178629328Y-94234000D02*
X176289338Y-96573990D01*
X185166000Y-94234000D02*
X178629328Y-94234000D01*
%TO.N,+5V*%
X199409460Y-102629000D02*
X198359000Y-102629000D01*
X202745960Y-99292500D02*
X199409460Y-102629000D01*
X202946000Y-99292500D02*
X202745960Y-99292500D01*
X189459000Y-98401098D02*
X189459000Y-99329000D01*
X188212902Y-97155000D02*
X189459000Y-98401098D01*
X187219500Y-97155000D02*
X188212902Y-97155000D01*
X186959000Y-97415500D02*
X187219500Y-97155000D01*
X186959000Y-101029000D02*
X186959000Y-97415500D01*
X195859000Y-111552500D02*
X195859000Y-110729000D01*
X197209500Y-112903000D02*
X195859000Y-111552500D01*
X187198000Y-97133500D02*
X187219500Y-97155000D01*
X187198000Y-95250000D02*
X187198000Y-97133500D01*
X193459000Y-98198000D02*
X193459000Y-99329000D01*
X193513490Y-98143510D02*
X193459000Y-98198000D01*
X195247990Y-98143510D02*
X193513490Y-98143510D01*
X196363500Y-97028000D02*
X195247990Y-98143510D01*
X200935500Y-97282000D02*
X202946000Y-99292500D01*
X200898000Y-97282000D02*
X200935500Y-97282000D01*
X196363500Y-97028000D02*
X196363500Y-96879500D01*
X200898000Y-95488000D02*
X200787000Y-95377000D01*
X200898000Y-97282000D02*
X200898000Y-95488000D01*
X197209500Y-114194500D02*
X196723000Y-114681000D01*
X197209500Y-112903000D02*
X197209500Y-114194500D01*
X184679500Y-110490000D02*
X184785000Y-110384500D01*
X183388000Y-110490000D02*
X184679500Y-110490000D01*
X185603500Y-110384500D02*
X186959000Y-109029000D01*
X184785000Y-110384500D02*
X185603500Y-110384500D01*
X196363500Y-96752500D02*
X197739000Y-95377000D01*
X196363500Y-97028000D02*
X196363500Y-96752500D01*
X178435000Y-95250000D02*
X181483000Y-95250000D01*
X176530000Y-97155000D02*
X178435000Y-95250000D01*
X140970000Y-97155000D02*
X176530000Y-97155000D01*
X132556250Y-88741250D02*
X140970000Y-97155000D01*
X132556250Y-44350000D02*
X132556250Y-88741250D01*
D27*
%TO.N,Net-(C4-Pad1)*%
X192659000Y-98044000D02*
X192659000Y-99329000D01*
X192856999Y-97846001D02*
X192659000Y-98044000D01*
X192856999Y-96300501D02*
X192856999Y-97846001D01*
X194288500Y-94869000D02*
X192856999Y-96300501D01*
%TO.N,ROW0*%
X172243750Y-33400000D02*
X172243750Y-34925000D01*
X185985250Y-104229000D02*
X186959000Y-104229000D01*
X178593750Y-96837500D02*
X185985250Y-104229000D01*
X210343750Y-33400000D02*
X153193750Y-33400000D01*
X151668750Y-34925000D02*
X153193750Y-33400000D01*
X140493750Y-34925000D02*
X151668750Y-34925000D01*
X130041749Y-39820751D02*
X130175000Y-39687500D01*
X125483251Y-39820751D02*
X130041749Y-39820751D01*
X124556250Y-38893750D02*
X125483251Y-39820751D01*
X117540000Y-26924000D02*
X119924249Y-29308249D01*
X124556250Y-36165212D02*
X124556250Y-38893750D01*
X119924249Y-31533211D02*
X124556250Y-36165212D01*
X119924249Y-29308249D02*
X119924249Y-31533211D01*
%TO.N,ROW1*%
X210281250Y-52512500D02*
X210343750Y-52450000D01*
X172243750Y-52450000D02*
X172243750Y-53975000D01*
X185752490Y-105029000D02*
X186959000Y-105029000D01*
X178560436Y-97836946D02*
X185752490Y-105029000D01*
X210343750Y-52450000D02*
X153193750Y-52450000D01*
X151668750Y-53975000D02*
X153193750Y-52450000D01*
X140493750Y-53975000D02*
X151668750Y-53975000D01*
X119736193Y-53123693D02*
X124556250Y-57943750D01*
X119736193Y-31987221D02*
X119736193Y-53123693D01*
X119470239Y-31721268D02*
X119736193Y-31987221D01*
X119470239Y-30886239D02*
X119470239Y-31721268D01*
X117540000Y-28956000D02*
X119470239Y-30886239D01*
X125483251Y-58870751D02*
X129247999Y-58870751D01*
X124556250Y-57943750D02*
X125483251Y-58870751D01*
%TO.N,ROW2*%
X172243750Y-71500000D02*
X172243750Y-73025000D01*
X185524356Y-105829000D02*
X186959000Y-105829000D01*
X178547176Y-98851820D02*
X185524356Y-105829000D01*
X210343750Y-71500000D02*
X153193750Y-71500000D01*
X151668750Y-73025000D02*
X153193750Y-71500000D01*
X140493750Y-73025000D02*
X151668750Y-73025000D01*
X119282183Y-71719683D02*
X124556250Y-76993750D01*
X118094905Y-30988000D02*
X119282183Y-32175278D01*
X119282183Y-32175278D02*
X119282183Y-71719683D01*
X117540000Y-30988000D02*
X118094905Y-30988000D01*
X126143750Y-78581250D02*
X129381250Y-78581250D01*
X124556250Y-76993750D02*
X126143750Y-78581250D01*
%TO.N,ROW3*%
X185296221Y-106629000D02*
X186959000Y-106629000D01*
X210343750Y-90550000D02*
X153193750Y-90550000D01*
X178541821Y-99874600D02*
X185296221Y-106629000D01*
X172243750Y-90550000D02*
X172243750Y-91785000D01*
X118828173Y-34308173D02*
X118828173Y-90315673D01*
X117540000Y-33020000D02*
X118828173Y-34308173D01*
X118828173Y-90315673D02*
X124556250Y-96043750D01*
X124556250Y-96043750D02*
X126937500Y-98425000D01*
X151004000Y-90550000D02*
X151003000Y-90551000D01*
X153193750Y-90550000D02*
X151004000Y-90550000D01*
X128207500Y-99695000D02*
X126937500Y-98425000D01*
X151003000Y-99695000D02*
X128207500Y-99695000D01*
%TO.N,ROW4*%
X180181250Y-109600000D02*
X181768750Y-108012500D01*
X186924990Y-107394990D02*
X186959000Y-107429000D01*
X182386260Y-107394990D02*
X186924990Y-107394990D01*
X181768750Y-108012500D02*
X182386260Y-107394990D01*
X180181250Y-109600000D02*
X138906250Y-109600000D01*
X126553538Y-109600000D02*
X118374163Y-101420625D01*
X138906250Y-109600000D02*
X126553538Y-109600000D01*
X118374163Y-35886163D02*
X117540000Y-35052000D01*
X118374163Y-101420625D02*
X118374163Y-35886163D01*
%TO.N,Net-(D24-Pad2)*%
X128706250Y-38043750D02*
X128706250Y-26456250D01*
X127856250Y-38893750D02*
X128706250Y-38043750D01*
%TO.N,Net-(D25-Pad2)*%
X128706250Y-57093750D02*
X128706250Y-45506250D01*
X127856250Y-57943750D02*
X128706250Y-57093750D01*
%TO.N,Net-(D26-Pad2)*%
X128706250Y-76143750D02*
X127856250Y-76993750D01*
X128706250Y-64556250D02*
X128706250Y-76143750D01*
%TO.N,Net-(D27-Pad2)*%
X128706250Y-95193750D02*
X127856250Y-96043750D01*
X128706250Y-83606250D02*
X128706250Y-95193750D01*
%TO.N,Net-(D28-Pad2)*%
X135262500Y-102656250D02*
X138906250Y-106300000D01*
X133468750Y-102656250D02*
X135262500Y-102656250D01*
%TO.N,Net-(D29-Pad2)*%
X149550000Y-26456250D02*
X153193750Y-30100000D01*
X147756250Y-26456250D02*
X149550000Y-26456250D01*
%TO.N,Net-(D30-Pad2)*%
X149550000Y-45506250D02*
X153193750Y-49150000D01*
X147756250Y-45506250D02*
X149550000Y-45506250D01*
%TO.N,Net-(D31-Pad2)*%
X149550000Y-64556250D02*
X153193750Y-68200000D01*
X147756250Y-64556250D02*
X149550000Y-64556250D01*
%TO.N,Net-(D32-Pad2)*%
X149550000Y-83606250D02*
X153193750Y-87250000D01*
X147756250Y-83606250D02*
X149550000Y-83606250D01*
%TO.N,Net-(D33-Pad2)*%
X159075000Y-102656250D02*
X162718750Y-106300000D01*
X157281250Y-102656250D02*
X159075000Y-102656250D01*
%TO.N,Net-(D34-Pad2)*%
X168600000Y-26456250D02*
X172243750Y-30100000D01*
X166806250Y-26456250D02*
X168600000Y-26456250D01*
%TO.N,Net-(D35-Pad2)*%
X168600000Y-45506250D02*
X172243750Y-49150000D01*
X166806250Y-45506250D02*
X168600000Y-45506250D01*
%TO.N,Net-(D36-Pad2)*%
X168600000Y-64556250D02*
X172243750Y-68200000D01*
X166806250Y-64556250D02*
X168600000Y-64556250D01*
%TO.N,Net-(D37-Pad2)*%
X168600000Y-83606250D02*
X172243750Y-87250000D01*
X166806250Y-83606250D02*
X168600000Y-83606250D01*
%TO.N,Net-(D38-Pad2)*%
X179712500Y-102656250D02*
X181768750Y-104712500D01*
X176331250Y-102656250D02*
X179712500Y-102656250D01*
%TO.N,Net-(D39-Pad2)*%
X187650000Y-26456250D02*
X191293750Y-30100000D01*
X185856250Y-26456250D02*
X187650000Y-26456250D01*
%TO.N,Net-(D40-Pad2)*%
X187650000Y-45506250D02*
X191293750Y-49150000D01*
X185856250Y-45506250D02*
X187650000Y-45506250D01*
%TO.N,Net-(D41-Pad2)*%
X187650000Y-64556250D02*
X191293750Y-68200000D01*
X185856250Y-64556250D02*
X187650000Y-64556250D01*
%TO.N,Net-(D42-Pad2)*%
X187650000Y-83606250D02*
X191293750Y-87250000D01*
X185856250Y-83606250D02*
X187650000Y-83606250D01*
%TO.N,Net-(D43-Pad2)*%
X206700000Y-26456250D02*
X210343750Y-30100000D01*
X204906250Y-26456250D02*
X206700000Y-26456250D01*
%TO.N,Net-(D44-Pad2)*%
X206700000Y-45506250D02*
X210343750Y-49150000D01*
X204906250Y-45506250D02*
X206700000Y-45506250D01*
%TO.N,Net-(D45-Pad2)*%
X206700000Y-64556250D02*
X210343750Y-68200000D01*
X204906250Y-64556250D02*
X206700000Y-64556250D01*
%TO.N,Net-(D46-Pad2)*%
X206700000Y-83606250D02*
X210343750Y-87250000D01*
X204906250Y-83606250D02*
X206700000Y-83606250D01*
D26*
%TO.N,VCC*%
X132546760Y-41365510D02*
X132556250Y-41375000D01*
X138181250Y-24070000D02*
X138181250Y-25786250D01*
X138181250Y-25786250D02*
X139319000Y-26924000D01*
X133281250Y-25722750D02*
X132080000Y-26924000D01*
X133281250Y-24070000D02*
X133281250Y-25722750D01*
X133359490Y-28203490D02*
X133359490Y-40571760D01*
X133359490Y-40571760D02*
X132556250Y-41375000D01*
X132080000Y-26924000D02*
X133359490Y-28203490D01*
X133606250Y-40325000D02*
X133359490Y-40571760D01*
X136763250Y-40325000D02*
X133606250Y-40325000D01*
D27*
%TO.N,COL0*%
X198916970Y-115662030D02*
X200533000Y-114046000D01*
X200533000Y-111203000D02*
X198359000Y-109029000D01*
X200533000Y-114046000D02*
X200533000Y-111203000D01*
X121952030Y-115662030D02*
X117542000Y-111252000D01*
X198916970Y-115662030D02*
X121952030Y-115662030D01*
%TO.N,COL1*%
X123530020Y-115208020D02*
X117542000Y-109220000D01*
X191393582Y-115208020D02*
X123530020Y-115208020D01*
X195059000Y-111542602D02*
X191393582Y-115208020D01*
X195059000Y-110729000D02*
X195059000Y-111542602D01*
%TO.N,COL2*%
X194259000Y-111542602D02*
X194259000Y-110729000D01*
X191047592Y-114754010D02*
X194259000Y-111542602D01*
X125108010Y-114754010D02*
X117542000Y-107188000D01*
X191047592Y-114754010D02*
X125108010Y-114754010D01*
%TO.N,COL3*%
X193459000Y-111542602D02*
X193459000Y-110729000D01*
X190701602Y-114300000D02*
X193459000Y-111542602D01*
X126686000Y-114300000D02*
X117542000Y-105156000D01*
X190701602Y-114300000D02*
X126686000Y-114300000D01*
%TO.N,COL4*%
X192659000Y-111417134D02*
X190235084Y-113841050D01*
X192659000Y-110729000D02*
X192659000Y-111417134D01*
X128259050Y-113841050D02*
X117542000Y-103124000D01*
X190235084Y-113841050D02*
X128259050Y-113841050D01*
%TO.N,COL5*%
X190047027Y-113387040D02*
X191859000Y-111575067D01*
X191859000Y-111575067D02*
X191859000Y-110729000D01*
X130055790Y-113387040D02*
X190047027Y-113387040D01*
X127793750Y-111125000D02*
X130055790Y-113387040D01*
%TO.N,COL6*%
X191059000Y-111733000D02*
X191059000Y-110729000D01*
X189858970Y-112933030D02*
X191059000Y-111733000D01*
X153414280Y-112933030D02*
X189858970Y-112933030D01*
X151606250Y-111125000D02*
X153414280Y-112933030D01*
%TO.N,COL7*%
X190259000Y-111542602D02*
X190259000Y-110729000D01*
X189322582Y-112479020D02*
X190259000Y-111542602D01*
X172010270Y-112479020D02*
X189322582Y-112479020D01*
X170656250Y-111125000D02*
X172010270Y-112479020D01*
%TO.N,COL8*%
X189459000Y-111542602D02*
X189459000Y-110729000D01*
X188976592Y-112025010D02*
X189459000Y-111542602D01*
X177430010Y-112025010D02*
X188976592Y-112025010D01*
X176403000Y-110998000D02*
X177430010Y-112025010D01*
%TO.N,COL9*%
X199009000Y-93726000D02*
X199009000Y-95377000D01*
X199009000Y-95377000D02*
X197612000Y-96774000D01*
X197612000Y-98376000D02*
X196659000Y-99329000D01*
X197612000Y-96774000D02*
X197612000Y-98376000D01*
%TO.N,D-*%
X189611000Y-96758000D02*
X189611000Y-96774000D01*
D28*
X190259000Y-98203999D02*
X190259000Y-99329000D01*
X190434000Y-98028999D02*
X190259000Y-98203999D01*
X190434000Y-97581000D02*
X190434000Y-98028999D01*
X189611000Y-96758000D02*
X190434000Y-97581000D01*
%TO.N,D+*%
X191059000Y-98203999D02*
X191059000Y-99329000D01*
X190884000Y-98028999D02*
X191059000Y-98203999D01*
X190884000Y-97581000D02*
X190884000Y-98028999D01*
X191707000Y-96758000D02*
X190884000Y-97581000D01*
D27*
%TO.N,Net-(C1-Pad1)*%
X207496500Y-107405000D02*
X206697500Y-108204000D01*
X207496500Y-106680000D02*
X207496500Y-107405000D01*
X203066000Y-107910000D02*
X203066000Y-106606000D01*
X203360000Y-108204000D02*
X203066000Y-107910000D01*
X206697500Y-108204000D02*
X203360000Y-108204000D01*
X201489000Y-105029000D02*
X198359000Y-105029000D01*
X203066000Y-106606000D02*
X201489000Y-105029000D01*
%TO.N,Net-(C2-Pad1)*%
X205419000Y-103759000D02*
X205366000Y-103706000D01*
X207496500Y-103759000D02*
X205419000Y-103759000D01*
X199363000Y-104229000D02*
X198359000Y-104229000D01*
X201309990Y-102282010D02*
X199363000Y-104229000D01*
X204180612Y-102282010D02*
X201309990Y-102282010D01*
X205366000Y-103467398D02*
X204180612Y-102282010D01*
X205366000Y-103706000D02*
X205366000Y-103467398D01*
%TO.N,RST*%
X200825000Y-105829000D02*
X198359000Y-105829000D01*
X202579408Y-108658010D02*
X201676000Y-107754602D01*
X204543010Y-108658010D02*
X202579408Y-108658010D01*
X208121250Y-112236250D02*
X204543010Y-108658010D01*
X201676000Y-106680000D02*
X200825000Y-105829000D01*
X201676000Y-107754602D02*
X201676000Y-106680000D01*
%TO.N,MOSI*%
X199172602Y-108229000D02*
X198359000Y-108229000D01*
X200987010Y-112214010D02*
X200987010Y-110043408D01*
X202372249Y-113599249D02*
X200987010Y-112214010D01*
X200987010Y-110043408D02*
X199172602Y-108229000D01*
X204404249Y-113599249D02*
X202372249Y-113599249D01*
X205581250Y-114776250D02*
X204404249Y-113599249D01*
%TO.N,SCK*%
X199278148Y-106629000D02*
X198359000Y-106629000D01*
X204885398Y-112236250D02*
X199278148Y-106629000D01*
X205581250Y-112236250D02*
X204885398Y-112236250D01*
%TO.N,MISO*%
X199436081Y-107429000D02*
X198359000Y-107429000D01*
X203041250Y-111034169D02*
X199436081Y-107429000D01*
X203041250Y-112236250D02*
X203041250Y-111034169D01*
%TO.N,Net-(R1-Pad2)*%
X199172602Y-101829000D02*
X198359000Y-101829000D01*
X198898000Y-97982000D02*
X199436001Y-98520001D01*
X199436001Y-101565601D02*
X199172602Y-101829000D01*
X199436001Y-98520001D02*
X199436001Y-101565601D01*
X198898000Y-97282000D02*
X198898000Y-97982000D01*
X204037000Y-92765000D02*
X210237000Y-92765000D01*
X198898000Y-97282000D02*
X198898000Y-96758000D01*
X198898000Y-96758000D02*
X199771000Y-95885000D01*
X199771000Y-95885000D02*
X199771000Y-94869000D01*
X199771000Y-94869000D02*
X201875000Y-92765000D01*
X201875000Y-92765000D02*
X204037000Y-92765000D01*
%TO.N,Net-(R2-Pad2)*%
X188659000Y-111315000D02*
X188403000Y-111571000D01*
X188659000Y-110729000D02*
X188659000Y-111315000D01*
X182421000Y-111571000D02*
X181848000Y-110998000D01*
X188403000Y-111571000D02*
X182421000Y-111571000D01*
%TO.N,Net-(R3-Pad1)*%
X140494000Y-37720869D02*
X140494000Y-38989000D01*
X137481250Y-24070000D02*
X137481250Y-26483250D01*
X137481250Y-26483250D02*
X138938000Y-27940000D01*
X138938000Y-27940000D02*
X138938000Y-35402868D01*
X140494000Y-36958868D02*
X140494000Y-37720869D01*
X138938000Y-35402868D02*
X140494000Y-36958868D01*
%TO.N,Net-(R4-Pad1)*%
X134481250Y-24070000D02*
X134481250Y-25919750D01*
X134350000Y-26051000D02*
X134350000Y-37846000D01*
X134481250Y-25919750D02*
X134350000Y-26051000D01*
D28*
%TO.N,DN*%
X190434000Y-93935000D02*
X189611000Y-94758000D01*
X190434000Y-93470200D02*
X190434000Y-93935000D01*
X189898800Y-92935000D02*
X190434000Y-93470200D01*
X189898800Y-92935000D02*
X142623050Y-92935000D01*
X135981250Y-25907501D02*
X135981250Y-24070000D01*
X136006250Y-25932501D02*
X135981250Y-25907501D01*
X137535000Y-36288200D02*
X136006250Y-34759450D01*
X137535000Y-41453250D02*
X137535000Y-36288200D01*
X136763250Y-42225000D02*
X137535000Y-41453250D01*
X134981250Y-26650250D02*
X136006250Y-27675250D01*
X134981250Y-24070000D02*
X134981250Y-26650250D01*
X136006250Y-27675250D02*
X136006250Y-25932501D01*
X136006250Y-34759450D02*
X136006250Y-27675250D01*
X137538250Y-87850200D02*
X142623050Y-92935000D01*
X137538250Y-43525001D02*
X137538250Y-87850200D01*
X136763250Y-42225000D02*
X136763250Y-42750001D01*
X136763250Y-42750001D02*
X137538250Y-43525001D01*
%TO.N,DP*%
X190884000Y-93935000D02*
X191707000Y-94758000D01*
X190884000Y-93283800D02*
X190884000Y-93935000D01*
X190085200Y-92485000D02*
X190884000Y-93283800D01*
X190085200Y-92485000D02*
X142809450Y-92485000D01*
D27*
X135569649Y-22517999D02*
X136392851Y-22517999D01*
X136392851Y-22517999D02*
X136481250Y-22606398D01*
X135481250Y-22606398D02*
X135569649Y-22517999D01*
X136481250Y-22606398D02*
X136481250Y-24070000D01*
X135481250Y-24070000D02*
X135481250Y-22606398D01*
D28*
X137985000Y-41446750D02*
X138763250Y-42225000D01*
X137985000Y-36101800D02*
X137985000Y-41446750D01*
X136456250Y-34573050D02*
X137985000Y-36101800D01*
X136456250Y-25932501D02*
X136456250Y-34573050D01*
X136481250Y-25907501D02*
X136456250Y-25932501D01*
X136481250Y-24070000D02*
X136481250Y-25907501D01*
X137988250Y-87663800D02*
X142809450Y-92485000D01*
X137988250Y-43525001D02*
X137988250Y-87663800D01*
X138763250Y-42750001D02*
X137988250Y-43525001D01*
X138763250Y-42225000D02*
X138763250Y-42750001D01*
D26*
%TO.N,Earth*%
X140051250Y-18475000D02*
X140051250Y-22655000D01*
X131411250Y-18475000D02*
X140051250Y-18475000D01*
X131411250Y-18475000D02*
X131411250Y-22655000D01*
D27*
X140129250Y-22733000D02*
X140051250Y-22655000D01*
X142095000Y-22733000D02*
X140129250Y-22733000D01*
%TD*%
%TO.N,GND*%
X208806463Y-95560506D02*
X208747498Y-95670820D01*
X208711188Y-95790518D01*
X208698928Y-95915000D01*
X208702000Y-96179250D01*
X208860750Y-96338000D01*
X210110000Y-96338000D01*
X210110000Y-96318000D01*
X210364000Y-96318000D01*
X210364000Y-96338000D01*
X210384000Y-96338000D01*
X210384000Y-96592000D01*
X210364000Y-96592000D01*
X210364000Y-97491250D01*
X210522750Y-97650000D01*
X211137000Y-97653072D01*
X211201000Y-97646769D01*
X211201000Y-114747529D01*
X211138448Y-114954712D01*
X210981029Y-115250775D01*
X210769101Y-115510623D01*
X210656088Y-115604116D01*
X209609222Y-115607802D01*
X209606250Y-115062000D01*
X209447500Y-114903250D01*
X208248250Y-114903250D01*
X208248250Y-114923250D01*
X207994250Y-114923250D01*
X207994250Y-114903250D01*
X207974250Y-114903250D01*
X207974250Y-114649250D01*
X207994250Y-114649250D01*
X207994250Y-114629250D01*
X208248250Y-114629250D01*
X208248250Y-114649250D01*
X209447500Y-114649250D01*
X209606250Y-114490500D01*
X209609322Y-113926250D01*
X209597062Y-113801768D01*
X209560752Y-113682070D01*
X209501787Y-113571756D01*
X209422435Y-113475065D01*
X209325744Y-113395713D01*
X209215430Y-113336748D01*
X209142870Y-113314737D01*
X209274725Y-113182882D01*
X209437240Y-112939661D01*
X209549182Y-112669408D01*
X209606250Y-112382510D01*
X209606250Y-112089990D01*
X209549182Y-111803092D01*
X209437240Y-111532839D01*
X209274725Y-111289618D01*
X209067882Y-111082775D01*
X208824661Y-110920260D01*
X208554408Y-110808318D01*
X208267510Y-110751250D01*
X207974990Y-110751250D01*
X207757201Y-110794571D01*
X205928630Y-108966000D01*
X206660077Y-108966000D01*
X206697500Y-108969686D01*
X206734923Y-108966000D01*
X206734926Y-108966000D01*
X206846878Y-108954974D01*
X206990515Y-108911402D01*
X207122892Y-108840645D01*
X207238922Y-108745422D01*
X207262784Y-108716346D01*
X207947208Y-108031922D01*
X208007254Y-108026008D01*
X208173850Y-107975472D01*
X208327386Y-107893405D01*
X208461962Y-107782962D01*
X208467342Y-107776406D01*
X208532815Y-107856185D01*
X208629506Y-107935537D01*
X208739820Y-107994502D01*
X208859518Y-108030812D01*
X208984000Y-108043072D01*
X209285750Y-108040000D01*
X209444500Y-107881250D01*
X209444500Y-106807000D01*
X209698500Y-106807000D01*
X209698500Y-107881250D01*
X209857250Y-108040000D01*
X210159000Y-108043072D01*
X210283482Y-108030812D01*
X210403180Y-107994502D01*
X210513494Y-107935537D01*
X210610185Y-107856185D01*
X210689537Y-107759494D01*
X210748502Y-107649180D01*
X210784812Y-107529482D01*
X210797072Y-107405000D01*
X210794000Y-106965750D01*
X210635250Y-106807000D01*
X209698500Y-106807000D01*
X209444500Y-106807000D01*
X209424500Y-106807000D01*
X209424500Y-106553000D01*
X209444500Y-106553000D01*
X209444500Y-105478750D01*
X209698500Y-105478750D01*
X209698500Y-106553000D01*
X210635250Y-106553000D01*
X210794000Y-106394250D01*
X210797072Y-105955000D01*
X210784812Y-105830518D01*
X210748502Y-105710820D01*
X210689537Y-105600506D01*
X210610185Y-105503815D01*
X210513494Y-105424463D01*
X210403180Y-105365498D01*
X210283482Y-105329188D01*
X210159000Y-105316928D01*
X209857250Y-105320000D01*
X209698500Y-105478750D01*
X209444500Y-105478750D01*
X209285750Y-105320000D01*
X208984000Y-105316928D01*
X208859518Y-105329188D01*
X208739820Y-105365498D01*
X208629506Y-105424463D01*
X208532815Y-105503815D01*
X208467342Y-105583594D01*
X208461962Y-105577038D01*
X208327386Y-105466595D01*
X208173850Y-105384528D01*
X208007254Y-105333992D01*
X207834000Y-105316928D01*
X207159000Y-105316928D01*
X206985746Y-105333992D01*
X206872636Y-105368303D01*
X206855502Y-105311820D01*
X206796537Y-105201506D01*
X206759191Y-105156000D01*
X206796537Y-105110494D01*
X206825459Y-105056386D01*
X206985746Y-105105008D01*
X207159000Y-105122072D01*
X207834000Y-105122072D01*
X208007254Y-105105008D01*
X208173850Y-105054472D01*
X208327386Y-104972405D01*
X208461962Y-104861962D01*
X208467342Y-104855406D01*
X208532815Y-104935185D01*
X208629506Y-105014537D01*
X208739820Y-105073502D01*
X208859518Y-105109812D01*
X208984000Y-105122072D01*
X209285750Y-105119000D01*
X209444500Y-104960250D01*
X209444500Y-103886000D01*
X209698500Y-103886000D01*
X209698500Y-104960250D01*
X209857250Y-105119000D01*
X210159000Y-105122072D01*
X210283482Y-105109812D01*
X210403180Y-105073502D01*
X210513494Y-105014537D01*
X210610185Y-104935185D01*
X210689537Y-104838494D01*
X210748502Y-104728180D01*
X210784812Y-104608482D01*
X210797072Y-104484000D01*
X210794000Y-104044750D01*
X210635250Y-103886000D01*
X209698500Y-103886000D01*
X209444500Y-103886000D01*
X209424500Y-103886000D01*
X209424500Y-103632000D01*
X209444500Y-103632000D01*
X209444500Y-102557750D01*
X209698500Y-102557750D01*
X209698500Y-103632000D01*
X210635250Y-103632000D01*
X210794000Y-103473250D01*
X210797072Y-103034000D01*
X210784812Y-102909518D01*
X210748502Y-102789820D01*
X210689537Y-102679506D01*
X210610185Y-102582815D01*
X210513494Y-102503463D01*
X210403180Y-102444498D01*
X210283482Y-102408188D01*
X210159000Y-102395928D01*
X209857250Y-102399000D01*
X209698500Y-102557750D01*
X209444500Y-102557750D01*
X209285750Y-102399000D01*
X208984000Y-102395928D01*
X208859518Y-102408188D01*
X208739820Y-102444498D01*
X208629506Y-102503463D01*
X208532815Y-102582815D01*
X208467342Y-102662594D01*
X208461962Y-102656038D01*
X208327386Y-102545595D01*
X208173850Y-102463528D01*
X208007254Y-102412992D01*
X207834000Y-102395928D01*
X207159000Y-102395928D01*
X206985746Y-102412992D01*
X206866803Y-102449073D01*
X206855502Y-102411820D01*
X206796537Y-102301506D01*
X206717185Y-102204815D01*
X206620494Y-102125463D01*
X206510180Y-102066498D01*
X206390482Y-102030188D01*
X206266000Y-102017928D01*
X204994160Y-102017928D01*
X204745896Y-101769664D01*
X204722034Y-101740588D01*
X204606004Y-101645365D01*
X204473627Y-101574608D01*
X204329990Y-101531036D01*
X204218038Y-101520010D01*
X204218035Y-101520010D01*
X204180612Y-101516324D01*
X204170109Y-101517359D01*
X204147250Y-101494500D01*
X203073000Y-101494500D01*
X203073000Y-101514500D01*
X202819000Y-101514500D01*
X202819000Y-101494500D01*
X202799000Y-101494500D01*
X202799000Y-101240500D01*
X202819000Y-101240500D01*
X202819000Y-101220500D01*
X203073000Y-101220500D01*
X203073000Y-101240500D01*
X204147250Y-101240500D01*
X204306000Y-101081750D01*
X204309072Y-100780000D01*
X204296812Y-100655518D01*
X204260502Y-100535820D01*
X204201537Y-100425506D01*
X204122185Y-100328815D01*
X204042406Y-100263342D01*
X204048962Y-100257962D01*
X204159405Y-100123386D01*
X204241472Y-99969850D01*
X204292008Y-99803254D01*
X204309072Y-99630000D01*
X204309072Y-98955000D01*
X204292008Y-98781746D01*
X204241472Y-98615150D01*
X204159405Y-98461614D01*
X204048962Y-98327038D01*
X203914386Y-98216595D01*
X203760850Y-98134528D01*
X203594254Y-98083992D01*
X203421000Y-98066928D01*
X202887861Y-98066928D01*
X202136072Y-97315140D01*
X202136072Y-97015000D01*
X202498928Y-97015000D01*
X202511188Y-97139482D01*
X202547498Y-97259180D01*
X202606463Y-97369494D01*
X202685815Y-97466185D01*
X202782506Y-97545537D01*
X202892820Y-97604502D01*
X203012518Y-97640812D01*
X203137000Y-97653072D01*
X203751250Y-97650000D01*
X203910000Y-97491250D01*
X203910000Y-96592000D01*
X204164000Y-96592000D01*
X204164000Y-97491250D01*
X204322750Y-97650000D01*
X204937000Y-97653072D01*
X205061482Y-97640812D01*
X205181180Y-97604502D01*
X205291494Y-97545537D01*
X205388185Y-97466185D01*
X205467537Y-97369494D01*
X205526502Y-97259180D01*
X205562812Y-97139482D01*
X205575072Y-97015000D01*
X208698928Y-97015000D01*
X208711188Y-97139482D01*
X208747498Y-97259180D01*
X208806463Y-97369494D01*
X208885815Y-97466185D01*
X208982506Y-97545537D01*
X209092820Y-97604502D01*
X209212518Y-97640812D01*
X209337000Y-97653072D01*
X209951250Y-97650000D01*
X210110000Y-97491250D01*
X210110000Y-96592000D01*
X208860750Y-96592000D01*
X208702000Y-96750750D01*
X208698928Y-97015000D01*
X205575072Y-97015000D01*
X205572000Y-96750750D01*
X205413250Y-96592000D01*
X204164000Y-96592000D01*
X203910000Y-96592000D01*
X202660750Y-96592000D01*
X202502000Y-96750750D01*
X202498928Y-97015000D01*
X202136072Y-97015000D01*
X202136072Y-96831999D01*
X202119008Y-96658745D01*
X202068472Y-96492149D01*
X201986405Y-96338613D01*
X201875962Y-96204038D01*
X201741387Y-96093595D01*
X201723500Y-96084034D01*
X201723500Y-95820674D01*
X201782226Y-95678898D01*
X201797849Y-95600355D01*
X202590860Y-95589697D01*
X202547498Y-95670820D01*
X202511188Y-95790518D01*
X202498928Y-95915000D01*
X202502000Y-96179250D01*
X202660750Y-96338000D01*
X203910000Y-96338000D01*
X203910000Y-96318000D01*
X204164000Y-96318000D01*
X204164000Y-96338000D01*
X205413250Y-96338000D01*
X205572000Y-96179250D01*
X205575072Y-95915000D01*
X205562812Y-95790518D01*
X205526502Y-95670820D01*
X205467537Y-95560506D01*
X205459846Y-95551135D01*
X208851566Y-95505547D01*
X208806463Y-95560506D01*
%TA.AperFunction,Conductor*%
D29*
G36*
X208806463Y-95560506D02*
G01*
X208747498Y-95670820D01*
X208711188Y-95790518D01*
X208698928Y-95915000D01*
X208702000Y-96179250D01*
X208860750Y-96338000D01*
X210110000Y-96338000D01*
X210110000Y-96318000D01*
X210364000Y-96318000D01*
X210364000Y-96338000D01*
X210384000Y-96338000D01*
X210384000Y-96592000D01*
X210364000Y-96592000D01*
X210364000Y-97491250D01*
X210522750Y-97650000D01*
X211137000Y-97653072D01*
X211201000Y-97646769D01*
X211201000Y-114747529D01*
X211138448Y-114954712D01*
X210981029Y-115250775D01*
X210769101Y-115510623D01*
X210656088Y-115604116D01*
X209609222Y-115607802D01*
X209606250Y-115062000D01*
X209447500Y-114903250D01*
X208248250Y-114903250D01*
X208248250Y-114923250D01*
X207994250Y-114923250D01*
X207994250Y-114903250D01*
X207974250Y-114903250D01*
X207974250Y-114649250D01*
X207994250Y-114649250D01*
X207994250Y-114629250D01*
X208248250Y-114629250D01*
X208248250Y-114649250D01*
X209447500Y-114649250D01*
X209606250Y-114490500D01*
X209609322Y-113926250D01*
X209597062Y-113801768D01*
X209560752Y-113682070D01*
X209501787Y-113571756D01*
X209422435Y-113475065D01*
X209325744Y-113395713D01*
X209215430Y-113336748D01*
X209142870Y-113314737D01*
X209274725Y-113182882D01*
X209437240Y-112939661D01*
X209549182Y-112669408D01*
X209606250Y-112382510D01*
X209606250Y-112089990D01*
X209549182Y-111803092D01*
X209437240Y-111532839D01*
X209274725Y-111289618D01*
X209067882Y-111082775D01*
X208824661Y-110920260D01*
X208554408Y-110808318D01*
X208267510Y-110751250D01*
X207974990Y-110751250D01*
X207757201Y-110794571D01*
X205928630Y-108966000D01*
X206660077Y-108966000D01*
X206697500Y-108969686D01*
X206734923Y-108966000D01*
X206734926Y-108966000D01*
X206846878Y-108954974D01*
X206990515Y-108911402D01*
X207122892Y-108840645D01*
X207238922Y-108745422D01*
X207262784Y-108716346D01*
X207947208Y-108031922D01*
X208007254Y-108026008D01*
X208173850Y-107975472D01*
X208327386Y-107893405D01*
X208461962Y-107782962D01*
X208467342Y-107776406D01*
X208532815Y-107856185D01*
X208629506Y-107935537D01*
X208739820Y-107994502D01*
X208859518Y-108030812D01*
X208984000Y-108043072D01*
X209285750Y-108040000D01*
X209444500Y-107881250D01*
X209444500Y-106807000D01*
X209698500Y-106807000D01*
X209698500Y-107881250D01*
X209857250Y-108040000D01*
X210159000Y-108043072D01*
X210283482Y-108030812D01*
X210403180Y-107994502D01*
X210513494Y-107935537D01*
X210610185Y-107856185D01*
X210689537Y-107759494D01*
X210748502Y-107649180D01*
X210784812Y-107529482D01*
X210797072Y-107405000D01*
X210794000Y-106965750D01*
X210635250Y-106807000D01*
X209698500Y-106807000D01*
X209444500Y-106807000D01*
X209424500Y-106807000D01*
X209424500Y-106553000D01*
X209444500Y-106553000D01*
X209444500Y-105478750D01*
X209698500Y-105478750D01*
X209698500Y-106553000D01*
X210635250Y-106553000D01*
X210794000Y-106394250D01*
X210797072Y-105955000D01*
X210784812Y-105830518D01*
X210748502Y-105710820D01*
X210689537Y-105600506D01*
X210610185Y-105503815D01*
X210513494Y-105424463D01*
X210403180Y-105365498D01*
X210283482Y-105329188D01*
X210159000Y-105316928D01*
X209857250Y-105320000D01*
X209698500Y-105478750D01*
X209444500Y-105478750D01*
X209285750Y-105320000D01*
X208984000Y-105316928D01*
X208859518Y-105329188D01*
X208739820Y-105365498D01*
X208629506Y-105424463D01*
X208532815Y-105503815D01*
X208467342Y-105583594D01*
X208461962Y-105577038D01*
X208327386Y-105466595D01*
X208173850Y-105384528D01*
X208007254Y-105333992D01*
X207834000Y-105316928D01*
X207159000Y-105316928D01*
X206985746Y-105333992D01*
X206872636Y-105368303D01*
X206855502Y-105311820D01*
X206796537Y-105201506D01*
X206759191Y-105156000D01*
X206796537Y-105110494D01*
X206825459Y-105056386D01*
X206985746Y-105105008D01*
X207159000Y-105122072D01*
X207834000Y-105122072D01*
X208007254Y-105105008D01*
X208173850Y-105054472D01*
X208327386Y-104972405D01*
X208461962Y-104861962D01*
X208467342Y-104855406D01*
X208532815Y-104935185D01*
X208629506Y-105014537D01*
X208739820Y-105073502D01*
X208859518Y-105109812D01*
X208984000Y-105122072D01*
X209285750Y-105119000D01*
X209444500Y-104960250D01*
X209444500Y-103886000D01*
X209698500Y-103886000D01*
X209698500Y-104960250D01*
X209857250Y-105119000D01*
X210159000Y-105122072D01*
X210283482Y-105109812D01*
X210403180Y-105073502D01*
X210513494Y-105014537D01*
X210610185Y-104935185D01*
X210689537Y-104838494D01*
X210748502Y-104728180D01*
X210784812Y-104608482D01*
X210797072Y-104484000D01*
X210794000Y-104044750D01*
X210635250Y-103886000D01*
X209698500Y-103886000D01*
X209444500Y-103886000D01*
X209424500Y-103886000D01*
X209424500Y-103632000D01*
X209444500Y-103632000D01*
X209444500Y-102557750D01*
X209698500Y-102557750D01*
X209698500Y-103632000D01*
X210635250Y-103632000D01*
X210794000Y-103473250D01*
X210797072Y-103034000D01*
X210784812Y-102909518D01*
X210748502Y-102789820D01*
X210689537Y-102679506D01*
X210610185Y-102582815D01*
X210513494Y-102503463D01*
X210403180Y-102444498D01*
X210283482Y-102408188D01*
X210159000Y-102395928D01*
X209857250Y-102399000D01*
X209698500Y-102557750D01*
X209444500Y-102557750D01*
X209285750Y-102399000D01*
X208984000Y-102395928D01*
X208859518Y-102408188D01*
X208739820Y-102444498D01*
X208629506Y-102503463D01*
X208532815Y-102582815D01*
X208467342Y-102662594D01*
X208461962Y-102656038D01*
X208327386Y-102545595D01*
X208173850Y-102463528D01*
X208007254Y-102412992D01*
X207834000Y-102395928D01*
X207159000Y-102395928D01*
X206985746Y-102412992D01*
X206866803Y-102449073D01*
X206855502Y-102411820D01*
X206796537Y-102301506D01*
X206717185Y-102204815D01*
X206620494Y-102125463D01*
X206510180Y-102066498D01*
X206390482Y-102030188D01*
X206266000Y-102017928D01*
X204994160Y-102017928D01*
X204745896Y-101769664D01*
X204722034Y-101740588D01*
X204606004Y-101645365D01*
X204473627Y-101574608D01*
X204329990Y-101531036D01*
X204218038Y-101520010D01*
X204218035Y-101520010D01*
X204180612Y-101516324D01*
X204170109Y-101517359D01*
X204147250Y-101494500D01*
X203073000Y-101494500D01*
X203073000Y-101514500D01*
X202819000Y-101514500D01*
X202819000Y-101494500D01*
X202799000Y-101494500D01*
X202799000Y-101240500D01*
X202819000Y-101240500D01*
X202819000Y-101220500D01*
X203073000Y-101220500D01*
X203073000Y-101240500D01*
X204147250Y-101240500D01*
X204306000Y-101081750D01*
X204309072Y-100780000D01*
X204296812Y-100655518D01*
X204260502Y-100535820D01*
X204201537Y-100425506D01*
X204122185Y-100328815D01*
X204042406Y-100263342D01*
X204048962Y-100257962D01*
X204159405Y-100123386D01*
X204241472Y-99969850D01*
X204292008Y-99803254D01*
X204309072Y-99630000D01*
X204309072Y-98955000D01*
X204292008Y-98781746D01*
X204241472Y-98615150D01*
X204159405Y-98461614D01*
X204048962Y-98327038D01*
X203914386Y-98216595D01*
X203760850Y-98134528D01*
X203594254Y-98083992D01*
X203421000Y-98066928D01*
X202887861Y-98066928D01*
X202136072Y-97315140D01*
X202136072Y-97015000D01*
X202498928Y-97015000D01*
X202511188Y-97139482D01*
X202547498Y-97259180D01*
X202606463Y-97369494D01*
X202685815Y-97466185D01*
X202782506Y-97545537D01*
X202892820Y-97604502D01*
X203012518Y-97640812D01*
X203137000Y-97653072D01*
X203751250Y-97650000D01*
X203910000Y-97491250D01*
X203910000Y-96592000D01*
X204164000Y-96592000D01*
X204164000Y-97491250D01*
X204322750Y-97650000D01*
X204937000Y-97653072D01*
X205061482Y-97640812D01*
X205181180Y-97604502D01*
X205291494Y-97545537D01*
X205388185Y-97466185D01*
X205467537Y-97369494D01*
X205526502Y-97259180D01*
X205562812Y-97139482D01*
X205575072Y-97015000D01*
X208698928Y-97015000D01*
X208711188Y-97139482D01*
X208747498Y-97259180D01*
X208806463Y-97369494D01*
X208885815Y-97466185D01*
X208982506Y-97545537D01*
X209092820Y-97604502D01*
X209212518Y-97640812D01*
X209337000Y-97653072D01*
X209951250Y-97650000D01*
X210110000Y-97491250D01*
X210110000Y-96592000D01*
X208860750Y-96592000D01*
X208702000Y-96750750D01*
X208698928Y-97015000D01*
X205575072Y-97015000D01*
X205572000Y-96750750D01*
X205413250Y-96592000D01*
X204164000Y-96592000D01*
X203910000Y-96592000D01*
X202660750Y-96592000D01*
X202502000Y-96750750D01*
X202498928Y-97015000D01*
X202136072Y-97015000D01*
X202136072Y-96831999D01*
X202119008Y-96658745D01*
X202068472Y-96492149D01*
X201986405Y-96338613D01*
X201875962Y-96204038D01*
X201741387Y-96093595D01*
X201723500Y-96084034D01*
X201723500Y-95820674D01*
X201782226Y-95678898D01*
X201797849Y-95600355D01*
X202590860Y-95589697D01*
X202547498Y-95670820D01*
X202511188Y-95790518D01*
X202498928Y-95915000D01*
X202502000Y-96179250D01*
X202660750Y-96338000D01*
X203910000Y-96338000D01*
X203910000Y-96318000D01*
X204164000Y-96318000D01*
X204164000Y-96338000D01*
X205413250Y-96338000D01*
X205572000Y-96179250D01*
X205575072Y-95915000D01*
X205562812Y-95790518D01*
X205526502Y-95670820D01*
X205467537Y-95560506D01*
X205459846Y-95551135D01*
X208851566Y-95505547D01*
X208806463Y-95560506D01*
G37*
%TD.AperFunction*%
D27*
X205493000Y-106479000D02*
X205513000Y-106479000D01*
X205513000Y-106733000D01*
X205493000Y-106733000D01*
X205493000Y-106753000D01*
X205239000Y-106753000D01*
X205239000Y-106733000D01*
X205219000Y-106733000D01*
X205219000Y-106479000D01*
X205239000Y-106479000D01*
X205239000Y-106459000D01*
X205493000Y-106459000D01*
X205493000Y-106479000D01*
%TA.AperFunction,Conductor*%
D29*
G36*
X205493000Y-106479000D02*
G01*
X205513000Y-106479000D01*
X205513000Y-106733000D01*
X205493000Y-106733000D01*
X205493000Y-106753000D01*
X205239000Y-106753000D01*
X205239000Y-106733000D01*
X205219000Y-106733000D01*
X205219000Y-106479000D01*
X205239000Y-106479000D01*
X205239000Y-106459000D01*
X205493000Y-106459000D01*
X205493000Y-106479000D01*
G37*
%TD.AperFunction*%
D27*
X201531000Y-103420250D02*
X201689750Y-103579000D01*
X202939000Y-103579000D01*
X202939000Y-103559000D01*
X203193000Y-103559000D01*
X203193000Y-103579000D01*
X203213000Y-103579000D01*
X203213000Y-103833000D01*
X203193000Y-103833000D01*
X203193000Y-103853000D01*
X202939000Y-103853000D01*
X202939000Y-103833000D01*
X201689750Y-103833000D01*
X201531000Y-103991750D01*
X201529892Y-104267341D01*
X201526426Y-104267000D01*
X201526423Y-104267000D01*
X201489000Y-104263314D01*
X201451577Y-104267000D01*
X200402630Y-104267000D01*
X201529873Y-103139757D01*
X201531000Y-103420250D01*
%TA.AperFunction,Conductor*%
D29*
G36*
X201531000Y-103420250D02*
G01*
X201689750Y-103579000D01*
X202939000Y-103579000D01*
X202939000Y-103559000D01*
X203193000Y-103559000D01*
X203193000Y-103579000D01*
X203213000Y-103579000D01*
X203213000Y-103833000D01*
X203193000Y-103833000D01*
X203193000Y-103853000D01*
X202939000Y-103853000D01*
X202939000Y-103833000D01*
X201689750Y-103833000D01*
X201531000Y-103991750D01*
X201529892Y-104267341D01*
X201526426Y-104267000D01*
X201526423Y-104267000D01*
X201489000Y-104263314D01*
X201451577Y-104267000D01*
X200402630Y-104267000D01*
X201529873Y-103139757D01*
X201531000Y-103420250D01*
G37*
%TD.AperFunction*%
%TD*%
D27*
%TO.N,GND*%
X191932815Y-100530185D02*
X192029506Y-100609537D01*
X192052667Y-100621917D01*
X192144750Y-100714000D01*
X192258337Y-100704454D01*
X192259518Y-100704812D01*
X192384000Y-100717072D01*
X192934000Y-100717072D01*
X193058482Y-100704812D01*
X193059000Y-100704655D01*
X193059518Y-100704812D01*
X193184000Y-100717072D01*
X193734000Y-100717072D01*
X193858482Y-100704812D01*
X193859000Y-100704655D01*
X193859518Y-100704812D01*
X193984000Y-100717072D01*
X194534000Y-100717072D01*
X194658482Y-100704812D01*
X194659000Y-100704655D01*
X194659518Y-100704812D01*
X194784000Y-100717072D01*
X195334000Y-100717072D01*
X195458482Y-100704812D01*
X195459000Y-100704655D01*
X195459518Y-100704812D01*
X195584000Y-100717072D01*
X196134000Y-100717072D01*
X196258482Y-100704812D01*
X196259000Y-100704655D01*
X196259518Y-100704812D01*
X196384000Y-100717072D01*
X196934000Y-100717072D01*
X196974962Y-100713038D01*
X196970928Y-100754000D01*
X196970928Y-101304000D01*
X196983188Y-101428482D01*
X196983345Y-101429000D01*
X196983188Y-101429518D01*
X196970928Y-101554000D01*
X196970928Y-102104000D01*
X196983188Y-102228482D01*
X196983345Y-102229000D01*
X196983188Y-102229518D01*
X196970928Y-102354000D01*
X196970928Y-102904000D01*
X196983188Y-103028482D01*
X196983546Y-103029663D01*
X196974000Y-103143250D01*
X197066083Y-103235333D01*
X197078463Y-103258494D01*
X197157815Y-103355185D01*
X197231000Y-103415246D01*
X197231000Y-103442754D01*
X197157815Y-103502815D01*
X197078463Y-103599506D01*
X197066083Y-103622667D01*
X196974000Y-103714750D01*
X196983546Y-103828337D01*
X196983188Y-103829518D01*
X196970928Y-103954000D01*
X196970928Y-104504000D01*
X196983188Y-104628482D01*
X196983345Y-104629000D01*
X196983188Y-104629518D01*
X196970928Y-104754000D01*
X196970928Y-105304000D01*
X196983188Y-105428482D01*
X196983345Y-105429000D01*
X196983188Y-105429518D01*
X196970928Y-105554000D01*
X196970928Y-106104000D01*
X196983188Y-106228482D01*
X196983345Y-106229000D01*
X196983188Y-106229518D01*
X196970928Y-106354000D01*
X196970928Y-106904000D01*
X196983188Y-107028482D01*
X196983345Y-107029000D01*
X196983188Y-107029518D01*
X196970928Y-107154000D01*
X196970928Y-107704000D01*
X196983188Y-107828482D01*
X196983345Y-107829000D01*
X196983188Y-107829518D01*
X196970928Y-107954000D01*
X196970928Y-108504000D01*
X196983188Y-108628482D01*
X196983345Y-108629000D01*
X196983188Y-108629518D01*
X196970928Y-108754000D01*
X196970928Y-109304000D01*
X196975119Y-109346552D01*
X196944750Y-109344000D01*
X196786000Y-109502750D01*
X196786000Y-109601000D01*
X196645246Y-109601000D01*
X196585185Y-109527815D01*
X196488494Y-109448463D01*
X196465333Y-109436083D01*
X196373250Y-109344000D01*
X196259663Y-109353546D01*
X196258482Y-109353188D01*
X196134000Y-109340928D01*
X195584000Y-109340928D01*
X195459518Y-109353188D01*
X195459000Y-109353345D01*
X195458482Y-109353188D01*
X195334000Y-109340928D01*
X194784000Y-109340928D01*
X194659518Y-109353188D01*
X194659000Y-109353345D01*
X194658482Y-109353188D01*
X194534000Y-109340928D01*
X193984000Y-109340928D01*
X193859518Y-109353188D01*
X193859000Y-109353345D01*
X193858482Y-109353188D01*
X193734000Y-109340928D01*
X193184000Y-109340928D01*
X193059518Y-109353188D01*
X193059000Y-109353345D01*
X193058482Y-109353188D01*
X192934000Y-109340928D01*
X192384000Y-109340928D01*
X192259518Y-109353188D01*
X192259000Y-109353345D01*
X192258482Y-109353188D01*
X192134000Y-109340928D01*
X191584000Y-109340928D01*
X191459518Y-109353188D01*
X191459000Y-109353345D01*
X191458482Y-109353188D01*
X191334000Y-109340928D01*
X190784000Y-109340928D01*
X190659518Y-109353188D01*
X190659000Y-109353345D01*
X190658482Y-109353188D01*
X190534000Y-109340928D01*
X189984000Y-109340928D01*
X189859518Y-109353188D01*
X189859000Y-109353345D01*
X189858482Y-109353188D01*
X189734000Y-109340928D01*
X189184000Y-109340928D01*
X189059518Y-109353188D01*
X189059000Y-109353345D01*
X189058482Y-109353188D01*
X188934000Y-109340928D01*
X188384000Y-109340928D01*
X188343038Y-109344962D01*
X188347072Y-109304000D01*
X188347072Y-108754000D01*
X188334812Y-108629518D01*
X188334454Y-108628337D01*
X188344000Y-108514750D01*
X188251917Y-108422667D01*
X188239537Y-108399506D01*
X188160185Y-108302815D01*
X188087000Y-108242754D01*
X188087000Y-108215246D01*
X188160185Y-108155185D01*
X188239537Y-108058494D01*
X188251917Y-108035333D01*
X188344000Y-107943250D01*
X188334454Y-107829663D01*
X188334812Y-107828482D01*
X188347072Y-107704000D01*
X188347072Y-107154000D01*
X188334812Y-107029518D01*
X188334655Y-107029000D01*
X188334812Y-107028482D01*
X188347072Y-106904000D01*
X188347072Y-106354000D01*
X188334812Y-106229518D01*
X188334655Y-106229000D01*
X188334812Y-106228482D01*
X188347072Y-106104000D01*
X188347072Y-105554000D01*
X188334812Y-105429518D01*
X188334655Y-105429000D01*
X188334812Y-105428482D01*
X188347072Y-105304000D01*
X188347072Y-104754000D01*
X188334812Y-104629518D01*
X188334655Y-104629000D01*
X188334812Y-104628482D01*
X188347072Y-104504000D01*
X188347072Y-103954000D01*
X188334812Y-103829518D01*
X188334655Y-103829000D01*
X188334812Y-103828482D01*
X188347072Y-103704000D01*
X188347072Y-103154000D01*
X188334812Y-103029518D01*
X188334655Y-103029000D01*
X188334812Y-103028482D01*
X188347072Y-102904000D01*
X188347072Y-102354000D01*
X188334812Y-102229518D01*
X188334454Y-102228337D01*
X188344000Y-102114750D01*
X188251917Y-102022667D01*
X188239537Y-101999506D01*
X188160185Y-101902815D01*
X188087000Y-101842754D01*
X188087000Y-101815246D01*
X188160185Y-101755185D01*
X188239537Y-101658494D01*
X188251917Y-101635333D01*
X188344000Y-101543250D01*
X188334454Y-101429663D01*
X188334812Y-101428482D01*
X188347072Y-101304000D01*
X188347072Y-100757534D01*
X188387534Y-100717072D01*
X188934000Y-100717072D01*
X189058482Y-100704812D01*
X189059000Y-100704655D01*
X189059518Y-100704812D01*
X189184000Y-100717072D01*
X189734000Y-100717072D01*
X189858482Y-100704812D01*
X189859000Y-100704655D01*
X189859518Y-100704812D01*
X189984000Y-100717072D01*
X190534000Y-100717072D01*
X190658482Y-100704812D01*
X190659000Y-100704655D01*
X190659518Y-100704812D01*
X190784000Y-100717072D01*
X191334000Y-100717072D01*
X191458482Y-100704812D01*
X191459663Y-100704454D01*
X191573250Y-100714000D01*
X191665333Y-100621917D01*
X191688494Y-100609537D01*
X191785185Y-100530185D01*
X191845246Y-100457000D01*
X191872754Y-100457000D01*
X191932815Y-100530185D01*
%TA.AperFunction,Conductor*%
D29*
G36*
X191932815Y-100530185D02*
G01*
X192029506Y-100609537D01*
X192052667Y-100621917D01*
X192144750Y-100714000D01*
X192258337Y-100704454D01*
X192259518Y-100704812D01*
X192384000Y-100717072D01*
X192934000Y-100717072D01*
X193058482Y-100704812D01*
X193059000Y-100704655D01*
X193059518Y-100704812D01*
X193184000Y-100717072D01*
X193734000Y-100717072D01*
X193858482Y-100704812D01*
X193859000Y-100704655D01*
X193859518Y-100704812D01*
X193984000Y-100717072D01*
X194534000Y-100717072D01*
X194658482Y-100704812D01*
X194659000Y-100704655D01*
X194659518Y-100704812D01*
X194784000Y-100717072D01*
X195334000Y-100717072D01*
X195458482Y-100704812D01*
X195459000Y-100704655D01*
X195459518Y-100704812D01*
X195584000Y-100717072D01*
X196134000Y-100717072D01*
X196258482Y-100704812D01*
X196259000Y-100704655D01*
X196259518Y-100704812D01*
X196384000Y-100717072D01*
X196934000Y-100717072D01*
X196974962Y-100713038D01*
X196970928Y-100754000D01*
X196970928Y-101304000D01*
X196983188Y-101428482D01*
X196983345Y-101429000D01*
X196983188Y-101429518D01*
X196970928Y-101554000D01*
X196970928Y-102104000D01*
X196983188Y-102228482D01*
X196983345Y-102229000D01*
X196983188Y-102229518D01*
X196970928Y-102354000D01*
X196970928Y-102904000D01*
X196983188Y-103028482D01*
X196983546Y-103029663D01*
X196974000Y-103143250D01*
X197066083Y-103235333D01*
X197078463Y-103258494D01*
X197157815Y-103355185D01*
X197231000Y-103415246D01*
X197231000Y-103442754D01*
X197157815Y-103502815D01*
X197078463Y-103599506D01*
X197066083Y-103622667D01*
X196974000Y-103714750D01*
X196983546Y-103828337D01*
X196983188Y-103829518D01*
X196970928Y-103954000D01*
X196970928Y-104504000D01*
X196983188Y-104628482D01*
X196983345Y-104629000D01*
X196983188Y-104629518D01*
X196970928Y-104754000D01*
X196970928Y-105304000D01*
X196983188Y-105428482D01*
X196983345Y-105429000D01*
X196983188Y-105429518D01*
X196970928Y-105554000D01*
X196970928Y-106104000D01*
X196983188Y-106228482D01*
X196983345Y-106229000D01*
X196983188Y-106229518D01*
X196970928Y-106354000D01*
X196970928Y-106904000D01*
X196983188Y-107028482D01*
X196983345Y-107029000D01*
X196983188Y-107029518D01*
X196970928Y-107154000D01*
X196970928Y-107704000D01*
X196983188Y-107828482D01*
X196983345Y-107829000D01*
X196983188Y-107829518D01*
X196970928Y-107954000D01*
X196970928Y-108504000D01*
X196983188Y-108628482D01*
X196983345Y-108629000D01*
X196983188Y-108629518D01*
X196970928Y-108754000D01*
X196970928Y-109304000D01*
X196975119Y-109346552D01*
X196944750Y-109344000D01*
X196786000Y-109502750D01*
X196786000Y-109601000D01*
X196645246Y-109601000D01*
X196585185Y-109527815D01*
X196488494Y-109448463D01*
X196465333Y-109436083D01*
X196373250Y-109344000D01*
X196259663Y-109353546D01*
X196258482Y-109353188D01*
X196134000Y-109340928D01*
X195584000Y-109340928D01*
X195459518Y-109353188D01*
X195459000Y-109353345D01*
X195458482Y-109353188D01*
X195334000Y-109340928D01*
X194784000Y-109340928D01*
X194659518Y-109353188D01*
X194659000Y-109353345D01*
X194658482Y-109353188D01*
X194534000Y-109340928D01*
X193984000Y-109340928D01*
X193859518Y-109353188D01*
X193859000Y-109353345D01*
X193858482Y-109353188D01*
X193734000Y-109340928D01*
X193184000Y-109340928D01*
X193059518Y-109353188D01*
X193059000Y-109353345D01*
X193058482Y-109353188D01*
X192934000Y-109340928D01*
X192384000Y-109340928D01*
X192259518Y-109353188D01*
X192259000Y-109353345D01*
X192258482Y-109353188D01*
X192134000Y-109340928D01*
X191584000Y-109340928D01*
X191459518Y-109353188D01*
X191459000Y-109353345D01*
X191458482Y-109353188D01*
X191334000Y-109340928D01*
X190784000Y-109340928D01*
X190659518Y-109353188D01*
X190659000Y-109353345D01*
X190658482Y-109353188D01*
X190534000Y-109340928D01*
X189984000Y-109340928D01*
X189859518Y-109353188D01*
X189859000Y-109353345D01*
X189858482Y-109353188D01*
X189734000Y-109340928D01*
X189184000Y-109340928D01*
X189059518Y-109353188D01*
X189059000Y-109353345D01*
X189058482Y-109353188D01*
X188934000Y-109340928D01*
X188384000Y-109340928D01*
X188343038Y-109344962D01*
X188347072Y-109304000D01*
X188347072Y-108754000D01*
X188334812Y-108629518D01*
X188334454Y-108628337D01*
X188344000Y-108514750D01*
X188251917Y-108422667D01*
X188239537Y-108399506D01*
X188160185Y-108302815D01*
X188087000Y-108242754D01*
X188087000Y-108215246D01*
X188160185Y-108155185D01*
X188239537Y-108058494D01*
X188251917Y-108035333D01*
X188344000Y-107943250D01*
X188334454Y-107829663D01*
X188334812Y-107828482D01*
X188347072Y-107704000D01*
X188347072Y-107154000D01*
X188334812Y-107029518D01*
X188334655Y-107029000D01*
X188334812Y-107028482D01*
X188347072Y-106904000D01*
X188347072Y-106354000D01*
X188334812Y-106229518D01*
X188334655Y-106229000D01*
X188334812Y-106228482D01*
X188347072Y-106104000D01*
X188347072Y-105554000D01*
X188334812Y-105429518D01*
X188334655Y-105429000D01*
X188334812Y-105428482D01*
X188347072Y-105304000D01*
X188347072Y-104754000D01*
X188334812Y-104629518D01*
X188334655Y-104629000D01*
X188334812Y-104628482D01*
X188347072Y-104504000D01*
X188347072Y-103954000D01*
X188334812Y-103829518D01*
X188334655Y-103829000D01*
X188334812Y-103828482D01*
X188347072Y-103704000D01*
X188347072Y-103154000D01*
X188334812Y-103029518D01*
X188334655Y-103029000D01*
X188334812Y-103028482D01*
X188347072Y-102904000D01*
X188347072Y-102354000D01*
X188334812Y-102229518D01*
X188334454Y-102228337D01*
X188344000Y-102114750D01*
X188251917Y-102022667D01*
X188239537Y-101999506D01*
X188160185Y-101902815D01*
X188087000Y-101842754D01*
X188087000Y-101815246D01*
X188160185Y-101755185D01*
X188239537Y-101658494D01*
X188251917Y-101635333D01*
X188344000Y-101543250D01*
X188334454Y-101429663D01*
X188334812Y-101428482D01*
X188347072Y-101304000D01*
X188347072Y-100757534D01*
X188387534Y-100717072D01*
X188934000Y-100717072D01*
X189058482Y-100704812D01*
X189059000Y-100704655D01*
X189059518Y-100704812D01*
X189184000Y-100717072D01*
X189734000Y-100717072D01*
X189858482Y-100704812D01*
X189859000Y-100704655D01*
X189859518Y-100704812D01*
X189984000Y-100717072D01*
X190534000Y-100717072D01*
X190658482Y-100704812D01*
X190659000Y-100704655D01*
X190659518Y-100704812D01*
X190784000Y-100717072D01*
X191334000Y-100717072D01*
X191458482Y-100704812D01*
X191459663Y-100704454D01*
X191573250Y-100714000D01*
X191665333Y-100621917D01*
X191688494Y-100609537D01*
X191785185Y-100530185D01*
X191845246Y-100457000D01*
X191872754Y-100457000D01*
X191932815Y-100530185D01*
G37*
%TD.AperFunction*%
%TD*%
D27*
%TO.N,Earth*%
X139051247Y-17623322D02*
X138962835Y-17829013D01*
X138916250Y-18048000D01*
X138916250Y-18348000D01*
X139924250Y-18348000D01*
X139924250Y-18328000D01*
X140178250Y-18328000D01*
X140178250Y-18348000D01*
X140198250Y-18348000D01*
X140198250Y-18602000D01*
X140178250Y-18602000D01*
X140178250Y-19742954D01*
X140353124Y-19869119D01*
X140576226Y-19789276D01*
X140627500Y-19755990D01*
X140627500Y-20669918D01*
X140630269Y-20698030D01*
X140630235Y-20702859D01*
X140631135Y-20712030D01*
X140647328Y-20866096D01*
X140659354Y-20924682D01*
X140670565Y-20983453D01*
X140673229Y-20992274D01*
X140719038Y-21140258D01*
X140742213Y-21195390D01*
X140743905Y-21199577D01*
X140576226Y-21090724D01*
X140353124Y-21010881D01*
X140178250Y-21137046D01*
X140178250Y-22528000D01*
X140965750Y-22528000D01*
X141043750Y-22606000D01*
X141968000Y-22606000D01*
X141968000Y-22586000D01*
X142222000Y-22586000D01*
X142222000Y-22606000D01*
X142242000Y-22606000D01*
X142242000Y-22860000D01*
X142222000Y-22860000D01*
X142222000Y-23909250D01*
X142380750Y-24068000D01*
X142670000Y-24071072D01*
X142748000Y-24063390D01*
X142748000Y-24320500D01*
X140374184Y-24320500D01*
X140351970Y-24298286D01*
X140353124Y-24299119D01*
X140576226Y-24219276D01*
X140764014Y-24097369D01*
X140924411Y-23941169D01*
X141011557Y-23814416D01*
X141068815Y-23884185D01*
X141165506Y-23963537D01*
X141275820Y-24022502D01*
X141395518Y-24058812D01*
X141520000Y-24071072D01*
X141809250Y-24068000D01*
X141968000Y-23909250D01*
X141968000Y-22860000D01*
X141186250Y-22860000D01*
X141186250Y-22782000D01*
X140178250Y-22782000D01*
X140178250Y-22802000D01*
X139924250Y-22802000D01*
X139924250Y-22782000D01*
X139904250Y-22782000D01*
X139904250Y-22528000D01*
X139924250Y-22528000D01*
X139924250Y-21137046D01*
X139749376Y-21010881D01*
X139526274Y-21090724D01*
X139338486Y-21212631D01*
X139194134Y-21353206D01*
X139075981Y-21274259D01*
X138901272Y-21201892D01*
X138715802Y-21165000D01*
X138526698Y-21165000D01*
X138341228Y-21201892D01*
X138166519Y-21274259D01*
X138009286Y-21379319D01*
X137875569Y-21513036D01*
X137770509Y-21670269D01*
X137698142Y-21844978D01*
X137661250Y-22030448D01*
X137661250Y-22209883D01*
X137631250Y-22206928D01*
X137331250Y-22206928D01*
X137231250Y-22216777D01*
X137131778Y-22206980D01*
X137117895Y-22181006D01*
X137022672Y-22064976D01*
X136993597Y-22041115D01*
X136958135Y-22005653D01*
X136934273Y-21976577D01*
X136818243Y-21881354D01*
X136685866Y-21810597D01*
X136542229Y-21767025D01*
X136430277Y-21755999D01*
X136430274Y-21755999D01*
X136392851Y-21752313D01*
X136355428Y-21755999D01*
X135607071Y-21755999D01*
X135569648Y-21752313D01*
X135532225Y-21755999D01*
X135532223Y-21755999D01*
X135420271Y-21767025D01*
X135276634Y-21810597D01*
X135144257Y-21881354D01*
X135028227Y-21976577D01*
X135004365Y-22005653D01*
X134968899Y-22041119D01*
X134939829Y-22064976D01*
X134915972Y-22094046D01*
X134915971Y-22094047D01*
X134844605Y-22181006D01*
X134830722Y-22206980D01*
X134731250Y-22216777D01*
X134631250Y-22206928D01*
X134331250Y-22206928D01*
X134231250Y-22216777D01*
X134131250Y-22206928D01*
X133831250Y-22206928D01*
X133801250Y-22209883D01*
X133801250Y-22030448D01*
X133764358Y-21844978D01*
X133691991Y-21670269D01*
X133586931Y-21513036D01*
X133453214Y-21379319D01*
X133295981Y-21274259D01*
X133121272Y-21201892D01*
X132935802Y-21165000D01*
X132746698Y-21165000D01*
X132561228Y-21201892D01*
X132386519Y-21274259D01*
X132268366Y-21353206D01*
X132124014Y-21212631D01*
X131936226Y-21090724D01*
X131713124Y-21010881D01*
X131538250Y-21137046D01*
X131538250Y-22528000D01*
X131558250Y-22528000D01*
X131558250Y-22782000D01*
X131538250Y-22782000D01*
X131538250Y-24172954D01*
X131568178Y-24194546D01*
X131568178Y-24606406D01*
X130048000Y-24606406D01*
X130048000Y-22782000D01*
X130276250Y-22782000D01*
X130276250Y-23332000D01*
X130322835Y-23550987D01*
X130411247Y-23756678D01*
X130538089Y-23941169D01*
X130698486Y-24097369D01*
X130886274Y-24219276D01*
X131109376Y-24299119D01*
X131284250Y-24172954D01*
X131284250Y-22782000D01*
X130276250Y-22782000D01*
X130048000Y-22782000D01*
X130048000Y-21925332D01*
X130139020Y-21876118D01*
X130188588Y-21842683D01*
X130238669Y-21809912D01*
X130245810Y-21804087D01*
X130335273Y-21730077D01*
X130322835Y-21759013D01*
X130276250Y-21978000D01*
X130276250Y-22528000D01*
X131284250Y-22528000D01*
X131284250Y-21137046D01*
X131109376Y-21010881D01*
X130886274Y-21090724D01*
X130718554Y-21199604D01*
X130720648Y-21194523D01*
X130744214Y-21139540D01*
X130746939Y-21130737D01*
X130791714Y-20982436D01*
X130803337Y-20923733D01*
X130815770Y-20865244D01*
X130816733Y-20856079D01*
X130831850Y-20701906D01*
X130831850Y-20701902D01*
X130835000Y-20669919D01*
X130835000Y-19755990D01*
X130886274Y-19789276D01*
X131109376Y-19869119D01*
X131284250Y-19742954D01*
X131284250Y-18602000D01*
X131538250Y-18602000D01*
X131538250Y-19742954D01*
X131713124Y-19869119D01*
X131936226Y-19789276D01*
X132124014Y-19667369D01*
X132284411Y-19511169D01*
X132411253Y-19326678D01*
X132499665Y-19120987D01*
X132546250Y-18902000D01*
X132546250Y-18602000D01*
X138916250Y-18602000D01*
X138916250Y-18902000D01*
X138962835Y-19120987D01*
X139051247Y-19326678D01*
X139178089Y-19511169D01*
X139338486Y-19667369D01*
X139526274Y-19789276D01*
X139749376Y-19869119D01*
X139924250Y-19742954D01*
X139924250Y-18602000D01*
X138916250Y-18602000D01*
X132546250Y-18602000D01*
X131538250Y-18602000D01*
X131284250Y-18602000D01*
X131264250Y-18602000D01*
X131264250Y-18348000D01*
X131284250Y-18348000D01*
X131284250Y-18328000D01*
X131538250Y-18328000D01*
X131538250Y-18348000D01*
X132546250Y-18348000D01*
X132546250Y-18048000D01*
X132499665Y-17829013D01*
X132411253Y-17623322D01*
X132361530Y-17551000D01*
X139100970Y-17551000D01*
X139051247Y-17623322D01*
%TA.AperFunction,Conductor*%
D29*
G36*
X139051247Y-17623322D02*
G01*
X138962835Y-17829013D01*
X138916250Y-18048000D01*
X138916250Y-18348000D01*
X139924250Y-18348000D01*
X139924250Y-18328000D01*
X140178250Y-18328000D01*
X140178250Y-18348000D01*
X140198250Y-18348000D01*
X140198250Y-18602000D01*
X140178250Y-18602000D01*
X140178250Y-19742954D01*
X140353124Y-19869119D01*
X140576226Y-19789276D01*
X140627500Y-19755990D01*
X140627500Y-20669918D01*
X140630269Y-20698030D01*
X140630235Y-20702859D01*
X140631135Y-20712030D01*
X140647328Y-20866096D01*
X140659354Y-20924682D01*
X140670565Y-20983453D01*
X140673229Y-20992274D01*
X140719038Y-21140258D01*
X140742213Y-21195390D01*
X140743905Y-21199577D01*
X140576226Y-21090724D01*
X140353124Y-21010881D01*
X140178250Y-21137046D01*
X140178250Y-22528000D01*
X140965750Y-22528000D01*
X141043750Y-22606000D01*
X141968000Y-22606000D01*
X141968000Y-22586000D01*
X142222000Y-22586000D01*
X142222000Y-22606000D01*
X142242000Y-22606000D01*
X142242000Y-22860000D01*
X142222000Y-22860000D01*
X142222000Y-23909250D01*
X142380750Y-24068000D01*
X142670000Y-24071072D01*
X142748000Y-24063390D01*
X142748000Y-24320500D01*
X140374184Y-24320500D01*
X140351970Y-24298286D01*
X140353124Y-24299119D01*
X140576226Y-24219276D01*
X140764014Y-24097369D01*
X140924411Y-23941169D01*
X141011557Y-23814416D01*
X141068815Y-23884185D01*
X141165506Y-23963537D01*
X141275820Y-24022502D01*
X141395518Y-24058812D01*
X141520000Y-24071072D01*
X141809250Y-24068000D01*
X141968000Y-23909250D01*
X141968000Y-22860000D01*
X141186250Y-22860000D01*
X141186250Y-22782000D01*
X140178250Y-22782000D01*
X140178250Y-22802000D01*
X139924250Y-22802000D01*
X139924250Y-22782000D01*
X139904250Y-22782000D01*
X139904250Y-22528000D01*
X139924250Y-22528000D01*
X139924250Y-21137046D01*
X139749376Y-21010881D01*
X139526274Y-21090724D01*
X139338486Y-21212631D01*
X139194134Y-21353206D01*
X139075981Y-21274259D01*
X138901272Y-21201892D01*
X138715802Y-21165000D01*
X138526698Y-21165000D01*
X138341228Y-21201892D01*
X138166519Y-21274259D01*
X138009286Y-21379319D01*
X137875569Y-21513036D01*
X137770509Y-21670269D01*
X137698142Y-21844978D01*
X137661250Y-22030448D01*
X137661250Y-22209883D01*
X137631250Y-22206928D01*
X137331250Y-22206928D01*
X137231250Y-22216777D01*
X137131778Y-22206980D01*
X137117895Y-22181006D01*
X137022672Y-22064976D01*
X136993597Y-22041115D01*
X136958135Y-22005653D01*
X136934273Y-21976577D01*
X136818243Y-21881354D01*
X136685866Y-21810597D01*
X136542229Y-21767025D01*
X136430277Y-21755999D01*
X136430274Y-21755999D01*
X136392851Y-21752313D01*
X136355428Y-21755999D01*
X135607071Y-21755999D01*
X135569648Y-21752313D01*
X135532225Y-21755999D01*
X135532223Y-21755999D01*
X135420271Y-21767025D01*
X135276634Y-21810597D01*
X135144257Y-21881354D01*
X135028227Y-21976577D01*
X135004365Y-22005653D01*
X134968899Y-22041119D01*
X134939829Y-22064976D01*
X134915972Y-22094046D01*
X134915971Y-22094047D01*
X134844605Y-22181006D01*
X134830722Y-22206980D01*
X134731250Y-22216777D01*
X134631250Y-22206928D01*
X134331250Y-22206928D01*
X134231250Y-22216777D01*
X134131250Y-22206928D01*
X133831250Y-22206928D01*
X133801250Y-22209883D01*
X133801250Y-22030448D01*
X133764358Y-21844978D01*
X133691991Y-21670269D01*
X133586931Y-21513036D01*
X133453214Y-21379319D01*
X133295981Y-21274259D01*
X133121272Y-21201892D01*
X132935802Y-21165000D01*
X132746698Y-21165000D01*
X132561228Y-21201892D01*
X132386519Y-21274259D01*
X132268366Y-21353206D01*
X132124014Y-21212631D01*
X131936226Y-21090724D01*
X131713124Y-21010881D01*
X131538250Y-21137046D01*
X131538250Y-22528000D01*
X131558250Y-22528000D01*
X131558250Y-22782000D01*
X131538250Y-22782000D01*
X131538250Y-24172954D01*
X131568178Y-24194546D01*
X131568178Y-24606406D01*
X130048000Y-24606406D01*
X130048000Y-22782000D01*
X130276250Y-22782000D01*
X130276250Y-23332000D01*
X130322835Y-23550987D01*
X130411247Y-23756678D01*
X130538089Y-23941169D01*
X130698486Y-24097369D01*
X130886274Y-24219276D01*
X131109376Y-24299119D01*
X131284250Y-24172954D01*
X131284250Y-22782000D01*
X130276250Y-22782000D01*
X130048000Y-22782000D01*
X130048000Y-21925332D01*
X130139020Y-21876118D01*
X130188588Y-21842683D01*
X130238669Y-21809912D01*
X130245810Y-21804087D01*
X130335273Y-21730077D01*
X130322835Y-21759013D01*
X130276250Y-21978000D01*
X130276250Y-22528000D01*
X131284250Y-22528000D01*
X131284250Y-21137046D01*
X131109376Y-21010881D01*
X130886274Y-21090724D01*
X130718554Y-21199604D01*
X130720648Y-21194523D01*
X130744214Y-21139540D01*
X130746939Y-21130737D01*
X130791714Y-20982436D01*
X130803337Y-20923733D01*
X130815770Y-20865244D01*
X130816733Y-20856079D01*
X130831850Y-20701906D01*
X130831850Y-20701902D01*
X130835000Y-20669919D01*
X130835000Y-19755990D01*
X130886274Y-19789276D01*
X131109376Y-19869119D01*
X131284250Y-19742954D01*
X131284250Y-18602000D01*
X131538250Y-18602000D01*
X131538250Y-19742954D01*
X131713124Y-19869119D01*
X131936226Y-19789276D01*
X132124014Y-19667369D01*
X132284411Y-19511169D01*
X132411253Y-19326678D01*
X132499665Y-19120987D01*
X132546250Y-18902000D01*
X132546250Y-18602000D01*
X138916250Y-18602000D01*
X138916250Y-18902000D01*
X138962835Y-19120987D01*
X139051247Y-19326678D01*
X139178089Y-19511169D01*
X139338486Y-19667369D01*
X139526274Y-19789276D01*
X139749376Y-19869119D01*
X139924250Y-19742954D01*
X139924250Y-18602000D01*
X138916250Y-18602000D01*
X132546250Y-18602000D01*
X131538250Y-18602000D01*
X131284250Y-18602000D01*
X131264250Y-18602000D01*
X131264250Y-18348000D01*
X131284250Y-18348000D01*
X131284250Y-18328000D01*
X131538250Y-18328000D01*
X131538250Y-18348000D01*
X132546250Y-18348000D01*
X132546250Y-18048000D01*
X132499665Y-17829013D01*
X132411253Y-17623322D01*
X132361530Y-17551000D01*
X139100970Y-17551000D01*
X139051247Y-17623322D01*
G37*
%TD.AperFunction*%
%TD*%
D27*
%TO.N,GND*%
X146050000Y-25633779D02*
X146036250Y-25702905D01*
X146036250Y-25815636D01*
X145994473Y-26421407D01*
X146002090Y-26681112D01*
X146050000Y-26889802D01*
X146050000Y-28439531D01*
X146023072Y-28428377D01*
X145515174Y-28327350D01*
X144997326Y-28327350D01*
X144489428Y-28428377D01*
X144010999Y-28626549D01*
X143898079Y-28702000D01*
X143554474Y-28702000D01*
X144034450Y-28167066D01*
X144123331Y-28078185D01*
X144198077Y-27966320D01*
X144277694Y-27857837D01*
X144294229Y-27822419D01*
X144315942Y-27789923D01*
X144367425Y-27665632D01*
X144424351Y-27543695D01*
X144433660Y-27505726D01*
X144448614Y-27469623D01*
X144474860Y-27337676D01*
X144506903Y-27206977D01*
X144508625Y-27167927D01*
X144516250Y-27129595D01*
X144516250Y-26995052D01*
X144522179Y-26860624D01*
X144516250Y-26821989D01*
X144516250Y-26782905D01*
X144490001Y-26650941D01*
X144469591Y-26517946D01*
X144456239Y-26481211D01*
X144448614Y-26442877D01*
X144397124Y-26318570D01*
X144351161Y-26192111D01*
X144330900Y-26158688D01*
X144315942Y-26122577D01*
X144241185Y-26010696D01*
X144171439Y-25895643D01*
X144145048Y-25866816D01*
X144123331Y-25834315D01*
X144028184Y-25739168D01*
X143937333Y-25639933D01*
X143905825Y-25616809D01*
X143878185Y-25589169D01*
X143766300Y-25514409D01*
X143709231Y-25472526D01*
X143710847Y-25470557D01*
X143722583Y-25448601D01*
X143729810Y-25424776D01*
X143732250Y-25400000D01*
X143732250Y-24069349D01*
X143859250Y-24068000D01*
X144018000Y-23909250D01*
X144018000Y-22860000D01*
X144272000Y-22860000D01*
X144272000Y-23909250D01*
X144430750Y-24068000D01*
X144720000Y-24071072D01*
X144844482Y-24058812D01*
X144964180Y-24022502D01*
X145074494Y-23963537D01*
X145171185Y-23884185D01*
X145250537Y-23787494D01*
X145309502Y-23677180D01*
X145345812Y-23557482D01*
X145358072Y-23433000D01*
X145355000Y-23018750D01*
X145196250Y-22860000D01*
X144272000Y-22860000D01*
X144018000Y-22860000D01*
X143998000Y-22860000D01*
X143998000Y-22606000D01*
X144018000Y-22606000D01*
X144018000Y-22586000D01*
X144272000Y-22586000D01*
X144272000Y-22606000D01*
X145196250Y-22606000D01*
X145355000Y-22447250D01*
X145356648Y-22225000D01*
X146050000Y-22225000D01*
X146050000Y-25633779D01*
%TA.AperFunction,Conductor*%
D29*
G36*
X146050000Y-25633779D02*
G01*
X146036250Y-25702905D01*
X146036250Y-25815636D01*
X145994473Y-26421407D01*
X146002090Y-26681112D01*
X146050000Y-26889802D01*
X146050000Y-28439531D01*
X146023072Y-28428377D01*
X145515174Y-28327350D01*
X144997326Y-28327350D01*
X144489428Y-28428377D01*
X144010999Y-28626549D01*
X143898079Y-28702000D01*
X143554474Y-28702000D01*
X144034450Y-28167066D01*
X144123331Y-28078185D01*
X144198077Y-27966320D01*
X144277694Y-27857837D01*
X144294229Y-27822419D01*
X144315942Y-27789923D01*
X144367425Y-27665632D01*
X144424351Y-27543695D01*
X144433660Y-27505726D01*
X144448614Y-27469623D01*
X144474860Y-27337676D01*
X144506903Y-27206977D01*
X144508625Y-27167927D01*
X144516250Y-27129595D01*
X144516250Y-26995052D01*
X144522179Y-26860624D01*
X144516250Y-26821989D01*
X144516250Y-26782905D01*
X144490001Y-26650941D01*
X144469591Y-26517946D01*
X144456239Y-26481211D01*
X144448614Y-26442877D01*
X144397124Y-26318570D01*
X144351161Y-26192111D01*
X144330900Y-26158688D01*
X144315942Y-26122577D01*
X144241185Y-26010696D01*
X144171439Y-25895643D01*
X144145048Y-25866816D01*
X144123331Y-25834315D01*
X144028184Y-25739168D01*
X143937333Y-25639933D01*
X143905825Y-25616809D01*
X143878185Y-25589169D01*
X143766300Y-25514409D01*
X143709231Y-25472526D01*
X143710847Y-25470557D01*
X143722583Y-25448601D01*
X143729810Y-25424776D01*
X143732250Y-25400000D01*
X143732250Y-24069349D01*
X143859250Y-24068000D01*
X144018000Y-23909250D01*
X144018000Y-22860000D01*
X144272000Y-22860000D01*
X144272000Y-23909250D01*
X144430750Y-24068000D01*
X144720000Y-24071072D01*
X144844482Y-24058812D01*
X144964180Y-24022502D01*
X145074494Y-23963537D01*
X145171185Y-23884185D01*
X145250537Y-23787494D01*
X145309502Y-23677180D01*
X145345812Y-23557482D01*
X145358072Y-23433000D01*
X145355000Y-23018750D01*
X145196250Y-22860000D01*
X144272000Y-22860000D01*
X144018000Y-22860000D01*
X143998000Y-22860000D01*
X143998000Y-22606000D01*
X144018000Y-22606000D01*
X144018000Y-22586000D01*
X144272000Y-22586000D01*
X144272000Y-22606000D01*
X145196250Y-22606000D01*
X145355000Y-22447250D01*
X145356648Y-22225000D01*
X146050000Y-22225000D01*
X146050000Y-25633779D01*
G37*
%TD.AperFunction*%
D27*
X131616748Y-25539180D02*
X131675713Y-25649494D01*
X131755065Y-25746185D01*
X131851756Y-25825537D01*
X131955550Y-25881017D01*
X131939996Y-25896572D01*
X131778102Y-25928774D01*
X131589744Y-26006795D01*
X131420226Y-26120063D01*
X131276063Y-26264226D01*
X131162795Y-26433744D01*
X131084774Y-26622102D01*
X131045000Y-26822061D01*
X131045000Y-27025939D01*
X131084774Y-27225898D01*
X131162795Y-27414256D01*
X131276063Y-27583774D01*
X131420226Y-27727937D01*
X131589744Y-27841205D01*
X131778102Y-27919226D01*
X131939996Y-27951428D01*
X132533990Y-28545423D01*
X132533990Y-28702000D01*
X130429000Y-28702000D01*
X130429000Y-26824503D01*
X130456131Y-26663589D01*
X130494349Y-26109425D01*
X130506250Y-26049595D01*
X130506250Y-25936861D01*
X130508027Y-25911094D01*
X130506250Y-25850506D01*
X130506250Y-25702905D01*
X130501172Y-25677378D01*
X130500410Y-25651387D01*
X130471854Y-25527000D01*
X131613053Y-25527000D01*
X131616748Y-25539180D01*
%TA.AperFunction,Conductor*%
D29*
G36*
X131616748Y-25539180D02*
G01*
X131675713Y-25649494D01*
X131755065Y-25746185D01*
X131851756Y-25825537D01*
X131955550Y-25881017D01*
X131939996Y-25896572D01*
X131778102Y-25928774D01*
X131589744Y-26006795D01*
X131420226Y-26120063D01*
X131276063Y-26264226D01*
X131162795Y-26433744D01*
X131084774Y-26622102D01*
X131045000Y-26822061D01*
X131045000Y-27025939D01*
X131084774Y-27225898D01*
X131162795Y-27414256D01*
X131276063Y-27583774D01*
X131420226Y-27727937D01*
X131589744Y-27841205D01*
X131778102Y-27919226D01*
X131939996Y-27951428D01*
X132533990Y-28545423D01*
X132533990Y-28702000D01*
X130429000Y-28702000D01*
X130429000Y-26824503D01*
X130456131Y-26663589D01*
X130494349Y-26109425D01*
X130506250Y-26049595D01*
X130506250Y-25936861D01*
X130508027Y-25911094D01*
X130506250Y-25850506D01*
X130506250Y-25702905D01*
X130501172Y-25677378D01*
X130500410Y-25651387D01*
X130471854Y-25527000D01*
X131613053Y-25527000D01*
X131616748Y-25539180D01*
G37*
%TD.AperFunction*%
%TD*%
M02*
