%TF.GenerationSoftware,KiCad,Pcbnew,(5.1.12)-1*%
%TF.CreationDate,2022-01-01T22:18:58-05:00*%
%TF.ProjectId,my-keeb-2,6d792d6b-6565-4622-9d32-2e6b69636164,rev?*%
%TF.SameCoordinates,Original*%
%TF.FileFunction,Soldermask,Bot*%
%TF.FilePolarity,Negative*%
%FSLAX46Y46*%
G04 Gerber Fmt 4.6, Leading zero omitted, Abs format (unit mm)*
G04 Created by KiCad (PCBNEW (5.1.12)-1) date 2022-01-01 22:18:58*
%MOMM*%
%LPD*%
G01*
G04 APERTURE LIST*
%ADD10C,2.250000*%
%ADD11C,3.987800*%
%ADD12C,1.750000*%
%ADD13C,1.752600*%
%ADD14R,1.752600X1.752600*%
%ADD15R,1.600000X1.600000*%
%ADD16C,1.600000*%
%ADD17R,1.200000X1.600000*%
%ADD18R,1.600000X1.200000*%
G04 APERTURE END LIST*
%TO.C,MX38*%
G36*
G01*
X167523483Y-95047395D02*
X167522597Y-95047334D01*
G75*
G02*
X166477666Y-93847597I77403J1122334D01*
G01*
X166517666Y-93267597D01*
G75*
G02*
X167717403Y-92222666I1122334J-77403D01*
G01*
X167717403Y-92222666D01*
G75*
G02*
X168762334Y-93422403I-77403J-1122334D01*
G01*
X168722334Y-94002403D01*
G75*
G02*
X167522597Y-95047334I-1122334J77403D01*
G01*
G37*
D10*
X167640000Y-93345000D03*
G36*
G01*
X160538688Y-96722350D02*
X160538683Y-96722345D01*
G75*
G02*
X160452655Y-95133683I751317J837345D01*
G01*
X161762657Y-93673683D01*
G75*
G02*
X163351319Y-93587655I837345J-751317D01*
G01*
X163351319Y-93587655D01*
G75*
G02*
X163437347Y-95176317I-751317J-837345D01*
G01*
X162127345Y-96636317D01*
G75*
G02*
X160538683Y-96722345I-837345J751317D01*
G01*
G37*
D11*
X165100000Y-98425000D03*
D10*
X162600000Y-94425000D03*
D12*
X160020000Y-98425000D03*
X170180000Y-98425000D03*
%TD*%
%TO.C,M3*%
G36*
G01*
X109715300Y-36772850D02*
X109715300Y-37649150D01*
G75*
G02*
X109277150Y-38087300I-438150J0D01*
G01*
X108400850Y-38087300D01*
G75*
G02*
X107962700Y-37649150I0J438150D01*
G01*
X107962700Y-36772850D01*
G75*
G02*
X108400850Y-36334700I438150J0D01*
G01*
X109277150Y-36334700D01*
G75*
G02*
X109715300Y-36772850I0J-438150D01*
G01*
G37*
G36*
G01*
X109715300Y-38804850D02*
X109715300Y-39681150D01*
G75*
G02*
X109277150Y-40119300I-438150J0D01*
G01*
X108400850Y-40119300D01*
G75*
G02*
X107962700Y-39681150I0J438150D01*
G01*
X107962700Y-38804850D01*
G75*
G02*
X108400850Y-38366700I438150J0D01*
G01*
X109277150Y-38366700D01*
G75*
G02*
X109715300Y-38804850I0J-438150D01*
G01*
G37*
G36*
G01*
X109715300Y-40836850D02*
X109715300Y-41713150D01*
G75*
G02*
X109277150Y-42151300I-438150J0D01*
G01*
X108400850Y-42151300D01*
G75*
G02*
X107962700Y-41713150I0J438150D01*
G01*
X107962700Y-40836850D01*
G75*
G02*
X108400850Y-40398700I438150J0D01*
G01*
X109277150Y-40398700D01*
G75*
G02*
X109715300Y-40836850I0J-438150D01*
G01*
G37*
G36*
G01*
X109715300Y-42868850D02*
X109715300Y-43745150D01*
G75*
G02*
X109277150Y-44183300I-438150J0D01*
G01*
X108400850Y-44183300D01*
G75*
G02*
X107962700Y-43745150I0J438150D01*
G01*
X107962700Y-42868850D01*
G75*
G02*
X108400850Y-42430700I438150J0D01*
G01*
X109277150Y-42430700D01*
G75*
G02*
X109715300Y-42868850I0J-438150D01*
G01*
G37*
G36*
G01*
X109715300Y-44900850D02*
X109715300Y-45777150D01*
G75*
G02*
X109277150Y-46215300I-438150J0D01*
G01*
X108400850Y-46215300D01*
G75*
G02*
X107962700Y-45777150I0J438150D01*
G01*
X107962700Y-44900850D01*
G75*
G02*
X108400850Y-44462700I438150J0D01*
G01*
X109277150Y-44462700D01*
G75*
G02*
X109715300Y-44900850I0J-438150D01*
G01*
G37*
%TD*%
%TO.C,M2*%
G36*
G01*
X107962700Y-83877150D02*
X107962700Y-83000850D01*
G75*
G02*
X108400850Y-82562700I438150J0D01*
G01*
X109277150Y-82562700D01*
G75*
G02*
X109715300Y-83000850I0J-438150D01*
G01*
X109715300Y-83877150D01*
G75*
G02*
X109277150Y-84315300I-438150J0D01*
G01*
X108400850Y-84315300D01*
G75*
G02*
X107962700Y-83877150I0J438150D01*
G01*
G37*
G36*
G01*
X107962700Y-81845150D02*
X107962700Y-80968850D01*
G75*
G02*
X108400850Y-80530700I438150J0D01*
G01*
X109277150Y-80530700D01*
G75*
G02*
X109715300Y-80968850I0J-438150D01*
G01*
X109715300Y-81845150D01*
G75*
G02*
X109277150Y-82283300I-438150J0D01*
G01*
X108400850Y-82283300D01*
G75*
G02*
X107962700Y-81845150I0J438150D01*
G01*
G37*
G36*
G01*
X107962700Y-79813150D02*
X107962700Y-78936850D01*
G75*
G02*
X108400850Y-78498700I438150J0D01*
G01*
X109277150Y-78498700D01*
G75*
G02*
X109715300Y-78936850I0J-438150D01*
G01*
X109715300Y-79813150D01*
G75*
G02*
X109277150Y-80251300I-438150J0D01*
G01*
X108400850Y-80251300D01*
G75*
G02*
X107962700Y-79813150I0J438150D01*
G01*
G37*
G36*
G01*
X107962700Y-77781150D02*
X107962700Y-76904850D01*
G75*
G02*
X108400850Y-76466700I438150J0D01*
G01*
X109277150Y-76466700D01*
G75*
G02*
X109715300Y-76904850I0J-438150D01*
G01*
X109715300Y-77781150D01*
G75*
G02*
X109277150Y-78219300I-438150J0D01*
G01*
X108400850Y-78219300D01*
G75*
G02*
X107962700Y-77781150I0J438150D01*
G01*
G37*
G36*
G01*
X107962700Y-75749150D02*
X107962700Y-74872850D01*
G75*
G02*
X108400850Y-74434700I438150J0D01*
G01*
X109277150Y-74434700D01*
G75*
G02*
X109715300Y-74872850I0J-438150D01*
G01*
X109715300Y-75749150D01*
G75*
G02*
X109277150Y-76187300I-438150J0D01*
G01*
X108400850Y-76187300D01*
G75*
G02*
X107962700Y-75749150I0J438150D01*
G01*
G37*
%TD*%
%TO.C,M1*%
G36*
G01*
X107962700Y-64827150D02*
X107962700Y-63950850D01*
G75*
G02*
X108400850Y-63512700I438150J0D01*
G01*
X109277150Y-63512700D01*
G75*
G02*
X109715300Y-63950850I0J-438150D01*
G01*
X109715300Y-64827150D01*
G75*
G02*
X109277150Y-65265300I-438150J0D01*
G01*
X108400850Y-65265300D01*
G75*
G02*
X107962700Y-64827150I0J438150D01*
G01*
G37*
G36*
G01*
X107962700Y-62795150D02*
X107962700Y-61918850D01*
G75*
G02*
X108400850Y-61480700I438150J0D01*
G01*
X109277150Y-61480700D01*
G75*
G02*
X109715300Y-61918850I0J-438150D01*
G01*
X109715300Y-62795150D01*
G75*
G02*
X109277150Y-63233300I-438150J0D01*
G01*
X108400850Y-63233300D01*
G75*
G02*
X107962700Y-62795150I0J438150D01*
G01*
G37*
G36*
G01*
X107962700Y-60763150D02*
X107962700Y-59886850D01*
G75*
G02*
X108400850Y-59448700I438150J0D01*
G01*
X109277150Y-59448700D01*
G75*
G02*
X109715300Y-59886850I0J-438150D01*
G01*
X109715300Y-60763150D01*
G75*
G02*
X109277150Y-61201300I-438150J0D01*
G01*
X108400850Y-61201300D01*
G75*
G02*
X107962700Y-60763150I0J438150D01*
G01*
G37*
G36*
G01*
X107962700Y-58731150D02*
X107962700Y-57854850D01*
G75*
G02*
X108400850Y-57416700I438150J0D01*
G01*
X109277150Y-57416700D01*
G75*
G02*
X109715300Y-57854850I0J-438150D01*
G01*
X109715300Y-58731150D01*
G75*
G02*
X109277150Y-59169300I-438150J0D01*
G01*
X108400850Y-59169300D01*
G75*
G02*
X107962700Y-58731150I0J438150D01*
G01*
G37*
G36*
G01*
X107962700Y-56699150D02*
X107962700Y-55822850D01*
G75*
G02*
X108400850Y-55384700I438150J0D01*
G01*
X109277150Y-55384700D01*
G75*
G02*
X109715300Y-55822850I0J-438150D01*
G01*
X109715300Y-56699150D01*
G75*
G02*
X109277150Y-57137300I-438150J0D01*
G01*
X108400850Y-57137300D01*
G75*
G02*
X107962700Y-56699150I0J438150D01*
G01*
G37*
%TD*%
D13*
%TO.C,U1*%
X182473600Y-16986250D03*
X167233600Y-44926250D03*
X182016400Y-19526250D03*
X182473600Y-22066250D03*
X182016400Y-24606250D03*
X182473600Y-27146250D03*
X182016400Y-29686250D03*
X182473600Y-32226250D03*
X182016400Y-34766250D03*
X182473600Y-37306250D03*
X182016400Y-39846250D03*
X182473600Y-42386250D03*
X182016400Y-44926250D03*
X166776400Y-42386250D03*
X167233600Y-39846250D03*
X166776400Y-37306250D03*
X167233600Y-34766250D03*
X166776400Y-32226250D03*
X167233600Y-29686250D03*
X166776400Y-27146250D03*
X167233600Y-24606250D03*
X166776400Y-22066250D03*
X167233600Y-19526250D03*
D14*
X166776400Y-16986250D03*
%TD*%
%TO.C,MX25*%
G36*
G01*
X119898483Y-37897395D02*
X119897597Y-37897334D01*
G75*
G02*
X118852666Y-36697597I77403J1122334D01*
G01*
X118892666Y-36117597D01*
G75*
G02*
X120092403Y-35072666I1122334J-77403D01*
G01*
X120092403Y-35072666D01*
G75*
G02*
X121137334Y-36272403I-77403J-1122334D01*
G01*
X121097334Y-36852403D01*
G75*
G02*
X119897597Y-37897334I-1122334J77403D01*
G01*
G37*
D10*
X120015000Y-36195000D03*
G36*
G01*
X112913688Y-39572350D02*
X112913683Y-39572345D01*
G75*
G02*
X112827655Y-37983683I751317J837345D01*
G01*
X114137657Y-36523683D01*
G75*
G02*
X115726319Y-36437655I837345J-751317D01*
G01*
X115726319Y-36437655D01*
G75*
G02*
X115812347Y-38026317I-751317J-837345D01*
G01*
X114502345Y-39486317D01*
G75*
G02*
X112913683Y-39572345I-837345J751317D01*
G01*
G37*
D11*
X117475000Y-41275000D03*
D10*
X114975000Y-37275000D03*
D12*
X112395000Y-41275000D03*
X122555000Y-41275000D03*
%TD*%
%TO.C,MX28*%
G36*
G01*
X124660983Y-95047395D02*
X124660097Y-95047334D01*
G75*
G02*
X123615166Y-93847597I77403J1122334D01*
G01*
X123655166Y-93267597D01*
G75*
G02*
X124854903Y-92222666I1122334J-77403D01*
G01*
X124854903Y-92222666D01*
G75*
G02*
X125899834Y-93422403I-77403J-1122334D01*
G01*
X125859834Y-94002403D01*
G75*
G02*
X124660097Y-95047334I-1122334J77403D01*
G01*
G37*
D10*
X124777500Y-93345000D03*
G36*
G01*
X117676188Y-96722350D02*
X117676183Y-96722345D01*
G75*
G02*
X117590155Y-95133683I751317J837345D01*
G01*
X118900157Y-93673683D01*
G75*
G02*
X120488819Y-93587655I837345J-751317D01*
G01*
X120488819Y-93587655D01*
G75*
G02*
X120574847Y-95176317I-751317J-837345D01*
G01*
X119264845Y-96636317D01*
G75*
G02*
X117676183Y-96722345I-837345J751317D01*
G01*
G37*
D11*
X122237500Y-98425000D03*
D10*
X119737500Y-94425000D03*
D12*
X117157500Y-98425000D03*
X127317500Y-98425000D03*
%TD*%
%TO.C,MX46*%
G36*
G01*
X196098483Y-75997395D02*
X196097597Y-75997334D01*
G75*
G02*
X195052666Y-74797597I77403J1122334D01*
G01*
X195092666Y-74217597D01*
G75*
G02*
X196292403Y-73172666I1122334J-77403D01*
G01*
X196292403Y-73172666D01*
G75*
G02*
X197337334Y-74372403I-77403J-1122334D01*
G01*
X197297334Y-74952403D01*
G75*
G02*
X196097597Y-75997334I-1122334J77403D01*
G01*
G37*
D10*
X196215000Y-74295000D03*
G36*
G01*
X189113688Y-77672350D02*
X189113683Y-77672345D01*
G75*
G02*
X189027655Y-76083683I751317J837345D01*
G01*
X190337657Y-74623683D01*
G75*
G02*
X191926319Y-74537655I837345J-751317D01*
G01*
X191926319Y-74537655D01*
G75*
G02*
X192012347Y-76126317I-751317J-837345D01*
G01*
X190702345Y-77586317D01*
G75*
G02*
X189113683Y-77672345I-837345J751317D01*
G01*
G37*
D11*
X193675000Y-79375000D03*
D10*
X191175000Y-75375000D03*
D12*
X188595000Y-79375000D03*
X198755000Y-79375000D03*
%TD*%
%TO.C,MX45*%
G36*
G01*
X196098483Y-56947395D02*
X196097597Y-56947334D01*
G75*
G02*
X195052666Y-55747597I77403J1122334D01*
G01*
X195092666Y-55167597D01*
G75*
G02*
X196292403Y-54122666I1122334J-77403D01*
G01*
X196292403Y-54122666D01*
G75*
G02*
X197337334Y-55322403I-77403J-1122334D01*
G01*
X197297334Y-55902403D01*
G75*
G02*
X196097597Y-56947334I-1122334J77403D01*
G01*
G37*
D10*
X196215000Y-55245000D03*
G36*
G01*
X189113688Y-58622350D02*
X189113683Y-58622345D01*
G75*
G02*
X189027655Y-57033683I751317J837345D01*
G01*
X190337657Y-55573683D01*
G75*
G02*
X191926319Y-55487655I837345J-751317D01*
G01*
X191926319Y-55487655D01*
G75*
G02*
X192012347Y-57076317I-751317J-837345D01*
G01*
X190702345Y-58536317D01*
G75*
G02*
X189113683Y-58622345I-837345J751317D01*
G01*
G37*
D11*
X193675000Y-60325000D03*
D10*
X191175000Y-56325000D03*
D12*
X188595000Y-60325000D03*
X198755000Y-60325000D03*
%TD*%
%TO.C,MX44*%
G36*
G01*
X196098483Y-37897395D02*
X196097597Y-37897334D01*
G75*
G02*
X195052666Y-36697597I77403J1122334D01*
G01*
X195092666Y-36117597D01*
G75*
G02*
X196292403Y-35072666I1122334J-77403D01*
G01*
X196292403Y-35072666D01*
G75*
G02*
X197337334Y-36272403I-77403J-1122334D01*
G01*
X197297334Y-36852403D01*
G75*
G02*
X196097597Y-37897334I-1122334J77403D01*
G01*
G37*
D10*
X196215000Y-36195000D03*
G36*
G01*
X189113688Y-39572350D02*
X189113683Y-39572345D01*
G75*
G02*
X189027655Y-37983683I751317J837345D01*
G01*
X190337657Y-36523683D01*
G75*
G02*
X191926319Y-36437655I837345J-751317D01*
G01*
X191926319Y-36437655D01*
G75*
G02*
X192012347Y-38026317I-751317J-837345D01*
G01*
X190702345Y-39486317D01*
G75*
G02*
X189113683Y-39572345I-837345J751317D01*
G01*
G37*
D11*
X193675000Y-41275000D03*
D10*
X191175000Y-37275000D03*
D12*
X188595000Y-41275000D03*
X198755000Y-41275000D03*
%TD*%
%TO.C,MX43*%
G36*
G01*
X196098483Y-18847395D02*
X196097597Y-18847334D01*
G75*
G02*
X195052666Y-17647597I77403J1122334D01*
G01*
X195092666Y-17067597D01*
G75*
G02*
X196292403Y-16022666I1122334J-77403D01*
G01*
X196292403Y-16022666D01*
G75*
G02*
X197337334Y-17222403I-77403J-1122334D01*
G01*
X197297334Y-17802403D01*
G75*
G02*
X196097597Y-18847334I-1122334J77403D01*
G01*
G37*
D10*
X196215000Y-17145000D03*
G36*
G01*
X189113688Y-20522350D02*
X189113683Y-20522345D01*
G75*
G02*
X189027655Y-18933683I751317J837345D01*
G01*
X190337657Y-17473683D01*
G75*
G02*
X191926319Y-17387655I837345J-751317D01*
G01*
X191926319Y-17387655D01*
G75*
G02*
X192012347Y-18976317I-751317J-837345D01*
G01*
X190702345Y-20436317D01*
G75*
G02*
X189113683Y-20522345I-837345J751317D01*
G01*
G37*
D11*
X193675000Y-22225000D03*
D10*
X191175000Y-18225000D03*
D12*
X188595000Y-22225000D03*
X198755000Y-22225000D03*
%TD*%
%TO.C,MX42*%
G36*
G01*
X177048483Y-75997395D02*
X177047597Y-75997334D01*
G75*
G02*
X176002666Y-74797597I77403J1122334D01*
G01*
X176042666Y-74217597D01*
G75*
G02*
X177242403Y-73172666I1122334J-77403D01*
G01*
X177242403Y-73172666D01*
G75*
G02*
X178287334Y-74372403I-77403J-1122334D01*
G01*
X178247334Y-74952403D01*
G75*
G02*
X177047597Y-75997334I-1122334J77403D01*
G01*
G37*
D10*
X177165000Y-74295000D03*
G36*
G01*
X170063688Y-77672350D02*
X170063683Y-77672345D01*
G75*
G02*
X169977655Y-76083683I751317J837345D01*
G01*
X171287657Y-74623683D01*
G75*
G02*
X172876319Y-74537655I837345J-751317D01*
G01*
X172876319Y-74537655D01*
G75*
G02*
X172962347Y-76126317I-751317J-837345D01*
G01*
X171652345Y-77586317D01*
G75*
G02*
X170063683Y-77672345I-837345J751317D01*
G01*
G37*
D11*
X174625000Y-79375000D03*
D10*
X172125000Y-75375000D03*
D12*
X169545000Y-79375000D03*
X179705000Y-79375000D03*
%TD*%
%TO.C,MX41*%
G36*
G01*
X177048483Y-56947395D02*
X177047597Y-56947334D01*
G75*
G02*
X176002666Y-55747597I77403J1122334D01*
G01*
X176042666Y-55167597D01*
G75*
G02*
X177242403Y-54122666I1122334J-77403D01*
G01*
X177242403Y-54122666D01*
G75*
G02*
X178287334Y-55322403I-77403J-1122334D01*
G01*
X178247334Y-55902403D01*
G75*
G02*
X177047597Y-56947334I-1122334J77403D01*
G01*
G37*
D10*
X177165000Y-55245000D03*
G36*
G01*
X170063688Y-58622350D02*
X170063683Y-58622345D01*
G75*
G02*
X169977655Y-57033683I751317J837345D01*
G01*
X171287657Y-55573683D01*
G75*
G02*
X172876319Y-55487655I837345J-751317D01*
G01*
X172876319Y-55487655D01*
G75*
G02*
X172962347Y-57076317I-751317J-837345D01*
G01*
X171652345Y-58536317D01*
G75*
G02*
X170063683Y-58622345I-837345J751317D01*
G01*
G37*
D11*
X174625000Y-60325000D03*
D10*
X172125000Y-56325000D03*
D12*
X169545000Y-60325000D03*
X179705000Y-60325000D03*
%TD*%
%TO.C,MX40*%
G36*
G01*
X177048483Y-37897395D02*
X177047597Y-37897334D01*
G75*
G02*
X176002666Y-36697597I77403J1122334D01*
G01*
X176042666Y-36117597D01*
G75*
G02*
X177242403Y-35072666I1122334J-77403D01*
G01*
X177242403Y-35072666D01*
G75*
G02*
X178287334Y-36272403I-77403J-1122334D01*
G01*
X178247334Y-36852403D01*
G75*
G02*
X177047597Y-37897334I-1122334J77403D01*
G01*
G37*
D10*
X177165000Y-36195000D03*
G36*
G01*
X170063688Y-39572350D02*
X170063683Y-39572345D01*
G75*
G02*
X169977655Y-37983683I751317J837345D01*
G01*
X171287657Y-36523683D01*
G75*
G02*
X172876319Y-36437655I837345J-751317D01*
G01*
X172876319Y-36437655D01*
G75*
G02*
X172962347Y-38026317I-751317J-837345D01*
G01*
X171652345Y-39486317D01*
G75*
G02*
X170063683Y-39572345I-837345J751317D01*
G01*
G37*
D11*
X174625000Y-41275000D03*
D10*
X172125000Y-37275000D03*
D12*
X169545000Y-41275000D03*
X179705000Y-41275000D03*
%TD*%
%TO.C,MX39*%
G36*
G01*
X177048483Y-18847395D02*
X177047597Y-18847334D01*
G75*
G02*
X176002666Y-17647597I77403J1122334D01*
G01*
X176042666Y-17067597D01*
G75*
G02*
X177242403Y-16022666I1122334J-77403D01*
G01*
X177242403Y-16022666D01*
G75*
G02*
X178287334Y-17222403I-77403J-1122334D01*
G01*
X178247334Y-17802403D01*
G75*
G02*
X177047597Y-18847334I-1122334J77403D01*
G01*
G37*
D10*
X177165000Y-17145000D03*
G36*
G01*
X170063688Y-20522350D02*
X170063683Y-20522345D01*
G75*
G02*
X169977655Y-18933683I751317J837345D01*
G01*
X171287657Y-17473683D01*
G75*
G02*
X172876319Y-17387655I837345J-751317D01*
G01*
X172876319Y-17387655D01*
G75*
G02*
X172962347Y-18976317I-751317J-837345D01*
G01*
X171652345Y-20436317D01*
G75*
G02*
X170063683Y-20522345I-837345J751317D01*
G01*
G37*
D11*
X174625000Y-22225000D03*
D10*
X172125000Y-18225000D03*
D12*
X169545000Y-22225000D03*
X179705000Y-22225000D03*
%TD*%
%TO.C,MX37*%
G36*
G01*
X157998483Y-75997395D02*
X157997597Y-75997334D01*
G75*
G02*
X156952666Y-74797597I77403J1122334D01*
G01*
X156992666Y-74217597D01*
G75*
G02*
X158192403Y-73172666I1122334J-77403D01*
G01*
X158192403Y-73172666D01*
G75*
G02*
X159237334Y-74372403I-77403J-1122334D01*
G01*
X159197334Y-74952403D01*
G75*
G02*
X157997597Y-75997334I-1122334J77403D01*
G01*
G37*
D10*
X158115000Y-74295000D03*
G36*
G01*
X151013688Y-77672350D02*
X151013683Y-77672345D01*
G75*
G02*
X150927655Y-76083683I751317J837345D01*
G01*
X152237657Y-74623683D01*
G75*
G02*
X153826319Y-74537655I837345J-751317D01*
G01*
X153826319Y-74537655D01*
G75*
G02*
X153912347Y-76126317I-751317J-837345D01*
G01*
X152602345Y-77586317D01*
G75*
G02*
X151013683Y-77672345I-837345J751317D01*
G01*
G37*
D11*
X155575000Y-79375000D03*
D10*
X153075000Y-75375000D03*
D12*
X150495000Y-79375000D03*
X160655000Y-79375000D03*
%TD*%
%TO.C,MX36*%
G36*
G01*
X157998483Y-56947395D02*
X157997597Y-56947334D01*
G75*
G02*
X156952666Y-55747597I77403J1122334D01*
G01*
X156992666Y-55167597D01*
G75*
G02*
X158192403Y-54122666I1122334J-77403D01*
G01*
X158192403Y-54122666D01*
G75*
G02*
X159237334Y-55322403I-77403J-1122334D01*
G01*
X159197334Y-55902403D01*
G75*
G02*
X157997597Y-56947334I-1122334J77403D01*
G01*
G37*
D10*
X158115000Y-55245000D03*
G36*
G01*
X151013688Y-58622350D02*
X151013683Y-58622345D01*
G75*
G02*
X150927655Y-57033683I751317J837345D01*
G01*
X152237657Y-55573683D01*
G75*
G02*
X153826319Y-55487655I837345J-751317D01*
G01*
X153826319Y-55487655D01*
G75*
G02*
X153912347Y-57076317I-751317J-837345D01*
G01*
X152602345Y-58536317D01*
G75*
G02*
X151013683Y-58622345I-837345J751317D01*
G01*
G37*
D11*
X155575000Y-60325000D03*
D10*
X153075000Y-56325000D03*
D12*
X150495000Y-60325000D03*
X160655000Y-60325000D03*
%TD*%
%TO.C,MX35*%
G36*
G01*
X157998483Y-37897395D02*
X157997597Y-37897334D01*
G75*
G02*
X156952666Y-36697597I77403J1122334D01*
G01*
X156992666Y-36117597D01*
G75*
G02*
X158192403Y-35072666I1122334J-77403D01*
G01*
X158192403Y-35072666D01*
G75*
G02*
X159237334Y-36272403I-77403J-1122334D01*
G01*
X159197334Y-36852403D01*
G75*
G02*
X157997597Y-37897334I-1122334J77403D01*
G01*
G37*
D10*
X158115000Y-36195000D03*
G36*
G01*
X151013688Y-39572350D02*
X151013683Y-39572345D01*
G75*
G02*
X150927655Y-37983683I751317J837345D01*
G01*
X152237657Y-36523683D01*
G75*
G02*
X153826319Y-36437655I837345J-751317D01*
G01*
X153826319Y-36437655D01*
G75*
G02*
X153912347Y-38026317I-751317J-837345D01*
G01*
X152602345Y-39486317D01*
G75*
G02*
X151013683Y-39572345I-837345J751317D01*
G01*
G37*
D11*
X155575000Y-41275000D03*
D10*
X153075000Y-37275000D03*
D12*
X150495000Y-41275000D03*
X160655000Y-41275000D03*
%TD*%
%TO.C,MX34*%
G36*
G01*
X157998483Y-18847395D02*
X157997597Y-18847334D01*
G75*
G02*
X156952666Y-17647597I77403J1122334D01*
G01*
X156992666Y-17067597D01*
G75*
G02*
X158192403Y-16022666I1122334J-77403D01*
G01*
X158192403Y-16022666D01*
G75*
G02*
X159237334Y-17222403I-77403J-1122334D01*
G01*
X159197334Y-17802403D01*
G75*
G02*
X157997597Y-18847334I-1122334J77403D01*
G01*
G37*
D10*
X158115000Y-17145000D03*
G36*
G01*
X151013688Y-20522350D02*
X151013683Y-20522345D01*
G75*
G02*
X150927655Y-18933683I751317J837345D01*
G01*
X152237657Y-17473683D01*
G75*
G02*
X153826319Y-17387655I837345J-751317D01*
G01*
X153826319Y-17387655D01*
G75*
G02*
X153912347Y-18976317I-751317J-837345D01*
G01*
X152602345Y-20436317D01*
G75*
G02*
X151013683Y-20522345I-837345J751317D01*
G01*
G37*
D11*
X155575000Y-22225000D03*
D10*
X153075000Y-18225000D03*
D12*
X150495000Y-22225000D03*
X160655000Y-22225000D03*
%TD*%
%TO.C,MX33*%
G36*
G01*
X148473483Y-95047395D02*
X148472597Y-95047334D01*
G75*
G02*
X147427666Y-93847597I77403J1122334D01*
G01*
X147467666Y-93267597D01*
G75*
G02*
X148667403Y-92222666I1122334J-77403D01*
G01*
X148667403Y-92222666D01*
G75*
G02*
X149712334Y-93422403I-77403J-1122334D01*
G01*
X149672334Y-94002403D01*
G75*
G02*
X148472597Y-95047334I-1122334J77403D01*
G01*
G37*
D10*
X148590000Y-93345000D03*
G36*
G01*
X141488688Y-96722350D02*
X141488683Y-96722345D01*
G75*
G02*
X141402655Y-95133683I751317J837345D01*
G01*
X142712657Y-93673683D01*
G75*
G02*
X144301319Y-93587655I837345J-751317D01*
G01*
X144301319Y-93587655D01*
G75*
G02*
X144387347Y-95176317I-751317J-837345D01*
G01*
X143077345Y-96636317D01*
G75*
G02*
X141488683Y-96722345I-837345J751317D01*
G01*
G37*
D11*
X146050000Y-98425000D03*
D10*
X143550000Y-94425000D03*
D12*
X140970000Y-98425000D03*
X151130000Y-98425000D03*
%TD*%
%TO.C,MX32*%
G36*
G01*
X138948483Y-75997395D02*
X138947597Y-75997334D01*
G75*
G02*
X137902666Y-74797597I77403J1122334D01*
G01*
X137942666Y-74217597D01*
G75*
G02*
X139142403Y-73172666I1122334J-77403D01*
G01*
X139142403Y-73172666D01*
G75*
G02*
X140187334Y-74372403I-77403J-1122334D01*
G01*
X140147334Y-74952403D01*
G75*
G02*
X138947597Y-75997334I-1122334J77403D01*
G01*
G37*
D10*
X139065000Y-74295000D03*
G36*
G01*
X131963688Y-77672350D02*
X131963683Y-77672345D01*
G75*
G02*
X131877655Y-76083683I751317J837345D01*
G01*
X133187657Y-74623683D01*
G75*
G02*
X134776319Y-74537655I837345J-751317D01*
G01*
X134776319Y-74537655D01*
G75*
G02*
X134862347Y-76126317I-751317J-837345D01*
G01*
X133552345Y-77586317D01*
G75*
G02*
X131963683Y-77672345I-837345J751317D01*
G01*
G37*
D11*
X136525000Y-79375000D03*
D10*
X134025000Y-75375000D03*
D12*
X131445000Y-79375000D03*
X141605000Y-79375000D03*
%TD*%
%TO.C,MX31*%
G36*
G01*
X138948483Y-56947395D02*
X138947597Y-56947334D01*
G75*
G02*
X137902666Y-55747597I77403J1122334D01*
G01*
X137942666Y-55167597D01*
G75*
G02*
X139142403Y-54122666I1122334J-77403D01*
G01*
X139142403Y-54122666D01*
G75*
G02*
X140187334Y-55322403I-77403J-1122334D01*
G01*
X140147334Y-55902403D01*
G75*
G02*
X138947597Y-56947334I-1122334J77403D01*
G01*
G37*
D10*
X139065000Y-55245000D03*
G36*
G01*
X131963688Y-58622350D02*
X131963683Y-58622345D01*
G75*
G02*
X131877655Y-57033683I751317J837345D01*
G01*
X133187657Y-55573683D01*
G75*
G02*
X134776319Y-55487655I837345J-751317D01*
G01*
X134776319Y-55487655D01*
G75*
G02*
X134862347Y-57076317I-751317J-837345D01*
G01*
X133552345Y-58536317D01*
G75*
G02*
X131963683Y-58622345I-837345J751317D01*
G01*
G37*
D11*
X136525000Y-60325000D03*
D10*
X134025000Y-56325000D03*
D12*
X131445000Y-60325000D03*
X141605000Y-60325000D03*
%TD*%
%TO.C,MX30*%
G36*
G01*
X138948483Y-37897395D02*
X138947597Y-37897334D01*
G75*
G02*
X137902666Y-36697597I77403J1122334D01*
G01*
X137942666Y-36117597D01*
G75*
G02*
X139142403Y-35072666I1122334J-77403D01*
G01*
X139142403Y-35072666D01*
G75*
G02*
X140187334Y-36272403I-77403J-1122334D01*
G01*
X140147334Y-36852403D01*
G75*
G02*
X138947597Y-37897334I-1122334J77403D01*
G01*
G37*
D10*
X139065000Y-36195000D03*
G36*
G01*
X131963688Y-39572350D02*
X131963683Y-39572345D01*
G75*
G02*
X131877655Y-37983683I751317J837345D01*
G01*
X133187657Y-36523683D01*
G75*
G02*
X134776319Y-36437655I837345J-751317D01*
G01*
X134776319Y-36437655D01*
G75*
G02*
X134862347Y-38026317I-751317J-837345D01*
G01*
X133552345Y-39486317D01*
G75*
G02*
X131963683Y-39572345I-837345J751317D01*
G01*
G37*
D11*
X136525000Y-41275000D03*
D10*
X134025000Y-37275000D03*
D12*
X131445000Y-41275000D03*
X141605000Y-41275000D03*
%TD*%
%TO.C,MX29*%
G36*
G01*
X138948483Y-18847395D02*
X138947597Y-18847334D01*
G75*
G02*
X137902666Y-17647597I77403J1122334D01*
G01*
X137942666Y-17067597D01*
G75*
G02*
X139142403Y-16022666I1122334J-77403D01*
G01*
X139142403Y-16022666D01*
G75*
G02*
X140187334Y-17222403I-77403J-1122334D01*
G01*
X140147334Y-17802403D01*
G75*
G02*
X138947597Y-18847334I-1122334J77403D01*
G01*
G37*
D10*
X139065000Y-17145000D03*
G36*
G01*
X131963688Y-20522350D02*
X131963683Y-20522345D01*
G75*
G02*
X131877655Y-18933683I751317J837345D01*
G01*
X133187657Y-17473683D01*
G75*
G02*
X134776319Y-17387655I837345J-751317D01*
G01*
X134776319Y-17387655D01*
G75*
G02*
X134862347Y-18976317I-751317J-837345D01*
G01*
X133552345Y-20436317D01*
G75*
G02*
X131963683Y-20522345I-837345J751317D01*
G01*
G37*
D11*
X136525000Y-22225000D03*
D10*
X134025000Y-18225000D03*
D12*
X131445000Y-22225000D03*
X141605000Y-22225000D03*
%TD*%
%TO.C,MX27*%
G36*
G01*
X119898483Y-75997395D02*
X119897597Y-75997334D01*
G75*
G02*
X118852666Y-74797597I77403J1122334D01*
G01*
X118892666Y-74217597D01*
G75*
G02*
X120092403Y-73172666I1122334J-77403D01*
G01*
X120092403Y-73172666D01*
G75*
G02*
X121137334Y-74372403I-77403J-1122334D01*
G01*
X121097334Y-74952403D01*
G75*
G02*
X119897597Y-75997334I-1122334J77403D01*
G01*
G37*
D10*
X120015000Y-74295000D03*
G36*
G01*
X112913688Y-77672350D02*
X112913683Y-77672345D01*
G75*
G02*
X112827655Y-76083683I751317J837345D01*
G01*
X114137657Y-74623683D01*
G75*
G02*
X115726319Y-74537655I837345J-751317D01*
G01*
X115726319Y-74537655D01*
G75*
G02*
X115812347Y-76126317I-751317J-837345D01*
G01*
X114502345Y-77586317D01*
G75*
G02*
X112913683Y-77672345I-837345J751317D01*
G01*
G37*
D11*
X117475000Y-79375000D03*
D10*
X114975000Y-75375000D03*
D12*
X112395000Y-79375000D03*
X122555000Y-79375000D03*
%TD*%
%TO.C,MX26*%
G36*
G01*
X119898483Y-56947395D02*
X119897597Y-56947334D01*
G75*
G02*
X118852666Y-55747597I77403J1122334D01*
G01*
X118892666Y-55167597D01*
G75*
G02*
X120092403Y-54122666I1122334J-77403D01*
G01*
X120092403Y-54122666D01*
G75*
G02*
X121137334Y-55322403I-77403J-1122334D01*
G01*
X121097334Y-55902403D01*
G75*
G02*
X119897597Y-56947334I-1122334J77403D01*
G01*
G37*
D10*
X120015000Y-55245000D03*
G36*
G01*
X112913688Y-58622350D02*
X112913683Y-58622345D01*
G75*
G02*
X112827655Y-57033683I751317J837345D01*
G01*
X114137657Y-55573683D01*
G75*
G02*
X115726319Y-55487655I837345J-751317D01*
G01*
X115726319Y-55487655D01*
G75*
G02*
X115812347Y-57076317I-751317J-837345D01*
G01*
X114502345Y-58536317D01*
G75*
G02*
X112913683Y-58622345I-837345J751317D01*
G01*
G37*
D11*
X117475000Y-60325000D03*
D10*
X114975000Y-56325000D03*
D12*
X112395000Y-60325000D03*
X122555000Y-60325000D03*
%TD*%
%TO.C,MX24*%
G36*
G01*
X119898483Y-18847395D02*
X119897597Y-18847334D01*
G75*
G02*
X118852666Y-17647597I77403J1122334D01*
G01*
X118892666Y-17067597D01*
G75*
G02*
X120092403Y-16022666I1122334J-77403D01*
G01*
X120092403Y-16022666D01*
G75*
G02*
X121137334Y-17222403I-77403J-1122334D01*
G01*
X121097334Y-17802403D01*
G75*
G02*
X119897597Y-18847334I-1122334J77403D01*
G01*
G37*
D10*
X120015000Y-17145000D03*
G36*
G01*
X112913688Y-20522350D02*
X112913683Y-20522345D01*
G75*
G02*
X112827655Y-18933683I751317J837345D01*
G01*
X114137657Y-17473683D01*
G75*
G02*
X115726319Y-17387655I837345J-751317D01*
G01*
X115726319Y-17387655D01*
G75*
G02*
X115812347Y-18976317I-751317J-837345D01*
G01*
X114502345Y-20436317D01*
G75*
G02*
X112913683Y-20522345I-837345J751317D01*
G01*
G37*
D11*
X117475000Y-22225000D03*
D10*
X114975000Y-18225000D03*
D12*
X112395000Y-22225000D03*
X122555000Y-22225000D03*
%TD*%
D15*
%TO.C,D46*%
X201612500Y-83275000D03*
D16*
X201612500Y-75475000D03*
D17*
X201612500Y-80775000D03*
X201612500Y-77975000D03*
%TD*%
D15*
%TO.C,D45*%
X201612500Y-64225000D03*
D16*
X201612500Y-56425000D03*
D17*
X201612500Y-61725000D03*
X201612500Y-58925000D03*
%TD*%
D15*
%TO.C,D44*%
X201612500Y-45175000D03*
D16*
X201612500Y-37375000D03*
D17*
X201612500Y-42675000D03*
X201612500Y-39875000D03*
%TD*%
D15*
%TO.C,D43*%
X201612500Y-26125000D03*
D16*
X201612500Y-18325000D03*
D17*
X201612500Y-23625000D03*
X201612500Y-20825000D03*
%TD*%
D15*
%TO.C,D42*%
X182562500Y-83272000D03*
D16*
X182562500Y-75472000D03*
D17*
X182562500Y-80772000D03*
X182562500Y-77972000D03*
%TD*%
D15*
%TO.C,D41*%
X182562500Y-64225000D03*
D16*
X182562500Y-56425000D03*
D17*
X182562500Y-61725000D03*
X182562500Y-58925000D03*
%TD*%
D15*
%TO.C,D40*%
X170725000Y-49212500D03*
D16*
X178525000Y-49212500D03*
D18*
X173225000Y-49212500D03*
X176025000Y-49212500D03*
%TD*%
D15*
%TO.C,D39*%
X170725000Y-30162500D03*
D16*
X178525000Y-30162500D03*
D18*
X173225000Y-30162500D03*
X176025000Y-30162500D03*
%TD*%
D15*
%TO.C,D38*%
X157162500Y-102325000D03*
D16*
X157162500Y-94525000D03*
D17*
X157162500Y-99825000D03*
X157162500Y-97025000D03*
%TD*%
D15*
%TO.C,D37*%
X163512500Y-83275000D03*
D16*
X163512500Y-75475000D03*
D17*
X163512500Y-80775000D03*
X163512500Y-77975000D03*
%TD*%
D15*
%TO.C,D36*%
X163512500Y-64225000D03*
D16*
X163512500Y-56425000D03*
D17*
X163512500Y-61725000D03*
X163512500Y-58925000D03*
%TD*%
D15*
%TO.C,D35*%
X163512500Y-45175000D03*
D16*
X163512500Y-37375000D03*
D17*
X163512500Y-42675000D03*
X163512500Y-39875000D03*
%TD*%
D15*
%TO.C,D34*%
X163512500Y-26125000D03*
D16*
X163512500Y-18325000D03*
D17*
X163512500Y-23625000D03*
X163512500Y-20825000D03*
%TD*%
D15*
%TO.C,D33*%
X153987500Y-102325000D03*
D16*
X153987500Y-94525000D03*
D17*
X153987500Y-99825000D03*
X153987500Y-97025000D03*
%TD*%
D15*
%TO.C,D32*%
X144462500Y-83275000D03*
D16*
X144462500Y-75475000D03*
D17*
X144462500Y-80775000D03*
X144462500Y-77975000D03*
%TD*%
D15*
%TO.C,D31*%
X144462500Y-64225000D03*
D16*
X144462500Y-56425000D03*
D17*
X144462500Y-61725000D03*
X144462500Y-58925000D03*
%TD*%
D15*
%TO.C,D30*%
X144462500Y-45175000D03*
D16*
X144462500Y-37375000D03*
D17*
X144462500Y-42675000D03*
X144462500Y-39875000D03*
%TD*%
D15*
%TO.C,D29*%
X144462500Y-26125000D03*
D16*
X144462500Y-18325000D03*
D17*
X144462500Y-23625000D03*
X144462500Y-20825000D03*
%TD*%
D15*
%TO.C,D28*%
X130175000Y-102325000D03*
D16*
X130175000Y-94525000D03*
D17*
X130175000Y-99825000D03*
X130175000Y-97025000D03*
%TD*%
D15*
%TO.C,D27*%
X125412500Y-83275000D03*
D16*
X125412500Y-75475000D03*
D17*
X125412500Y-80775000D03*
X125412500Y-77975000D03*
%TD*%
D15*
%TO.C,D26*%
X125412500Y-64225000D03*
D16*
X125412500Y-56425000D03*
D17*
X125412500Y-61725000D03*
X125412500Y-58925000D03*
%TD*%
D15*
%TO.C,D25*%
X114368750Y-49212500D03*
D16*
X122168750Y-49212500D03*
D18*
X116868750Y-49212500D03*
X119668750Y-49212500D03*
%TD*%
D15*
%TO.C,D24*%
X125412500Y-26125000D03*
D16*
X125412500Y-18325000D03*
D17*
X125412500Y-23625000D03*
X125412500Y-20825000D03*
%TD*%
M02*
