%TF.GenerationSoftware,KiCad,Pcbnew,(5.1.12)-1*%
%TF.CreationDate,2022-01-01T22:18:58-05:00*%
%TF.ProjectId,my-keeb-2,6d792d6b-6565-4622-9d32-2e6b69636164,rev?*%
%TF.SameCoordinates,Original*%
%TF.FileFunction,Legend,Top*%
%TF.FilePolarity,Positive*%
%FSLAX46Y46*%
G04 Gerber Fmt 4.6, Leading zero omitted, Abs format (unit mm)*
G04 Created by KiCad (PCBNEW (5.1.12)-1) date 2022-01-01 22:18:58*
%MOMM*%
%LPD*%
G01*
G04 APERTURE LIST*
%ADD10C,0.381000*%
%ADD11C,0.150000*%
%ADD12C,3.987800*%
%ADD13C,1.750000*%
%ADD14C,1.752600*%
%ADD15R,1.752600X1.752600*%
%ADD16R,1.600000X1.600000*%
%ADD17C,1.600000*%
G04 APERTURE END LIST*
D10*
%TO.C,U1*%
X168275000Y-15716250D02*
X165735000Y-15716250D01*
X165735000Y-13176250D02*
X165735000Y-15716250D01*
X183515000Y-13176250D02*
X165735000Y-13176250D01*
X183515000Y-15716250D02*
X183515000Y-13176250D01*
D11*
G36*
X179556568Y-22195610D02*
G01*
X179556568Y-22395610D01*
X179456568Y-22395610D01*
X179456568Y-22195610D01*
X179556568Y-22195610D01*
G37*
X179556568Y-22195610D02*
X179556568Y-22395610D01*
X179456568Y-22395610D01*
X179456568Y-22195610D01*
X179556568Y-22195610D01*
G36*
X179156568Y-21595610D02*
G01*
X179156568Y-22395610D01*
X179056568Y-22395610D01*
X179056568Y-21595610D01*
X179156568Y-21595610D01*
G37*
X179156568Y-21595610D02*
X179156568Y-22395610D01*
X179056568Y-22395610D01*
X179056568Y-21595610D01*
X179156568Y-21595610D01*
G36*
X179556568Y-21595610D02*
G01*
X179556568Y-21695610D01*
X179056568Y-21695610D01*
X179056568Y-21595610D01*
X179556568Y-21595610D01*
G37*
X179556568Y-21595610D02*
X179556568Y-21695610D01*
X179056568Y-21695610D01*
X179056568Y-21595610D01*
X179556568Y-21595610D01*
G36*
X179356568Y-21995610D02*
G01*
X179356568Y-22095610D01*
X179256568Y-22095610D01*
X179256568Y-21995610D01*
X179356568Y-21995610D01*
G37*
X179356568Y-21995610D02*
X179356568Y-22095610D01*
X179256568Y-22095610D01*
X179256568Y-21995610D01*
X179356568Y-21995610D01*
G36*
X179556568Y-21595610D02*
G01*
X179556568Y-21895610D01*
X179456568Y-21895610D01*
X179456568Y-21595610D01*
X179556568Y-21595610D01*
G37*
X179556568Y-21595610D02*
X179556568Y-21895610D01*
X179456568Y-21895610D01*
X179456568Y-21595610D01*
X179556568Y-21595610D01*
D10*
X168275000Y-18256250D02*
X165735000Y-18256250D01*
X168275000Y-15716250D02*
X168275000Y-18256250D01*
X183515000Y-46196250D02*
X183515000Y-15716250D01*
X165735000Y-46196250D02*
X183515000Y-46196250D01*
X165735000Y-15716250D02*
X165735000Y-46196250D01*
%TO.C,M3*%
D11*
X107640380Y-42084523D02*
X106640380Y-42084523D01*
X107354666Y-41751190D01*
X106640380Y-41417857D01*
X107640380Y-41417857D01*
X106640380Y-41036904D02*
X106640380Y-40417857D01*
X107021333Y-40751190D01*
X107021333Y-40608333D01*
X107068952Y-40513095D01*
X107116571Y-40465476D01*
X107211809Y-40417857D01*
X107449904Y-40417857D01*
X107545142Y-40465476D01*
X107592761Y-40513095D01*
X107640380Y-40608333D01*
X107640380Y-40894047D01*
X107592761Y-40989285D01*
X107545142Y-41036904D01*
%TO.C,M2*%
X110942380Y-80184523D02*
X109942380Y-80184523D01*
X110656666Y-79851190D01*
X109942380Y-79517857D01*
X110942380Y-79517857D01*
X110037619Y-79089285D02*
X109990000Y-79041666D01*
X109942380Y-78946428D01*
X109942380Y-78708333D01*
X109990000Y-78613095D01*
X110037619Y-78565476D01*
X110132857Y-78517857D01*
X110228095Y-78517857D01*
X110370952Y-78565476D01*
X110942380Y-79136904D01*
X110942380Y-78517857D01*
%TO.C,M1*%
X110942380Y-61134523D02*
X109942380Y-61134523D01*
X110656666Y-60801190D01*
X109942380Y-60467857D01*
X110942380Y-60467857D01*
X110942380Y-59467857D02*
X110942380Y-60039285D01*
X110942380Y-59753571D02*
X109942380Y-59753571D01*
X110085238Y-59848809D01*
X110180476Y-59944047D01*
X110228095Y-60039285D01*
%TO.C,U1*%
X168862651Y-16548154D02*
X169319794Y-16548154D01*
X169091223Y-17348154D02*
X169091223Y-16548154D01*
X169510270Y-16548154D02*
X170043604Y-17348154D01*
X170043604Y-16548154D02*
X169510270Y-17348154D01*
X170500747Y-16548154D02*
X170576937Y-16548154D01*
X170653128Y-16586250D01*
X170691223Y-16624345D01*
X170729318Y-16700535D01*
X170767413Y-16852916D01*
X170767413Y-17043392D01*
X170729318Y-17195773D01*
X170691223Y-17271964D01*
X170653128Y-17310059D01*
X170576937Y-17348154D01*
X170500747Y-17348154D01*
X170424556Y-17310059D01*
X170386461Y-17271964D01*
X170348366Y-17195773D01*
X170310270Y-17043392D01*
X170310270Y-16852916D01*
X170348366Y-16700535D01*
X170386461Y-16624345D01*
X170424556Y-16586250D01*
X170500747Y-16548154D01*
X171681699Y-16510059D02*
X170995985Y-17538630D01*
X171948366Y-17348154D02*
X171948366Y-16548154D01*
X172138842Y-16548154D01*
X172253128Y-16586250D01*
X172329318Y-16662440D01*
X172367413Y-16738630D01*
X172405508Y-16891011D01*
X172405508Y-17005297D01*
X172367413Y-17157678D01*
X172329318Y-17233869D01*
X172253128Y-17310059D01*
X172138842Y-17348154D01*
X171948366Y-17348154D01*
X172672175Y-16548154D02*
X173167413Y-16548154D01*
X172900747Y-16852916D01*
X173015032Y-16852916D01*
X173091223Y-16891011D01*
X173129318Y-16929107D01*
X173167413Y-17005297D01*
X173167413Y-17195773D01*
X173129318Y-17271964D01*
X173091223Y-17310059D01*
X173015032Y-17348154D01*
X172786461Y-17348154D01*
X172710270Y-17310059D01*
X172672175Y-17271964D01*
X168573523Y-19888154D02*
X168573523Y-19088154D01*
X168764000Y-19088154D01*
X168878285Y-19126250D01*
X168954476Y-19202440D01*
X168992571Y-19278630D01*
X169030666Y-19431011D01*
X169030666Y-19545297D01*
X168992571Y-19697678D01*
X168954476Y-19773869D01*
X168878285Y-19850059D01*
X168764000Y-19888154D01*
X168573523Y-19888154D01*
X169335428Y-19164345D02*
X169373523Y-19126250D01*
X169449714Y-19088154D01*
X169640190Y-19088154D01*
X169716380Y-19126250D01*
X169754476Y-19164345D01*
X169792571Y-19240535D01*
X169792571Y-19316726D01*
X169754476Y-19431011D01*
X169297333Y-19888154D01*
X169792571Y-19888154D01*
X168573523Y-30048154D02*
X168573523Y-29248154D01*
X168764000Y-29248154D01*
X168878285Y-29286250D01*
X168954476Y-29362440D01*
X168992571Y-29438630D01*
X169030666Y-29591011D01*
X169030666Y-29705297D01*
X168992571Y-29857678D01*
X168954476Y-29933869D01*
X168878285Y-30010059D01*
X168764000Y-30048154D01*
X168573523Y-30048154D01*
X169525904Y-29248154D02*
X169602095Y-29248154D01*
X169678285Y-29286250D01*
X169716380Y-29324345D01*
X169754476Y-29400535D01*
X169792571Y-29552916D01*
X169792571Y-29743392D01*
X169754476Y-29895773D01*
X169716380Y-29971964D01*
X169678285Y-30010059D01*
X169602095Y-30048154D01*
X169525904Y-30048154D01*
X169449714Y-30010059D01*
X169411619Y-29971964D01*
X169373523Y-29895773D01*
X169335428Y-29743392D01*
X169335428Y-29552916D01*
X169373523Y-29400535D01*
X169411619Y-29324345D01*
X169449714Y-29286250D01*
X169525904Y-29248154D01*
X168573523Y-27508154D02*
X168573523Y-26708154D01*
X168764000Y-26708154D01*
X168878285Y-26746250D01*
X168954476Y-26822440D01*
X168992571Y-26898630D01*
X169030666Y-27051011D01*
X169030666Y-27165297D01*
X168992571Y-27317678D01*
X168954476Y-27393869D01*
X168878285Y-27470059D01*
X168764000Y-27508154D01*
X168573523Y-27508154D01*
X169792571Y-27508154D02*
X169335428Y-27508154D01*
X169564000Y-27508154D02*
X169564000Y-26708154D01*
X169487809Y-26822440D01*
X169411619Y-26898630D01*
X169335428Y-26936726D01*
X168554476Y-24206250D02*
X168478285Y-24168154D01*
X168364000Y-24168154D01*
X168249714Y-24206250D01*
X168173523Y-24282440D01*
X168135428Y-24358630D01*
X168097333Y-24511011D01*
X168097333Y-24625297D01*
X168135428Y-24777678D01*
X168173523Y-24853869D01*
X168249714Y-24930059D01*
X168364000Y-24968154D01*
X168440190Y-24968154D01*
X168554476Y-24930059D01*
X168592571Y-24891964D01*
X168592571Y-24625297D01*
X168440190Y-24625297D01*
X168935428Y-24968154D02*
X168935428Y-24168154D01*
X169392571Y-24968154D01*
X169392571Y-24168154D01*
X169773523Y-24968154D02*
X169773523Y-24168154D01*
X169964000Y-24168154D01*
X170078285Y-24206250D01*
X170154476Y-24282440D01*
X170192571Y-24358630D01*
X170230666Y-24511011D01*
X170230666Y-24625297D01*
X170192571Y-24777678D01*
X170154476Y-24853869D01*
X170078285Y-24930059D01*
X169964000Y-24968154D01*
X169773523Y-24968154D01*
X168554476Y-21666250D02*
X168478285Y-21628154D01*
X168364000Y-21628154D01*
X168249714Y-21666250D01*
X168173523Y-21742440D01*
X168135428Y-21818630D01*
X168097333Y-21971011D01*
X168097333Y-22085297D01*
X168135428Y-22237678D01*
X168173523Y-22313869D01*
X168249714Y-22390059D01*
X168364000Y-22428154D01*
X168440190Y-22428154D01*
X168554476Y-22390059D01*
X168592571Y-22351964D01*
X168592571Y-22085297D01*
X168440190Y-22085297D01*
X168935428Y-22428154D02*
X168935428Y-21628154D01*
X169392571Y-22428154D01*
X169392571Y-21628154D01*
X169773523Y-22428154D02*
X169773523Y-21628154D01*
X169964000Y-21628154D01*
X170078285Y-21666250D01*
X170154476Y-21742440D01*
X170192571Y-21818630D01*
X170230666Y-21971011D01*
X170230666Y-22085297D01*
X170192571Y-22237678D01*
X170154476Y-22313869D01*
X170078285Y-22390059D01*
X169964000Y-22428154D01*
X169773523Y-22428154D01*
X168573523Y-32588154D02*
X168573523Y-31788154D01*
X168764000Y-31788154D01*
X168878285Y-31826250D01*
X168954476Y-31902440D01*
X168992571Y-31978630D01*
X169030666Y-32131011D01*
X169030666Y-32245297D01*
X168992571Y-32397678D01*
X168954476Y-32473869D01*
X168878285Y-32550059D01*
X168764000Y-32588154D01*
X168573523Y-32588154D01*
X169716380Y-32054821D02*
X169716380Y-32588154D01*
X169525904Y-31750059D02*
X169335428Y-32321488D01*
X169830666Y-32321488D01*
X169030666Y-35051964D02*
X168992571Y-35090059D01*
X168878285Y-35128154D01*
X168802095Y-35128154D01*
X168687809Y-35090059D01*
X168611619Y-35013869D01*
X168573523Y-34937678D01*
X168535428Y-34785297D01*
X168535428Y-34671011D01*
X168573523Y-34518630D01*
X168611619Y-34442440D01*
X168687809Y-34366250D01*
X168802095Y-34328154D01*
X168878285Y-34328154D01*
X168992571Y-34366250D01*
X169030666Y-34404345D01*
X169716380Y-34328154D02*
X169564000Y-34328154D01*
X169487809Y-34366250D01*
X169449714Y-34404345D01*
X169373523Y-34518630D01*
X169335428Y-34671011D01*
X169335428Y-34975773D01*
X169373523Y-35051964D01*
X169411619Y-35090059D01*
X169487809Y-35128154D01*
X169640190Y-35128154D01*
X169716380Y-35090059D01*
X169754476Y-35051964D01*
X169792571Y-34975773D01*
X169792571Y-34785297D01*
X169754476Y-34709107D01*
X169716380Y-34671011D01*
X169640190Y-34632916D01*
X169487809Y-34632916D01*
X169411619Y-34671011D01*
X169373523Y-34709107D01*
X169335428Y-34785297D01*
X168573523Y-37668154D02*
X168573523Y-36868154D01*
X168764000Y-36868154D01*
X168878285Y-36906250D01*
X168954476Y-36982440D01*
X168992571Y-37058630D01*
X169030666Y-37211011D01*
X169030666Y-37325297D01*
X168992571Y-37477678D01*
X168954476Y-37553869D01*
X168878285Y-37630059D01*
X168764000Y-37668154D01*
X168573523Y-37668154D01*
X169297333Y-36868154D02*
X169830666Y-36868154D01*
X169487809Y-37668154D01*
X168611619Y-39789107D02*
X168878285Y-39789107D01*
X168992571Y-40208154D02*
X168611619Y-40208154D01*
X168611619Y-39408154D01*
X168992571Y-39408154D01*
X169678285Y-39408154D02*
X169525904Y-39408154D01*
X169449714Y-39446250D01*
X169411619Y-39484345D01*
X169335428Y-39598630D01*
X169297333Y-39751011D01*
X169297333Y-40055773D01*
X169335428Y-40131964D01*
X169373523Y-40170059D01*
X169449714Y-40208154D01*
X169602095Y-40208154D01*
X169678285Y-40170059D01*
X169716380Y-40131964D01*
X169754476Y-40055773D01*
X169754476Y-39865297D01*
X169716380Y-39789107D01*
X169678285Y-39751011D01*
X169602095Y-39712916D01*
X169449714Y-39712916D01*
X169373523Y-39751011D01*
X169335428Y-39789107D01*
X169297333Y-39865297D01*
X168840190Y-42329107D02*
X168954476Y-42367202D01*
X168992571Y-42405297D01*
X169030666Y-42481488D01*
X169030666Y-42595773D01*
X168992571Y-42671964D01*
X168954476Y-42710059D01*
X168878285Y-42748154D01*
X168573523Y-42748154D01*
X168573523Y-41948154D01*
X168840190Y-41948154D01*
X168916380Y-41986250D01*
X168954476Y-42024345D01*
X168992571Y-42100535D01*
X168992571Y-42176726D01*
X168954476Y-42252916D01*
X168916380Y-42291011D01*
X168840190Y-42329107D01*
X168573523Y-42329107D01*
X169716380Y-42214821D02*
X169716380Y-42748154D01*
X169525904Y-41910059D02*
X169335428Y-42481488D01*
X169830666Y-42481488D01*
X168840190Y-44869107D02*
X168954476Y-44907202D01*
X168992571Y-44945297D01*
X169030666Y-45021488D01*
X169030666Y-45135773D01*
X168992571Y-45211964D01*
X168954476Y-45250059D01*
X168878285Y-45288154D01*
X168573523Y-45288154D01*
X168573523Y-44488154D01*
X168840190Y-44488154D01*
X168916380Y-44526250D01*
X168954476Y-44564345D01*
X168992571Y-44640535D01*
X168992571Y-44716726D01*
X168954476Y-44792916D01*
X168916380Y-44831011D01*
X168840190Y-44869107D01*
X168573523Y-44869107D01*
X169754476Y-44488154D02*
X169373523Y-44488154D01*
X169335428Y-44869107D01*
X169373523Y-44831011D01*
X169449714Y-44792916D01*
X169640190Y-44792916D01*
X169716380Y-44831011D01*
X169754476Y-44869107D01*
X169792571Y-44945297D01*
X169792571Y-45135773D01*
X169754476Y-45211964D01*
X169716380Y-45250059D01*
X169640190Y-45288154D01*
X169449714Y-45288154D01*
X169373523Y-45250059D01*
X169335428Y-45211964D01*
X179762190Y-44869107D02*
X179876476Y-44907202D01*
X179914571Y-44945297D01*
X179952666Y-45021488D01*
X179952666Y-45135773D01*
X179914571Y-45211964D01*
X179876476Y-45250059D01*
X179800285Y-45288154D01*
X179495523Y-45288154D01*
X179495523Y-44488154D01*
X179762190Y-44488154D01*
X179838380Y-44526250D01*
X179876476Y-44564345D01*
X179914571Y-44640535D01*
X179914571Y-44716726D01*
X179876476Y-44792916D01*
X179838380Y-44831011D01*
X179762190Y-44869107D01*
X179495523Y-44869107D01*
X180638380Y-44488154D02*
X180486000Y-44488154D01*
X180409809Y-44526250D01*
X180371714Y-44564345D01*
X180295523Y-44678630D01*
X180257428Y-44831011D01*
X180257428Y-45135773D01*
X180295523Y-45211964D01*
X180333619Y-45250059D01*
X180409809Y-45288154D01*
X180562190Y-45288154D01*
X180638380Y-45250059D01*
X180676476Y-45211964D01*
X180714571Y-45135773D01*
X180714571Y-44945297D01*
X180676476Y-44869107D01*
X180638380Y-44831011D01*
X180562190Y-44792916D01*
X180409809Y-44792916D01*
X180333619Y-44831011D01*
X180295523Y-44869107D01*
X180257428Y-44945297D01*
X179762190Y-39789107D02*
X179876476Y-39827202D01*
X179914571Y-39865297D01*
X179952666Y-39941488D01*
X179952666Y-40055773D01*
X179914571Y-40131964D01*
X179876476Y-40170059D01*
X179800285Y-40208154D01*
X179495523Y-40208154D01*
X179495523Y-39408154D01*
X179762190Y-39408154D01*
X179838380Y-39446250D01*
X179876476Y-39484345D01*
X179914571Y-39560535D01*
X179914571Y-39636726D01*
X179876476Y-39712916D01*
X179838380Y-39751011D01*
X179762190Y-39789107D01*
X179495523Y-39789107D01*
X180219333Y-39408154D02*
X180714571Y-39408154D01*
X180447904Y-39712916D01*
X180562190Y-39712916D01*
X180638380Y-39751011D01*
X180676476Y-39789107D01*
X180714571Y-39865297D01*
X180714571Y-40055773D01*
X180676476Y-40131964D01*
X180638380Y-40170059D01*
X180562190Y-40208154D01*
X180333619Y-40208154D01*
X180257428Y-40170059D01*
X180219333Y-40131964D01*
X179762190Y-37249107D02*
X179876476Y-37287202D01*
X179914571Y-37325297D01*
X179952666Y-37401488D01*
X179952666Y-37515773D01*
X179914571Y-37591964D01*
X179876476Y-37630059D01*
X179800285Y-37668154D01*
X179495523Y-37668154D01*
X179495523Y-36868154D01*
X179762190Y-36868154D01*
X179838380Y-36906250D01*
X179876476Y-36944345D01*
X179914571Y-37020535D01*
X179914571Y-37096726D01*
X179876476Y-37172916D01*
X179838380Y-37211011D01*
X179762190Y-37249107D01*
X179495523Y-37249107D01*
X180714571Y-37668154D02*
X180257428Y-37668154D01*
X180486000Y-37668154D02*
X180486000Y-36868154D01*
X180409809Y-36982440D01*
X180333619Y-37058630D01*
X180257428Y-37096726D01*
X179819333Y-27089107D02*
X179552666Y-27089107D01*
X179552666Y-27508154D02*
X179552666Y-26708154D01*
X179933619Y-26708154D01*
X180581238Y-26974821D02*
X180581238Y-27508154D01*
X180390761Y-26670059D02*
X180200285Y-27241488D01*
X180695523Y-27241488D01*
X179019333Y-24168154D02*
X179286000Y-24968154D01*
X179552666Y-24168154D01*
X180276476Y-24891964D02*
X180238380Y-24930059D01*
X180124095Y-24968154D01*
X180047904Y-24968154D01*
X179933619Y-24930059D01*
X179857428Y-24853869D01*
X179819333Y-24777678D01*
X179781238Y-24625297D01*
X179781238Y-24511011D01*
X179819333Y-24358630D01*
X179857428Y-24282440D01*
X179933619Y-24206250D01*
X180047904Y-24168154D01*
X180124095Y-24168154D01*
X180238380Y-24206250D01*
X180276476Y-24244345D01*
X181076476Y-24891964D02*
X181038380Y-24930059D01*
X180924095Y-24968154D01*
X180847904Y-24968154D01*
X180733619Y-24930059D01*
X180657428Y-24853869D01*
X180619333Y-24777678D01*
X180581238Y-24625297D01*
X180581238Y-24511011D01*
X180619333Y-24358630D01*
X180657428Y-24282440D01*
X180733619Y-24206250D01*
X180847904Y-24168154D01*
X180924095Y-24168154D01*
X181038380Y-24206250D01*
X181076476Y-24244345D01*
X179824786Y-22360059D02*
X179939072Y-22398154D01*
X180129548Y-22398154D01*
X180205739Y-22360059D01*
X180243834Y-22321964D01*
X180281929Y-22245773D01*
X180281929Y-22169583D01*
X180243834Y-22093392D01*
X180205739Y-22055297D01*
X180129548Y-22017202D01*
X179977167Y-21979107D01*
X179900977Y-21941011D01*
X179862881Y-21902916D01*
X179824786Y-21826726D01*
X179824786Y-21750535D01*
X179862881Y-21674345D01*
X179900977Y-21636250D01*
X179977167Y-21598154D01*
X180167643Y-21598154D01*
X180281929Y-21636250D01*
X180510500Y-21598154D02*
X180967643Y-21598154D01*
X180739072Y-22398154D02*
X180739072Y-21598154D01*
X179476476Y-19126250D02*
X179400285Y-19088154D01*
X179286000Y-19088154D01*
X179171714Y-19126250D01*
X179095523Y-19202440D01*
X179057428Y-19278630D01*
X179019333Y-19431011D01*
X179019333Y-19545297D01*
X179057428Y-19697678D01*
X179095523Y-19773869D01*
X179171714Y-19850059D01*
X179286000Y-19888154D01*
X179362190Y-19888154D01*
X179476476Y-19850059D01*
X179514571Y-19811964D01*
X179514571Y-19545297D01*
X179362190Y-19545297D01*
X179857428Y-19888154D02*
X179857428Y-19088154D01*
X180314571Y-19888154D01*
X180314571Y-19088154D01*
X180695523Y-19888154D02*
X180695523Y-19088154D01*
X180886000Y-19088154D01*
X181000285Y-19126250D01*
X181076476Y-19202440D01*
X181114571Y-19278630D01*
X181152666Y-19431011D01*
X181152666Y-19545297D01*
X181114571Y-19697678D01*
X181076476Y-19773869D01*
X181000285Y-19850059D01*
X180886000Y-19888154D01*
X180695523Y-19888154D01*
X179533619Y-17348154D02*
X179266952Y-16967202D01*
X179076476Y-17348154D02*
X179076476Y-16548154D01*
X179381238Y-16548154D01*
X179457428Y-16586250D01*
X179495523Y-16624345D01*
X179533619Y-16700535D01*
X179533619Y-16814821D01*
X179495523Y-16891011D01*
X179457428Y-16929107D01*
X179381238Y-16967202D01*
X179076476Y-16967202D01*
X179838380Y-17119583D02*
X180219333Y-17119583D01*
X179762190Y-17348154D02*
X180028857Y-16548154D01*
X180295523Y-17348154D01*
X180486000Y-16548154D02*
X180676476Y-17348154D01*
X180828857Y-16776726D01*
X180981238Y-17348154D01*
X181171714Y-16548154D01*
X179819333Y-29629107D02*
X179552666Y-29629107D01*
X179552666Y-30048154D02*
X179552666Y-29248154D01*
X179933619Y-29248154D01*
X180619333Y-29248154D02*
X180238380Y-29248154D01*
X180200285Y-29629107D01*
X180238380Y-29591011D01*
X180314571Y-29552916D01*
X180505047Y-29552916D01*
X180581238Y-29591011D01*
X180619333Y-29629107D01*
X180657428Y-29705297D01*
X180657428Y-29895773D01*
X180619333Y-29971964D01*
X180581238Y-30010059D01*
X180505047Y-30048154D01*
X180314571Y-30048154D01*
X180238380Y-30010059D01*
X180200285Y-29971964D01*
X179819333Y-32169107D02*
X179552666Y-32169107D01*
X179552666Y-32588154D02*
X179552666Y-31788154D01*
X179933619Y-31788154D01*
X180581238Y-31788154D02*
X180428857Y-31788154D01*
X180352666Y-31826250D01*
X180314571Y-31864345D01*
X180238380Y-31978630D01*
X180200285Y-32131011D01*
X180200285Y-32435773D01*
X180238380Y-32511964D01*
X180276476Y-32550059D01*
X180352666Y-32588154D01*
X180505047Y-32588154D01*
X180581238Y-32550059D01*
X180619333Y-32511964D01*
X180657428Y-32435773D01*
X180657428Y-32245297D01*
X180619333Y-32169107D01*
X180581238Y-32131011D01*
X180505047Y-32092916D01*
X180352666Y-32092916D01*
X180276476Y-32131011D01*
X180238380Y-32169107D01*
X180200285Y-32245297D01*
X179819333Y-34709107D02*
X179552666Y-34709107D01*
X179552666Y-35128154D02*
X179552666Y-34328154D01*
X179933619Y-34328154D01*
X180162190Y-34328154D02*
X180695523Y-34328154D01*
X180352666Y-35128154D01*
X179762190Y-42329107D02*
X179876476Y-42367202D01*
X179914571Y-42405297D01*
X179952666Y-42481488D01*
X179952666Y-42595773D01*
X179914571Y-42671964D01*
X179876476Y-42710059D01*
X179800285Y-42748154D01*
X179495523Y-42748154D01*
X179495523Y-41948154D01*
X179762190Y-41948154D01*
X179838380Y-41986250D01*
X179876476Y-42024345D01*
X179914571Y-42100535D01*
X179914571Y-42176726D01*
X179876476Y-42252916D01*
X179838380Y-42291011D01*
X179762190Y-42329107D01*
X179495523Y-42329107D01*
X180257428Y-42024345D02*
X180295523Y-41986250D01*
X180371714Y-41948154D01*
X180562190Y-41948154D01*
X180638380Y-41986250D01*
X180676476Y-42024345D01*
X180714571Y-42100535D01*
X180714571Y-42176726D01*
X180676476Y-42291011D01*
X180219333Y-42748154D01*
X180714571Y-42748154D01*
%TD*%
%LPC*%
D12*
%TO.C,MX38*%
X165100000Y-98425000D03*
D13*
X160020000Y-98425000D03*
X170180000Y-98425000D03*
%TD*%
%TO.C,M3*%
G36*
G01*
X109715300Y-36772850D02*
X109715300Y-37649150D01*
G75*
G02*
X109277150Y-38087300I-438150J0D01*
G01*
X108400850Y-38087300D01*
G75*
G02*
X107962700Y-37649150I0J438150D01*
G01*
X107962700Y-36772850D01*
G75*
G02*
X108400850Y-36334700I438150J0D01*
G01*
X109277150Y-36334700D01*
G75*
G02*
X109715300Y-36772850I0J-438150D01*
G01*
G37*
G36*
G01*
X109715300Y-38804850D02*
X109715300Y-39681150D01*
G75*
G02*
X109277150Y-40119300I-438150J0D01*
G01*
X108400850Y-40119300D01*
G75*
G02*
X107962700Y-39681150I0J438150D01*
G01*
X107962700Y-38804850D01*
G75*
G02*
X108400850Y-38366700I438150J0D01*
G01*
X109277150Y-38366700D01*
G75*
G02*
X109715300Y-38804850I0J-438150D01*
G01*
G37*
G36*
G01*
X109715300Y-40836850D02*
X109715300Y-41713150D01*
G75*
G02*
X109277150Y-42151300I-438150J0D01*
G01*
X108400850Y-42151300D01*
G75*
G02*
X107962700Y-41713150I0J438150D01*
G01*
X107962700Y-40836850D01*
G75*
G02*
X108400850Y-40398700I438150J0D01*
G01*
X109277150Y-40398700D01*
G75*
G02*
X109715300Y-40836850I0J-438150D01*
G01*
G37*
G36*
G01*
X109715300Y-42868850D02*
X109715300Y-43745150D01*
G75*
G02*
X109277150Y-44183300I-438150J0D01*
G01*
X108400850Y-44183300D01*
G75*
G02*
X107962700Y-43745150I0J438150D01*
G01*
X107962700Y-42868850D01*
G75*
G02*
X108400850Y-42430700I438150J0D01*
G01*
X109277150Y-42430700D01*
G75*
G02*
X109715300Y-42868850I0J-438150D01*
G01*
G37*
G36*
G01*
X109715300Y-44900850D02*
X109715300Y-45777150D01*
G75*
G02*
X109277150Y-46215300I-438150J0D01*
G01*
X108400850Y-46215300D01*
G75*
G02*
X107962700Y-45777150I0J438150D01*
G01*
X107962700Y-44900850D01*
G75*
G02*
X108400850Y-44462700I438150J0D01*
G01*
X109277150Y-44462700D01*
G75*
G02*
X109715300Y-44900850I0J-438150D01*
G01*
G37*
%TD*%
%TO.C,M2*%
G36*
G01*
X107962700Y-83877150D02*
X107962700Y-83000850D01*
G75*
G02*
X108400850Y-82562700I438150J0D01*
G01*
X109277150Y-82562700D01*
G75*
G02*
X109715300Y-83000850I0J-438150D01*
G01*
X109715300Y-83877150D01*
G75*
G02*
X109277150Y-84315300I-438150J0D01*
G01*
X108400850Y-84315300D01*
G75*
G02*
X107962700Y-83877150I0J438150D01*
G01*
G37*
G36*
G01*
X107962700Y-81845150D02*
X107962700Y-80968850D01*
G75*
G02*
X108400850Y-80530700I438150J0D01*
G01*
X109277150Y-80530700D01*
G75*
G02*
X109715300Y-80968850I0J-438150D01*
G01*
X109715300Y-81845150D01*
G75*
G02*
X109277150Y-82283300I-438150J0D01*
G01*
X108400850Y-82283300D01*
G75*
G02*
X107962700Y-81845150I0J438150D01*
G01*
G37*
G36*
G01*
X107962700Y-79813150D02*
X107962700Y-78936850D01*
G75*
G02*
X108400850Y-78498700I438150J0D01*
G01*
X109277150Y-78498700D01*
G75*
G02*
X109715300Y-78936850I0J-438150D01*
G01*
X109715300Y-79813150D01*
G75*
G02*
X109277150Y-80251300I-438150J0D01*
G01*
X108400850Y-80251300D01*
G75*
G02*
X107962700Y-79813150I0J438150D01*
G01*
G37*
G36*
G01*
X107962700Y-77781150D02*
X107962700Y-76904850D01*
G75*
G02*
X108400850Y-76466700I438150J0D01*
G01*
X109277150Y-76466700D01*
G75*
G02*
X109715300Y-76904850I0J-438150D01*
G01*
X109715300Y-77781150D01*
G75*
G02*
X109277150Y-78219300I-438150J0D01*
G01*
X108400850Y-78219300D01*
G75*
G02*
X107962700Y-77781150I0J438150D01*
G01*
G37*
G36*
G01*
X107962700Y-75749150D02*
X107962700Y-74872850D01*
G75*
G02*
X108400850Y-74434700I438150J0D01*
G01*
X109277150Y-74434700D01*
G75*
G02*
X109715300Y-74872850I0J-438150D01*
G01*
X109715300Y-75749150D01*
G75*
G02*
X109277150Y-76187300I-438150J0D01*
G01*
X108400850Y-76187300D01*
G75*
G02*
X107962700Y-75749150I0J438150D01*
G01*
G37*
%TD*%
%TO.C,M1*%
G36*
G01*
X107962700Y-64827150D02*
X107962700Y-63950850D01*
G75*
G02*
X108400850Y-63512700I438150J0D01*
G01*
X109277150Y-63512700D01*
G75*
G02*
X109715300Y-63950850I0J-438150D01*
G01*
X109715300Y-64827150D01*
G75*
G02*
X109277150Y-65265300I-438150J0D01*
G01*
X108400850Y-65265300D01*
G75*
G02*
X107962700Y-64827150I0J438150D01*
G01*
G37*
G36*
G01*
X107962700Y-62795150D02*
X107962700Y-61918850D01*
G75*
G02*
X108400850Y-61480700I438150J0D01*
G01*
X109277150Y-61480700D01*
G75*
G02*
X109715300Y-61918850I0J-438150D01*
G01*
X109715300Y-62795150D01*
G75*
G02*
X109277150Y-63233300I-438150J0D01*
G01*
X108400850Y-63233300D01*
G75*
G02*
X107962700Y-62795150I0J438150D01*
G01*
G37*
G36*
G01*
X107962700Y-60763150D02*
X107962700Y-59886850D01*
G75*
G02*
X108400850Y-59448700I438150J0D01*
G01*
X109277150Y-59448700D01*
G75*
G02*
X109715300Y-59886850I0J-438150D01*
G01*
X109715300Y-60763150D01*
G75*
G02*
X109277150Y-61201300I-438150J0D01*
G01*
X108400850Y-61201300D01*
G75*
G02*
X107962700Y-60763150I0J438150D01*
G01*
G37*
G36*
G01*
X107962700Y-58731150D02*
X107962700Y-57854850D01*
G75*
G02*
X108400850Y-57416700I438150J0D01*
G01*
X109277150Y-57416700D01*
G75*
G02*
X109715300Y-57854850I0J-438150D01*
G01*
X109715300Y-58731150D01*
G75*
G02*
X109277150Y-59169300I-438150J0D01*
G01*
X108400850Y-59169300D01*
G75*
G02*
X107962700Y-58731150I0J438150D01*
G01*
G37*
G36*
G01*
X107962700Y-56699150D02*
X107962700Y-55822850D01*
G75*
G02*
X108400850Y-55384700I438150J0D01*
G01*
X109277150Y-55384700D01*
G75*
G02*
X109715300Y-55822850I0J-438150D01*
G01*
X109715300Y-56699150D01*
G75*
G02*
X109277150Y-57137300I-438150J0D01*
G01*
X108400850Y-57137300D01*
G75*
G02*
X107962700Y-56699150I0J438150D01*
G01*
G37*
%TD*%
D14*
%TO.C,U1*%
X182473600Y-16986250D03*
X167233600Y-44926250D03*
X182016400Y-19526250D03*
X182473600Y-22066250D03*
X182016400Y-24606250D03*
X182473600Y-27146250D03*
X182016400Y-29686250D03*
X182473600Y-32226250D03*
X182016400Y-34766250D03*
X182473600Y-37306250D03*
X182016400Y-39846250D03*
X182473600Y-42386250D03*
X182016400Y-44926250D03*
X166776400Y-42386250D03*
X167233600Y-39846250D03*
X166776400Y-37306250D03*
X167233600Y-34766250D03*
X166776400Y-32226250D03*
X167233600Y-29686250D03*
X166776400Y-27146250D03*
X167233600Y-24606250D03*
X166776400Y-22066250D03*
X167233600Y-19526250D03*
D15*
X166776400Y-16986250D03*
%TD*%
D12*
%TO.C,MX25*%
X117475000Y-41275000D03*
D13*
X112395000Y-41275000D03*
X122555000Y-41275000D03*
%TD*%
D12*
%TO.C,MX28*%
X122237500Y-98425000D03*
D13*
X117157500Y-98425000D03*
X127317500Y-98425000D03*
%TD*%
D12*
%TO.C,MX46*%
X193675000Y-79375000D03*
D13*
X188595000Y-79375000D03*
X198755000Y-79375000D03*
%TD*%
D12*
%TO.C,MX45*%
X193675000Y-60325000D03*
D13*
X188595000Y-60325000D03*
X198755000Y-60325000D03*
%TD*%
D12*
%TO.C,MX44*%
X193675000Y-41275000D03*
D13*
X188595000Y-41275000D03*
X198755000Y-41275000D03*
%TD*%
D12*
%TO.C,MX43*%
X193675000Y-22225000D03*
D13*
X188595000Y-22225000D03*
X198755000Y-22225000D03*
%TD*%
D12*
%TO.C,MX42*%
X174625000Y-79375000D03*
D13*
X169545000Y-79375000D03*
X179705000Y-79375000D03*
%TD*%
D12*
%TO.C,MX41*%
X174625000Y-60325000D03*
D13*
X169545000Y-60325000D03*
X179705000Y-60325000D03*
%TD*%
D12*
%TO.C,MX40*%
X174625000Y-41275000D03*
D13*
X169545000Y-41275000D03*
X179705000Y-41275000D03*
%TD*%
D12*
%TO.C,MX39*%
X174625000Y-22225000D03*
D13*
X169545000Y-22225000D03*
X179705000Y-22225000D03*
%TD*%
D12*
%TO.C,MX37*%
X155575000Y-79375000D03*
D13*
X150495000Y-79375000D03*
X160655000Y-79375000D03*
%TD*%
D12*
%TO.C,MX36*%
X155575000Y-60325000D03*
D13*
X150495000Y-60325000D03*
X160655000Y-60325000D03*
%TD*%
D12*
%TO.C,MX35*%
X155575000Y-41275000D03*
D13*
X150495000Y-41275000D03*
X160655000Y-41275000D03*
%TD*%
D12*
%TO.C,MX34*%
X155575000Y-22225000D03*
D13*
X150495000Y-22225000D03*
X160655000Y-22225000D03*
%TD*%
D12*
%TO.C,MX33*%
X146050000Y-98425000D03*
D13*
X140970000Y-98425000D03*
X151130000Y-98425000D03*
%TD*%
D12*
%TO.C,MX32*%
X136525000Y-79375000D03*
D13*
X131445000Y-79375000D03*
X141605000Y-79375000D03*
%TD*%
D12*
%TO.C,MX31*%
X136525000Y-60325000D03*
D13*
X131445000Y-60325000D03*
X141605000Y-60325000D03*
%TD*%
D12*
%TO.C,MX30*%
X136525000Y-41275000D03*
D13*
X131445000Y-41275000D03*
X141605000Y-41275000D03*
%TD*%
D12*
%TO.C,MX29*%
X136525000Y-22225000D03*
D13*
X131445000Y-22225000D03*
X141605000Y-22225000D03*
%TD*%
D12*
%TO.C,MX27*%
X117475000Y-79375000D03*
D13*
X112395000Y-79375000D03*
X122555000Y-79375000D03*
%TD*%
D12*
%TO.C,MX26*%
X117475000Y-60325000D03*
D13*
X112395000Y-60325000D03*
X122555000Y-60325000D03*
%TD*%
D12*
%TO.C,MX24*%
X117475000Y-22225000D03*
D13*
X112395000Y-22225000D03*
X122555000Y-22225000D03*
%TD*%
D16*
%TO.C,D46*%
X201612500Y-83275000D03*
D17*
X201612500Y-75475000D03*
%TD*%
D16*
%TO.C,D45*%
X201612500Y-64225000D03*
D17*
X201612500Y-56425000D03*
%TD*%
D16*
%TO.C,D44*%
X201612500Y-45175000D03*
D17*
X201612500Y-37375000D03*
%TD*%
D16*
%TO.C,D43*%
X201612500Y-26125000D03*
D17*
X201612500Y-18325000D03*
%TD*%
D16*
%TO.C,D42*%
X182562500Y-83272000D03*
D17*
X182562500Y-75472000D03*
%TD*%
D16*
%TO.C,D41*%
X182562500Y-64225000D03*
D17*
X182562500Y-56425000D03*
%TD*%
D16*
%TO.C,D40*%
X170725000Y-49212500D03*
D17*
X178525000Y-49212500D03*
%TD*%
D16*
%TO.C,D39*%
X170725000Y-30162500D03*
D17*
X178525000Y-30162500D03*
%TD*%
D16*
%TO.C,D38*%
X157162500Y-102325000D03*
D17*
X157162500Y-94525000D03*
%TD*%
D16*
%TO.C,D37*%
X163512500Y-83275000D03*
D17*
X163512500Y-75475000D03*
%TD*%
D16*
%TO.C,D36*%
X163512500Y-64225000D03*
D17*
X163512500Y-56425000D03*
%TD*%
D16*
%TO.C,D35*%
X163512500Y-45175000D03*
D17*
X163512500Y-37375000D03*
%TD*%
D16*
%TO.C,D34*%
X163512500Y-26125000D03*
D17*
X163512500Y-18325000D03*
%TD*%
D16*
%TO.C,D33*%
X153987500Y-102325000D03*
D17*
X153987500Y-94525000D03*
%TD*%
D16*
%TO.C,D32*%
X144462500Y-83275000D03*
D17*
X144462500Y-75475000D03*
%TD*%
D16*
%TO.C,D31*%
X144462500Y-64225000D03*
D17*
X144462500Y-56425000D03*
%TD*%
D16*
%TO.C,D30*%
X144462500Y-45175000D03*
D17*
X144462500Y-37375000D03*
%TD*%
D16*
%TO.C,D29*%
X144462500Y-26125000D03*
D17*
X144462500Y-18325000D03*
%TD*%
D16*
%TO.C,D28*%
X130175000Y-102325000D03*
D17*
X130175000Y-94525000D03*
%TD*%
D16*
%TO.C,D27*%
X125412500Y-83275000D03*
D17*
X125412500Y-75475000D03*
%TD*%
D16*
%TO.C,D26*%
X125412500Y-64225000D03*
D17*
X125412500Y-56425000D03*
%TD*%
D16*
%TO.C,D25*%
X114368750Y-49212500D03*
D17*
X122168750Y-49212500D03*
%TD*%
D16*
%TO.C,D24*%
X125412500Y-26125000D03*
D17*
X125412500Y-18325000D03*
%TD*%
M02*
