%TF.GenerationSoftware,KiCad,Pcbnew,(5.1.12)-1*%
%TF.CreationDate,2022-01-01T12:52:38-05:00*%
%TF.ProjectId,my-keeb-1,6d792d6b-6565-4622-9d31-2e6b69636164,rev?*%
%TF.SameCoordinates,Original*%
%TF.FileFunction,Soldermask,Bot*%
%TF.FilePolarity,Negative*%
%FSLAX46Y46*%
G04 Gerber Fmt 4.6, Leading zero omitted, Abs format (unit mm)*
G04 Created by KiCad (PCBNEW (5.1.12)-1) date 2022-01-01 12:52:38*
%MOMM*%
%LPD*%
G01*
G04 APERTURE LIST*
%ADD10C,1.750000*%
%ADD11C,2.250000*%
%ADD12C,3.987800*%
%ADD13C,1.752600*%
%ADD14R,1.752600X1.752600*%
%ADD15R,1.600000X1.600000*%
%ADD16C,1.600000*%
%ADD17R,1.200000X1.600000*%
%ADD18R,1.600000X1.200000*%
G04 APERTURE END LIST*
%TO.C,M3*%
G36*
G01*
X107937300Y-36772850D02*
X107937300Y-37649150D01*
G75*
G02*
X107499150Y-38087300I-438150J0D01*
G01*
X106622850Y-38087300D01*
G75*
G02*
X106184700Y-37649150I0J438150D01*
G01*
X106184700Y-36772850D01*
G75*
G02*
X106622850Y-36334700I438150J0D01*
G01*
X107499150Y-36334700D01*
G75*
G02*
X107937300Y-36772850I0J-438150D01*
G01*
G37*
G36*
G01*
X107937300Y-38804850D02*
X107937300Y-39681150D01*
G75*
G02*
X107499150Y-40119300I-438150J0D01*
G01*
X106622850Y-40119300D01*
G75*
G02*
X106184700Y-39681150I0J438150D01*
G01*
X106184700Y-38804850D01*
G75*
G02*
X106622850Y-38366700I438150J0D01*
G01*
X107499150Y-38366700D01*
G75*
G02*
X107937300Y-38804850I0J-438150D01*
G01*
G37*
G36*
G01*
X107937300Y-40836850D02*
X107937300Y-41713150D01*
G75*
G02*
X107499150Y-42151300I-438150J0D01*
G01*
X106622850Y-42151300D01*
G75*
G02*
X106184700Y-41713150I0J438150D01*
G01*
X106184700Y-40836850D01*
G75*
G02*
X106622850Y-40398700I438150J0D01*
G01*
X107499150Y-40398700D01*
G75*
G02*
X107937300Y-40836850I0J-438150D01*
G01*
G37*
G36*
G01*
X107937300Y-42868850D02*
X107937300Y-43745150D01*
G75*
G02*
X107499150Y-44183300I-438150J0D01*
G01*
X106622850Y-44183300D01*
G75*
G02*
X106184700Y-43745150I0J438150D01*
G01*
X106184700Y-42868850D01*
G75*
G02*
X106622850Y-42430700I438150J0D01*
G01*
X107499150Y-42430700D01*
G75*
G02*
X107937300Y-42868850I0J-438150D01*
G01*
G37*
G36*
G01*
X107937300Y-44900850D02*
X107937300Y-45777150D01*
G75*
G02*
X107499150Y-46215300I-438150J0D01*
G01*
X106622850Y-46215300D01*
G75*
G02*
X106184700Y-45777150I0J438150D01*
G01*
X106184700Y-44900850D01*
G75*
G02*
X106622850Y-44462700I438150J0D01*
G01*
X107499150Y-44462700D01*
G75*
G02*
X107937300Y-44900850I0J-438150D01*
G01*
G37*
%TD*%
%TO.C,M2*%
G36*
G01*
X106184700Y-83877150D02*
X106184700Y-83000850D01*
G75*
G02*
X106622850Y-82562700I438150J0D01*
G01*
X107499150Y-82562700D01*
G75*
G02*
X107937300Y-83000850I0J-438150D01*
G01*
X107937300Y-83877150D01*
G75*
G02*
X107499150Y-84315300I-438150J0D01*
G01*
X106622850Y-84315300D01*
G75*
G02*
X106184700Y-83877150I0J438150D01*
G01*
G37*
G36*
G01*
X106184700Y-81845150D02*
X106184700Y-80968850D01*
G75*
G02*
X106622850Y-80530700I438150J0D01*
G01*
X107499150Y-80530700D01*
G75*
G02*
X107937300Y-80968850I0J-438150D01*
G01*
X107937300Y-81845150D01*
G75*
G02*
X107499150Y-82283300I-438150J0D01*
G01*
X106622850Y-82283300D01*
G75*
G02*
X106184700Y-81845150I0J438150D01*
G01*
G37*
G36*
G01*
X106184700Y-79813150D02*
X106184700Y-78936850D01*
G75*
G02*
X106622850Y-78498700I438150J0D01*
G01*
X107499150Y-78498700D01*
G75*
G02*
X107937300Y-78936850I0J-438150D01*
G01*
X107937300Y-79813150D01*
G75*
G02*
X107499150Y-80251300I-438150J0D01*
G01*
X106622850Y-80251300D01*
G75*
G02*
X106184700Y-79813150I0J438150D01*
G01*
G37*
G36*
G01*
X106184700Y-77781150D02*
X106184700Y-76904850D01*
G75*
G02*
X106622850Y-76466700I438150J0D01*
G01*
X107499150Y-76466700D01*
G75*
G02*
X107937300Y-76904850I0J-438150D01*
G01*
X107937300Y-77781150D01*
G75*
G02*
X107499150Y-78219300I-438150J0D01*
G01*
X106622850Y-78219300D01*
G75*
G02*
X106184700Y-77781150I0J438150D01*
G01*
G37*
G36*
G01*
X106184700Y-75749150D02*
X106184700Y-74872850D01*
G75*
G02*
X106622850Y-74434700I438150J0D01*
G01*
X107499150Y-74434700D01*
G75*
G02*
X107937300Y-74872850I0J-438150D01*
G01*
X107937300Y-75749150D01*
G75*
G02*
X107499150Y-76187300I-438150J0D01*
G01*
X106622850Y-76187300D01*
G75*
G02*
X106184700Y-75749150I0J438150D01*
G01*
G37*
%TD*%
%TO.C,M1*%
G36*
G01*
X106184700Y-64827150D02*
X106184700Y-63950850D01*
G75*
G02*
X106622850Y-63512700I438150J0D01*
G01*
X107499150Y-63512700D01*
G75*
G02*
X107937300Y-63950850I0J-438150D01*
G01*
X107937300Y-64827150D01*
G75*
G02*
X107499150Y-65265300I-438150J0D01*
G01*
X106622850Y-65265300D01*
G75*
G02*
X106184700Y-64827150I0J438150D01*
G01*
G37*
G36*
G01*
X106184700Y-62795150D02*
X106184700Y-61918850D01*
G75*
G02*
X106622850Y-61480700I438150J0D01*
G01*
X107499150Y-61480700D01*
G75*
G02*
X107937300Y-61918850I0J-438150D01*
G01*
X107937300Y-62795150D01*
G75*
G02*
X107499150Y-63233300I-438150J0D01*
G01*
X106622850Y-63233300D01*
G75*
G02*
X106184700Y-62795150I0J438150D01*
G01*
G37*
G36*
G01*
X106184700Y-60763150D02*
X106184700Y-59886850D01*
G75*
G02*
X106622850Y-59448700I438150J0D01*
G01*
X107499150Y-59448700D01*
G75*
G02*
X107937300Y-59886850I0J-438150D01*
G01*
X107937300Y-60763150D01*
G75*
G02*
X107499150Y-61201300I-438150J0D01*
G01*
X106622850Y-61201300D01*
G75*
G02*
X106184700Y-60763150I0J438150D01*
G01*
G37*
G36*
G01*
X106184700Y-58731150D02*
X106184700Y-57854850D01*
G75*
G02*
X106622850Y-57416700I438150J0D01*
G01*
X107499150Y-57416700D01*
G75*
G02*
X107937300Y-57854850I0J-438150D01*
G01*
X107937300Y-58731150D01*
G75*
G02*
X107499150Y-59169300I-438150J0D01*
G01*
X106622850Y-59169300D01*
G75*
G02*
X106184700Y-58731150I0J438150D01*
G01*
G37*
G36*
G01*
X106184700Y-56699150D02*
X106184700Y-55822850D01*
G75*
G02*
X106622850Y-55384700I438150J0D01*
G01*
X107499150Y-55384700D01*
G75*
G02*
X107937300Y-55822850I0J-438150D01*
G01*
X107937300Y-56699150D01*
G75*
G02*
X107499150Y-57137300I-438150J0D01*
G01*
X106622850Y-57137300D01*
G75*
G02*
X106184700Y-56699150I0J438150D01*
G01*
G37*
%TD*%
D10*
%TO.C,MX19*%
X103505000Y-22225000D03*
X93345000Y-22225000D03*
D11*
X95925000Y-18225000D03*
D12*
X98425000Y-22225000D03*
G36*
G01*
X93863688Y-20522350D02*
X93863683Y-20522345D01*
G75*
G02*
X93777655Y-18933683I751317J837345D01*
G01*
X95087657Y-17473683D01*
G75*
G02*
X96676319Y-17387655I837345J-751317D01*
G01*
X96676319Y-17387655D01*
G75*
G02*
X96762347Y-18976317I-751317J-837345D01*
G01*
X95452345Y-20436317D01*
G75*
G02*
X93863683Y-20522345I-837345J751317D01*
G01*
G37*
D11*
X100965000Y-17145000D03*
G36*
G01*
X100848483Y-18847395D02*
X100847597Y-18847334D01*
G75*
G02*
X99802666Y-17647597I77403J1122334D01*
G01*
X99842666Y-17067597D01*
G75*
G02*
X101042403Y-16022666I1122334J-77403D01*
G01*
X101042403Y-16022666D01*
G75*
G02*
X102087334Y-17222403I-77403J-1122334D01*
G01*
X102047334Y-17802403D01*
G75*
G02*
X100847597Y-18847334I-1122334J77403D01*
G01*
G37*
%TD*%
D13*
%TO.C,U1*%
X33426400Y-16986250D03*
X48666400Y-44926250D03*
X33883600Y-19526250D03*
X33426400Y-22066250D03*
X33883600Y-24606250D03*
X33426400Y-27146250D03*
X33883600Y-29686250D03*
X33426400Y-32226250D03*
X33883600Y-34766250D03*
X33426400Y-37306250D03*
X33883600Y-39846250D03*
X33426400Y-42386250D03*
X33883600Y-44926250D03*
X49123600Y-42386250D03*
X48666400Y-39846250D03*
X49123600Y-37306250D03*
X48666400Y-34766250D03*
X49123600Y-32226250D03*
X48666400Y-29686250D03*
X49123600Y-27146250D03*
X48666400Y-24606250D03*
X49123600Y-22066250D03*
X48666400Y-19526250D03*
D14*
X49123600Y-16986250D03*
%TD*%
%TO.C,MX23*%
G36*
G01*
X96085983Y-95047395D02*
X96085097Y-95047334D01*
G75*
G02*
X95040166Y-93847597I77403J1122334D01*
G01*
X95080166Y-93267597D01*
G75*
G02*
X96279903Y-92222666I1122334J-77403D01*
G01*
X96279903Y-92222666D01*
G75*
G02*
X97324834Y-93422403I-77403J-1122334D01*
G01*
X97284834Y-94002403D01*
G75*
G02*
X96085097Y-95047334I-1122334J77403D01*
G01*
G37*
D11*
X96202500Y-93345000D03*
G36*
G01*
X89101188Y-96722350D02*
X89101183Y-96722345D01*
G75*
G02*
X89015155Y-95133683I751317J837345D01*
G01*
X90325157Y-93673683D01*
G75*
G02*
X91913819Y-93587655I837345J-751317D01*
G01*
X91913819Y-93587655D01*
G75*
G02*
X91999847Y-95176317I-751317J-837345D01*
G01*
X90689845Y-96636317D01*
G75*
G02*
X89101183Y-96722345I-837345J751317D01*
G01*
G37*
D12*
X93662500Y-98425000D03*
D11*
X91162500Y-94425000D03*
D10*
X88582500Y-98425000D03*
X98742500Y-98425000D03*
%TD*%
%TO.C,MX22*%
G36*
G01*
X100848483Y-75997395D02*
X100847597Y-75997334D01*
G75*
G02*
X99802666Y-74797597I77403J1122334D01*
G01*
X99842666Y-74217597D01*
G75*
G02*
X101042403Y-73172666I1122334J-77403D01*
G01*
X101042403Y-73172666D01*
G75*
G02*
X102087334Y-74372403I-77403J-1122334D01*
G01*
X102047334Y-74952403D01*
G75*
G02*
X100847597Y-75997334I-1122334J77403D01*
G01*
G37*
D11*
X100965000Y-74295000D03*
G36*
G01*
X93863688Y-77672350D02*
X93863683Y-77672345D01*
G75*
G02*
X93777655Y-76083683I751317J837345D01*
G01*
X95087657Y-74623683D01*
G75*
G02*
X96676319Y-74537655I837345J-751317D01*
G01*
X96676319Y-74537655D01*
G75*
G02*
X96762347Y-76126317I-751317J-837345D01*
G01*
X95452345Y-77586317D01*
G75*
G02*
X93863683Y-77672345I-837345J751317D01*
G01*
G37*
D12*
X98425000Y-79375000D03*
D11*
X95925000Y-75375000D03*
D10*
X93345000Y-79375000D03*
X103505000Y-79375000D03*
%TD*%
%TO.C,MX21*%
G36*
G01*
X100848483Y-56947395D02*
X100847597Y-56947334D01*
G75*
G02*
X99802666Y-55747597I77403J1122334D01*
G01*
X99842666Y-55167597D01*
G75*
G02*
X101042403Y-54122666I1122334J-77403D01*
G01*
X101042403Y-54122666D01*
G75*
G02*
X102087334Y-55322403I-77403J-1122334D01*
G01*
X102047334Y-55902403D01*
G75*
G02*
X100847597Y-56947334I-1122334J77403D01*
G01*
G37*
D11*
X100965000Y-55245000D03*
G36*
G01*
X93863688Y-58622350D02*
X93863683Y-58622345D01*
G75*
G02*
X93777655Y-57033683I751317J837345D01*
G01*
X95087657Y-55573683D01*
G75*
G02*
X96676319Y-55487655I837345J-751317D01*
G01*
X96676319Y-55487655D01*
G75*
G02*
X96762347Y-57076317I-751317J-837345D01*
G01*
X95452345Y-58536317D01*
G75*
G02*
X93863683Y-58622345I-837345J751317D01*
G01*
G37*
D12*
X98425000Y-60325000D03*
D11*
X95925000Y-56325000D03*
D10*
X93345000Y-60325000D03*
X103505000Y-60325000D03*
%TD*%
%TO.C,MX20*%
G36*
G01*
X100848483Y-37897395D02*
X100847597Y-37897334D01*
G75*
G02*
X99802666Y-36697597I77403J1122334D01*
G01*
X99842666Y-36117597D01*
G75*
G02*
X101042403Y-35072666I1122334J-77403D01*
G01*
X101042403Y-35072666D01*
G75*
G02*
X102087334Y-36272403I-77403J-1122334D01*
G01*
X102047334Y-36852403D01*
G75*
G02*
X100847597Y-37897334I-1122334J77403D01*
G01*
G37*
D11*
X100965000Y-36195000D03*
G36*
G01*
X93863688Y-39572350D02*
X93863683Y-39572345D01*
G75*
G02*
X93777655Y-37983683I751317J837345D01*
G01*
X95087657Y-36523683D01*
G75*
G02*
X96676319Y-36437655I837345J-751317D01*
G01*
X96676319Y-36437655D01*
G75*
G02*
X96762347Y-38026317I-751317J-837345D01*
G01*
X95452345Y-39486317D01*
G75*
G02*
X93863683Y-39572345I-837345J751317D01*
G01*
G37*
D12*
X98425000Y-41275000D03*
D11*
X95925000Y-37275000D03*
D10*
X93345000Y-41275000D03*
X103505000Y-41275000D03*
%TD*%
%TO.C,MX18*%
G36*
G01*
X72273483Y-95047395D02*
X72272597Y-95047334D01*
G75*
G02*
X71227666Y-93847597I77403J1122334D01*
G01*
X71267666Y-93267597D01*
G75*
G02*
X72467403Y-92222666I1122334J-77403D01*
G01*
X72467403Y-92222666D01*
G75*
G02*
X73512334Y-93422403I-77403J-1122334D01*
G01*
X73472334Y-94002403D01*
G75*
G02*
X72272597Y-95047334I-1122334J77403D01*
G01*
G37*
D11*
X72390000Y-93345000D03*
G36*
G01*
X65288688Y-96722350D02*
X65288683Y-96722345D01*
G75*
G02*
X65202655Y-95133683I751317J837345D01*
G01*
X66512657Y-93673683D01*
G75*
G02*
X68101319Y-93587655I837345J-751317D01*
G01*
X68101319Y-93587655D01*
G75*
G02*
X68187347Y-95176317I-751317J-837345D01*
G01*
X66877345Y-96636317D01*
G75*
G02*
X65288683Y-96722345I-837345J751317D01*
G01*
G37*
D12*
X69850000Y-98425000D03*
D11*
X67350000Y-94425000D03*
D10*
X64770000Y-98425000D03*
X74930000Y-98425000D03*
%TD*%
%TO.C,MX17*%
G36*
G01*
X81798483Y-75997395D02*
X81797597Y-75997334D01*
G75*
G02*
X80752666Y-74797597I77403J1122334D01*
G01*
X80792666Y-74217597D01*
G75*
G02*
X81992403Y-73172666I1122334J-77403D01*
G01*
X81992403Y-73172666D01*
G75*
G02*
X83037334Y-74372403I-77403J-1122334D01*
G01*
X82997334Y-74952403D01*
G75*
G02*
X81797597Y-75997334I-1122334J77403D01*
G01*
G37*
D11*
X81915000Y-74295000D03*
G36*
G01*
X74813688Y-77672350D02*
X74813683Y-77672345D01*
G75*
G02*
X74727655Y-76083683I751317J837345D01*
G01*
X76037657Y-74623683D01*
G75*
G02*
X77626319Y-74537655I837345J-751317D01*
G01*
X77626319Y-74537655D01*
G75*
G02*
X77712347Y-76126317I-751317J-837345D01*
G01*
X76402345Y-77586317D01*
G75*
G02*
X74813683Y-77672345I-837345J751317D01*
G01*
G37*
D12*
X79375000Y-79375000D03*
D11*
X76875000Y-75375000D03*
D10*
X74295000Y-79375000D03*
X84455000Y-79375000D03*
%TD*%
%TO.C,MX16*%
G36*
G01*
X81798483Y-56947395D02*
X81797597Y-56947334D01*
G75*
G02*
X80752666Y-55747597I77403J1122334D01*
G01*
X80792666Y-55167597D01*
G75*
G02*
X81992403Y-54122666I1122334J-77403D01*
G01*
X81992403Y-54122666D01*
G75*
G02*
X83037334Y-55322403I-77403J-1122334D01*
G01*
X82997334Y-55902403D01*
G75*
G02*
X81797597Y-56947334I-1122334J77403D01*
G01*
G37*
D11*
X81915000Y-55245000D03*
G36*
G01*
X74813688Y-58622350D02*
X74813683Y-58622345D01*
G75*
G02*
X74727655Y-57033683I751317J837345D01*
G01*
X76037657Y-55573683D01*
G75*
G02*
X77626319Y-55487655I837345J-751317D01*
G01*
X77626319Y-55487655D01*
G75*
G02*
X77712347Y-57076317I-751317J-837345D01*
G01*
X76402345Y-58536317D01*
G75*
G02*
X74813683Y-58622345I-837345J751317D01*
G01*
G37*
D12*
X79375000Y-60325000D03*
D11*
X76875000Y-56325000D03*
D10*
X74295000Y-60325000D03*
X84455000Y-60325000D03*
%TD*%
%TO.C,MX15*%
G36*
G01*
X81798483Y-37897395D02*
X81797597Y-37897334D01*
G75*
G02*
X80752666Y-36697597I77403J1122334D01*
G01*
X80792666Y-36117597D01*
G75*
G02*
X81992403Y-35072666I1122334J-77403D01*
G01*
X81992403Y-35072666D01*
G75*
G02*
X83037334Y-36272403I-77403J-1122334D01*
G01*
X82997334Y-36852403D01*
G75*
G02*
X81797597Y-37897334I-1122334J77403D01*
G01*
G37*
D11*
X81915000Y-36195000D03*
G36*
G01*
X74813688Y-39572350D02*
X74813683Y-39572345D01*
G75*
G02*
X74727655Y-37983683I751317J837345D01*
G01*
X76037657Y-36523683D01*
G75*
G02*
X77626319Y-36437655I837345J-751317D01*
G01*
X77626319Y-36437655D01*
G75*
G02*
X77712347Y-38026317I-751317J-837345D01*
G01*
X76402345Y-39486317D01*
G75*
G02*
X74813683Y-39572345I-837345J751317D01*
G01*
G37*
D12*
X79375000Y-41275000D03*
D11*
X76875000Y-37275000D03*
D10*
X74295000Y-41275000D03*
X84455000Y-41275000D03*
%TD*%
%TO.C,MX14*%
G36*
G01*
X81798483Y-18847395D02*
X81797597Y-18847334D01*
G75*
G02*
X80752666Y-17647597I77403J1122334D01*
G01*
X80792666Y-17067597D01*
G75*
G02*
X81992403Y-16022666I1122334J-77403D01*
G01*
X81992403Y-16022666D01*
G75*
G02*
X83037334Y-17222403I-77403J-1122334D01*
G01*
X82997334Y-17802403D01*
G75*
G02*
X81797597Y-18847334I-1122334J77403D01*
G01*
G37*
D11*
X81915000Y-17145000D03*
G36*
G01*
X74813688Y-20522350D02*
X74813683Y-20522345D01*
G75*
G02*
X74727655Y-18933683I751317J837345D01*
G01*
X76037657Y-17473683D01*
G75*
G02*
X77626319Y-17387655I837345J-751317D01*
G01*
X77626319Y-17387655D01*
G75*
G02*
X77712347Y-18976317I-751317J-837345D01*
G01*
X76402345Y-20436317D01*
G75*
G02*
X74813683Y-20522345I-837345J751317D01*
G01*
G37*
D12*
X79375000Y-22225000D03*
D11*
X76875000Y-18225000D03*
D10*
X74295000Y-22225000D03*
X84455000Y-22225000D03*
%TD*%
%TO.C,MX13*%
G36*
G01*
X53223483Y-95047395D02*
X53222597Y-95047334D01*
G75*
G02*
X52177666Y-93847597I77403J1122334D01*
G01*
X52217666Y-93267597D01*
G75*
G02*
X53417403Y-92222666I1122334J-77403D01*
G01*
X53417403Y-92222666D01*
G75*
G02*
X54462334Y-93422403I-77403J-1122334D01*
G01*
X54422334Y-94002403D01*
G75*
G02*
X53222597Y-95047334I-1122334J77403D01*
G01*
G37*
D11*
X53340000Y-93345000D03*
G36*
G01*
X46238688Y-96722350D02*
X46238683Y-96722345D01*
G75*
G02*
X46152655Y-95133683I751317J837345D01*
G01*
X47462657Y-93673683D01*
G75*
G02*
X49051319Y-93587655I837345J-751317D01*
G01*
X49051319Y-93587655D01*
G75*
G02*
X49137347Y-95176317I-751317J-837345D01*
G01*
X47827345Y-96636317D01*
G75*
G02*
X46238683Y-96722345I-837345J751317D01*
G01*
G37*
D12*
X50800000Y-98425000D03*
D11*
X48300000Y-94425000D03*
D10*
X45720000Y-98425000D03*
X55880000Y-98425000D03*
%TD*%
%TO.C,MX12*%
G36*
G01*
X62748483Y-75997395D02*
X62747597Y-75997334D01*
G75*
G02*
X61702666Y-74797597I77403J1122334D01*
G01*
X61742666Y-74217597D01*
G75*
G02*
X62942403Y-73172666I1122334J-77403D01*
G01*
X62942403Y-73172666D01*
G75*
G02*
X63987334Y-74372403I-77403J-1122334D01*
G01*
X63947334Y-74952403D01*
G75*
G02*
X62747597Y-75997334I-1122334J77403D01*
G01*
G37*
D11*
X62865000Y-74295000D03*
G36*
G01*
X55763688Y-77672350D02*
X55763683Y-77672345D01*
G75*
G02*
X55677655Y-76083683I751317J837345D01*
G01*
X56987657Y-74623683D01*
G75*
G02*
X58576319Y-74537655I837345J-751317D01*
G01*
X58576319Y-74537655D01*
G75*
G02*
X58662347Y-76126317I-751317J-837345D01*
G01*
X57352345Y-77586317D01*
G75*
G02*
X55763683Y-77672345I-837345J751317D01*
G01*
G37*
D12*
X60325000Y-79375000D03*
D11*
X57825000Y-75375000D03*
D10*
X55245000Y-79375000D03*
X65405000Y-79375000D03*
%TD*%
%TO.C,MX11*%
G36*
G01*
X62748483Y-56947395D02*
X62747597Y-56947334D01*
G75*
G02*
X61702666Y-55747597I77403J1122334D01*
G01*
X61742666Y-55167597D01*
G75*
G02*
X62942403Y-54122666I1122334J-77403D01*
G01*
X62942403Y-54122666D01*
G75*
G02*
X63987334Y-55322403I-77403J-1122334D01*
G01*
X63947334Y-55902403D01*
G75*
G02*
X62747597Y-56947334I-1122334J77403D01*
G01*
G37*
D11*
X62865000Y-55245000D03*
G36*
G01*
X55763688Y-58622350D02*
X55763683Y-58622345D01*
G75*
G02*
X55677655Y-57033683I751317J837345D01*
G01*
X56987657Y-55573683D01*
G75*
G02*
X58576319Y-55487655I837345J-751317D01*
G01*
X58576319Y-55487655D01*
G75*
G02*
X58662347Y-57076317I-751317J-837345D01*
G01*
X57352345Y-58536317D01*
G75*
G02*
X55763683Y-58622345I-837345J751317D01*
G01*
G37*
D12*
X60325000Y-60325000D03*
D11*
X57825000Y-56325000D03*
D10*
X55245000Y-60325000D03*
X65405000Y-60325000D03*
%TD*%
%TO.C,MX10*%
G36*
G01*
X62748483Y-37897395D02*
X62747597Y-37897334D01*
G75*
G02*
X61702666Y-36697597I77403J1122334D01*
G01*
X61742666Y-36117597D01*
G75*
G02*
X62942403Y-35072666I1122334J-77403D01*
G01*
X62942403Y-35072666D01*
G75*
G02*
X63987334Y-36272403I-77403J-1122334D01*
G01*
X63947334Y-36852403D01*
G75*
G02*
X62747597Y-37897334I-1122334J77403D01*
G01*
G37*
D11*
X62865000Y-36195000D03*
G36*
G01*
X55763688Y-39572350D02*
X55763683Y-39572345D01*
G75*
G02*
X55677655Y-37983683I751317J837345D01*
G01*
X56987657Y-36523683D01*
G75*
G02*
X58576319Y-36437655I837345J-751317D01*
G01*
X58576319Y-36437655D01*
G75*
G02*
X58662347Y-38026317I-751317J-837345D01*
G01*
X57352345Y-39486317D01*
G75*
G02*
X55763683Y-39572345I-837345J751317D01*
G01*
G37*
D12*
X60325000Y-41275000D03*
D11*
X57825000Y-37275000D03*
D10*
X55245000Y-41275000D03*
X65405000Y-41275000D03*
%TD*%
%TO.C,MX9*%
G36*
G01*
X62748483Y-18847395D02*
X62747597Y-18847334D01*
G75*
G02*
X61702666Y-17647597I77403J1122334D01*
G01*
X61742666Y-17067597D01*
G75*
G02*
X62942403Y-16022666I1122334J-77403D01*
G01*
X62942403Y-16022666D01*
G75*
G02*
X63987334Y-17222403I-77403J-1122334D01*
G01*
X63947334Y-17802403D01*
G75*
G02*
X62747597Y-18847334I-1122334J77403D01*
G01*
G37*
D11*
X62865000Y-17145000D03*
G36*
G01*
X55763688Y-20522350D02*
X55763683Y-20522345D01*
G75*
G02*
X55677655Y-18933683I751317J837345D01*
G01*
X56987657Y-17473683D01*
G75*
G02*
X58576319Y-17387655I837345J-751317D01*
G01*
X58576319Y-17387655D01*
G75*
G02*
X58662347Y-18976317I-751317J-837345D01*
G01*
X57352345Y-20436317D01*
G75*
G02*
X55763683Y-20522345I-837345J751317D01*
G01*
G37*
D12*
X60325000Y-22225000D03*
D11*
X57825000Y-18225000D03*
D10*
X55245000Y-22225000D03*
X65405000Y-22225000D03*
%TD*%
%TO.C,MX8*%
G36*
G01*
X43698483Y-75997395D02*
X43697597Y-75997334D01*
G75*
G02*
X42652666Y-74797597I77403J1122334D01*
G01*
X42692666Y-74217597D01*
G75*
G02*
X43892403Y-73172666I1122334J-77403D01*
G01*
X43892403Y-73172666D01*
G75*
G02*
X44937334Y-74372403I-77403J-1122334D01*
G01*
X44897334Y-74952403D01*
G75*
G02*
X43697597Y-75997334I-1122334J77403D01*
G01*
G37*
D11*
X43815000Y-74295000D03*
G36*
G01*
X36713688Y-77672350D02*
X36713683Y-77672345D01*
G75*
G02*
X36627655Y-76083683I751317J837345D01*
G01*
X37937657Y-74623683D01*
G75*
G02*
X39526319Y-74537655I837345J-751317D01*
G01*
X39526319Y-74537655D01*
G75*
G02*
X39612347Y-76126317I-751317J-837345D01*
G01*
X38302345Y-77586317D01*
G75*
G02*
X36713683Y-77672345I-837345J751317D01*
G01*
G37*
D12*
X41275000Y-79375000D03*
D11*
X38775000Y-75375000D03*
D10*
X36195000Y-79375000D03*
X46355000Y-79375000D03*
%TD*%
%TO.C,MX7*%
G36*
G01*
X43698483Y-56947395D02*
X43697597Y-56947334D01*
G75*
G02*
X42652666Y-55747597I77403J1122334D01*
G01*
X42692666Y-55167597D01*
G75*
G02*
X43892403Y-54122666I1122334J-77403D01*
G01*
X43892403Y-54122666D01*
G75*
G02*
X44937334Y-55322403I-77403J-1122334D01*
G01*
X44897334Y-55902403D01*
G75*
G02*
X43697597Y-56947334I-1122334J77403D01*
G01*
G37*
D11*
X43815000Y-55245000D03*
G36*
G01*
X36713688Y-58622350D02*
X36713683Y-58622345D01*
G75*
G02*
X36627655Y-57033683I751317J837345D01*
G01*
X37937657Y-55573683D01*
G75*
G02*
X39526319Y-55487655I837345J-751317D01*
G01*
X39526319Y-55487655D01*
G75*
G02*
X39612347Y-57076317I-751317J-837345D01*
G01*
X38302345Y-58536317D01*
G75*
G02*
X36713683Y-58622345I-837345J751317D01*
G01*
G37*
D12*
X41275000Y-60325000D03*
D11*
X38775000Y-56325000D03*
D10*
X36195000Y-60325000D03*
X46355000Y-60325000D03*
%TD*%
%TO.C,MX6*%
G36*
G01*
X43698483Y-37897395D02*
X43697597Y-37897334D01*
G75*
G02*
X42652666Y-36697597I77403J1122334D01*
G01*
X42692666Y-36117597D01*
G75*
G02*
X43892403Y-35072666I1122334J-77403D01*
G01*
X43892403Y-35072666D01*
G75*
G02*
X44937334Y-36272403I-77403J-1122334D01*
G01*
X44897334Y-36852403D01*
G75*
G02*
X43697597Y-37897334I-1122334J77403D01*
G01*
G37*
D11*
X43815000Y-36195000D03*
G36*
G01*
X36713688Y-39572350D02*
X36713683Y-39572345D01*
G75*
G02*
X36627655Y-37983683I751317J837345D01*
G01*
X37937657Y-36523683D01*
G75*
G02*
X39526319Y-36437655I837345J-751317D01*
G01*
X39526319Y-36437655D01*
G75*
G02*
X39612347Y-38026317I-751317J-837345D01*
G01*
X38302345Y-39486317D01*
G75*
G02*
X36713683Y-39572345I-837345J751317D01*
G01*
G37*
D12*
X41275000Y-41275000D03*
D11*
X38775000Y-37275000D03*
D10*
X36195000Y-41275000D03*
X46355000Y-41275000D03*
%TD*%
%TO.C,MX5*%
G36*
G01*
X43698483Y-18847395D02*
X43697597Y-18847334D01*
G75*
G02*
X42652666Y-17647597I77403J1122334D01*
G01*
X42692666Y-17067597D01*
G75*
G02*
X43892403Y-16022666I1122334J-77403D01*
G01*
X43892403Y-16022666D01*
G75*
G02*
X44937334Y-17222403I-77403J-1122334D01*
G01*
X44897334Y-17802403D01*
G75*
G02*
X43697597Y-18847334I-1122334J77403D01*
G01*
G37*
D11*
X43815000Y-17145000D03*
G36*
G01*
X36713688Y-20522350D02*
X36713683Y-20522345D01*
G75*
G02*
X36627655Y-18933683I751317J837345D01*
G01*
X37937657Y-17473683D01*
G75*
G02*
X39526319Y-17387655I837345J-751317D01*
G01*
X39526319Y-17387655D01*
G75*
G02*
X39612347Y-18976317I-751317J-837345D01*
G01*
X38302345Y-20436317D01*
G75*
G02*
X36713683Y-20522345I-837345J751317D01*
G01*
G37*
D12*
X41275000Y-22225000D03*
D11*
X38775000Y-18225000D03*
D10*
X36195000Y-22225000D03*
X46355000Y-22225000D03*
%TD*%
%TO.C,MX4*%
G36*
G01*
X24648483Y-75997395D02*
X24647597Y-75997334D01*
G75*
G02*
X23602666Y-74797597I77403J1122334D01*
G01*
X23642666Y-74217597D01*
G75*
G02*
X24842403Y-73172666I1122334J-77403D01*
G01*
X24842403Y-73172666D01*
G75*
G02*
X25887334Y-74372403I-77403J-1122334D01*
G01*
X25847334Y-74952403D01*
G75*
G02*
X24647597Y-75997334I-1122334J77403D01*
G01*
G37*
D11*
X24765000Y-74295000D03*
G36*
G01*
X17663688Y-77672350D02*
X17663683Y-77672345D01*
G75*
G02*
X17577655Y-76083683I751317J837345D01*
G01*
X18887657Y-74623683D01*
G75*
G02*
X20476319Y-74537655I837345J-751317D01*
G01*
X20476319Y-74537655D01*
G75*
G02*
X20562347Y-76126317I-751317J-837345D01*
G01*
X19252345Y-77586317D01*
G75*
G02*
X17663683Y-77672345I-837345J751317D01*
G01*
G37*
D12*
X22225000Y-79375000D03*
D11*
X19725000Y-75375000D03*
D10*
X17145000Y-79375000D03*
X27305000Y-79375000D03*
%TD*%
%TO.C,MX3*%
G36*
G01*
X24648483Y-56947395D02*
X24647597Y-56947334D01*
G75*
G02*
X23602666Y-55747597I77403J1122334D01*
G01*
X23642666Y-55167597D01*
G75*
G02*
X24842403Y-54122666I1122334J-77403D01*
G01*
X24842403Y-54122666D01*
G75*
G02*
X25887334Y-55322403I-77403J-1122334D01*
G01*
X25847334Y-55902403D01*
G75*
G02*
X24647597Y-56947334I-1122334J77403D01*
G01*
G37*
D11*
X24765000Y-55245000D03*
G36*
G01*
X17663688Y-58622350D02*
X17663683Y-58622345D01*
G75*
G02*
X17577655Y-57033683I751317J837345D01*
G01*
X18887657Y-55573683D01*
G75*
G02*
X20476319Y-55487655I837345J-751317D01*
G01*
X20476319Y-55487655D01*
G75*
G02*
X20562347Y-57076317I-751317J-837345D01*
G01*
X19252345Y-58536317D01*
G75*
G02*
X17663683Y-58622345I-837345J751317D01*
G01*
G37*
D12*
X22225000Y-60325000D03*
D11*
X19725000Y-56325000D03*
D10*
X17145000Y-60325000D03*
X27305000Y-60325000D03*
%TD*%
%TO.C,MX2*%
G36*
G01*
X24648483Y-37897395D02*
X24647597Y-37897334D01*
G75*
G02*
X23602666Y-36697597I77403J1122334D01*
G01*
X23642666Y-36117597D01*
G75*
G02*
X24842403Y-35072666I1122334J-77403D01*
G01*
X24842403Y-35072666D01*
G75*
G02*
X25887334Y-36272403I-77403J-1122334D01*
G01*
X25847334Y-36852403D01*
G75*
G02*
X24647597Y-37897334I-1122334J77403D01*
G01*
G37*
D11*
X24765000Y-36195000D03*
G36*
G01*
X17663688Y-39572350D02*
X17663683Y-39572345D01*
G75*
G02*
X17577655Y-37983683I751317J837345D01*
G01*
X18887657Y-36523683D01*
G75*
G02*
X20476319Y-36437655I837345J-751317D01*
G01*
X20476319Y-36437655D01*
G75*
G02*
X20562347Y-38026317I-751317J-837345D01*
G01*
X19252345Y-39486317D01*
G75*
G02*
X17663683Y-39572345I-837345J751317D01*
G01*
G37*
D12*
X22225000Y-41275000D03*
D11*
X19725000Y-37275000D03*
D10*
X17145000Y-41275000D03*
X27305000Y-41275000D03*
%TD*%
%TO.C,MX1*%
G36*
G01*
X24648483Y-18847395D02*
X24647597Y-18847334D01*
G75*
G02*
X23602666Y-17647597I77403J1122334D01*
G01*
X23642666Y-17067597D01*
G75*
G02*
X24842403Y-16022666I1122334J-77403D01*
G01*
X24842403Y-16022666D01*
G75*
G02*
X25887334Y-17222403I-77403J-1122334D01*
G01*
X25847334Y-17802403D01*
G75*
G02*
X24647597Y-18847334I-1122334J77403D01*
G01*
G37*
D11*
X24765000Y-17145000D03*
G36*
G01*
X17663688Y-20522350D02*
X17663683Y-20522345D01*
G75*
G02*
X17577655Y-18933683I751317J837345D01*
G01*
X18887657Y-17473683D01*
G75*
G02*
X20476319Y-17387655I837345J-751317D01*
G01*
X20476319Y-17387655D01*
G75*
G02*
X20562347Y-18976317I-751317J-837345D01*
G01*
X19252345Y-20436317D01*
G75*
G02*
X17663683Y-20522345I-837345J751317D01*
G01*
G37*
D12*
X22225000Y-22225000D03*
D11*
X19725000Y-18225000D03*
D10*
X17145000Y-22225000D03*
X27305000Y-22225000D03*
%TD*%
D15*
%TO.C,D23*%
X101600000Y-102325000D03*
D16*
X101600000Y-94525000D03*
D17*
X101600000Y-99825000D03*
X101600000Y-97025000D03*
%TD*%
D15*
%TO.C,D22*%
X94525000Y-87312500D03*
D16*
X102325000Y-87312500D03*
D18*
X97025000Y-87312500D03*
X99825000Y-87312500D03*
%TD*%
D15*
%TO.C,D21*%
X94525000Y-68262500D03*
D16*
X102325000Y-68262500D03*
D18*
X97025000Y-68262500D03*
X99825000Y-68262500D03*
%TD*%
%TO.C,D20*%
X99825000Y-49212500D03*
X97025000Y-49212500D03*
D16*
X102325000Y-49212500D03*
D15*
X94525000Y-49212500D03*
%TD*%
%TO.C,D19*%
X94525000Y-30162500D03*
D16*
X102325000Y-30162500D03*
D18*
X97025000Y-30162500D03*
X99825000Y-30162500D03*
%TD*%
D15*
%TO.C,D18*%
X77787500Y-102325000D03*
D16*
X77787500Y-94525000D03*
D17*
X77787500Y-99825000D03*
X77787500Y-97025000D03*
%TD*%
D15*
%TO.C,D17*%
X87312500Y-83275000D03*
D16*
X87312500Y-75475000D03*
D17*
X87312500Y-80775000D03*
X87312500Y-77975000D03*
%TD*%
D15*
%TO.C,D16*%
X87312500Y-64225000D03*
D16*
X87312500Y-56425000D03*
D17*
X87312500Y-61725000D03*
X87312500Y-58925000D03*
%TD*%
D15*
%TO.C,D15*%
X87312500Y-45175000D03*
D16*
X87312500Y-37375000D03*
D17*
X87312500Y-42675000D03*
X87312500Y-39875000D03*
%TD*%
D15*
%TO.C,D14*%
X87312500Y-26125000D03*
D16*
X87312500Y-18325000D03*
D17*
X87312500Y-23625000D03*
X87312500Y-20825000D03*
%TD*%
D15*
%TO.C,D13*%
X58737500Y-102325000D03*
D16*
X58737500Y-94525000D03*
D17*
X58737500Y-99825000D03*
X58737500Y-97025000D03*
%TD*%
D15*
%TO.C,D12*%
X68262500Y-83275000D03*
D16*
X68262500Y-75475000D03*
D17*
X68262500Y-80775000D03*
X68262500Y-77975000D03*
%TD*%
D15*
%TO.C,D11*%
X68262500Y-64225000D03*
D16*
X68262500Y-56425000D03*
D17*
X68262500Y-61725000D03*
X68262500Y-58925000D03*
%TD*%
D15*
%TO.C,D10*%
X68262500Y-45175000D03*
D16*
X68262500Y-37375000D03*
D17*
X68262500Y-42675000D03*
X68262500Y-39875000D03*
%TD*%
D15*
%TO.C,D9*%
X68262500Y-26125000D03*
D16*
X68262500Y-18325000D03*
D17*
X68262500Y-23625000D03*
X68262500Y-20825000D03*
%TD*%
D15*
%TO.C,D8*%
X49212500Y-83275000D03*
D16*
X49212500Y-75475000D03*
D17*
X49212500Y-80775000D03*
X49212500Y-77975000D03*
%TD*%
D15*
%TO.C,D7*%
X49212500Y-64225000D03*
D16*
X49212500Y-56425000D03*
D17*
X49212500Y-61725000D03*
X49212500Y-58925000D03*
%TD*%
D15*
%TO.C,D6*%
X37375000Y-49212500D03*
D16*
X45175000Y-49212500D03*
D18*
X39875000Y-49212500D03*
X42675000Y-49212500D03*
%TD*%
D15*
%TO.C,D5*%
X37375000Y-30162500D03*
D16*
X45175000Y-30162500D03*
D18*
X39875000Y-30162500D03*
X42675000Y-30162500D03*
%TD*%
D15*
%TO.C,D4*%
X30162500Y-83275000D03*
D16*
X30162500Y-75475000D03*
D17*
X30162500Y-80775000D03*
X30162500Y-77975000D03*
%TD*%
D15*
%TO.C,D3*%
X30162500Y-64225000D03*
D16*
X30162500Y-56425000D03*
D17*
X30162500Y-61725000D03*
X30162500Y-58925000D03*
%TD*%
D15*
%TO.C,D2*%
X18325000Y-49212500D03*
D16*
X26125000Y-49212500D03*
D18*
X20825000Y-49212500D03*
X23625000Y-49212500D03*
%TD*%
D15*
%TO.C,D1*%
X30162500Y-26125000D03*
D16*
X30162500Y-18325000D03*
D17*
X30162500Y-23625000D03*
X30162500Y-20825000D03*
%TD*%
M02*
