%TF.GenerationSoftware,KiCad,Pcbnew,(5.1.12)-1*%
%TF.CreationDate,2022-01-01T12:52:38-05:00*%
%TF.ProjectId,my-keeb-1,6d792d6b-6565-4622-9d31-2e6b69636164,rev?*%
%TF.SameCoordinates,Original*%
%TF.FileFunction,Legend,Bot*%
%TF.FilePolarity,Positive*%
%FSLAX46Y46*%
G04 Gerber Fmt 4.6, Leading zero omitted, Abs format (unit mm)*
G04 Created by KiCad (PCBNEW (5.1.12)-1) date 2022-01-01 12:52:38*
%MOMM*%
%LPD*%
G01*
G04 APERTURE LIST*
%ADD10C,0.381000*%
%ADD11C,0.150000*%
%ADD12C,1.750000*%
%ADD13C,2.250000*%
%ADD14C,3.987800*%
%ADD15C,1.752600*%
%ADD16R,1.752600X1.752600*%
%ADD17R,1.600000X1.600000*%
%ADD18C,1.600000*%
%ADD19R,1.200000X1.600000*%
%ADD20R,1.600000X1.200000*%
G04 APERTURE END LIST*
D10*
%TO.C,U1*%
X50165000Y-15716250D02*
X50165000Y-46196250D01*
X50165000Y-46196250D02*
X32385000Y-46196250D01*
X32385000Y-46196250D02*
X32385000Y-15716250D01*
X47625000Y-15716250D02*
X47625000Y-18256250D01*
X47625000Y-18256250D02*
X50165000Y-18256250D01*
D11*
G36*
X36343432Y-21595610D02*
G01*
X36343432Y-21895610D01*
X36443432Y-21895610D01*
X36443432Y-21595610D01*
X36343432Y-21595610D01*
G37*
X36343432Y-21595610D02*
X36343432Y-21895610D01*
X36443432Y-21895610D01*
X36443432Y-21595610D01*
X36343432Y-21595610D01*
G36*
X36543432Y-21995610D02*
G01*
X36543432Y-22095610D01*
X36643432Y-22095610D01*
X36643432Y-21995610D01*
X36543432Y-21995610D01*
G37*
X36543432Y-21995610D02*
X36543432Y-22095610D01*
X36643432Y-22095610D01*
X36643432Y-21995610D01*
X36543432Y-21995610D01*
G36*
X36343432Y-21595610D02*
G01*
X36343432Y-21695610D01*
X36843432Y-21695610D01*
X36843432Y-21595610D01*
X36343432Y-21595610D01*
G37*
X36343432Y-21595610D02*
X36343432Y-21695610D01*
X36843432Y-21695610D01*
X36843432Y-21595610D01*
X36343432Y-21595610D01*
G36*
X36743432Y-21595610D02*
G01*
X36743432Y-22395610D01*
X36843432Y-22395610D01*
X36843432Y-21595610D01*
X36743432Y-21595610D01*
G37*
X36743432Y-21595610D02*
X36743432Y-22395610D01*
X36843432Y-22395610D01*
X36843432Y-21595610D01*
X36743432Y-21595610D01*
G36*
X36343432Y-22195610D02*
G01*
X36343432Y-22395610D01*
X36443432Y-22395610D01*
X36443432Y-22195610D01*
X36343432Y-22195610D01*
G37*
X36343432Y-22195610D02*
X36343432Y-22395610D01*
X36443432Y-22395610D01*
X36443432Y-22195610D01*
X36343432Y-22195610D01*
D10*
X32385000Y-15716250D02*
X32385000Y-13176250D01*
X32385000Y-13176250D02*
X50165000Y-13176250D01*
X50165000Y-13176250D02*
X50165000Y-15716250D01*
X47625000Y-15716250D02*
X50165000Y-15716250D01*
D11*
%TO.C,D23*%
X100838000Y-100203000D02*
X102362000Y-100203000D01*
X100838000Y-100330000D02*
X102362000Y-100330000D01*
X102362000Y-100457000D02*
X100838000Y-100457000D01*
X100838000Y-100838000D02*
X102362000Y-100838000D01*
X102362000Y-100711000D02*
X100838000Y-100711000D01*
X100838000Y-100584000D02*
X102362000Y-100584000D01*
X102362000Y-95885000D02*
X100838000Y-95885000D01*
X102362000Y-100965000D02*
X102362000Y-95885000D01*
X100838000Y-100965000D02*
X102362000Y-100965000D01*
X100838000Y-95885000D02*
X100838000Y-100965000D01*
%TO.C,D22*%
X96647000Y-86550500D02*
X96647000Y-88074500D01*
X96520000Y-86550500D02*
X96520000Y-88074500D01*
X96393000Y-88074500D02*
X96393000Y-86550500D01*
X96012000Y-86550500D02*
X96012000Y-88074500D01*
X96139000Y-88074500D02*
X96139000Y-86550500D01*
X96266000Y-86550500D02*
X96266000Y-88074500D01*
X100965000Y-88074500D02*
X100965000Y-86550500D01*
X95885000Y-88074500D02*
X100965000Y-88074500D01*
X95885000Y-86550500D02*
X95885000Y-88074500D01*
X100965000Y-86550500D02*
X95885000Y-86550500D01*
%TO.C,D21*%
X96647000Y-67500500D02*
X96647000Y-69024500D01*
X96520000Y-67500500D02*
X96520000Y-69024500D01*
X96393000Y-69024500D02*
X96393000Y-67500500D01*
X96012000Y-67500500D02*
X96012000Y-69024500D01*
X96139000Y-69024500D02*
X96139000Y-67500500D01*
X96266000Y-67500500D02*
X96266000Y-69024500D01*
X100965000Y-69024500D02*
X100965000Y-67500500D01*
X95885000Y-69024500D02*
X100965000Y-69024500D01*
X95885000Y-67500500D02*
X95885000Y-69024500D01*
X100965000Y-67500500D02*
X95885000Y-67500500D01*
%TO.C,D20*%
X100965000Y-48450500D02*
X95885000Y-48450500D01*
X95885000Y-48450500D02*
X95885000Y-49974500D01*
X95885000Y-49974500D02*
X100965000Y-49974500D01*
X100965000Y-49974500D02*
X100965000Y-48450500D01*
X96266000Y-48450500D02*
X96266000Y-49974500D01*
X96139000Y-49974500D02*
X96139000Y-48450500D01*
X96012000Y-48450500D02*
X96012000Y-49974500D01*
X96393000Y-49974500D02*
X96393000Y-48450500D01*
X96520000Y-48450500D02*
X96520000Y-49974500D01*
X96647000Y-48450500D02*
X96647000Y-49974500D01*
%TO.C,D19*%
X96647000Y-29400500D02*
X96647000Y-30924500D01*
X96520000Y-29400500D02*
X96520000Y-30924500D01*
X96393000Y-30924500D02*
X96393000Y-29400500D01*
X96012000Y-29400500D02*
X96012000Y-30924500D01*
X96139000Y-30924500D02*
X96139000Y-29400500D01*
X96266000Y-29400500D02*
X96266000Y-30924500D01*
X100965000Y-30924500D02*
X100965000Y-29400500D01*
X95885000Y-30924500D02*
X100965000Y-30924500D01*
X95885000Y-29400500D02*
X95885000Y-30924500D01*
X100965000Y-29400500D02*
X95885000Y-29400500D01*
%TO.C,D18*%
X77025500Y-100203000D02*
X78549500Y-100203000D01*
X77025500Y-100330000D02*
X78549500Y-100330000D01*
X78549500Y-100457000D02*
X77025500Y-100457000D01*
X77025500Y-100838000D02*
X78549500Y-100838000D01*
X78549500Y-100711000D02*
X77025500Y-100711000D01*
X77025500Y-100584000D02*
X78549500Y-100584000D01*
X78549500Y-95885000D02*
X77025500Y-95885000D01*
X78549500Y-100965000D02*
X78549500Y-95885000D01*
X77025500Y-100965000D02*
X78549500Y-100965000D01*
X77025500Y-95885000D02*
X77025500Y-100965000D01*
%TO.C,D17*%
X86550500Y-81153000D02*
X88074500Y-81153000D01*
X86550500Y-81280000D02*
X88074500Y-81280000D01*
X88074500Y-81407000D02*
X86550500Y-81407000D01*
X86550500Y-81788000D02*
X88074500Y-81788000D01*
X88074500Y-81661000D02*
X86550500Y-81661000D01*
X86550500Y-81534000D02*
X88074500Y-81534000D01*
X88074500Y-76835000D02*
X86550500Y-76835000D01*
X88074500Y-81915000D02*
X88074500Y-76835000D01*
X86550500Y-81915000D02*
X88074500Y-81915000D01*
X86550500Y-76835000D02*
X86550500Y-81915000D01*
%TO.C,D16*%
X86550500Y-62103000D02*
X88074500Y-62103000D01*
X86550500Y-62230000D02*
X88074500Y-62230000D01*
X88074500Y-62357000D02*
X86550500Y-62357000D01*
X86550500Y-62738000D02*
X88074500Y-62738000D01*
X88074500Y-62611000D02*
X86550500Y-62611000D01*
X86550500Y-62484000D02*
X88074500Y-62484000D01*
X88074500Y-57785000D02*
X86550500Y-57785000D01*
X88074500Y-62865000D02*
X88074500Y-57785000D01*
X86550500Y-62865000D02*
X88074500Y-62865000D01*
X86550500Y-57785000D02*
X86550500Y-62865000D01*
%TO.C,D15*%
X86550500Y-43053000D02*
X88074500Y-43053000D01*
X86550500Y-43180000D02*
X88074500Y-43180000D01*
X88074500Y-43307000D02*
X86550500Y-43307000D01*
X86550500Y-43688000D02*
X88074500Y-43688000D01*
X88074500Y-43561000D02*
X86550500Y-43561000D01*
X86550500Y-43434000D02*
X88074500Y-43434000D01*
X88074500Y-38735000D02*
X86550500Y-38735000D01*
X88074500Y-43815000D02*
X88074500Y-38735000D01*
X86550500Y-43815000D02*
X88074500Y-43815000D01*
X86550500Y-38735000D02*
X86550500Y-43815000D01*
%TO.C,D14*%
X86550500Y-24003000D02*
X88074500Y-24003000D01*
X86550500Y-24130000D02*
X88074500Y-24130000D01*
X88074500Y-24257000D02*
X86550500Y-24257000D01*
X86550500Y-24638000D02*
X88074500Y-24638000D01*
X88074500Y-24511000D02*
X86550500Y-24511000D01*
X86550500Y-24384000D02*
X88074500Y-24384000D01*
X88074500Y-19685000D02*
X86550500Y-19685000D01*
X88074500Y-24765000D02*
X88074500Y-19685000D01*
X86550500Y-24765000D02*
X88074500Y-24765000D01*
X86550500Y-19685000D02*
X86550500Y-24765000D01*
%TO.C,D13*%
X57975500Y-100203000D02*
X59499500Y-100203000D01*
X57975500Y-100330000D02*
X59499500Y-100330000D01*
X59499500Y-100457000D02*
X57975500Y-100457000D01*
X57975500Y-100838000D02*
X59499500Y-100838000D01*
X59499500Y-100711000D02*
X57975500Y-100711000D01*
X57975500Y-100584000D02*
X59499500Y-100584000D01*
X59499500Y-95885000D02*
X57975500Y-95885000D01*
X59499500Y-100965000D02*
X59499500Y-95885000D01*
X57975500Y-100965000D02*
X59499500Y-100965000D01*
X57975500Y-95885000D02*
X57975500Y-100965000D01*
%TO.C,D12*%
X67500500Y-81153000D02*
X69024500Y-81153000D01*
X67500500Y-81280000D02*
X69024500Y-81280000D01*
X69024500Y-81407000D02*
X67500500Y-81407000D01*
X67500500Y-81788000D02*
X69024500Y-81788000D01*
X69024500Y-81661000D02*
X67500500Y-81661000D01*
X67500500Y-81534000D02*
X69024500Y-81534000D01*
X69024500Y-76835000D02*
X67500500Y-76835000D01*
X69024500Y-81915000D02*
X69024500Y-76835000D01*
X67500500Y-81915000D02*
X69024500Y-81915000D01*
X67500500Y-76835000D02*
X67500500Y-81915000D01*
%TO.C,D11*%
X67500500Y-62103000D02*
X69024500Y-62103000D01*
X67500500Y-62230000D02*
X69024500Y-62230000D01*
X69024500Y-62357000D02*
X67500500Y-62357000D01*
X67500500Y-62738000D02*
X69024500Y-62738000D01*
X69024500Y-62611000D02*
X67500500Y-62611000D01*
X67500500Y-62484000D02*
X69024500Y-62484000D01*
X69024500Y-57785000D02*
X67500500Y-57785000D01*
X69024500Y-62865000D02*
X69024500Y-57785000D01*
X67500500Y-62865000D02*
X69024500Y-62865000D01*
X67500500Y-57785000D02*
X67500500Y-62865000D01*
%TO.C,D10*%
X67500500Y-43053000D02*
X69024500Y-43053000D01*
X67500500Y-43180000D02*
X69024500Y-43180000D01*
X69024500Y-43307000D02*
X67500500Y-43307000D01*
X67500500Y-43688000D02*
X69024500Y-43688000D01*
X69024500Y-43561000D02*
X67500500Y-43561000D01*
X67500500Y-43434000D02*
X69024500Y-43434000D01*
X69024500Y-38735000D02*
X67500500Y-38735000D01*
X69024500Y-43815000D02*
X69024500Y-38735000D01*
X67500500Y-43815000D02*
X69024500Y-43815000D01*
X67500500Y-38735000D02*
X67500500Y-43815000D01*
%TO.C,D9*%
X67500500Y-24003000D02*
X69024500Y-24003000D01*
X67500500Y-24130000D02*
X69024500Y-24130000D01*
X69024500Y-24257000D02*
X67500500Y-24257000D01*
X67500500Y-24638000D02*
X69024500Y-24638000D01*
X69024500Y-24511000D02*
X67500500Y-24511000D01*
X67500500Y-24384000D02*
X69024500Y-24384000D01*
X69024500Y-19685000D02*
X67500500Y-19685000D01*
X69024500Y-24765000D02*
X69024500Y-19685000D01*
X67500500Y-24765000D02*
X69024500Y-24765000D01*
X67500500Y-19685000D02*
X67500500Y-24765000D01*
%TO.C,D8*%
X48450500Y-81153000D02*
X49974500Y-81153000D01*
X48450500Y-81280000D02*
X49974500Y-81280000D01*
X49974500Y-81407000D02*
X48450500Y-81407000D01*
X48450500Y-81788000D02*
X49974500Y-81788000D01*
X49974500Y-81661000D02*
X48450500Y-81661000D01*
X48450500Y-81534000D02*
X49974500Y-81534000D01*
X49974500Y-76835000D02*
X48450500Y-76835000D01*
X49974500Y-81915000D02*
X49974500Y-76835000D01*
X48450500Y-81915000D02*
X49974500Y-81915000D01*
X48450500Y-76835000D02*
X48450500Y-81915000D01*
%TO.C,D7*%
X48450500Y-62103000D02*
X49974500Y-62103000D01*
X48450500Y-62230000D02*
X49974500Y-62230000D01*
X49974500Y-62357000D02*
X48450500Y-62357000D01*
X48450500Y-62738000D02*
X49974500Y-62738000D01*
X49974500Y-62611000D02*
X48450500Y-62611000D01*
X48450500Y-62484000D02*
X49974500Y-62484000D01*
X49974500Y-57785000D02*
X48450500Y-57785000D01*
X49974500Y-62865000D02*
X49974500Y-57785000D01*
X48450500Y-62865000D02*
X49974500Y-62865000D01*
X48450500Y-57785000D02*
X48450500Y-62865000D01*
%TO.C,D6*%
X39497000Y-48450500D02*
X39497000Y-49974500D01*
X39370000Y-48450500D02*
X39370000Y-49974500D01*
X39243000Y-49974500D02*
X39243000Y-48450500D01*
X38862000Y-48450500D02*
X38862000Y-49974500D01*
X38989000Y-49974500D02*
X38989000Y-48450500D01*
X39116000Y-48450500D02*
X39116000Y-49974500D01*
X43815000Y-49974500D02*
X43815000Y-48450500D01*
X38735000Y-49974500D02*
X43815000Y-49974500D01*
X38735000Y-48450500D02*
X38735000Y-49974500D01*
X43815000Y-48450500D02*
X38735000Y-48450500D01*
%TO.C,D5*%
X39497000Y-29400500D02*
X39497000Y-30924500D01*
X39370000Y-29400500D02*
X39370000Y-30924500D01*
X39243000Y-30924500D02*
X39243000Y-29400500D01*
X38862000Y-29400500D02*
X38862000Y-30924500D01*
X38989000Y-30924500D02*
X38989000Y-29400500D01*
X39116000Y-29400500D02*
X39116000Y-30924500D01*
X43815000Y-30924500D02*
X43815000Y-29400500D01*
X38735000Y-30924500D02*
X43815000Y-30924500D01*
X38735000Y-29400500D02*
X38735000Y-30924500D01*
X43815000Y-29400500D02*
X38735000Y-29400500D01*
%TO.C,D4*%
X29400500Y-81153000D02*
X30924500Y-81153000D01*
X29400500Y-81280000D02*
X30924500Y-81280000D01*
X30924500Y-81407000D02*
X29400500Y-81407000D01*
X29400500Y-81788000D02*
X30924500Y-81788000D01*
X30924500Y-81661000D02*
X29400500Y-81661000D01*
X29400500Y-81534000D02*
X30924500Y-81534000D01*
X30924500Y-76835000D02*
X29400500Y-76835000D01*
X30924500Y-81915000D02*
X30924500Y-76835000D01*
X29400500Y-81915000D02*
X30924500Y-81915000D01*
X29400500Y-76835000D02*
X29400500Y-81915000D01*
%TO.C,D3*%
X29400500Y-62103000D02*
X30924500Y-62103000D01*
X29400500Y-62230000D02*
X30924500Y-62230000D01*
X30924500Y-62357000D02*
X29400500Y-62357000D01*
X29400500Y-62738000D02*
X30924500Y-62738000D01*
X30924500Y-62611000D02*
X29400500Y-62611000D01*
X29400500Y-62484000D02*
X30924500Y-62484000D01*
X30924500Y-57785000D02*
X29400500Y-57785000D01*
X30924500Y-62865000D02*
X30924500Y-57785000D01*
X29400500Y-62865000D02*
X30924500Y-62865000D01*
X29400500Y-57785000D02*
X29400500Y-62865000D01*
%TO.C,D2*%
X20447000Y-48450500D02*
X20447000Y-49974500D01*
X20320000Y-48450500D02*
X20320000Y-49974500D01*
X20193000Y-49974500D02*
X20193000Y-48450500D01*
X19812000Y-48450500D02*
X19812000Y-49974500D01*
X19939000Y-49974500D02*
X19939000Y-48450500D01*
X20066000Y-48450500D02*
X20066000Y-49974500D01*
X24765000Y-49974500D02*
X24765000Y-48450500D01*
X19685000Y-49974500D02*
X24765000Y-49974500D01*
X19685000Y-48450500D02*
X19685000Y-49974500D01*
X24765000Y-48450500D02*
X19685000Y-48450500D01*
%TO.C,D1*%
X29400500Y-24003000D02*
X30924500Y-24003000D01*
X29400500Y-24130000D02*
X30924500Y-24130000D01*
X30924500Y-24257000D02*
X29400500Y-24257000D01*
X29400500Y-24638000D02*
X30924500Y-24638000D01*
X30924500Y-24511000D02*
X29400500Y-24511000D01*
X29400500Y-24384000D02*
X30924500Y-24384000D01*
X30924500Y-19685000D02*
X29400500Y-19685000D01*
X30924500Y-24765000D02*
X30924500Y-19685000D01*
X29400500Y-24765000D02*
X30924500Y-24765000D01*
X29400500Y-19685000D02*
X29400500Y-24765000D01*
%TO.C,U1*%
X47037348Y-16548154D02*
X46580205Y-16548154D01*
X46808776Y-17348154D02*
X46808776Y-16548154D01*
X46389729Y-16548154D02*
X45856395Y-17348154D01*
X45856395Y-16548154D02*
X46389729Y-17348154D01*
X45399252Y-16548154D02*
X45323062Y-16548154D01*
X45246872Y-16586250D01*
X45208776Y-16624345D01*
X45170681Y-16700535D01*
X45132586Y-16852916D01*
X45132586Y-17043392D01*
X45170681Y-17195773D01*
X45208776Y-17271964D01*
X45246872Y-17310059D01*
X45323062Y-17348154D01*
X45399252Y-17348154D01*
X45475443Y-17310059D01*
X45513538Y-17271964D01*
X45551633Y-17195773D01*
X45589729Y-17043392D01*
X45589729Y-16852916D01*
X45551633Y-16700535D01*
X45513538Y-16624345D01*
X45475443Y-16586250D01*
X45399252Y-16548154D01*
X44218300Y-16510059D02*
X44904014Y-17538630D01*
X43951633Y-17348154D02*
X43951633Y-16548154D01*
X43761157Y-16548154D01*
X43646872Y-16586250D01*
X43570681Y-16662440D01*
X43532586Y-16738630D01*
X43494491Y-16891011D01*
X43494491Y-17005297D01*
X43532586Y-17157678D01*
X43570681Y-17233869D01*
X43646872Y-17310059D01*
X43761157Y-17348154D01*
X43951633Y-17348154D01*
X43227824Y-16548154D02*
X42732586Y-16548154D01*
X42999252Y-16852916D01*
X42884967Y-16852916D01*
X42808776Y-16891011D01*
X42770681Y-16929107D01*
X42732586Y-17005297D01*
X42732586Y-17195773D01*
X42770681Y-17271964D01*
X42808776Y-17310059D01*
X42884967Y-17348154D01*
X43113538Y-17348154D01*
X43189729Y-17310059D01*
X43227824Y-17271964D01*
X47326476Y-19888154D02*
X47326476Y-19088154D01*
X47136000Y-19088154D01*
X47021714Y-19126250D01*
X46945523Y-19202440D01*
X46907428Y-19278630D01*
X46869333Y-19431011D01*
X46869333Y-19545297D01*
X46907428Y-19697678D01*
X46945523Y-19773869D01*
X47021714Y-19850059D01*
X47136000Y-19888154D01*
X47326476Y-19888154D01*
X46564571Y-19164345D02*
X46526476Y-19126250D01*
X46450285Y-19088154D01*
X46259809Y-19088154D01*
X46183619Y-19126250D01*
X46145523Y-19164345D01*
X46107428Y-19240535D01*
X46107428Y-19316726D01*
X46145523Y-19431011D01*
X46602666Y-19888154D01*
X46107428Y-19888154D01*
X47326476Y-30048154D02*
X47326476Y-29248154D01*
X47136000Y-29248154D01*
X47021714Y-29286250D01*
X46945523Y-29362440D01*
X46907428Y-29438630D01*
X46869333Y-29591011D01*
X46869333Y-29705297D01*
X46907428Y-29857678D01*
X46945523Y-29933869D01*
X47021714Y-30010059D01*
X47136000Y-30048154D01*
X47326476Y-30048154D01*
X46374095Y-29248154D02*
X46297904Y-29248154D01*
X46221714Y-29286250D01*
X46183619Y-29324345D01*
X46145523Y-29400535D01*
X46107428Y-29552916D01*
X46107428Y-29743392D01*
X46145523Y-29895773D01*
X46183619Y-29971964D01*
X46221714Y-30010059D01*
X46297904Y-30048154D01*
X46374095Y-30048154D01*
X46450285Y-30010059D01*
X46488380Y-29971964D01*
X46526476Y-29895773D01*
X46564571Y-29743392D01*
X46564571Y-29552916D01*
X46526476Y-29400535D01*
X46488380Y-29324345D01*
X46450285Y-29286250D01*
X46374095Y-29248154D01*
X47326476Y-27508154D02*
X47326476Y-26708154D01*
X47136000Y-26708154D01*
X47021714Y-26746250D01*
X46945523Y-26822440D01*
X46907428Y-26898630D01*
X46869333Y-27051011D01*
X46869333Y-27165297D01*
X46907428Y-27317678D01*
X46945523Y-27393869D01*
X47021714Y-27470059D01*
X47136000Y-27508154D01*
X47326476Y-27508154D01*
X46107428Y-27508154D02*
X46564571Y-27508154D01*
X46336000Y-27508154D02*
X46336000Y-26708154D01*
X46412190Y-26822440D01*
X46488380Y-26898630D01*
X46564571Y-26936726D01*
X47345523Y-24206250D02*
X47421714Y-24168154D01*
X47536000Y-24168154D01*
X47650285Y-24206250D01*
X47726476Y-24282440D01*
X47764571Y-24358630D01*
X47802666Y-24511011D01*
X47802666Y-24625297D01*
X47764571Y-24777678D01*
X47726476Y-24853869D01*
X47650285Y-24930059D01*
X47536000Y-24968154D01*
X47459809Y-24968154D01*
X47345523Y-24930059D01*
X47307428Y-24891964D01*
X47307428Y-24625297D01*
X47459809Y-24625297D01*
X46964571Y-24968154D02*
X46964571Y-24168154D01*
X46507428Y-24968154D01*
X46507428Y-24168154D01*
X46126476Y-24968154D02*
X46126476Y-24168154D01*
X45936000Y-24168154D01*
X45821714Y-24206250D01*
X45745523Y-24282440D01*
X45707428Y-24358630D01*
X45669333Y-24511011D01*
X45669333Y-24625297D01*
X45707428Y-24777678D01*
X45745523Y-24853869D01*
X45821714Y-24930059D01*
X45936000Y-24968154D01*
X46126476Y-24968154D01*
X47345523Y-21666250D02*
X47421714Y-21628154D01*
X47536000Y-21628154D01*
X47650285Y-21666250D01*
X47726476Y-21742440D01*
X47764571Y-21818630D01*
X47802666Y-21971011D01*
X47802666Y-22085297D01*
X47764571Y-22237678D01*
X47726476Y-22313869D01*
X47650285Y-22390059D01*
X47536000Y-22428154D01*
X47459809Y-22428154D01*
X47345523Y-22390059D01*
X47307428Y-22351964D01*
X47307428Y-22085297D01*
X47459809Y-22085297D01*
X46964571Y-22428154D02*
X46964571Y-21628154D01*
X46507428Y-22428154D01*
X46507428Y-21628154D01*
X46126476Y-22428154D02*
X46126476Y-21628154D01*
X45936000Y-21628154D01*
X45821714Y-21666250D01*
X45745523Y-21742440D01*
X45707428Y-21818630D01*
X45669333Y-21971011D01*
X45669333Y-22085297D01*
X45707428Y-22237678D01*
X45745523Y-22313869D01*
X45821714Y-22390059D01*
X45936000Y-22428154D01*
X46126476Y-22428154D01*
X47326476Y-32588154D02*
X47326476Y-31788154D01*
X47136000Y-31788154D01*
X47021714Y-31826250D01*
X46945523Y-31902440D01*
X46907428Y-31978630D01*
X46869333Y-32131011D01*
X46869333Y-32245297D01*
X46907428Y-32397678D01*
X46945523Y-32473869D01*
X47021714Y-32550059D01*
X47136000Y-32588154D01*
X47326476Y-32588154D01*
X46183619Y-32054821D02*
X46183619Y-32588154D01*
X46374095Y-31750059D02*
X46564571Y-32321488D01*
X46069333Y-32321488D01*
X46869333Y-35051964D02*
X46907428Y-35090059D01*
X47021714Y-35128154D01*
X47097904Y-35128154D01*
X47212190Y-35090059D01*
X47288380Y-35013869D01*
X47326476Y-34937678D01*
X47364571Y-34785297D01*
X47364571Y-34671011D01*
X47326476Y-34518630D01*
X47288380Y-34442440D01*
X47212190Y-34366250D01*
X47097904Y-34328154D01*
X47021714Y-34328154D01*
X46907428Y-34366250D01*
X46869333Y-34404345D01*
X46183619Y-34328154D02*
X46336000Y-34328154D01*
X46412190Y-34366250D01*
X46450285Y-34404345D01*
X46526476Y-34518630D01*
X46564571Y-34671011D01*
X46564571Y-34975773D01*
X46526476Y-35051964D01*
X46488380Y-35090059D01*
X46412190Y-35128154D01*
X46259809Y-35128154D01*
X46183619Y-35090059D01*
X46145523Y-35051964D01*
X46107428Y-34975773D01*
X46107428Y-34785297D01*
X46145523Y-34709107D01*
X46183619Y-34671011D01*
X46259809Y-34632916D01*
X46412190Y-34632916D01*
X46488380Y-34671011D01*
X46526476Y-34709107D01*
X46564571Y-34785297D01*
X47326476Y-37668154D02*
X47326476Y-36868154D01*
X47136000Y-36868154D01*
X47021714Y-36906250D01*
X46945523Y-36982440D01*
X46907428Y-37058630D01*
X46869333Y-37211011D01*
X46869333Y-37325297D01*
X46907428Y-37477678D01*
X46945523Y-37553869D01*
X47021714Y-37630059D01*
X47136000Y-37668154D01*
X47326476Y-37668154D01*
X46602666Y-36868154D02*
X46069333Y-36868154D01*
X46412190Y-37668154D01*
X47288380Y-39789107D02*
X47021714Y-39789107D01*
X46907428Y-40208154D02*
X47288380Y-40208154D01*
X47288380Y-39408154D01*
X46907428Y-39408154D01*
X46221714Y-39408154D02*
X46374095Y-39408154D01*
X46450285Y-39446250D01*
X46488380Y-39484345D01*
X46564571Y-39598630D01*
X46602666Y-39751011D01*
X46602666Y-40055773D01*
X46564571Y-40131964D01*
X46526476Y-40170059D01*
X46450285Y-40208154D01*
X46297904Y-40208154D01*
X46221714Y-40170059D01*
X46183619Y-40131964D01*
X46145523Y-40055773D01*
X46145523Y-39865297D01*
X46183619Y-39789107D01*
X46221714Y-39751011D01*
X46297904Y-39712916D01*
X46450285Y-39712916D01*
X46526476Y-39751011D01*
X46564571Y-39789107D01*
X46602666Y-39865297D01*
X47059809Y-42329107D02*
X46945523Y-42367202D01*
X46907428Y-42405297D01*
X46869333Y-42481488D01*
X46869333Y-42595773D01*
X46907428Y-42671964D01*
X46945523Y-42710059D01*
X47021714Y-42748154D01*
X47326476Y-42748154D01*
X47326476Y-41948154D01*
X47059809Y-41948154D01*
X46983619Y-41986250D01*
X46945523Y-42024345D01*
X46907428Y-42100535D01*
X46907428Y-42176726D01*
X46945523Y-42252916D01*
X46983619Y-42291011D01*
X47059809Y-42329107D01*
X47326476Y-42329107D01*
X46183619Y-42214821D02*
X46183619Y-42748154D01*
X46374095Y-41910059D02*
X46564571Y-42481488D01*
X46069333Y-42481488D01*
X47059809Y-44869107D02*
X46945523Y-44907202D01*
X46907428Y-44945297D01*
X46869333Y-45021488D01*
X46869333Y-45135773D01*
X46907428Y-45211964D01*
X46945523Y-45250059D01*
X47021714Y-45288154D01*
X47326476Y-45288154D01*
X47326476Y-44488154D01*
X47059809Y-44488154D01*
X46983619Y-44526250D01*
X46945523Y-44564345D01*
X46907428Y-44640535D01*
X46907428Y-44716726D01*
X46945523Y-44792916D01*
X46983619Y-44831011D01*
X47059809Y-44869107D01*
X47326476Y-44869107D01*
X46145523Y-44488154D02*
X46526476Y-44488154D01*
X46564571Y-44869107D01*
X46526476Y-44831011D01*
X46450285Y-44792916D01*
X46259809Y-44792916D01*
X46183619Y-44831011D01*
X46145523Y-44869107D01*
X46107428Y-44945297D01*
X46107428Y-45135773D01*
X46145523Y-45211964D01*
X46183619Y-45250059D01*
X46259809Y-45288154D01*
X46450285Y-45288154D01*
X46526476Y-45250059D01*
X46564571Y-45211964D01*
X36137809Y-44869107D02*
X36023523Y-44907202D01*
X35985428Y-44945297D01*
X35947333Y-45021488D01*
X35947333Y-45135773D01*
X35985428Y-45211964D01*
X36023523Y-45250059D01*
X36099714Y-45288154D01*
X36404476Y-45288154D01*
X36404476Y-44488154D01*
X36137809Y-44488154D01*
X36061619Y-44526250D01*
X36023523Y-44564345D01*
X35985428Y-44640535D01*
X35985428Y-44716726D01*
X36023523Y-44792916D01*
X36061619Y-44831011D01*
X36137809Y-44869107D01*
X36404476Y-44869107D01*
X35261619Y-44488154D02*
X35414000Y-44488154D01*
X35490190Y-44526250D01*
X35528285Y-44564345D01*
X35604476Y-44678630D01*
X35642571Y-44831011D01*
X35642571Y-45135773D01*
X35604476Y-45211964D01*
X35566380Y-45250059D01*
X35490190Y-45288154D01*
X35337809Y-45288154D01*
X35261619Y-45250059D01*
X35223523Y-45211964D01*
X35185428Y-45135773D01*
X35185428Y-44945297D01*
X35223523Y-44869107D01*
X35261619Y-44831011D01*
X35337809Y-44792916D01*
X35490190Y-44792916D01*
X35566380Y-44831011D01*
X35604476Y-44869107D01*
X35642571Y-44945297D01*
X36137809Y-39789107D02*
X36023523Y-39827202D01*
X35985428Y-39865297D01*
X35947333Y-39941488D01*
X35947333Y-40055773D01*
X35985428Y-40131964D01*
X36023523Y-40170059D01*
X36099714Y-40208154D01*
X36404476Y-40208154D01*
X36404476Y-39408154D01*
X36137809Y-39408154D01*
X36061619Y-39446250D01*
X36023523Y-39484345D01*
X35985428Y-39560535D01*
X35985428Y-39636726D01*
X36023523Y-39712916D01*
X36061619Y-39751011D01*
X36137809Y-39789107D01*
X36404476Y-39789107D01*
X35680666Y-39408154D02*
X35185428Y-39408154D01*
X35452095Y-39712916D01*
X35337809Y-39712916D01*
X35261619Y-39751011D01*
X35223523Y-39789107D01*
X35185428Y-39865297D01*
X35185428Y-40055773D01*
X35223523Y-40131964D01*
X35261619Y-40170059D01*
X35337809Y-40208154D01*
X35566380Y-40208154D01*
X35642571Y-40170059D01*
X35680666Y-40131964D01*
X36137809Y-37249107D02*
X36023523Y-37287202D01*
X35985428Y-37325297D01*
X35947333Y-37401488D01*
X35947333Y-37515773D01*
X35985428Y-37591964D01*
X36023523Y-37630059D01*
X36099714Y-37668154D01*
X36404476Y-37668154D01*
X36404476Y-36868154D01*
X36137809Y-36868154D01*
X36061619Y-36906250D01*
X36023523Y-36944345D01*
X35985428Y-37020535D01*
X35985428Y-37096726D01*
X36023523Y-37172916D01*
X36061619Y-37211011D01*
X36137809Y-37249107D01*
X36404476Y-37249107D01*
X35185428Y-37668154D02*
X35642571Y-37668154D01*
X35414000Y-37668154D02*
X35414000Y-36868154D01*
X35490190Y-36982440D01*
X35566380Y-37058630D01*
X35642571Y-37096726D01*
X36080666Y-27089107D02*
X36347333Y-27089107D01*
X36347333Y-27508154D02*
X36347333Y-26708154D01*
X35966380Y-26708154D01*
X35318761Y-26974821D02*
X35318761Y-27508154D01*
X35509238Y-26670059D02*
X35699714Y-27241488D01*
X35204476Y-27241488D01*
X36880666Y-24168154D02*
X36614000Y-24968154D01*
X36347333Y-24168154D01*
X35623523Y-24891964D02*
X35661619Y-24930059D01*
X35775904Y-24968154D01*
X35852095Y-24968154D01*
X35966380Y-24930059D01*
X36042571Y-24853869D01*
X36080666Y-24777678D01*
X36118761Y-24625297D01*
X36118761Y-24511011D01*
X36080666Y-24358630D01*
X36042571Y-24282440D01*
X35966380Y-24206250D01*
X35852095Y-24168154D01*
X35775904Y-24168154D01*
X35661619Y-24206250D01*
X35623523Y-24244345D01*
X34823523Y-24891964D02*
X34861619Y-24930059D01*
X34975904Y-24968154D01*
X35052095Y-24968154D01*
X35166380Y-24930059D01*
X35242571Y-24853869D01*
X35280666Y-24777678D01*
X35318761Y-24625297D01*
X35318761Y-24511011D01*
X35280666Y-24358630D01*
X35242571Y-24282440D01*
X35166380Y-24206250D01*
X35052095Y-24168154D01*
X34975904Y-24168154D01*
X34861619Y-24206250D01*
X34823523Y-24244345D01*
X36075213Y-22360059D02*
X35960927Y-22398154D01*
X35770451Y-22398154D01*
X35694260Y-22360059D01*
X35656165Y-22321964D01*
X35618070Y-22245773D01*
X35618070Y-22169583D01*
X35656165Y-22093392D01*
X35694260Y-22055297D01*
X35770451Y-22017202D01*
X35922832Y-21979107D01*
X35999022Y-21941011D01*
X36037118Y-21902916D01*
X36075213Y-21826726D01*
X36075213Y-21750535D01*
X36037118Y-21674345D01*
X35999022Y-21636250D01*
X35922832Y-21598154D01*
X35732356Y-21598154D01*
X35618070Y-21636250D01*
X35389499Y-21598154D02*
X34932356Y-21598154D01*
X35160927Y-22398154D02*
X35160927Y-21598154D01*
X36423523Y-19126250D02*
X36499714Y-19088154D01*
X36614000Y-19088154D01*
X36728285Y-19126250D01*
X36804476Y-19202440D01*
X36842571Y-19278630D01*
X36880666Y-19431011D01*
X36880666Y-19545297D01*
X36842571Y-19697678D01*
X36804476Y-19773869D01*
X36728285Y-19850059D01*
X36614000Y-19888154D01*
X36537809Y-19888154D01*
X36423523Y-19850059D01*
X36385428Y-19811964D01*
X36385428Y-19545297D01*
X36537809Y-19545297D01*
X36042571Y-19888154D02*
X36042571Y-19088154D01*
X35585428Y-19888154D01*
X35585428Y-19088154D01*
X35204476Y-19888154D02*
X35204476Y-19088154D01*
X35014000Y-19088154D01*
X34899714Y-19126250D01*
X34823523Y-19202440D01*
X34785428Y-19278630D01*
X34747333Y-19431011D01*
X34747333Y-19545297D01*
X34785428Y-19697678D01*
X34823523Y-19773869D01*
X34899714Y-19850059D01*
X35014000Y-19888154D01*
X35204476Y-19888154D01*
X36366380Y-17348154D02*
X36633047Y-16967202D01*
X36823523Y-17348154D02*
X36823523Y-16548154D01*
X36518761Y-16548154D01*
X36442571Y-16586250D01*
X36404476Y-16624345D01*
X36366380Y-16700535D01*
X36366380Y-16814821D01*
X36404476Y-16891011D01*
X36442571Y-16929107D01*
X36518761Y-16967202D01*
X36823523Y-16967202D01*
X36061619Y-17119583D02*
X35680666Y-17119583D01*
X36137809Y-17348154D02*
X35871142Y-16548154D01*
X35604476Y-17348154D01*
X35414000Y-16548154D02*
X35223523Y-17348154D01*
X35071142Y-16776726D01*
X34918761Y-17348154D01*
X34728285Y-16548154D01*
X36080666Y-29629107D02*
X36347333Y-29629107D01*
X36347333Y-30048154D02*
X36347333Y-29248154D01*
X35966380Y-29248154D01*
X35280666Y-29248154D02*
X35661619Y-29248154D01*
X35699714Y-29629107D01*
X35661619Y-29591011D01*
X35585428Y-29552916D01*
X35394952Y-29552916D01*
X35318761Y-29591011D01*
X35280666Y-29629107D01*
X35242571Y-29705297D01*
X35242571Y-29895773D01*
X35280666Y-29971964D01*
X35318761Y-30010059D01*
X35394952Y-30048154D01*
X35585428Y-30048154D01*
X35661619Y-30010059D01*
X35699714Y-29971964D01*
X36080666Y-32169107D02*
X36347333Y-32169107D01*
X36347333Y-32588154D02*
X36347333Y-31788154D01*
X35966380Y-31788154D01*
X35318761Y-31788154D02*
X35471142Y-31788154D01*
X35547333Y-31826250D01*
X35585428Y-31864345D01*
X35661619Y-31978630D01*
X35699714Y-32131011D01*
X35699714Y-32435773D01*
X35661619Y-32511964D01*
X35623523Y-32550059D01*
X35547333Y-32588154D01*
X35394952Y-32588154D01*
X35318761Y-32550059D01*
X35280666Y-32511964D01*
X35242571Y-32435773D01*
X35242571Y-32245297D01*
X35280666Y-32169107D01*
X35318761Y-32131011D01*
X35394952Y-32092916D01*
X35547333Y-32092916D01*
X35623523Y-32131011D01*
X35661619Y-32169107D01*
X35699714Y-32245297D01*
X36080666Y-34709107D02*
X36347333Y-34709107D01*
X36347333Y-35128154D02*
X36347333Y-34328154D01*
X35966380Y-34328154D01*
X35737809Y-34328154D02*
X35204476Y-34328154D01*
X35547333Y-35128154D01*
X36137809Y-42329107D02*
X36023523Y-42367202D01*
X35985428Y-42405297D01*
X35947333Y-42481488D01*
X35947333Y-42595773D01*
X35985428Y-42671964D01*
X36023523Y-42710059D01*
X36099714Y-42748154D01*
X36404476Y-42748154D01*
X36404476Y-41948154D01*
X36137809Y-41948154D01*
X36061619Y-41986250D01*
X36023523Y-42024345D01*
X35985428Y-42100535D01*
X35985428Y-42176726D01*
X36023523Y-42252916D01*
X36061619Y-42291011D01*
X36137809Y-42329107D01*
X36404476Y-42329107D01*
X35642571Y-42024345D02*
X35604476Y-41986250D01*
X35528285Y-41948154D01*
X35337809Y-41948154D01*
X35261619Y-41986250D01*
X35223523Y-42024345D01*
X35185428Y-42100535D01*
X35185428Y-42176726D01*
X35223523Y-42291011D01*
X35680666Y-42748154D01*
X35185428Y-42748154D01*
%TO.C,D23*%
X100561904Y-97428171D02*
X99761904Y-97428171D01*
X99761904Y-97618647D01*
X99800000Y-97732933D01*
X99876190Y-97809123D01*
X99952380Y-97847219D01*
X100104761Y-97885314D01*
X100219047Y-97885314D01*
X100371428Y-97847219D01*
X100447619Y-97809123D01*
X100523809Y-97732933D01*
X100561904Y-97618647D01*
X100561904Y-97428171D01*
X99838095Y-98190076D02*
X99800000Y-98228171D01*
X99761904Y-98304361D01*
X99761904Y-98494838D01*
X99800000Y-98571028D01*
X99838095Y-98609123D01*
X99914285Y-98647219D01*
X99990476Y-98647219D01*
X100104761Y-98609123D01*
X100561904Y-98151980D01*
X100561904Y-98647219D01*
X99761904Y-98913885D02*
X99761904Y-99409123D01*
X100066666Y-99142457D01*
X100066666Y-99256742D01*
X100104761Y-99332933D01*
X100142857Y-99371028D01*
X100219047Y-99409123D01*
X100409523Y-99409123D01*
X100485714Y-99371028D01*
X100523809Y-99332933D01*
X100561904Y-99256742D01*
X100561904Y-99028171D01*
X100523809Y-98951980D01*
X100485714Y-98913885D01*
%TO.C,D22*%
X99421828Y-86274404D02*
X99421828Y-85474404D01*
X99231352Y-85474404D01*
X99117066Y-85512500D01*
X99040876Y-85588690D01*
X99002780Y-85664880D01*
X98964685Y-85817261D01*
X98964685Y-85931547D01*
X99002780Y-86083928D01*
X99040876Y-86160119D01*
X99117066Y-86236309D01*
X99231352Y-86274404D01*
X99421828Y-86274404D01*
X98659923Y-85550595D02*
X98621828Y-85512500D01*
X98545638Y-85474404D01*
X98355161Y-85474404D01*
X98278971Y-85512500D01*
X98240876Y-85550595D01*
X98202780Y-85626785D01*
X98202780Y-85702976D01*
X98240876Y-85817261D01*
X98698019Y-86274404D01*
X98202780Y-86274404D01*
X97898019Y-85550595D02*
X97859923Y-85512500D01*
X97783733Y-85474404D01*
X97593257Y-85474404D01*
X97517066Y-85512500D01*
X97478971Y-85550595D01*
X97440876Y-85626785D01*
X97440876Y-85702976D01*
X97478971Y-85817261D01*
X97936114Y-86274404D01*
X97440876Y-86274404D01*
%TO.C,D21*%
X99421828Y-67224404D02*
X99421828Y-66424404D01*
X99231352Y-66424404D01*
X99117066Y-66462500D01*
X99040876Y-66538690D01*
X99002780Y-66614880D01*
X98964685Y-66767261D01*
X98964685Y-66881547D01*
X99002780Y-67033928D01*
X99040876Y-67110119D01*
X99117066Y-67186309D01*
X99231352Y-67224404D01*
X99421828Y-67224404D01*
X98659923Y-66500595D02*
X98621828Y-66462500D01*
X98545638Y-66424404D01*
X98355161Y-66424404D01*
X98278971Y-66462500D01*
X98240876Y-66500595D01*
X98202780Y-66576785D01*
X98202780Y-66652976D01*
X98240876Y-66767261D01*
X98698019Y-67224404D01*
X98202780Y-67224404D01*
X97440876Y-67224404D02*
X97898019Y-67224404D01*
X97669447Y-67224404D02*
X97669447Y-66424404D01*
X97745638Y-66538690D01*
X97821828Y-66614880D01*
X97898019Y-66652976D01*
%TO.C,D20*%
X99421828Y-48174404D02*
X99421828Y-47374404D01*
X99231352Y-47374404D01*
X99117066Y-47412500D01*
X99040876Y-47488690D01*
X99002780Y-47564880D01*
X98964685Y-47717261D01*
X98964685Y-47831547D01*
X99002780Y-47983928D01*
X99040876Y-48060119D01*
X99117066Y-48136309D01*
X99231352Y-48174404D01*
X99421828Y-48174404D01*
X98659923Y-47450595D02*
X98621828Y-47412500D01*
X98545638Y-47374404D01*
X98355161Y-47374404D01*
X98278971Y-47412500D01*
X98240876Y-47450595D01*
X98202780Y-47526785D01*
X98202780Y-47602976D01*
X98240876Y-47717261D01*
X98698019Y-48174404D01*
X98202780Y-48174404D01*
X97707542Y-47374404D02*
X97631352Y-47374404D01*
X97555161Y-47412500D01*
X97517066Y-47450595D01*
X97478971Y-47526785D01*
X97440876Y-47679166D01*
X97440876Y-47869642D01*
X97478971Y-48022023D01*
X97517066Y-48098214D01*
X97555161Y-48136309D01*
X97631352Y-48174404D01*
X97707542Y-48174404D01*
X97783733Y-48136309D01*
X97821828Y-48098214D01*
X97859923Y-48022023D01*
X97898019Y-47869642D01*
X97898019Y-47679166D01*
X97859923Y-47526785D01*
X97821828Y-47450595D01*
X97783733Y-47412500D01*
X97707542Y-47374404D01*
%TO.C,D19*%
X99421828Y-29124404D02*
X99421828Y-28324404D01*
X99231352Y-28324404D01*
X99117066Y-28362500D01*
X99040876Y-28438690D01*
X99002780Y-28514880D01*
X98964685Y-28667261D01*
X98964685Y-28781547D01*
X99002780Y-28933928D01*
X99040876Y-29010119D01*
X99117066Y-29086309D01*
X99231352Y-29124404D01*
X99421828Y-29124404D01*
X98202780Y-29124404D02*
X98659923Y-29124404D01*
X98431352Y-29124404D02*
X98431352Y-28324404D01*
X98507542Y-28438690D01*
X98583733Y-28514880D01*
X98659923Y-28552976D01*
X97821828Y-29124404D02*
X97669447Y-29124404D01*
X97593257Y-29086309D01*
X97555161Y-29048214D01*
X97478971Y-28933928D01*
X97440876Y-28781547D01*
X97440876Y-28476785D01*
X97478971Y-28400595D01*
X97517066Y-28362500D01*
X97593257Y-28324404D01*
X97745638Y-28324404D01*
X97821828Y-28362500D01*
X97859923Y-28400595D01*
X97898019Y-28476785D01*
X97898019Y-28667261D01*
X97859923Y-28743452D01*
X97821828Y-28781547D01*
X97745638Y-28819642D01*
X97593257Y-28819642D01*
X97517066Y-28781547D01*
X97478971Y-28743452D01*
X97440876Y-28667261D01*
%TO.C,D18*%
X76749404Y-97428171D02*
X75949404Y-97428171D01*
X75949404Y-97618647D01*
X75987500Y-97732933D01*
X76063690Y-97809123D01*
X76139880Y-97847219D01*
X76292261Y-97885314D01*
X76406547Y-97885314D01*
X76558928Y-97847219D01*
X76635119Y-97809123D01*
X76711309Y-97732933D01*
X76749404Y-97618647D01*
X76749404Y-97428171D01*
X76749404Y-98647219D02*
X76749404Y-98190076D01*
X76749404Y-98418647D02*
X75949404Y-98418647D01*
X76063690Y-98342457D01*
X76139880Y-98266266D01*
X76177976Y-98190076D01*
X76292261Y-99104361D02*
X76254166Y-99028171D01*
X76216071Y-98990076D01*
X76139880Y-98951980D01*
X76101785Y-98951980D01*
X76025595Y-98990076D01*
X75987500Y-99028171D01*
X75949404Y-99104361D01*
X75949404Y-99256742D01*
X75987500Y-99332933D01*
X76025595Y-99371028D01*
X76101785Y-99409123D01*
X76139880Y-99409123D01*
X76216071Y-99371028D01*
X76254166Y-99332933D01*
X76292261Y-99256742D01*
X76292261Y-99104361D01*
X76330357Y-99028171D01*
X76368452Y-98990076D01*
X76444642Y-98951980D01*
X76597023Y-98951980D01*
X76673214Y-98990076D01*
X76711309Y-99028171D01*
X76749404Y-99104361D01*
X76749404Y-99256742D01*
X76711309Y-99332933D01*
X76673214Y-99371028D01*
X76597023Y-99409123D01*
X76444642Y-99409123D01*
X76368452Y-99371028D01*
X76330357Y-99332933D01*
X76292261Y-99256742D01*
%TO.C,D17*%
X86274404Y-78378171D02*
X85474404Y-78378171D01*
X85474404Y-78568647D01*
X85512500Y-78682933D01*
X85588690Y-78759123D01*
X85664880Y-78797219D01*
X85817261Y-78835314D01*
X85931547Y-78835314D01*
X86083928Y-78797219D01*
X86160119Y-78759123D01*
X86236309Y-78682933D01*
X86274404Y-78568647D01*
X86274404Y-78378171D01*
X86274404Y-79597219D02*
X86274404Y-79140076D01*
X86274404Y-79368647D02*
X85474404Y-79368647D01*
X85588690Y-79292457D01*
X85664880Y-79216266D01*
X85702976Y-79140076D01*
X85474404Y-79863885D02*
X85474404Y-80397219D01*
X86274404Y-80054361D01*
%TO.C,D16*%
X86274404Y-59328171D02*
X85474404Y-59328171D01*
X85474404Y-59518647D01*
X85512500Y-59632933D01*
X85588690Y-59709123D01*
X85664880Y-59747219D01*
X85817261Y-59785314D01*
X85931547Y-59785314D01*
X86083928Y-59747219D01*
X86160119Y-59709123D01*
X86236309Y-59632933D01*
X86274404Y-59518647D01*
X86274404Y-59328171D01*
X86274404Y-60547219D02*
X86274404Y-60090076D01*
X86274404Y-60318647D02*
X85474404Y-60318647D01*
X85588690Y-60242457D01*
X85664880Y-60166266D01*
X85702976Y-60090076D01*
X85474404Y-61232933D02*
X85474404Y-61080552D01*
X85512500Y-61004361D01*
X85550595Y-60966266D01*
X85664880Y-60890076D01*
X85817261Y-60851980D01*
X86122023Y-60851980D01*
X86198214Y-60890076D01*
X86236309Y-60928171D01*
X86274404Y-61004361D01*
X86274404Y-61156742D01*
X86236309Y-61232933D01*
X86198214Y-61271028D01*
X86122023Y-61309123D01*
X85931547Y-61309123D01*
X85855357Y-61271028D01*
X85817261Y-61232933D01*
X85779166Y-61156742D01*
X85779166Y-61004361D01*
X85817261Y-60928171D01*
X85855357Y-60890076D01*
X85931547Y-60851980D01*
%TO.C,D15*%
X86274404Y-40278171D02*
X85474404Y-40278171D01*
X85474404Y-40468647D01*
X85512500Y-40582933D01*
X85588690Y-40659123D01*
X85664880Y-40697219D01*
X85817261Y-40735314D01*
X85931547Y-40735314D01*
X86083928Y-40697219D01*
X86160119Y-40659123D01*
X86236309Y-40582933D01*
X86274404Y-40468647D01*
X86274404Y-40278171D01*
X86274404Y-41497219D02*
X86274404Y-41040076D01*
X86274404Y-41268647D02*
X85474404Y-41268647D01*
X85588690Y-41192457D01*
X85664880Y-41116266D01*
X85702976Y-41040076D01*
X85474404Y-42221028D02*
X85474404Y-41840076D01*
X85855357Y-41801980D01*
X85817261Y-41840076D01*
X85779166Y-41916266D01*
X85779166Y-42106742D01*
X85817261Y-42182933D01*
X85855357Y-42221028D01*
X85931547Y-42259123D01*
X86122023Y-42259123D01*
X86198214Y-42221028D01*
X86236309Y-42182933D01*
X86274404Y-42106742D01*
X86274404Y-41916266D01*
X86236309Y-41840076D01*
X86198214Y-41801980D01*
%TO.C,D14*%
X86274404Y-21228171D02*
X85474404Y-21228171D01*
X85474404Y-21418647D01*
X85512500Y-21532933D01*
X85588690Y-21609123D01*
X85664880Y-21647219D01*
X85817261Y-21685314D01*
X85931547Y-21685314D01*
X86083928Y-21647219D01*
X86160119Y-21609123D01*
X86236309Y-21532933D01*
X86274404Y-21418647D01*
X86274404Y-21228171D01*
X86274404Y-22447219D02*
X86274404Y-21990076D01*
X86274404Y-22218647D02*
X85474404Y-22218647D01*
X85588690Y-22142457D01*
X85664880Y-22066266D01*
X85702976Y-21990076D01*
X85741071Y-23132933D02*
X86274404Y-23132933D01*
X85436309Y-22942457D02*
X86007738Y-22751980D01*
X86007738Y-23247219D01*
%TO.C,D13*%
X57699404Y-97428171D02*
X56899404Y-97428171D01*
X56899404Y-97618647D01*
X56937500Y-97732933D01*
X57013690Y-97809123D01*
X57089880Y-97847219D01*
X57242261Y-97885314D01*
X57356547Y-97885314D01*
X57508928Y-97847219D01*
X57585119Y-97809123D01*
X57661309Y-97732933D01*
X57699404Y-97618647D01*
X57699404Y-97428171D01*
X57699404Y-98647219D02*
X57699404Y-98190076D01*
X57699404Y-98418647D02*
X56899404Y-98418647D01*
X57013690Y-98342457D01*
X57089880Y-98266266D01*
X57127976Y-98190076D01*
X56899404Y-98913885D02*
X56899404Y-99409123D01*
X57204166Y-99142457D01*
X57204166Y-99256742D01*
X57242261Y-99332933D01*
X57280357Y-99371028D01*
X57356547Y-99409123D01*
X57547023Y-99409123D01*
X57623214Y-99371028D01*
X57661309Y-99332933D01*
X57699404Y-99256742D01*
X57699404Y-99028171D01*
X57661309Y-98951980D01*
X57623214Y-98913885D01*
%TO.C,D12*%
X67224404Y-78378171D02*
X66424404Y-78378171D01*
X66424404Y-78568647D01*
X66462500Y-78682933D01*
X66538690Y-78759123D01*
X66614880Y-78797219D01*
X66767261Y-78835314D01*
X66881547Y-78835314D01*
X67033928Y-78797219D01*
X67110119Y-78759123D01*
X67186309Y-78682933D01*
X67224404Y-78568647D01*
X67224404Y-78378171D01*
X67224404Y-79597219D02*
X67224404Y-79140076D01*
X67224404Y-79368647D02*
X66424404Y-79368647D01*
X66538690Y-79292457D01*
X66614880Y-79216266D01*
X66652976Y-79140076D01*
X66500595Y-79901980D02*
X66462500Y-79940076D01*
X66424404Y-80016266D01*
X66424404Y-80206742D01*
X66462500Y-80282933D01*
X66500595Y-80321028D01*
X66576785Y-80359123D01*
X66652976Y-80359123D01*
X66767261Y-80321028D01*
X67224404Y-79863885D01*
X67224404Y-80359123D01*
%TO.C,D11*%
X67224404Y-59328171D02*
X66424404Y-59328171D01*
X66424404Y-59518647D01*
X66462500Y-59632933D01*
X66538690Y-59709123D01*
X66614880Y-59747219D01*
X66767261Y-59785314D01*
X66881547Y-59785314D01*
X67033928Y-59747219D01*
X67110119Y-59709123D01*
X67186309Y-59632933D01*
X67224404Y-59518647D01*
X67224404Y-59328171D01*
X67224404Y-60547219D02*
X67224404Y-60090076D01*
X67224404Y-60318647D02*
X66424404Y-60318647D01*
X66538690Y-60242457D01*
X66614880Y-60166266D01*
X66652976Y-60090076D01*
X67224404Y-61309123D02*
X67224404Y-60851980D01*
X67224404Y-61080552D02*
X66424404Y-61080552D01*
X66538690Y-61004361D01*
X66614880Y-60928171D01*
X66652976Y-60851980D01*
%TO.C,D10*%
X67224404Y-40278171D02*
X66424404Y-40278171D01*
X66424404Y-40468647D01*
X66462500Y-40582933D01*
X66538690Y-40659123D01*
X66614880Y-40697219D01*
X66767261Y-40735314D01*
X66881547Y-40735314D01*
X67033928Y-40697219D01*
X67110119Y-40659123D01*
X67186309Y-40582933D01*
X67224404Y-40468647D01*
X67224404Y-40278171D01*
X67224404Y-41497219D02*
X67224404Y-41040076D01*
X67224404Y-41268647D02*
X66424404Y-41268647D01*
X66538690Y-41192457D01*
X66614880Y-41116266D01*
X66652976Y-41040076D01*
X66424404Y-41992457D02*
X66424404Y-42068647D01*
X66462500Y-42144838D01*
X66500595Y-42182933D01*
X66576785Y-42221028D01*
X66729166Y-42259123D01*
X66919642Y-42259123D01*
X67072023Y-42221028D01*
X67148214Y-42182933D01*
X67186309Y-42144838D01*
X67224404Y-42068647D01*
X67224404Y-41992457D01*
X67186309Y-41916266D01*
X67148214Y-41878171D01*
X67072023Y-41840076D01*
X66919642Y-41801980D01*
X66729166Y-41801980D01*
X66576785Y-41840076D01*
X66500595Y-41878171D01*
X66462500Y-41916266D01*
X66424404Y-41992457D01*
%TO.C,D9*%
X67224404Y-21609123D02*
X66424404Y-21609123D01*
X66424404Y-21799600D01*
X66462500Y-21913885D01*
X66538690Y-21990076D01*
X66614880Y-22028171D01*
X66767261Y-22066266D01*
X66881547Y-22066266D01*
X67033928Y-22028171D01*
X67110119Y-21990076D01*
X67186309Y-21913885D01*
X67224404Y-21799600D01*
X67224404Y-21609123D01*
X67224404Y-22447219D02*
X67224404Y-22599600D01*
X67186309Y-22675790D01*
X67148214Y-22713885D01*
X67033928Y-22790076D01*
X66881547Y-22828171D01*
X66576785Y-22828171D01*
X66500595Y-22790076D01*
X66462500Y-22751980D01*
X66424404Y-22675790D01*
X66424404Y-22523409D01*
X66462500Y-22447219D01*
X66500595Y-22409123D01*
X66576785Y-22371028D01*
X66767261Y-22371028D01*
X66843452Y-22409123D01*
X66881547Y-22447219D01*
X66919642Y-22523409D01*
X66919642Y-22675790D01*
X66881547Y-22751980D01*
X66843452Y-22790076D01*
X66767261Y-22828171D01*
%TO.C,D8*%
X48174404Y-78759123D02*
X47374404Y-78759123D01*
X47374404Y-78949600D01*
X47412500Y-79063885D01*
X47488690Y-79140076D01*
X47564880Y-79178171D01*
X47717261Y-79216266D01*
X47831547Y-79216266D01*
X47983928Y-79178171D01*
X48060119Y-79140076D01*
X48136309Y-79063885D01*
X48174404Y-78949600D01*
X48174404Y-78759123D01*
X47717261Y-79673409D02*
X47679166Y-79597219D01*
X47641071Y-79559123D01*
X47564880Y-79521028D01*
X47526785Y-79521028D01*
X47450595Y-79559123D01*
X47412500Y-79597219D01*
X47374404Y-79673409D01*
X47374404Y-79825790D01*
X47412500Y-79901980D01*
X47450595Y-79940076D01*
X47526785Y-79978171D01*
X47564880Y-79978171D01*
X47641071Y-79940076D01*
X47679166Y-79901980D01*
X47717261Y-79825790D01*
X47717261Y-79673409D01*
X47755357Y-79597219D01*
X47793452Y-79559123D01*
X47869642Y-79521028D01*
X48022023Y-79521028D01*
X48098214Y-79559123D01*
X48136309Y-79597219D01*
X48174404Y-79673409D01*
X48174404Y-79825790D01*
X48136309Y-79901980D01*
X48098214Y-79940076D01*
X48022023Y-79978171D01*
X47869642Y-79978171D01*
X47793452Y-79940076D01*
X47755357Y-79901980D01*
X47717261Y-79825790D01*
%TO.C,D7*%
X48174404Y-59709123D02*
X47374404Y-59709123D01*
X47374404Y-59899600D01*
X47412500Y-60013885D01*
X47488690Y-60090076D01*
X47564880Y-60128171D01*
X47717261Y-60166266D01*
X47831547Y-60166266D01*
X47983928Y-60128171D01*
X48060119Y-60090076D01*
X48136309Y-60013885D01*
X48174404Y-59899600D01*
X48174404Y-59709123D01*
X47374404Y-60432933D02*
X47374404Y-60966266D01*
X48174404Y-60623409D01*
%TO.C,D6*%
X41890876Y-48174404D02*
X41890876Y-47374404D01*
X41700400Y-47374404D01*
X41586114Y-47412500D01*
X41509923Y-47488690D01*
X41471828Y-47564880D01*
X41433733Y-47717261D01*
X41433733Y-47831547D01*
X41471828Y-47983928D01*
X41509923Y-48060119D01*
X41586114Y-48136309D01*
X41700400Y-48174404D01*
X41890876Y-48174404D01*
X40748019Y-47374404D02*
X40900400Y-47374404D01*
X40976590Y-47412500D01*
X41014685Y-47450595D01*
X41090876Y-47564880D01*
X41128971Y-47717261D01*
X41128971Y-48022023D01*
X41090876Y-48098214D01*
X41052780Y-48136309D01*
X40976590Y-48174404D01*
X40824209Y-48174404D01*
X40748019Y-48136309D01*
X40709923Y-48098214D01*
X40671828Y-48022023D01*
X40671828Y-47831547D01*
X40709923Y-47755357D01*
X40748019Y-47717261D01*
X40824209Y-47679166D01*
X40976590Y-47679166D01*
X41052780Y-47717261D01*
X41090876Y-47755357D01*
X41128971Y-47831547D01*
%TO.C,D5*%
X41890876Y-29124404D02*
X41890876Y-28324404D01*
X41700400Y-28324404D01*
X41586114Y-28362500D01*
X41509923Y-28438690D01*
X41471828Y-28514880D01*
X41433733Y-28667261D01*
X41433733Y-28781547D01*
X41471828Y-28933928D01*
X41509923Y-29010119D01*
X41586114Y-29086309D01*
X41700400Y-29124404D01*
X41890876Y-29124404D01*
X40709923Y-28324404D02*
X41090876Y-28324404D01*
X41128971Y-28705357D01*
X41090876Y-28667261D01*
X41014685Y-28629166D01*
X40824209Y-28629166D01*
X40748019Y-28667261D01*
X40709923Y-28705357D01*
X40671828Y-28781547D01*
X40671828Y-28972023D01*
X40709923Y-29048214D01*
X40748019Y-29086309D01*
X40824209Y-29124404D01*
X41014685Y-29124404D01*
X41090876Y-29086309D01*
X41128971Y-29048214D01*
%TO.C,D4*%
X29124404Y-78759123D02*
X28324404Y-78759123D01*
X28324404Y-78949600D01*
X28362500Y-79063885D01*
X28438690Y-79140076D01*
X28514880Y-79178171D01*
X28667261Y-79216266D01*
X28781547Y-79216266D01*
X28933928Y-79178171D01*
X29010119Y-79140076D01*
X29086309Y-79063885D01*
X29124404Y-78949600D01*
X29124404Y-78759123D01*
X28591071Y-79901980D02*
X29124404Y-79901980D01*
X28286309Y-79711504D02*
X28857738Y-79521028D01*
X28857738Y-80016266D01*
%TO.C,D3*%
X29124404Y-59709123D02*
X28324404Y-59709123D01*
X28324404Y-59899600D01*
X28362500Y-60013885D01*
X28438690Y-60090076D01*
X28514880Y-60128171D01*
X28667261Y-60166266D01*
X28781547Y-60166266D01*
X28933928Y-60128171D01*
X29010119Y-60090076D01*
X29086309Y-60013885D01*
X29124404Y-59899600D01*
X29124404Y-59709123D01*
X28324404Y-60432933D02*
X28324404Y-60928171D01*
X28629166Y-60661504D01*
X28629166Y-60775790D01*
X28667261Y-60851980D01*
X28705357Y-60890076D01*
X28781547Y-60928171D01*
X28972023Y-60928171D01*
X29048214Y-60890076D01*
X29086309Y-60851980D01*
X29124404Y-60775790D01*
X29124404Y-60547219D01*
X29086309Y-60471028D01*
X29048214Y-60432933D01*
%TO.C,D2*%
X22840876Y-48174404D02*
X22840876Y-47374404D01*
X22650400Y-47374404D01*
X22536114Y-47412500D01*
X22459923Y-47488690D01*
X22421828Y-47564880D01*
X22383733Y-47717261D01*
X22383733Y-47831547D01*
X22421828Y-47983928D01*
X22459923Y-48060119D01*
X22536114Y-48136309D01*
X22650400Y-48174404D01*
X22840876Y-48174404D01*
X22078971Y-47450595D02*
X22040876Y-47412500D01*
X21964685Y-47374404D01*
X21774209Y-47374404D01*
X21698019Y-47412500D01*
X21659923Y-47450595D01*
X21621828Y-47526785D01*
X21621828Y-47602976D01*
X21659923Y-47717261D01*
X22117066Y-48174404D01*
X21621828Y-48174404D01*
%TO.C,D1*%
X29124404Y-21609123D02*
X28324404Y-21609123D01*
X28324404Y-21799600D01*
X28362500Y-21913885D01*
X28438690Y-21990076D01*
X28514880Y-22028171D01*
X28667261Y-22066266D01*
X28781547Y-22066266D01*
X28933928Y-22028171D01*
X29010119Y-21990076D01*
X29086309Y-21913885D01*
X29124404Y-21799600D01*
X29124404Y-21609123D01*
X29124404Y-22828171D02*
X29124404Y-22371028D01*
X29124404Y-22599600D02*
X28324404Y-22599600D01*
X28438690Y-22523409D01*
X28514880Y-22447219D01*
X28552976Y-22371028D01*
%TD*%
%LPC*%
%TO.C,M3*%
G36*
G01*
X107937300Y-36772850D02*
X107937300Y-37649150D01*
G75*
G02*
X107499150Y-38087300I-438150J0D01*
G01*
X106622850Y-38087300D01*
G75*
G02*
X106184700Y-37649150I0J438150D01*
G01*
X106184700Y-36772850D01*
G75*
G02*
X106622850Y-36334700I438150J0D01*
G01*
X107499150Y-36334700D01*
G75*
G02*
X107937300Y-36772850I0J-438150D01*
G01*
G37*
G36*
G01*
X107937300Y-38804850D02*
X107937300Y-39681150D01*
G75*
G02*
X107499150Y-40119300I-438150J0D01*
G01*
X106622850Y-40119300D01*
G75*
G02*
X106184700Y-39681150I0J438150D01*
G01*
X106184700Y-38804850D01*
G75*
G02*
X106622850Y-38366700I438150J0D01*
G01*
X107499150Y-38366700D01*
G75*
G02*
X107937300Y-38804850I0J-438150D01*
G01*
G37*
G36*
G01*
X107937300Y-40836850D02*
X107937300Y-41713150D01*
G75*
G02*
X107499150Y-42151300I-438150J0D01*
G01*
X106622850Y-42151300D01*
G75*
G02*
X106184700Y-41713150I0J438150D01*
G01*
X106184700Y-40836850D01*
G75*
G02*
X106622850Y-40398700I438150J0D01*
G01*
X107499150Y-40398700D01*
G75*
G02*
X107937300Y-40836850I0J-438150D01*
G01*
G37*
G36*
G01*
X107937300Y-42868850D02*
X107937300Y-43745150D01*
G75*
G02*
X107499150Y-44183300I-438150J0D01*
G01*
X106622850Y-44183300D01*
G75*
G02*
X106184700Y-43745150I0J438150D01*
G01*
X106184700Y-42868850D01*
G75*
G02*
X106622850Y-42430700I438150J0D01*
G01*
X107499150Y-42430700D01*
G75*
G02*
X107937300Y-42868850I0J-438150D01*
G01*
G37*
G36*
G01*
X107937300Y-44900850D02*
X107937300Y-45777150D01*
G75*
G02*
X107499150Y-46215300I-438150J0D01*
G01*
X106622850Y-46215300D01*
G75*
G02*
X106184700Y-45777150I0J438150D01*
G01*
X106184700Y-44900850D01*
G75*
G02*
X106622850Y-44462700I438150J0D01*
G01*
X107499150Y-44462700D01*
G75*
G02*
X107937300Y-44900850I0J-438150D01*
G01*
G37*
%TD*%
%TO.C,M2*%
G36*
G01*
X106184700Y-83877150D02*
X106184700Y-83000850D01*
G75*
G02*
X106622850Y-82562700I438150J0D01*
G01*
X107499150Y-82562700D01*
G75*
G02*
X107937300Y-83000850I0J-438150D01*
G01*
X107937300Y-83877150D01*
G75*
G02*
X107499150Y-84315300I-438150J0D01*
G01*
X106622850Y-84315300D01*
G75*
G02*
X106184700Y-83877150I0J438150D01*
G01*
G37*
G36*
G01*
X106184700Y-81845150D02*
X106184700Y-80968850D01*
G75*
G02*
X106622850Y-80530700I438150J0D01*
G01*
X107499150Y-80530700D01*
G75*
G02*
X107937300Y-80968850I0J-438150D01*
G01*
X107937300Y-81845150D01*
G75*
G02*
X107499150Y-82283300I-438150J0D01*
G01*
X106622850Y-82283300D01*
G75*
G02*
X106184700Y-81845150I0J438150D01*
G01*
G37*
G36*
G01*
X106184700Y-79813150D02*
X106184700Y-78936850D01*
G75*
G02*
X106622850Y-78498700I438150J0D01*
G01*
X107499150Y-78498700D01*
G75*
G02*
X107937300Y-78936850I0J-438150D01*
G01*
X107937300Y-79813150D01*
G75*
G02*
X107499150Y-80251300I-438150J0D01*
G01*
X106622850Y-80251300D01*
G75*
G02*
X106184700Y-79813150I0J438150D01*
G01*
G37*
G36*
G01*
X106184700Y-77781150D02*
X106184700Y-76904850D01*
G75*
G02*
X106622850Y-76466700I438150J0D01*
G01*
X107499150Y-76466700D01*
G75*
G02*
X107937300Y-76904850I0J-438150D01*
G01*
X107937300Y-77781150D01*
G75*
G02*
X107499150Y-78219300I-438150J0D01*
G01*
X106622850Y-78219300D01*
G75*
G02*
X106184700Y-77781150I0J438150D01*
G01*
G37*
G36*
G01*
X106184700Y-75749150D02*
X106184700Y-74872850D01*
G75*
G02*
X106622850Y-74434700I438150J0D01*
G01*
X107499150Y-74434700D01*
G75*
G02*
X107937300Y-74872850I0J-438150D01*
G01*
X107937300Y-75749150D01*
G75*
G02*
X107499150Y-76187300I-438150J0D01*
G01*
X106622850Y-76187300D01*
G75*
G02*
X106184700Y-75749150I0J438150D01*
G01*
G37*
%TD*%
%TO.C,M1*%
G36*
G01*
X106184700Y-64827150D02*
X106184700Y-63950850D01*
G75*
G02*
X106622850Y-63512700I438150J0D01*
G01*
X107499150Y-63512700D01*
G75*
G02*
X107937300Y-63950850I0J-438150D01*
G01*
X107937300Y-64827150D01*
G75*
G02*
X107499150Y-65265300I-438150J0D01*
G01*
X106622850Y-65265300D01*
G75*
G02*
X106184700Y-64827150I0J438150D01*
G01*
G37*
G36*
G01*
X106184700Y-62795150D02*
X106184700Y-61918850D01*
G75*
G02*
X106622850Y-61480700I438150J0D01*
G01*
X107499150Y-61480700D01*
G75*
G02*
X107937300Y-61918850I0J-438150D01*
G01*
X107937300Y-62795150D01*
G75*
G02*
X107499150Y-63233300I-438150J0D01*
G01*
X106622850Y-63233300D01*
G75*
G02*
X106184700Y-62795150I0J438150D01*
G01*
G37*
G36*
G01*
X106184700Y-60763150D02*
X106184700Y-59886850D01*
G75*
G02*
X106622850Y-59448700I438150J0D01*
G01*
X107499150Y-59448700D01*
G75*
G02*
X107937300Y-59886850I0J-438150D01*
G01*
X107937300Y-60763150D01*
G75*
G02*
X107499150Y-61201300I-438150J0D01*
G01*
X106622850Y-61201300D01*
G75*
G02*
X106184700Y-60763150I0J438150D01*
G01*
G37*
G36*
G01*
X106184700Y-58731150D02*
X106184700Y-57854850D01*
G75*
G02*
X106622850Y-57416700I438150J0D01*
G01*
X107499150Y-57416700D01*
G75*
G02*
X107937300Y-57854850I0J-438150D01*
G01*
X107937300Y-58731150D01*
G75*
G02*
X107499150Y-59169300I-438150J0D01*
G01*
X106622850Y-59169300D01*
G75*
G02*
X106184700Y-58731150I0J438150D01*
G01*
G37*
G36*
G01*
X106184700Y-56699150D02*
X106184700Y-55822850D01*
G75*
G02*
X106622850Y-55384700I438150J0D01*
G01*
X107499150Y-55384700D01*
G75*
G02*
X107937300Y-55822850I0J-438150D01*
G01*
X107937300Y-56699150D01*
G75*
G02*
X107499150Y-57137300I-438150J0D01*
G01*
X106622850Y-57137300D01*
G75*
G02*
X106184700Y-56699150I0J438150D01*
G01*
G37*
%TD*%
D12*
%TO.C,MX19*%
X103505000Y-22225000D03*
X93345000Y-22225000D03*
D13*
X95925000Y-18225000D03*
D14*
X98425000Y-22225000D03*
G36*
G01*
X93863688Y-20522350D02*
X93863683Y-20522345D01*
G75*
G02*
X93777655Y-18933683I751317J837345D01*
G01*
X95087657Y-17473683D01*
G75*
G02*
X96676319Y-17387655I837345J-751317D01*
G01*
X96676319Y-17387655D01*
G75*
G02*
X96762347Y-18976317I-751317J-837345D01*
G01*
X95452345Y-20436317D01*
G75*
G02*
X93863683Y-20522345I-837345J751317D01*
G01*
G37*
D13*
X100965000Y-17145000D03*
G36*
G01*
X100848483Y-18847395D02*
X100847597Y-18847334D01*
G75*
G02*
X99802666Y-17647597I77403J1122334D01*
G01*
X99842666Y-17067597D01*
G75*
G02*
X101042403Y-16022666I1122334J-77403D01*
G01*
X101042403Y-16022666D01*
G75*
G02*
X102087334Y-17222403I-77403J-1122334D01*
G01*
X102047334Y-17802403D01*
G75*
G02*
X100847597Y-18847334I-1122334J77403D01*
G01*
G37*
%TD*%
D15*
%TO.C,U1*%
X33426400Y-16986250D03*
X48666400Y-44926250D03*
X33883600Y-19526250D03*
X33426400Y-22066250D03*
X33883600Y-24606250D03*
X33426400Y-27146250D03*
X33883600Y-29686250D03*
X33426400Y-32226250D03*
X33883600Y-34766250D03*
X33426400Y-37306250D03*
X33883600Y-39846250D03*
X33426400Y-42386250D03*
X33883600Y-44926250D03*
X49123600Y-42386250D03*
X48666400Y-39846250D03*
X49123600Y-37306250D03*
X48666400Y-34766250D03*
X49123600Y-32226250D03*
X48666400Y-29686250D03*
X49123600Y-27146250D03*
X48666400Y-24606250D03*
X49123600Y-22066250D03*
X48666400Y-19526250D03*
D16*
X49123600Y-16986250D03*
%TD*%
%TO.C,MX23*%
G36*
G01*
X96085983Y-95047395D02*
X96085097Y-95047334D01*
G75*
G02*
X95040166Y-93847597I77403J1122334D01*
G01*
X95080166Y-93267597D01*
G75*
G02*
X96279903Y-92222666I1122334J-77403D01*
G01*
X96279903Y-92222666D01*
G75*
G02*
X97324834Y-93422403I-77403J-1122334D01*
G01*
X97284834Y-94002403D01*
G75*
G02*
X96085097Y-95047334I-1122334J77403D01*
G01*
G37*
D13*
X96202500Y-93345000D03*
G36*
G01*
X89101188Y-96722350D02*
X89101183Y-96722345D01*
G75*
G02*
X89015155Y-95133683I751317J837345D01*
G01*
X90325157Y-93673683D01*
G75*
G02*
X91913819Y-93587655I837345J-751317D01*
G01*
X91913819Y-93587655D01*
G75*
G02*
X91999847Y-95176317I-751317J-837345D01*
G01*
X90689845Y-96636317D01*
G75*
G02*
X89101183Y-96722345I-837345J751317D01*
G01*
G37*
D14*
X93662500Y-98425000D03*
D13*
X91162500Y-94425000D03*
D12*
X88582500Y-98425000D03*
X98742500Y-98425000D03*
%TD*%
%TO.C,MX22*%
G36*
G01*
X100848483Y-75997395D02*
X100847597Y-75997334D01*
G75*
G02*
X99802666Y-74797597I77403J1122334D01*
G01*
X99842666Y-74217597D01*
G75*
G02*
X101042403Y-73172666I1122334J-77403D01*
G01*
X101042403Y-73172666D01*
G75*
G02*
X102087334Y-74372403I-77403J-1122334D01*
G01*
X102047334Y-74952403D01*
G75*
G02*
X100847597Y-75997334I-1122334J77403D01*
G01*
G37*
D13*
X100965000Y-74295000D03*
G36*
G01*
X93863688Y-77672350D02*
X93863683Y-77672345D01*
G75*
G02*
X93777655Y-76083683I751317J837345D01*
G01*
X95087657Y-74623683D01*
G75*
G02*
X96676319Y-74537655I837345J-751317D01*
G01*
X96676319Y-74537655D01*
G75*
G02*
X96762347Y-76126317I-751317J-837345D01*
G01*
X95452345Y-77586317D01*
G75*
G02*
X93863683Y-77672345I-837345J751317D01*
G01*
G37*
D14*
X98425000Y-79375000D03*
D13*
X95925000Y-75375000D03*
D12*
X93345000Y-79375000D03*
X103505000Y-79375000D03*
%TD*%
%TO.C,MX21*%
G36*
G01*
X100848483Y-56947395D02*
X100847597Y-56947334D01*
G75*
G02*
X99802666Y-55747597I77403J1122334D01*
G01*
X99842666Y-55167597D01*
G75*
G02*
X101042403Y-54122666I1122334J-77403D01*
G01*
X101042403Y-54122666D01*
G75*
G02*
X102087334Y-55322403I-77403J-1122334D01*
G01*
X102047334Y-55902403D01*
G75*
G02*
X100847597Y-56947334I-1122334J77403D01*
G01*
G37*
D13*
X100965000Y-55245000D03*
G36*
G01*
X93863688Y-58622350D02*
X93863683Y-58622345D01*
G75*
G02*
X93777655Y-57033683I751317J837345D01*
G01*
X95087657Y-55573683D01*
G75*
G02*
X96676319Y-55487655I837345J-751317D01*
G01*
X96676319Y-55487655D01*
G75*
G02*
X96762347Y-57076317I-751317J-837345D01*
G01*
X95452345Y-58536317D01*
G75*
G02*
X93863683Y-58622345I-837345J751317D01*
G01*
G37*
D14*
X98425000Y-60325000D03*
D13*
X95925000Y-56325000D03*
D12*
X93345000Y-60325000D03*
X103505000Y-60325000D03*
%TD*%
%TO.C,MX20*%
G36*
G01*
X100848483Y-37897395D02*
X100847597Y-37897334D01*
G75*
G02*
X99802666Y-36697597I77403J1122334D01*
G01*
X99842666Y-36117597D01*
G75*
G02*
X101042403Y-35072666I1122334J-77403D01*
G01*
X101042403Y-35072666D01*
G75*
G02*
X102087334Y-36272403I-77403J-1122334D01*
G01*
X102047334Y-36852403D01*
G75*
G02*
X100847597Y-37897334I-1122334J77403D01*
G01*
G37*
D13*
X100965000Y-36195000D03*
G36*
G01*
X93863688Y-39572350D02*
X93863683Y-39572345D01*
G75*
G02*
X93777655Y-37983683I751317J837345D01*
G01*
X95087657Y-36523683D01*
G75*
G02*
X96676319Y-36437655I837345J-751317D01*
G01*
X96676319Y-36437655D01*
G75*
G02*
X96762347Y-38026317I-751317J-837345D01*
G01*
X95452345Y-39486317D01*
G75*
G02*
X93863683Y-39572345I-837345J751317D01*
G01*
G37*
D14*
X98425000Y-41275000D03*
D13*
X95925000Y-37275000D03*
D12*
X93345000Y-41275000D03*
X103505000Y-41275000D03*
%TD*%
%TO.C,MX18*%
G36*
G01*
X72273483Y-95047395D02*
X72272597Y-95047334D01*
G75*
G02*
X71227666Y-93847597I77403J1122334D01*
G01*
X71267666Y-93267597D01*
G75*
G02*
X72467403Y-92222666I1122334J-77403D01*
G01*
X72467403Y-92222666D01*
G75*
G02*
X73512334Y-93422403I-77403J-1122334D01*
G01*
X73472334Y-94002403D01*
G75*
G02*
X72272597Y-95047334I-1122334J77403D01*
G01*
G37*
D13*
X72390000Y-93345000D03*
G36*
G01*
X65288688Y-96722350D02*
X65288683Y-96722345D01*
G75*
G02*
X65202655Y-95133683I751317J837345D01*
G01*
X66512657Y-93673683D01*
G75*
G02*
X68101319Y-93587655I837345J-751317D01*
G01*
X68101319Y-93587655D01*
G75*
G02*
X68187347Y-95176317I-751317J-837345D01*
G01*
X66877345Y-96636317D01*
G75*
G02*
X65288683Y-96722345I-837345J751317D01*
G01*
G37*
D14*
X69850000Y-98425000D03*
D13*
X67350000Y-94425000D03*
D12*
X64770000Y-98425000D03*
X74930000Y-98425000D03*
%TD*%
%TO.C,MX17*%
G36*
G01*
X81798483Y-75997395D02*
X81797597Y-75997334D01*
G75*
G02*
X80752666Y-74797597I77403J1122334D01*
G01*
X80792666Y-74217597D01*
G75*
G02*
X81992403Y-73172666I1122334J-77403D01*
G01*
X81992403Y-73172666D01*
G75*
G02*
X83037334Y-74372403I-77403J-1122334D01*
G01*
X82997334Y-74952403D01*
G75*
G02*
X81797597Y-75997334I-1122334J77403D01*
G01*
G37*
D13*
X81915000Y-74295000D03*
G36*
G01*
X74813688Y-77672350D02*
X74813683Y-77672345D01*
G75*
G02*
X74727655Y-76083683I751317J837345D01*
G01*
X76037657Y-74623683D01*
G75*
G02*
X77626319Y-74537655I837345J-751317D01*
G01*
X77626319Y-74537655D01*
G75*
G02*
X77712347Y-76126317I-751317J-837345D01*
G01*
X76402345Y-77586317D01*
G75*
G02*
X74813683Y-77672345I-837345J751317D01*
G01*
G37*
D14*
X79375000Y-79375000D03*
D13*
X76875000Y-75375000D03*
D12*
X74295000Y-79375000D03*
X84455000Y-79375000D03*
%TD*%
%TO.C,MX16*%
G36*
G01*
X81798483Y-56947395D02*
X81797597Y-56947334D01*
G75*
G02*
X80752666Y-55747597I77403J1122334D01*
G01*
X80792666Y-55167597D01*
G75*
G02*
X81992403Y-54122666I1122334J-77403D01*
G01*
X81992403Y-54122666D01*
G75*
G02*
X83037334Y-55322403I-77403J-1122334D01*
G01*
X82997334Y-55902403D01*
G75*
G02*
X81797597Y-56947334I-1122334J77403D01*
G01*
G37*
D13*
X81915000Y-55245000D03*
G36*
G01*
X74813688Y-58622350D02*
X74813683Y-58622345D01*
G75*
G02*
X74727655Y-57033683I751317J837345D01*
G01*
X76037657Y-55573683D01*
G75*
G02*
X77626319Y-55487655I837345J-751317D01*
G01*
X77626319Y-55487655D01*
G75*
G02*
X77712347Y-57076317I-751317J-837345D01*
G01*
X76402345Y-58536317D01*
G75*
G02*
X74813683Y-58622345I-837345J751317D01*
G01*
G37*
D14*
X79375000Y-60325000D03*
D13*
X76875000Y-56325000D03*
D12*
X74295000Y-60325000D03*
X84455000Y-60325000D03*
%TD*%
%TO.C,MX15*%
G36*
G01*
X81798483Y-37897395D02*
X81797597Y-37897334D01*
G75*
G02*
X80752666Y-36697597I77403J1122334D01*
G01*
X80792666Y-36117597D01*
G75*
G02*
X81992403Y-35072666I1122334J-77403D01*
G01*
X81992403Y-35072666D01*
G75*
G02*
X83037334Y-36272403I-77403J-1122334D01*
G01*
X82997334Y-36852403D01*
G75*
G02*
X81797597Y-37897334I-1122334J77403D01*
G01*
G37*
D13*
X81915000Y-36195000D03*
G36*
G01*
X74813688Y-39572350D02*
X74813683Y-39572345D01*
G75*
G02*
X74727655Y-37983683I751317J837345D01*
G01*
X76037657Y-36523683D01*
G75*
G02*
X77626319Y-36437655I837345J-751317D01*
G01*
X77626319Y-36437655D01*
G75*
G02*
X77712347Y-38026317I-751317J-837345D01*
G01*
X76402345Y-39486317D01*
G75*
G02*
X74813683Y-39572345I-837345J751317D01*
G01*
G37*
D14*
X79375000Y-41275000D03*
D13*
X76875000Y-37275000D03*
D12*
X74295000Y-41275000D03*
X84455000Y-41275000D03*
%TD*%
%TO.C,MX14*%
G36*
G01*
X81798483Y-18847395D02*
X81797597Y-18847334D01*
G75*
G02*
X80752666Y-17647597I77403J1122334D01*
G01*
X80792666Y-17067597D01*
G75*
G02*
X81992403Y-16022666I1122334J-77403D01*
G01*
X81992403Y-16022666D01*
G75*
G02*
X83037334Y-17222403I-77403J-1122334D01*
G01*
X82997334Y-17802403D01*
G75*
G02*
X81797597Y-18847334I-1122334J77403D01*
G01*
G37*
D13*
X81915000Y-17145000D03*
G36*
G01*
X74813688Y-20522350D02*
X74813683Y-20522345D01*
G75*
G02*
X74727655Y-18933683I751317J837345D01*
G01*
X76037657Y-17473683D01*
G75*
G02*
X77626319Y-17387655I837345J-751317D01*
G01*
X77626319Y-17387655D01*
G75*
G02*
X77712347Y-18976317I-751317J-837345D01*
G01*
X76402345Y-20436317D01*
G75*
G02*
X74813683Y-20522345I-837345J751317D01*
G01*
G37*
D14*
X79375000Y-22225000D03*
D13*
X76875000Y-18225000D03*
D12*
X74295000Y-22225000D03*
X84455000Y-22225000D03*
%TD*%
%TO.C,MX13*%
G36*
G01*
X53223483Y-95047395D02*
X53222597Y-95047334D01*
G75*
G02*
X52177666Y-93847597I77403J1122334D01*
G01*
X52217666Y-93267597D01*
G75*
G02*
X53417403Y-92222666I1122334J-77403D01*
G01*
X53417403Y-92222666D01*
G75*
G02*
X54462334Y-93422403I-77403J-1122334D01*
G01*
X54422334Y-94002403D01*
G75*
G02*
X53222597Y-95047334I-1122334J77403D01*
G01*
G37*
D13*
X53340000Y-93345000D03*
G36*
G01*
X46238688Y-96722350D02*
X46238683Y-96722345D01*
G75*
G02*
X46152655Y-95133683I751317J837345D01*
G01*
X47462657Y-93673683D01*
G75*
G02*
X49051319Y-93587655I837345J-751317D01*
G01*
X49051319Y-93587655D01*
G75*
G02*
X49137347Y-95176317I-751317J-837345D01*
G01*
X47827345Y-96636317D01*
G75*
G02*
X46238683Y-96722345I-837345J751317D01*
G01*
G37*
D14*
X50800000Y-98425000D03*
D13*
X48300000Y-94425000D03*
D12*
X45720000Y-98425000D03*
X55880000Y-98425000D03*
%TD*%
%TO.C,MX12*%
G36*
G01*
X62748483Y-75997395D02*
X62747597Y-75997334D01*
G75*
G02*
X61702666Y-74797597I77403J1122334D01*
G01*
X61742666Y-74217597D01*
G75*
G02*
X62942403Y-73172666I1122334J-77403D01*
G01*
X62942403Y-73172666D01*
G75*
G02*
X63987334Y-74372403I-77403J-1122334D01*
G01*
X63947334Y-74952403D01*
G75*
G02*
X62747597Y-75997334I-1122334J77403D01*
G01*
G37*
D13*
X62865000Y-74295000D03*
G36*
G01*
X55763688Y-77672350D02*
X55763683Y-77672345D01*
G75*
G02*
X55677655Y-76083683I751317J837345D01*
G01*
X56987657Y-74623683D01*
G75*
G02*
X58576319Y-74537655I837345J-751317D01*
G01*
X58576319Y-74537655D01*
G75*
G02*
X58662347Y-76126317I-751317J-837345D01*
G01*
X57352345Y-77586317D01*
G75*
G02*
X55763683Y-77672345I-837345J751317D01*
G01*
G37*
D14*
X60325000Y-79375000D03*
D13*
X57825000Y-75375000D03*
D12*
X55245000Y-79375000D03*
X65405000Y-79375000D03*
%TD*%
%TO.C,MX11*%
G36*
G01*
X62748483Y-56947395D02*
X62747597Y-56947334D01*
G75*
G02*
X61702666Y-55747597I77403J1122334D01*
G01*
X61742666Y-55167597D01*
G75*
G02*
X62942403Y-54122666I1122334J-77403D01*
G01*
X62942403Y-54122666D01*
G75*
G02*
X63987334Y-55322403I-77403J-1122334D01*
G01*
X63947334Y-55902403D01*
G75*
G02*
X62747597Y-56947334I-1122334J77403D01*
G01*
G37*
D13*
X62865000Y-55245000D03*
G36*
G01*
X55763688Y-58622350D02*
X55763683Y-58622345D01*
G75*
G02*
X55677655Y-57033683I751317J837345D01*
G01*
X56987657Y-55573683D01*
G75*
G02*
X58576319Y-55487655I837345J-751317D01*
G01*
X58576319Y-55487655D01*
G75*
G02*
X58662347Y-57076317I-751317J-837345D01*
G01*
X57352345Y-58536317D01*
G75*
G02*
X55763683Y-58622345I-837345J751317D01*
G01*
G37*
D14*
X60325000Y-60325000D03*
D13*
X57825000Y-56325000D03*
D12*
X55245000Y-60325000D03*
X65405000Y-60325000D03*
%TD*%
%TO.C,MX10*%
G36*
G01*
X62748483Y-37897395D02*
X62747597Y-37897334D01*
G75*
G02*
X61702666Y-36697597I77403J1122334D01*
G01*
X61742666Y-36117597D01*
G75*
G02*
X62942403Y-35072666I1122334J-77403D01*
G01*
X62942403Y-35072666D01*
G75*
G02*
X63987334Y-36272403I-77403J-1122334D01*
G01*
X63947334Y-36852403D01*
G75*
G02*
X62747597Y-37897334I-1122334J77403D01*
G01*
G37*
D13*
X62865000Y-36195000D03*
G36*
G01*
X55763688Y-39572350D02*
X55763683Y-39572345D01*
G75*
G02*
X55677655Y-37983683I751317J837345D01*
G01*
X56987657Y-36523683D01*
G75*
G02*
X58576319Y-36437655I837345J-751317D01*
G01*
X58576319Y-36437655D01*
G75*
G02*
X58662347Y-38026317I-751317J-837345D01*
G01*
X57352345Y-39486317D01*
G75*
G02*
X55763683Y-39572345I-837345J751317D01*
G01*
G37*
D14*
X60325000Y-41275000D03*
D13*
X57825000Y-37275000D03*
D12*
X55245000Y-41275000D03*
X65405000Y-41275000D03*
%TD*%
%TO.C,MX9*%
G36*
G01*
X62748483Y-18847395D02*
X62747597Y-18847334D01*
G75*
G02*
X61702666Y-17647597I77403J1122334D01*
G01*
X61742666Y-17067597D01*
G75*
G02*
X62942403Y-16022666I1122334J-77403D01*
G01*
X62942403Y-16022666D01*
G75*
G02*
X63987334Y-17222403I-77403J-1122334D01*
G01*
X63947334Y-17802403D01*
G75*
G02*
X62747597Y-18847334I-1122334J77403D01*
G01*
G37*
D13*
X62865000Y-17145000D03*
G36*
G01*
X55763688Y-20522350D02*
X55763683Y-20522345D01*
G75*
G02*
X55677655Y-18933683I751317J837345D01*
G01*
X56987657Y-17473683D01*
G75*
G02*
X58576319Y-17387655I837345J-751317D01*
G01*
X58576319Y-17387655D01*
G75*
G02*
X58662347Y-18976317I-751317J-837345D01*
G01*
X57352345Y-20436317D01*
G75*
G02*
X55763683Y-20522345I-837345J751317D01*
G01*
G37*
D14*
X60325000Y-22225000D03*
D13*
X57825000Y-18225000D03*
D12*
X55245000Y-22225000D03*
X65405000Y-22225000D03*
%TD*%
%TO.C,MX8*%
G36*
G01*
X43698483Y-75997395D02*
X43697597Y-75997334D01*
G75*
G02*
X42652666Y-74797597I77403J1122334D01*
G01*
X42692666Y-74217597D01*
G75*
G02*
X43892403Y-73172666I1122334J-77403D01*
G01*
X43892403Y-73172666D01*
G75*
G02*
X44937334Y-74372403I-77403J-1122334D01*
G01*
X44897334Y-74952403D01*
G75*
G02*
X43697597Y-75997334I-1122334J77403D01*
G01*
G37*
D13*
X43815000Y-74295000D03*
G36*
G01*
X36713688Y-77672350D02*
X36713683Y-77672345D01*
G75*
G02*
X36627655Y-76083683I751317J837345D01*
G01*
X37937657Y-74623683D01*
G75*
G02*
X39526319Y-74537655I837345J-751317D01*
G01*
X39526319Y-74537655D01*
G75*
G02*
X39612347Y-76126317I-751317J-837345D01*
G01*
X38302345Y-77586317D01*
G75*
G02*
X36713683Y-77672345I-837345J751317D01*
G01*
G37*
D14*
X41275000Y-79375000D03*
D13*
X38775000Y-75375000D03*
D12*
X36195000Y-79375000D03*
X46355000Y-79375000D03*
%TD*%
%TO.C,MX7*%
G36*
G01*
X43698483Y-56947395D02*
X43697597Y-56947334D01*
G75*
G02*
X42652666Y-55747597I77403J1122334D01*
G01*
X42692666Y-55167597D01*
G75*
G02*
X43892403Y-54122666I1122334J-77403D01*
G01*
X43892403Y-54122666D01*
G75*
G02*
X44937334Y-55322403I-77403J-1122334D01*
G01*
X44897334Y-55902403D01*
G75*
G02*
X43697597Y-56947334I-1122334J77403D01*
G01*
G37*
D13*
X43815000Y-55245000D03*
G36*
G01*
X36713688Y-58622350D02*
X36713683Y-58622345D01*
G75*
G02*
X36627655Y-57033683I751317J837345D01*
G01*
X37937657Y-55573683D01*
G75*
G02*
X39526319Y-55487655I837345J-751317D01*
G01*
X39526319Y-55487655D01*
G75*
G02*
X39612347Y-57076317I-751317J-837345D01*
G01*
X38302345Y-58536317D01*
G75*
G02*
X36713683Y-58622345I-837345J751317D01*
G01*
G37*
D14*
X41275000Y-60325000D03*
D13*
X38775000Y-56325000D03*
D12*
X36195000Y-60325000D03*
X46355000Y-60325000D03*
%TD*%
%TO.C,MX6*%
G36*
G01*
X43698483Y-37897395D02*
X43697597Y-37897334D01*
G75*
G02*
X42652666Y-36697597I77403J1122334D01*
G01*
X42692666Y-36117597D01*
G75*
G02*
X43892403Y-35072666I1122334J-77403D01*
G01*
X43892403Y-35072666D01*
G75*
G02*
X44937334Y-36272403I-77403J-1122334D01*
G01*
X44897334Y-36852403D01*
G75*
G02*
X43697597Y-37897334I-1122334J77403D01*
G01*
G37*
D13*
X43815000Y-36195000D03*
G36*
G01*
X36713688Y-39572350D02*
X36713683Y-39572345D01*
G75*
G02*
X36627655Y-37983683I751317J837345D01*
G01*
X37937657Y-36523683D01*
G75*
G02*
X39526319Y-36437655I837345J-751317D01*
G01*
X39526319Y-36437655D01*
G75*
G02*
X39612347Y-38026317I-751317J-837345D01*
G01*
X38302345Y-39486317D01*
G75*
G02*
X36713683Y-39572345I-837345J751317D01*
G01*
G37*
D14*
X41275000Y-41275000D03*
D13*
X38775000Y-37275000D03*
D12*
X36195000Y-41275000D03*
X46355000Y-41275000D03*
%TD*%
%TO.C,MX5*%
G36*
G01*
X43698483Y-18847395D02*
X43697597Y-18847334D01*
G75*
G02*
X42652666Y-17647597I77403J1122334D01*
G01*
X42692666Y-17067597D01*
G75*
G02*
X43892403Y-16022666I1122334J-77403D01*
G01*
X43892403Y-16022666D01*
G75*
G02*
X44937334Y-17222403I-77403J-1122334D01*
G01*
X44897334Y-17802403D01*
G75*
G02*
X43697597Y-18847334I-1122334J77403D01*
G01*
G37*
D13*
X43815000Y-17145000D03*
G36*
G01*
X36713688Y-20522350D02*
X36713683Y-20522345D01*
G75*
G02*
X36627655Y-18933683I751317J837345D01*
G01*
X37937657Y-17473683D01*
G75*
G02*
X39526319Y-17387655I837345J-751317D01*
G01*
X39526319Y-17387655D01*
G75*
G02*
X39612347Y-18976317I-751317J-837345D01*
G01*
X38302345Y-20436317D01*
G75*
G02*
X36713683Y-20522345I-837345J751317D01*
G01*
G37*
D14*
X41275000Y-22225000D03*
D13*
X38775000Y-18225000D03*
D12*
X36195000Y-22225000D03*
X46355000Y-22225000D03*
%TD*%
%TO.C,MX4*%
G36*
G01*
X24648483Y-75997395D02*
X24647597Y-75997334D01*
G75*
G02*
X23602666Y-74797597I77403J1122334D01*
G01*
X23642666Y-74217597D01*
G75*
G02*
X24842403Y-73172666I1122334J-77403D01*
G01*
X24842403Y-73172666D01*
G75*
G02*
X25887334Y-74372403I-77403J-1122334D01*
G01*
X25847334Y-74952403D01*
G75*
G02*
X24647597Y-75997334I-1122334J77403D01*
G01*
G37*
D13*
X24765000Y-74295000D03*
G36*
G01*
X17663688Y-77672350D02*
X17663683Y-77672345D01*
G75*
G02*
X17577655Y-76083683I751317J837345D01*
G01*
X18887657Y-74623683D01*
G75*
G02*
X20476319Y-74537655I837345J-751317D01*
G01*
X20476319Y-74537655D01*
G75*
G02*
X20562347Y-76126317I-751317J-837345D01*
G01*
X19252345Y-77586317D01*
G75*
G02*
X17663683Y-77672345I-837345J751317D01*
G01*
G37*
D14*
X22225000Y-79375000D03*
D13*
X19725000Y-75375000D03*
D12*
X17145000Y-79375000D03*
X27305000Y-79375000D03*
%TD*%
%TO.C,MX3*%
G36*
G01*
X24648483Y-56947395D02*
X24647597Y-56947334D01*
G75*
G02*
X23602666Y-55747597I77403J1122334D01*
G01*
X23642666Y-55167597D01*
G75*
G02*
X24842403Y-54122666I1122334J-77403D01*
G01*
X24842403Y-54122666D01*
G75*
G02*
X25887334Y-55322403I-77403J-1122334D01*
G01*
X25847334Y-55902403D01*
G75*
G02*
X24647597Y-56947334I-1122334J77403D01*
G01*
G37*
D13*
X24765000Y-55245000D03*
G36*
G01*
X17663688Y-58622350D02*
X17663683Y-58622345D01*
G75*
G02*
X17577655Y-57033683I751317J837345D01*
G01*
X18887657Y-55573683D01*
G75*
G02*
X20476319Y-55487655I837345J-751317D01*
G01*
X20476319Y-55487655D01*
G75*
G02*
X20562347Y-57076317I-751317J-837345D01*
G01*
X19252345Y-58536317D01*
G75*
G02*
X17663683Y-58622345I-837345J751317D01*
G01*
G37*
D14*
X22225000Y-60325000D03*
D13*
X19725000Y-56325000D03*
D12*
X17145000Y-60325000D03*
X27305000Y-60325000D03*
%TD*%
%TO.C,MX2*%
G36*
G01*
X24648483Y-37897395D02*
X24647597Y-37897334D01*
G75*
G02*
X23602666Y-36697597I77403J1122334D01*
G01*
X23642666Y-36117597D01*
G75*
G02*
X24842403Y-35072666I1122334J-77403D01*
G01*
X24842403Y-35072666D01*
G75*
G02*
X25887334Y-36272403I-77403J-1122334D01*
G01*
X25847334Y-36852403D01*
G75*
G02*
X24647597Y-37897334I-1122334J77403D01*
G01*
G37*
D13*
X24765000Y-36195000D03*
G36*
G01*
X17663688Y-39572350D02*
X17663683Y-39572345D01*
G75*
G02*
X17577655Y-37983683I751317J837345D01*
G01*
X18887657Y-36523683D01*
G75*
G02*
X20476319Y-36437655I837345J-751317D01*
G01*
X20476319Y-36437655D01*
G75*
G02*
X20562347Y-38026317I-751317J-837345D01*
G01*
X19252345Y-39486317D01*
G75*
G02*
X17663683Y-39572345I-837345J751317D01*
G01*
G37*
D14*
X22225000Y-41275000D03*
D13*
X19725000Y-37275000D03*
D12*
X17145000Y-41275000D03*
X27305000Y-41275000D03*
%TD*%
%TO.C,MX1*%
G36*
G01*
X24648483Y-18847395D02*
X24647597Y-18847334D01*
G75*
G02*
X23602666Y-17647597I77403J1122334D01*
G01*
X23642666Y-17067597D01*
G75*
G02*
X24842403Y-16022666I1122334J-77403D01*
G01*
X24842403Y-16022666D01*
G75*
G02*
X25887334Y-17222403I-77403J-1122334D01*
G01*
X25847334Y-17802403D01*
G75*
G02*
X24647597Y-18847334I-1122334J77403D01*
G01*
G37*
D13*
X24765000Y-17145000D03*
G36*
G01*
X17663688Y-20522350D02*
X17663683Y-20522345D01*
G75*
G02*
X17577655Y-18933683I751317J837345D01*
G01*
X18887657Y-17473683D01*
G75*
G02*
X20476319Y-17387655I837345J-751317D01*
G01*
X20476319Y-17387655D01*
G75*
G02*
X20562347Y-18976317I-751317J-837345D01*
G01*
X19252345Y-20436317D01*
G75*
G02*
X17663683Y-20522345I-837345J751317D01*
G01*
G37*
D14*
X22225000Y-22225000D03*
D13*
X19725000Y-18225000D03*
D12*
X17145000Y-22225000D03*
X27305000Y-22225000D03*
%TD*%
D17*
%TO.C,D23*%
X101600000Y-102325000D03*
D18*
X101600000Y-94525000D03*
D19*
X101600000Y-99825000D03*
X101600000Y-97025000D03*
%TD*%
D17*
%TO.C,D22*%
X94525000Y-87312500D03*
D18*
X102325000Y-87312500D03*
D20*
X97025000Y-87312500D03*
X99825000Y-87312500D03*
%TD*%
D17*
%TO.C,D21*%
X94525000Y-68262500D03*
D18*
X102325000Y-68262500D03*
D20*
X97025000Y-68262500D03*
X99825000Y-68262500D03*
%TD*%
%TO.C,D20*%
X99825000Y-49212500D03*
X97025000Y-49212500D03*
D18*
X102325000Y-49212500D03*
D17*
X94525000Y-49212500D03*
%TD*%
%TO.C,D19*%
X94525000Y-30162500D03*
D18*
X102325000Y-30162500D03*
D20*
X97025000Y-30162500D03*
X99825000Y-30162500D03*
%TD*%
D17*
%TO.C,D18*%
X77787500Y-102325000D03*
D18*
X77787500Y-94525000D03*
D19*
X77787500Y-99825000D03*
X77787500Y-97025000D03*
%TD*%
D17*
%TO.C,D17*%
X87312500Y-83275000D03*
D18*
X87312500Y-75475000D03*
D19*
X87312500Y-80775000D03*
X87312500Y-77975000D03*
%TD*%
D17*
%TO.C,D16*%
X87312500Y-64225000D03*
D18*
X87312500Y-56425000D03*
D19*
X87312500Y-61725000D03*
X87312500Y-58925000D03*
%TD*%
D17*
%TO.C,D15*%
X87312500Y-45175000D03*
D18*
X87312500Y-37375000D03*
D19*
X87312500Y-42675000D03*
X87312500Y-39875000D03*
%TD*%
D17*
%TO.C,D14*%
X87312500Y-26125000D03*
D18*
X87312500Y-18325000D03*
D19*
X87312500Y-23625000D03*
X87312500Y-20825000D03*
%TD*%
D17*
%TO.C,D13*%
X58737500Y-102325000D03*
D18*
X58737500Y-94525000D03*
D19*
X58737500Y-99825000D03*
X58737500Y-97025000D03*
%TD*%
D17*
%TO.C,D12*%
X68262500Y-83275000D03*
D18*
X68262500Y-75475000D03*
D19*
X68262500Y-80775000D03*
X68262500Y-77975000D03*
%TD*%
D17*
%TO.C,D11*%
X68262500Y-64225000D03*
D18*
X68262500Y-56425000D03*
D19*
X68262500Y-61725000D03*
X68262500Y-58925000D03*
%TD*%
D17*
%TO.C,D10*%
X68262500Y-45175000D03*
D18*
X68262500Y-37375000D03*
D19*
X68262500Y-42675000D03*
X68262500Y-39875000D03*
%TD*%
D17*
%TO.C,D9*%
X68262500Y-26125000D03*
D18*
X68262500Y-18325000D03*
D19*
X68262500Y-23625000D03*
X68262500Y-20825000D03*
%TD*%
D17*
%TO.C,D8*%
X49212500Y-83275000D03*
D18*
X49212500Y-75475000D03*
D19*
X49212500Y-80775000D03*
X49212500Y-77975000D03*
%TD*%
D17*
%TO.C,D7*%
X49212500Y-64225000D03*
D18*
X49212500Y-56425000D03*
D19*
X49212500Y-61725000D03*
X49212500Y-58925000D03*
%TD*%
D17*
%TO.C,D6*%
X37375000Y-49212500D03*
D18*
X45175000Y-49212500D03*
D20*
X39875000Y-49212500D03*
X42675000Y-49212500D03*
%TD*%
D17*
%TO.C,D5*%
X37375000Y-30162500D03*
D18*
X45175000Y-30162500D03*
D20*
X39875000Y-30162500D03*
X42675000Y-30162500D03*
%TD*%
D17*
%TO.C,D4*%
X30162500Y-83275000D03*
D18*
X30162500Y-75475000D03*
D19*
X30162500Y-80775000D03*
X30162500Y-77975000D03*
%TD*%
D17*
%TO.C,D3*%
X30162500Y-64225000D03*
D18*
X30162500Y-56425000D03*
D19*
X30162500Y-61725000D03*
X30162500Y-58925000D03*
%TD*%
D17*
%TO.C,D2*%
X18325000Y-49212500D03*
D18*
X26125000Y-49212500D03*
D20*
X20825000Y-49212500D03*
X23625000Y-49212500D03*
%TD*%
D17*
%TO.C,D1*%
X30162500Y-26125000D03*
D18*
X30162500Y-18325000D03*
D19*
X30162500Y-23625000D03*
X30162500Y-20825000D03*
%TD*%
M02*
