%TF.GenerationSoftware,KiCad,Pcbnew,(5.1.12)-1*%
%TF.CreationDate,2022-01-05T11:41:57-05:00*%
%TF.ProjectId,gasket-1,6761736b-6574-42d3-912e-6b696361645f,rev?*%
%TF.SameCoordinates,Original*%
%TF.FileFunction,Soldermask,Bot*%
%TF.FilePolarity,Negative*%
%FSLAX46Y46*%
G04 Gerber Fmt 4.6, Leading zero omitted, Abs format (unit mm)*
G04 Created by KiCad (PCBNEW (5.1.12)-1) date 2022-01-05 11:41:57*
%MOMM*%
%LPD*%
G01*
G04 APERTURE LIST*
%ADD10R,0.900000X1.200000*%
%ADD11R,1.200000X0.900000*%
%ADD12C,1.750000*%
%ADD13C,2.250000*%
%ADD14C,3.987800*%
G04 APERTURE END LIST*
D10*
%TO.C,D23*%
X104043750Y-112712500D03*
X100743750Y-112712500D03*
%TD*%
%TO.C,D22*%
X108806250Y-93662500D03*
X105506250Y-93662500D03*
%TD*%
%TO.C,D21*%
X108806250Y-74612500D03*
X105506250Y-74612500D03*
%TD*%
%TO.C,D20*%
X108806250Y-55562500D03*
X105506250Y-55562500D03*
%TD*%
%TO.C,D19*%
X108806250Y-36512500D03*
X105506250Y-36512500D03*
%TD*%
D11*
%TO.C,D18*%
X86518750Y-106300000D03*
X86518750Y-109600000D03*
%TD*%
%TO.C,D17*%
X96043750Y-87250000D03*
X96043750Y-90550000D03*
%TD*%
%TO.C,D16*%
X96043750Y-68200000D03*
X96043750Y-71500000D03*
%TD*%
%TO.C,D15*%
X96043750Y-49150000D03*
X96043750Y-52450000D03*
%TD*%
%TO.C,D14*%
X96043750Y-30100000D03*
X96043750Y-33400000D03*
%TD*%
%TO.C,D13*%
X67468750Y-106300000D03*
X67468750Y-109600000D03*
%TD*%
%TO.C,D12*%
X76993750Y-87250000D03*
X76993750Y-90550000D03*
%TD*%
%TO.C,D11*%
X76993750Y-71500000D03*
X76993750Y-68200000D03*
%TD*%
%TO.C,D10*%
X76993750Y-49150000D03*
X76993750Y-52450000D03*
%TD*%
%TO.C,D9*%
X76993750Y-30100000D03*
X76993750Y-33400000D03*
%TD*%
%TO.C,D8*%
X57943750Y-87250000D03*
X57943750Y-90550000D03*
%TD*%
%TO.C,D7*%
X57943750Y-68137500D03*
X57943750Y-71437500D03*
%TD*%
%TO.C,D6*%
X57943750Y-49150000D03*
X57943750Y-52450000D03*
%TD*%
%TO.C,D5*%
X57943750Y-30100000D03*
X57943750Y-33400000D03*
%TD*%
%TO.C,D4*%
X38893750Y-87250000D03*
X38893750Y-90550000D03*
%TD*%
%TO.C,D3*%
X38893750Y-71500000D03*
X38893750Y-68200000D03*
%TD*%
%TO.C,D2*%
X38893750Y-49150000D03*
X38893750Y-52450000D03*
%TD*%
%TO.C,D1*%
X38893750Y-30100000D03*
X38893750Y-33400000D03*
%TD*%
D12*
%TO.C,MX21*%
X112236250Y-69056250D03*
X102076250Y-69056250D03*
D13*
X104656250Y-65056250D03*
D14*
X107156250Y-69056250D03*
G36*
G01*
X102594938Y-67353600D02*
X102594933Y-67353595D01*
G75*
G02*
X102508905Y-65764933I751317J837345D01*
G01*
X103818907Y-64304933D01*
G75*
G02*
X105407569Y-64218905I837345J-751317D01*
G01*
X105407569Y-64218905D01*
G75*
G02*
X105493597Y-65807567I-751317J-837345D01*
G01*
X104183595Y-67267567D01*
G75*
G02*
X102594933Y-67353595I-837345J751317D01*
G01*
G37*
D13*
X109696250Y-63976250D03*
G36*
G01*
X109579733Y-65678645D02*
X109578847Y-65678584D01*
G75*
G02*
X108533916Y-64478847I77403J1122334D01*
G01*
X108573916Y-63898847D01*
G75*
G02*
X109773653Y-62853916I1122334J-77403D01*
G01*
X109773653Y-62853916D01*
G75*
G02*
X110818584Y-64053653I-77403J-1122334D01*
G01*
X110778584Y-64633653D01*
G75*
G02*
X109578847Y-65678584I-1122334J77403D01*
G01*
G37*
%TD*%
%TO.C,M2*%
G36*
G01*
X114947700Y-103562150D02*
X114947700Y-102685850D01*
G75*
G02*
X115385850Y-102247700I438150J0D01*
G01*
X116262150Y-102247700D01*
G75*
G02*
X116700300Y-102685850I0J-438150D01*
G01*
X116700300Y-103562150D01*
G75*
G02*
X116262150Y-104000300I-438150J0D01*
G01*
X115385850Y-104000300D01*
G75*
G02*
X114947700Y-103562150I0J438150D01*
G01*
G37*
G36*
G01*
X114947700Y-105594150D02*
X114947700Y-104717850D01*
G75*
G02*
X115385850Y-104279700I438150J0D01*
G01*
X116262150Y-104279700D01*
G75*
G02*
X116700300Y-104717850I0J-438150D01*
G01*
X116700300Y-105594150D01*
G75*
G02*
X116262150Y-106032300I-438150J0D01*
G01*
X115385850Y-106032300D01*
G75*
G02*
X114947700Y-105594150I0J438150D01*
G01*
G37*
G36*
G01*
X114947700Y-107626150D02*
X114947700Y-106749850D01*
G75*
G02*
X115385850Y-106311700I438150J0D01*
G01*
X116262150Y-106311700D01*
G75*
G02*
X116700300Y-106749850I0J-438150D01*
G01*
X116700300Y-107626150D01*
G75*
G02*
X116262150Y-108064300I-438150J0D01*
G01*
X115385850Y-108064300D01*
G75*
G02*
X114947700Y-107626150I0J438150D01*
G01*
G37*
G36*
G01*
X114947700Y-109658150D02*
X114947700Y-108781850D01*
G75*
G02*
X115385850Y-108343700I438150J0D01*
G01*
X116262150Y-108343700D01*
G75*
G02*
X116700300Y-108781850I0J-438150D01*
G01*
X116700300Y-109658150D01*
G75*
G02*
X116262150Y-110096300I-438150J0D01*
G01*
X115385850Y-110096300D01*
G75*
G02*
X114947700Y-109658150I0J438150D01*
G01*
G37*
G36*
G01*
X114947700Y-111690150D02*
X114947700Y-110813850D01*
G75*
G02*
X115385850Y-110375700I438150J0D01*
G01*
X116262150Y-110375700D01*
G75*
G02*
X116700300Y-110813850I0J-438150D01*
G01*
X116700300Y-111690150D01*
G75*
G02*
X116262150Y-112128300I-438150J0D01*
G01*
X115385850Y-112128300D01*
G75*
G02*
X114947700Y-111690150I0J438150D01*
G01*
G37*
%TD*%
%TO.C,M1*%
G36*
G01*
X114947700Y-35490150D02*
X114947700Y-34613850D01*
G75*
G02*
X115385850Y-34175700I438150J0D01*
G01*
X116262150Y-34175700D01*
G75*
G02*
X116700300Y-34613850I0J-438150D01*
G01*
X116700300Y-35490150D01*
G75*
G02*
X116262150Y-35928300I-438150J0D01*
G01*
X115385850Y-35928300D01*
G75*
G02*
X114947700Y-35490150I0J438150D01*
G01*
G37*
G36*
G01*
X114947700Y-33458150D02*
X114947700Y-32581850D01*
G75*
G02*
X115385850Y-32143700I438150J0D01*
G01*
X116262150Y-32143700D01*
G75*
G02*
X116700300Y-32581850I0J-438150D01*
G01*
X116700300Y-33458150D01*
G75*
G02*
X116262150Y-33896300I-438150J0D01*
G01*
X115385850Y-33896300D01*
G75*
G02*
X114947700Y-33458150I0J438150D01*
G01*
G37*
G36*
G01*
X114947700Y-31426150D02*
X114947700Y-30549850D01*
G75*
G02*
X115385850Y-30111700I438150J0D01*
G01*
X116262150Y-30111700D01*
G75*
G02*
X116700300Y-30549850I0J-438150D01*
G01*
X116700300Y-31426150D01*
G75*
G02*
X116262150Y-31864300I-438150J0D01*
G01*
X115385850Y-31864300D01*
G75*
G02*
X114947700Y-31426150I0J438150D01*
G01*
G37*
G36*
G01*
X114947700Y-29394150D02*
X114947700Y-28517850D01*
G75*
G02*
X115385850Y-28079700I438150J0D01*
G01*
X116262150Y-28079700D01*
G75*
G02*
X116700300Y-28517850I0J-438150D01*
G01*
X116700300Y-29394150D01*
G75*
G02*
X116262150Y-29832300I-438150J0D01*
G01*
X115385850Y-29832300D01*
G75*
G02*
X114947700Y-29394150I0J438150D01*
G01*
G37*
G36*
G01*
X114947700Y-27362150D02*
X114947700Y-26485850D01*
G75*
G02*
X115385850Y-26047700I438150J0D01*
G01*
X116262150Y-26047700D01*
G75*
G02*
X116700300Y-26485850I0J-438150D01*
G01*
X116700300Y-27362150D01*
G75*
G02*
X116262150Y-27800300I-438150J0D01*
G01*
X115385850Y-27800300D01*
G75*
G02*
X114947700Y-27362150I0J438150D01*
G01*
G37*
%TD*%
D12*
%TO.C,MX19*%
X112236250Y-30956250D03*
X102076250Y-30956250D03*
D13*
X104656250Y-26956250D03*
D14*
X107156250Y-30956250D03*
G36*
G01*
X102594938Y-29253600D02*
X102594933Y-29253595D01*
G75*
G02*
X102508905Y-27664933I751317J837345D01*
G01*
X103818907Y-26204933D01*
G75*
G02*
X105407569Y-26118905I837345J-751317D01*
G01*
X105407569Y-26118905D01*
G75*
G02*
X105493597Y-27707567I-751317J-837345D01*
G01*
X104183595Y-29167567D01*
G75*
G02*
X102594933Y-29253595I-837345J751317D01*
G01*
G37*
D13*
X109696250Y-25876250D03*
G36*
G01*
X109579733Y-27578645D02*
X109578847Y-27578584D01*
G75*
G02*
X108533916Y-26378847I77403J1122334D01*
G01*
X108573916Y-25798847D01*
G75*
G02*
X109773653Y-24753916I1122334J-77403D01*
G01*
X109773653Y-24753916D01*
G75*
G02*
X110818584Y-25953653I-77403J-1122334D01*
G01*
X110778584Y-26533653D01*
G75*
G02*
X109578847Y-27578584I-1122334J77403D01*
G01*
G37*
%TD*%
D12*
%TO.C,MX18*%
X83661250Y-107156250D03*
X73501250Y-107156250D03*
D13*
X76081250Y-103156250D03*
D14*
X78581250Y-107156250D03*
G36*
G01*
X74019938Y-105453600D02*
X74019933Y-105453595D01*
G75*
G02*
X73933905Y-103864933I751317J837345D01*
G01*
X75243907Y-102404933D01*
G75*
G02*
X76832569Y-102318905I837345J-751317D01*
G01*
X76832569Y-102318905D01*
G75*
G02*
X76918597Y-103907567I-751317J-837345D01*
G01*
X75608595Y-105367567D01*
G75*
G02*
X74019933Y-105453595I-837345J751317D01*
G01*
G37*
D13*
X81121250Y-102076250D03*
G36*
G01*
X81004733Y-103778645D02*
X81003847Y-103778584D01*
G75*
G02*
X79958916Y-102578847I77403J1122334D01*
G01*
X79998916Y-101998847D01*
G75*
G02*
X81198653Y-100953916I1122334J-77403D01*
G01*
X81198653Y-100953916D01*
G75*
G02*
X82243584Y-102153653I-77403J-1122334D01*
G01*
X82203584Y-102733653D01*
G75*
G02*
X81003847Y-103778584I-1122334J77403D01*
G01*
G37*
%TD*%
D12*
%TO.C,MX23*%
X107473750Y-107156250D03*
X97313750Y-107156250D03*
D13*
X99893750Y-103156250D03*
D14*
X102393750Y-107156250D03*
G36*
G01*
X97832438Y-105453600D02*
X97832433Y-105453595D01*
G75*
G02*
X97746405Y-103864933I751317J837345D01*
G01*
X99056407Y-102404933D01*
G75*
G02*
X100645069Y-102318905I837345J-751317D01*
G01*
X100645069Y-102318905D01*
G75*
G02*
X100731097Y-103907567I-751317J-837345D01*
G01*
X99421095Y-105367567D01*
G75*
G02*
X97832433Y-105453595I-837345J751317D01*
G01*
G37*
D13*
X104933750Y-102076250D03*
G36*
G01*
X104817233Y-103778645D02*
X104816347Y-103778584D01*
G75*
G02*
X103771416Y-102578847I77403J1122334D01*
G01*
X103811416Y-101998847D01*
G75*
G02*
X105011153Y-100953916I1122334J-77403D01*
G01*
X105011153Y-100953916D01*
G75*
G02*
X106056084Y-102153653I-77403J-1122334D01*
G01*
X106016084Y-102733653D01*
G75*
G02*
X104816347Y-103778584I-1122334J77403D01*
G01*
G37*
%TD*%
D12*
%TO.C,MX22*%
X112236250Y-88106250D03*
X102076250Y-88106250D03*
D13*
X104656250Y-84106250D03*
D14*
X107156250Y-88106250D03*
G36*
G01*
X102594938Y-86403600D02*
X102594933Y-86403595D01*
G75*
G02*
X102508905Y-84814933I751317J837345D01*
G01*
X103818907Y-83354933D01*
G75*
G02*
X105407569Y-83268905I837345J-751317D01*
G01*
X105407569Y-83268905D01*
G75*
G02*
X105493597Y-84857567I-751317J-837345D01*
G01*
X104183595Y-86317567D01*
G75*
G02*
X102594933Y-86403595I-837345J751317D01*
G01*
G37*
D13*
X109696250Y-83026250D03*
G36*
G01*
X109579733Y-84728645D02*
X109578847Y-84728584D01*
G75*
G02*
X108533916Y-83528847I77403J1122334D01*
G01*
X108573916Y-82948847D01*
G75*
G02*
X109773653Y-81903916I1122334J-77403D01*
G01*
X109773653Y-81903916D01*
G75*
G02*
X110818584Y-83103653I-77403J-1122334D01*
G01*
X110778584Y-83683653D01*
G75*
G02*
X109578847Y-84728584I-1122334J77403D01*
G01*
G37*
%TD*%
D12*
%TO.C,MX20*%
X112236250Y-50006250D03*
X102076250Y-50006250D03*
D13*
X104656250Y-46006250D03*
D14*
X107156250Y-50006250D03*
G36*
G01*
X102594938Y-48303600D02*
X102594933Y-48303595D01*
G75*
G02*
X102508905Y-46714933I751317J837345D01*
G01*
X103818907Y-45254933D01*
G75*
G02*
X105407569Y-45168905I837345J-751317D01*
G01*
X105407569Y-45168905D01*
G75*
G02*
X105493597Y-46757567I-751317J-837345D01*
G01*
X104183595Y-48217567D01*
G75*
G02*
X102594933Y-48303595I-837345J751317D01*
G01*
G37*
D13*
X109696250Y-44926250D03*
G36*
G01*
X109579733Y-46628645D02*
X109578847Y-46628584D01*
G75*
G02*
X108533916Y-45428847I77403J1122334D01*
G01*
X108573916Y-44848847D01*
G75*
G02*
X109773653Y-43803916I1122334J-77403D01*
G01*
X109773653Y-43803916D01*
G75*
G02*
X110818584Y-45003653I-77403J-1122334D01*
G01*
X110778584Y-45583653D01*
G75*
G02*
X109578847Y-46628584I-1122334J77403D01*
G01*
G37*
%TD*%
D12*
%TO.C,MX17*%
X93186250Y-88106250D03*
X83026250Y-88106250D03*
D13*
X85606250Y-84106250D03*
D14*
X88106250Y-88106250D03*
G36*
G01*
X83544938Y-86403600D02*
X83544933Y-86403595D01*
G75*
G02*
X83458905Y-84814933I751317J837345D01*
G01*
X84768907Y-83354933D01*
G75*
G02*
X86357569Y-83268905I837345J-751317D01*
G01*
X86357569Y-83268905D01*
G75*
G02*
X86443597Y-84857567I-751317J-837345D01*
G01*
X85133595Y-86317567D01*
G75*
G02*
X83544933Y-86403595I-837345J751317D01*
G01*
G37*
D13*
X90646250Y-83026250D03*
G36*
G01*
X90529733Y-84728645D02*
X90528847Y-84728584D01*
G75*
G02*
X89483916Y-83528847I77403J1122334D01*
G01*
X89523916Y-82948847D01*
G75*
G02*
X90723653Y-81903916I1122334J-77403D01*
G01*
X90723653Y-81903916D01*
G75*
G02*
X91768584Y-83103653I-77403J-1122334D01*
G01*
X91728584Y-83683653D01*
G75*
G02*
X90528847Y-84728584I-1122334J77403D01*
G01*
G37*
%TD*%
D12*
%TO.C,MX16*%
X93186250Y-69056250D03*
X83026250Y-69056250D03*
D13*
X85606250Y-65056250D03*
D14*
X88106250Y-69056250D03*
G36*
G01*
X83544938Y-67353600D02*
X83544933Y-67353595D01*
G75*
G02*
X83458905Y-65764933I751317J837345D01*
G01*
X84768907Y-64304933D01*
G75*
G02*
X86357569Y-64218905I837345J-751317D01*
G01*
X86357569Y-64218905D01*
G75*
G02*
X86443597Y-65807567I-751317J-837345D01*
G01*
X85133595Y-67267567D01*
G75*
G02*
X83544933Y-67353595I-837345J751317D01*
G01*
G37*
D13*
X90646250Y-63976250D03*
G36*
G01*
X90529733Y-65678645D02*
X90528847Y-65678584D01*
G75*
G02*
X89483916Y-64478847I77403J1122334D01*
G01*
X89523916Y-63898847D01*
G75*
G02*
X90723653Y-62853916I1122334J-77403D01*
G01*
X90723653Y-62853916D01*
G75*
G02*
X91768584Y-64053653I-77403J-1122334D01*
G01*
X91728584Y-64633653D01*
G75*
G02*
X90528847Y-65678584I-1122334J77403D01*
G01*
G37*
%TD*%
D12*
%TO.C,MX15*%
X93186250Y-50006250D03*
X83026250Y-50006250D03*
D13*
X85606250Y-46006250D03*
D14*
X88106250Y-50006250D03*
G36*
G01*
X83544938Y-48303600D02*
X83544933Y-48303595D01*
G75*
G02*
X83458905Y-46714933I751317J837345D01*
G01*
X84768907Y-45254933D01*
G75*
G02*
X86357569Y-45168905I837345J-751317D01*
G01*
X86357569Y-45168905D01*
G75*
G02*
X86443597Y-46757567I-751317J-837345D01*
G01*
X85133595Y-48217567D01*
G75*
G02*
X83544933Y-48303595I-837345J751317D01*
G01*
G37*
D13*
X90646250Y-44926250D03*
G36*
G01*
X90529733Y-46628645D02*
X90528847Y-46628584D01*
G75*
G02*
X89483916Y-45428847I77403J1122334D01*
G01*
X89523916Y-44848847D01*
G75*
G02*
X90723653Y-43803916I1122334J-77403D01*
G01*
X90723653Y-43803916D01*
G75*
G02*
X91768584Y-45003653I-77403J-1122334D01*
G01*
X91728584Y-45583653D01*
G75*
G02*
X90528847Y-46628584I-1122334J77403D01*
G01*
G37*
%TD*%
D12*
%TO.C,MX14*%
X93186250Y-30956250D03*
X83026250Y-30956250D03*
D13*
X85606250Y-26956250D03*
D14*
X88106250Y-30956250D03*
G36*
G01*
X83544938Y-29253600D02*
X83544933Y-29253595D01*
G75*
G02*
X83458905Y-27664933I751317J837345D01*
G01*
X84768907Y-26204933D01*
G75*
G02*
X86357569Y-26118905I837345J-751317D01*
G01*
X86357569Y-26118905D01*
G75*
G02*
X86443597Y-27707567I-751317J-837345D01*
G01*
X85133595Y-29167567D01*
G75*
G02*
X83544933Y-29253595I-837345J751317D01*
G01*
G37*
D13*
X90646250Y-25876250D03*
G36*
G01*
X90529733Y-27578645D02*
X90528847Y-27578584D01*
G75*
G02*
X89483916Y-26378847I77403J1122334D01*
G01*
X89523916Y-25798847D01*
G75*
G02*
X90723653Y-24753916I1122334J-77403D01*
G01*
X90723653Y-24753916D01*
G75*
G02*
X91768584Y-25953653I-77403J-1122334D01*
G01*
X91728584Y-26533653D01*
G75*
G02*
X90528847Y-27578584I-1122334J77403D01*
G01*
G37*
%TD*%
D12*
%TO.C,MX13*%
X64611250Y-107156250D03*
X54451250Y-107156250D03*
D13*
X57031250Y-103156250D03*
D14*
X59531250Y-107156250D03*
G36*
G01*
X54969938Y-105453600D02*
X54969933Y-105453595D01*
G75*
G02*
X54883905Y-103864933I751317J837345D01*
G01*
X56193907Y-102404933D01*
G75*
G02*
X57782569Y-102318905I837345J-751317D01*
G01*
X57782569Y-102318905D01*
G75*
G02*
X57868597Y-103907567I-751317J-837345D01*
G01*
X56558595Y-105367567D01*
G75*
G02*
X54969933Y-105453595I-837345J751317D01*
G01*
G37*
D13*
X62071250Y-102076250D03*
G36*
G01*
X61954733Y-103778645D02*
X61953847Y-103778584D01*
G75*
G02*
X60908916Y-102578847I77403J1122334D01*
G01*
X60948916Y-101998847D01*
G75*
G02*
X62148653Y-100953916I1122334J-77403D01*
G01*
X62148653Y-100953916D01*
G75*
G02*
X63193584Y-102153653I-77403J-1122334D01*
G01*
X63153584Y-102733653D01*
G75*
G02*
X61953847Y-103778584I-1122334J77403D01*
G01*
G37*
%TD*%
D12*
%TO.C,MX12*%
X74136250Y-88106250D03*
X63976250Y-88106250D03*
D13*
X66556250Y-84106250D03*
D14*
X69056250Y-88106250D03*
G36*
G01*
X64494938Y-86403600D02*
X64494933Y-86403595D01*
G75*
G02*
X64408905Y-84814933I751317J837345D01*
G01*
X65718907Y-83354933D01*
G75*
G02*
X67307569Y-83268905I837345J-751317D01*
G01*
X67307569Y-83268905D01*
G75*
G02*
X67393597Y-84857567I-751317J-837345D01*
G01*
X66083595Y-86317567D01*
G75*
G02*
X64494933Y-86403595I-837345J751317D01*
G01*
G37*
D13*
X71596250Y-83026250D03*
G36*
G01*
X71479733Y-84728645D02*
X71478847Y-84728584D01*
G75*
G02*
X70433916Y-83528847I77403J1122334D01*
G01*
X70473916Y-82948847D01*
G75*
G02*
X71673653Y-81903916I1122334J-77403D01*
G01*
X71673653Y-81903916D01*
G75*
G02*
X72718584Y-83103653I-77403J-1122334D01*
G01*
X72678584Y-83683653D01*
G75*
G02*
X71478847Y-84728584I-1122334J77403D01*
G01*
G37*
%TD*%
D12*
%TO.C,MX11*%
X74136250Y-69056250D03*
X63976250Y-69056250D03*
D13*
X66556250Y-65056250D03*
D14*
X69056250Y-69056250D03*
G36*
G01*
X64494938Y-67353600D02*
X64494933Y-67353595D01*
G75*
G02*
X64408905Y-65764933I751317J837345D01*
G01*
X65718907Y-64304933D01*
G75*
G02*
X67307569Y-64218905I837345J-751317D01*
G01*
X67307569Y-64218905D01*
G75*
G02*
X67393597Y-65807567I-751317J-837345D01*
G01*
X66083595Y-67267567D01*
G75*
G02*
X64494933Y-67353595I-837345J751317D01*
G01*
G37*
D13*
X71596250Y-63976250D03*
G36*
G01*
X71479733Y-65678645D02*
X71478847Y-65678584D01*
G75*
G02*
X70433916Y-64478847I77403J1122334D01*
G01*
X70473916Y-63898847D01*
G75*
G02*
X71673653Y-62853916I1122334J-77403D01*
G01*
X71673653Y-62853916D01*
G75*
G02*
X72718584Y-64053653I-77403J-1122334D01*
G01*
X72678584Y-64633653D01*
G75*
G02*
X71478847Y-65678584I-1122334J77403D01*
G01*
G37*
%TD*%
D12*
%TO.C,MX10*%
X74136250Y-50006250D03*
X63976250Y-50006250D03*
D13*
X66556250Y-46006250D03*
D14*
X69056250Y-50006250D03*
G36*
G01*
X64494938Y-48303600D02*
X64494933Y-48303595D01*
G75*
G02*
X64408905Y-46714933I751317J837345D01*
G01*
X65718907Y-45254933D01*
G75*
G02*
X67307569Y-45168905I837345J-751317D01*
G01*
X67307569Y-45168905D01*
G75*
G02*
X67393597Y-46757567I-751317J-837345D01*
G01*
X66083595Y-48217567D01*
G75*
G02*
X64494933Y-48303595I-837345J751317D01*
G01*
G37*
D13*
X71596250Y-44926250D03*
G36*
G01*
X71479733Y-46628645D02*
X71478847Y-46628584D01*
G75*
G02*
X70433916Y-45428847I77403J1122334D01*
G01*
X70473916Y-44848847D01*
G75*
G02*
X71673653Y-43803916I1122334J-77403D01*
G01*
X71673653Y-43803916D01*
G75*
G02*
X72718584Y-45003653I-77403J-1122334D01*
G01*
X72678584Y-45583653D01*
G75*
G02*
X71478847Y-46628584I-1122334J77403D01*
G01*
G37*
%TD*%
D12*
%TO.C,MX9*%
X74136250Y-30956250D03*
X63976250Y-30956250D03*
D13*
X66556250Y-26956250D03*
D14*
X69056250Y-30956250D03*
G36*
G01*
X64494938Y-29253600D02*
X64494933Y-29253595D01*
G75*
G02*
X64408905Y-27664933I751317J837345D01*
G01*
X65718907Y-26204933D01*
G75*
G02*
X67307569Y-26118905I837345J-751317D01*
G01*
X67307569Y-26118905D01*
G75*
G02*
X67393597Y-27707567I-751317J-837345D01*
G01*
X66083595Y-29167567D01*
G75*
G02*
X64494933Y-29253595I-837345J751317D01*
G01*
G37*
D13*
X71596250Y-25876250D03*
G36*
G01*
X71479733Y-27578645D02*
X71478847Y-27578584D01*
G75*
G02*
X70433916Y-26378847I77403J1122334D01*
G01*
X70473916Y-25798847D01*
G75*
G02*
X71673653Y-24753916I1122334J-77403D01*
G01*
X71673653Y-24753916D01*
G75*
G02*
X72718584Y-25953653I-77403J-1122334D01*
G01*
X72678584Y-26533653D01*
G75*
G02*
X71478847Y-27578584I-1122334J77403D01*
G01*
G37*
%TD*%
D12*
%TO.C,MX8*%
X55086250Y-88106250D03*
X44926250Y-88106250D03*
D13*
X47506250Y-84106250D03*
D14*
X50006250Y-88106250D03*
G36*
G01*
X45444938Y-86403600D02*
X45444933Y-86403595D01*
G75*
G02*
X45358905Y-84814933I751317J837345D01*
G01*
X46668907Y-83354933D01*
G75*
G02*
X48257569Y-83268905I837345J-751317D01*
G01*
X48257569Y-83268905D01*
G75*
G02*
X48343597Y-84857567I-751317J-837345D01*
G01*
X47033595Y-86317567D01*
G75*
G02*
X45444933Y-86403595I-837345J751317D01*
G01*
G37*
D13*
X52546250Y-83026250D03*
G36*
G01*
X52429733Y-84728645D02*
X52428847Y-84728584D01*
G75*
G02*
X51383916Y-83528847I77403J1122334D01*
G01*
X51423916Y-82948847D01*
G75*
G02*
X52623653Y-81903916I1122334J-77403D01*
G01*
X52623653Y-81903916D01*
G75*
G02*
X53668584Y-83103653I-77403J-1122334D01*
G01*
X53628584Y-83683653D01*
G75*
G02*
X52428847Y-84728584I-1122334J77403D01*
G01*
G37*
%TD*%
D12*
%TO.C,MX7*%
X55086250Y-69056250D03*
X44926250Y-69056250D03*
D13*
X47506250Y-65056250D03*
D14*
X50006250Y-69056250D03*
G36*
G01*
X45444938Y-67353600D02*
X45444933Y-67353595D01*
G75*
G02*
X45358905Y-65764933I751317J837345D01*
G01*
X46668907Y-64304933D01*
G75*
G02*
X48257569Y-64218905I837345J-751317D01*
G01*
X48257569Y-64218905D01*
G75*
G02*
X48343597Y-65807567I-751317J-837345D01*
G01*
X47033595Y-67267567D01*
G75*
G02*
X45444933Y-67353595I-837345J751317D01*
G01*
G37*
D13*
X52546250Y-63976250D03*
G36*
G01*
X52429733Y-65678645D02*
X52428847Y-65678584D01*
G75*
G02*
X51383916Y-64478847I77403J1122334D01*
G01*
X51423916Y-63898847D01*
G75*
G02*
X52623653Y-62853916I1122334J-77403D01*
G01*
X52623653Y-62853916D01*
G75*
G02*
X53668584Y-64053653I-77403J-1122334D01*
G01*
X53628584Y-64633653D01*
G75*
G02*
X52428847Y-65678584I-1122334J77403D01*
G01*
G37*
%TD*%
D12*
%TO.C,MX6*%
X55086250Y-50006250D03*
X44926250Y-50006250D03*
D13*
X47506250Y-46006250D03*
D14*
X50006250Y-50006250D03*
G36*
G01*
X45444938Y-48303600D02*
X45444933Y-48303595D01*
G75*
G02*
X45358905Y-46714933I751317J837345D01*
G01*
X46668907Y-45254933D01*
G75*
G02*
X48257569Y-45168905I837345J-751317D01*
G01*
X48257569Y-45168905D01*
G75*
G02*
X48343597Y-46757567I-751317J-837345D01*
G01*
X47033595Y-48217567D01*
G75*
G02*
X45444933Y-48303595I-837345J751317D01*
G01*
G37*
D13*
X52546250Y-44926250D03*
G36*
G01*
X52429733Y-46628645D02*
X52428847Y-46628584D01*
G75*
G02*
X51383916Y-45428847I77403J1122334D01*
G01*
X51423916Y-44848847D01*
G75*
G02*
X52623653Y-43803916I1122334J-77403D01*
G01*
X52623653Y-43803916D01*
G75*
G02*
X53668584Y-45003653I-77403J-1122334D01*
G01*
X53628584Y-45583653D01*
G75*
G02*
X52428847Y-46628584I-1122334J77403D01*
G01*
G37*
%TD*%
D12*
%TO.C,MX5*%
X55086250Y-30956250D03*
X44926250Y-30956250D03*
D13*
X47506250Y-26956250D03*
D14*
X50006250Y-30956250D03*
G36*
G01*
X45444938Y-29253600D02*
X45444933Y-29253595D01*
G75*
G02*
X45358905Y-27664933I751317J837345D01*
G01*
X46668907Y-26204933D01*
G75*
G02*
X48257569Y-26118905I837345J-751317D01*
G01*
X48257569Y-26118905D01*
G75*
G02*
X48343597Y-27707567I-751317J-837345D01*
G01*
X47033595Y-29167567D01*
G75*
G02*
X45444933Y-29253595I-837345J751317D01*
G01*
G37*
D13*
X52546250Y-25876250D03*
G36*
G01*
X52429733Y-27578645D02*
X52428847Y-27578584D01*
G75*
G02*
X51383916Y-26378847I77403J1122334D01*
G01*
X51423916Y-25798847D01*
G75*
G02*
X52623653Y-24753916I1122334J-77403D01*
G01*
X52623653Y-24753916D01*
G75*
G02*
X53668584Y-25953653I-77403J-1122334D01*
G01*
X53628584Y-26533653D01*
G75*
G02*
X52428847Y-27578584I-1122334J77403D01*
G01*
G37*
%TD*%
D12*
%TO.C,MX4*%
X36036250Y-88106250D03*
X25876250Y-88106250D03*
D13*
X28456250Y-84106250D03*
D14*
X30956250Y-88106250D03*
G36*
G01*
X26394938Y-86403600D02*
X26394933Y-86403595D01*
G75*
G02*
X26308905Y-84814933I751317J837345D01*
G01*
X27618907Y-83354933D01*
G75*
G02*
X29207569Y-83268905I837345J-751317D01*
G01*
X29207569Y-83268905D01*
G75*
G02*
X29293597Y-84857567I-751317J-837345D01*
G01*
X27983595Y-86317567D01*
G75*
G02*
X26394933Y-86403595I-837345J751317D01*
G01*
G37*
D13*
X33496250Y-83026250D03*
G36*
G01*
X33379733Y-84728645D02*
X33378847Y-84728584D01*
G75*
G02*
X32333916Y-83528847I77403J1122334D01*
G01*
X32373916Y-82948847D01*
G75*
G02*
X33573653Y-81903916I1122334J-77403D01*
G01*
X33573653Y-81903916D01*
G75*
G02*
X34618584Y-83103653I-77403J-1122334D01*
G01*
X34578584Y-83683653D01*
G75*
G02*
X33378847Y-84728584I-1122334J77403D01*
G01*
G37*
%TD*%
D12*
%TO.C,MX3*%
X36036250Y-69056250D03*
X25876250Y-69056250D03*
D13*
X28456250Y-65056250D03*
D14*
X30956250Y-69056250D03*
G36*
G01*
X26394938Y-67353600D02*
X26394933Y-67353595D01*
G75*
G02*
X26308905Y-65764933I751317J837345D01*
G01*
X27618907Y-64304933D01*
G75*
G02*
X29207569Y-64218905I837345J-751317D01*
G01*
X29207569Y-64218905D01*
G75*
G02*
X29293597Y-65807567I-751317J-837345D01*
G01*
X27983595Y-67267567D01*
G75*
G02*
X26394933Y-67353595I-837345J751317D01*
G01*
G37*
D13*
X33496250Y-63976250D03*
G36*
G01*
X33379733Y-65678645D02*
X33378847Y-65678584D01*
G75*
G02*
X32333916Y-64478847I77403J1122334D01*
G01*
X32373916Y-63898847D01*
G75*
G02*
X33573653Y-62853916I1122334J-77403D01*
G01*
X33573653Y-62853916D01*
G75*
G02*
X34618584Y-64053653I-77403J-1122334D01*
G01*
X34578584Y-64633653D01*
G75*
G02*
X33378847Y-65678584I-1122334J77403D01*
G01*
G37*
%TD*%
D12*
%TO.C,MX2*%
X36036250Y-50006250D03*
X25876250Y-50006250D03*
D13*
X28456250Y-46006250D03*
D14*
X30956250Y-50006250D03*
G36*
G01*
X26394938Y-48303600D02*
X26394933Y-48303595D01*
G75*
G02*
X26308905Y-46714933I751317J837345D01*
G01*
X27618907Y-45254933D01*
G75*
G02*
X29207569Y-45168905I837345J-751317D01*
G01*
X29207569Y-45168905D01*
G75*
G02*
X29293597Y-46757567I-751317J-837345D01*
G01*
X27983595Y-48217567D01*
G75*
G02*
X26394933Y-48303595I-837345J751317D01*
G01*
G37*
D13*
X33496250Y-44926250D03*
G36*
G01*
X33379733Y-46628645D02*
X33378847Y-46628584D01*
G75*
G02*
X32333916Y-45428847I77403J1122334D01*
G01*
X32373916Y-44848847D01*
G75*
G02*
X33573653Y-43803916I1122334J-77403D01*
G01*
X33573653Y-43803916D01*
G75*
G02*
X34618584Y-45003653I-77403J-1122334D01*
G01*
X34578584Y-45583653D01*
G75*
G02*
X33378847Y-46628584I-1122334J77403D01*
G01*
G37*
%TD*%
D12*
%TO.C,MX1*%
X36036250Y-30956250D03*
X25876250Y-30956250D03*
D13*
X28456250Y-26956250D03*
D14*
X30956250Y-30956250D03*
G36*
G01*
X26394938Y-29253600D02*
X26394933Y-29253595D01*
G75*
G02*
X26308905Y-27664933I751317J837345D01*
G01*
X27618907Y-26204933D01*
G75*
G02*
X29207569Y-26118905I837345J-751317D01*
G01*
X29207569Y-26118905D01*
G75*
G02*
X29293597Y-27707567I-751317J-837345D01*
G01*
X27983595Y-29167567D01*
G75*
G02*
X26394933Y-29253595I-837345J751317D01*
G01*
G37*
D13*
X33496250Y-25876250D03*
G36*
G01*
X33379733Y-27578645D02*
X33378847Y-27578584D01*
G75*
G02*
X32333916Y-26378847I77403J1122334D01*
G01*
X32373916Y-25798847D01*
G75*
G02*
X33573653Y-24753916I1122334J-77403D01*
G01*
X33573653Y-24753916D01*
G75*
G02*
X34618584Y-25953653I-77403J-1122334D01*
G01*
X34578584Y-26533653D01*
G75*
G02*
X33378847Y-27578584I-1122334J77403D01*
G01*
G37*
%TD*%
M02*
