M48
; DRILL file {KiCad (5.1.12)-1} date 01/05/22 11:41:59
; FORMAT={-:-/ absolute / inch / decimal}
; #@! TF.CreationDate,2022-01-05T11:41:59-05:00
; #@! TF.GenerationSoftware,Kicad,Pcbnew,(5.1.12)-1
; #@! TF.FileFunction,NonPlated,1,2,NPTH
FMAT,2
INCH
T1C0.0689
T2C0.1570
%
G90
G05
T1
X1.0188Y-1.2188
X1.0188Y-1.9688
X1.0188Y-2.7188
X1.0188Y-3.4688
X1.4187Y-1.2188
X1.4187Y-1.9688
X1.4187Y-2.7188
X1.4187Y-3.4688
X1.7688Y-1.2188
X1.7688Y-1.9688
X1.7688Y-2.7188
X1.7688Y-3.4688
X2.1437Y-4.2188
X2.1687Y-1.2188
X2.1687Y-1.9688
X2.1687Y-2.7188
X2.1687Y-3.4688
X2.5187Y-1.2188
X2.5187Y-1.9688
X2.5187Y-2.7188
X2.5187Y-3.4688
X2.5437Y-4.2188
X2.8937Y-4.2188
X2.9187Y-1.2188
X2.9187Y-1.9688
X2.9187Y-2.7188
X2.9187Y-3.4688
X3.2687Y-1.2188
X3.2687Y-1.9688
X3.2687Y-2.7188
X3.2687Y-3.4688
X3.2937Y-4.2188
X3.6687Y-1.2188
X3.6687Y-1.9688
X3.6687Y-2.7188
X3.6687Y-3.4688
X3.8312Y-4.2188
X4.0187Y-1.2188
X4.0187Y-1.9688
X4.0187Y-2.7188
X4.0187Y-3.4688
X4.2313Y-4.2188
X4.4188Y-1.2188
X4.4188Y-1.9688
X4.4188Y-2.7188
X4.4188Y-3.4688
T2
X1.2188Y-1.2188
X1.2188Y-1.9688
X1.2188Y-2.7188
X1.2188Y-3.4688
X1.9688Y-1.2188
X1.9688Y-1.9688
X1.9688Y-2.7188
X1.9688Y-3.4688
X2.3438Y-4.2188
X2.7188Y-1.2188
X2.7188Y-1.9688
X2.7188Y-2.7188
X2.7188Y-3.4688
X3.0938Y-4.2188
X3.4688Y-1.2188
X3.4688Y-1.9688
X3.4688Y-2.7188
X3.4688Y-3.4688
X4.0312Y-4.2188
X4.2188Y-1.2188
X4.2188Y-1.9688
X4.2188Y-2.7188
X4.2188Y-3.4688
T0
M30
