%TF.GenerationSoftware,KiCad,Pcbnew,(5.1.12)-1*%
%TF.CreationDate,2022-01-03T12:53:36-05:00*%
%TF.ProjectId,my-keeb,6d792d6b-6565-4622-9e6b-696361645f70,rev?*%
%TF.SameCoordinates,Original*%
%TF.FileFunction,Soldermask,Top*%
%TF.FilePolarity,Negative*%
%FSLAX46Y46*%
G04 Gerber Fmt 4.6, Leading zero omitted, Abs format (unit mm)*
G04 Created by KiCad (PCBNEW (5.1.12)-1) date 2022-01-03 12:53:36*
%MOMM*%
%LPD*%
G01*
G04 APERTURE LIST*
%ADD10C,1.750000*%
%ADD11C,3.987800*%
%ADD12O,1.700000X2.700000*%
G04 APERTURE END LIST*
D10*
%TO.C,MX43*%
X198755000Y-22225000D03*
X188595000Y-22225000D03*
D11*
X193675000Y-22225000D03*
%TD*%
D12*
%TO.C,USB1*%
X104300000Y-9271000D03*
X111600000Y-9271000D03*
X111600000Y-13771000D03*
X104300000Y-13771000D03*
%TD*%
D10*
%TO.C,MX46*%
X198755000Y-79375000D03*
X188595000Y-79375000D03*
D11*
X193675000Y-79375000D03*
%TD*%
D10*
%TO.C,MX45*%
X198755000Y-60325000D03*
X188595000Y-60325000D03*
D11*
X193675000Y-60325000D03*
%TD*%
D10*
%TO.C,MX44*%
X198755000Y-41275000D03*
X188595000Y-41275000D03*
D11*
X193675000Y-41275000D03*
%TD*%
D10*
%TO.C,MX42*%
X179705000Y-79375000D03*
X169545000Y-79375000D03*
D11*
X174625000Y-79375000D03*
%TD*%
D10*
%TO.C,MX41*%
X179705000Y-60325000D03*
X169545000Y-60325000D03*
D11*
X174625000Y-60325000D03*
%TD*%
D10*
%TO.C,MX40*%
X179705000Y-41275000D03*
X169545000Y-41275000D03*
D11*
X174625000Y-41275000D03*
%TD*%
D10*
%TO.C,MX39*%
X179705000Y-22225000D03*
X169545000Y-22225000D03*
D11*
X174625000Y-22225000D03*
%TD*%
D10*
%TO.C,MX38*%
X170180000Y-98425000D03*
X160020000Y-98425000D03*
D11*
X165100000Y-98425000D03*
%TD*%
D10*
%TO.C,MX37*%
X160655000Y-79375000D03*
X150495000Y-79375000D03*
D11*
X155575000Y-79375000D03*
%TD*%
D10*
%TO.C,MX36*%
X160655000Y-60325000D03*
X150495000Y-60325000D03*
D11*
X155575000Y-60325000D03*
%TD*%
D10*
%TO.C,MX35*%
X160655000Y-41275000D03*
X150495000Y-41275000D03*
D11*
X155575000Y-41275000D03*
%TD*%
D10*
%TO.C,MX34*%
X160655000Y-22225000D03*
X150495000Y-22225000D03*
D11*
X155575000Y-22225000D03*
%TD*%
D10*
%TO.C,MX33*%
X151130000Y-98425000D03*
X140970000Y-98425000D03*
D11*
X146050000Y-98425000D03*
%TD*%
D10*
%TO.C,MX32*%
X141605000Y-79375000D03*
X131445000Y-79375000D03*
D11*
X136525000Y-79375000D03*
%TD*%
D10*
%TO.C,MX31*%
X141605000Y-60325000D03*
X131445000Y-60325000D03*
D11*
X136525000Y-60325000D03*
%TD*%
D10*
%TO.C,MX30*%
X141605000Y-41275000D03*
X131445000Y-41275000D03*
D11*
X136525000Y-41275000D03*
%TD*%
D10*
%TO.C,MX29*%
X141605000Y-22225000D03*
X131445000Y-22225000D03*
D11*
X136525000Y-22225000D03*
%TD*%
D10*
%TO.C,MX28*%
X127317500Y-98425000D03*
X117157500Y-98425000D03*
D11*
X122237500Y-98425000D03*
%TD*%
D10*
%TO.C,MX27*%
X122555000Y-79375000D03*
X112395000Y-79375000D03*
D11*
X117475000Y-79375000D03*
%TD*%
D10*
%TO.C,MX26*%
X122555000Y-60325000D03*
X112395000Y-60325000D03*
D11*
X117475000Y-60325000D03*
%TD*%
D10*
%TO.C,MX25*%
X122555000Y-41275000D03*
X112395000Y-41275000D03*
D11*
X117475000Y-41275000D03*
%TD*%
D10*
%TO.C,MX24*%
X122555000Y-22225000D03*
X112395000Y-22225000D03*
D11*
X117475000Y-22225000D03*
%TD*%
D10*
%TO.C,MX23*%
X98742500Y-98425000D03*
X88582500Y-98425000D03*
D11*
X93662500Y-98425000D03*
%TD*%
D10*
%TO.C,MX22*%
X103505000Y-79375000D03*
X93345000Y-79375000D03*
D11*
X98425000Y-79375000D03*
%TD*%
D10*
%TO.C,MX21*%
X103505000Y-60325000D03*
X93345000Y-60325000D03*
D11*
X98425000Y-60325000D03*
%TD*%
D10*
%TO.C,MX20*%
X103505000Y-41275000D03*
X93345000Y-41275000D03*
D11*
X98425000Y-41275000D03*
%TD*%
D10*
%TO.C,MX19*%
X103505000Y-22225000D03*
X93345000Y-22225000D03*
D11*
X98425000Y-22225000D03*
%TD*%
D10*
%TO.C,MX18*%
X74930000Y-98425000D03*
X64770000Y-98425000D03*
D11*
X69850000Y-98425000D03*
%TD*%
D10*
%TO.C,MX17*%
X84455000Y-79375000D03*
X74295000Y-79375000D03*
D11*
X79375000Y-79375000D03*
%TD*%
D10*
%TO.C,MX16*%
X84455000Y-60325000D03*
X74295000Y-60325000D03*
D11*
X79375000Y-60325000D03*
%TD*%
D10*
%TO.C,MX15*%
X84455000Y-41275000D03*
X74295000Y-41275000D03*
D11*
X79375000Y-41275000D03*
%TD*%
D10*
%TO.C,MX14*%
X84455000Y-22225000D03*
X74295000Y-22225000D03*
D11*
X79375000Y-22225000D03*
%TD*%
D10*
%TO.C,MX13*%
X55880000Y-98425000D03*
X45720000Y-98425000D03*
D11*
X50800000Y-98425000D03*
%TD*%
D10*
%TO.C,MX12*%
X65405000Y-79375000D03*
X55245000Y-79375000D03*
D11*
X60325000Y-79375000D03*
%TD*%
D10*
%TO.C,MX11*%
X65405000Y-60325000D03*
X55245000Y-60325000D03*
D11*
X60325000Y-60325000D03*
%TD*%
D10*
%TO.C,MX10*%
X65405000Y-41275000D03*
X55245000Y-41275000D03*
D11*
X60325000Y-41275000D03*
%TD*%
D10*
%TO.C,MX9*%
X65405000Y-22225000D03*
X55245000Y-22225000D03*
D11*
X60325000Y-22225000D03*
%TD*%
D10*
%TO.C,MX8*%
X46355000Y-79375000D03*
X36195000Y-79375000D03*
D11*
X41275000Y-79375000D03*
%TD*%
D10*
%TO.C,MX7*%
X46355000Y-60325000D03*
X36195000Y-60325000D03*
D11*
X41275000Y-60325000D03*
%TD*%
D10*
%TO.C,MX6*%
X46355000Y-41275000D03*
X36195000Y-41275000D03*
D11*
X41275000Y-41275000D03*
%TD*%
D10*
%TO.C,MX5*%
X46355000Y-22225000D03*
X36195000Y-22225000D03*
D11*
X41275000Y-22225000D03*
%TD*%
D10*
%TO.C,MX4*%
X27305000Y-79375000D03*
X17145000Y-79375000D03*
D11*
X22225000Y-79375000D03*
%TD*%
D10*
%TO.C,MX3*%
X27305000Y-60325000D03*
X17145000Y-60325000D03*
D11*
X22225000Y-60325000D03*
%TD*%
D10*
%TO.C,MX2*%
X27305000Y-41275000D03*
X17145000Y-41275000D03*
D11*
X22225000Y-41275000D03*
%TD*%
D10*
%TO.C,MX1*%
X27305000Y-22225000D03*
X17145000Y-22225000D03*
D11*
X22225000Y-22225000D03*
%TD*%
M02*
