%TF.GenerationSoftware,KiCad,Pcbnew,(5.1.12)-1*%
%TF.CreationDate,2022-01-01T13:19:22-05:00*%
%TF.ProjectId,my-keeb-pro-micro,6d792d6b-6565-4622-9d70-726f2d6d6963,rev?*%
%TF.SameCoordinates,Original*%
%TF.FileFunction,Soldermask,Bot*%
%TF.FilePolarity,Negative*%
%FSLAX46Y46*%
G04 Gerber Fmt 4.6, Leading zero omitted, Abs format (unit mm)*
G04 Created by KiCad (PCBNEW (5.1.12)-1) date 2022-01-01 13:19:22*
%MOMM*%
%LPD*%
G01*
G04 APERTURE LIST*
%ADD10R,1.600000X1.600000*%
%ADD11C,1.600000*%
%ADD12R,1.200000X1.600000*%
%ADD13C,2.250000*%
%ADD14C,3.987800*%
%ADD15C,1.750000*%
%ADD16R,1.752600X1.752600*%
%ADD17C,1.752600*%
%ADD18R,1.600000X1.200000*%
G04 APERTURE END LIST*
D10*
%TO.C,D46*%
X201612500Y-83275000D03*
D11*
X201612500Y-75475000D03*
D12*
X201612500Y-80775000D03*
X201612500Y-77975000D03*
%TD*%
%TO.C,MX25*%
G36*
G01*
X119898483Y-37897395D02*
X119897597Y-37897334D01*
G75*
G02*
X118852666Y-36697597I77403J1122334D01*
G01*
X118892666Y-36117597D01*
G75*
G02*
X120092403Y-35072666I1122334J-77403D01*
G01*
X120092403Y-35072666D01*
G75*
G02*
X121137334Y-36272403I-77403J-1122334D01*
G01*
X121097334Y-36852403D01*
G75*
G02*
X119897597Y-37897334I-1122334J77403D01*
G01*
G37*
D13*
X120015000Y-36195000D03*
G36*
G01*
X112913688Y-39572350D02*
X112913683Y-39572345D01*
G75*
G02*
X112827655Y-37983683I751317J837345D01*
G01*
X114137657Y-36523683D01*
G75*
G02*
X115726319Y-36437655I837345J-751317D01*
G01*
X115726319Y-36437655D01*
G75*
G02*
X115812347Y-38026317I-751317J-837345D01*
G01*
X114502345Y-39486317D01*
G75*
G02*
X112913683Y-39572345I-837345J751317D01*
G01*
G37*
D14*
X117475000Y-41275000D03*
D13*
X114975000Y-37275000D03*
D15*
X112395000Y-41275000D03*
X122555000Y-41275000D03*
%TD*%
%TO.C,MX28*%
G36*
G01*
X124660983Y-95047395D02*
X124660097Y-95047334D01*
G75*
G02*
X123615166Y-93847597I77403J1122334D01*
G01*
X123655166Y-93267597D01*
G75*
G02*
X124854903Y-92222666I1122334J-77403D01*
G01*
X124854903Y-92222666D01*
G75*
G02*
X125899834Y-93422403I-77403J-1122334D01*
G01*
X125859834Y-94002403D01*
G75*
G02*
X124660097Y-95047334I-1122334J77403D01*
G01*
G37*
D13*
X124777500Y-93345000D03*
G36*
G01*
X117676188Y-96722350D02*
X117676183Y-96722345D01*
G75*
G02*
X117590155Y-95133683I751317J837345D01*
G01*
X118900157Y-93673683D01*
G75*
G02*
X120488819Y-93587655I837345J-751317D01*
G01*
X120488819Y-93587655D01*
G75*
G02*
X120574847Y-95176317I-751317J-837345D01*
G01*
X119264845Y-96636317D01*
G75*
G02*
X117676183Y-96722345I-837345J751317D01*
G01*
G37*
D14*
X122237500Y-98425000D03*
D13*
X119737500Y-94425000D03*
D15*
X117157500Y-98425000D03*
X127317500Y-98425000D03*
%TD*%
D16*
%TO.C,U1*%
X125323600Y-16986250D03*
D17*
X124866400Y-19526250D03*
X125323600Y-22066250D03*
X124866400Y-24606250D03*
X125323600Y-27146250D03*
X124866400Y-29686250D03*
X125323600Y-32226250D03*
X124866400Y-34766250D03*
X125323600Y-37306250D03*
X124866400Y-39846250D03*
X125323600Y-42386250D03*
X110083600Y-44926250D03*
X109626400Y-42386250D03*
X110083600Y-39846250D03*
X109626400Y-37306250D03*
X110083600Y-34766250D03*
X109626400Y-32226250D03*
X110083600Y-29686250D03*
X109626400Y-27146250D03*
X110083600Y-24606250D03*
X109626400Y-22066250D03*
X110083600Y-19526250D03*
X124866400Y-44926250D03*
X109626400Y-16986250D03*
%TD*%
%TO.C,MX46*%
G36*
G01*
X196098483Y-75997395D02*
X196097597Y-75997334D01*
G75*
G02*
X195052666Y-74797597I77403J1122334D01*
G01*
X195092666Y-74217597D01*
G75*
G02*
X196292403Y-73172666I1122334J-77403D01*
G01*
X196292403Y-73172666D01*
G75*
G02*
X197337334Y-74372403I-77403J-1122334D01*
G01*
X197297334Y-74952403D01*
G75*
G02*
X196097597Y-75997334I-1122334J77403D01*
G01*
G37*
D13*
X196215000Y-74295000D03*
G36*
G01*
X189113688Y-77672350D02*
X189113683Y-77672345D01*
G75*
G02*
X189027655Y-76083683I751317J837345D01*
G01*
X190337657Y-74623683D01*
G75*
G02*
X191926319Y-74537655I837345J-751317D01*
G01*
X191926319Y-74537655D01*
G75*
G02*
X192012347Y-76126317I-751317J-837345D01*
G01*
X190702345Y-77586317D01*
G75*
G02*
X189113683Y-77672345I-837345J751317D01*
G01*
G37*
D14*
X193675000Y-79375000D03*
D13*
X191175000Y-75375000D03*
D15*
X188595000Y-79375000D03*
X198755000Y-79375000D03*
%TD*%
%TO.C,MX45*%
G36*
G01*
X196098483Y-56947395D02*
X196097597Y-56947334D01*
G75*
G02*
X195052666Y-55747597I77403J1122334D01*
G01*
X195092666Y-55167597D01*
G75*
G02*
X196292403Y-54122666I1122334J-77403D01*
G01*
X196292403Y-54122666D01*
G75*
G02*
X197337334Y-55322403I-77403J-1122334D01*
G01*
X197297334Y-55902403D01*
G75*
G02*
X196097597Y-56947334I-1122334J77403D01*
G01*
G37*
D13*
X196215000Y-55245000D03*
G36*
G01*
X189113688Y-58622350D02*
X189113683Y-58622345D01*
G75*
G02*
X189027655Y-57033683I751317J837345D01*
G01*
X190337657Y-55573683D01*
G75*
G02*
X191926319Y-55487655I837345J-751317D01*
G01*
X191926319Y-55487655D01*
G75*
G02*
X192012347Y-57076317I-751317J-837345D01*
G01*
X190702345Y-58536317D01*
G75*
G02*
X189113683Y-58622345I-837345J751317D01*
G01*
G37*
D14*
X193675000Y-60325000D03*
D13*
X191175000Y-56325000D03*
D15*
X188595000Y-60325000D03*
X198755000Y-60325000D03*
%TD*%
%TO.C,MX44*%
G36*
G01*
X196098483Y-37897395D02*
X196097597Y-37897334D01*
G75*
G02*
X195052666Y-36697597I77403J1122334D01*
G01*
X195092666Y-36117597D01*
G75*
G02*
X196292403Y-35072666I1122334J-77403D01*
G01*
X196292403Y-35072666D01*
G75*
G02*
X197337334Y-36272403I-77403J-1122334D01*
G01*
X197297334Y-36852403D01*
G75*
G02*
X196097597Y-37897334I-1122334J77403D01*
G01*
G37*
D13*
X196215000Y-36195000D03*
G36*
G01*
X189113688Y-39572350D02*
X189113683Y-39572345D01*
G75*
G02*
X189027655Y-37983683I751317J837345D01*
G01*
X190337657Y-36523683D01*
G75*
G02*
X191926319Y-36437655I837345J-751317D01*
G01*
X191926319Y-36437655D01*
G75*
G02*
X192012347Y-38026317I-751317J-837345D01*
G01*
X190702345Y-39486317D01*
G75*
G02*
X189113683Y-39572345I-837345J751317D01*
G01*
G37*
D14*
X193675000Y-41275000D03*
D13*
X191175000Y-37275000D03*
D15*
X188595000Y-41275000D03*
X198755000Y-41275000D03*
%TD*%
%TO.C,MX43*%
G36*
G01*
X196098483Y-18847395D02*
X196097597Y-18847334D01*
G75*
G02*
X195052666Y-17647597I77403J1122334D01*
G01*
X195092666Y-17067597D01*
G75*
G02*
X196292403Y-16022666I1122334J-77403D01*
G01*
X196292403Y-16022666D01*
G75*
G02*
X197337334Y-17222403I-77403J-1122334D01*
G01*
X197297334Y-17802403D01*
G75*
G02*
X196097597Y-18847334I-1122334J77403D01*
G01*
G37*
D13*
X196215000Y-17145000D03*
G36*
G01*
X189113688Y-20522350D02*
X189113683Y-20522345D01*
G75*
G02*
X189027655Y-18933683I751317J837345D01*
G01*
X190337657Y-17473683D01*
G75*
G02*
X191926319Y-17387655I837345J-751317D01*
G01*
X191926319Y-17387655D01*
G75*
G02*
X192012347Y-18976317I-751317J-837345D01*
G01*
X190702345Y-20436317D01*
G75*
G02*
X189113683Y-20522345I-837345J751317D01*
G01*
G37*
D14*
X193675000Y-22225000D03*
D13*
X191175000Y-18225000D03*
D15*
X188595000Y-22225000D03*
X198755000Y-22225000D03*
%TD*%
%TO.C,MX42*%
G36*
G01*
X177048483Y-75997395D02*
X177047597Y-75997334D01*
G75*
G02*
X176002666Y-74797597I77403J1122334D01*
G01*
X176042666Y-74217597D01*
G75*
G02*
X177242403Y-73172666I1122334J-77403D01*
G01*
X177242403Y-73172666D01*
G75*
G02*
X178287334Y-74372403I-77403J-1122334D01*
G01*
X178247334Y-74952403D01*
G75*
G02*
X177047597Y-75997334I-1122334J77403D01*
G01*
G37*
D13*
X177165000Y-74295000D03*
G36*
G01*
X170063688Y-77672350D02*
X170063683Y-77672345D01*
G75*
G02*
X169977655Y-76083683I751317J837345D01*
G01*
X171287657Y-74623683D01*
G75*
G02*
X172876319Y-74537655I837345J-751317D01*
G01*
X172876319Y-74537655D01*
G75*
G02*
X172962347Y-76126317I-751317J-837345D01*
G01*
X171652345Y-77586317D01*
G75*
G02*
X170063683Y-77672345I-837345J751317D01*
G01*
G37*
D14*
X174625000Y-79375000D03*
D13*
X172125000Y-75375000D03*
D15*
X169545000Y-79375000D03*
X179705000Y-79375000D03*
%TD*%
%TO.C,MX41*%
G36*
G01*
X177048483Y-56947395D02*
X177047597Y-56947334D01*
G75*
G02*
X176002666Y-55747597I77403J1122334D01*
G01*
X176042666Y-55167597D01*
G75*
G02*
X177242403Y-54122666I1122334J-77403D01*
G01*
X177242403Y-54122666D01*
G75*
G02*
X178287334Y-55322403I-77403J-1122334D01*
G01*
X178247334Y-55902403D01*
G75*
G02*
X177047597Y-56947334I-1122334J77403D01*
G01*
G37*
D13*
X177165000Y-55245000D03*
G36*
G01*
X170063688Y-58622350D02*
X170063683Y-58622345D01*
G75*
G02*
X169977655Y-57033683I751317J837345D01*
G01*
X171287657Y-55573683D01*
G75*
G02*
X172876319Y-55487655I837345J-751317D01*
G01*
X172876319Y-55487655D01*
G75*
G02*
X172962347Y-57076317I-751317J-837345D01*
G01*
X171652345Y-58536317D01*
G75*
G02*
X170063683Y-58622345I-837345J751317D01*
G01*
G37*
D14*
X174625000Y-60325000D03*
D13*
X172125000Y-56325000D03*
D15*
X169545000Y-60325000D03*
X179705000Y-60325000D03*
%TD*%
%TO.C,MX40*%
G36*
G01*
X177048483Y-37897395D02*
X177047597Y-37897334D01*
G75*
G02*
X176002666Y-36697597I77403J1122334D01*
G01*
X176042666Y-36117597D01*
G75*
G02*
X177242403Y-35072666I1122334J-77403D01*
G01*
X177242403Y-35072666D01*
G75*
G02*
X178287334Y-36272403I-77403J-1122334D01*
G01*
X178247334Y-36852403D01*
G75*
G02*
X177047597Y-37897334I-1122334J77403D01*
G01*
G37*
D13*
X177165000Y-36195000D03*
G36*
G01*
X170063688Y-39572350D02*
X170063683Y-39572345D01*
G75*
G02*
X169977655Y-37983683I751317J837345D01*
G01*
X171287657Y-36523683D01*
G75*
G02*
X172876319Y-36437655I837345J-751317D01*
G01*
X172876319Y-36437655D01*
G75*
G02*
X172962347Y-38026317I-751317J-837345D01*
G01*
X171652345Y-39486317D01*
G75*
G02*
X170063683Y-39572345I-837345J751317D01*
G01*
G37*
D14*
X174625000Y-41275000D03*
D13*
X172125000Y-37275000D03*
D15*
X169545000Y-41275000D03*
X179705000Y-41275000D03*
%TD*%
%TO.C,MX39*%
G36*
G01*
X177048483Y-18847395D02*
X177047597Y-18847334D01*
G75*
G02*
X176002666Y-17647597I77403J1122334D01*
G01*
X176042666Y-17067597D01*
G75*
G02*
X177242403Y-16022666I1122334J-77403D01*
G01*
X177242403Y-16022666D01*
G75*
G02*
X178287334Y-17222403I-77403J-1122334D01*
G01*
X178247334Y-17802403D01*
G75*
G02*
X177047597Y-18847334I-1122334J77403D01*
G01*
G37*
D13*
X177165000Y-17145000D03*
G36*
G01*
X170063688Y-20522350D02*
X170063683Y-20522345D01*
G75*
G02*
X169977655Y-18933683I751317J837345D01*
G01*
X171287657Y-17473683D01*
G75*
G02*
X172876319Y-17387655I837345J-751317D01*
G01*
X172876319Y-17387655D01*
G75*
G02*
X172962347Y-18976317I-751317J-837345D01*
G01*
X171652345Y-20436317D01*
G75*
G02*
X170063683Y-20522345I-837345J751317D01*
G01*
G37*
D14*
X174625000Y-22225000D03*
D13*
X172125000Y-18225000D03*
D15*
X169545000Y-22225000D03*
X179705000Y-22225000D03*
%TD*%
%TO.C,MX38*%
G36*
G01*
X167523483Y-95047395D02*
X167522597Y-95047334D01*
G75*
G02*
X166477666Y-93847597I77403J1122334D01*
G01*
X166517666Y-93267597D01*
G75*
G02*
X167717403Y-92222666I1122334J-77403D01*
G01*
X167717403Y-92222666D01*
G75*
G02*
X168762334Y-93422403I-77403J-1122334D01*
G01*
X168722334Y-94002403D01*
G75*
G02*
X167522597Y-95047334I-1122334J77403D01*
G01*
G37*
D13*
X167640000Y-93345000D03*
G36*
G01*
X160538688Y-96722350D02*
X160538683Y-96722345D01*
G75*
G02*
X160452655Y-95133683I751317J837345D01*
G01*
X161762657Y-93673683D01*
G75*
G02*
X163351319Y-93587655I837345J-751317D01*
G01*
X163351319Y-93587655D01*
G75*
G02*
X163437347Y-95176317I-751317J-837345D01*
G01*
X162127345Y-96636317D01*
G75*
G02*
X160538683Y-96722345I-837345J751317D01*
G01*
G37*
D14*
X165100000Y-98425000D03*
D13*
X162600000Y-94425000D03*
D15*
X160020000Y-98425000D03*
X170180000Y-98425000D03*
%TD*%
%TO.C,MX37*%
G36*
G01*
X157998483Y-75997395D02*
X157997597Y-75997334D01*
G75*
G02*
X156952666Y-74797597I77403J1122334D01*
G01*
X156992666Y-74217597D01*
G75*
G02*
X158192403Y-73172666I1122334J-77403D01*
G01*
X158192403Y-73172666D01*
G75*
G02*
X159237334Y-74372403I-77403J-1122334D01*
G01*
X159197334Y-74952403D01*
G75*
G02*
X157997597Y-75997334I-1122334J77403D01*
G01*
G37*
D13*
X158115000Y-74295000D03*
G36*
G01*
X151013688Y-77672350D02*
X151013683Y-77672345D01*
G75*
G02*
X150927655Y-76083683I751317J837345D01*
G01*
X152237657Y-74623683D01*
G75*
G02*
X153826319Y-74537655I837345J-751317D01*
G01*
X153826319Y-74537655D01*
G75*
G02*
X153912347Y-76126317I-751317J-837345D01*
G01*
X152602345Y-77586317D01*
G75*
G02*
X151013683Y-77672345I-837345J751317D01*
G01*
G37*
D14*
X155575000Y-79375000D03*
D13*
X153075000Y-75375000D03*
D15*
X150495000Y-79375000D03*
X160655000Y-79375000D03*
%TD*%
%TO.C,MX36*%
G36*
G01*
X157998483Y-56947395D02*
X157997597Y-56947334D01*
G75*
G02*
X156952666Y-55747597I77403J1122334D01*
G01*
X156992666Y-55167597D01*
G75*
G02*
X158192403Y-54122666I1122334J-77403D01*
G01*
X158192403Y-54122666D01*
G75*
G02*
X159237334Y-55322403I-77403J-1122334D01*
G01*
X159197334Y-55902403D01*
G75*
G02*
X157997597Y-56947334I-1122334J77403D01*
G01*
G37*
D13*
X158115000Y-55245000D03*
G36*
G01*
X151013688Y-58622350D02*
X151013683Y-58622345D01*
G75*
G02*
X150927655Y-57033683I751317J837345D01*
G01*
X152237657Y-55573683D01*
G75*
G02*
X153826319Y-55487655I837345J-751317D01*
G01*
X153826319Y-55487655D01*
G75*
G02*
X153912347Y-57076317I-751317J-837345D01*
G01*
X152602345Y-58536317D01*
G75*
G02*
X151013683Y-58622345I-837345J751317D01*
G01*
G37*
D14*
X155575000Y-60325000D03*
D13*
X153075000Y-56325000D03*
D15*
X150495000Y-60325000D03*
X160655000Y-60325000D03*
%TD*%
%TO.C,MX35*%
G36*
G01*
X157998483Y-37897395D02*
X157997597Y-37897334D01*
G75*
G02*
X156952666Y-36697597I77403J1122334D01*
G01*
X156992666Y-36117597D01*
G75*
G02*
X158192403Y-35072666I1122334J-77403D01*
G01*
X158192403Y-35072666D01*
G75*
G02*
X159237334Y-36272403I-77403J-1122334D01*
G01*
X159197334Y-36852403D01*
G75*
G02*
X157997597Y-37897334I-1122334J77403D01*
G01*
G37*
D13*
X158115000Y-36195000D03*
G36*
G01*
X151013688Y-39572350D02*
X151013683Y-39572345D01*
G75*
G02*
X150927655Y-37983683I751317J837345D01*
G01*
X152237657Y-36523683D01*
G75*
G02*
X153826319Y-36437655I837345J-751317D01*
G01*
X153826319Y-36437655D01*
G75*
G02*
X153912347Y-38026317I-751317J-837345D01*
G01*
X152602345Y-39486317D01*
G75*
G02*
X151013683Y-39572345I-837345J751317D01*
G01*
G37*
D14*
X155575000Y-41275000D03*
D13*
X153075000Y-37275000D03*
D15*
X150495000Y-41275000D03*
X160655000Y-41275000D03*
%TD*%
%TO.C,MX34*%
G36*
G01*
X157998483Y-18847395D02*
X157997597Y-18847334D01*
G75*
G02*
X156952666Y-17647597I77403J1122334D01*
G01*
X156992666Y-17067597D01*
G75*
G02*
X158192403Y-16022666I1122334J-77403D01*
G01*
X158192403Y-16022666D01*
G75*
G02*
X159237334Y-17222403I-77403J-1122334D01*
G01*
X159197334Y-17802403D01*
G75*
G02*
X157997597Y-18847334I-1122334J77403D01*
G01*
G37*
D13*
X158115000Y-17145000D03*
G36*
G01*
X151013688Y-20522350D02*
X151013683Y-20522345D01*
G75*
G02*
X150927655Y-18933683I751317J837345D01*
G01*
X152237657Y-17473683D01*
G75*
G02*
X153826319Y-17387655I837345J-751317D01*
G01*
X153826319Y-17387655D01*
G75*
G02*
X153912347Y-18976317I-751317J-837345D01*
G01*
X152602345Y-20436317D01*
G75*
G02*
X151013683Y-20522345I-837345J751317D01*
G01*
G37*
D14*
X155575000Y-22225000D03*
D13*
X153075000Y-18225000D03*
D15*
X150495000Y-22225000D03*
X160655000Y-22225000D03*
%TD*%
%TO.C,MX33*%
G36*
G01*
X148473483Y-95047395D02*
X148472597Y-95047334D01*
G75*
G02*
X147427666Y-93847597I77403J1122334D01*
G01*
X147467666Y-93267597D01*
G75*
G02*
X148667403Y-92222666I1122334J-77403D01*
G01*
X148667403Y-92222666D01*
G75*
G02*
X149712334Y-93422403I-77403J-1122334D01*
G01*
X149672334Y-94002403D01*
G75*
G02*
X148472597Y-95047334I-1122334J77403D01*
G01*
G37*
D13*
X148590000Y-93345000D03*
G36*
G01*
X141488688Y-96722350D02*
X141488683Y-96722345D01*
G75*
G02*
X141402655Y-95133683I751317J837345D01*
G01*
X142712657Y-93673683D01*
G75*
G02*
X144301319Y-93587655I837345J-751317D01*
G01*
X144301319Y-93587655D01*
G75*
G02*
X144387347Y-95176317I-751317J-837345D01*
G01*
X143077345Y-96636317D01*
G75*
G02*
X141488683Y-96722345I-837345J751317D01*
G01*
G37*
D14*
X146050000Y-98425000D03*
D13*
X143550000Y-94425000D03*
D15*
X140970000Y-98425000D03*
X151130000Y-98425000D03*
%TD*%
%TO.C,MX32*%
G36*
G01*
X138948483Y-75997395D02*
X138947597Y-75997334D01*
G75*
G02*
X137902666Y-74797597I77403J1122334D01*
G01*
X137942666Y-74217597D01*
G75*
G02*
X139142403Y-73172666I1122334J-77403D01*
G01*
X139142403Y-73172666D01*
G75*
G02*
X140187334Y-74372403I-77403J-1122334D01*
G01*
X140147334Y-74952403D01*
G75*
G02*
X138947597Y-75997334I-1122334J77403D01*
G01*
G37*
D13*
X139065000Y-74295000D03*
G36*
G01*
X131963688Y-77672350D02*
X131963683Y-77672345D01*
G75*
G02*
X131877655Y-76083683I751317J837345D01*
G01*
X133187657Y-74623683D01*
G75*
G02*
X134776319Y-74537655I837345J-751317D01*
G01*
X134776319Y-74537655D01*
G75*
G02*
X134862347Y-76126317I-751317J-837345D01*
G01*
X133552345Y-77586317D01*
G75*
G02*
X131963683Y-77672345I-837345J751317D01*
G01*
G37*
D14*
X136525000Y-79375000D03*
D13*
X134025000Y-75375000D03*
D15*
X131445000Y-79375000D03*
X141605000Y-79375000D03*
%TD*%
%TO.C,MX31*%
G36*
G01*
X138948483Y-56947395D02*
X138947597Y-56947334D01*
G75*
G02*
X137902666Y-55747597I77403J1122334D01*
G01*
X137942666Y-55167597D01*
G75*
G02*
X139142403Y-54122666I1122334J-77403D01*
G01*
X139142403Y-54122666D01*
G75*
G02*
X140187334Y-55322403I-77403J-1122334D01*
G01*
X140147334Y-55902403D01*
G75*
G02*
X138947597Y-56947334I-1122334J77403D01*
G01*
G37*
D13*
X139065000Y-55245000D03*
G36*
G01*
X131963688Y-58622350D02*
X131963683Y-58622345D01*
G75*
G02*
X131877655Y-57033683I751317J837345D01*
G01*
X133187657Y-55573683D01*
G75*
G02*
X134776319Y-55487655I837345J-751317D01*
G01*
X134776319Y-55487655D01*
G75*
G02*
X134862347Y-57076317I-751317J-837345D01*
G01*
X133552345Y-58536317D01*
G75*
G02*
X131963683Y-58622345I-837345J751317D01*
G01*
G37*
D14*
X136525000Y-60325000D03*
D13*
X134025000Y-56325000D03*
D15*
X131445000Y-60325000D03*
X141605000Y-60325000D03*
%TD*%
%TO.C,MX30*%
G36*
G01*
X138948483Y-37897395D02*
X138947597Y-37897334D01*
G75*
G02*
X137902666Y-36697597I77403J1122334D01*
G01*
X137942666Y-36117597D01*
G75*
G02*
X139142403Y-35072666I1122334J-77403D01*
G01*
X139142403Y-35072666D01*
G75*
G02*
X140187334Y-36272403I-77403J-1122334D01*
G01*
X140147334Y-36852403D01*
G75*
G02*
X138947597Y-37897334I-1122334J77403D01*
G01*
G37*
D13*
X139065000Y-36195000D03*
G36*
G01*
X131963688Y-39572350D02*
X131963683Y-39572345D01*
G75*
G02*
X131877655Y-37983683I751317J837345D01*
G01*
X133187657Y-36523683D01*
G75*
G02*
X134776319Y-36437655I837345J-751317D01*
G01*
X134776319Y-36437655D01*
G75*
G02*
X134862347Y-38026317I-751317J-837345D01*
G01*
X133552345Y-39486317D01*
G75*
G02*
X131963683Y-39572345I-837345J751317D01*
G01*
G37*
D14*
X136525000Y-41275000D03*
D13*
X134025000Y-37275000D03*
D15*
X131445000Y-41275000D03*
X141605000Y-41275000D03*
%TD*%
%TO.C,MX29*%
G36*
G01*
X138948483Y-18847395D02*
X138947597Y-18847334D01*
G75*
G02*
X137902666Y-17647597I77403J1122334D01*
G01*
X137942666Y-17067597D01*
G75*
G02*
X139142403Y-16022666I1122334J-77403D01*
G01*
X139142403Y-16022666D01*
G75*
G02*
X140187334Y-17222403I-77403J-1122334D01*
G01*
X140147334Y-17802403D01*
G75*
G02*
X138947597Y-18847334I-1122334J77403D01*
G01*
G37*
D13*
X139065000Y-17145000D03*
G36*
G01*
X131963688Y-20522350D02*
X131963683Y-20522345D01*
G75*
G02*
X131877655Y-18933683I751317J837345D01*
G01*
X133187657Y-17473683D01*
G75*
G02*
X134776319Y-17387655I837345J-751317D01*
G01*
X134776319Y-17387655D01*
G75*
G02*
X134862347Y-18976317I-751317J-837345D01*
G01*
X133552345Y-20436317D01*
G75*
G02*
X131963683Y-20522345I-837345J751317D01*
G01*
G37*
D14*
X136525000Y-22225000D03*
D13*
X134025000Y-18225000D03*
D15*
X131445000Y-22225000D03*
X141605000Y-22225000D03*
%TD*%
%TO.C,MX27*%
G36*
G01*
X119898483Y-75997395D02*
X119897597Y-75997334D01*
G75*
G02*
X118852666Y-74797597I77403J1122334D01*
G01*
X118892666Y-74217597D01*
G75*
G02*
X120092403Y-73172666I1122334J-77403D01*
G01*
X120092403Y-73172666D01*
G75*
G02*
X121137334Y-74372403I-77403J-1122334D01*
G01*
X121097334Y-74952403D01*
G75*
G02*
X119897597Y-75997334I-1122334J77403D01*
G01*
G37*
D13*
X120015000Y-74295000D03*
G36*
G01*
X112913688Y-77672350D02*
X112913683Y-77672345D01*
G75*
G02*
X112827655Y-76083683I751317J837345D01*
G01*
X114137657Y-74623683D01*
G75*
G02*
X115726319Y-74537655I837345J-751317D01*
G01*
X115726319Y-74537655D01*
G75*
G02*
X115812347Y-76126317I-751317J-837345D01*
G01*
X114502345Y-77586317D01*
G75*
G02*
X112913683Y-77672345I-837345J751317D01*
G01*
G37*
D14*
X117475000Y-79375000D03*
D13*
X114975000Y-75375000D03*
D15*
X112395000Y-79375000D03*
X122555000Y-79375000D03*
%TD*%
%TO.C,MX26*%
G36*
G01*
X119898483Y-56947395D02*
X119897597Y-56947334D01*
G75*
G02*
X118852666Y-55747597I77403J1122334D01*
G01*
X118892666Y-55167597D01*
G75*
G02*
X120092403Y-54122666I1122334J-77403D01*
G01*
X120092403Y-54122666D01*
G75*
G02*
X121137334Y-55322403I-77403J-1122334D01*
G01*
X121097334Y-55902403D01*
G75*
G02*
X119897597Y-56947334I-1122334J77403D01*
G01*
G37*
D13*
X120015000Y-55245000D03*
G36*
G01*
X112913688Y-58622350D02*
X112913683Y-58622345D01*
G75*
G02*
X112827655Y-57033683I751317J837345D01*
G01*
X114137657Y-55573683D01*
G75*
G02*
X115726319Y-55487655I837345J-751317D01*
G01*
X115726319Y-55487655D01*
G75*
G02*
X115812347Y-57076317I-751317J-837345D01*
G01*
X114502345Y-58536317D01*
G75*
G02*
X112913683Y-58622345I-837345J751317D01*
G01*
G37*
D14*
X117475000Y-60325000D03*
D13*
X114975000Y-56325000D03*
D15*
X112395000Y-60325000D03*
X122555000Y-60325000D03*
%TD*%
%TO.C,MX24*%
G36*
G01*
X119898483Y-18847395D02*
X119897597Y-18847334D01*
G75*
G02*
X118852666Y-17647597I77403J1122334D01*
G01*
X118892666Y-17067597D01*
G75*
G02*
X120092403Y-16022666I1122334J-77403D01*
G01*
X120092403Y-16022666D01*
G75*
G02*
X121137334Y-17222403I-77403J-1122334D01*
G01*
X121097334Y-17802403D01*
G75*
G02*
X119897597Y-18847334I-1122334J77403D01*
G01*
G37*
D13*
X120015000Y-17145000D03*
G36*
G01*
X112913688Y-20522350D02*
X112913683Y-20522345D01*
G75*
G02*
X112827655Y-18933683I751317J837345D01*
G01*
X114137657Y-17473683D01*
G75*
G02*
X115726319Y-17387655I837345J-751317D01*
G01*
X115726319Y-17387655D01*
G75*
G02*
X115812347Y-18976317I-751317J-837345D01*
G01*
X114502345Y-20436317D01*
G75*
G02*
X112913683Y-20522345I-837345J751317D01*
G01*
G37*
D14*
X117475000Y-22225000D03*
D13*
X114975000Y-18225000D03*
D15*
X112395000Y-22225000D03*
X122555000Y-22225000D03*
%TD*%
%TO.C,MX23*%
G36*
G01*
X96085983Y-95047395D02*
X96085097Y-95047334D01*
G75*
G02*
X95040166Y-93847597I77403J1122334D01*
G01*
X95080166Y-93267597D01*
G75*
G02*
X96279903Y-92222666I1122334J-77403D01*
G01*
X96279903Y-92222666D01*
G75*
G02*
X97324834Y-93422403I-77403J-1122334D01*
G01*
X97284834Y-94002403D01*
G75*
G02*
X96085097Y-95047334I-1122334J77403D01*
G01*
G37*
D13*
X96202500Y-93345000D03*
G36*
G01*
X89101188Y-96722350D02*
X89101183Y-96722345D01*
G75*
G02*
X89015155Y-95133683I751317J837345D01*
G01*
X90325157Y-93673683D01*
G75*
G02*
X91913819Y-93587655I837345J-751317D01*
G01*
X91913819Y-93587655D01*
G75*
G02*
X91999847Y-95176317I-751317J-837345D01*
G01*
X90689845Y-96636317D01*
G75*
G02*
X89101183Y-96722345I-837345J751317D01*
G01*
G37*
D14*
X93662500Y-98425000D03*
D13*
X91162500Y-94425000D03*
D15*
X88582500Y-98425000D03*
X98742500Y-98425000D03*
%TD*%
%TO.C,MX22*%
G36*
G01*
X100848483Y-75997395D02*
X100847597Y-75997334D01*
G75*
G02*
X99802666Y-74797597I77403J1122334D01*
G01*
X99842666Y-74217597D01*
G75*
G02*
X101042403Y-73172666I1122334J-77403D01*
G01*
X101042403Y-73172666D01*
G75*
G02*
X102087334Y-74372403I-77403J-1122334D01*
G01*
X102047334Y-74952403D01*
G75*
G02*
X100847597Y-75997334I-1122334J77403D01*
G01*
G37*
D13*
X100965000Y-74295000D03*
G36*
G01*
X93863688Y-77672350D02*
X93863683Y-77672345D01*
G75*
G02*
X93777655Y-76083683I751317J837345D01*
G01*
X95087657Y-74623683D01*
G75*
G02*
X96676319Y-74537655I837345J-751317D01*
G01*
X96676319Y-74537655D01*
G75*
G02*
X96762347Y-76126317I-751317J-837345D01*
G01*
X95452345Y-77586317D01*
G75*
G02*
X93863683Y-77672345I-837345J751317D01*
G01*
G37*
D14*
X98425000Y-79375000D03*
D13*
X95925000Y-75375000D03*
D15*
X93345000Y-79375000D03*
X103505000Y-79375000D03*
%TD*%
%TO.C,MX21*%
G36*
G01*
X100848483Y-56947395D02*
X100847597Y-56947334D01*
G75*
G02*
X99802666Y-55747597I77403J1122334D01*
G01*
X99842666Y-55167597D01*
G75*
G02*
X101042403Y-54122666I1122334J-77403D01*
G01*
X101042403Y-54122666D01*
G75*
G02*
X102087334Y-55322403I-77403J-1122334D01*
G01*
X102047334Y-55902403D01*
G75*
G02*
X100847597Y-56947334I-1122334J77403D01*
G01*
G37*
D13*
X100965000Y-55245000D03*
G36*
G01*
X93863688Y-58622350D02*
X93863683Y-58622345D01*
G75*
G02*
X93777655Y-57033683I751317J837345D01*
G01*
X95087657Y-55573683D01*
G75*
G02*
X96676319Y-55487655I837345J-751317D01*
G01*
X96676319Y-55487655D01*
G75*
G02*
X96762347Y-57076317I-751317J-837345D01*
G01*
X95452345Y-58536317D01*
G75*
G02*
X93863683Y-58622345I-837345J751317D01*
G01*
G37*
D14*
X98425000Y-60325000D03*
D13*
X95925000Y-56325000D03*
D15*
X93345000Y-60325000D03*
X103505000Y-60325000D03*
%TD*%
%TO.C,MX20*%
G36*
G01*
X100848483Y-37897395D02*
X100847597Y-37897334D01*
G75*
G02*
X99802666Y-36697597I77403J1122334D01*
G01*
X99842666Y-36117597D01*
G75*
G02*
X101042403Y-35072666I1122334J-77403D01*
G01*
X101042403Y-35072666D01*
G75*
G02*
X102087334Y-36272403I-77403J-1122334D01*
G01*
X102047334Y-36852403D01*
G75*
G02*
X100847597Y-37897334I-1122334J77403D01*
G01*
G37*
D13*
X100965000Y-36195000D03*
G36*
G01*
X93863688Y-39572350D02*
X93863683Y-39572345D01*
G75*
G02*
X93777655Y-37983683I751317J837345D01*
G01*
X95087657Y-36523683D01*
G75*
G02*
X96676319Y-36437655I837345J-751317D01*
G01*
X96676319Y-36437655D01*
G75*
G02*
X96762347Y-38026317I-751317J-837345D01*
G01*
X95452345Y-39486317D01*
G75*
G02*
X93863683Y-39572345I-837345J751317D01*
G01*
G37*
D14*
X98425000Y-41275000D03*
D13*
X95925000Y-37275000D03*
D15*
X93345000Y-41275000D03*
X103505000Y-41275000D03*
%TD*%
%TO.C,MX19*%
G36*
G01*
X100848483Y-18847395D02*
X100847597Y-18847334D01*
G75*
G02*
X99802666Y-17647597I77403J1122334D01*
G01*
X99842666Y-17067597D01*
G75*
G02*
X101042403Y-16022666I1122334J-77403D01*
G01*
X101042403Y-16022666D01*
G75*
G02*
X102087334Y-17222403I-77403J-1122334D01*
G01*
X102047334Y-17802403D01*
G75*
G02*
X100847597Y-18847334I-1122334J77403D01*
G01*
G37*
D13*
X100965000Y-17145000D03*
G36*
G01*
X93863688Y-20522350D02*
X93863683Y-20522345D01*
G75*
G02*
X93777655Y-18933683I751317J837345D01*
G01*
X95087657Y-17473683D01*
G75*
G02*
X96676319Y-17387655I837345J-751317D01*
G01*
X96676319Y-17387655D01*
G75*
G02*
X96762347Y-18976317I-751317J-837345D01*
G01*
X95452345Y-20436317D01*
G75*
G02*
X93863683Y-20522345I-837345J751317D01*
G01*
G37*
D14*
X98425000Y-22225000D03*
D13*
X95925000Y-18225000D03*
D15*
X93345000Y-22225000D03*
X103505000Y-22225000D03*
%TD*%
%TO.C,MX18*%
G36*
G01*
X72273483Y-95047395D02*
X72272597Y-95047334D01*
G75*
G02*
X71227666Y-93847597I77403J1122334D01*
G01*
X71267666Y-93267597D01*
G75*
G02*
X72467403Y-92222666I1122334J-77403D01*
G01*
X72467403Y-92222666D01*
G75*
G02*
X73512334Y-93422403I-77403J-1122334D01*
G01*
X73472334Y-94002403D01*
G75*
G02*
X72272597Y-95047334I-1122334J77403D01*
G01*
G37*
D13*
X72390000Y-93345000D03*
G36*
G01*
X65288688Y-96722350D02*
X65288683Y-96722345D01*
G75*
G02*
X65202655Y-95133683I751317J837345D01*
G01*
X66512657Y-93673683D01*
G75*
G02*
X68101319Y-93587655I837345J-751317D01*
G01*
X68101319Y-93587655D01*
G75*
G02*
X68187347Y-95176317I-751317J-837345D01*
G01*
X66877345Y-96636317D01*
G75*
G02*
X65288683Y-96722345I-837345J751317D01*
G01*
G37*
D14*
X69850000Y-98425000D03*
D13*
X67350000Y-94425000D03*
D15*
X64770000Y-98425000D03*
X74930000Y-98425000D03*
%TD*%
%TO.C,MX17*%
G36*
G01*
X81798483Y-75997395D02*
X81797597Y-75997334D01*
G75*
G02*
X80752666Y-74797597I77403J1122334D01*
G01*
X80792666Y-74217597D01*
G75*
G02*
X81992403Y-73172666I1122334J-77403D01*
G01*
X81992403Y-73172666D01*
G75*
G02*
X83037334Y-74372403I-77403J-1122334D01*
G01*
X82997334Y-74952403D01*
G75*
G02*
X81797597Y-75997334I-1122334J77403D01*
G01*
G37*
D13*
X81915000Y-74295000D03*
G36*
G01*
X74813688Y-77672350D02*
X74813683Y-77672345D01*
G75*
G02*
X74727655Y-76083683I751317J837345D01*
G01*
X76037657Y-74623683D01*
G75*
G02*
X77626319Y-74537655I837345J-751317D01*
G01*
X77626319Y-74537655D01*
G75*
G02*
X77712347Y-76126317I-751317J-837345D01*
G01*
X76402345Y-77586317D01*
G75*
G02*
X74813683Y-77672345I-837345J751317D01*
G01*
G37*
D14*
X79375000Y-79375000D03*
D13*
X76875000Y-75375000D03*
D15*
X74295000Y-79375000D03*
X84455000Y-79375000D03*
%TD*%
%TO.C,MX16*%
G36*
G01*
X81798483Y-56947395D02*
X81797597Y-56947334D01*
G75*
G02*
X80752666Y-55747597I77403J1122334D01*
G01*
X80792666Y-55167597D01*
G75*
G02*
X81992403Y-54122666I1122334J-77403D01*
G01*
X81992403Y-54122666D01*
G75*
G02*
X83037334Y-55322403I-77403J-1122334D01*
G01*
X82997334Y-55902403D01*
G75*
G02*
X81797597Y-56947334I-1122334J77403D01*
G01*
G37*
D13*
X81915000Y-55245000D03*
G36*
G01*
X74813688Y-58622350D02*
X74813683Y-58622345D01*
G75*
G02*
X74727655Y-57033683I751317J837345D01*
G01*
X76037657Y-55573683D01*
G75*
G02*
X77626319Y-55487655I837345J-751317D01*
G01*
X77626319Y-55487655D01*
G75*
G02*
X77712347Y-57076317I-751317J-837345D01*
G01*
X76402345Y-58536317D01*
G75*
G02*
X74813683Y-58622345I-837345J751317D01*
G01*
G37*
D14*
X79375000Y-60325000D03*
D13*
X76875000Y-56325000D03*
D15*
X74295000Y-60325000D03*
X84455000Y-60325000D03*
%TD*%
%TO.C,MX15*%
G36*
G01*
X81798483Y-37897395D02*
X81797597Y-37897334D01*
G75*
G02*
X80752666Y-36697597I77403J1122334D01*
G01*
X80792666Y-36117597D01*
G75*
G02*
X81992403Y-35072666I1122334J-77403D01*
G01*
X81992403Y-35072666D01*
G75*
G02*
X83037334Y-36272403I-77403J-1122334D01*
G01*
X82997334Y-36852403D01*
G75*
G02*
X81797597Y-37897334I-1122334J77403D01*
G01*
G37*
D13*
X81915000Y-36195000D03*
G36*
G01*
X74813688Y-39572350D02*
X74813683Y-39572345D01*
G75*
G02*
X74727655Y-37983683I751317J837345D01*
G01*
X76037657Y-36523683D01*
G75*
G02*
X77626319Y-36437655I837345J-751317D01*
G01*
X77626319Y-36437655D01*
G75*
G02*
X77712347Y-38026317I-751317J-837345D01*
G01*
X76402345Y-39486317D01*
G75*
G02*
X74813683Y-39572345I-837345J751317D01*
G01*
G37*
D14*
X79375000Y-41275000D03*
D13*
X76875000Y-37275000D03*
D15*
X74295000Y-41275000D03*
X84455000Y-41275000D03*
%TD*%
%TO.C,MX14*%
G36*
G01*
X81798483Y-18847395D02*
X81797597Y-18847334D01*
G75*
G02*
X80752666Y-17647597I77403J1122334D01*
G01*
X80792666Y-17067597D01*
G75*
G02*
X81992403Y-16022666I1122334J-77403D01*
G01*
X81992403Y-16022666D01*
G75*
G02*
X83037334Y-17222403I-77403J-1122334D01*
G01*
X82997334Y-17802403D01*
G75*
G02*
X81797597Y-18847334I-1122334J77403D01*
G01*
G37*
D13*
X81915000Y-17145000D03*
G36*
G01*
X74813688Y-20522350D02*
X74813683Y-20522345D01*
G75*
G02*
X74727655Y-18933683I751317J837345D01*
G01*
X76037657Y-17473683D01*
G75*
G02*
X77626319Y-17387655I837345J-751317D01*
G01*
X77626319Y-17387655D01*
G75*
G02*
X77712347Y-18976317I-751317J-837345D01*
G01*
X76402345Y-20436317D01*
G75*
G02*
X74813683Y-20522345I-837345J751317D01*
G01*
G37*
D14*
X79375000Y-22225000D03*
D13*
X76875000Y-18225000D03*
D15*
X74295000Y-22225000D03*
X84455000Y-22225000D03*
%TD*%
%TO.C,MX13*%
G36*
G01*
X53223483Y-95047395D02*
X53222597Y-95047334D01*
G75*
G02*
X52177666Y-93847597I77403J1122334D01*
G01*
X52217666Y-93267597D01*
G75*
G02*
X53417403Y-92222666I1122334J-77403D01*
G01*
X53417403Y-92222666D01*
G75*
G02*
X54462334Y-93422403I-77403J-1122334D01*
G01*
X54422334Y-94002403D01*
G75*
G02*
X53222597Y-95047334I-1122334J77403D01*
G01*
G37*
D13*
X53340000Y-93345000D03*
G36*
G01*
X46238688Y-96722350D02*
X46238683Y-96722345D01*
G75*
G02*
X46152655Y-95133683I751317J837345D01*
G01*
X47462657Y-93673683D01*
G75*
G02*
X49051319Y-93587655I837345J-751317D01*
G01*
X49051319Y-93587655D01*
G75*
G02*
X49137347Y-95176317I-751317J-837345D01*
G01*
X47827345Y-96636317D01*
G75*
G02*
X46238683Y-96722345I-837345J751317D01*
G01*
G37*
D14*
X50800000Y-98425000D03*
D13*
X48300000Y-94425000D03*
D15*
X45720000Y-98425000D03*
X55880000Y-98425000D03*
%TD*%
%TO.C,MX12*%
G36*
G01*
X62748483Y-75997395D02*
X62747597Y-75997334D01*
G75*
G02*
X61702666Y-74797597I77403J1122334D01*
G01*
X61742666Y-74217597D01*
G75*
G02*
X62942403Y-73172666I1122334J-77403D01*
G01*
X62942403Y-73172666D01*
G75*
G02*
X63987334Y-74372403I-77403J-1122334D01*
G01*
X63947334Y-74952403D01*
G75*
G02*
X62747597Y-75997334I-1122334J77403D01*
G01*
G37*
D13*
X62865000Y-74295000D03*
G36*
G01*
X55763688Y-77672350D02*
X55763683Y-77672345D01*
G75*
G02*
X55677655Y-76083683I751317J837345D01*
G01*
X56987657Y-74623683D01*
G75*
G02*
X58576319Y-74537655I837345J-751317D01*
G01*
X58576319Y-74537655D01*
G75*
G02*
X58662347Y-76126317I-751317J-837345D01*
G01*
X57352345Y-77586317D01*
G75*
G02*
X55763683Y-77672345I-837345J751317D01*
G01*
G37*
D14*
X60325000Y-79375000D03*
D13*
X57825000Y-75375000D03*
D15*
X55245000Y-79375000D03*
X65405000Y-79375000D03*
%TD*%
%TO.C,MX11*%
G36*
G01*
X62748483Y-56947395D02*
X62747597Y-56947334D01*
G75*
G02*
X61702666Y-55747597I77403J1122334D01*
G01*
X61742666Y-55167597D01*
G75*
G02*
X62942403Y-54122666I1122334J-77403D01*
G01*
X62942403Y-54122666D01*
G75*
G02*
X63987334Y-55322403I-77403J-1122334D01*
G01*
X63947334Y-55902403D01*
G75*
G02*
X62747597Y-56947334I-1122334J77403D01*
G01*
G37*
D13*
X62865000Y-55245000D03*
G36*
G01*
X55763688Y-58622350D02*
X55763683Y-58622345D01*
G75*
G02*
X55677655Y-57033683I751317J837345D01*
G01*
X56987657Y-55573683D01*
G75*
G02*
X58576319Y-55487655I837345J-751317D01*
G01*
X58576319Y-55487655D01*
G75*
G02*
X58662347Y-57076317I-751317J-837345D01*
G01*
X57352345Y-58536317D01*
G75*
G02*
X55763683Y-58622345I-837345J751317D01*
G01*
G37*
D14*
X60325000Y-60325000D03*
D13*
X57825000Y-56325000D03*
D15*
X55245000Y-60325000D03*
X65405000Y-60325000D03*
%TD*%
%TO.C,MX10*%
G36*
G01*
X62748483Y-37897395D02*
X62747597Y-37897334D01*
G75*
G02*
X61702666Y-36697597I77403J1122334D01*
G01*
X61742666Y-36117597D01*
G75*
G02*
X62942403Y-35072666I1122334J-77403D01*
G01*
X62942403Y-35072666D01*
G75*
G02*
X63987334Y-36272403I-77403J-1122334D01*
G01*
X63947334Y-36852403D01*
G75*
G02*
X62747597Y-37897334I-1122334J77403D01*
G01*
G37*
D13*
X62865000Y-36195000D03*
G36*
G01*
X55763688Y-39572350D02*
X55763683Y-39572345D01*
G75*
G02*
X55677655Y-37983683I751317J837345D01*
G01*
X56987657Y-36523683D01*
G75*
G02*
X58576319Y-36437655I837345J-751317D01*
G01*
X58576319Y-36437655D01*
G75*
G02*
X58662347Y-38026317I-751317J-837345D01*
G01*
X57352345Y-39486317D01*
G75*
G02*
X55763683Y-39572345I-837345J751317D01*
G01*
G37*
D14*
X60325000Y-41275000D03*
D13*
X57825000Y-37275000D03*
D15*
X55245000Y-41275000D03*
X65405000Y-41275000D03*
%TD*%
%TO.C,MX9*%
G36*
G01*
X62748483Y-18847395D02*
X62747597Y-18847334D01*
G75*
G02*
X61702666Y-17647597I77403J1122334D01*
G01*
X61742666Y-17067597D01*
G75*
G02*
X62942403Y-16022666I1122334J-77403D01*
G01*
X62942403Y-16022666D01*
G75*
G02*
X63987334Y-17222403I-77403J-1122334D01*
G01*
X63947334Y-17802403D01*
G75*
G02*
X62747597Y-18847334I-1122334J77403D01*
G01*
G37*
D13*
X62865000Y-17145000D03*
G36*
G01*
X55763688Y-20522350D02*
X55763683Y-20522345D01*
G75*
G02*
X55677655Y-18933683I751317J837345D01*
G01*
X56987657Y-17473683D01*
G75*
G02*
X58576319Y-17387655I837345J-751317D01*
G01*
X58576319Y-17387655D01*
G75*
G02*
X58662347Y-18976317I-751317J-837345D01*
G01*
X57352345Y-20436317D01*
G75*
G02*
X55763683Y-20522345I-837345J751317D01*
G01*
G37*
D14*
X60325000Y-22225000D03*
D13*
X57825000Y-18225000D03*
D15*
X55245000Y-22225000D03*
X65405000Y-22225000D03*
%TD*%
%TO.C,MX8*%
G36*
G01*
X43698483Y-75997395D02*
X43697597Y-75997334D01*
G75*
G02*
X42652666Y-74797597I77403J1122334D01*
G01*
X42692666Y-74217597D01*
G75*
G02*
X43892403Y-73172666I1122334J-77403D01*
G01*
X43892403Y-73172666D01*
G75*
G02*
X44937334Y-74372403I-77403J-1122334D01*
G01*
X44897334Y-74952403D01*
G75*
G02*
X43697597Y-75997334I-1122334J77403D01*
G01*
G37*
D13*
X43815000Y-74295000D03*
G36*
G01*
X36713688Y-77672350D02*
X36713683Y-77672345D01*
G75*
G02*
X36627655Y-76083683I751317J837345D01*
G01*
X37937657Y-74623683D01*
G75*
G02*
X39526319Y-74537655I837345J-751317D01*
G01*
X39526319Y-74537655D01*
G75*
G02*
X39612347Y-76126317I-751317J-837345D01*
G01*
X38302345Y-77586317D01*
G75*
G02*
X36713683Y-77672345I-837345J751317D01*
G01*
G37*
D14*
X41275000Y-79375000D03*
D13*
X38775000Y-75375000D03*
D15*
X36195000Y-79375000D03*
X46355000Y-79375000D03*
%TD*%
%TO.C,MX7*%
G36*
G01*
X43698483Y-56947395D02*
X43697597Y-56947334D01*
G75*
G02*
X42652666Y-55747597I77403J1122334D01*
G01*
X42692666Y-55167597D01*
G75*
G02*
X43892403Y-54122666I1122334J-77403D01*
G01*
X43892403Y-54122666D01*
G75*
G02*
X44937334Y-55322403I-77403J-1122334D01*
G01*
X44897334Y-55902403D01*
G75*
G02*
X43697597Y-56947334I-1122334J77403D01*
G01*
G37*
D13*
X43815000Y-55245000D03*
G36*
G01*
X36713688Y-58622350D02*
X36713683Y-58622345D01*
G75*
G02*
X36627655Y-57033683I751317J837345D01*
G01*
X37937657Y-55573683D01*
G75*
G02*
X39526319Y-55487655I837345J-751317D01*
G01*
X39526319Y-55487655D01*
G75*
G02*
X39612347Y-57076317I-751317J-837345D01*
G01*
X38302345Y-58536317D01*
G75*
G02*
X36713683Y-58622345I-837345J751317D01*
G01*
G37*
D14*
X41275000Y-60325000D03*
D13*
X38775000Y-56325000D03*
D15*
X36195000Y-60325000D03*
X46355000Y-60325000D03*
%TD*%
%TO.C,MX6*%
G36*
G01*
X43698483Y-37897395D02*
X43697597Y-37897334D01*
G75*
G02*
X42652666Y-36697597I77403J1122334D01*
G01*
X42692666Y-36117597D01*
G75*
G02*
X43892403Y-35072666I1122334J-77403D01*
G01*
X43892403Y-35072666D01*
G75*
G02*
X44937334Y-36272403I-77403J-1122334D01*
G01*
X44897334Y-36852403D01*
G75*
G02*
X43697597Y-37897334I-1122334J77403D01*
G01*
G37*
D13*
X43815000Y-36195000D03*
G36*
G01*
X36713688Y-39572350D02*
X36713683Y-39572345D01*
G75*
G02*
X36627655Y-37983683I751317J837345D01*
G01*
X37937657Y-36523683D01*
G75*
G02*
X39526319Y-36437655I837345J-751317D01*
G01*
X39526319Y-36437655D01*
G75*
G02*
X39612347Y-38026317I-751317J-837345D01*
G01*
X38302345Y-39486317D01*
G75*
G02*
X36713683Y-39572345I-837345J751317D01*
G01*
G37*
D14*
X41275000Y-41275000D03*
D13*
X38775000Y-37275000D03*
D15*
X36195000Y-41275000D03*
X46355000Y-41275000D03*
%TD*%
%TO.C,MX5*%
G36*
G01*
X43698483Y-18847395D02*
X43697597Y-18847334D01*
G75*
G02*
X42652666Y-17647597I77403J1122334D01*
G01*
X42692666Y-17067597D01*
G75*
G02*
X43892403Y-16022666I1122334J-77403D01*
G01*
X43892403Y-16022666D01*
G75*
G02*
X44937334Y-17222403I-77403J-1122334D01*
G01*
X44897334Y-17802403D01*
G75*
G02*
X43697597Y-18847334I-1122334J77403D01*
G01*
G37*
D13*
X43815000Y-17145000D03*
G36*
G01*
X36713688Y-20522350D02*
X36713683Y-20522345D01*
G75*
G02*
X36627655Y-18933683I751317J837345D01*
G01*
X37937657Y-17473683D01*
G75*
G02*
X39526319Y-17387655I837345J-751317D01*
G01*
X39526319Y-17387655D01*
G75*
G02*
X39612347Y-18976317I-751317J-837345D01*
G01*
X38302345Y-20436317D01*
G75*
G02*
X36713683Y-20522345I-837345J751317D01*
G01*
G37*
D14*
X41275000Y-22225000D03*
D13*
X38775000Y-18225000D03*
D15*
X36195000Y-22225000D03*
X46355000Y-22225000D03*
%TD*%
%TO.C,MX4*%
G36*
G01*
X24648483Y-75997395D02*
X24647597Y-75997334D01*
G75*
G02*
X23602666Y-74797597I77403J1122334D01*
G01*
X23642666Y-74217597D01*
G75*
G02*
X24842403Y-73172666I1122334J-77403D01*
G01*
X24842403Y-73172666D01*
G75*
G02*
X25887334Y-74372403I-77403J-1122334D01*
G01*
X25847334Y-74952403D01*
G75*
G02*
X24647597Y-75997334I-1122334J77403D01*
G01*
G37*
D13*
X24765000Y-74295000D03*
G36*
G01*
X17663688Y-77672350D02*
X17663683Y-77672345D01*
G75*
G02*
X17577655Y-76083683I751317J837345D01*
G01*
X18887657Y-74623683D01*
G75*
G02*
X20476319Y-74537655I837345J-751317D01*
G01*
X20476319Y-74537655D01*
G75*
G02*
X20562347Y-76126317I-751317J-837345D01*
G01*
X19252345Y-77586317D01*
G75*
G02*
X17663683Y-77672345I-837345J751317D01*
G01*
G37*
D14*
X22225000Y-79375000D03*
D13*
X19725000Y-75375000D03*
D15*
X17145000Y-79375000D03*
X27305000Y-79375000D03*
%TD*%
%TO.C,MX3*%
G36*
G01*
X24648483Y-56947395D02*
X24647597Y-56947334D01*
G75*
G02*
X23602666Y-55747597I77403J1122334D01*
G01*
X23642666Y-55167597D01*
G75*
G02*
X24842403Y-54122666I1122334J-77403D01*
G01*
X24842403Y-54122666D01*
G75*
G02*
X25887334Y-55322403I-77403J-1122334D01*
G01*
X25847334Y-55902403D01*
G75*
G02*
X24647597Y-56947334I-1122334J77403D01*
G01*
G37*
D13*
X24765000Y-55245000D03*
G36*
G01*
X17663688Y-58622350D02*
X17663683Y-58622345D01*
G75*
G02*
X17577655Y-57033683I751317J837345D01*
G01*
X18887657Y-55573683D01*
G75*
G02*
X20476319Y-55487655I837345J-751317D01*
G01*
X20476319Y-55487655D01*
G75*
G02*
X20562347Y-57076317I-751317J-837345D01*
G01*
X19252345Y-58536317D01*
G75*
G02*
X17663683Y-58622345I-837345J751317D01*
G01*
G37*
D14*
X22225000Y-60325000D03*
D13*
X19725000Y-56325000D03*
D15*
X17145000Y-60325000D03*
X27305000Y-60325000D03*
%TD*%
%TO.C,MX2*%
G36*
G01*
X24648483Y-37897395D02*
X24647597Y-37897334D01*
G75*
G02*
X23602666Y-36697597I77403J1122334D01*
G01*
X23642666Y-36117597D01*
G75*
G02*
X24842403Y-35072666I1122334J-77403D01*
G01*
X24842403Y-35072666D01*
G75*
G02*
X25887334Y-36272403I-77403J-1122334D01*
G01*
X25847334Y-36852403D01*
G75*
G02*
X24647597Y-37897334I-1122334J77403D01*
G01*
G37*
D13*
X24765000Y-36195000D03*
G36*
G01*
X17663688Y-39572350D02*
X17663683Y-39572345D01*
G75*
G02*
X17577655Y-37983683I751317J837345D01*
G01*
X18887657Y-36523683D01*
G75*
G02*
X20476319Y-36437655I837345J-751317D01*
G01*
X20476319Y-36437655D01*
G75*
G02*
X20562347Y-38026317I-751317J-837345D01*
G01*
X19252345Y-39486317D01*
G75*
G02*
X17663683Y-39572345I-837345J751317D01*
G01*
G37*
D14*
X22225000Y-41275000D03*
D13*
X19725000Y-37275000D03*
D15*
X17145000Y-41275000D03*
X27305000Y-41275000D03*
%TD*%
%TO.C,MX1*%
G36*
G01*
X24648483Y-18847395D02*
X24647597Y-18847334D01*
G75*
G02*
X23602666Y-17647597I77403J1122334D01*
G01*
X23642666Y-17067597D01*
G75*
G02*
X24842403Y-16022666I1122334J-77403D01*
G01*
X24842403Y-16022666D01*
G75*
G02*
X25887334Y-17222403I-77403J-1122334D01*
G01*
X25847334Y-17802403D01*
G75*
G02*
X24647597Y-18847334I-1122334J77403D01*
G01*
G37*
D13*
X24765000Y-17145000D03*
G36*
G01*
X17663688Y-20522350D02*
X17663683Y-20522345D01*
G75*
G02*
X17577655Y-18933683I751317J837345D01*
G01*
X18887657Y-17473683D01*
G75*
G02*
X20476319Y-17387655I837345J-751317D01*
G01*
X20476319Y-17387655D01*
G75*
G02*
X20562347Y-18976317I-751317J-837345D01*
G01*
X19252345Y-20436317D01*
G75*
G02*
X17663683Y-20522345I-837345J751317D01*
G01*
G37*
D14*
X22225000Y-22225000D03*
D13*
X19725000Y-18225000D03*
D15*
X17145000Y-22225000D03*
X27305000Y-22225000D03*
%TD*%
D10*
%TO.C,D45*%
X201612500Y-64225000D03*
D11*
X201612500Y-56425000D03*
D12*
X201612500Y-61725000D03*
X201612500Y-58925000D03*
%TD*%
D10*
%TO.C,D44*%
X201612500Y-45175000D03*
D11*
X201612500Y-37375000D03*
D12*
X201612500Y-42675000D03*
X201612500Y-39875000D03*
%TD*%
D10*
%TO.C,D43*%
X201612500Y-26125000D03*
D11*
X201612500Y-18325000D03*
D12*
X201612500Y-23625000D03*
X201612500Y-20825000D03*
%TD*%
D10*
%TO.C,D42*%
X182562500Y-83275000D03*
D11*
X182562500Y-75475000D03*
D12*
X182562500Y-80775000D03*
X182562500Y-77975000D03*
%TD*%
D10*
%TO.C,D41*%
X182562500Y-64225000D03*
D11*
X182562500Y-56425000D03*
D12*
X182562500Y-61725000D03*
X182562500Y-58925000D03*
%TD*%
D10*
%TO.C,D40*%
X182562500Y-45175000D03*
D11*
X182562500Y-37375000D03*
D12*
X182562500Y-42675000D03*
X182562500Y-39875000D03*
%TD*%
D10*
%TO.C,D39*%
X182562500Y-26125000D03*
D11*
X182562500Y-18325000D03*
D12*
X182562500Y-23625000D03*
X182562500Y-20825000D03*
%TD*%
D10*
%TO.C,D38*%
X173037500Y-102325000D03*
D11*
X173037500Y-94525000D03*
D12*
X173037500Y-99825000D03*
X173037500Y-97025000D03*
%TD*%
D10*
%TO.C,D37*%
X163512500Y-83275000D03*
D11*
X163512500Y-75475000D03*
D12*
X163512500Y-80775000D03*
X163512500Y-77975000D03*
%TD*%
D10*
%TO.C,D36*%
X163512500Y-64225000D03*
D11*
X163512500Y-56425000D03*
D12*
X163512500Y-61725000D03*
X163512500Y-58925000D03*
%TD*%
D10*
%TO.C,D35*%
X163512500Y-45175000D03*
D11*
X163512500Y-37375000D03*
D12*
X163512500Y-42675000D03*
X163512500Y-39875000D03*
%TD*%
D10*
%TO.C,D34*%
X163512500Y-26125000D03*
D11*
X163512500Y-18325000D03*
D12*
X163512500Y-23625000D03*
X163512500Y-20825000D03*
%TD*%
D10*
%TO.C,D33*%
X153987500Y-102325000D03*
D11*
X153987500Y-94525000D03*
D12*
X153987500Y-99825000D03*
X153987500Y-97025000D03*
%TD*%
D10*
%TO.C,D32*%
X144462500Y-83275000D03*
D11*
X144462500Y-75475000D03*
D12*
X144462500Y-80775000D03*
X144462500Y-77975000D03*
%TD*%
D10*
%TO.C,D31*%
X144462500Y-64225000D03*
D11*
X144462500Y-56425000D03*
D12*
X144462500Y-61725000D03*
X144462500Y-58925000D03*
%TD*%
D10*
%TO.C,D30*%
X144462500Y-45175000D03*
D11*
X144462500Y-37375000D03*
D12*
X144462500Y-42675000D03*
X144462500Y-39875000D03*
%TD*%
D10*
%TO.C,D29*%
X144462500Y-26125000D03*
D11*
X144462500Y-18325000D03*
D12*
X144462500Y-23625000D03*
X144462500Y-20825000D03*
%TD*%
D10*
%TO.C,D28*%
X130175000Y-102325000D03*
D11*
X130175000Y-94525000D03*
D12*
X130175000Y-99825000D03*
X130175000Y-97025000D03*
%TD*%
D10*
%TO.C,D27*%
X125412500Y-83275000D03*
D11*
X125412500Y-75475000D03*
D12*
X125412500Y-80775000D03*
X125412500Y-77975000D03*
%TD*%
D10*
%TO.C,D26*%
X125412500Y-64225000D03*
D11*
X125412500Y-56425000D03*
D12*
X125412500Y-61725000D03*
X125412500Y-58925000D03*
%TD*%
D10*
%TO.C,D25*%
X114368750Y-49212500D03*
D11*
X122168750Y-49212500D03*
D18*
X116868750Y-49212500D03*
X119668750Y-49212500D03*
%TD*%
D10*
%TO.C,D24*%
X114368750Y-30162500D03*
D11*
X122168750Y-30162500D03*
D18*
X116868750Y-30162500D03*
X119668750Y-30162500D03*
%TD*%
D10*
%TO.C,D23*%
X101600000Y-102325000D03*
D11*
X101600000Y-94525000D03*
D12*
X101600000Y-99825000D03*
X101600000Y-97025000D03*
%TD*%
D10*
%TO.C,D22*%
X106362500Y-83275000D03*
D11*
X106362500Y-75475000D03*
D12*
X106362500Y-80775000D03*
X106362500Y-77975000D03*
%TD*%
D10*
%TO.C,D21*%
X106362500Y-64225000D03*
D11*
X106362500Y-56425000D03*
D12*
X106362500Y-61725000D03*
X106362500Y-58925000D03*
%TD*%
D10*
%TO.C,D20*%
X94525000Y-49212500D03*
D11*
X102325000Y-49212500D03*
D18*
X97025000Y-49212500D03*
X99825000Y-49212500D03*
%TD*%
D10*
%TO.C,D19*%
X106362500Y-26125000D03*
D11*
X106362500Y-18325000D03*
D12*
X106362500Y-23625000D03*
X106362500Y-20825000D03*
%TD*%
D10*
%TO.C,D18*%
X77787500Y-102325000D03*
D11*
X77787500Y-94525000D03*
D12*
X77787500Y-99825000D03*
X77787500Y-97025000D03*
%TD*%
D10*
%TO.C,D17*%
X87312500Y-83275000D03*
D11*
X87312500Y-75475000D03*
D12*
X87312500Y-80775000D03*
X87312500Y-77975000D03*
%TD*%
D10*
%TO.C,D16*%
X87312500Y-64225000D03*
D11*
X87312500Y-56425000D03*
D12*
X87312500Y-61725000D03*
X87312500Y-58925000D03*
%TD*%
D10*
%TO.C,D15*%
X87312500Y-45175000D03*
D11*
X87312500Y-37375000D03*
D12*
X87312500Y-42675000D03*
X87312500Y-39875000D03*
%TD*%
D10*
%TO.C,D14*%
X87312500Y-26125000D03*
D11*
X87312500Y-18325000D03*
D12*
X87312500Y-23625000D03*
X87312500Y-20825000D03*
%TD*%
D10*
%TO.C,D13*%
X58737500Y-102325000D03*
D11*
X58737500Y-94525000D03*
D12*
X58737500Y-99825000D03*
X58737500Y-97025000D03*
%TD*%
D10*
%TO.C,D12*%
X68262500Y-83275000D03*
D11*
X68262500Y-75475000D03*
D12*
X68262500Y-80775000D03*
X68262500Y-77975000D03*
%TD*%
D10*
%TO.C,D11*%
X68262500Y-64225000D03*
D11*
X68262500Y-56425000D03*
D12*
X68262500Y-61725000D03*
X68262500Y-58925000D03*
%TD*%
D10*
%TO.C,D10*%
X68262500Y-45175000D03*
D11*
X68262500Y-37375000D03*
D12*
X68262500Y-42675000D03*
X68262500Y-39875000D03*
%TD*%
D10*
%TO.C,D9*%
X68262500Y-26125000D03*
D11*
X68262500Y-18325000D03*
D12*
X68262500Y-23625000D03*
X68262500Y-20825000D03*
%TD*%
D10*
%TO.C,D8*%
X49212500Y-83275000D03*
D11*
X49212500Y-75475000D03*
D12*
X49212500Y-80775000D03*
X49212500Y-77975000D03*
%TD*%
D10*
%TO.C,D7*%
X49212500Y-64225000D03*
D11*
X49212500Y-56425000D03*
D12*
X49212500Y-61725000D03*
X49212500Y-58925000D03*
%TD*%
D10*
%TO.C,D6*%
X49212500Y-45175000D03*
D11*
X49212500Y-37375000D03*
D12*
X49212500Y-42675000D03*
X49212500Y-39875000D03*
%TD*%
D10*
%TO.C,D5*%
X49212500Y-26125000D03*
D11*
X49212500Y-18325000D03*
D12*
X49212500Y-23625000D03*
X49212500Y-20825000D03*
%TD*%
D10*
%TO.C,D4*%
X30162500Y-83275000D03*
D11*
X30162500Y-75475000D03*
D12*
X30162500Y-80775000D03*
X30162500Y-77975000D03*
%TD*%
D10*
%TO.C,D3*%
X30162500Y-64225000D03*
D11*
X30162500Y-56425000D03*
D12*
X30162500Y-61725000D03*
X30162500Y-58925000D03*
%TD*%
D10*
%TO.C,D2*%
X30162500Y-45175000D03*
D11*
X30162500Y-37375000D03*
D12*
X30162500Y-42675000D03*
X30162500Y-39875000D03*
%TD*%
D10*
%TO.C,D1*%
X30162500Y-26125000D03*
D11*
X30162500Y-18325000D03*
D12*
X30162500Y-23625000D03*
X30162500Y-20825000D03*
%TD*%
M02*
