M48
; DRILL file {KiCad (5.1.12)-1} date 01/01/22 13:19:26
; FORMAT={-:-/ absolute / inch / decimal}
; #@! TF.CreationDate,2022-01-01T13:19:26-05:00
; #@! TF.GenerationSoftware,Kicad,Pcbnew,(5.1.12)-1
; #@! TF.FileFunction,Plated,1,2,PTH
FMAT,2
INCH
T1C0.0394
T2C0.0430
T3C0.0579
%
G90
G05
T1
X1.1875Y-0.7215
X1.1875Y-1.0285
X1.1875Y-1.4715
X1.1875Y-1.7785
X1.1875Y-2.2215
X1.1875Y-2.5285
X1.1875Y-2.9715
X1.1875Y-3.2785
X1.9375Y-0.7215
X1.9375Y-1.0285
X1.9375Y-1.4715
X1.9375Y-1.7785
X1.9375Y-2.2215
X1.9375Y-2.5285
X1.9375Y-2.9715
X1.9375Y-3.2785
X2.3125Y-3.7215
X2.3125Y-4.0285
X2.6875Y-0.7215
X2.6875Y-1.0285
X2.6875Y-1.4715
X2.6875Y-1.7785
X2.6875Y-2.2215
X2.6875Y-2.5285
X2.6875Y-2.9715
X2.6875Y-3.2785
X3.0625Y-3.7215
X3.0625Y-4.0285
X3.4375Y-0.7215
X3.4375Y-1.0285
X3.4375Y-1.4715
X3.4375Y-1.7785
X3.4375Y-2.2215
X3.4375Y-2.5285
X3.4375Y-2.9715
X3.4375Y-3.2785
X3.7215Y-1.9375
X4.0Y-3.7215
X4.0Y-4.0285
X4.0285Y-1.9375
X4.1875Y-0.7215
X4.1875Y-1.0285
X4.1875Y-2.2215
X4.1875Y-2.5285
X4.1875Y-2.9715
X4.1875Y-3.2785
X4.5027Y-1.1875
X4.5027Y-1.9375
X4.8098Y-1.1875
X4.8098Y-1.9375
X4.9375Y-2.2215
X4.9375Y-2.5285
X4.9375Y-2.9715
X4.9375Y-3.2785
X5.125Y-3.7215
X5.125Y-4.0285
X5.6875Y-0.7215
X5.6875Y-1.0285
X5.6875Y-1.4715
X5.6875Y-1.7785
X5.6875Y-2.2215
X5.6875Y-2.5285
X5.6875Y-2.9715
X5.6875Y-3.2785
X6.0625Y-3.7215
X6.0625Y-4.0285
X6.4375Y-0.7215
X6.4375Y-1.0285
X6.4375Y-1.4715
X6.4375Y-1.7785
X6.4375Y-2.2215
X6.4375Y-2.5285
X6.4375Y-2.9715
X6.4375Y-3.2785
X6.8125Y-3.7215
X6.8125Y-4.0285
X7.1875Y-0.7215
X7.1875Y-1.0285
X7.1875Y-1.4715
X7.1875Y-1.7785
X7.1875Y-2.2215
X7.1875Y-2.5285
X7.1875Y-2.9715
X7.1875Y-3.2785
X7.9375Y-0.7215
X7.9375Y-1.0285
X7.9375Y-1.4715
X7.9375Y-1.7785
X7.9375Y-2.2215
X7.9375Y-2.5285
X7.9375Y-2.9715
X7.9375Y-3.2785
T2
X4.316Y-0.6687
X4.316Y-0.8688
X4.316Y-1.0687
X4.316Y-1.2688
X4.316Y-1.4688
X4.316Y-1.6687
X4.334Y-0.7687
X4.334Y-0.9688
X4.334Y-1.1687
X4.334Y-1.3687
X4.334Y-1.5687
X4.334Y-1.7688
X4.916Y-0.7687
X4.916Y-0.9688
X4.916Y-1.1687
X4.916Y-1.3687
X4.916Y-1.5687
X4.916Y-1.7688
X4.934Y-0.6687
X4.934Y-0.8688
X4.934Y-1.0687
X4.934Y-1.2688
X4.934Y-1.4688
X4.934Y-1.6687
T3
X0.725Y-0.775
X0.725Y-1.525
X0.725Y-2.275
X0.725Y-3.025
X0.7766Y-0.7175
X0.7766Y-1.4675
X0.7766Y-2.2175
X0.7766Y-2.9675
X0.9734Y-0.6978
X0.9734Y-1.4478
X0.9734Y-2.1978
X0.9734Y-2.9478
X0.975Y-0.675
X0.975Y-1.425
X0.975Y-2.175
X0.975Y-2.925
X1.475Y-0.775
X1.475Y-1.525
X1.475Y-2.275
X1.475Y-3.025
X1.5266Y-0.7175
X1.5266Y-1.4675
X1.5266Y-2.2175
X1.5266Y-2.9675
X1.7234Y-0.6978
X1.7234Y-1.4478
X1.7234Y-2.1978
X1.7234Y-2.9478
X1.725Y-0.675
X1.725Y-1.425
X1.725Y-2.175
X1.725Y-2.925
X1.85Y-3.775
X1.9016Y-3.7175
X2.0984Y-3.6978
X2.1Y-3.675
X2.225Y-0.775
X2.225Y-1.525
X2.225Y-2.275
X2.225Y-3.025
X2.2766Y-0.7175
X2.2766Y-1.4675
X2.2766Y-2.2175
X2.2766Y-2.9675
X2.4734Y-0.6978
X2.4734Y-1.4478
X2.4734Y-2.1978
X2.4734Y-2.9478
X2.475Y-0.675
X2.475Y-1.425
X2.475Y-2.175
X2.475Y-2.925
X2.6Y-3.775
X2.6516Y-3.7175
X2.8484Y-3.6978
X2.85Y-3.675
X2.975Y-0.775
X2.975Y-1.525
X2.975Y-2.275
X2.975Y-3.025
X3.0266Y-0.7175
X3.0266Y-1.4675
X3.0266Y-2.2175
X3.0266Y-2.9675
X3.2234Y-0.6978
X3.2234Y-1.4478
X3.2234Y-2.1978
X3.2234Y-2.9478
X3.225Y-0.675
X3.225Y-1.425
X3.225Y-2.175
X3.225Y-2.925
X3.5375Y-3.775
X3.5891Y-3.7175
X3.725Y-0.775
X3.725Y-1.525
X3.725Y-2.275
X3.725Y-3.025
X3.7766Y-0.7175
X3.7766Y-1.4675
X3.7766Y-2.2175
X3.7766Y-2.9675
X3.7859Y-3.6978
X3.7875Y-3.675
X3.9734Y-0.6978
X3.9734Y-1.4478
X3.9734Y-2.1978
X3.9734Y-2.9478
X3.975Y-0.675
X3.975Y-1.425
X3.975Y-2.175
X3.975Y-2.925
X4.475Y-0.775
X4.475Y-1.525
X4.475Y-2.275
X4.475Y-3.025
X4.5266Y-0.7175
X4.5266Y-1.4675
X4.5266Y-2.2175
X4.5266Y-2.9675
X4.6625Y-3.775
X4.7141Y-3.7175
X4.7234Y-0.6978
X4.7234Y-1.4478
X4.7234Y-2.1978
X4.7234Y-2.9478
X4.725Y-0.675
X4.725Y-1.425
X4.725Y-2.175
X4.725Y-2.925
X4.9109Y-3.6978
X4.9125Y-3.675
X5.225Y-0.775
X5.225Y-1.525
X5.225Y-2.275
X5.225Y-3.025
X5.2766Y-0.7175
X5.2766Y-1.4675
X5.2766Y-2.2175
X5.2766Y-2.9675
X5.4734Y-0.6978
X5.4734Y-1.4478
X5.4734Y-2.1978
X5.4734Y-2.9478
X5.475Y-0.675
X5.475Y-1.425
X5.475Y-2.175
X5.475Y-2.925
X5.6Y-3.775
X5.6516Y-3.7175
X5.8484Y-3.6978
X5.85Y-3.675
X5.975Y-0.775
X5.975Y-1.525
X5.975Y-2.275
X5.975Y-3.025
X6.0266Y-0.7175
X6.0266Y-1.4675
X6.0266Y-2.2175
X6.0266Y-2.9675
X6.2234Y-0.6978
X6.2234Y-1.4478
X6.2234Y-2.1978
X6.2234Y-2.9478
X6.225Y-0.675
X6.225Y-1.425
X6.225Y-2.175
X6.225Y-2.925
X6.35Y-3.775
X6.4016Y-3.7175
X6.5984Y-3.6978
X6.6Y-3.675
X6.725Y-0.775
X6.725Y-1.525
X6.725Y-2.275
X6.725Y-3.025
X6.7766Y-0.7175
X6.7766Y-1.4675
X6.7766Y-2.2175
X6.7766Y-2.9675
X6.9734Y-0.6978
X6.9734Y-1.4478
X6.9734Y-2.1978
X6.9734Y-2.9478
X6.975Y-0.675
X6.975Y-1.425
X6.975Y-2.175
X6.975Y-2.925
X7.475Y-0.775
X7.475Y-1.525
X7.475Y-2.275
X7.475Y-3.025
X7.5266Y-0.7175
X7.5266Y-1.4675
X7.5266Y-2.2175
X7.5266Y-2.9675
X7.7234Y-0.6978
X7.7234Y-1.4478
X7.7234Y-2.1978
X7.7234Y-2.9478
X7.725Y-0.675
X7.725Y-1.425
X7.725Y-2.175
X7.725Y-2.925
T0
M30
