%TF.GenerationSoftware,KiCad,Pcbnew,(5.1.12)-1*%
%TF.CreationDate,2022-01-07T17:35:06-05:00*%
%TF.ProjectId,center-gasket-2,63656e74-6572-42d6-9761-736b65742d32,rev?*%
%TF.SameCoordinates,Original*%
%TF.FileFunction,Copper,L1,Top*%
%TF.FilePolarity,Positive*%
%FSLAX46Y46*%
G04 Gerber Fmt 4.6, Leading zero omitted, Abs format (unit mm)*
G04 Created by KiCad (PCBNEW (5.1.12)-1) date 2022-01-07 17:35:06*
%MOMM*%
%LPD*%
G01*
G04 APERTURE LIST*
%TA.AperFunction,SMDPad,CuDef*%
%ADD10R,1.800000X1.100000*%
%TD*%
%TA.AperFunction,ComponentPad*%
%ADD11C,2.250000*%
%TD*%
%TA.AperFunction,ComponentPad*%
%ADD12C,1.752600*%
%TD*%
%TA.AperFunction,ComponentPad*%
%ADD13R,1.752600X1.752600*%
%TD*%
%TA.AperFunction,ComponentPad*%
%ADD14R,1.600000X1.600000*%
%TD*%
%TA.AperFunction,ComponentPad*%
%ADD15C,1.600000*%
%TD*%
%TA.AperFunction,Conductor*%
%ADD16C,0.254000*%
%TD*%
G04 APERTURE END LIST*
D10*
%TO.P,SW1,4*%
%TO.N,N/C*%
X115018750Y-114831250D03*
%TO.P,SW1,3*%
X108818750Y-118531250D03*
%TO.P,SW1,2*%
%TO.N,GND*%
X115018750Y-118531250D03*
%TO.P,SW1,1*%
%TO.N,Net-(SW1-Pad1)*%
X108818750Y-114831250D03*
%TD*%
%TO.P,MX38,2*%
%TO.N,Net-(D38-Pad2)*%
%TA.AperFunction,ComponentPad*%
G36*
G01*
X90529733Y-113303645D02*
X90528847Y-113303584D01*
G75*
G02*
X89483916Y-112103847I77403J1122334D01*
G01*
X89523916Y-111523847D01*
G75*
G02*
X90723653Y-110478916I1122334J-77403D01*
G01*
X90723653Y-110478916D01*
G75*
G02*
X91768584Y-111678653I-77403J-1122334D01*
G01*
X91728584Y-112258653D01*
G75*
G02*
X90528847Y-113303584I-1122334J77403D01*
G01*
G37*
%TD.AperFunction*%
D11*
X90646250Y-111601250D03*
%TO.P,MX38,1*%
%TO.N,COL7*%
%TA.AperFunction,ComponentPad*%
G36*
G01*
X83544938Y-114978600D02*
X83544933Y-114978595D01*
G75*
G02*
X83458905Y-113389933I751317J837345D01*
G01*
X84768907Y-111929933D01*
G75*
G02*
X86357569Y-111843905I837345J-751317D01*
G01*
X86357569Y-111843905D01*
G75*
G02*
X86443597Y-113432567I-751317J-837345D01*
G01*
X85133595Y-114892567D01*
G75*
G02*
X83544933Y-114978595I-837345J751317D01*
G01*
G37*
%TD.AperFunction*%
X85606250Y-112681250D03*
%TD*%
%TO.P,M2,5*%
%TO.N,COL4*%
%TA.AperFunction,ComponentPad*%
G36*
G01*
X30968950Y-121215150D02*
X30968950Y-120338850D01*
G75*
G02*
X31407100Y-119900700I438150J0D01*
G01*
X32283400Y-119900700D01*
G75*
G02*
X32721550Y-120338850I0J-438150D01*
G01*
X32721550Y-121215150D01*
G75*
G02*
X32283400Y-121653300I-438150J0D01*
G01*
X31407100Y-121653300D01*
G75*
G02*
X30968950Y-121215150I0J438150D01*
G01*
G37*
%TD.AperFunction*%
%TO.P,M2,4*%
%TO.N,COL3*%
%TA.AperFunction,ComponentPad*%
G36*
G01*
X30968950Y-119183150D02*
X30968950Y-118306850D01*
G75*
G02*
X31407100Y-117868700I438150J0D01*
G01*
X32283400Y-117868700D01*
G75*
G02*
X32721550Y-118306850I0J-438150D01*
G01*
X32721550Y-119183150D01*
G75*
G02*
X32283400Y-119621300I-438150J0D01*
G01*
X31407100Y-119621300D01*
G75*
G02*
X30968950Y-119183150I0J438150D01*
G01*
G37*
%TD.AperFunction*%
%TO.P,M2,3*%
%TO.N,COL2*%
%TA.AperFunction,ComponentPad*%
G36*
G01*
X30968950Y-117151150D02*
X30968950Y-116274850D01*
G75*
G02*
X31407100Y-115836700I438150J0D01*
G01*
X32283400Y-115836700D01*
G75*
G02*
X32721550Y-116274850I0J-438150D01*
G01*
X32721550Y-117151150D01*
G75*
G02*
X32283400Y-117589300I-438150J0D01*
G01*
X31407100Y-117589300D01*
G75*
G02*
X30968950Y-117151150I0J438150D01*
G01*
G37*
%TD.AperFunction*%
%TO.P,M2,2*%
%TO.N,COL1*%
%TA.AperFunction,ComponentPad*%
G36*
G01*
X30968950Y-115119150D02*
X30968950Y-114242850D01*
G75*
G02*
X31407100Y-113804700I438150J0D01*
G01*
X32283400Y-113804700D01*
G75*
G02*
X32721550Y-114242850I0J-438150D01*
G01*
X32721550Y-115119150D01*
G75*
G02*
X32283400Y-115557300I-438150J0D01*
G01*
X31407100Y-115557300D01*
G75*
G02*
X30968950Y-115119150I0J438150D01*
G01*
G37*
%TD.AperFunction*%
%TO.P,M2,1*%
%TO.N,COL0*%
%TA.AperFunction,ComponentPad*%
G36*
G01*
X30968950Y-113087150D02*
X30968950Y-112210850D01*
G75*
G02*
X31407100Y-111772700I438150J0D01*
G01*
X32283400Y-111772700D01*
G75*
G02*
X32721550Y-112210850I0J-438150D01*
G01*
X32721550Y-113087150D01*
G75*
G02*
X32283400Y-113525300I-438150J0D01*
G01*
X31407100Y-113525300D01*
G75*
G02*
X30968950Y-113087150I0J438150D01*
G01*
G37*
%TD.AperFunction*%
%TD*%
%TO.P,M1,1*%
%TO.N,ROW0*%
%TA.AperFunction,ComponentPad*%
G36*
G01*
X30968950Y-74987150D02*
X30968950Y-74110850D01*
G75*
G02*
X31407100Y-73672700I438150J0D01*
G01*
X32283400Y-73672700D01*
G75*
G02*
X32721550Y-74110850I0J-438150D01*
G01*
X32721550Y-74987150D01*
G75*
G02*
X32283400Y-75425300I-438150J0D01*
G01*
X31407100Y-75425300D01*
G75*
G02*
X30968950Y-74987150I0J438150D01*
G01*
G37*
%TD.AperFunction*%
%TO.P,M1,2*%
%TO.N,ROW1*%
%TA.AperFunction,ComponentPad*%
G36*
G01*
X30968950Y-77019150D02*
X30968950Y-76142850D01*
G75*
G02*
X31407100Y-75704700I438150J0D01*
G01*
X32283400Y-75704700D01*
G75*
G02*
X32721550Y-76142850I0J-438150D01*
G01*
X32721550Y-77019150D01*
G75*
G02*
X32283400Y-77457300I-438150J0D01*
G01*
X31407100Y-77457300D01*
G75*
G02*
X30968950Y-77019150I0J438150D01*
G01*
G37*
%TD.AperFunction*%
%TO.P,M1,3*%
%TO.N,ROW2*%
%TA.AperFunction,ComponentPad*%
G36*
G01*
X30968950Y-79051150D02*
X30968950Y-78174850D01*
G75*
G02*
X31407100Y-77736700I438150J0D01*
G01*
X32283400Y-77736700D01*
G75*
G02*
X32721550Y-78174850I0J-438150D01*
G01*
X32721550Y-79051150D01*
G75*
G02*
X32283400Y-79489300I-438150J0D01*
G01*
X31407100Y-79489300D01*
G75*
G02*
X30968950Y-79051150I0J438150D01*
G01*
G37*
%TD.AperFunction*%
%TO.P,M1,4*%
%TO.N,ROW3*%
%TA.AperFunction,ComponentPad*%
G36*
G01*
X30968950Y-81083150D02*
X30968950Y-80206850D01*
G75*
G02*
X31407100Y-79768700I438150J0D01*
G01*
X32283400Y-79768700D01*
G75*
G02*
X32721550Y-80206850I0J-438150D01*
G01*
X32721550Y-81083150D01*
G75*
G02*
X32283400Y-81521300I-438150J0D01*
G01*
X31407100Y-81521300D01*
G75*
G02*
X30968950Y-81083150I0J438150D01*
G01*
G37*
%TD.AperFunction*%
%TO.P,M1,5*%
%TO.N,ROW4*%
%TA.AperFunction,ComponentPad*%
G36*
G01*
X30968950Y-83115150D02*
X30968950Y-82238850D01*
G75*
G02*
X31407100Y-81800700I438150J0D01*
G01*
X32283400Y-81800700D01*
G75*
G02*
X32721550Y-82238850I0J-438150D01*
G01*
X32721550Y-83115150D01*
G75*
G02*
X32283400Y-83553300I-438150J0D01*
G01*
X31407100Y-83553300D01*
G75*
G02*
X30968950Y-83115150I0J438150D01*
G01*
G37*
%TD.AperFunction*%
%TD*%
D12*
%TO.P,U1,24*%
%TO.N,Net-(U1-Pad24)*%
X48329850Y-35242500D03*
%TO.P,U1,12*%
%TO.N,ROW2*%
X33089850Y-63182500D03*
%TO.P,U1,23*%
%TO.N,GND*%
X47872650Y-37782500D03*
%TO.P,U1,22*%
%TO.N,Net-(SW1-Pad1)*%
X48329850Y-40322500D03*
%TO.P,U1,21*%
%TO.N,VCC*%
X47872650Y-42862500D03*
%TO.P,U1,20*%
%TO.N,COL8*%
X48329850Y-45402500D03*
%TO.P,U1,19*%
%TO.N,COL7*%
X47872650Y-47942500D03*
%TO.P,U1,18*%
%TO.N,COL6*%
X48329850Y-50482500D03*
%TO.P,U1,17*%
%TO.N,COL4*%
X47872650Y-53022500D03*
%TO.P,U1,16*%
%TO.N,COL3*%
X48329850Y-55562500D03*
%TO.P,U1,15*%
%TO.N,COL2*%
X47872650Y-58102500D03*
%TO.P,U1,14*%
%TO.N,COL1*%
X48329850Y-60642500D03*
%TO.P,U1,13*%
%TO.N,COL0*%
X47872650Y-63182500D03*
%TO.P,U1,11*%
%TO.N,ROW3*%
X32632650Y-60642500D03*
%TO.P,U1,10*%
%TO.N,ROW4*%
X33089850Y-58102500D03*
%TO.P,U1,9*%
%TO.N,Net-(U1-Pad9)*%
X32632650Y-55562500D03*
%TO.P,U1,8*%
%TO.N,COL5*%
X33089850Y-53022500D03*
%TO.P,U1,7*%
%TO.N,ROW1*%
X32632650Y-50482500D03*
%TO.P,U1,6*%
%TO.N,ROW0*%
X33089850Y-47942500D03*
%TO.P,U1,5*%
%TO.N,COL9*%
X32632650Y-45402500D03*
%TO.P,U1,4*%
%TO.N,GND*%
X33089850Y-42862500D03*
%TO.P,U1,3*%
X32632650Y-40322500D03*
%TO.P,U1,2*%
%TO.N,Net-(U1-Pad2)*%
X33089850Y-37782500D03*
D13*
%TO.P,U1,1*%
%TO.N,Net-(U1-Pad1)*%
X32632650Y-35242500D03*
%TD*%
%TO.P,MX25,2*%
%TO.N,Net-(D25-Pad2)*%
%TA.AperFunction,ComponentPad*%
G36*
G01*
X42904733Y-56153645D02*
X42903847Y-56153584D01*
G75*
G02*
X41858916Y-54953847I77403J1122334D01*
G01*
X41898916Y-54373847D01*
G75*
G02*
X43098653Y-53328916I1122334J-77403D01*
G01*
X43098653Y-53328916D01*
G75*
G02*
X44143584Y-54528653I-77403J-1122334D01*
G01*
X44103584Y-55108653D01*
G75*
G02*
X42903847Y-56153584I-1122334J77403D01*
G01*
G37*
%TD.AperFunction*%
D11*
X43021250Y-54451250D03*
%TO.P,MX25,1*%
%TO.N,COL5*%
%TA.AperFunction,ComponentPad*%
G36*
G01*
X35919938Y-57828600D02*
X35919933Y-57828595D01*
G75*
G02*
X35833905Y-56239933I751317J837345D01*
G01*
X37143907Y-54779933D01*
G75*
G02*
X38732569Y-54693905I837345J-751317D01*
G01*
X38732569Y-54693905D01*
G75*
G02*
X38818597Y-56282567I-751317J-837345D01*
G01*
X37508595Y-57742567D01*
G75*
G02*
X35919933Y-57828595I-837345J751317D01*
G01*
G37*
%TD.AperFunction*%
X37981250Y-55531250D03*
%TD*%
%TO.P,MX28,2*%
%TO.N,Net-(D28-Pad2)*%
%TA.AperFunction,ComponentPad*%
G36*
G01*
X47667233Y-113303645D02*
X47666347Y-113303584D01*
G75*
G02*
X46621416Y-112103847I77403J1122334D01*
G01*
X46661416Y-111523847D01*
G75*
G02*
X47861153Y-110478916I1122334J-77403D01*
G01*
X47861153Y-110478916D01*
G75*
G02*
X48906084Y-111678653I-77403J-1122334D01*
G01*
X48866084Y-112258653D01*
G75*
G02*
X47666347Y-113303584I-1122334J77403D01*
G01*
G37*
%TD.AperFunction*%
X47783750Y-111601250D03*
%TO.P,MX28,1*%
%TO.N,COL5*%
%TA.AperFunction,ComponentPad*%
G36*
G01*
X40682438Y-114978600D02*
X40682433Y-114978595D01*
G75*
G02*
X40596405Y-113389933I751317J837345D01*
G01*
X41906407Y-111929933D01*
G75*
G02*
X43495069Y-111843905I837345J-751317D01*
G01*
X43495069Y-111843905D01*
G75*
G02*
X43581097Y-113432567I-751317J-837345D01*
G01*
X42271095Y-114892567D01*
G75*
G02*
X40682433Y-114978595I-837345J751317D01*
G01*
G37*
%TD.AperFunction*%
X42743750Y-112681250D03*
%TD*%
%TO.P,MX46,2*%
%TO.N,Net-(D46-Pad2)*%
%TA.AperFunction,ComponentPad*%
G36*
G01*
X119104733Y-94253645D02*
X119103847Y-94253584D01*
G75*
G02*
X118058916Y-93053847I77403J1122334D01*
G01*
X118098916Y-92473847D01*
G75*
G02*
X119298653Y-91428916I1122334J-77403D01*
G01*
X119298653Y-91428916D01*
G75*
G02*
X120343584Y-92628653I-77403J-1122334D01*
G01*
X120303584Y-93208653D01*
G75*
G02*
X119103847Y-94253584I-1122334J77403D01*
G01*
G37*
%TD.AperFunction*%
X119221250Y-92551250D03*
%TO.P,MX46,1*%
%TO.N,COL9*%
%TA.AperFunction,ComponentPad*%
G36*
G01*
X112119938Y-95928600D02*
X112119933Y-95928595D01*
G75*
G02*
X112033905Y-94339933I751317J837345D01*
G01*
X113343907Y-92879933D01*
G75*
G02*
X114932569Y-92793905I837345J-751317D01*
G01*
X114932569Y-92793905D01*
G75*
G02*
X115018597Y-94382567I-751317J-837345D01*
G01*
X113708595Y-95842567D01*
G75*
G02*
X112119933Y-95928595I-837345J751317D01*
G01*
G37*
%TD.AperFunction*%
X114181250Y-93631250D03*
%TD*%
%TO.P,MX45,2*%
%TO.N,Net-(D45-Pad2)*%
%TA.AperFunction,ComponentPad*%
G36*
G01*
X119104733Y-75203645D02*
X119103847Y-75203584D01*
G75*
G02*
X118058916Y-74003847I77403J1122334D01*
G01*
X118098916Y-73423847D01*
G75*
G02*
X119298653Y-72378916I1122334J-77403D01*
G01*
X119298653Y-72378916D01*
G75*
G02*
X120343584Y-73578653I-77403J-1122334D01*
G01*
X120303584Y-74158653D01*
G75*
G02*
X119103847Y-75203584I-1122334J77403D01*
G01*
G37*
%TD.AperFunction*%
X119221250Y-73501250D03*
%TO.P,MX45,1*%
%TO.N,COL9*%
%TA.AperFunction,ComponentPad*%
G36*
G01*
X112119938Y-76878600D02*
X112119933Y-76878595D01*
G75*
G02*
X112033905Y-75289933I751317J837345D01*
G01*
X113343907Y-73829933D01*
G75*
G02*
X114932569Y-73743905I837345J-751317D01*
G01*
X114932569Y-73743905D01*
G75*
G02*
X115018597Y-75332567I-751317J-837345D01*
G01*
X113708595Y-76792567D01*
G75*
G02*
X112119933Y-76878595I-837345J751317D01*
G01*
G37*
%TD.AperFunction*%
X114181250Y-74581250D03*
%TD*%
%TO.P,MX44,2*%
%TO.N,Net-(D44-Pad2)*%
%TA.AperFunction,ComponentPad*%
G36*
G01*
X119104733Y-56153645D02*
X119103847Y-56153584D01*
G75*
G02*
X118058916Y-54953847I77403J1122334D01*
G01*
X118098916Y-54373847D01*
G75*
G02*
X119298653Y-53328916I1122334J-77403D01*
G01*
X119298653Y-53328916D01*
G75*
G02*
X120343584Y-54528653I-77403J-1122334D01*
G01*
X120303584Y-55108653D01*
G75*
G02*
X119103847Y-56153584I-1122334J77403D01*
G01*
G37*
%TD.AperFunction*%
X119221250Y-54451250D03*
%TO.P,MX44,1*%
%TO.N,COL9*%
%TA.AperFunction,ComponentPad*%
G36*
G01*
X112119938Y-57828600D02*
X112119933Y-57828595D01*
G75*
G02*
X112033905Y-56239933I751317J837345D01*
G01*
X113343907Y-54779933D01*
G75*
G02*
X114932569Y-54693905I837345J-751317D01*
G01*
X114932569Y-54693905D01*
G75*
G02*
X115018597Y-56282567I-751317J-837345D01*
G01*
X113708595Y-57742567D01*
G75*
G02*
X112119933Y-57828595I-837345J751317D01*
G01*
G37*
%TD.AperFunction*%
X114181250Y-55531250D03*
%TD*%
%TO.P,MX43,2*%
%TO.N,Net-(D43-Pad2)*%
%TA.AperFunction,ComponentPad*%
G36*
G01*
X119104733Y-37103645D02*
X119103847Y-37103584D01*
G75*
G02*
X118058916Y-35903847I77403J1122334D01*
G01*
X118098916Y-35323847D01*
G75*
G02*
X119298653Y-34278916I1122334J-77403D01*
G01*
X119298653Y-34278916D01*
G75*
G02*
X120343584Y-35478653I-77403J-1122334D01*
G01*
X120303584Y-36058653D01*
G75*
G02*
X119103847Y-37103584I-1122334J77403D01*
G01*
G37*
%TD.AperFunction*%
X119221250Y-35401250D03*
%TO.P,MX43,1*%
%TO.N,COL9*%
%TA.AperFunction,ComponentPad*%
G36*
G01*
X112119938Y-38778600D02*
X112119933Y-38778595D01*
G75*
G02*
X112033905Y-37189933I751317J837345D01*
G01*
X113343907Y-35729933D01*
G75*
G02*
X114932569Y-35643905I837345J-751317D01*
G01*
X114932569Y-35643905D01*
G75*
G02*
X115018597Y-37232567I-751317J-837345D01*
G01*
X113708595Y-38692567D01*
G75*
G02*
X112119933Y-38778595I-837345J751317D01*
G01*
G37*
%TD.AperFunction*%
X114181250Y-36481250D03*
%TD*%
%TO.P,MX42,2*%
%TO.N,Net-(D42-Pad2)*%
%TA.AperFunction,ComponentPad*%
G36*
G01*
X100054733Y-94253645D02*
X100053847Y-94253584D01*
G75*
G02*
X99008916Y-93053847I77403J1122334D01*
G01*
X99048916Y-92473847D01*
G75*
G02*
X100248653Y-91428916I1122334J-77403D01*
G01*
X100248653Y-91428916D01*
G75*
G02*
X101293584Y-92628653I-77403J-1122334D01*
G01*
X101253584Y-93208653D01*
G75*
G02*
X100053847Y-94253584I-1122334J77403D01*
G01*
G37*
%TD.AperFunction*%
X100171250Y-92551250D03*
%TO.P,MX42,1*%
%TO.N,COL8*%
%TA.AperFunction,ComponentPad*%
G36*
G01*
X93069938Y-95928600D02*
X93069933Y-95928595D01*
G75*
G02*
X92983905Y-94339933I751317J837345D01*
G01*
X94293907Y-92879933D01*
G75*
G02*
X95882569Y-92793905I837345J-751317D01*
G01*
X95882569Y-92793905D01*
G75*
G02*
X95968597Y-94382567I-751317J-837345D01*
G01*
X94658595Y-95842567D01*
G75*
G02*
X93069933Y-95928595I-837345J751317D01*
G01*
G37*
%TD.AperFunction*%
X95131250Y-93631250D03*
%TD*%
%TO.P,MX41,2*%
%TO.N,Net-(D41-Pad2)*%
%TA.AperFunction,ComponentPad*%
G36*
G01*
X100054733Y-75203645D02*
X100053847Y-75203584D01*
G75*
G02*
X99008916Y-74003847I77403J1122334D01*
G01*
X99048916Y-73423847D01*
G75*
G02*
X100248653Y-72378916I1122334J-77403D01*
G01*
X100248653Y-72378916D01*
G75*
G02*
X101293584Y-73578653I-77403J-1122334D01*
G01*
X101253584Y-74158653D01*
G75*
G02*
X100053847Y-75203584I-1122334J77403D01*
G01*
G37*
%TD.AperFunction*%
X100171250Y-73501250D03*
%TO.P,MX41,1*%
%TO.N,COL8*%
%TA.AperFunction,ComponentPad*%
G36*
G01*
X93069938Y-76878600D02*
X93069933Y-76878595D01*
G75*
G02*
X92983905Y-75289933I751317J837345D01*
G01*
X94293907Y-73829933D01*
G75*
G02*
X95882569Y-73743905I837345J-751317D01*
G01*
X95882569Y-73743905D01*
G75*
G02*
X95968597Y-75332567I-751317J-837345D01*
G01*
X94658595Y-76792567D01*
G75*
G02*
X93069933Y-76878595I-837345J751317D01*
G01*
G37*
%TD.AperFunction*%
X95131250Y-74581250D03*
%TD*%
%TO.P,MX40,2*%
%TO.N,Net-(D40-Pad2)*%
%TA.AperFunction,ComponentPad*%
G36*
G01*
X100054733Y-56153645D02*
X100053847Y-56153584D01*
G75*
G02*
X99008916Y-54953847I77403J1122334D01*
G01*
X99048916Y-54373847D01*
G75*
G02*
X100248653Y-53328916I1122334J-77403D01*
G01*
X100248653Y-53328916D01*
G75*
G02*
X101293584Y-54528653I-77403J-1122334D01*
G01*
X101253584Y-55108653D01*
G75*
G02*
X100053847Y-56153584I-1122334J77403D01*
G01*
G37*
%TD.AperFunction*%
X100171250Y-54451250D03*
%TO.P,MX40,1*%
%TO.N,COL8*%
%TA.AperFunction,ComponentPad*%
G36*
G01*
X93069938Y-57828600D02*
X93069933Y-57828595D01*
G75*
G02*
X92983905Y-56239933I751317J837345D01*
G01*
X94293907Y-54779933D01*
G75*
G02*
X95882569Y-54693905I837345J-751317D01*
G01*
X95882569Y-54693905D01*
G75*
G02*
X95968597Y-56282567I-751317J-837345D01*
G01*
X94658595Y-57742567D01*
G75*
G02*
X93069933Y-57828595I-837345J751317D01*
G01*
G37*
%TD.AperFunction*%
X95131250Y-55531250D03*
%TD*%
%TO.P,MX39,2*%
%TO.N,Net-(D39-Pad2)*%
%TA.AperFunction,ComponentPad*%
G36*
G01*
X100054733Y-37103645D02*
X100053847Y-37103584D01*
G75*
G02*
X99008916Y-35903847I77403J1122334D01*
G01*
X99048916Y-35323847D01*
G75*
G02*
X100248653Y-34278916I1122334J-77403D01*
G01*
X100248653Y-34278916D01*
G75*
G02*
X101293584Y-35478653I-77403J-1122334D01*
G01*
X101253584Y-36058653D01*
G75*
G02*
X100053847Y-37103584I-1122334J77403D01*
G01*
G37*
%TD.AperFunction*%
X100171250Y-35401250D03*
%TO.P,MX39,1*%
%TO.N,COL8*%
%TA.AperFunction,ComponentPad*%
G36*
G01*
X93069938Y-38778600D02*
X93069933Y-38778595D01*
G75*
G02*
X92983905Y-37189933I751317J837345D01*
G01*
X94293907Y-35729933D01*
G75*
G02*
X95882569Y-35643905I837345J-751317D01*
G01*
X95882569Y-35643905D01*
G75*
G02*
X95968597Y-37232567I-751317J-837345D01*
G01*
X94658595Y-38692567D01*
G75*
G02*
X93069933Y-38778595I-837345J751317D01*
G01*
G37*
%TD.AperFunction*%
X95131250Y-36481250D03*
%TD*%
%TO.P,MX37,2*%
%TO.N,Net-(D37-Pad2)*%
%TA.AperFunction,ComponentPad*%
G36*
G01*
X81004733Y-94253645D02*
X81003847Y-94253584D01*
G75*
G02*
X79958916Y-93053847I77403J1122334D01*
G01*
X79998916Y-92473847D01*
G75*
G02*
X81198653Y-91428916I1122334J-77403D01*
G01*
X81198653Y-91428916D01*
G75*
G02*
X82243584Y-92628653I-77403J-1122334D01*
G01*
X82203584Y-93208653D01*
G75*
G02*
X81003847Y-94253584I-1122334J77403D01*
G01*
G37*
%TD.AperFunction*%
X81121250Y-92551250D03*
%TO.P,MX37,1*%
%TO.N,COL7*%
%TA.AperFunction,ComponentPad*%
G36*
G01*
X74019938Y-95928600D02*
X74019933Y-95928595D01*
G75*
G02*
X73933905Y-94339933I751317J837345D01*
G01*
X75243907Y-92879933D01*
G75*
G02*
X76832569Y-92793905I837345J-751317D01*
G01*
X76832569Y-92793905D01*
G75*
G02*
X76918597Y-94382567I-751317J-837345D01*
G01*
X75608595Y-95842567D01*
G75*
G02*
X74019933Y-95928595I-837345J751317D01*
G01*
G37*
%TD.AperFunction*%
X76081250Y-93631250D03*
%TD*%
%TO.P,MX36,2*%
%TO.N,Net-(D36-Pad2)*%
%TA.AperFunction,ComponentPad*%
G36*
G01*
X81004733Y-75203645D02*
X81003847Y-75203584D01*
G75*
G02*
X79958916Y-74003847I77403J1122334D01*
G01*
X79998916Y-73423847D01*
G75*
G02*
X81198653Y-72378916I1122334J-77403D01*
G01*
X81198653Y-72378916D01*
G75*
G02*
X82243584Y-73578653I-77403J-1122334D01*
G01*
X82203584Y-74158653D01*
G75*
G02*
X81003847Y-75203584I-1122334J77403D01*
G01*
G37*
%TD.AperFunction*%
X81121250Y-73501250D03*
%TO.P,MX36,1*%
%TO.N,COL7*%
%TA.AperFunction,ComponentPad*%
G36*
G01*
X74019938Y-76878600D02*
X74019933Y-76878595D01*
G75*
G02*
X73933905Y-75289933I751317J837345D01*
G01*
X75243907Y-73829933D01*
G75*
G02*
X76832569Y-73743905I837345J-751317D01*
G01*
X76832569Y-73743905D01*
G75*
G02*
X76918597Y-75332567I-751317J-837345D01*
G01*
X75608595Y-76792567D01*
G75*
G02*
X74019933Y-76878595I-837345J751317D01*
G01*
G37*
%TD.AperFunction*%
X76081250Y-74581250D03*
%TD*%
%TO.P,MX35,2*%
%TO.N,Net-(D35-Pad2)*%
%TA.AperFunction,ComponentPad*%
G36*
G01*
X81004733Y-56153645D02*
X81003847Y-56153584D01*
G75*
G02*
X79958916Y-54953847I77403J1122334D01*
G01*
X79998916Y-54373847D01*
G75*
G02*
X81198653Y-53328916I1122334J-77403D01*
G01*
X81198653Y-53328916D01*
G75*
G02*
X82243584Y-54528653I-77403J-1122334D01*
G01*
X82203584Y-55108653D01*
G75*
G02*
X81003847Y-56153584I-1122334J77403D01*
G01*
G37*
%TD.AperFunction*%
X81121250Y-54451250D03*
%TO.P,MX35,1*%
%TO.N,COL7*%
%TA.AperFunction,ComponentPad*%
G36*
G01*
X74019938Y-57828600D02*
X74019933Y-57828595D01*
G75*
G02*
X73933905Y-56239933I751317J837345D01*
G01*
X75243907Y-54779933D01*
G75*
G02*
X76832569Y-54693905I837345J-751317D01*
G01*
X76832569Y-54693905D01*
G75*
G02*
X76918597Y-56282567I-751317J-837345D01*
G01*
X75608595Y-57742567D01*
G75*
G02*
X74019933Y-57828595I-837345J751317D01*
G01*
G37*
%TD.AperFunction*%
X76081250Y-55531250D03*
%TD*%
%TO.P,MX34,2*%
%TO.N,Net-(D34-Pad2)*%
%TA.AperFunction,ComponentPad*%
G36*
G01*
X81004733Y-37103645D02*
X81003847Y-37103584D01*
G75*
G02*
X79958916Y-35903847I77403J1122334D01*
G01*
X79998916Y-35323847D01*
G75*
G02*
X81198653Y-34278916I1122334J-77403D01*
G01*
X81198653Y-34278916D01*
G75*
G02*
X82243584Y-35478653I-77403J-1122334D01*
G01*
X82203584Y-36058653D01*
G75*
G02*
X81003847Y-37103584I-1122334J77403D01*
G01*
G37*
%TD.AperFunction*%
X81121250Y-35401250D03*
%TO.P,MX34,1*%
%TO.N,COL7*%
%TA.AperFunction,ComponentPad*%
G36*
G01*
X74019938Y-38778600D02*
X74019933Y-38778595D01*
G75*
G02*
X73933905Y-37189933I751317J837345D01*
G01*
X75243907Y-35729933D01*
G75*
G02*
X76832569Y-35643905I837345J-751317D01*
G01*
X76832569Y-35643905D01*
G75*
G02*
X76918597Y-37232567I-751317J-837345D01*
G01*
X75608595Y-38692567D01*
G75*
G02*
X74019933Y-38778595I-837345J751317D01*
G01*
G37*
%TD.AperFunction*%
X76081250Y-36481250D03*
%TD*%
%TO.P,MX33,2*%
%TO.N,Net-(D33-Pad2)*%
%TA.AperFunction,ComponentPad*%
G36*
G01*
X71479733Y-113303645D02*
X71478847Y-113303584D01*
G75*
G02*
X70433916Y-112103847I77403J1122334D01*
G01*
X70473916Y-111523847D01*
G75*
G02*
X71673653Y-110478916I1122334J-77403D01*
G01*
X71673653Y-110478916D01*
G75*
G02*
X72718584Y-111678653I-77403J-1122334D01*
G01*
X72678584Y-112258653D01*
G75*
G02*
X71478847Y-113303584I-1122334J77403D01*
G01*
G37*
%TD.AperFunction*%
X71596250Y-111601250D03*
%TO.P,MX33,1*%
%TO.N,COL6*%
%TA.AperFunction,ComponentPad*%
G36*
G01*
X64494938Y-114978600D02*
X64494933Y-114978595D01*
G75*
G02*
X64408905Y-113389933I751317J837345D01*
G01*
X65718907Y-111929933D01*
G75*
G02*
X67307569Y-111843905I837345J-751317D01*
G01*
X67307569Y-111843905D01*
G75*
G02*
X67393597Y-113432567I-751317J-837345D01*
G01*
X66083595Y-114892567D01*
G75*
G02*
X64494933Y-114978595I-837345J751317D01*
G01*
G37*
%TD.AperFunction*%
X66556250Y-112681250D03*
%TD*%
%TO.P,MX32,2*%
%TO.N,Net-(D32-Pad2)*%
%TA.AperFunction,ComponentPad*%
G36*
G01*
X61954733Y-94253645D02*
X61953847Y-94253584D01*
G75*
G02*
X60908916Y-93053847I77403J1122334D01*
G01*
X60948916Y-92473847D01*
G75*
G02*
X62148653Y-91428916I1122334J-77403D01*
G01*
X62148653Y-91428916D01*
G75*
G02*
X63193584Y-92628653I-77403J-1122334D01*
G01*
X63153584Y-93208653D01*
G75*
G02*
X61953847Y-94253584I-1122334J77403D01*
G01*
G37*
%TD.AperFunction*%
X62071250Y-92551250D03*
%TO.P,MX32,1*%
%TO.N,COL6*%
%TA.AperFunction,ComponentPad*%
G36*
G01*
X54969938Y-95928600D02*
X54969933Y-95928595D01*
G75*
G02*
X54883905Y-94339933I751317J837345D01*
G01*
X56193907Y-92879933D01*
G75*
G02*
X57782569Y-92793905I837345J-751317D01*
G01*
X57782569Y-92793905D01*
G75*
G02*
X57868597Y-94382567I-751317J-837345D01*
G01*
X56558595Y-95842567D01*
G75*
G02*
X54969933Y-95928595I-837345J751317D01*
G01*
G37*
%TD.AperFunction*%
X57031250Y-93631250D03*
%TD*%
%TO.P,MX31,2*%
%TO.N,Net-(D31-Pad2)*%
%TA.AperFunction,ComponentPad*%
G36*
G01*
X61954733Y-75203645D02*
X61953847Y-75203584D01*
G75*
G02*
X60908916Y-74003847I77403J1122334D01*
G01*
X60948916Y-73423847D01*
G75*
G02*
X62148653Y-72378916I1122334J-77403D01*
G01*
X62148653Y-72378916D01*
G75*
G02*
X63193584Y-73578653I-77403J-1122334D01*
G01*
X63153584Y-74158653D01*
G75*
G02*
X61953847Y-75203584I-1122334J77403D01*
G01*
G37*
%TD.AperFunction*%
X62071250Y-73501250D03*
%TO.P,MX31,1*%
%TO.N,COL6*%
%TA.AperFunction,ComponentPad*%
G36*
G01*
X54969938Y-76878600D02*
X54969933Y-76878595D01*
G75*
G02*
X54883905Y-75289933I751317J837345D01*
G01*
X56193907Y-73829933D01*
G75*
G02*
X57782569Y-73743905I837345J-751317D01*
G01*
X57782569Y-73743905D01*
G75*
G02*
X57868597Y-75332567I-751317J-837345D01*
G01*
X56558595Y-76792567D01*
G75*
G02*
X54969933Y-76878595I-837345J751317D01*
G01*
G37*
%TD.AperFunction*%
X57031250Y-74581250D03*
%TD*%
%TO.P,MX30,2*%
%TO.N,Net-(D30-Pad2)*%
%TA.AperFunction,ComponentPad*%
G36*
G01*
X61954733Y-56153645D02*
X61953847Y-56153584D01*
G75*
G02*
X60908916Y-54953847I77403J1122334D01*
G01*
X60948916Y-54373847D01*
G75*
G02*
X62148653Y-53328916I1122334J-77403D01*
G01*
X62148653Y-53328916D01*
G75*
G02*
X63193584Y-54528653I-77403J-1122334D01*
G01*
X63153584Y-55108653D01*
G75*
G02*
X61953847Y-56153584I-1122334J77403D01*
G01*
G37*
%TD.AperFunction*%
X62071250Y-54451250D03*
%TO.P,MX30,1*%
%TO.N,COL6*%
%TA.AperFunction,ComponentPad*%
G36*
G01*
X54969938Y-57828600D02*
X54969933Y-57828595D01*
G75*
G02*
X54883905Y-56239933I751317J837345D01*
G01*
X56193907Y-54779933D01*
G75*
G02*
X57782569Y-54693905I837345J-751317D01*
G01*
X57782569Y-54693905D01*
G75*
G02*
X57868597Y-56282567I-751317J-837345D01*
G01*
X56558595Y-57742567D01*
G75*
G02*
X54969933Y-57828595I-837345J751317D01*
G01*
G37*
%TD.AperFunction*%
X57031250Y-55531250D03*
%TD*%
%TO.P,MX29,2*%
%TO.N,Net-(D29-Pad2)*%
%TA.AperFunction,ComponentPad*%
G36*
G01*
X61954733Y-37103645D02*
X61953847Y-37103584D01*
G75*
G02*
X60908916Y-35903847I77403J1122334D01*
G01*
X60948916Y-35323847D01*
G75*
G02*
X62148653Y-34278916I1122334J-77403D01*
G01*
X62148653Y-34278916D01*
G75*
G02*
X63193584Y-35478653I-77403J-1122334D01*
G01*
X63153584Y-36058653D01*
G75*
G02*
X61953847Y-37103584I-1122334J77403D01*
G01*
G37*
%TD.AperFunction*%
X62071250Y-35401250D03*
%TO.P,MX29,1*%
%TO.N,COL6*%
%TA.AperFunction,ComponentPad*%
G36*
G01*
X54969938Y-38778600D02*
X54969933Y-38778595D01*
G75*
G02*
X54883905Y-37189933I751317J837345D01*
G01*
X56193907Y-35729933D01*
G75*
G02*
X57782569Y-35643905I837345J-751317D01*
G01*
X57782569Y-35643905D01*
G75*
G02*
X57868597Y-37232567I-751317J-837345D01*
G01*
X56558595Y-38692567D01*
G75*
G02*
X54969933Y-38778595I-837345J751317D01*
G01*
G37*
%TD.AperFunction*%
X57031250Y-36481250D03*
%TD*%
%TO.P,MX27,2*%
%TO.N,Net-(D27-Pad2)*%
%TA.AperFunction,ComponentPad*%
G36*
G01*
X42904733Y-94253645D02*
X42903847Y-94253584D01*
G75*
G02*
X41858916Y-93053847I77403J1122334D01*
G01*
X41898916Y-92473847D01*
G75*
G02*
X43098653Y-91428916I1122334J-77403D01*
G01*
X43098653Y-91428916D01*
G75*
G02*
X44143584Y-92628653I-77403J-1122334D01*
G01*
X44103584Y-93208653D01*
G75*
G02*
X42903847Y-94253584I-1122334J77403D01*
G01*
G37*
%TD.AperFunction*%
X43021250Y-92551250D03*
%TO.P,MX27,1*%
%TO.N,COL5*%
%TA.AperFunction,ComponentPad*%
G36*
G01*
X35919938Y-95928600D02*
X35919933Y-95928595D01*
G75*
G02*
X35833905Y-94339933I751317J837345D01*
G01*
X37143907Y-92879933D01*
G75*
G02*
X38732569Y-92793905I837345J-751317D01*
G01*
X38732569Y-92793905D01*
G75*
G02*
X38818597Y-94382567I-751317J-837345D01*
G01*
X37508595Y-95842567D01*
G75*
G02*
X35919933Y-95928595I-837345J751317D01*
G01*
G37*
%TD.AperFunction*%
X37981250Y-93631250D03*
%TD*%
%TO.P,MX26,2*%
%TO.N,Net-(D26-Pad2)*%
%TA.AperFunction,ComponentPad*%
G36*
G01*
X42904733Y-75203645D02*
X42903847Y-75203584D01*
G75*
G02*
X41858916Y-74003847I77403J1122334D01*
G01*
X41898916Y-73423847D01*
G75*
G02*
X43098653Y-72378916I1122334J-77403D01*
G01*
X43098653Y-72378916D01*
G75*
G02*
X44143584Y-73578653I-77403J-1122334D01*
G01*
X44103584Y-74158653D01*
G75*
G02*
X42903847Y-75203584I-1122334J77403D01*
G01*
G37*
%TD.AperFunction*%
X43021250Y-73501250D03*
%TO.P,MX26,1*%
%TO.N,COL5*%
%TA.AperFunction,ComponentPad*%
G36*
G01*
X35919938Y-76878600D02*
X35919933Y-76878595D01*
G75*
G02*
X35833905Y-75289933I751317J837345D01*
G01*
X37143907Y-73829933D01*
G75*
G02*
X38732569Y-73743905I837345J-751317D01*
G01*
X38732569Y-73743905D01*
G75*
G02*
X38818597Y-75332567I-751317J-837345D01*
G01*
X37508595Y-76792567D01*
G75*
G02*
X35919933Y-76878595I-837345J751317D01*
G01*
G37*
%TD.AperFunction*%
X37981250Y-74581250D03*
%TD*%
%TO.P,MX24,2*%
%TO.N,Net-(D24-Pad2)*%
%TA.AperFunction,ComponentPad*%
G36*
G01*
X42904733Y-37103645D02*
X42903847Y-37103584D01*
G75*
G02*
X41858916Y-35903847I77403J1122334D01*
G01*
X41898916Y-35323847D01*
G75*
G02*
X43098653Y-34278916I1122334J-77403D01*
G01*
X43098653Y-34278916D01*
G75*
G02*
X44143584Y-35478653I-77403J-1122334D01*
G01*
X44103584Y-36058653D01*
G75*
G02*
X42903847Y-37103584I-1122334J77403D01*
G01*
G37*
%TD.AperFunction*%
X43021250Y-35401250D03*
%TO.P,MX24,1*%
%TO.N,COL5*%
%TA.AperFunction,ComponentPad*%
G36*
G01*
X35919938Y-38778600D02*
X35919933Y-38778595D01*
G75*
G02*
X35833905Y-37189933I751317J837345D01*
G01*
X37143907Y-35729933D01*
G75*
G02*
X38732569Y-35643905I837345J-751317D01*
G01*
X38732569Y-35643905D01*
G75*
G02*
X38818597Y-37232567I-751317J-837345D01*
G01*
X37508595Y-38692567D01*
G75*
G02*
X35919933Y-38778595I-837345J751317D01*
G01*
G37*
%TD.AperFunction*%
X37981250Y-36481250D03*
%TD*%
D14*
%TO.P,D46,1*%
%TO.N,ROW3*%
X124618750Y-101531250D03*
D15*
%TO.P,D46,2*%
%TO.N,Net-(D46-Pad2)*%
X124618750Y-93731250D03*
%TD*%
D14*
%TO.P,D45,1*%
%TO.N,ROW2*%
X124618750Y-82481250D03*
D15*
%TO.P,D45,2*%
%TO.N,Net-(D45-Pad2)*%
X124618750Y-74681250D03*
%TD*%
D14*
%TO.P,D44,1*%
%TO.N,ROW1*%
X124618750Y-63431250D03*
D15*
%TO.P,D44,2*%
%TO.N,Net-(D44-Pad2)*%
X124618750Y-55631250D03*
%TD*%
D14*
%TO.P,D43,1*%
%TO.N,ROW0*%
X124618750Y-44381250D03*
D15*
%TO.P,D43,2*%
%TO.N,Net-(D43-Pad2)*%
X124618750Y-36581250D03*
%TD*%
D14*
%TO.P,D42,1*%
%TO.N,ROW3*%
X105568750Y-101528250D03*
D15*
%TO.P,D42,2*%
%TO.N,Net-(D42-Pad2)*%
X105568750Y-93728250D03*
%TD*%
D14*
%TO.P,D41,1*%
%TO.N,ROW2*%
X105568750Y-82481250D03*
D15*
%TO.P,D41,2*%
%TO.N,Net-(D41-Pad2)*%
X105568750Y-74681250D03*
%TD*%
D14*
%TO.P,D40,1*%
%TO.N,ROW1*%
X105568750Y-63431250D03*
D15*
%TO.P,D40,2*%
%TO.N,Net-(D40-Pad2)*%
X105568750Y-55631250D03*
%TD*%
D14*
%TO.P,D39,1*%
%TO.N,ROW0*%
X105568750Y-44381250D03*
D15*
%TO.P,D39,2*%
%TO.N,Net-(D39-Pad2)*%
X105568750Y-36581250D03*
%TD*%
D14*
%TO.P,D38,1*%
%TO.N,ROW4*%
X80168750Y-120581250D03*
D15*
%TO.P,D38,2*%
%TO.N,Net-(D38-Pad2)*%
X80168750Y-112781250D03*
%TD*%
D14*
%TO.P,D37,1*%
%TO.N,ROW3*%
X86518750Y-101531250D03*
D15*
%TO.P,D37,2*%
%TO.N,Net-(D37-Pad2)*%
X86518750Y-93731250D03*
%TD*%
D14*
%TO.P,D36,1*%
%TO.N,ROW2*%
X86518750Y-82481250D03*
D15*
%TO.P,D36,2*%
%TO.N,Net-(D36-Pad2)*%
X86518750Y-74681250D03*
%TD*%
D14*
%TO.P,D35,1*%
%TO.N,ROW1*%
X86518750Y-63431250D03*
D15*
%TO.P,D35,2*%
%TO.N,Net-(D35-Pad2)*%
X86518750Y-55631250D03*
%TD*%
D14*
%TO.P,D34,1*%
%TO.N,ROW0*%
X86518750Y-44381250D03*
D15*
%TO.P,D34,2*%
%TO.N,Net-(D34-Pad2)*%
X86518750Y-36581250D03*
%TD*%
D14*
%TO.P,D33,1*%
%TO.N,ROW4*%
X76993750Y-120581250D03*
D15*
%TO.P,D33,2*%
%TO.N,Net-(D33-Pad2)*%
X76993750Y-112781250D03*
%TD*%
D14*
%TO.P,D32,1*%
%TO.N,ROW3*%
X67468750Y-101531250D03*
D15*
%TO.P,D32,2*%
%TO.N,Net-(D32-Pad2)*%
X67468750Y-93731250D03*
%TD*%
D14*
%TO.P,D31,1*%
%TO.N,ROW2*%
X67468750Y-82481250D03*
D15*
%TO.P,D31,2*%
%TO.N,Net-(D31-Pad2)*%
X67468750Y-74681250D03*
%TD*%
D14*
%TO.P,D30,1*%
%TO.N,ROW1*%
X67468750Y-63431250D03*
D15*
%TO.P,D30,2*%
%TO.N,Net-(D30-Pad2)*%
X67468750Y-55631250D03*
%TD*%
D14*
%TO.P,D29,1*%
%TO.N,ROW0*%
X67468750Y-44381250D03*
D15*
%TO.P,D29,2*%
%TO.N,Net-(D29-Pad2)*%
X67468750Y-36581250D03*
%TD*%
D14*
%TO.P,D28,1*%
%TO.N,ROW4*%
X53181250Y-120581250D03*
D15*
%TO.P,D28,2*%
%TO.N,Net-(D28-Pad2)*%
X53181250Y-112781250D03*
%TD*%
D14*
%TO.P,D27,1*%
%TO.N,ROW3*%
X48418750Y-101531250D03*
D15*
%TO.P,D27,2*%
%TO.N,Net-(D27-Pad2)*%
X48418750Y-93731250D03*
%TD*%
D14*
%TO.P,D26,1*%
%TO.N,ROW2*%
X48418750Y-82481250D03*
D15*
%TO.P,D26,2*%
%TO.N,Net-(D26-Pad2)*%
X48418750Y-74681250D03*
%TD*%
D14*
%TO.P,D25,1*%
%TO.N,ROW1*%
X36581250Y-67468750D03*
D15*
%TO.P,D25,2*%
%TO.N,Net-(D25-Pad2)*%
X44381250Y-67468750D03*
%TD*%
D14*
%TO.P,D24,1*%
%TO.N,ROW0*%
X36393750Y-48418750D03*
D15*
%TO.P,D24,2*%
%TO.N,Net-(D24-Pad2)*%
X44193750Y-48418750D03*
%TD*%
D16*
%TO.N,ROW1*%
X36603251Y-59019690D02*
X34470990Y-56887429D01*
X36603251Y-67446749D02*
X36603251Y-59019690D01*
X36581250Y-67468750D02*
X36603251Y-67446749D01*
X34470990Y-52320840D02*
X32632650Y-50482500D01*
X34470990Y-56887429D02*
X34470990Y-52320840D01*
%TO.N,ROW2*%
X48418750Y-82481250D02*
X48418750Y-82454750D01*
X31845250Y-78539402D02*
X33089850Y-77294802D01*
X31845250Y-78613000D02*
X31845250Y-78539402D01*
X33089850Y-77294802D02*
X33089850Y-63182500D01*
%TO.N,ROW3*%
X48418750Y-101531250D02*
X48418750Y-101504750D01*
X34293151Y-62303001D02*
X32632650Y-60642500D01*
X34293151Y-63760085D02*
X34293151Y-62303001D01*
X33543860Y-64509376D02*
X34293151Y-63760085D01*
X33543860Y-78946390D02*
X33543860Y-64509376D01*
X31845250Y-80645000D02*
X33543860Y-78946390D01*
%TO.N,ROW4*%
X53181250Y-120581250D02*
X53144250Y-120581250D01*
X33089850Y-59378850D02*
X33089850Y-58102500D01*
X33835951Y-60124951D02*
X33089850Y-59378850D01*
X33835951Y-61203735D02*
X33835951Y-60124951D01*
X34747161Y-62114944D02*
X33835951Y-61203735D01*
X34747161Y-63948142D02*
X34747161Y-62114944D01*
X33997870Y-64697432D02*
X34747161Y-63948142D01*
X33997870Y-80524380D02*
X33997870Y-64697432D01*
X31845250Y-82677000D02*
X33997870Y-80524380D01*
%TO.N,Net-(D24-Pad2)*%
X42981250Y-47206250D02*
X44193750Y-48418750D01*
X42981250Y-35981250D02*
X42981250Y-47206250D01*
%TO.N,Net-(D25-Pad2)*%
X42981250Y-66068750D02*
X44381250Y-67468750D01*
X42981250Y-55031250D02*
X42981250Y-66068750D01*
%TO.N,COL5*%
X36671250Y-106608750D02*
X42743750Y-112681250D01*
X36671250Y-95091250D02*
X36671250Y-106608750D01*
X36671250Y-37941250D02*
X36671250Y-45085000D01*
X36671250Y-45085000D02*
X34925000Y-46831250D01*
X34925000Y-52475000D02*
X37981250Y-55531250D01*
X34925000Y-46831250D02*
X34925000Y-52475000D01*
X36671250Y-76041250D02*
X37846000Y-77216000D01*
X37846000Y-93496000D02*
X37981250Y-93631250D01*
X37846000Y-77216000D02*
X37846000Y-93496000D01*
X37057261Y-57377261D02*
X37057261Y-62711261D01*
X36671250Y-56991250D02*
X37057261Y-57377261D01*
X37057261Y-62711261D02*
X40386000Y-66040000D01*
X40386000Y-72176500D02*
X37981250Y-74581250D01*
X40386000Y-66040000D02*
X40386000Y-72176500D01*
%TO.N,COL6*%
X55721250Y-95091250D02*
X55721250Y-101846250D01*
X55721250Y-101846250D02*
X66556250Y-112681250D01*
X55721250Y-37941250D02*
X55721250Y-40322500D01*
X55721250Y-56991250D02*
X55721250Y-76041250D01*
X55721250Y-76041250D02*
X55721250Y-95091250D01*
X55721250Y-41497250D02*
X55721250Y-56991250D01*
X55721250Y-40322500D02*
X55721250Y-41497250D01*
%TO.N,COL7*%
X74771250Y-101846250D02*
X85606250Y-112681250D01*
X74771250Y-95091250D02*
X74771250Y-101846250D01*
X74771250Y-37941250D02*
X74771250Y-56991250D01*
X74771250Y-56991250D02*
X74771250Y-76041250D01*
X74771250Y-76041250D02*
X74771250Y-95091250D01*
%TO.N,COL8*%
X93821250Y-76041250D02*
X93821250Y-95091250D01*
X93821250Y-37941250D02*
X93821250Y-76041250D01*
%TO.N,COL9*%
X112871250Y-76041250D02*
X112871250Y-95091250D01*
X112871250Y-56991250D02*
X112871250Y-76041250D01*
X112871250Y-37941250D02*
X112871250Y-56991250D01*
%TO.N,COL4*%
X51822289Y-56972139D02*
X47872650Y-53022500D01*
X51822289Y-105948973D02*
X51822289Y-56972139D01*
X57378538Y-111505221D02*
X51822289Y-105948973D01*
X57378538Y-122195977D02*
X57378538Y-111505221D01*
X55295505Y-124279010D02*
X57378538Y-122195977D01*
X35347260Y-124279010D02*
X55295505Y-124279010D01*
X31845250Y-120777000D02*
X35347260Y-124279010D01*
%TO.N,COL3*%
X51368279Y-58600929D02*
X48329850Y-55562500D01*
X51368279Y-106137029D02*
X51368279Y-58600929D01*
X56924528Y-111693278D02*
X51368279Y-106137029D01*
X56924528Y-122007920D02*
X56924528Y-111693278D01*
X55107448Y-123825000D02*
X56924528Y-122007920D01*
X36925250Y-123825000D02*
X55107448Y-123825000D01*
X31845250Y-118745000D02*
X36925250Y-123825000D01*
%TO.N,COL2*%
X50914269Y-106399135D02*
X50914269Y-61144119D01*
X56470519Y-111955385D02*
X50914269Y-106399135D01*
X56470520Y-121819863D02*
X56470519Y-111955385D01*
X54954365Y-123336020D02*
X56470520Y-121819863D01*
X38468270Y-123336020D02*
X54954365Y-123336020D01*
X50914269Y-61144119D02*
X47872650Y-58102500D01*
X31845250Y-116713000D02*
X38468270Y-123336020D01*
%TO.N,COL1*%
X50460261Y-62772911D02*
X48329850Y-60642500D01*
X50460261Y-106587193D02*
X50460261Y-62772911D01*
X56016510Y-112143442D02*
X50460261Y-106587193D01*
X56016511Y-121631807D02*
X56016510Y-112143442D01*
X54766308Y-122882010D02*
X56016511Y-121631807D01*
X40046260Y-122882010D02*
X54766308Y-122882010D01*
X31845250Y-114681000D02*
X40046260Y-122882010D01*
%TO.N,COL0*%
X31845250Y-112649000D02*
X41624250Y-122428000D01*
X41624250Y-122428000D02*
X54578252Y-122428000D01*
X54578252Y-122428000D02*
X55562502Y-121443751D01*
X55562502Y-121443751D02*
X55562502Y-112331500D01*
X55562502Y-112331500D02*
X50006251Y-106775250D01*
X50006251Y-65316101D02*
X47872650Y-63182500D01*
X50006251Y-106775250D02*
X50006251Y-65316101D01*
%TO.N,GND*%
X32632650Y-42405300D02*
X33089850Y-42862500D01*
X32632650Y-40322500D02*
X32632650Y-42405300D01*
X34293151Y-38661999D02*
X34293151Y-37144349D01*
X32632650Y-40322500D02*
X34293151Y-38661999D01*
X34293151Y-37144349D02*
X38100000Y-33337500D01*
X38100000Y-33337500D02*
X43497500Y-33337500D01*
X47872650Y-37712650D02*
X47872650Y-37782500D01*
X43497500Y-33337500D02*
X47872650Y-37712650D01*
X115018750Y-118531250D02*
X116681250Y-116868750D01*
X116681250Y-116868750D02*
X116681250Y-113506250D01*
X116681250Y-113506250D02*
X109272760Y-106097760D01*
X109272760Y-35605693D02*
X106550557Y-32883490D01*
X109272760Y-106097760D02*
X109272760Y-35605693D01*
X52771660Y-32883490D02*
X47872650Y-37782500D01*
X106550557Y-32883490D02*
X52771660Y-32883490D01*
%TO.N,Net-(SW1-Pad1)*%
X108818750Y-114831250D02*
X108818750Y-35793750D01*
X108818750Y-35793750D02*
X106362500Y-33337500D01*
X55314850Y-33337500D02*
X48329850Y-40322500D01*
X106362500Y-33337500D02*
X55314850Y-33337500D01*
%TD*%
M02*
