M48
; DRILL file {KiCad (5.1.12)-1} date 01/07/22 17:35:07
; FORMAT={-:-/ absolute / inch / decimal}
; #@! TF.CreationDate,2022-01-07T17:35:07-05:00
; #@! TF.GenerationSoftware,Kicad,Pcbnew,(5.1.12)-1
; #@! TF.FileFunction,NonPlated,1,2,NPTH
FMAT,2
INCH
T1C0.0689
T2C0.1570
%
G90
G05
T1
X1.3938Y-1.5938
X1.3938Y-2.3438
X1.3938Y-3.0938
X1.3938Y-3.8438
X1.5813Y-4.5938
X1.7937Y-1.5938
X1.7937Y-2.3438
X1.7937Y-3.0938
X1.7937Y-3.8438
X1.9812Y-4.5938
X2.1437Y-1.5938
X2.1437Y-2.3438
X2.1437Y-3.0938
X2.1437Y-3.8438
X2.5187Y-4.5938
X2.5437Y-1.5938
X2.5437Y-2.3438
X2.5437Y-3.0938
X2.5437Y-3.8438
X2.8937Y-1.5938
X2.8937Y-2.3438
X2.8937Y-3.0938
X2.8937Y-3.8438
X2.9187Y-4.5938
X3.2687Y-4.5938
X3.2937Y-1.5938
X3.2937Y-2.3438
X3.2937Y-3.0938
X3.2937Y-3.8438
X3.6437Y-1.5938
X3.6437Y-2.3438
X3.6437Y-3.0938
X3.6437Y-3.8438
X3.6687Y-4.5938
X4.0438Y-1.5938
X4.0438Y-2.3438
X4.0438Y-3.0938
X4.0438Y-3.8438
X4.3937Y-1.5938
X4.3937Y-2.3438
X4.3937Y-3.0938
X4.3937Y-3.8438
X4.7938Y-1.5938
X4.7938Y-2.3438
X4.7938Y-3.0938
X4.7938Y-3.8438
T2
X1.5938Y-1.5938
X1.5938Y-2.3438
X1.5938Y-3.0938
X1.5938Y-3.8438
X1.7812Y-4.5938
X2.3438Y-1.5938
X2.3438Y-2.3438
X2.3438Y-3.0938
X2.3438Y-3.8438
X2.7188Y-4.5938
X3.0938Y-1.5938
X3.0938Y-2.3438
X3.0938Y-3.0938
X3.0938Y-3.8438
X3.4688Y-4.5938
X3.8438Y-1.5938
X3.8438Y-2.3438
X3.8438Y-3.0938
X3.8438Y-3.8438
X4.5938Y-1.5938
X4.5938Y-2.3438
X4.5938Y-3.0938
X4.5938Y-3.8438
T0
M30
