M48
; DRILL file {KiCad (5.1.12)-1} date 01/07/22 17:35:07
; FORMAT={-:-/ absolute / inch / decimal}
; #@! TF.CreationDate,2022-01-07T17:35:07-05:00
; #@! TF.GenerationSoftware,Kicad,Pcbnew,(5.1.12)-1
; #@! TF.FileFunction,Plated,1,2,PTH
FMAT,2
INCH
T1C0.0394
T2C0.0430
T3C0.0579
%
G90
G05
T1
X1.4328Y-1.9062
X1.4402Y-2.6562
X1.7399Y-1.9062
X1.7473Y-2.6562
X1.9062Y-2.9402
X1.9062Y-3.2473
X1.9062Y-3.6902
X1.9062Y-3.9973
X2.0938Y-4.4402
X2.0938Y-4.7473
X2.6562Y-1.4402
X2.6562Y-1.7473
X2.6562Y-2.1902
X2.6562Y-2.4973
X2.6562Y-2.9402
X2.6562Y-3.2473
X2.6562Y-3.6902
X2.6562Y-3.9973
X3.0312Y-4.4402
X3.0312Y-4.7473
X3.1562Y-4.4402
X3.1562Y-4.7473
X3.4062Y-1.4402
X3.4062Y-1.7473
X3.4062Y-2.1902
X3.4062Y-2.4973
X3.4062Y-2.9402
X3.4062Y-3.2473
X3.4062Y-3.6902
X3.4062Y-3.9973
X4.1562Y-1.4402
X4.1562Y-1.7473
X4.1562Y-2.1902
X4.1562Y-2.4973
X4.1562Y-2.9402
X4.1562Y-3.2473
X4.1562Y-3.6901
X4.1562Y-3.9972
X4.9062Y-1.4402
X4.9062Y-1.7473
X4.9062Y-2.1902
X4.9062Y-2.4973
X4.9062Y-2.9402
X4.9062Y-3.2473
X4.9062Y-3.6902
X4.9062Y-3.9973
T2
X1.2537Y-2.935
X1.2537Y-3.015
X1.2537Y-3.095
X1.2537Y-3.175
X1.2537Y-3.255
X1.2537Y-4.435
X1.2537Y-4.515
X1.2537Y-4.595
X1.2537Y-4.675
X1.2537Y-4.755
X1.2848Y-1.3875
X1.2848Y-1.5875
X1.2848Y-1.7875
X1.2848Y-1.9875
X1.2848Y-2.1875
X1.2848Y-2.3875
X1.3028Y-1.4875
X1.3028Y-1.6875
X1.3028Y-1.8875
X1.3028Y-2.0875
X1.3028Y-2.2875
X1.3028Y-2.4875
X1.8847Y-1.4875
X1.8847Y-1.6875
X1.8847Y-1.8875
X1.8847Y-2.0875
X1.8847Y-2.2875
X1.8847Y-2.4875
X1.9027Y-1.3875
X1.9027Y-1.5875
X1.9027Y-1.7875
X1.9027Y-1.9875
X1.9027Y-2.1875
X1.9027Y-2.3875
T3
X1.4437Y-1.4937
X1.4437Y-2.2437
X1.4437Y-2.9937
X1.4437Y-3.7437
X1.4953Y-1.4363
X1.4953Y-2.1863
X1.4953Y-2.9363
X1.4953Y-3.6863
X1.6312Y-4.4937
X1.6828Y-4.4363
X1.6922Y-1.4166
X1.6922Y-2.1666
X1.6922Y-2.9166
X1.6922Y-3.6666
X1.6937Y-1.3938
X1.6937Y-2.1437
X1.6937Y-2.8937
X1.6937Y-3.6437
X1.8797Y-4.4166
X1.8812Y-4.3937
X2.1938Y-1.4937
X2.1938Y-2.2437
X2.1938Y-2.9937
X2.1938Y-3.7437
X2.2453Y-1.4363
X2.2453Y-2.1863
X2.2453Y-2.9363
X2.2453Y-3.6863
X2.4422Y-1.4166
X2.4422Y-2.1666
X2.4422Y-2.9166
X2.4422Y-3.6666
X2.4438Y-1.3938
X2.4438Y-2.1437
X2.4438Y-2.8937
X2.4438Y-3.6437
X2.5688Y-4.4937
X2.6203Y-4.4363
X2.8172Y-4.4166
X2.8188Y-4.3937
X2.9438Y-1.4937
X2.9438Y-2.2437
X2.9438Y-2.9937
X2.9438Y-3.7437
X2.9953Y-1.4363
X2.9953Y-2.1863
X2.9953Y-2.9363
X2.9953Y-3.6863
X3.1922Y-1.4166
X3.1922Y-2.1666
X3.1922Y-2.9166
X3.1922Y-3.6666
X3.1938Y-1.3938
X3.1938Y-2.1437
X3.1938Y-2.8937
X3.1938Y-3.6437
X3.3188Y-4.4937
X3.3703Y-4.4363
X3.5672Y-4.4166
X3.5688Y-4.3937
X3.6938Y-1.4937
X3.6938Y-2.2437
X3.6938Y-2.9937
X3.6938Y-3.7437
X3.7453Y-1.4363
X3.7453Y-2.1863
X3.7453Y-2.9363
X3.7453Y-3.6863
X3.9422Y-1.4166
X3.9422Y-2.1666
X3.9422Y-2.9166
X3.9422Y-3.6666
X3.9438Y-1.3938
X3.9438Y-2.1437
X3.9438Y-2.8937
X3.9438Y-3.6437
X4.4437Y-1.4937
X4.4437Y-2.2437
X4.4437Y-2.9937
X4.4437Y-3.7437
X4.4953Y-1.4363
X4.4953Y-2.1863
X4.4953Y-2.9363
X4.4953Y-3.6863
X4.6922Y-1.4166
X4.6922Y-2.1666
X4.6922Y-2.9166
X4.6922Y-3.6666
X4.6937Y-1.3938
X4.6937Y-2.1437
X4.6937Y-2.8937
X4.6937Y-3.6437
T0
M30
