%TF.GenerationSoftware,KiCad,Pcbnew,(5.1.12)-1*%
%TF.CreationDate,2022-01-07T20:18:48-05:00*%
%TF.ProjectId,center-gasket-2,63656e74-6572-42d6-9761-736b65742d32,rev?*%
%TF.SameCoordinates,Original*%
%TF.FileFunction,Soldermask,Bot*%
%TF.FilePolarity,Negative*%
%FSLAX46Y46*%
G04 Gerber Fmt 4.6, Leading zero omitted, Abs format (unit mm)*
G04 Created by KiCad (PCBNEW (5.1.12)-1) date 2022-01-07 20:18:48*
%MOMM*%
%LPD*%
G01*
G04 APERTURE LIST*
%ADD10C,2.250000*%
%ADD11C,3.987800*%
%ADD12C,1.750000*%
%ADD13C,1.752600*%
%ADD14R,1.752600X1.752600*%
%ADD15R,1.600000X1.600000*%
%ADD16C,1.600000*%
%ADD17R,1.200000X1.600000*%
%ADD18R,1.600000X1.200000*%
G04 APERTURE END LIST*
%TO.C,MX38*%
G36*
G01*
X90529733Y-113303645D02*
X90528847Y-113303584D01*
G75*
G02*
X89483916Y-112103847I77403J1122334D01*
G01*
X89523916Y-111523847D01*
G75*
G02*
X90723653Y-110478916I1122334J-77403D01*
G01*
X90723653Y-110478916D01*
G75*
G02*
X91768584Y-111678653I-77403J-1122334D01*
G01*
X91728584Y-112258653D01*
G75*
G02*
X90528847Y-113303584I-1122334J77403D01*
G01*
G37*
D10*
X90646250Y-111601250D03*
G36*
G01*
X83544938Y-114978600D02*
X83544933Y-114978595D01*
G75*
G02*
X83458905Y-113389933I751317J837345D01*
G01*
X84768907Y-111929933D01*
G75*
G02*
X86357569Y-111843905I837345J-751317D01*
G01*
X86357569Y-111843905D01*
G75*
G02*
X86443597Y-113432567I-751317J-837345D01*
G01*
X85133595Y-114892567D01*
G75*
G02*
X83544933Y-114978595I-837345J751317D01*
G01*
G37*
D11*
X88106250Y-116681250D03*
D10*
X85606250Y-112681250D03*
D12*
X83026250Y-116681250D03*
X93186250Y-116681250D03*
%TD*%
%TO.C,M2*%
G36*
G01*
X30968950Y-121215150D02*
X30968950Y-120338850D01*
G75*
G02*
X31407100Y-119900700I438150J0D01*
G01*
X32283400Y-119900700D01*
G75*
G02*
X32721550Y-120338850I0J-438150D01*
G01*
X32721550Y-121215150D01*
G75*
G02*
X32283400Y-121653300I-438150J0D01*
G01*
X31407100Y-121653300D01*
G75*
G02*
X30968950Y-121215150I0J438150D01*
G01*
G37*
G36*
G01*
X30968950Y-119183150D02*
X30968950Y-118306850D01*
G75*
G02*
X31407100Y-117868700I438150J0D01*
G01*
X32283400Y-117868700D01*
G75*
G02*
X32721550Y-118306850I0J-438150D01*
G01*
X32721550Y-119183150D01*
G75*
G02*
X32283400Y-119621300I-438150J0D01*
G01*
X31407100Y-119621300D01*
G75*
G02*
X30968950Y-119183150I0J438150D01*
G01*
G37*
G36*
G01*
X30968950Y-117151150D02*
X30968950Y-116274850D01*
G75*
G02*
X31407100Y-115836700I438150J0D01*
G01*
X32283400Y-115836700D01*
G75*
G02*
X32721550Y-116274850I0J-438150D01*
G01*
X32721550Y-117151150D01*
G75*
G02*
X32283400Y-117589300I-438150J0D01*
G01*
X31407100Y-117589300D01*
G75*
G02*
X30968950Y-117151150I0J438150D01*
G01*
G37*
G36*
G01*
X30968950Y-115119150D02*
X30968950Y-114242850D01*
G75*
G02*
X31407100Y-113804700I438150J0D01*
G01*
X32283400Y-113804700D01*
G75*
G02*
X32721550Y-114242850I0J-438150D01*
G01*
X32721550Y-115119150D01*
G75*
G02*
X32283400Y-115557300I-438150J0D01*
G01*
X31407100Y-115557300D01*
G75*
G02*
X30968950Y-115119150I0J438150D01*
G01*
G37*
G36*
G01*
X30968950Y-113087150D02*
X30968950Y-112210850D01*
G75*
G02*
X31407100Y-111772700I438150J0D01*
G01*
X32283400Y-111772700D01*
G75*
G02*
X32721550Y-112210850I0J-438150D01*
G01*
X32721550Y-113087150D01*
G75*
G02*
X32283400Y-113525300I-438150J0D01*
G01*
X31407100Y-113525300D01*
G75*
G02*
X30968950Y-113087150I0J438150D01*
G01*
G37*
%TD*%
%TO.C,M1*%
G36*
G01*
X30968950Y-74987150D02*
X30968950Y-74110850D01*
G75*
G02*
X31407100Y-73672700I438150J0D01*
G01*
X32283400Y-73672700D01*
G75*
G02*
X32721550Y-74110850I0J-438150D01*
G01*
X32721550Y-74987150D01*
G75*
G02*
X32283400Y-75425300I-438150J0D01*
G01*
X31407100Y-75425300D01*
G75*
G02*
X30968950Y-74987150I0J438150D01*
G01*
G37*
G36*
G01*
X30968950Y-77019150D02*
X30968950Y-76142850D01*
G75*
G02*
X31407100Y-75704700I438150J0D01*
G01*
X32283400Y-75704700D01*
G75*
G02*
X32721550Y-76142850I0J-438150D01*
G01*
X32721550Y-77019150D01*
G75*
G02*
X32283400Y-77457300I-438150J0D01*
G01*
X31407100Y-77457300D01*
G75*
G02*
X30968950Y-77019150I0J438150D01*
G01*
G37*
G36*
G01*
X30968950Y-79051150D02*
X30968950Y-78174850D01*
G75*
G02*
X31407100Y-77736700I438150J0D01*
G01*
X32283400Y-77736700D01*
G75*
G02*
X32721550Y-78174850I0J-438150D01*
G01*
X32721550Y-79051150D01*
G75*
G02*
X32283400Y-79489300I-438150J0D01*
G01*
X31407100Y-79489300D01*
G75*
G02*
X30968950Y-79051150I0J438150D01*
G01*
G37*
G36*
G01*
X30968950Y-81083150D02*
X30968950Y-80206850D01*
G75*
G02*
X31407100Y-79768700I438150J0D01*
G01*
X32283400Y-79768700D01*
G75*
G02*
X32721550Y-80206850I0J-438150D01*
G01*
X32721550Y-81083150D01*
G75*
G02*
X32283400Y-81521300I-438150J0D01*
G01*
X31407100Y-81521300D01*
G75*
G02*
X30968950Y-81083150I0J438150D01*
G01*
G37*
G36*
G01*
X30968950Y-83115150D02*
X30968950Y-82238850D01*
G75*
G02*
X31407100Y-81800700I438150J0D01*
G01*
X32283400Y-81800700D01*
G75*
G02*
X32721550Y-82238850I0J-438150D01*
G01*
X32721550Y-83115150D01*
G75*
G02*
X32283400Y-83553300I-438150J0D01*
G01*
X31407100Y-83553300D01*
G75*
G02*
X30968950Y-83115150I0J438150D01*
G01*
G37*
%TD*%
D13*
%TO.C,U1*%
X48329850Y-35242500D03*
X33089850Y-63182500D03*
X47872650Y-37782500D03*
X48329850Y-40322500D03*
X47872650Y-42862500D03*
X48329850Y-45402500D03*
X47872650Y-47942500D03*
X48329850Y-50482500D03*
X47872650Y-53022500D03*
X48329850Y-55562500D03*
X47872650Y-58102500D03*
X48329850Y-60642500D03*
X47872650Y-63182500D03*
X32632650Y-60642500D03*
X33089850Y-58102500D03*
X32632650Y-55562500D03*
X33089850Y-53022500D03*
X32632650Y-50482500D03*
X33089850Y-47942500D03*
X32632650Y-45402500D03*
X33089850Y-42862500D03*
X32632650Y-40322500D03*
X33089850Y-37782500D03*
D14*
X32632650Y-35242500D03*
%TD*%
%TO.C,MX25*%
G36*
G01*
X42904733Y-56153645D02*
X42903847Y-56153584D01*
G75*
G02*
X41858916Y-54953847I77403J1122334D01*
G01*
X41898916Y-54373847D01*
G75*
G02*
X43098653Y-53328916I1122334J-77403D01*
G01*
X43098653Y-53328916D01*
G75*
G02*
X44143584Y-54528653I-77403J-1122334D01*
G01*
X44103584Y-55108653D01*
G75*
G02*
X42903847Y-56153584I-1122334J77403D01*
G01*
G37*
D10*
X43021250Y-54451250D03*
G36*
G01*
X35919938Y-57828600D02*
X35919933Y-57828595D01*
G75*
G02*
X35833905Y-56239933I751317J837345D01*
G01*
X37143907Y-54779933D01*
G75*
G02*
X38732569Y-54693905I837345J-751317D01*
G01*
X38732569Y-54693905D01*
G75*
G02*
X38818597Y-56282567I-751317J-837345D01*
G01*
X37508595Y-57742567D01*
G75*
G02*
X35919933Y-57828595I-837345J751317D01*
G01*
G37*
D11*
X40481250Y-59531250D03*
D10*
X37981250Y-55531250D03*
D12*
X35401250Y-59531250D03*
X45561250Y-59531250D03*
%TD*%
%TO.C,MX28*%
G36*
G01*
X47667233Y-113303645D02*
X47666347Y-113303584D01*
G75*
G02*
X46621416Y-112103847I77403J1122334D01*
G01*
X46661416Y-111523847D01*
G75*
G02*
X47861153Y-110478916I1122334J-77403D01*
G01*
X47861153Y-110478916D01*
G75*
G02*
X48906084Y-111678653I-77403J-1122334D01*
G01*
X48866084Y-112258653D01*
G75*
G02*
X47666347Y-113303584I-1122334J77403D01*
G01*
G37*
D10*
X47783750Y-111601250D03*
G36*
G01*
X40682438Y-114978600D02*
X40682433Y-114978595D01*
G75*
G02*
X40596405Y-113389933I751317J837345D01*
G01*
X41906407Y-111929933D01*
G75*
G02*
X43495069Y-111843905I837345J-751317D01*
G01*
X43495069Y-111843905D01*
G75*
G02*
X43581097Y-113432567I-751317J-837345D01*
G01*
X42271095Y-114892567D01*
G75*
G02*
X40682433Y-114978595I-837345J751317D01*
G01*
G37*
D11*
X45243750Y-116681250D03*
D10*
X42743750Y-112681250D03*
D12*
X40163750Y-116681250D03*
X50323750Y-116681250D03*
%TD*%
%TO.C,MX46*%
G36*
G01*
X119104733Y-94253645D02*
X119103847Y-94253584D01*
G75*
G02*
X118058916Y-93053847I77403J1122334D01*
G01*
X118098916Y-92473847D01*
G75*
G02*
X119298653Y-91428916I1122334J-77403D01*
G01*
X119298653Y-91428916D01*
G75*
G02*
X120343584Y-92628653I-77403J-1122334D01*
G01*
X120303584Y-93208653D01*
G75*
G02*
X119103847Y-94253584I-1122334J77403D01*
G01*
G37*
D10*
X119221250Y-92551250D03*
G36*
G01*
X112119938Y-95928600D02*
X112119933Y-95928595D01*
G75*
G02*
X112033905Y-94339933I751317J837345D01*
G01*
X113343907Y-92879933D01*
G75*
G02*
X114932569Y-92793905I837345J-751317D01*
G01*
X114932569Y-92793905D01*
G75*
G02*
X115018597Y-94382567I-751317J-837345D01*
G01*
X113708595Y-95842567D01*
G75*
G02*
X112119933Y-95928595I-837345J751317D01*
G01*
G37*
D11*
X116681250Y-97631250D03*
D10*
X114181250Y-93631250D03*
D12*
X111601250Y-97631250D03*
X121761250Y-97631250D03*
%TD*%
%TO.C,MX45*%
G36*
G01*
X119104733Y-75203645D02*
X119103847Y-75203584D01*
G75*
G02*
X118058916Y-74003847I77403J1122334D01*
G01*
X118098916Y-73423847D01*
G75*
G02*
X119298653Y-72378916I1122334J-77403D01*
G01*
X119298653Y-72378916D01*
G75*
G02*
X120343584Y-73578653I-77403J-1122334D01*
G01*
X120303584Y-74158653D01*
G75*
G02*
X119103847Y-75203584I-1122334J77403D01*
G01*
G37*
D10*
X119221250Y-73501250D03*
G36*
G01*
X112119938Y-76878600D02*
X112119933Y-76878595D01*
G75*
G02*
X112033905Y-75289933I751317J837345D01*
G01*
X113343907Y-73829933D01*
G75*
G02*
X114932569Y-73743905I837345J-751317D01*
G01*
X114932569Y-73743905D01*
G75*
G02*
X115018597Y-75332567I-751317J-837345D01*
G01*
X113708595Y-76792567D01*
G75*
G02*
X112119933Y-76878595I-837345J751317D01*
G01*
G37*
D11*
X116681250Y-78581250D03*
D10*
X114181250Y-74581250D03*
D12*
X111601250Y-78581250D03*
X121761250Y-78581250D03*
%TD*%
%TO.C,MX44*%
G36*
G01*
X119104733Y-56153645D02*
X119103847Y-56153584D01*
G75*
G02*
X118058916Y-54953847I77403J1122334D01*
G01*
X118098916Y-54373847D01*
G75*
G02*
X119298653Y-53328916I1122334J-77403D01*
G01*
X119298653Y-53328916D01*
G75*
G02*
X120343584Y-54528653I-77403J-1122334D01*
G01*
X120303584Y-55108653D01*
G75*
G02*
X119103847Y-56153584I-1122334J77403D01*
G01*
G37*
D10*
X119221250Y-54451250D03*
G36*
G01*
X112119938Y-57828600D02*
X112119933Y-57828595D01*
G75*
G02*
X112033905Y-56239933I751317J837345D01*
G01*
X113343907Y-54779933D01*
G75*
G02*
X114932569Y-54693905I837345J-751317D01*
G01*
X114932569Y-54693905D01*
G75*
G02*
X115018597Y-56282567I-751317J-837345D01*
G01*
X113708595Y-57742567D01*
G75*
G02*
X112119933Y-57828595I-837345J751317D01*
G01*
G37*
D11*
X116681250Y-59531250D03*
D10*
X114181250Y-55531250D03*
D12*
X111601250Y-59531250D03*
X121761250Y-59531250D03*
%TD*%
%TO.C,MX43*%
G36*
G01*
X119104733Y-37103645D02*
X119103847Y-37103584D01*
G75*
G02*
X118058916Y-35903847I77403J1122334D01*
G01*
X118098916Y-35323847D01*
G75*
G02*
X119298653Y-34278916I1122334J-77403D01*
G01*
X119298653Y-34278916D01*
G75*
G02*
X120343584Y-35478653I-77403J-1122334D01*
G01*
X120303584Y-36058653D01*
G75*
G02*
X119103847Y-37103584I-1122334J77403D01*
G01*
G37*
D10*
X119221250Y-35401250D03*
G36*
G01*
X112119938Y-38778600D02*
X112119933Y-38778595D01*
G75*
G02*
X112033905Y-37189933I751317J837345D01*
G01*
X113343907Y-35729933D01*
G75*
G02*
X114932569Y-35643905I837345J-751317D01*
G01*
X114932569Y-35643905D01*
G75*
G02*
X115018597Y-37232567I-751317J-837345D01*
G01*
X113708595Y-38692567D01*
G75*
G02*
X112119933Y-38778595I-837345J751317D01*
G01*
G37*
D11*
X116681250Y-40481250D03*
D10*
X114181250Y-36481250D03*
D12*
X111601250Y-40481250D03*
X121761250Y-40481250D03*
%TD*%
%TO.C,MX42*%
G36*
G01*
X100054733Y-94253645D02*
X100053847Y-94253584D01*
G75*
G02*
X99008916Y-93053847I77403J1122334D01*
G01*
X99048916Y-92473847D01*
G75*
G02*
X100248653Y-91428916I1122334J-77403D01*
G01*
X100248653Y-91428916D01*
G75*
G02*
X101293584Y-92628653I-77403J-1122334D01*
G01*
X101253584Y-93208653D01*
G75*
G02*
X100053847Y-94253584I-1122334J77403D01*
G01*
G37*
D10*
X100171250Y-92551250D03*
G36*
G01*
X93069938Y-95928600D02*
X93069933Y-95928595D01*
G75*
G02*
X92983905Y-94339933I751317J837345D01*
G01*
X94293907Y-92879933D01*
G75*
G02*
X95882569Y-92793905I837345J-751317D01*
G01*
X95882569Y-92793905D01*
G75*
G02*
X95968597Y-94382567I-751317J-837345D01*
G01*
X94658595Y-95842567D01*
G75*
G02*
X93069933Y-95928595I-837345J751317D01*
G01*
G37*
D11*
X97631250Y-97631250D03*
D10*
X95131250Y-93631250D03*
D12*
X92551250Y-97631250D03*
X102711250Y-97631250D03*
%TD*%
%TO.C,MX41*%
G36*
G01*
X100054733Y-75203645D02*
X100053847Y-75203584D01*
G75*
G02*
X99008916Y-74003847I77403J1122334D01*
G01*
X99048916Y-73423847D01*
G75*
G02*
X100248653Y-72378916I1122334J-77403D01*
G01*
X100248653Y-72378916D01*
G75*
G02*
X101293584Y-73578653I-77403J-1122334D01*
G01*
X101253584Y-74158653D01*
G75*
G02*
X100053847Y-75203584I-1122334J77403D01*
G01*
G37*
D10*
X100171250Y-73501250D03*
G36*
G01*
X93069938Y-76878600D02*
X93069933Y-76878595D01*
G75*
G02*
X92983905Y-75289933I751317J837345D01*
G01*
X94293907Y-73829933D01*
G75*
G02*
X95882569Y-73743905I837345J-751317D01*
G01*
X95882569Y-73743905D01*
G75*
G02*
X95968597Y-75332567I-751317J-837345D01*
G01*
X94658595Y-76792567D01*
G75*
G02*
X93069933Y-76878595I-837345J751317D01*
G01*
G37*
D11*
X97631250Y-78581250D03*
D10*
X95131250Y-74581250D03*
D12*
X92551250Y-78581250D03*
X102711250Y-78581250D03*
%TD*%
%TO.C,MX40*%
G36*
G01*
X100054733Y-56153645D02*
X100053847Y-56153584D01*
G75*
G02*
X99008916Y-54953847I77403J1122334D01*
G01*
X99048916Y-54373847D01*
G75*
G02*
X100248653Y-53328916I1122334J-77403D01*
G01*
X100248653Y-53328916D01*
G75*
G02*
X101293584Y-54528653I-77403J-1122334D01*
G01*
X101253584Y-55108653D01*
G75*
G02*
X100053847Y-56153584I-1122334J77403D01*
G01*
G37*
D10*
X100171250Y-54451250D03*
G36*
G01*
X93069938Y-57828600D02*
X93069933Y-57828595D01*
G75*
G02*
X92983905Y-56239933I751317J837345D01*
G01*
X94293907Y-54779933D01*
G75*
G02*
X95882569Y-54693905I837345J-751317D01*
G01*
X95882569Y-54693905D01*
G75*
G02*
X95968597Y-56282567I-751317J-837345D01*
G01*
X94658595Y-57742567D01*
G75*
G02*
X93069933Y-57828595I-837345J751317D01*
G01*
G37*
D11*
X97631250Y-59531250D03*
D10*
X95131250Y-55531250D03*
D12*
X92551250Y-59531250D03*
X102711250Y-59531250D03*
%TD*%
%TO.C,MX39*%
G36*
G01*
X100054733Y-37103645D02*
X100053847Y-37103584D01*
G75*
G02*
X99008916Y-35903847I77403J1122334D01*
G01*
X99048916Y-35323847D01*
G75*
G02*
X100248653Y-34278916I1122334J-77403D01*
G01*
X100248653Y-34278916D01*
G75*
G02*
X101293584Y-35478653I-77403J-1122334D01*
G01*
X101253584Y-36058653D01*
G75*
G02*
X100053847Y-37103584I-1122334J77403D01*
G01*
G37*
D10*
X100171250Y-35401250D03*
G36*
G01*
X93069938Y-38778600D02*
X93069933Y-38778595D01*
G75*
G02*
X92983905Y-37189933I751317J837345D01*
G01*
X94293907Y-35729933D01*
G75*
G02*
X95882569Y-35643905I837345J-751317D01*
G01*
X95882569Y-35643905D01*
G75*
G02*
X95968597Y-37232567I-751317J-837345D01*
G01*
X94658595Y-38692567D01*
G75*
G02*
X93069933Y-38778595I-837345J751317D01*
G01*
G37*
D11*
X97631250Y-40481250D03*
D10*
X95131250Y-36481250D03*
D12*
X92551250Y-40481250D03*
X102711250Y-40481250D03*
%TD*%
%TO.C,MX37*%
G36*
G01*
X81004733Y-94253645D02*
X81003847Y-94253584D01*
G75*
G02*
X79958916Y-93053847I77403J1122334D01*
G01*
X79998916Y-92473847D01*
G75*
G02*
X81198653Y-91428916I1122334J-77403D01*
G01*
X81198653Y-91428916D01*
G75*
G02*
X82243584Y-92628653I-77403J-1122334D01*
G01*
X82203584Y-93208653D01*
G75*
G02*
X81003847Y-94253584I-1122334J77403D01*
G01*
G37*
D10*
X81121250Y-92551250D03*
G36*
G01*
X74019938Y-95928600D02*
X74019933Y-95928595D01*
G75*
G02*
X73933905Y-94339933I751317J837345D01*
G01*
X75243907Y-92879933D01*
G75*
G02*
X76832569Y-92793905I837345J-751317D01*
G01*
X76832569Y-92793905D01*
G75*
G02*
X76918597Y-94382567I-751317J-837345D01*
G01*
X75608595Y-95842567D01*
G75*
G02*
X74019933Y-95928595I-837345J751317D01*
G01*
G37*
D11*
X78581250Y-97631250D03*
D10*
X76081250Y-93631250D03*
D12*
X73501250Y-97631250D03*
X83661250Y-97631250D03*
%TD*%
%TO.C,MX36*%
G36*
G01*
X81004733Y-75203645D02*
X81003847Y-75203584D01*
G75*
G02*
X79958916Y-74003847I77403J1122334D01*
G01*
X79998916Y-73423847D01*
G75*
G02*
X81198653Y-72378916I1122334J-77403D01*
G01*
X81198653Y-72378916D01*
G75*
G02*
X82243584Y-73578653I-77403J-1122334D01*
G01*
X82203584Y-74158653D01*
G75*
G02*
X81003847Y-75203584I-1122334J77403D01*
G01*
G37*
D10*
X81121250Y-73501250D03*
G36*
G01*
X74019938Y-76878600D02*
X74019933Y-76878595D01*
G75*
G02*
X73933905Y-75289933I751317J837345D01*
G01*
X75243907Y-73829933D01*
G75*
G02*
X76832569Y-73743905I837345J-751317D01*
G01*
X76832569Y-73743905D01*
G75*
G02*
X76918597Y-75332567I-751317J-837345D01*
G01*
X75608595Y-76792567D01*
G75*
G02*
X74019933Y-76878595I-837345J751317D01*
G01*
G37*
D11*
X78581250Y-78581250D03*
D10*
X76081250Y-74581250D03*
D12*
X73501250Y-78581250D03*
X83661250Y-78581250D03*
%TD*%
%TO.C,MX35*%
G36*
G01*
X81004733Y-56153645D02*
X81003847Y-56153584D01*
G75*
G02*
X79958916Y-54953847I77403J1122334D01*
G01*
X79998916Y-54373847D01*
G75*
G02*
X81198653Y-53328916I1122334J-77403D01*
G01*
X81198653Y-53328916D01*
G75*
G02*
X82243584Y-54528653I-77403J-1122334D01*
G01*
X82203584Y-55108653D01*
G75*
G02*
X81003847Y-56153584I-1122334J77403D01*
G01*
G37*
D10*
X81121250Y-54451250D03*
G36*
G01*
X74019938Y-57828600D02*
X74019933Y-57828595D01*
G75*
G02*
X73933905Y-56239933I751317J837345D01*
G01*
X75243907Y-54779933D01*
G75*
G02*
X76832569Y-54693905I837345J-751317D01*
G01*
X76832569Y-54693905D01*
G75*
G02*
X76918597Y-56282567I-751317J-837345D01*
G01*
X75608595Y-57742567D01*
G75*
G02*
X74019933Y-57828595I-837345J751317D01*
G01*
G37*
D11*
X78581250Y-59531250D03*
D10*
X76081250Y-55531250D03*
D12*
X73501250Y-59531250D03*
X83661250Y-59531250D03*
%TD*%
%TO.C,MX34*%
G36*
G01*
X81004733Y-37103645D02*
X81003847Y-37103584D01*
G75*
G02*
X79958916Y-35903847I77403J1122334D01*
G01*
X79998916Y-35323847D01*
G75*
G02*
X81198653Y-34278916I1122334J-77403D01*
G01*
X81198653Y-34278916D01*
G75*
G02*
X82243584Y-35478653I-77403J-1122334D01*
G01*
X82203584Y-36058653D01*
G75*
G02*
X81003847Y-37103584I-1122334J77403D01*
G01*
G37*
D10*
X81121250Y-35401250D03*
G36*
G01*
X74019938Y-38778600D02*
X74019933Y-38778595D01*
G75*
G02*
X73933905Y-37189933I751317J837345D01*
G01*
X75243907Y-35729933D01*
G75*
G02*
X76832569Y-35643905I837345J-751317D01*
G01*
X76832569Y-35643905D01*
G75*
G02*
X76918597Y-37232567I-751317J-837345D01*
G01*
X75608595Y-38692567D01*
G75*
G02*
X74019933Y-38778595I-837345J751317D01*
G01*
G37*
D11*
X78581250Y-40481250D03*
D10*
X76081250Y-36481250D03*
D12*
X73501250Y-40481250D03*
X83661250Y-40481250D03*
%TD*%
%TO.C,MX33*%
G36*
G01*
X71479733Y-113303645D02*
X71478847Y-113303584D01*
G75*
G02*
X70433916Y-112103847I77403J1122334D01*
G01*
X70473916Y-111523847D01*
G75*
G02*
X71673653Y-110478916I1122334J-77403D01*
G01*
X71673653Y-110478916D01*
G75*
G02*
X72718584Y-111678653I-77403J-1122334D01*
G01*
X72678584Y-112258653D01*
G75*
G02*
X71478847Y-113303584I-1122334J77403D01*
G01*
G37*
D10*
X71596250Y-111601250D03*
G36*
G01*
X64494938Y-114978600D02*
X64494933Y-114978595D01*
G75*
G02*
X64408905Y-113389933I751317J837345D01*
G01*
X65718907Y-111929933D01*
G75*
G02*
X67307569Y-111843905I837345J-751317D01*
G01*
X67307569Y-111843905D01*
G75*
G02*
X67393597Y-113432567I-751317J-837345D01*
G01*
X66083595Y-114892567D01*
G75*
G02*
X64494933Y-114978595I-837345J751317D01*
G01*
G37*
D11*
X69056250Y-116681250D03*
D10*
X66556250Y-112681250D03*
D12*
X63976250Y-116681250D03*
X74136250Y-116681250D03*
%TD*%
%TO.C,MX32*%
G36*
G01*
X61954733Y-94253645D02*
X61953847Y-94253584D01*
G75*
G02*
X60908916Y-93053847I77403J1122334D01*
G01*
X60948916Y-92473847D01*
G75*
G02*
X62148653Y-91428916I1122334J-77403D01*
G01*
X62148653Y-91428916D01*
G75*
G02*
X63193584Y-92628653I-77403J-1122334D01*
G01*
X63153584Y-93208653D01*
G75*
G02*
X61953847Y-94253584I-1122334J77403D01*
G01*
G37*
D10*
X62071250Y-92551250D03*
G36*
G01*
X54969938Y-95928600D02*
X54969933Y-95928595D01*
G75*
G02*
X54883905Y-94339933I751317J837345D01*
G01*
X56193907Y-92879933D01*
G75*
G02*
X57782569Y-92793905I837345J-751317D01*
G01*
X57782569Y-92793905D01*
G75*
G02*
X57868597Y-94382567I-751317J-837345D01*
G01*
X56558595Y-95842567D01*
G75*
G02*
X54969933Y-95928595I-837345J751317D01*
G01*
G37*
D11*
X59531250Y-97631250D03*
D10*
X57031250Y-93631250D03*
D12*
X54451250Y-97631250D03*
X64611250Y-97631250D03*
%TD*%
%TO.C,MX31*%
G36*
G01*
X61954733Y-75203645D02*
X61953847Y-75203584D01*
G75*
G02*
X60908916Y-74003847I77403J1122334D01*
G01*
X60948916Y-73423847D01*
G75*
G02*
X62148653Y-72378916I1122334J-77403D01*
G01*
X62148653Y-72378916D01*
G75*
G02*
X63193584Y-73578653I-77403J-1122334D01*
G01*
X63153584Y-74158653D01*
G75*
G02*
X61953847Y-75203584I-1122334J77403D01*
G01*
G37*
D10*
X62071250Y-73501250D03*
G36*
G01*
X54969938Y-76878600D02*
X54969933Y-76878595D01*
G75*
G02*
X54883905Y-75289933I751317J837345D01*
G01*
X56193907Y-73829933D01*
G75*
G02*
X57782569Y-73743905I837345J-751317D01*
G01*
X57782569Y-73743905D01*
G75*
G02*
X57868597Y-75332567I-751317J-837345D01*
G01*
X56558595Y-76792567D01*
G75*
G02*
X54969933Y-76878595I-837345J751317D01*
G01*
G37*
D11*
X59531250Y-78581250D03*
D10*
X57031250Y-74581250D03*
D12*
X54451250Y-78581250D03*
X64611250Y-78581250D03*
%TD*%
%TO.C,MX30*%
G36*
G01*
X61954733Y-56153645D02*
X61953847Y-56153584D01*
G75*
G02*
X60908916Y-54953847I77403J1122334D01*
G01*
X60948916Y-54373847D01*
G75*
G02*
X62148653Y-53328916I1122334J-77403D01*
G01*
X62148653Y-53328916D01*
G75*
G02*
X63193584Y-54528653I-77403J-1122334D01*
G01*
X63153584Y-55108653D01*
G75*
G02*
X61953847Y-56153584I-1122334J77403D01*
G01*
G37*
D10*
X62071250Y-54451250D03*
G36*
G01*
X54969938Y-57828600D02*
X54969933Y-57828595D01*
G75*
G02*
X54883905Y-56239933I751317J837345D01*
G01*
X56193907Y-54779933D01*
G75*
G02*
X57782569Y-54693905I837345J-751317D01*
G01*
X57782569Y-54693905D01*
G75*
G02*
X57868597Y-56282567I-751317J-837345D01*
G01*
X56558595Y-57742567D01*
G75*
G02*
X54969933Y-57828595I-837345J751317D01*
G01*
G37*
D11*
X59531250Y-59531250D03*
D10*
X57031250Y-55531250D03*
D12*
X54451250Y-59531250D03*
X64611250Y-59531250D03*
%TD*%
%TO.C,MX29*%
G36*
G01*
X61954733Y-37103645D02*
X61953847Y-37103584D01*
G75*
G02*
X60908916Y-35903847I77403J1122334D01*
G01*
X60948916Y-35323847D01*
G75*
G02*
X62148653Y-34278916I1122334J-77403D01*
G01*
X62148653Y-34278916D01*
G75*
G02*
X63193584Y-35478653I-77403J-1122334D01*
G01*
X63153584Y-36058653D01*
G75*
G02*
X61953847Y-37103584I-1122334J77403D01*
G01*
G37*
D10*
X62071250Y-35401250D03*
G36*
G01*
X54969938Y-38778600D02*
X54969933Y-38778595D01*
G75*
G02*
X54883905Y-37189933I751317J837345D01*
G01*
X56193907Y-35729933D01*
G75*
G02*
X57782569Y-35643905I837345J-751317D01*
G01*
X57782569Y-35643905D01*
G75*
G02*
X57868597Y-37232567I-751317J-837345D01*
G01*
X56558595Y-38692567D01*
G75*
G02*
X54969933Y-38778595I-837345J751317D01*
G01*
G37*
D11*
X59531250Y-40481250D03*
D10*
X57031250Y-36481250D03*
D12*
X54451250Y-40481250D03*
X64611250Y-40481250D03*
%TD*%
%TO.C,MX27*%
G36*
G01*
X42904733Y-94253645D02*
X42903847Y-94253584D01*
G75*
G02*
X41858916Y-93053847I77403J1122334D01*
G01*
X41898916Y-92473847D01*
G75*
G02*
X43098653Y-91428916I1122334J-77403D01*
G01*
X43098653Y-91428916D01*
G75*
G02*
X44143584Y-92628653I-77403J-1122334D01*
G01*
X44103584Y-93208653D01*
G75*
G02*
X42903847Y-94253584I-1122334J77403D01*
G01*
G37*
D10*
X43021250Y-92551250D03*
G36*
G01*
X35919938Y-95928600D02*
X35919933Y-95928595D01*
G75*
G02*
X35833905Y-94339933I751317J837345D01*
G01*
X37143907Y-92879933D01*
G75*
G02*
X38732569Y-92793905I837345J-751317D01*
G01*
X38732569Y-92793905D01*
G75*
G02*
X38818597Y-94382567I-751317J-837345D01*
G01*
X37508595Y-95842567D01*
G75*
G02*
X35919933Y-95928595I-837345J751317D01*
G01*
G37*
D11*
X40481250Y-97631250D03*
D10*
X37981250Y-93631250D03*
D12*
X35401250Y-97631250D03*
X45561250Y-97631250D03*
%TD*%
%TO.C,MX26*%
G36*
G01*
X42904733Y-75203645D02*
X42903847Y-75203584D01*
G75*
G02*
X41858916Y-74003847I77403J1122334D01*
G01*
X41898916Y-73423847D01*
G75*
G02*
X43098653Y-72378916I1122334J-77403D01*
G01*
X43098653Y-72378916D01*
G75*
G02*
X44143584Y-73578653I-77403J-1122334D01*
G01*
X44103584Y-74158653D01*
G75*
G02*
X42903847Y-75203584I-1122334J77403D01*
G01*
G37*
D10*
X43021250Y-73501250D03*
G36*
G01*
X35919938Y-76878600D02*
X35919933Y-76878595D01*
G75*
G02*
X35833905Y-75289933I751317J837345D01*
G01*
X37143907Y-73829933D01*
G75*
G02*
X38732569Y-73743905I837345J-751317D01*
G01*
X38732569Y-73743905D01*
G75*
G02*
X38818597Y-75332567I-751317J-837345D01*
G01*
X37508595Y-76792567D01*
G75*
G02*
X35919933Y-76878595I-837345J751317D01*
G01*
G37*
D11*
X40481250Y-78581250D03*
D10*
X37981250Y-74581250D03*
D12*
X35401250Y-78581250D03*
X45561250Y-78581250D03*
%TD*%
%TO.C,MX24*%
G36*
G01*
X42904733Y-37103645D02*
X42903847Y-37103584D01*
G75*
G02*
X41858916Y-35903847I77403J1122334D01*
G01*
X41898916Y-35323847D01*
G75*
G02*
X43098653Y-34278916I1122334J-77403D01*
G01*
X43098653Y-34278916D01*
G75*
G02*
X44143584Y-35478653I-77403J-1122334D01*
G01*
X44103584Y-36058653D01*
G75*
G02*
X42903847Y-37103584I-1122334J77403D01*
G01*
G37*
D10*
X43021250Y-35401250D03*
G36*
G01*
X35919938Y-38778600D02*
X35919933Y-38778595D01*
G75*
G02*
X35833905Y-37189933I751317J837345D01*
G01*
X37143907Y-35729933D01*
G75*
G02*
X38732569Y-35643905I837345J-751317D01*
G01*
X38732569Y-35643905D01*
G75*
G02*
X38818597Y-37232567I-751317J-837345D01*
G01*
X37508595Y-38692567D01*
G75*
G02*
X35919933Y-38778595I-837345J751317D01*
G01*
G37*
D11*
X40481250Y-40481250D03*
D10*
X37981250Y-36481250D03*
D12*
X35401250Y-40481250D03*
X45561250Y-40481250D03*
%TD*%
D15*
%TO.C,D46*%
X124618750Y-101531250D03*
D16*
X124618750Y-93731250D03*
D17*
X124618750Y-99031250D03*
X124618750Y-96231250D03*
%TD*%
D15*
%TO.C,D45*%
X124618750Y-82481250D03*
D16*
X124618750Y-74681250D03*
D17*
X124618750Y-79981250D03*
X124618750Y-77181250D03*
%TD*%
D15*
%TO.C,D44*%
X124618750Y-63431250D03*
D16*
X124618750Y-55631250D03*
D17*
X124618750Y-60931250D03*
X124618750Y-58131250D03*
%TD*%
D15*
%TO.C,D43*%
X124618750Y-44381250D03*
D16*
X124618750Y-36581250D03*
D17*
X124618750Y-41881250D03*
X124618750Y-39081250D03*
%TD*%
D15*
%TO.C,D42*%
X105568750Y-101528250D03*
D16*
X105568750Y-93728250D03*
D17*
X105568750Y-99028250D03*
X105568750Y-96228250D03*
%TD*%
D15*
%TO.C,D41*%
X105568750Y-82481250D03*
D16*
X105568750Y-74681250D03*
D17*
X105568750Y-79981250D03*
X105568750Y-77181250D03*
%TD*%
D15*
%TO.C,D40*%
X105568750Y-63431250D03*
D16*
X105568750Y-55631250D03*
D17*
X105568750Y-60931250D03*
X105568750Y-58131250D03*
%TD*%
D15*
%TO.C,D39*%
X105568750Y-44381250D03*
D16*
X105568750Y-36581250D03*
D17*
X105568750Y-41881250D03*
X105568750Y-39081250D03*
%TD*%
D15*
%TO.C,D38*%
X96043750Y-120581250D03*
D16*
X96043750Y-112781250D03*
D17*
X96043750Y-118081250D03*
X96043750Y-115281250D03*
%TD*%
D15*
%TO.C,D37*%
X86518750Y-101531250D03*
D16*
X86518750Y-93731250D03*
D17*
X86518750Y-99031250D03*
X86518750Y-96231250D03*
%TD*%
D15*
%TO.C,D36*%
X86518750Y-82481250D03*
D16*
X86518750Y-74681250D03*
D17*
X86518750Y-79981250D03*
X86518750Y-77181250D03*
%TD*%
D15*
%TO.C,D35*%
X86518750Y-63431250D03*
D16*
X86518750Y-55631250D03*
D17*
X86518750Y-60931250D03*
X86518750Y-58131250D03*
%TD*%
D15*
%TO.C,D34*%
X86518750Y-44381250D03*
D16*
X86518750Y-36581250D03*
D17*
X86518750Y-41881250D03*
X86518750Y-39081250D03*
%TD*%
D15*
%TO.C,D33*%
X76993750Y-120581250D03*
D16*
X76993750Y-112781250D03*
D17*
X76993750Y-118081250D03*
X76993750Y-115281250D03*
%TD*%
D15*
%TO.C,D32*%
X67468750Y-101531250D03*
D16*
X67468750Y-93731250D03*
D17*
X67468750Y-99031250D03*
X67468750Y-96231250D03*
%TD*%
D15*
%TO.C,D31*%
X67468750Y-82481250D03*
D16*
X67468750Y-74681250D03*
D17*
X67468750Y-79981250D03*
X67468750Y-77181250D03*
%TD*%
D15*
%TO.C,D30*%
X67468750Y-63431250D03*
D16*
X67468750Y-55631250D03*
D17*
X67468750Y-60931250D03*
X67468750Y-58131250D03*
%TD*%
D15*
%TO.C,D29*%
X67468750Y-44381250D03*
D16*
X67468750Y-36581250D03*
D17*
X67468750Y-41881250D03*
X67468750Y-39081250D03*
%TD*%
D15*
%TO.C,D28*%
X53181250Y-120581250D03*
D16*
X53181250Y-112781250D03*
D17*
X53181250Y-118081250D03*
X53181250Y-115281250D03*
%TD*%
D15*
%TO.C,D27*%
X48418750Y-101531250D03*
D16*
X48418750Y-93731250D03*
D17*
X48418750Y-99031250D03*
X48418750Y-96231250D03*
%TD*%
D15*
%TO.C,D26*%
X48418750Y-82481250D03*
D16*
X48418750Y-74681250D03*
D17*
X48418750Y-79981250D03*
X48418750Y-77181250D03*
%TD*%
D15*
%TO.C,D25*%
X36581250Y-67468750D03*
D16*
X44381250Y-67468750D03*
D18*
X39081250Y-67468750D03*
X41881250Y-67468750D03*
%TD*%
D15*
%TO.C,D24*%
X36393750Y-48418750D03*
D16*
X44193750Y-48418750D03*
D18*
X38893750Y-48418750D03*
X41693750Y-48418750D03*
%TD*%
M02*
