M48
; DRILL file {KiCad (5.1.12)-1} date 01/01/22 12:52:48
; FORMAT={-:-/ absolute / inch / decimal}
; #@! TF.CreationDate,2022-01-01T12:52:48-05:00
; #@! TF.GenerationSoftware,Kicad,Pcbnew,(5.1.12)-1
; #@! TF.FileFunction,NonPlated,1,2,NPTH
FMAT,2
INCH
T1C0.0689
T2C0.1570
%
G90
G05
T1
X0.675Y-0.875
X0.675Y-1.625
X0.675Y-2.375
X0.675Y-3.125
X1.075Y-0.875
X1.075Y-1.625
X1.075Y-2.375
X1.075Y-3.125
X1.425Y-0.875
X1.425Y-1.625
X1.425Y-2.375
X1.425Y-3.125
X1.8Y-3.875
X1.825Y-0.875
X1.825Y-1.625
X1.825Y-2.375
X1.825Y-3.125
X2.175Y-0.875
X2.175Y-1.625
X2.175Y-2.375
X2.175Y-3.125
X2.2Y-3.875
X2.55Y-3.875
X2.575Y-0.875
X2.575Y-1.625
X2.575Y-2.375
X2.575Y-3.125
X2.925Y-0.875
X2.925Y-1.625
X2.925Y-2.375
X2.925Y-3.125
X2.95Y-3.875
X3.325Y-0.875
X3.325Y-1.625
X3.325Y-2.375
X3.325Y-3.125
X3.4875Y-3.875
X3.675Y-0.875
X3.675Y-1.625
X3.675Y-2.375
X3.675Y-3.125
X3.8875Y-3.875
X4.075Y-0.875
X4.075Y-1.625
X4.075Y-2.375
X4.075Y-3.125
T2
X0.875Y-0.875
X0.875Y-1.625
X0.875Y-2.375
X0.875Y-3.125
X1.625Y-0.875
X1.625Y-1.625
X1.625Y-2.375
X1.625Y-3.125
X2.0Y-3.875
X2.375Y-0.875
X2.375Y-1.625
X2.375Y-2.375
X2.375Y-3.125
X2.75Y-3.875
X3.125Y-0.875
X3.125Y-1.625
X3.125Y-2.375
X3.125Y-3.125
X3.6875Y-3.875
X3.875Y-0.875
X3.875Y-1.625
X3.875Y-2.375
X3.875Y-3.125
T0
M30
